<svg width="388" height="209" viewBox="0 0 388 209" fill="none" xmlns="http://www.w3.org/2000/svg">
<path d="M15.2451 33.57C13.1051 28.68 10.3851 24 9.21507 18.73C8.16507 18.71 6.43507 18.89 6.18507 17.58L6.12507 1.79C6.14507 1.08 6.72509 0.14 7.45509 0H176.545C177.135 0.11 177.895 0.920001 177.885 1.54C177.415 6.45 178.465 12.37 177.885 17.15C177.825 17.64 177.315 18.7 176.795 18.7H163.725L170.005 28.85L173.285 35.19C173.405 35.54 173.155 35.95 172.835 36.09C172.745 36.13 170.905 36.45 170.795 36.45H162.995C164.645 40.33 166.775 43.98 168.555 47.8C169.525 49.89 170.895 54.37 171.875 55.92C172.165 56.39 172.965 56.41 173.075 57.2C173.185 57.99 172.835 58.71 171.975 58.72L163.235 58.5L172.805 73.75C173.235 74.61 171.895 75.04 171.275 75.04H157.965L171.255 93.29C171.885 93.86 172.135 95.43 171.035 95.43H162.275L173.305 112.82C173.425 113.21 172.405 113.66 172.225 113.66H167.545L174.125 121.83C174.755 122.49 175.185 124.63 174.095 124.9C172.825 124.56 172.355 123.88 170.905 124.45C171.835 127.31 171.515 128.45 168.265 128.29C168.565 128.91 169.025 129.9 168.995 130.58C168.965 131.36 168.325 131.46 168.255 132.02C168.115 133.08 169.215 135.06 168.205 136.15C167.035 137.4 161.475 137.31 159.745 137.4C146.215 138.12 132.535 137.28 118.965 137.64C104.315 138.03 89.7051 139.54 75.0851 140.29L21.7051 149.16C22.9551 156.55 22.5151 164.11 22.9051 171.58C23.2951 179.05 23.8851 188.32 24.8251 196.04C24.8751 196.45 25.2851 198.86 25.3551 198.99C25.4251 199.12 26.3151 199.48 26.6151 199.77C28.4951 201.58 28.5551 204.96 26.7451 206.85C22.4151 211.38 13.6051 203.22 20.0351 198.47C20.6351 198.03 22.1451 197.52 22.1851 197.01C21.8051 193.1 21.2851 189.17 20.9751 185.25C20.2551 176.22 19.6451 166.96 20.1051 157.95C20.2551 155.09 20.5951 152.23 20.9751 149.4C16.9451 149.59 11.9351 151.93 7.96507 151.26C3.33507 150.48 8.89509 145.96 9.20509 143.8C7.70509 142.53 6.10508 141.34 4.47508 140.36C3.71508 135.81 1.72508 131.61 0.665082 127.15C-0.0249175 124.29 -0.484916 122.9 0.885084 120.07C1.82508 118.11 3.38508 116.88 4.81508 115.36C5.67508 114.45 5.15508 114.22 6.84508 113.56C7.34508 113.36 10.3551 112.24 10.5551 112.24H17.8751L8.55507 94.56C8.49507 94.19 8.64508 93.82 8.88508 93.54C9.84508 92.45 14.8351 93.72 16.4351 93.29C15.0451 90.58 13.8351 87.74 12.7251 84.89C11.6151 82.04 10.8551 79.29 9.83506 76.5C9.51506 75.62 8.35507 74.92 9.34507 73.85C10.0351 73.11 10.4151 73.62 10.7951 73.62H15.9551C13.9051 69.13 11.7951 64.68 10.3151 59.95C10.0251 59.03 9.94507 57.83 9.65507 57.01C9.46507 56.46 8.75508 56.39 9.10508 55.63C9.15508 55.53 9.55507 55.15 9.59507 55.15H17.3951C14.5751 49.06 12.3551 42.71 10.5151 36.25C10.3051 35.51 9.66508 35.32 10.1351 34.34C10.2551 34.1 10.8451 33.56 11.0351 33.56H15.2351L15.2451 33.57ZM170.915 15.83C172.275 15.83 173.635 15.83 174.995 15.83V2.88H9.00508V15.83C9.72508 15.83 10.4451 15.81 11.1651 15.83C37.4251 16.34 63.8051 15.83 90.0851 15.83C94.2351 15.83 98.4051 15.83 102.555 15.83C106.065 15.83 109.595 15.83 113.105 15.83C115.895 15.83 118.705 15.83 121.505 15.83C137.965 15.83 154.455 15.94 170.915 15.83ZM11.6451 18.7L10.6851 18.82L18.5051 33.83C29.6151 33.86 40.7251 33.74 51.8251 33.81C89.7951 34.03 128.045 33.39 166.005 34.29C167.695 34.33 169.635 34.87 171.395 34.42C167.225 29.8 164.345 24.18 160.855 19.06C160.265 18.47 159.245 18.74 158.445 18.71H11.6451V18.7ZM13.8051 36.21C13.2751 36.21 12.5951 36.1 12.1251 36.33L20.1851 55.17C22.0151 55.2 23.8551 55.08 25.6851 55.15C55.5551 56.2 85.7051 55.7 115.635 55.87C132.775 55.97 150.605 55.55 167.685 56.11C168.235 56.13 170.585 56.84 170.415 55.79L160.575 36.48C159.785 36.41 158.995 36.46 158.205 36.45C122.515 35.98 86.7851 36.34 51.0951 36.22C38.6751 36.18 26.2351 36.04 13.8051 36.21ZM13.0851 57.08C12.6451 57.07 10.6751 56.56 10.9251 57.2L18.7351 73.65L171.155 73.39L160.955 58.53C160.405 58.08 157.695 58.3 156.755 58.29C127.525 57.9 98.2851 57.57 69.0951 57.32C50.4751 57.16 31.6751 57.65 13.0751 57.09L13.0851 57.08ZM14.0451 75.78C13.0951 75.78 12.0951 75.68 11.1651 75.9C14.4551 81.37 16.1951 87.69 19.2251 93.27L19.9351 93.52C69.9951 93.49 120.035 93.74 170.075 94.02C170.445 93.83 170.095 93.6 169.955 93.42C169.245 92.46 167.915 91.5 167.075 90.54C165.005 88.16 162.895 85.27 160.975 82.73C159.055 80.19 157.145 77.86 155.755 75.12C154.655 75.03 153.535 75.1 152.435 75.08C106.395 74.48 60.0751 75.53 14.0351 75.8L14.0451 75.78ZM12.6051 95.21L10.6851 95.57L20.3851 112.26L171.145 112.24C166.965 107.12 163.805 101.28 160.125 95.8C159.545 95.2 157.665 95.47 156.755 95.45C108.745 94.55 60.6251 95.84 12.5951 95.21H12.6051ZM162.285 113.91C161.365 113.98 158.355 114.46 157.875 114.4C157.695 114.38 157.845 113.95 157.385 113.89C154.265 113.47 149.785 114.07 146.585 114.16C104.225 113.91 61.9251 114.66 19.5651 114.63C20.7551 116.59 21.6151 118.63 22.2051 120.86C22.5351 122.11 22.6051 123.44 22.9551 124.66C27.6851 124.58 32.4751 124.87 37.2051 124.7C43.8251 124.46 50.4751 123.84 57.0951 123.72C90.9851 123.11 124.745 124.71 158.555 123.72C163.075 123.59 167.605 123.55 172.115 123.49L166.365 113.78C165.005 113.39 163.595 113.8 162.285 113.9V113.91ZM9.01509 115.83C10.2551 115.12 10.2751 114.39 8.77507 114.15L9.01509 115.83ZM19.8051 121.11C19.7451 120.73 19.8451 120.27 19.7751 119.83C19.4851 118.1 18.8751 116.4 18.8451 114.64C16.6451 114.63 14.4351 114.6 12.2451 114.88C11.9151 114.92 11.8251 114.74 11.8951 115.23C13.1151 117.17 14.8451 119.16 15.9751 121.11C16.6351 122.26 17.3751 123.36 16.6951 124.71H20.2951C20.6151 123.4 19.9751 122.21 19.8151 121.11H19.8051ZM4.45509 133.82C4.65509 134.89 4.83509 136.02 5.17509 137.05C5.24509 137.27 5.33507 137.76 5.65507 137.54L14.2851 123.61C14.3251 123.06 12.3351 119.36 11.8951 118.65C11.7551 118.42 11.3551 118.35 11.1951 118.09C10.9551 117.71 11.1051 117.06 10.6951 117.03C9.35508 118.91 10.5651 120.98 10.6951 123.13C10.8051 124.84 10.7851 129.71 8.77507 130.35C7.02507 130.91 5.91508 129.75 5.38508 128.2C4.71508 126.21 5.02508 124.16 5.63508 122.18C6.03508 120.86 7.57509 118.63 7.76509 117.81C7.91509 117.16 7.37509 116.98 7.32509 116.79C7.25509 116.53 7.57507 115.34 6.96507 115.59C5.00507 117.43 1.89507 120.07 1.58507 122.93C1.27507 125.79 3.61508 131.02 4.44508 133.82H4.45509ZM8.28508 128.3C8.82508 127.86 8.96507 122.3 8.40507 121.34C7.25507 123.54 6.67508 125.89 7.56508 128.3C7.76508 128.27 8.21507 128.35 8.27507 128.3H8.28508ZM168.045 124.95C167.965 124.96 167.885 124.95 167.805 124.95C151.985 125.64 137.025 126.35 121.165 126.14C95.5851 125.8 69.9251 125.37 44.3951 125.91C37.7751 126.05 31.2051 125.72 24.6051 125.91C24.0451 125.93 23.4851 125.9 22.9251 125.91L23.1651 131.67C24.0051 131.82 24.7851 131.48 25.5651 131.43C29.4551 131.18 33.3251 130.73 37.2051 130.47C58.9751 129.03 80.8851 129.81 102.695 129.04C123.665 128.29 144.655 126.06 165.645 126.63C166.315 126.65 169.185 126.75 169.495 126.53L169.725 124.72C169.265 124.76 168.725 124.66 168.285 124.72C168.175 124.74 168.075 124.84 168.045 124.96V124.95ZM20.2851 126.15H15.9651C16.0251 127.02 11.8451 132.14 12.1251 132.38L20.2751 131.9V126.14L20.2851 126.15ZM150.055 130.22C155.645 130.09 161.245 129.9 166.845 129.98C166.665 129.04 166.885 128.19 165.775 128.05C160.405 127.37 153.955 128.73 148.485 128.29C119.735 130.14 90.8551 130.56 62.1451 133.34C48.7651 134.64 35.5751 137.05 22.3651 139.37L21.4851 141.97C22.6951 142.04 23.8851 141.82 25.0851 141.73C37.6851 140.83 50.2251 139.71 62.8551 139.08C65.1651 138.96 67.5151 139.23 69.8151 139.08C76.1751 138.68 83.3251 137.05 89.7651 136.24C105.075 134.32 120.425 132.65 135.785 131.17L150.055 130.21V130.22ZM25.8051 132.86C25.1651 132.91 23.3251 132.66 23.0351 133.08L22.4451 137.77C23.5751 137.77 24.7051 137.38 25.8051 137.17C40.6551 134.43 55.5251 131.82 70.6651 131.05C67.1251 130.9 63.5251 130.84 59.9751 130.92C48.5951 131.17 37.1851 132.03 25.8051 132.85V132.86ZM109.755 135.74C108.715 135.84 107.665 136 106.635 136.1C106.635 136.29 108.395 136.25 108.695 136.23C109.185 136.2 109.645 135.98 109.755 135.98C126.475 135.1 143.185 136.05 159.885 135.26C161.525 135.18 164.945 135.37 166.365 134.78C166.595 134.68 166.915 134.81 167.045 134.39C167.105 133.73 167.115 133.04 167.075 132.38C167.075 132.22 167.085 132.06 167.075 131.9C165.155 131.9 163.235 131.9 161.315 131.9C144.245 131.81 126.735 134.02 109.745 135.74H109.755ZM20.0451 133.1H11.5251L6.25508 139.58L6.13508 140.29C10.4951 140.13 14.7851 139.15 19.0851 138.49C19.7051 138.13 20.0051 134.01 20.0451 133.09V133.1ZM18.8451 140.06L7.57509 141.25C10.9651 143.23 14.5251 142.21 18.2251 142.23L18.8451 140.06ZM24.6051 143.41C23.3451 143.48 22.0251 143.21 20.8251 143.71L18.8551 147.61C20.4851 147.54 22.0551 147.04 23.6451 146.77C34.0951 144.97 44.5851 143.33 55.0651 141.73C55.1251 141.31 54.5251 141.5 54.2251 141.49C53.2151 141.45 52.0951 141.44 51.0951 141.48C42.2751 141.78 33.4251 142.91 24.6051 143.41ZM17.6451 143.65L11.4051 143.41C11.5851 145.61 9.68508 147.2 9.00508 149.17C9.33508 149.46 13.9951 148.82 14.5951 148.47C14.9451 148.26 17.8651 143.83 17.6351 143.66L17.6451 143.65Z" fill="#060708"/>
<path d="M227.045 35.49L218.855 17.53C217.815 17.5 216.605 17.65 216.115 16.56L215.995 2.49996C215.995 1.87996 216.735 1.06996 217.335 0.959961L386.065 1.07996L386.905 1.91996C386.835 6.28996 387.435 11.38 387.045 15.72C386.945 16.88 386.725 17.37 385.475 17.51L371.675 17.75L379.635 30.78L381.995 35.86C381.845 36.21 379.545 36.42 378.995 36.46C376.245 36.64 373.435 36.2 370.715 36.82C373.615 42.47 377.625 47.76 380.595 53.32C381.015 54.11 382.195 56.22 382.225 56.98C382.255 57.51 381.525 57.53 381.155 57.56C378.605 57.78 375.725 57.48 373.115 57.8L382.165 74.75C382.135 75.5 381.595 75.9 380.895 76.01C379.615 76.21 374.105 75.41 373.595 75.79C375.205 78.69 376.605 81.71 377.955 84.74C378.955 86.98 380.165 89.52 380.965 91.8C381.215 92.5 382.035 94.44 381.645 94.99L373.835 95.57C376.275 99.68 379.355 103.39 381.845 107.46C383.525 110.21 386.265 113.65 380.545 113.2C380.425 114.59 379.125 119.76 378.045 120.41C377.115 120.97 375.785 120.51 374.795 120.4C375.135 121.85 375.995 123.41 375.215 124.9C374.245 125.41 373.235 125.51 372.155 125.44C371.745 125.74 378.605 131.24 378.875 133.01C378.915 133.3 378.915 133.59 378.775 133.85L378.275 134.07C373.785 133.69 369.325 132.99 364.835 132.63C361.355 132.35 357.765 132.43 354.285 132.15C325.035 129.79 296.165 124.69 266.745 124.23C260.835 124.14 253.085 123.99 247.295 124.47C245.805 124.59 244.215 125.21 242.715 125.41C238.555 125.95 234.355 126.23 230.155 126.4C230.995 136.15 230.695 146 231.575 155.76C235.535 156.21 235.175 162.6 231.445 163.07C226.115 163.74 225.065 156.53 229.675 154.8C228.515 145.39 229.025 135.82 229.145 126.32C228.855 125.34 225.755 125.07 224.755 124.96C220.615 124.47 219.015 125.73 216.845 121.36C212.665 112.96 214.365 106.02 219.305 98.65C219.695 98.07 221.315 96.34 221.225 95.87C221.135 95.37 220.075 94.88 220.915 94.04C221.755 93.2 222.675 93.8 223.535 93.8C225.735 93.82 227.945 93.76 230.145 93.79C227.035 88.73 224.265 82.98 222.225 77.37C222.025 76.83 221.955 75.87 221.755 75.5C221.555 75.13 220.145 75.16 220.715 73.95C220.835 73.71 221.425 73.16 221.625 73.16H226.545C226.015 71.51 225.135 69.97 224.515 68.36C223.555 65.89 222.165 60.19 221.085 58.36C220.655 57.63 218.795 56.97 220.315 55.78C221.245 55.06 221.595 55.66 222.115 55.66H227.275C225.545 50.06 222.415 44.78 220.915 39.11C220.705 38.31 219.805 35.51 221.395 35.51H227.035L227.045 35.49ZM381.525 14.63C382.405 14.62 383.285 14.63 384.165 14.63V3.83996H218.895V14.63C219.295 14.64 219.695 14.61 220.095 14.63C235.065 15.31 251.065 14.63 266.145 14.63C269.335 14.63 272.545 14.63 275.735 14.63C281.565 14.63 287.415 14.63 293.245 14.63C296.835 14.63 300.445 14.63 304.035 14.63C329.845 14.63 355.715 15 381.515 14.63H381.525ZM223.205 17.5C222.455 17.51 221.665 17.45 220.925 17.5C220.565 17.53 220.235 17.31 220.335 17.86C224.425 23.11 226.935 29.32 229.665 35.34L230.035 35.51L380.315 35.01L371.825 21.8L369.735 17.78C368.315 17.71 366.875 17.76 365.455 17.75C318.155 17.33 270.545 16.73 223.215 17.51L223.205 17.5ZM223.445 37.89C222.835 37.89 222.085 37.78 221.525 38.01C224.435 43.8 227.295 49.72 229.345 55.89L380.675 56.36L375.175 48.66L368.205 36.93C367.715 36.49 365.775 36.71 364.965 36.69C363.415 36.66 361.835 36.65 360.275 36.69C314.705 37.44 269.035 37.33 223.445 37.9V37.89ZM224.885 57.56C224.365 57.57 222.285 57.38 222.255 57.92L229.365 73.16L316.165 73.38C336.305 72.94 357.765 74.83 377.815 73.64C378.505 73.6 379.155 73.43 379.845 73.39C376.885 68.64 373.955 63.85 371.015 59.08C370.815 58.76 370.775 58.24 370.615 58.04C370.265 57.61 367.675 57.82 366.895 57.8C349.525 57.49 332.095 57.87 314.715 57.81C284.995 57.71 254.585 56.74 224.895 57.56H224.885ZM226.805 75.54C225.535 75.54 224.215 75.45 222.965 75.66L232.185 93.78L380.555 94L371.325 76.01C370.835 75.57 369.315 75.79 368.565 75.77C344.505 75.12 320.315 75.75 296.255 75.78C273.105 75.81 249.915 75.65 226.805 75.53V75.54ZM367.605 95.69C320.605 96.04 273.565 95.23 226.565 95.69C225.765 95.69 224.965 95.67 224.165 95.69C223.915 95.69 222.445 95.48 222.725 96.05L224.885 97.61C227.315 101.55 231.365 107.48 231.365 112.36V116.08H232.325C232.495 115.29 231.425 115.64 231.605 114.89C231.855 114.86 232.195 114.75 232.345 114.55C233.075 113.57 232.295 106.62 231.975 105.04C231.635 103.37 231.065 101.81 230.405 100.25C230.115 99.57 229.845 98.81 229.495 98.17C229.335 97.89 227.445 95.66 228.815 96.21C229.915 96.65 231.725 100.06 232.205 101.21C233.225 103.63 234.045 107.23 234.245 109.84C234.355 111.31 234.165 112.91 234.245 114.4H235.085C235.465 112.91 235.465 111.38 235.445 109.84C235.405 106.68 234.865 102.95 233.645 100.01C233.295 99.16 232.265 97.82 232.095 97.24C231.885 96.57 232.745 96.95 233.065 97.23C235.695 99.49 237.285 106.48 237.365 109.84C237.405 111.39 236.885 112.88 237.245 114.4L379.125 110.8L371.175 95.49L367.615 95.69H367.605ZM221.135 99.37C221.335 99.09 221.995 99.12 221.765 98.33C218.115 102.67 215.735 107.65 216.285 113.53C216.455 115.36 218.275 121.82 219.755 122.77C220.925 123.52 223.735 122.14 224.865 121.46C232.535 116.85 228.885 109.83 226.285 103.29L223.925 99.3C224.995 104.75 227.435 111.49 226.455 117.06C225.735 121.16 220.225 120.52 219.055 116.76C217.965 113.28 218.965 102.4 221.135 99.38V99.37ZM222.485 100C221.195 101.7 220.845 104.92 220.605 107.11C220.335 109.48 219.375 117.48 222.415 118.18C225.845 118.97 225.495 115.49 225.365 113.08C225.125 108.6 223.505 104.32 222.485 100.01V100ZM306.205 114.15C301.935 114.08 297.425 114.58 293.145 114.64C274.435 114.92 255.785 115.44 237.045 115.63L236.645 116.31C240.195 116.24 243.775 116.41 247.325 116.32C261.565 115.96 275.775 114.99 290.025 115.58C310.665 116.43 331.245 117.71 351.895 118.24C359.265 118.43 367.175 119 374.425 118.93C375.085 118.93 376.035 118.55 376.815 118.68L379.605 113.32C379.705 112.99 377.945 112.98 377.685 112.96C374.205 112.79 370.725 113.24 367.235 113.21C354.065 113.11 340.865 113.66 327.675 113.93C320.515 114.08 313.355 114.06 306.195 114.16L306.205 114.15ZM232.085 116.55C231.215 115.69 230.215 118.57 230.165 119.19L231.575 119.17C231.595 118.68 232.365 116.84 232.075 116.56L232.085 116.55ZM370.965 120.15C362.515 119.65 354.115 119.7 345.645 119.44C317.285 118.58 288.935 116.2 260.495 116.78C255.345 116.89 250.075 117.36 244.925 117.52C242.965 117.58 240.995 117.46 239.035 117.51V119.43C240.265 119.48 241.525 119.36 242.765 119.42C255.475 120.06 268.385 119.57 281.125 119.92C304.385 120.56 327.655 122.53 350.925 123.28C357.805 123.5 365.075 123.91 371.925 123.75C372.565 123.73 373.205 123.76 373.845 123.75L372.895 120.26C372.515 120.01 371.495 120.18 370.965 120.15ZM234.485 117.03L233.765 117.19L233.295 119.43L234.035 119.29L234.495 117.03H234.485ZM238.085 117.27H236.415L235.925 119.43L237.575 119.4L238.085 117.27ZM225.605 123.27H230.165L230.905 120.05L229.795 119.69L225.615 123.27H225.605ZM233.525 120.15C232.795 119.47 231.475 122.74 231.365 123.27C231.845 123.77 233.705 120.33 233.525 120.15ZM236.865 120.65C236.785 120.54 235.665 120.28 235.475 120.41L234.005 123.02L236.375 123C236.355 122.45 237.125 121.04 236.855 120.65H236.865ZM367.605 125.19C363.365 124.91 358.805 125.11 354.525 124.96C332.855 124.22 311.205 122.75 289.525 121.84C273.485 121.17 257.395 121.38 241.315 120.88C239.305 120.82 238.425 119.71 238.325 122.79C244.605 122.62 250.885 122.63 257.165 122.56C277.165 122.33 294.835 124.17 314.605 125.91C316.075 126.3 317.655 126.43 319.165 126.63C328.135 127.79 337.145 129.16 346.155 129.99C356.335 130.93 366.595 131.06 376.735 132.39C376.915 132.24 375.605 130.68 375.425 130.47C374.915 129.89 370.785 125.88 370.395 125.66C369.885 125.37 368.295 125.24 367.625 125.19H367.605Z" fill="#060708"/>
<path d="M152.445 75.0598L160.365 87.7698H19.9249C18.2549 83.6298 16.7849 79.3598 14.0449 75.7798C60.0949 75.5098 106.405 74.4598 152.445 75.0598Z" fill="#B7E6FE"/>
<path d="M156.765 95.4498L163.725 106.96H21.1252L17.1252 101.13L12.6152 95.2098C60.6352 95.8398 108.755 94.5498 156.775 95.4498H156.765Z" fill="#B7E6FE"/>
<path d="M158.205 36.4501L161.565 47.0001H20.5252C19.0052 42.9901 16.2552 39.6601 13.8052 36.2101C26.2352 36.0501 38.6652 36.1801 51.0952 36.2201C86.7952 36.3401 122.515 35.9801 158.205 36.4501Z" fill="#B7E6FE"/>
<path d="M158.445 18.7002C159.445 22.3002 161.825 25.4502 163.485 28.7702H18.725C16.615 25.2302 14.555 21.6602 11.645 18.7002H158.445Z" fill="#B7E6FE"/>
<path d="M13.805 36.21C16.245 39.66 18.995 42.99 20.525 47H161.565L158.205 36.45C158.995 36.46 159.795 36.41 160.575 36.48L170.415 55.79C170.585 56.85 168.245 56.13 167.685 56.11C150.605 55.55 132.775 55.97 115.635 55.87C85.705 55.7 55.555 56.2 25.685 55.15C23.855 55.09 22.015 55.21 20.185 55.17L12.125 36.33C12.585 36.1 13.275 36.22 13.805 36.21Z" fill="#FEFEFE"/>
<path d="M156.765 58.2698L161.565 66.8998H19.565C17.905 63.3298 15.785 59.9398 13.085 57.0698C31.685 57.6298 50.475 57.1398 69.105 57.2998C98.295 57.5498 127.535 57.8798 156.765 58.2698Z" fill="#B7E6FE"/>
<path d="M13.085 57.0802C15.775 59.9502 17.905 63.3402 19.565 66.9102H161.565L156.765 58.2801C157.695 58.2901 160.415 58.0702 160.965 58.5202L171.165 73.3802L18.745 73.6402L10.935 57.1902C10.685 56.5502 12.645 57.0601 13.095 57.0701L13.085 57.0802Z" fill="#FEFEFE"/>
<path d="M152.445 75.06C153.545 75.07 154.665 75.0101 155.765 75.1001C157.155 77.8401 159.135 80.2601 160.985 82.7101C162.835 85.1601 165.015 88.14 167.085 90.5201C167.925 91.4801 169.245 92.44 169.965 93.4C170.105 93.59 170.445 93.81 170.085 94C120.045 93.73 70.0053 93.47 19.9453 93.5L19.2353 93.25C16.2053 87.68 14.4753 81.3501 11.1753 75.8801C12.0953 75.6601 13.1053 75.77 14.0553 75.76C16.7953 79.34 18.2553 83.61 19.9353 87.75H160.375L152.455 75.04L152.445 75.06Z" fill="#FEFEFE"/>
<path d="M22.205 120.87C21.615 118.64 20.7549 116.6 19.5649 114.64C61.9249 114.67 104.225 113.92 146.585 114.17C149.785 114.08 154.265 113.48 157.385 113.9C157.845 113.96 157.705 114.39 157.875 114.41C158.355 114.46 161.365 113.99 162.285 113.92C162.985 116.41 164.305 118.69 165.645 120.87H141.285C126.415 120.89 111.345 120.89 96.4349 120.64C79.0849 120.36 61.7049 119.25 44.4049 119.92C36.9949 120.21 29.615 120.72 22.205 120.87Z" fill="#B7E6FE"/>
<path d="M11.6451 18.7002C14.5451 21.6702 16.6151 25.2302 18.7251 28.7702H163.485C161.825 25.4502 159.455 22.3002 158.445 18.7002C159.245 18.7302 160.265 18.4602 160.855 19.0502C164.355 24.1702 167.225 29.7902 171.395 34.4102C169.635 34.8602 167.695 34.3202 166.005 34.2802C128.055 33.3802 89.8051 34.0202 51.8251 33.8002C40.7151 33.7402 29.6051 33.8602 18.5051 33.8202L10.6851 18.8102L11.6451 18.6902V18.7002Z" fill="#FEFEFE"/>
<path d="M12.6051 95.21L17.1151 101.13L21.1151 106.96H163.715L156.755 95.45C157.665 95.47 159.545 95.2 160.125 95.8C163.805 101.28 166.965 107.12 171.145 112.24L20.3851 112.26L10.6851 95.5699L12.6051 95.21Z" fill="#FEFEFE"/>
<path d="M11.1649 15.8299C10.4449 15.8199 9.72488 15.8399 9.00488 15.8299V2.87988H174.995V15.8299C173.635 15.8299 172.275 15.8299 170.915 15.8299L170.675 6.23989H114.185C114.135 6.23989 113.135 6.46988 113.345 6.83988C116.135 9.75988 119.305 12.3999 121.495 15.8399C118.705 15.8399 115.895 15.8399 113.095 15.8399L105.775 6.48989H95.1049L102.545 15.8399C98.3949 15.8399 94.2249 15.8399 90.0749 15.8399C89.2949 14.5999 88.3749 13.4499 87.5749 12.2199C86.6049 10.7199 85.4549 8.20989 84.4249 6.96989C84.2249 6.71989 84.0649 6.49989 83.7049 6.48989C60.6949 6.11989 37.6249 6.95989 14.6149 6.48989C13.9449 6.47989 13.3849 6.29989 12.7449 6.21989L11.1549 15.8299H11.1649Z" fill="#B7E6FE"/>
<path d="M90.085 15.8302C63.815 15.8302 37.425 16.3402 11.165 15.8302L12.755 6.22021C13.405 6.30021 13.965 6.48022 14.625 6.49022C37.635 6.95022 60.695 6.11022 83.715 6.49022C84.075 6.50022 84.225 6.73021 84.435 6.97021C85.455 8.21021 86.605 10.7202 87.585 12.2202C88.385 13.4502 89.305 14.6002 90.085 15.8402V15.8302Z" fill="#45ACDF"/>
<path d="M162.285 113.91C163.595 113.81 165.005 113.4 166.365 113.79L172.115 123.5C167.595 123.56 163.065 123.6 158.555 123.73C124.745 124.72 90.9851 123.12 57.0951 123.73C50.4751 123.85 43.8251 124.47 37.2051 124.71C32.4751 124.88 27.6851 124.59 22.9551 124.67C22.6051 123.44 22.5351 122.11 22.2051 120.87C29.6051 120.72 36.9951 120.21 44.4051 119.92C61.7051 119.25 79.0851 120.36 96.4351 120.64C111.355 120.88 126.425 120.89 141.285 120.88H165.645C164.305 118.68 162.985 116.41 162.285 113.91Z" fill="#FEFEFE"/>
<path d="M121.505 15.83C119.305 12.39 116.145 9.74999 113.355 6.82999C113.145 6.45999 114.145 6.22998 114.195 6.22998H170.685L170.925 15.82C154.465 15.93 137.975 15.82 121.515 15.82L121.505 15.83Z" fill="#45ACDF"/>
<path d="M167.805 124.95C167.145 125.58 166.095 125.78 165.645 126.63C144.655 126.06 123.665 128.29 102.695 129.04C80.8849 129.82 58.975 129.03 37.205 130.47C33.325 130.73 29.455 131.18 25.565 131.43L24.605 125.91C31.205 125.72 37.775 126.05 44.395 125.91C69.925 125.37 95.585 125.8 121.165 126.14C137.025 126.35 151.985 125.64 167.805 124.95Z" fill="#45ACDF"/>
<path d="M150.055 130.22L135.785 131.18C120.415 132.65 105.075 134.32 89.765 136.25C83.325 137.06 76.185 138.69 69.815 139.09C67.515 139.24 65.155 138.97 62.855 139.09C50.225 139.72 37.685 140.83 25.085 141.74L25.725 139.57C35.555 139.55 45.235 137.38 54.955 136.23C63.375 135.23 71.935 134.4 80.375 133.59C103.685 131.36 126.655 130.77 150.055 130.23V130.22Z" fill="#45ACDF"/>
<path d="M25.0848 141.73C23.8848 141.82 22.6949 142.04 21.4849 141.97L22.3649 139.37C35.5849 137.04 48.7649 134.63 62.1449 133.34C90.8549 130.56 119.735 130.15 148.485 128.29C153.965 128.73 160.405 127.37 165.775 128.05C166.875 128.19 166.655 129.04 166.845 129.98C161.245 129.9 155.645 130.09 150.055 130.22C126.655 130.76 103.685 131.35 80.3748 133.58C71.9348 134.39 63.3749 135.22 54.9549 136.22C45.2349 137.38 35.5549 139.54 25.7249 139.56L25.0848 141.73Z" fill="#FEFEFE"/>
<path d="M161.325 131.9L159.885 135.26C143.185 136.05 126.475 135.1 109.755 135.98V135.74C126.745 134.03 144.255 131.82 161.325 131.9Z" fill="#45ACDF"/>
<path d="M113.115 15.83C109.605 15.83 106.075 15.83 102.565 15.83L95.125 6.47998H105.795L113.115 15.83Z" fill="#45ACDF"/>
<path d="M25.8052 132.86C37.1852 132.04 48.5852 131.18 59.9752 130.93C63.5252 130.85 67.1252 130.91 70.6652 131.06C55.5352 131.82 40.6552 134.43 25.8052 137.18V132.86Z" fill="#45ACDF"/>
<path d="M7.33493 116.79C7.38493 116.98 7.92493 117.16 7.77493 117.81C7.59493 118.63 6.05495 120.86 5.64495 122.18C5.04495 124.16 4.72495 126.21 5.39495 128.2C5.92495 129.75 7.02494 130.91 8.78494 130.35C10.7849 129.71 10.805 124.84 10.705 123.13C10.565 120.98 9.36495 118.9 10.705 117.03C11.115 117.06 10.975 117.71 11.205 118.09C11.365 118.34 11.7549 118.41 11.9049 118.65C12.3449 119.36 14.3349 123.06 14.2949 123.61L5.66494 137.54C5.35494 137.76 5.26493 137.28 5.18493 137.05C4.84493 136.02 4.65493 134.88 4.46493 133.82C3.92493 130.92 2.80493 123.45 3.96493 120.97C4.49493 119.84 6.44493 117.77 7.33493 116.79Z" fill="#45ACDF"/>
<path d="M20.0453 133.1C20.0053 134.02 19.7052 138.14 19.0852 138.5C14.7852 139.15 10.4953 140.13 6.13525 140.3L6.25525 139.59L11.5252 133.11H20.0453V133.1Z" fill="#45ACDF"/>
<path d="M24.605 143.41C33.435 142.91 42.285 141.78 51.095 141.48C52.105 141.45 53.215 141.45 54.225 141.49C54.515 141.5 55.115 141.31 55.065 141.73C44.585 143.32 34.095 144.97 23.645 146.77L24.605 143.41Z" fill="#45ACDF"/>
<path d="M20.2851 126.15V131.91L12.1351 132.39C11.8551 132.15 16.0251 127.02 15.9751 126.16H20.2951L20.2851 126.15Z" fill="#45ACDF"/>
<path d="M15.965 121.11C14.835 119.16 13.105 117.17 11.885 115.23C11.825 114.74 11.905 114.92 12.235 114.88C14.425 114.59 16.635 114.62 18.835 114.64C18.865 116.4 19.475 118.1 19.765 119.83C19.835 120.27 19.735 120.73 19.795 121.11H15.955H15.965Z" fill="#B7E6FE"/>
<path d="M17.6451 143.65C17.8751 143.82 14.9551 148.25 14.6051 148.46C14.0051 148.82 9.34514 149.46 9.01514 149.16C9.69514 147.2 11.5951 145.61 11.4151 143.4L17.6551 143.64L17.6451 143.65Z" fill="#45ACDF"/>
<path d="M4.455 133.82C3.625 131.02 1.28499 125.74 1.59499 122.93C1.90499 120.12 5.02499 117.44 6.97499 115.59C7.58499 115.34 7.25498 116.52 7.33498 116.79C6.44498 117.77 4.49498 119.84 3.96498 120.97C2.79498 123.45 3.92498 130.92 4.46498 133.82H4.455Z" fill="#FEFEFE"/>
<path d="M161.325 131.9C163.245 131.9 165.165 131.9 167.085 131.9C167.095 132.06 167.085 132.22 167.085 132.38C166.595 133.07 166.275 133.92 166.365 134.78C164.945 135.37 161.535 135.18 159.885 135.26L161.325 131.9Z" fill="#FEFEFE"/>
<path d="M18.8452 140.06L18.2252 142.23C14.5252 142.22 10.9652 143.23 7.5752 141.25L18.8452 140.06Z" fill="#45ACDF"/>
<path d="M25.8053 132.86V137.18C24.7053 137.38 23.5753 137.78 22.4453 137.78L23.0353 133.09C23.3253 132.67 25.1653 132.91 25.8053 132.87V132.86Z" fill="#FEFEFE"/>
<path d="M19.8048 121.11C19.9648 122.21 20.6049 123.4 20.2849 124.71H16.6848C17.3648 123.36 16.6248 122.26 15.9648 121.11H19.8048Z" fill="#FEFEFE"/>
<path d="M24.6053 125.91L25.5653 131.43C24.7853 131.48 24.0053 131.82 23.1653 131.67L22.9253 125.91C23.4853 125.9 24.0453 125.93 24.6053 125.91Z" fill="#FEFEFE"/>
<path d="M8.28531 128.3C8.22531 128.35 7.76532 128.27 7.57532 128.3C6.68532 125.89 7.25532 123.54 8.41532 121.34C8.97532 122.3 8.82532 127.85 8.29532 128.3H8.28531Z" fill="#45ACDF"/>
<path d="M168.285 124.71C168.725 124.65 169.265 124.75 169.725 124.71L169.495 126.52C169.175 126.74 166.315 126.64 165.645 126.62C166.095 125.77 167.145 125.57 167.805 124.94C167.885 124.94 167.965 124.95 168.045 124.94C168.155 124.92 168.245 124.81 168.285 124.7V124.71Z" fill="#FEFEFE"/>
<path d="M9.01492 115.83L8.7749 114.15C10.2749 114.39 10.2549 115.12 9.01492 115.83Z" fill="#45ACDF"/>
<path d="M166.365 134.78C166.275 133.93 166.595 133.07 167.085 132.38C167.115 133.04 167.105 133.73 167.055 134.39C166.925 134.81 166.605 134.68 166.375 134.78H166.365Z" fill="#45ACDF"/>
<path d="M109.755 135.74V135.98C109.645 135.98 109.195 136.21 108.695 136.23C108.395 136.25 106.635 136.28 106.635 136.1C107.675 136 108.715 135.84 109.755 135.74Z" fill="#1B4458"/>
<path d="M168.045 124.95C168.075 124.83 168.175 124.73 168.285 124.71C168.245 124.82 168.155 124.93 168.045 124.95Z" fill="#45ACDF"/>
<path d="M24.605 143.41L23.645 146.77C22.055 147.04 20.485 147.55 18.855 147.61L20.825 143.71C22.025 143.22 23.345 143.49 24.605 143.41Z" fill="#FEFEFE"/>
<path d="M368.565 75.7798C369.575 80.0398 372.005 83.8398 373.845 87.7698H232.085L226.805 75.5398C249.915 75.6598 273.105 75.8198 296.255 75.7898C320.315 75.7598 344.505 75.1298 368.565 75.7798Z" fill="#B7E6FE"/>
<path d="M367.605 95.6901C368.495 99.4801 370.235 103.03 372.125 106.41C372.205 106.79 371.865 106.91 371.555 106.97C368.335 107.52 363.655 106.55 360.275 106.98C329.245 106.46 298.205 107.57 267.225 108.42C258.465 108.66 249.815 109.44 241.065 109.85C239.835 109.91 238.585 109.81 237.345 109.85C237.265 106.49 235.675 99.5001 233.045 97.2401C232.715 96.9601 231.865 96.5801 232.075 97.2501C232.255 97.8301 233.275 99.1701 233.625 100.02C234.845 102.96 235.385 106.69 235.425 109.85H234.225C234.025 107.24 233.195 103.64 232.185 101.22C231.705 100.07 229.895 96.6601 228.795 96.2201C227.425 95.6701 229.325 97.9001 229.475 98.1801C229.825 98.8201 230.105 99.5801 230.385 100.26L226.545 95.7001C273.545 95.2401 320.585 96.0501 367.585 95.7001L367.605 95.6901Z" fill="#B7E6FE"/>
<path d="M365.445 17.7399L371.685 28.7699H230.405C228.705 24.6299 225.995 20.9699 223.205 17.4999C270.535 16.7199 318.145 17.3199 365.445 17.7399Z" fill="#B7E6FE"/>
<path d="M364.975 36.6899C365.785 36.7099 367.725 36.4899 368.215 36.9299L375.185 48.6599L380.685 56.3599L229.355 55.8899C227.305 49.7199 224.445 43.7999 221.535 38.0099C222.095 37.7799 222.845 37.8999 223.455 37.8899L228.735 46.9999H370.255C368.435 43.6199 366.155 40.3699 364.975 36.6899Z" fill="#FEFEFE"/>
<path d="M364.975 36.6901C366.155 40.3701 368.425 43.6301 370.255 47.0001H228.735L223.455 37.8901C269.045 37.3201 314.725 37.4301 360.285 36.6801C361.835 36.6501 363.425 36.6601 364.975 36.6801V36.6901Z" fill="#B7E6FE"/>
<path d="M366.885 57.8001L372.165 66.9101H229.205L224.885 57.5601C254.575 56.7401 284.985 57.7101 314.705 57.8101C332.085 57.8701 349.515 57.4801 366.885 57.8001Z" fill="#B7E6FE"/>
<path d="M223.205 17.4999C225.985 20.9699 228.705 24.6299 230.405 28.7699H371.685L365.445 17.7399C366.865 17.7499 368.305 17.6999 369.725 17.7699L371.815 21.7899L380.305 34.9999L230.025 35.4999L229.655 35.3299C226.935 29.3099 224.415 23.0999 220.325 17.8499C220.225 17.3099 220.565 17.5199 220.915 17.4899C221.665 17.4399 222.445 17.4999 223.195 17.4899L223.205 17.4999Z" fill="#FEFEFE"/>
<path d="M224.885 57.5602L229.205 66.9102H372.165L366.885 57.8002C367.665 57.8102 370.255 57.6002 370.605 58.0402C370.765 58.2402 370.805 58.7602 371.005 59.0802C373.955 63.8502 376.875 68.6302 379.835 73.3902C379.145 73.4302 378.505 73.6002 377.805 73.6402C357.755 74.8302 336.305 72.9302 316.155 73.3802L229.355 73.1602L222.245 57.9202C222.275 57.3802 224.365 57.5802 224.875 57.5602H224.885Z" fill="#FEFEFE"/>
<path d="M226.805 75.5401L232.085 87.7701H373.845C372.005 83.8301 369.575 80.0401 368.565 75.7801C369.315 75.8001 370.835 75.5801 371.325 76.0201L380.555 94.0101L232.185 93.7901L222.965 75.6701C224.215 75.4601 225.535 75.5401 226.805 75.5501V75.5401Z" fill="#FEFEFE"/>
<path d="M367.605 95.6902L371.165 95.4902L379.115 110.8L237.235 114.4C236.865 112.88 237.385 111.39 237.355 109.84C238.585 109.8 239.835 109.9 241.075 109.84C249.815 109.43 258.475 108.65 267.235 108.41C298.215 107.56 329.255 106.45 360.285 106.97C363.665 106.54 368.355 107.51 371.565 106.96C371.875 106.91 372.205 106.78 372.135 106.4C370.235 103.03 368.495 99.4802 367.615 95.6802L367.605 95.6902Z" fill="#FEFEFE"/>
<path d="M220.095 14.6299C219.695 14.6099 219.295 14.6499 218.895 14.6299V3.83984H384.165V14.6299C383.285 14.6299 382.405 14.6199 381.525 14.6299L380.325 7.43985C376.455 7.37985 372.565 7.50985 368.685 7.43985C355.555 7.21985 342.265 7.00985 329.125 6.93985C318.685 6.87985 308.245 6.99984 297.815 6.94984L304.055 14.6198C300.465 14.6198 296.855 14.6198 293.265 14.6198L287.625 6.94984H269.995C271.735 9.50984 274.855 11.6398 275.755 14.6198C272.565 14.6198 269.355 14.6198 266.165 14.6198L261.435 6.93985C248.985 6.70985 236.505 6.93985 224.055 6.71985C223.565 6.71985 223.125 6.53984 222.655 6.44984L220.105 14.6198L220.095 14.6299Z" fill="#B7E6FE"/>
<path d="M304.045 14.6299L297.805 6.95985C308.235 7.00985 318.685 6.88984 329.115 6.94984C342.245 7.01984 355.535 7.22984 368.675 7.44984C372.555 7.50984 376.445 7.37984 380.315 7.44984L381.515 14.6398C355.715 15.0098 329.845 14.6398 304.035 14.6398L304.045 14.6299Z" fill="#45ACDF"/>
<path d="M370.965 120.15C370.795 121.49 371.295 122.61 371.925 123.75C365.075 123.91 357.805 123.5 350.925 123.28C327.655 122.53 304.385 120.57 281.125 119.92C268.385 119.57 255.475 120.06 242.765 119.42C241.525 119.36 240.275 119.48 239.035 119.43V117.51C240.995 117.46 242.965 117.58 244.925 117.52C250.075 117.36 255.345 116.89 260.495 116.78C288.935 116.2 317.295 118.58 345.645 119.44C354.105 119.7 362.515 119.65 370.965 120.15Z" fill="#45ACDF"/>
<path d="M220.095 14.63L222.645 6.45996C223.115 6.54996 223.555 6.71995 224.045 6.72995C236.495 6.94995 248.975 6.72995 261.425 6.94995L266.155 14.63C251.065 14.63 235.065 15.31 220.105 14.63H220.095Z" fill="#45ACDF"/>
<path d="M367.605 125.19L368.075 126.28L371.795 130.47C354.305 128.41 336.705 127.5 319.145 126.15C317.645 126.03 316.075 126.04 314.585 125.91C294.815 124.17 277.155 122.33 257.145 122.56C250.865 122.63 244.585 122.62 238.305 122.79C238.405 119.72 239.285 120.82 241.295 120.88C257.375 121.38 273.475 121.17 289.505 121.84C311.185 122.74 332.835 124.21 354.505 124.96C358.785 125.11 363.345 124.91 367.585 125.19H367.605Z" fill="#45ACDF"/>
<path d="M377.685 112.95C377.945 112.96 379.705 112.98 379.605 113.31L376.815 118.67C376.035 118.54 375.085 118.92 374.425 118.92C367.175 119 359.265 118.42 351.895 118.23C331.255 117.7 310.675 116.43 290.025 115.57C275.775 114.98 261.575 115.95 247.325 116.31C243.765 116.4 240.195 116.22 236.645 116.3L237.045 115.62C255.785 115.43 274.435 114.91 293.145 114.63C297.425 114.57 301.935 114.07 306.205 114.14C312.705 114.25 319.435 115.55 325.985 115.83C340.695 116.45 355.445 116.12 370.145 116.77C371.905 116.85 373.855 117.12 375.635 117.28L377.695 112.95H377.685Z" fill="#FEFEFE"/>
<path d="M377.685 112.95L375.625 117.28C373.855 117.13 371.895 116.85 370.135 116.77C355.435 116.12 340.685 116.45 325.975 115.83C319.425 115.55 312.695 114.25 306.195 114.14C313.345 114.04 320.515 114.06 327.675 113.91C340.855 113.64 354.065 113.09 367.235 113.19C370.725 113.22 374.195 112.77 377.685 112.94V112.95Z" fill="#45ACDF"/>
<path d="M293.255 14.63C287.425 14.63 281.575 14.63 275.745 14.63C274.845 11.65 271.735 9.51996 269.985 6.95996H287.615L293.255 14.63Z" fill="#45ACDF"/>
<path d="M221.135 99.3698C218.975 102.39 217.975 113.26 219.055 116.75C220.225 120.51 225.735 121.15 226.455 117.05C227.435 111.48 224.995 104.74 223.925 99.2898L226.285 103.28C228.885 109.82 232.525 116.84 224.865 121.45C223.735 122.13 220.925 123.51 219.755 122.76C218.265 121.81 216.455 115.35 216.285 113.52C215.735 107.64 218.115 102.66 221.765 98.3198C221.995 99.1098 221.335 99.0798 221.135 99.3598V99.3698Z" fill="#45ACDF"/>
<path d="M367.605 125.19C368.275 125.24 369.865 125.37 370.375 125.66C370.755 125.88 374.885 129.89 375.405 130.47C375.595 130.68 376.895 132.24 376.715 132.39C366.575 131.06 356.315 130.93 346.135 129.99C337.135 129.16 328.115 127.79 319.145 126.63V126.15C336.705 127.5 354.305 128.4 371.795 130.47L368.075 126.28L367.605 125.19Z" fill="#FEFEFE"/>
<path d="M222.485 100C223.505 104.32 225.125 108.59 225.365 113.07C225.495 115.48 225.855 118.96 222.415 118.17C219.365 117.47 220.335 109.47 220.605 107.1C220.855 104.91 221.195 101.69 222.485 99.9902V100Z" fill="#45ACDF"/>
<path d="M226.565 95.69L230.405 100.25C231.065 101.81 231.625 103.37 231.975 105.04C232.295 106.62 233.075 113.57 232.345 114.55C232.195 114.75 231.855 114.86 231.605 114.89C231.415 115.65 232.495 115.3 232.325 116.08H231.365V112.36C231.365 107.48 227.315 101.55 224.885 97.61C224.585 97.13 224.185 96.28 224.165 95.69C224.965 95.67 225.765 95.69 226.565 95.69Z" fill="#FEFEFE"/>
<path d="M225.605 123.27L229.785 119.69L230.905 120.05L230.165 123.27H225.605Z" fill="#45ACDF"/>
<path d="M370.965 120.15C371.495 120.18 372.515 120.01 372.895 120.26L373.845 123.75C373.205 123.76 372.565 123.73 371.925 123.75C371.295 122.62 370.795 121.5 370.965 120.15Z" fill="#FEFEFE"/>
<path d="M235.445 109.84C235.465 111.38 235.465 112.9 235.085 114.4H234.245C234.155 112.91 234.355 111.32 234.245 109.84H235.445Z" fill="#FEFEFE"/>
<path d="M236.865 120.65C237.135 121.04 236.365 122.45 236.385 123L234.015 123.02L235.485 120.41C235.675 120.27 236.795 120.53 236.875 120.65H236.865Z" fill="#45ACDF"/>
<path d="M238.085 117.27L237.575 119.4L235.925 119.43L236.415 117.28L238.085 117.27Z" fill="#45ACDF"/>
<path d="M232.085 116.55C232.365 116.83 231.605 118.67 231.585 119.16L230.175 119.18C230.215 118.56 231.225 115.69 232.095 116.54L232.085 116.55Z" fill="#45ACDF"/>
<path d="M233.525 120.15C233.715 120.32 231.845 123.76 231.365 123.27C231.475 122.74 232.785 119.47 233.525 120.15Z" fill="#45ACDF"/>
<path d="M234.485 117.03L234.025 119.29L233.285 119.43L233.755 117.19L234.485 117.03Z" fill="#45ACDF"/>
<path d="M319.155 126.15V126.63C317.645 126.43 316.075 126.3 314.595 125.91C316.075 126.04 317.655 126.03 319.155 126.15Z" fill="#B7E6FE"/>
<path d="M224.165 95.6898C224.185 96.2798 224.585 97.1198 224.885 97.6098L222.725 96.0498C222.445 95.4798 223.915 95.6998 224.165 95.6898Z" fill="#B7E6FE"/>
</svg>
