<svg width="381" height="362" viewBox="0 0 381 362" fill="none" xmlns="http://www.w3.org/2000/svg">
<path d="M380.86 1.86993V16.4999L379.54 17.4599L365.52 17.7099L375.84 35.3499L375.6 36.0699L364.56 36.7899C367.51 42.6099 371.7 48.0399 374.68 53.7699C375.06 54.5099 376.04 56.2199 376.07 56.9499C376.1 57.4799 375.37 57.4999 375 57.5299C374.35 57.5899 366.96 57.4799 366.96 57.8899L376.03 74.7099C375.98 75.4599 375.45 75.8699 374.75 75.9799C373.47 76.1799 367.96 75.3799 367.45 75.7599C369.82 80.4999 372.35 85.4499 374.28 90.3999C374.61 91.2599 375.97 94.3099 375.5 94.9699L367.69 95.4399C370.91 101.06 373.56 107 376.27 112.89C376.78 113.81 375.12 114.15 374.52 114.15H366.01C368.37 119.35 371.55 124.3 373.73 129.58C374.44 131.31 375.98 134.07 375.01 135.74H367.93C370.04 140.39 372.59 144.89 374.17 149.77C374.43 150.58 375.38 153.48 375.35 154.11C375.33 154.38 374.91 154.93 374.77 154.93H368.17L376.3 175.24C376.49 175.95 375.4 176.55 374.76 176.53C374.43 176.53 374.13 176.27 374.04 176.27H368.16L375.78 192.27L375.84 193.29C373.59 193.56 371.24 193.5 369 193.77C368.66 193.81 368.58 193.65 368.65 194.12C369.69 196.06 370.66 198.07 371.56 200.08C372.44 202.03 377 211.99 376.81 213.31C376.7 214.04 374.56 214.1 373.8 214.15C371.1 214.32 368.24 214.03 365.53 214.15C367.34 218 369.88 221.5 371.73 225.34C372.31 226.55 374.74 232.02 374.65 232.97C374.6 233.46 374.03 233.96 373.56 234.05C372.32 234.28 369.22 234.11 367.8 234.07C366.77 234.04 365.83 233.66 364.69 233.82C364.36 233.87 364.27 233.68 364.34 234.17C366.44 237.88 368.75 241.53 370.7 245.32C371.37 246.63 375.07 253.96 374.16 254.91L367.46 255.28C369.94 259.36 372.96 263.31 375.02 267.63C375.39 268.41 375.91 268.97 375.38 269.86C374.43 271.45 372.64 270.54 371.19 270.5C369 270.44 365.3 270.24 363.26 270.5C362.93 270.54 362.84 270.37 362.91 270.86C366.27 276.47 370.19 281.82 373.26 287.61C373.51 288.08 375.69 291.85 374.54 291.85H367.7C367.64 292.13 367.73 292.31 367.83 292.56C369.55 296.89 372.9 301.12 374.6 305.94C374.87 306.7 376.09 309.36 374.54 309.36H366.27L375.58 328.01C375.77 328.94 374.45 329.16 373.79 329.24C365.78 330.2 355.61 328.78 347.44 329.02C310.68 329 273.96 328.49 237.22 328.31C237.59 331.06 237.38 333.83 237.45 336.6C237.59 341.84 237.86 347.15 237.71 352.43C237.7 352.93 237.42 353.48 237.45 353.86C237.5 354.55 238.28 354.42 238.74 354.73C241.89 356.84 240.78 359.8 237.7 361.17H236.74C234.89 360.53 233.69 357.2 234.71 355.66C235.01 355.21 235.59 355.05 235.71 354.87C236.43 353.77 235.9 336.42 236.01 333.46C236.07 331.83 236.38 329.96 236.5 328.31H223.67C223.17 327.61 222.69 326.85 222.31 326.08C220.51 322.51 218.69 317.61 217.31 313.81C216.98 312.9 215.33 308.77 215.67 308.2C215.85 308.18 216.15 307.92 216.24 307.92H222.36C220.85 304.11 218.71 300.54 217.04 296.81C216.63 295.89 214.37 290.55 214.43 290.07C214.46 289.82 214.58 289.58 214.78 289.43C215.95 288.51 223.57 290 225.47 289.33C221.49 283.03 218 276.42 214.96 269.62C214.89 269.37 215.45 268.82 215.52 268.82H224.27L215.01 253C214.82 252.32 215.56 251.57 216.23 251.57C216.45 251.57 216.64 251.79 216.71 251.79H226.18C222.83 246.5 219.68 241.05 217.1 235.33C216.68 234.39 215.3 231.53 215.19 230.75C215.14 230.45 215.26 229.97 215.51 229.97H224.74L215.38 213.77C215.29 213.13 215.57 212.57 216.23 212.47L226.42 212.7C223.72 209.52 222.57 205.74 220.79 202.14C219.94 200.41 218.79 198.82 217.9 197.12C217.53 196.42 215.91 193.39 215.86 192.9C215.69 191.16 220.53 191.92 221.62 192.08L215.32 177.88C214.63 176.79 215.04 174.81 216.47 174.81H223.79L214.95 154.01C214.69 153.05 215.92 152.31 216.75 152.27C217.24 152.25 217.56 152.51 217.67 152.51H222.35C221.17 149.76 219.79 147.11 218.64 144.35C217.69 142.08 216.69 138.13 215.69 136.26C215.33 135.58 214.3 135.45 214.19 134.63C213.85 132.16 217.35 133.31 218.63 133.32C219.19 133.32 219.82 133.06 220.55 133.06C221.28 133.06 222.04 133.46 222.82 133.32C221.12 129.01 219.25 124.76 217.61 120.43C216.98 118.78 216.5 116.21 215.81 114.79C215.48 114.1 213.41 113.12 215.54 112.01C216.58 111.46 216.68 111.98 217.19 111.98H222.35C219.32 107 217.39 101.51 215.34 96.0899C215.12 95.5099 214.46 95.4299 214.67 94.3599C214.91 93.1099 216.65 93.7599 217.43 93.7699C219.62 93.7899 221.85 93.8299 224.03 93.6399C220.86 88.6699 218.13 82.8899 216.11 77.3399C215.94 76.8699 215.75 75.5499 215.58 75.3499C215.35 75.0799 214.04 75.1199 214.6 73.9199C214.72 73.6799 215.31 73.1299 215.51 73.1299H220.43C219.9 71.4799 219.02 69.9399 218.4 68.3299C217.42 65.8099 216.09 60.2299 214.97 58.3299C214.54 57.5999 212.68 56.9399 214.2 55.7499C215.13 55.0299 215.48 55.6299 216 55.6299H221.16C219.44 50.0299 216.31 44.7899 214.81 39.0799C214.6 38.2799 213.7 35.4799 215.29 35.4799H220.93L212.74 17.5199C211.7 17.4899 210.49 17.6399 210 16.5499L209.89 2.72993C209.91 2.01993 210.49 1.07994 211.22 0.939941L379.94 1.05994L380.9 1.89993L380.86 1.86993ZM374.63 14.5799C375.75 14.5699 376.87 14.5799 377.99 14.5799V3.78993H212.73V14.5799C214.01 14.5799 215.29 14.5799 216.57 14.5799C230.23 14.6899 243.92 14.5799 257.58 14.5799C262.45 14.5799 267.34 14.5799 272.21 14.5799C279.72 14.5799 287.24 14.5799 294.76 14.5799C299.15 14.5799 303.56 14.5799 307.95 14.5799C330.17 14.5799 352.41 14.7899 374.63 14.5799ZM217.05 17.4599C216.3 17.4699 215.51 17.4099 214.77 17.4599C214.51 17.4799 213.97 17.3299 214.18 17.8199C214.3 18.1099 215.39 19.3699 215.72 19.8799C218.83 24.8399 221.25 30.0399 223.57 35.4099L223.88 35.4699L374.16 34.9699L365.67 21.7599L363.58 17.7299C362.07 17.6699 360.56 17.7199 359.05 17.6999C311.83 17.2599 264.3 16.6799 217.06 17.4599H217.05ZM218.25 37.8399C217.3 37.8499 216.3 37.7299 215.37 37.9599C215.62 38.3399 215.93 38.7099 216.13 39.1199C218.73 44.4999 221.26 50.1999 223.19 55.8499L374.51 56.3199L368.53 47.8999L362.04 36.8799C361.55 36.4399 359.61 36.6599 358.8 36.6399C357.33 36.6099 355.83 36.6099 354.35 36.6399C309.03 37.3999 263.59 37.2299 218.25 37.8499V37.8399ZM219.45 57.5099C218.84 57.5199 216.13 57.3099 216.1 57.8699L223.21 73.1099L311.68 73.3299C331.27 72.9099 352.14 74.7499 371.64 73.5899C372.33 73.5499 372.98 73.3799 373.67 73.3399C371.09 69.1099 368.37 64.9499 365.8 60.6999C365.4 60.0499 364.5 57.8499 363.96 57.7399C363.36 57.6199 362.36 57.7599 361.68 57.7399C343.67 57.4099 325.6 57.8099 307.58 57.7499C278.28 57.6499 248.77 56.9599 219.45 57.4999V57.5099ZM220.17 75.4999C219.06 75.4999 217.9 75.3899 216.81 75.6199L226.03 93.7399L374.39 93.9599L365.16 75.9699C364.67 75.5299 362.73 75.7499 361.92 75.7299C315.87 74.7599 269.71 76.4499 223.66 75.4799C222.5 75.4599 221.33 75.4799 220.17 75.4799V75.4999ZM219.93 95.6399L216.57 95.9999L224.84 111.95L374.51 112.43L365.48 95.4399C364.54 95.3799 363.58 95.3599 362.64 95.3999C361.94 95.4299 361.31 95.6399 360.61 95.6499C313.76 96.6899 266.78 94.8499 219.93 95.6399ZM219.93 114.35C219.26 114.37 218.62 114.29 217.95 114.42C217.7 114.46 217.15 114.52 217.33 114.91L225.35 133.55C230.38 133.58 235.42 133.46 240.45 133.53C276.39 134 312.42 134.01 348.36 134.27C357.03 134.33 365.79 134.11 374.39 134.38C370.23 128.1 367.11 121.09 363.72 114.35C363.23 113.91 361.5 114.13 360.72 114.11C318.27 113.1 275.69 114.87 233.23 114.1C228.84 114.63 224.36 114.22 219.93 114.35ZM362.4 135.7C318.39 135.06 274.37 135.64 230.35 135.23C228.35 135.21 226.33 134.7 224.25 135.34C225.01 136.62 228.88 141.49 228.55 142.75C228.46 143.09 228.06 143.21 227.74 143.15C227.29 143.07 223.49 136.21 222.82 135.33L219.7 135.46C219.61 135.53 220.75 137.14 220.9 137.38C221.14 138.49 222.16 139.1 221.86 140.38L221.38 140.5C220.73 139.76 219.01 135.89 218.5 135.58C218.04 135.3 216.73 135.36 216.84 136.04L225.14 152.51L373.8 153.22L365.49 135.75C364.47 135.66 363.43 135.73 362.41 135.71L362.4 135.7ZM219.45 155.12C218.75 155.12 217.97 155.01 217.29 155.24L226.32 175C248.78 175 271.24 175.1 293.7 175.04C294.44 175.04 295.1 174.78 295.84 174.78C321.95 174.72 348.09 175 374.16 174.55L365.74 155.27C365.22 154.61 363.1 154.9 362.17 154.89C314.67 154.01 266.94 154.64 219.46 155.13L219.45 155.12ZM220.65 176.71C219.55 176.83 218.37 176.72 217.29 177.07C219.01 180.33 220.31 183.79 221.88 187.11C222.42 188.24 223.63 191.09 224.27 191.92C224.43 192.13 224.53 192.3 224.84 192.31C264.5 192.22 304.16 192.26 343.82 192.08C352.33 192.04 360.93 191.61 369.48 191.82C371.01 191.86 372.79 192.4 374.39 191.95C371.19 187.15 369.1 181.73 366.45 176.62C365.93 175.95 363.6 176.25 362.64 176.24C316.73 175.48 270.75 176.82 224.84 176.23C223.44 176.39 222.05 176.57 220.65 176.72V176.71ZM222.56 194.46C221.34 194.5 220.15 194.5 218.96 194.82L229.15 212.69H375.58L366.67 193.78C365.73 193.7 364.77 193.76 363.82 193.75C334.2 193.25 304.35 194.09 274.73 194.24C257.35 194.33 239.9 193.92 222.55 194.47L222.56 194.46ZM220.89 214.37C219.78 214.39 218.51 214.14 217.53 214.73C220.3 217.94 222.1 221.85 224.38 225.38C225.39 226.94 226.74 228.29 227.51 229.97C231.66 230 235.81 229.88 239.96 229.95C276.96 230.54 313.97 231.2 351.01 231.39C354.81 231.41 358.68 231.72 362.52 231.65C365.25 231.6 369.86 231.73 372.35 231.4C372.68 231.36 372.77 231.53 372.7 231.04L363.23 214.36C362.76 213.94 361.83 214.14 361.19 214.12C321.16 212.97 280.94 214.99 240.89 214.11C234.26 214.66 227.54 214.22 220.87 214.36L220.89 214.37ZM274.61 232.35L216.81 231.39L228.7 252.03L372.95 253.45L361.94 233.7C361.56 233.36 360.14 233.58 359.52 233.54C353.87 233.2 348.26 233.41 342.6 233.31C319.95 232.92 297.3 232.46 274.61 232.34V232.35ZM225.92 253.7C223.33 253.95 220.15 253.36 217.64 253.7C217.31 253.74 217.22 253.57 217.29 254.06L227.36 268.69C228.27 269.11 229.21 268.59 230.11 268.56C237.27 268.39 244.56 268.37 251.69 268.32C292.34 268.03 333.01 268.56 373.66 268.32C370.73 263.98 367.35 259.85 364.99 255.17C364.21 255.07 363.41 255.15 362.63 255.13C336.1 254.37 309.44 254.67 282.87 254.42C263.95 254.24 244.83 253.45 225.92 253.69V253.7ZM219.93 270.01C218.82 270.02 217.66 269.9 216.57 270.13C220.86 276.32 224.3 283.05 228.24 289.45C231.26 289.49 234.3 289.36 237.32 289.43C279.65 290.35 322.11 289.59 364.43 290.66L373.42 290.52L360.83 270.73C360.31 270.3 359.46 270.52 358.79 270.49H243.77C235.86 270.34 227.83 269.93 219.92 270.01H219.93ZM266.7 291.59L216.09 291.35L224.87 307.91L373.67 307.17L365.48 291.86C364.91 291.5 363.73 292.04 363.36 292.06C355.93 292.44 348.35 291.86 340.95 291.81C316.19 291.65 291.47 291.61 266.71 291.58L266.7 291.59ZM221.36 309.58C219.93 309.59 218.46 309.47 217.04 309.7L224.83 326.13C243.14 326.27 261.45 326.21 279.77 326.36C303.16 326.54 326.64 326.91 350.03 327.1C357.55 327.16 365.08 327.2 372.57 327.34C372.94 327.34 373.83 327.53 373.66 326.97L364.03 309.38C363.09 309.29 362.13 309.36 361.19 309.34C314.66 308.58 267.9 309.25 221.36 309.58Z" fill="#09090A"/>
<path d="M157.57 18.66L163.85 28.81L167.13 35.15C167.15 36.73 165.37 35.83 164.41 36.41H156.85C158.94 41.15 161.48 45.67 163.61 50.4C164.28 51.88 164.99 54.61 165.67 55.77C166.05 56.41 166.83 56.46 166.93 57.17C167.05 57.86 166.53 58.58 165.84 58.71L157.09 58.48L166.65 73.74C166.73 74.06 166.75 74.49 166.45 74.68C166.38 74.72 164.96 75.03 164.88 75.03H151.81L165.1 93.28C165.73 93.85 165.98 95.42 164.88 95.42H156.13L167.16 112.81C167.24 113.13 166.97 113.24 166.75 113.36C165.7 113.98 160.07 113.57 158.39 113.64C156.99 113.69 155.45 114.1 153.96 113.89L166.64 134.68L166.07 135.24L154.68 135.48L166.16 153.88C166.3 154.3 166.12 154.84 165.72 155.03C165.64 155.07 164.01 155.39 163.92 155.39H157.08C159.52 159.64 162.01 163.92 164.16 168.34C164.68 169.4 167.66 175.31 166.91 176.02L157.08 176.26C160.07 181.41 163.72 186.22 166.32 191.6C167.04 193.09 167.6 194.17 165.83 195.2L157.32 194.97L167.87 213.34L167.85 213.89C167.31 214.65 159.06 214.43 157.56 214.64C158.61 216.67 159.53 218.79 160.64 220.79C161.96 223.19 163.61 225.39 164.72 227.98C165.21 229.12 166.64 232.39 165.82 233.33C164.67 234.65 158.91 232.83 157.08 233.1L166.88 252.93C166.58 254.27 165.04 253.37 164.15 253.96H158.75C160.84 258.24 163.55 262.45 165.43 266.83C166.01 268.17 167.76 271.25 165.32 271.47L157.06 271.11L166.85 290.6L166.79 291.39L158.98 291.86C161.81 297.37 164.82 302.8 167.09 308.58C167.14 308.85 166.86 309.14 166.65 309.24C166.38 309.36 163.76 309.58 163.19 309.61C160.13 309.77 156.9 309.53 153.82 309.59C113.76 310.43 73.52 309.88 33.44 310.33C27.72 310.39 22 310.26 16.28 310.32L16.98 346.67C17.03 347.12 18.03 347.46 18.41 348.13C18.67 348.6 18.96 349.73 18.95 350.26C18.95 350.57 17.08 352.88 16.4 353C12.05 353.74 10.04 346.27 15.57 346.54C15.78 334.48 14.63 322.33 15.81 310.33C15.25 310.21 13.43 310.56 13.15 310.18C12.57 309.42 12.15 307.59 11.7 306.65C9.56001 302.18 6.51002 297.51 4.83002 292.89C4.54002 292.1 3.45 289.23 5.13 289.23H14.36C12.4 284.17 9.45002 279.52 7.36002 274.52C6.89002 273.4 4.61002 268.64 6.02002 268.04C6.78002 267.72 9.28999 267.8 10.4 267.64C10.72 267.59 10.83 267.8 10.76 267.29C8.25001 263.31 6.55999 258.88 4.39999 254.7C3.99999 254.11 4.5 253.01 5.13 253.01H12.21C9.91002 247 6.08002 241.17 4.55002 234.88C4.32002 233.92 3.42001 230.88 4.70001 230.51L10.29 230.22C8.33001 226.05 5.8 221.35 4.53 216.92C4.19 215.74 3.41 212.49 4.78 211.88L13.89 211.99C11.73 207.13 8.85001 202.56 6.73001 197.69C6.31001 196.73 5.00002 193.75 5.02002 192.91C5.02002 192.67 5.07 192.6 5.25 192.45C6.17 191.71 11.62 192.24 13.17 191.85C11.5 188.1 9.28002 184.27 7.96002 180.39C7.68002 179.58 6.56002 175.81 6.80002 175.31C7.30002 174.28 8.27001 174.83 8.73001 174.83H12.21C9.56002 169.84 6.98 164.69 5.38 159.24C5.06 158.15 4.91002 157.03 4.61002 155.93C4.42002 155.22 3.74002 154.9 4.18002 153.97C4.24002 153.85 4.84999 153.25 4.89999 153.25H12.46C10.95 151.3 9.85001 148.74 8.82001 146.46C7.38001 143.28 6.51001 139.91 5.20001 136.89C4.85001 136.08 3.81002 135.94 4.43002 134.55C5.00002 133.27 6.58 134.05 7.53 134.08C9.09 134.12 10.66 134.04 12.22 134.07C9.67 129.25 7.11001 123.99 5.26001 118.85C4.85001 117.72 3.39001 113.92 3.76001 113.04C3.83001 112.87 4.34001 112.25 4.42001 112.25H11.74L2.42001 94.57C2.30001 93.79 2.98 93.15 3.72 93.08L10.3 93.3C8.59002 89.73 6.96 86.05 5.56 82.33C4.8 80.31 4.32001 77.91 3.57001 75.97C3.44001 75.63 2.23002 75.05 3.08002 73.97C3.61002 73.3 4.21 73.63 4.66 73.63H9.82001C7.77001 69.15 5.67002 64.68 4.18002 59.96C3.78002 58.67 3.83001 57.16 2.89001 56.2C2.63001 55.8 3.46001 55.16 3.70001 55.16H11.26C8.43001 49.05 6.23002 42.7 4.43002 36.21C4.22002 35.46 3.48001 35.14 4.10001 34.2C4.21001 34.02 4.78 33.57 4.91 33.57H9.11002C6.95002 28.68 4.27002 24 3.08002 18.73C1.71002 18.75 0.53 18.87 0 17.37V1.56C0.13 0.739998 0.740007 0.13 1.57001 0H170.4C171.11 0.23 171.64 0.799999 171.74 1.53C172.36 6.23 171.24 12.29 171.74 17.14C171.93 17.52 170.75 18.69 170.65 18.69H157.58L157.57 18.66ZM165.72 15.78C166.76 15.77 167.8 15.78 168.84 15.78V2.83H2.86002V15.78C4.14002 15.78 5.42001 15.78 6.70001 15.78C24.76 15.92 42.84 15.78 60.91 15.78C64.74 15.78 68.59 15.78 72.42 15.78C76.01 15.78 79.62 15.78 83.21 15.78C87.92 15.78 92.65 15.78 97.36 15.78C120.13 15.78 142.95 16.03 165.72 15.78ZM6.70001 18.66C6.00001 18.66 5.22001 18.55 4.54001 18.78L12.81 33.77C51.98 34.16 91.16 33.77 130.35 34C140.83 34.06 151.52 34.07 161.99 34.5C163.05 34.54 164.2 34.54 165.24 34.37C161.1 29.73 158.13 24.17 154.7 19.01L152.77 18.66C104.09 19.04 55.38 18.15 6.70001 18.66ZM7.89999 36.16C7.28999 36.16 6.54001 36.05 5.98001 36.28L14.04 55.12C15.79 55.15 17.55 55.03 19.3 55.1C49.69 56.22 80.68 55.65 111.16 55.82C127.74 55.91 145.01 55.51 161.53 56.06C162.22 56.08 164.55 56.88 164.18 55.57L154.42 36.43C153.87 36.35 153.32 36.42 152.77 36.4C116.73 35.57 80.53 36.29 44.47 36.17C32.28 36.13 20.11 36 7.89999 36.16ZM6.70001 57.03C6.30001 57.02 4.52 56.48 4.78 57.15L12.59 73.6L165 73.34L154.8 58.47C154.27 58.03 153.44 58.26 152.76 58.23C146.73 57.98 140.47 58.31 134.4 58.23C110.62 57.95 86.74 57.45 62.94 57.25C44.32 57.09 25.23 57.66 6.69 57.02L6.70001 57.03ZM7.42001 75.74C6.64001 75.74 5.78002 75.63 5.02002 75.86C8.14002 81.25 10.13 87.21 12.71 92.87L14.28 93.46C64.18 93.47 114.05 93.69 163.92 93.97C164.29 93.78 163.94 93.55 163.8 93.37C163.09 92.41 161.76 91.45 160.93 90.49C159.11 88.39 157.25 85.87 155.55 83.64C153.46 80.91 151.19 78.12 149.61 75.07C148.99 74.96 148.35 75.05 147.73 75.03C142.18 74.86 136.38 74.97 130.81 75.03C89.72 75.36 48.5 75.43 7.42001 75.76V75.74ZM6.70001 95.16L4.54001 95.52C7.95001 100.32 10.59 105.67 13.46 110.83C13.67 111.2 13.75 111.65 13.87 112.05L14.25 112.21L165 112.19C160.79 107.03 157.61 101.14 153.85 95.64C153.32 95.21 152.48 95.43 151.81 95.4L6.70001 95.16ZM8.14001 114.83C7.41001 114.85 6.54002 114.74 5.86002 114.83C5.53002 114.87 5.44001 114.7 5.51001 115.18L14.53 134.03C21.08 134.06 27.63 133.94 34.18 134.01C67.56 134.34 101.04 134.22 134.42 134.01C144.46 133.95 154.5 134.08 164.53 134.01C159.79 127.6 155.35 120.91 151.54 113.91C150.84 113.81 150.12 113.89 149.42 113.87C147.31 113.82 145.16 113.82 143.05 113.87C98.13 114.63 53.04 113.54 8.14001 114.84V114.83ZM10.06 136.18C8.93 136.22 7.80001 136.17 6.70001 136.54C8.70001 140.43 10.99 144.5 12.74 148.49C13.39 149.97 14.28 151.58 14.14 153.21C48.48 153.16 82.83 153.27 117.17 153.22C130.58 153.2 144.37 152.67 157.7 152.96L163.8 153.09C159.88 147.56 155.42 141.97 152.29 135.94C152.25 135.86 152.36 135.62 152.27 135.48C152.12 135.4 151.96 135.48 151.81 135.46C151.21 135.4 150.52 135.47 149.89 135.46C124.65 134.96 99.21 135.56 73.99 135.71C52.69 135.84 31.33 135.51 10.06 136.18ZM9.82001 155.84C8.75001 155.85 7.34 155.71 6.34 155.84C6.01 155.88 5.92002 155.71 5.99002 156.19L14.77 174.8H165.61L154.41 155.41C153.56 155.29 152.68 155.37 151.82 155.36C142.52 155.2 133.4 155.62 124.11 155.61C86.16 155.57 47.88 155.41 9.83002 155.84H9.82001ZM11.26 176.71C10.61 176.71 9.82 176.63 9.22 176.71C8.89 176.75 8.8 176.58 8.87 177.06L16.42 192.06L165.13 192.78C165.38 192.72 164.95 192.18 164.87 192.08C161.84 188.03 158.98 183.85 156.27 179.57C155.92 179.01 154.77 176.64 154.57 176.47C154.08 176.04 152.77 176.26 152.05 176.23C148.38 176.12 144.57 176.18 140.89 176.23C97.72 176.66 54.42 176.17 11.26 176.72V176.71ZM10.06 193.74C8.79 193.69 7.49 193.69 6.22 193.62C10.23 199.31 13.52 205.55 16.33 211.94C20.75 212.06 25.19 211.9 29.62 211.96C72.89 212.6 116.35 211.64 159.6 212.7C161.72 212.75 163.85 212.64 165.97 212.69C161.73 207.22 158.16 201.24 154.82 195.18C154.35 194.77 153.6 194.96 153.02 194.94C139.63 194.47 126.02 194.54 112.62 194.45C78.62 194.22 43.93 195.06 10.07 193.74H10.06ZM10.3 214.37C9.26002 214.43 8.06 214.25 7.06 214.37C6.73 214.41 6.63001 214.24 6.73001 214.7L12.82 228.52L12.94 230.2C26.57 230.28 40.21 230.09 53.85 230.19C83.26 230.41 112.67 231.02 142.11 231.15C149.2 231.18 156.61 231.99 163.69 230.91C164.01 230.86 164.12 231.07 164.05 230.56C160.82 225.42 157.42 220.33 155.12 214.67L152.3 214.37C105.71 215.49 58.91 212.67 12.34 214.12C11.64 214.14 11 214.33 10.31 214.37H10.3ZM7.42001 231.39C6.86001 231.41 6.30002 231.38 5.74002 231.39C7.70002 238.9 11.84 245.73 14.52 252.99L165 252.25L154.89 233.1C154.11 233 153.31 233.08 152.53 233.06C109.37 232.12 66.07 232.75 22.88 231.87C17.78 231.77 12.54 231.23 7.42001 231.38V231.39ZM10.06 255.38C8.87 255.45 7.63002 255.23 6.46002 255.5L12.51 266.48L12.7 267.85C24.41 267.93 36.13 267.75 47.85 267.85C83.21 268.13 118.76 268.89 154.08 268.81C157.56 268.81 161.04 268.84 164.52 268.82L156.49 254.19C156.14 253.77 155.03 253.97 154.45 253.95C151.79 253.87 149.07 253.9 146.41 253.95C109.03 254.46 71.56 254.51 34.18 254.93C25.99 255.02 18.25 254.9 10.07 255.4L10.06 255.38ZM9.58002 269.29C8.54002 269.28 7.77001 269.11 6.82001 269.05C6.45001 269.02 6.4 269.01 6.47 269.4L16.2 289.45L165.24 290.15L154.89 271C154.11 270.88 153.3 271.03 152.52 270.97C144.59 270.31 136.4 270.82 128.41 270.74C88.82 270.33 49.16 269.74 9.57001 269.29H9.58002ZM10.78 291.83C9.46 291.89 7.82002 291.66 6.58002 291.83C6.25002 291.87 6.16001 291.7 6.23001 292.19C9.57001 297.17 12.45 302.51 14.83 308L15.21 308.16L165.48 307.9L159.68 297.99L156.82 291.86C156.03 291.79 155.24 291.84 154.45 291.83C113.42 291.27 72.33 291.54 31.28 291.6C24.45 291.61 17.65 291.54 10.78 291.83Z" fill="#09090A"/>
<path d="M363.84 193.74L369.36 208.13H231.45C228.62 203.49 225.07 199.31 222.58 194.46C239.92 193.91 257.38 194.32 274.76 194.23C304.39 194.08 334.23 193.24 363.85 193.74H363.84Z" fill="#B7E6FD"/>
<path d="M362.16 154.89L368.88 167.84H227.49C224.73 163.66 221.81 159.56 219.46 155.13C266.94 154.64 314.67 154.01 362.17 154.89H362.16Z" fill="#B7E6FD"/>
<path d="M274.61 232.35C297.3 232.47 319.95 232.93 342.6 233.32C348.26 233.42 353.87 233.21 359.52 233.55L365.28 245.78H231.08L221.61 232.35C239.27 232.42 256.95 232.26 274.62 232.35H274.61Z" fill="#B7E6FD"/>
<path d="M358.8 270.49L359.22 273.31L364.55 282.49H227.96L219.93 270.02C227.84 269.94 235.87 270.35 243.78 270.51H358.8V270.49Z" fill="#B7E6FD"/>
<path d="M360.72 114.11C360.62 114.54 360.44 114.98 360.46 115.43C360.52 116.94 363.34 121.54 364.12 123.3C364.47 124.09 364.93 125.01 365.04 125.86H226.29L219.93 114.35C224.36 114.22 228.84 114.63 233.23 114.1C275.69 114.87 318.27 113.11 360.72 114.11Z" fill="#B7E6FD"/>
<path d="M266.7 291.59C291.46 291.62 316.18 291.66 340.94 291.82C348.34 291.87 355.93 292.45 363.35 292.07L367.19 303.1H226.28L219.44 291.59C235.19 291.59 250.94 291.57 266.69 291.59H266.7Z" fill="#B7E6FD"/>
<path d="M358.8 36.6402L366.24 48.3902H222.81L218.25 37.8402C263.59 37.2202 309.03 37.3902 354.35 36.6302C355.82 36.6102 357.33 36.6102 358.8 36.6302V36.6402Z" fill="#B7E6FD"/>
<path d="M362.4 135.7C362.3 139.57 365.57 142.68 366.72 146.25H226.17C224.61 143.23 222.75 140.25 220.89 137.38C220.74 137.14 219.6 135.53 219.69 135.46L222.81 135.33C223.48 136.2 227.28 143.07 227.73 143.15C228.05 143.21 228.45 143.09 228.54 142.75C228.87 141.49 225 136.63 224.24 135.34C226.32 134.71 228.35 135.21 230.34 135.23C274.35 135.63 318.37 135.06 362.39 135.7H362.4Z" fill="#B7E6FD"/>
<path d="M359.04 17.7001L360.23 20.2301L365.51 28.0201H224L217.04 17.4701C264.28 16.6901 311.81 17.2701 359.03 17.7101L359.04 17.7001Z" fill="#B7E6FD"/>
<path d="M362.64 176.23L367.44 186.54H226.17L220.65 176.71C222.04 176.56 223.44 176.37 224.84 176.22C270.76 176.81 316.74 175.47 362.64 176.23Z" fill="#B7E6FD"/>
<path d="M220.17 75.5L225.45 84.37H366L361.92 75.74C362.73 75.76 364.67 75.54 365.16 75.98L374.39 93.97L226.03 93.75L216.81 75.63C217.9 75.41 219.06 75.52 220.17 75.51V75.5Z" fill="#FEFEFE"/>
<path d="M361.2 309.34C361.14 310.48 361.84 311.43 362.36 312.38C363.7 314.84 365.45 317.07 366.96 319.41H225.93L221.37 309.58C267.91 309.25 314.67 308.58 361.2 309.34Z" fill="#B7E6FD"/>
<path d="M361.2 214.13C361.98 217.4 363.92 220.41 365.28 223.48H226.65L220.89 214.37C227.55 214.23 234.28 214.67 240.91 214.12C280.96 215 321.18 212.98 361.21 214.13H361.2Z" fill="#B7E6FD"/>
<path d="M361.68 57.75L366.48 66.62H223.77L219.45 57.51C248.77 56.97 278.28 57.66 307.58 57.76C325.6 57.82 343.67 57.42 361.68 57.75Z" fill="#B7E6FD"/>
<path d="M360.72 114.11C361.5 114.13 363.23 113.91 363.72 114.35C367.1 121.09 370.23 128.1 374.39 134.38C365.79 134.11 357.02 134.33 348.36 134.27C312.41 134.01 276.38 134 240.45 133.53C235.42 133.46 230.38 133.59 225.35 133.55L217.33 114.91C217.15 114.52 217.71 114.46 217.95 114.42C218.62 114.3 219.26 114.37 219.93 114.35L226.29 125.86H365.04C364.93 125.01 364.47 124.09 364.12 123.3C363.33 121.53 360.52 116.93 360.46 115.43C360.44 114.98 360.62 114.54 360.72 114.11Z" fill="#FEFEFE"/>
<path d="M362.64 95.3999L365.76 104.51H225.33L219.93 95.6399C266.79 94.8499 313.77 96.6899 360.61 95.6499C361.31 95.6299 361.94 95.4299 362.64 95.3999Z" fill="#B7E6FD"/>
<path d="M361.92 75.7398L366 84.3698H225.45L220.17 75.4998C221.33 75.4998 222.5 75.4698 223.66 75.4998C269.71 76.4698 315.87 74.7798 361.92 75.7498V75.7398Z" fill="#B7E6FD"/>
<path d="M362.64 95.4002C363.58 95.3602 364.54 95.3802 365.48 95.4402L374.51 112.43L224.84 111.95L216.57 96.0002L219.93 95.6402L225.33 104.51H365.76L362.64 95.4002Z" fill="#FEFEFE"/>
<path d="M225.92 253.7C225.92 253.7 225.65 253.94 225.34 253.95C223.78 254 222.2 253.89 220.65 253.95L224.97 260.42H365.04L362.64 255.14C363.42 255.16 364.22 255.08 365 255.18C367.36 259.86 370.74 263.99 373.67 268.33C333.02 268.56 292.35 268.03 251.7 268.33C244.56 268.38 237.28 268.4 230.12 268.57C229.22 268.59 228.29 269.11 227.37 268.7L217.3 254.07C217.24 253.58 217.32 253.76 217.65 253.71C220.16 253.38 223.34 253.96 225.93 253.71L225.92 253.7Z" fill="#FEFEFE"/>
<path d="M358.8 36.6401C359.61 36.6601 361.55 36.4401 362.04 36.8801L368.53 47.9001L374.51 56.3201L223.19 55.8501C221.26 50.2101 218.73 44.5101 216.13 39.1201C215.93 38.7201 215.62 38.3401 215.37 37.9601C216.3 37.7301 217.3 37.8501 218.25 37.8401L222.81 48.3901H366.24L358.8 36.6401Z" fill="#FEFEFE"/>
<path d="M219.93 270.01L227.96 282.48H364.55L359.22 273.3L358.8 270.48C359.47 270.51 360.31 270.29 360.84 270.72L373.43 290.51L364.44 290.65C322.12 289.59 279.66 290.34 237.33 289.42C234.31 289.35 231.27 289.48 228.25 289.44C224.3 283.04 220.87 276.31 216.58 270.12C217.67 269.89 218.83 270.01 219.94 270L219.93 270.01Z" fill="#FEFEFE"/>
<path d="M217.05 17.4599L224.01 28.0098H365.52L360.24 20.2199L359.05 17.6899C360.56 17.6999 362.08 17.6499 363.58 17.7199L365.67 21.7499L374.16 34.9599L223.88 35.4599L223.57 35.3998C221.25 30.0198 218.83 24.8298 215.72 19.8698C215.4 19.3598 214.31 18.0998 214.18 17.8098C213.97 17.3198 214.51 17.4698 214.77 17.4498C215.52 17.3998 216.3 17.4598 217.05 17.4498V17.4599Z" fill="#FEFEFE"/>
<path d="M361.2 309.34C362.14 309.36 363.1 309.28 364.04 309.38L373.67 326.97C373.84 327.53 372.95 327.34 372.58 327.34C365.09 327.2 357.56 327.16 350.04 327.1C326.65 326.91 303.17 326.54 279.78 326.36C261.47 326.22 243.16 326.27 224.84 326.13L217.05 309.7C218.46 309.48 219.94 309.59 221.37 309.58L225.93 319.41H366.96C365.45 317.06 363.7 314.83 362.36 312.38C361.84 311.43 361.14 310.48 361.2 309.34Z" fill="#FEFEFE"/>
<path d="M361.2 214.13C361.84 214.15 362.77 213.95 363.24 214.37L372.71 231.05C372.77 231.54 372.69 231.36 372.36 231.41C369.87 231.74 365.27 231.61 362.53 231.66C358.68 231.72 354.81 231.42 351.02 231.4C313.98 231.21 276.97 230.55 239.97 229.96C235.82 229.89 231.67 230.02 227.52 229.98C226.75 228.3 225.4 226.95 224.39 225.39C222.1 221.86 220.31 217.94 217.54 214.74C218.52 214.15 219.79 214.4 220.9 214.38L226.66 223.49H365.29C363.93 220.42 361.99 217.41 361.21 214.14L361.2 214.13Z" fill="#FEFEFE"/>
<path d="M362.16 154.89C363.1 154.91 365.22 154.61 365.73 155.27L374.15 174.55C348.08 175 321.94 174.72 295.83 174.78C295.09 174.78 294.43 175.04 293.69 175.04C271.23 175.09 248.77 175 226.31 175L217.28 155.24C217.95 155.01 218.73 155.13 219.44 155.12C221.8 159.55 224.72 163.65 227.47 167.83H368.86L362.14 154.88L362.16 154.89Z" fill="#FEFEFE"/>
<path d="M274.61 232.35C256.95 232.26 239.27 232.42 221.6 232.35L231.07 245.78H365.27L359.51 233.55C360.13 233.59 361.55 233.37 361.93 233.71L372.94 253.46L228.69 252.04L216.8 231.4L274.6 232.36L274.61 232.35Z" fill="#FEFEFE"/>
<path d="M362.4 135.7C363.42 135.71 364.46 135.65 365.48 135.74L373.79 153.21L225.13 152.5L216.83 136.03C216.72 135.36 218.03 135.29 218.49 135.57C218.99 135.88 220.72 139.75 221.37 140.49L221.85 140.37C222.15 139.09 221.13 138.48 220.89 137.37C222.74 140.25 224.61 143.23 226.17 146.24H366.72C365.58 142.67 362.3 139.55 362.4 135.69V135.7Z" fill="#FEFEFE"/>
<path d="M219.45 57.5102L223.77 66.6202H366.48L361.68 57.7502C362.36 57.7602 363.37 57.6302 363.96 57.7502C364.5 57.8502 365.4 60.0502 365.8 60.7102C368.37 64.9502 371.09 69.1202 373.67 73.3502C372.98 73.3902 372.34 73.5602 371.64 73.6002C352.14 74.7602 331.27 72.9202 311.68 73.3402L223.21 73.1202L216.1 57.8802C216.13 57.3202 218.84 57.5302 219.45 57.5202V57.5102Z" fill="#FEFEFE"/>
<path d="M362.64 176.23C363.6 176.25 365.94 175.95 366.45 176.61C369.1 181.72 371.19 187.13 374.39 191.94C372.79 192.39 371.01 191.85 369.48 191.81C360.93 191.6 352.33 192.03 343.82 192.07C304.16 192.25 264.5 192.21 224.84 192.3C224.53 192.3 224.43 192.13 224.27 191.91C223.63 191.08 222.42 188.24 221.88 187.1C220.31 183.78 219.02 180.31 217.29 177.06C218.37 176.72 219.55 176.82 220.65 176.7L226.17 186.53H367.44L362.64 176.22V176.23Z" fill="#FEFEFE"/>
<path d="M362.64 255.14L365.04 260.42H224.97L220.65 253.95C222.21 253.9 223.78 254.01 225.34 253.95C225.65 253.94 225.89 253.7 225.92 253.7C244.83 253.46 263.95 254.25 282.87 254.43C309.44 254.68 336.1 254.38 362.63 255.14H362.64Z" fill="#B7E6FD"/>
<path d="M363.84 193.74C364.78 193.76 365.74 193.69 366.69 193.77L375.6 212.68H229.17L218.98 194.81C220.17 194.49 221.36 194.49 222.58 194.45C225.07 199.3 228.62 203.48 231.45 208.12H369.36L363.84 193.73V193.74Z" fill="#FEFEFE"/>
<path d="M266.7 291.59C250.95 291.57 235.2 291.6 219.45 291.59L226.29 303.1H367.2L363.36 292.07C363.73 292.05 364.91 291.51 365.48 291.87L373.67 307.18L224.87 307.92L216.09 291.36L266.7 291.6V291.59Z" fill="#FEFEFE"/>
<path d="M216.57 14.58C215.29 14.58 214.01 14.58 212.73 14.58V3.79004H377.99V14.58C376.87 14.58 375.75 14.57 374.63 14.58L374.87 6.66005C368.69 6.31005 362.48 6.52005 356.27 6.43005C340.33 6.20005 324.27 6.18005 308.32 5.93005C305.16 5.88005 301.99 5.99005 298.83 5.94005L307.94 14.5701C303.55 14.5701 299.14 14.5701 294.75 14.5701C292.45 11.7701 289.75 9.16005 288.03 5.94005H264.52L272.2 14.5701C267.33 14.5701 262.44 14.5701 257.57 14.5701L250.46 5.73004C239.23 5.66004 227.99 5.81005 216.79 5.46005L216.55 14.58H216.57Z" fill="#B7E6FD"/>
<path d="M307.95 14.5801L298.84 5.95012C302 6.00012 305.17 5.89013 308.33 5.94013C324.28 6.20013 340.34 6.21013 356.28 6.44013C362.49 6.53013 368.7 6.32013 374.88 6.67013L374.64 14.5901C352.43 14.8001 330.18 14.5901 307.96 14.5901L307.95 14.5801Z" fill="#45ACDF"/>
<path d="M257.58 14.58C243.92 14.58 230.23 14.69 216.57 14.58L216.81 5.45996C228.01 5.80996 239.25 5.65995 250.48 5.72995L257.59 14.57L257.58 14.58Z" fill="#45ACDF"/>
<path d="M272.21 14.5802L264.53 5.9502H288.04C289.76 9.1702 292.46 11.7902 294.76 14.5802C287.25 14.5802 279.73 14.5802 272.21 14.5802Z" fill="#45ACDF"/>
<path d="M153.01 194.94C155.06 199.61 157.9 203.89 160.69 208.13H16.8996L10.0596 193.74C43.9096 195.06 78.6096 194.22 112.61 194.45C126.01 194.54 139.62 194.47 153.01 194.94Z" fill="#B7E6FD"/>
<path d="M152.53 233.07L157.81 245.78H14.1399L7.41992 231.39C12.5399 231.24 17.7799 231.78 22.8799 231.88C66.0699 232.76 109.36 232.13 152.53 233.07Z" fill="#B7E6FD"/>
<path d="M152.77 36.4L158.05 48.39H14.0204C12.1004 44.25 10.6604 39.85 7.90039 36.16C20.1104 36 32.2804 36.13 44.4704 36.17C80.5304 36.29 116.74 35.57 152.77 36.4Z" fill="#B7E6FD"/>
<path d="M152.53 270.97L158.29 282.48H16.4201L9.58008 269.29C49.1701 269.74 88.8301 270.33 128.42 270.74C136.41 270.82 144.61 270.31 152.53 270.97Z" fill="#B7E6FD"/>
<path d="M151.81 155.36L157.57 167.83H14.5003L9.82031 155.84C47.8703 155.41 86.1503 155.57 124.1 155.61C133.4 155.61 142.51 155.2 151.81 155.36Z" fill="#B7E6FD"/>
<path d="M154.45 291.83L159.97 303.1H17.5003L10.7803 291.83C17.6403 291.54 24.4403 291.61 31.2803 291.6C72.3403 291.54 113.42 291.26 154.45 291.83Z" fill="#B7E6FD"/>
<path d="M149.41 113.87C150.65 118.29 153.23 122.18 155.89 125.86H13.6596L8.13965 114.83C53.0296 113.53 98.1197 114.62 143.05 113.86C145.16 113.82 147.31 113.82 149.42 113.86L149.41 113.87Z" fill="#B7E6FD"/>
<path d="M149.89 135.46L150.4 137.22L155.16 146.25H15.9298L10.0498 136.18C31.3198 135.51 52.6798 135.84 73.9798 135.71C99.1998 135.56 124.64 134.96 149.88 135.46H149.89Z" fill="#B7E6FD"/>
<path d="M152.05 176.23C153.13 180.04 155.93 183.01 157.57 186.54H15.3398L11.2598 176.71C54.4198 176.16 97.7197 176.65 140.89 176.22C144.58 176.18 148.38 176.12 152.05 176.22V176.23Z" fill="#B7E6FD"/>
<path d="M147.73 75.0202C148.35 75.0402 148.99 74.9502 149.61 75.0602C151.19 78.1102 153.46 80.9002 155.55 83.6302C157.25 85.8602 159.11 88.3902 160.93 90.4802C161.77 91.4402 163.09 92.4002 163.8 93.3602C163.94 93.5502 164.28 93.7702 163.92 93.9602C114.05 93.6802 64.1795 93.4602 14.2795 93.4502L12.7095 92.8602C10.1295 87.2002 8.13953 81.2402 5.01953 75.8502C5.77953 75.6302 6.62953 75.7402 7.41953 75.7302L11.6195 84.3602H153.25C151.51 81.2402 148.72 78.5202 147.73 75.0102V75.0202Z" fill="#FEFEFE"/>
<path d="M151.81 95.4001C152.5 98.7901 154.78 101.53 156.37 104.51H12.7002L6.7002 95.1602L151.81 95.4001Z" fill="#B7E6FD"/>
<path d="M152.77 18.6598C153.43 21.8898 155.13 24.7598 156.37 27.7698H11.9802C12.0402 27.3698 11.9402 27.0298 11.7602 26.6798C10.3702 23.9998 8.1302 21.3698 6.7002 18.6598C55.3702 18.1498 104.09 19.0398 152.77 18.6598Z" fill="#B7E6FD"/>
<path d="M152.77 58.2298L156.85 66.6198H11.7402L6.7002 57.0298C25.2502 57.6698 44.3402 57.0998 62.9502 57.2598C86.7402 57.4598 110.62 57.9598 134.41 58.2398C140.48 58.3098 146.74 57.9798 152.77 58.2398V58.2298Z" fill="#B7E6FD"/>
<path d="M152.29 214.37L155.89 223.48H13.8998L10.2998 214.37C10.9898 214.33 11.6298 214.14 12.3298 214.12C58.9098 212.67 105.7 215.49 152.29 214.37Z" fill="#B7E6FD"/>
<path d="M149.41 113.87C150.11 113.89 150.83 113.81 151.53 113.91C155.34 120.92 159.78 127.61 164.52 134.01C154.49 134.07 144.44 133.94 134.41 134.01C101.03 134.22 67.5597 134.34 34.1697 134.01C27.6197 133.95 21.0698 134.07 14.5198 134.03L5.49973 115.18C5.42973 114.7 5.51974 114.87 5.84974 114.83C6.52974 114.74 7.40974 114.85 8.12974 114.83L13.6497 125.86H155.88C153.22 122.18 150.64 118.29 149.4 113.87H149.41Z" fill="#FEFEFE"/>
<path d="M147.73 75.0199C148.71 78.5299 151.5 81.2498 153.25 84.3698H11.6199L7.41992 75.7399C48.5099 75.4099 89.7199 75.3398 130.81 75.0098C136.38 74.9598 142.18 74.8498 147.73 75.0098V75.0199Z" fill="#B7E6FD"/>
<path d="M154.45 253.94C155.03 253.96 156.14 253.76 156.49 254.18L164.52 268.81C161.04 268.83 157.56 268.79 154.08 268.8C118.76 268.89 83.1999 268.13 47.8499 267.84C36.1399 267.75 24.41 267.93 12.7 267.84L12.5099 266.47L6.45996 255.49C7.62996 255.22 8.86994 255.44 10.0599 255.37L13.0599 260.41H157.57L154.45 253.93V253.94Z" fill="#FEFEFE"/>
<path d="M6.70004 95.1602L12.7 104.51H156.37C154.78 101.52 152.5 98.7901 151.81 95.4001C152.48 95.4301 153.32 95.2102 153.85 95.6402C157.61 101.13 160.79 107.02 165 112.19L14.25 112.21L13.87 112.05C13.75 111.64 13.6701 111.2 13.4601 110.83C10.6001 105.67 7.95004 100.33 4.54004 95.5202L6.70004 95.1602Z" fill="#FEFEFE"/>
<path d="M7.90045 36.1602C10.6505 39.8502 12.1005 44.2502 14.0205 48.3902H158.05L152.77 36.4002C153.32 36.4102 153.88 36.3502 154.42 36.4302L164.18 55.5702C164.55 56.8802 162.22 56.0802 161.53 56.0602C145.01 55.5102 127.74 55.9102 111.16 55.8202C80.6805 55.6502 49.6905 56.2202 19.3005 55.1002C17.5505 55.0402 15.7905 55.1602 14.0405 55.1202L5.98047 36.2802C6.54047 36.0502 7.29045 36.1702 7.90045 36.1602Z" fill="#FEFEFE"/>
<path d="M10.2997 214.37L13.8997 223.48H155.89L152.29 214.37L155.11 214.67C157.41 220.33 160.81 225.42 164.04 230.56C164.11 231.07 164 230.86 163.68 230.91C156.6 231.99 149.2 231.18 142.1 231.15C112.66 231.02 83.2497 230.41 53.8397 230.19C40.2097 230.09 26.5597 230.29 12.9297 230.2L12.8097 228.52L6.71966 214.7C6.61966 214.24 6.71968 214.41 7.04968 214.37C8.04968 214.25 9.24967 214.43 10.2897 214.37H10.2997Z" fill="#FEFEFE"/>
<path d="M9.57978 269.29L16.4198 282.48H158.29L152.53 270.97C153.31 271.04 154.12 270.88 154.9 271L165.25 290.15L16.2098 289.45L6.47978 269.4C6.41978 269.01 6.45978 269.02 6.82978 269.05C7.76978 269.12 8.54976 269.28 9.58976 269.29H9.57978Z" fill="#FEFEFE"/>
<path d="M151.81 155.36C152.67 155.38 153.55 155.29 154.4 155.41L165.6 174.79H14.7602L5.9802 156.19C5.9102 155.71 6.00021 155.88 6.33021 155.84C7.34021 155.71 8.74019 155.85 9.81019 155.84L14.4902 167.83H157.56L151.8 155.36H151.81Z" fill="#FEFEFE"/>
<path d="M7.42023 231.39L14.1402 245.78H157.81L152.53 233.07C153.31 233.09 154.11 233.01 154.89 233.11L165 252.26L14.5202 253C11.8402 245.74 7.69023 238.91 5.74023 231.4C6.30023 231.38 6.86023 231.41 7.42023 231.4V231.39Z" fill="#FEFEFE"/>
<path d="M151.81 135.46L152.29 135.94C155.42 141.97 159.88 147.56 163.8 153.09L157.7 152.96C144.36 152.67 130.57 153.2 117.17 153.22C82.8302 153.27 48.4802 153.16 14.1402 153.21C14.2802 151.58 13.3902 149.97 12.7402 148.49C11.0002 144.5 8.7002 140.43 6.7002 136.54C7.7902 136.17 8.92018 136.22 10.0602 136.18L15.9402 146.25H155.17L150.41 137.22L149.9 135.46C150.52 135.47 151.22 135.4 151.82 135.46H151.81Z" fill="#FEFEFE"/>
<path d="M6.70047 57.0301L11.7405 66.6201H156.85L152.77 58.2301C153.45 58.2601 154.27 58.0301 154.81 58.4701L165.01 73.3401L12.6005 73.6001L4.79047 57.15C4.53047 56.48 6.31048 57.0201 6.71048 57.0301H6.70047Z" fill="#FEFEFE"/>
<path d="M6.70004 18.6602C8.12004 21.3702 10.36 24.0002 11.76 26.6802C11.94 27.0302 12.04 27.3702 11.98 27.7702H156.37C155.14 24.7502 153.43 21.8902 152.77 18.6602L154.7 19.0102C158.13 24.1802 161.1 29.7402 165.24 34.3702C164.2 34.5402 163.05 34.5402 161.99 34.5002C151.52 34.0702 140.83 34.0602 130.35 34.0002C91.16 33.7702 51.99 34.1602 12.81 33.7702L4.54004 18.7802C5.21004 18.5502 5.99004 18.6702 6.70004 18.6602Z" fill="#FEFEFE"/>
<path d="M152.05 176.23C152.77 176.25 154.08 176.03 154.57 176.47C154.77 176.64 155.91 179.01 156.27 179.57C158.98 183.85 161.83 188.03 164.87 192.08C164.94 192.18 165.38 192.73 165.13 192.78L16.4199 192.06L8.86985 177.06C8.79985 176.58 8.88986 176.75 9.21986 176.71C9.82986 176.63 10.6199 176.71 11.2599 176.71L15.3398 186.54H157.57C155.93 183.01 153.14 180.03 152.05 176.23Z" fill="#FEFEFE"/>
<path d="M154.45 253.94L157.57 260.42H13.0596L10.0596 255.38C18.2396 254.88 25.9896 255 34.1696 254.91C71.5496 254.5 109.02 254.44 146.4 253.93C149.07 253.89 151.78 253.86 154.44 253.93L154.45 253.94Z" fill="#B7E6FD"/>
<path d="M10.7802 291.83L17.5002 303.1H159.97L154.45 291.83C155.24 291.84 156.04 291.79 156.82 291.86L159.68 297.99L165.48 307.9L15.2102 308.16L14.8302 308C12.4502 302.51 9.56023 297.17 6.23023 292.19C6.17023 291.7 6.25024 291.88 6.58024 291.83C7.82024 291.66 9.46022 291.89 10.7802 291.83Z" fill="#FEFEFE"/>
<path d="M97.3601 15.78L86.3301 5.22998H165.96L165.72 15.78C142.95 16.03 120.14 15.78 97.3601 15.78Z" fill="#45ACDF"/>
<path d="M6.70035 15.7801C5.42035 15.7801 4.14035 15.7801 2.86035 15.7801V2.83008H168.84V15.7801C167.8 15.7801 166.76 15.7701 165.72 15.7801L165.96 5.23007H86.3304L97.3604 15.7801C92.6504 15.7801 87.9204 15.7801 83.2104 15.7801C79.8004 12.5001 76.1503 9.25007 73.6203 5.23007H60.9103L72.4203 15.7801C68.5903 15.7801 64.7403 15.7801 60.9103 15.7801C57.9103 12.1901 54.3203 9.07008 51.6303 5.22008C42.9303 5.16008 34.2303 5.31007 25.5303 5.23007C24.9603 5.23007 24.4403 4.98008 23.8703 4.97008C18.1203 4.91008 12.3003 5.23008 6.59033 4.74008L6.71036 15.7801H6.70035Z" fill="#B7E6FD"/>
<path d="M10.0599 193.74L16.8999 208.13H160.69C157.9 203.89 155.06 199.6 153.01 194.94C153.6 194.96 154.34 194.76 154.81 195.18C158.15 201.24 161.72 207.22 165.96 212.69C163.84 212.65 161.71 212.75 159.59 212.7C116.34 211.64 72.88 212.6 29.61 211.96C25.18 211.89 20.7399 212.06 16.3199 211.94C13.5099 205.56 10.22 199.32 6.20996 193.62C7.47996 193.69 8.76996 193.69 10.05 193.74H10.0599Z" fill="#FEFEFE"/>
<path d="M6.70007 15.7802L6.58008 4.74023C12.2801 5.24023 18.1101 4.92023 23.8601 4.97023C24.4301 4.97023 24.9501 5.22022 25.5201 5.23022C34.2201 5.31022 42.9301 5.15023 51.6201 5.22023C54.3101 9.07023 57.9001 12.1802 60.9001 15.7802C42.8401 15.7802 24.7501 15.9202 6.69006 15.7802H6.70007Z" fill="#45ACDF"/>
<path d="M72.4202 15.78L60.9102 5.22998H73.6201C76.1601 9.24998 79.8002 12.51 83.2102 15.78C79.6202 15.78 76.0102 15.78 72.4202 15.78Z" fill="#45ACDF"/>
<path d="M151.81 135.46C151.96 135.47 152.12 135.41 152.27 135.48C152.36 135.62 152.25 135.86 152.29 135.94L151.81 135.46Z" fill="#B7E6FD"/>
</svg>
