<svg width="383" height="143" viewBox="0 0 383 143" fill="none" xmlns="http://www.w3.org/2000/svg">
<path d="M382.53 68.5957C381.5 61.7557 378.01 57.8357 371.57 55.5557C365.75 53.4957 358.44 51.8857 352.37 50.2757C349.58 49.5357 346.74 48.7857 343.92 48.2857C345.49 44.7257 347.48 40.6057 345.45 36.7957C343.99 34.0357 342.32 34.2857 339.84 33.5257C331.6 31.0057 323.21 28.9757 314.92 26.6557C314.86 25.9157 314.85 25.1457 314.88 24.4057C315.13 19.7157 316.16 14.9557 316.33 10.2557C316.37 9.15569 316.65 7.25569 315.19 7.04569C314.61 6.95569 314.28 7.44569 313.79 7.47569C311.42 7.65569 306.87 7.12569 304.19 7.01569C257.28 5.05569 210.5 2.37569 163.56 0.535686C161.59 0.455686 159.29 0.0856864 157.34 0.0356864C155.86 0.00568637 154.12 -0.0943103 152.74 0.26569C152.38 0.54569 152 3.53569 151.93 4.24569C151.41 9.10569 151.28 14.4257 150.96 19.3557C150.91 20.0257 151.22 22.7257 150.6 22.8457C146.79 21.2557 142.74 20.3257 138.73 19.3657C135.23 18.5257 125.85 16.0357 122.78 16.3757C122.43 16.4157 122.17 16.8157 121.85 16.7957C121.43 16.7757 119.48 15.9457 118.81 15.7657C97.2199 9.8857 75.3399 4.45569 52.9599 2.52569C50.3899 2.70569 46.8699 8.20569 45.7199 10.3557C44.0299 13.5257 42.7799 17.3857 42.1199 20.9157C41.3299 25.1757 40.9698 29.4057 42.0098 33.6457L23.6499 34.6057L8.87985 36.1557C7.99985 36.4357 7.24989 37.8157 6.92989 38.6457C2.69989 38.2157 1.87988 40.3357 1.03988 43.9157C0.51988 46.1157 0.139851 49.2057 0.00985058 51.4057C-0.0201494 51.8757 0.0298506 52.3657 0.00985058 52.8457V57.6457C0.269851 61.4457 2.20988 70.7157 5.03988 73.3757C5.92988 74.2057 7.33988 74.0757 8.53988 73.9757C9.45988 73.8957 11.0999 73.1857 11.6399 73.2457C12.2499 73.3057 13.7999 75.1657 14.5899 75.3657C15.3799 75.5557 15.6599 74.9257 15.7299 74.9257H26.6499C24.6299 78.8057 21.6399 82.7057 17.8399 84.9557C15.2999 86.4657 13.7499 86.6157 10.8099 86.2057L10.8399 86.8957C17.9499 89.5357 26.0299 90.8357 33.6099 90.2857V93.7657C34.9799 95.0057 36.8699 94.5057 38.5299 94.6057C49.3599 95.2857 60.5199 94.8957 71.4199 94.8557C95.3999 94.7757 119.45 93.9957 143.4 94.6157C154.78 94.9057 166.06 95.4557 177.48 95.5757C209.95 95.9157 242.44 95.2857 274.91 95.5757C277.24 96.9857 279.15 99.0357 281.31 100.706C284.03 102.796 286.97 104.606 289.66 106.746C293.46 109.786 294.81 111.826 297.16 116.046C301.05 123.016 303.77 130.546 307.1 137.786C309.49 140.536 312.69 142.626 316.43 142.856C320.7 143.116 324.94 141.096 324.49 136.236C324.22 133.316 322.81 130.816 321.49 128.196C320.4 126.046 319.04 124.016 318.05 121.806C318.52 118.866 319.99 115.276 320.34 112.426C320.56 110.616 320.57 110.586 319.18 109.626C314.9 106.676 310.52 104.516 306.27 101.186C304.15 99.5257 301.86 97.9257 300.48 95.5657H306.12C306.97 95.5657 307.3 93.6357 307.37 92.9757C307.62 90.9457 307.61 88.6357 307.68 86.5657L308.06 85.9857C321.64 89.5357 335.25 93.0657 348.66 97.1857C352.06 98.2257 355.69 99.8157 359.04 100.726C363.42 101.936 365.49 98.7157 366.9 95.1457C368.6 90.8457 369.52 85.7757 369.6 81.1657C371.13 81.5957 372.67 82.0157 374.21 82.4357C375.72 82.8357 376.25 83.5257 378.18 82.9057C383.09 81.3057 383.14 72.6757 382.53 68.5957ZM341.57 35.6357C346.47 37.1357 344.14 44.2657 342.99 47.6657C342.67 48.0957 341.89 47.6557 341.52 47.5657C341.31 47.5057 340.79 47.6957 340.8 47.4457C343.57 41.1657 340.03 38.2057 334.8 42.8857C334.29 43.3357 332.77 45.2957 332.47 45.3657C332.01 45.4757 331 45.0457 330.48 44.9257C330.12 44.8357 328.58 44.8357 328.8 44.3257C331.93 41.2157 336.36 34.0357 341.57 35.6357ZM340.1 46.9857C339.44 47.4457 335.16 45.8957 334.08 45.8857C333.84 45.6157 335.7 43.8457 336 43.6057C340.31 40.0357 341.73 42.2257 340.1 46.9857ZM314.64 28.3657C314.68 28.2457 314.61 28.0357 314.64 27.8857L337.68 33.8857C337.79 34.5157 337.59 34.2557 337.34 34.3857C334.68 35.7457 333.23 36.8157 331.19 39.0357C329.91 40.4457 328.3 42.3157 327.82 44.1757C327.21 44.4157 326.66 44.0557 326.16 43.9657C320.87 43.0257 315.68 41.4357 310.32 40.8457L309.84 30.2857C310.94 29.9457 312.58 30.9957 313.51 30.7257C314.32 30.4957 314.4 29.0757 314.64 28.3657ZM310.32 42.2857L315.36 43.0057L313.92 44.4457L309.84 51.8857C309.92 49.1657 310.18 46.4457 310.32 43.7257C310.35 43.2457 310.3 42.7657 310.32 42.2857ZM315.36 44.6857C315.54 44.4157 316.06 43.2557 316.24 43.2257C317.19 43.3457 318.06 43.6857 318.96 43.9657C319.16 44.0257 319.62 43.8157 319.68 44.0857C314.55 49.2957 311.87 56.4157 309.36 63.1657C308.94 63.1657 309.09 62.1157 309.11 61.8357C309.21 60.3657 309.23 58.6957 309.36 57.2857C309.62 54.7057 313.78 47.0757 315.36 44.6857ZM153.36 2.44569L313.44 9.64569C313.49 10.6157 313.28 11.5657 313.2 12.5257C312.78 17.6457 312.18 22.7657 311.76 27.8857L291.12 27.6457L296.65 22.7357C297.19 21.8457 297 21.8557 296.4 21.6457C294.53 22.8057 292.75 24.1557 291.01 25.4957C289.01 27.0257 289.34 27.7757 286.42 27.6557C286.11 27.6457 285.87 27.4057 285.84 27.4057C284.65 27.3557 283.42 27.5357 282.24 27.2857L289.82 21.1857C290.34 20.6557 290.3 20.3557 289.68 19.9657L279.83 27.2757C279.07 27.5257 278.23 27.3957 277.44 27.4057C276.77 27.4157 276.08 27.4157 275.4 27.4057L273.12 26.9257L281.9 20.2157L282.24 19.3657C281.8 18.7257 281.5 19.1157 281.04 19.2457L269.87 27.1557C269.27 27.2057 268.68 27.1457 268.08 27.1657C265.99 27.2357 263.92 27.0157 261.84 26.8057L271.68 17.2057C271.5 16.3357 271.2 16.7057 270.72 16.8457C270 17.7357 269.17 18.5857 268.33 19.3657C265.52 21.9757 262.42 24.4357 259.55 26.9157H258.24L239.04 26.4457C239.52 25.4357 243.12 23.3557 243.34 22.6757C243.47 22.2457 243.31 22.3057 243.12 22.1257C242.55 22.2457 242.02 22.7357 241.57 23.0957C240.7 23.7857 238.6 25.9757 237.84 26.3257C237.24 26.5957 236.15 26.4257 235.44 26.4457C233.19 26.5057 230.96 26.3757 228.72 26.2057C229.25 25.1157 234.1 21.1757 234.24 20.5557C234.35 20.0657 233.81 20.0557 233.52 19.9657L227.23 26.1557C226.38 26.2757 225.5 26.1857 224.64 26.2057C222.23 26.2457 219.85 26.1657 217.44 25.9657C217.94 25.0557 221.93 21.8057 221.77 21.0557C221.4 20.4057 221 20.9357 220.8 20.9257L215.28 25.8457C214.82 26.0757 214.32 25.9357 213.84 25.9657C213.01 26.0157 208.1 26.0757 207.84 25.7257C209.04 24.0657 211.95 21.7457 212.75 19.9557C212.9 19.6357 212.92 19.3457 212.88 19.0057C212.72 18.8157 211.87 19.5557 211.68 19.7257C209.7 21.5057 207.8 23.8657 205.68 25.6057C205.09 25.8657 204.19 25.7057 203.52 25.7257C202.59 25.7557 201.57 25.8057 200.65 25.6057L211.68 14.0857C211.49 13.0757 210.91 13.7157 210.24 13.9657C206.35 18.0157 201.84 21.4757 198.08 25.6757L183.37 25.2457C183.43 24.6357 184.09 24.3457 184.32 24.0457C185.55 22.4857 189.35 18.6157 189.96 17.3157C190.07 17.0757 190.13 16.8857 190.08 16.6057C189.82 16.5357 189.53 16.8257 189.36 16.8457C186.8 19.7057 183.82 22.0857 181.53 25.2057L152.88 25.0057L153.36 2.44569ZM145.69 22.8457C143 27.3757 138.44 30.8457 135.45 35.0457C135.24 35.3357 135.15 35.9657 135.09 36.0057C134.88 36.1957 133.2 35.9557 132.73 36.0457L143.83 22.9157L145.69 22.8457ZM143.04 36.7657H142.33C142.24 35.5657 142.45 34.2257 142.33 33.0457C142.24 32.2457 141.89 31.0757 141.45 30.4057L142.57 28.6057C142.98 28.7457 143.18 29.8657 143.22 30.2257C143.49 32.4357 142.9 34.5557 143.04 36.7657ZM141.37 36.5257L136.33 36.2857C136.01 35.9957 138.78 33.5157 139.09 33.1657C139.74 32.4457 140.36 31.5157 141.01 30.7657L141.37 36.5257ZM143.04 22.3657C143.14 22.9057 142.6 23.0057 142.33 23.3257C139.83 26.2157 136.79 28.6057 134.42 31.6157C133.56 32.6957 131.81 34.4657 132.49 35.8057H131.29C131.34 35.1257 131.45 34.5057 131.77 33.8857L133.21 20.4457L143.04 22.3657ZM123.36 30.1657C123.29 26.5357 123.16 23.1557 123.37 19.4857C123.37 19.2157 123.24 18.5657 123.5 18.5257L128.18 19.3957C127.58 23.8657 127.09 28.1557 127.21 32.6857C127.23 33.5257 127.09 34.3757 127.43 35.1857C128.09 35.6857 128.41 34.9657 128.54 34.3857C128.62 34.0657 128.89 32.5257 128.89 32.3257V25.6057C128.89 24.2057 129.25 22.5457 129.13 20.9257C129.1 20.5857 128.69 19.9957 128.89 19.4857L132.49 19.9657C132.45 20.4557 132.33 20.9257 132.25 21.4057C131.4 26.1957 129.97 30.9057 129.85 35.8057L123.13 35.3257C123.38 33.6057 123.4 31.9057 123.36 30.1657ZM121.92 35.3257C120.12 35.0957 118.22 34.9457 116.41 34.8457C94.1899 33.6057 71.7399 32.5557 49.4499 33.1657C48.7599 33.1857 48.1999 33.3057 47.5299 33.4057C47.7899 29.3257 48.6699 25.4057 50.2999 21.6557C50.7999 20.4857 53.6599 14.9557 54.8399 14.9257C55.2199 14.9257 59.7499 17.1657 60.6599 17.5057C68.4799 20.4857 77.6099 22.0257 85.7899 24.0657C96.1699 26.6557 106.48 29.6657 117.08 31.4157C118.46 31.6457 120.12 31.9957 121.44 31.7257L121.92 35.3257ZM43.4799 24.1957C44.1399 18.6157 47.1599 8.91569 51.8399 5.44569C52.8699 4.67569 53.3699 4.80569 54.6099 4.84569C57.2299 4.94569 60.7899 5.47569 63.4899 5.80569C83.1799 8.21569 102.19 14.1957 121.69 17.5657C121.38 19.0757 121.46 20.5957 121.45 22.1257C121.41 25.0857 121.47 28.0457 121.44 31.0057C110.17 29.3957 99.2098 26.1057 88.1898 23.3457C80.9298 21.5257 73.3598 20.0157 66.1999 17.9757C62.2399 16.8457 58.4899 15.2257 54.6199 13.9557C51.9499 15.8457 49.9399 18.6457 48.6199 21.6557C47.0099 25.3057 45.9998 29.4257 46.5698 33.4057H43.4499C43.4699 32.4457 43.4199 31.4857 43.4499 30.5257C42.9199 28.5257 43.2499 26.2157 43.4799 24.1957ZM6.4999 72.9957C4.4799 68.9557 2.76985 64.9257 2.19985 60.3757C1.61985 55.7257 1.73985 48.7757 2.75985 44.1957C3.27985 41.8757 3.6199 39.8557 6.3699 39.6557C3.4799 50.3157 2.2099 63.8657 10.8099 72.2857L6.4999 72.9957ZM33.8599 82.7357C33.8099 84.3257 33.7099 86.0457 33.6099 87.6457C33.5899 87.9657 33.6299 88.2857 33.6099 88.6057C28.8499 88.7057 24.0599 88.3957 19.3699 87.6057C18.8999 87.5257 17.4499 87.4257 17.2899 87.0457C21.1499 85.4157 24.3799 82.2257 26.2599 78.4957C26.5499 77.9057 27.5099 75.0157 27.8499 74.9257L33.8499 74.6857C33.7799 77.3657 33.9399 80.0557 33.8599 82.7357ZM34.5698 48.6457C34.4798 56.0357 34.2599 63.4357 34.0899 70.8457C34.0799 71.4057 34.0999 71.9657 34.0899 72.5257C31.7899 72.1957 29.3499 72.6357 27.0199 72.7757C25.8399 72.8457 24.5899 72.6757 23.4099 72.7757C20.7499 72.9957 18.1399 73.6257 15.4999 73.9757C12.5299 71.5957 9.3599 68.6957 7.8099 65.0957C5.7199 60.2057 5.71987 53.9057 6.27987 48.6857C6.48987 46.6757 7.80988 38.4757 9.78988 37.7957C14.4699 37.2057 19.1799 36.6457 23.8899 36.2957C59.9299 33.6557 95.8999 35.0657 131.88 37.4957C138.64 37.9557 145.46 38.4657 152.16 39.2957C151.37 40.4657 150.23 41.1357 149.29 42.0557C148.62 42.6957 148.24 43.0557 147.94 43.9857C134.18 44.1057 120.43 44.0657 106.68 44.2057C90.5499 44.3757 74.3399 44.7757 58.2199 44.9457C51.6099 45.0157 44.5699 44.5657 38.0399 44.9257C37.3499 44.9657 34.5599 45.1957 34.3099 45.5757C33.5599 46.7457 34.7599 47.0757 34.7899 47.6757C34.8099 47.9557 34.5698 48.3257 34.5698 48.6557V48.6457ZM103.7 74.5757C103.64 75.6657 103.05 80.8057 102.25 81.2857C100.67 81.5457 99.0398 81.3457 97.4499 81.4057C96.8099 81.4257 96.1599 81.3757 95.5299 81.4057C94.6599 81.4457 89.5099 82.1057 89.2899 81.8857C89.1999 77.9357 89.3999 73.9557 89.2999 69.9957C89.1199 62.6957 88.7098 55.3357 88.5698 48.0457C88.5698 47.7257 88.5698 47.4057 88.5698 47.0857L104.03 46.8457C104.5 46.9057 103.93 48.1257 103.93 48.2857C103.86 56.8357 104.18 66.0257 103.7 74.5757ZM87.8499 47.0857L87.4699 48.7757C76.4399 48.5957 65.4099 48.4457 54.3599 48.5157L36.7299 49.7257V47.5657L87.8499 47.0857ZM152.65 52.6057C149.6 65.4157 146.26 78.2257 142.86 90.9457C142.78 91.2757 142.82 91.6357 142.8 91.9657C140.51 92.0257 138.27 92.1957 135.97 92.2057C119.3 92.2357 102.34 92.3757 85.5799 92.4557C70.0999 92.5357 54.0399 91.8357 38.6499 92.4557C37.9699 92.4857 36.8798 92.9357 36.0098 92.6957L36.7299 50.4557C39.4799 50.3957 42.2599 50.5257 45.0199 50.4557C52.6099 50.2857 59.6898 50.1157 67.3198 50.2157C73.9998 50.3057 80.6899 50.3457 87.3699 50.4457C87.4599 54.4757 87.2499 58.5357 87.3599 62.5757C87.4099 64.6157 87.7999 67.0057 87.8599 69.0357C87.9599 73.0757 87.4499 77.8657 87.8499 81.7657C87.9399 82.6257 87.9899 83.2257 88.9099 83.3357C91.1099 83.6057 94.9499 82.9957 97.3699 82.9357C99.6599 82.8757 102.67 83.9657 104.06 81.4157C105.56 78.6757 105.53 71.3957 105.62 68.0957C105.77 62.1457 105.5 56.1457 105.61 50.2057L153.13 49.9657C153.23 50.0757 152.74 52.2157 152.65 52.6057ZM153.46 48.7857L145.82 48.2757C132.39 48.3857 118.94 47.8757 105.61 49.4857V46.8457L154.32 45.8857L153.46 48.7857ZM154.95 38.6657C153.84 38.5157 152.63 38.0057 151.49 37.7957C149.01 37.3457 146.5 37.1257 144 36.7657L144.37 35.5657L155.76 38.2057C155.91 38.8857 155.45 38.7257 154.95 38.6657ZM155.76 36.5257C155.55 36.7557 151.37 35.4457 150.73 35.3257C148.6 34.9357 146.41 34.7657 144.24 34.8457C144.19 33.4557 144.33 32.0357 144.24 30.6457C144.18 29.6457 143.6 28.3157 143.81 27.3457C144.02 26.3957 145.89 24.4257 146.16 23.1957C146.57 22.9457 147.35 23.2557 147.85 23.3257C148.8 23.4657 149.73 23.8657 150.72 23.8057C150.71 24.3357 150.56 26.6857 151.33 26.6857H156.13C156.21 26.6857 156.51 26.9457 156.7 26.9557L155.76 36.5257ZM289.7 105.266C285.31 102.226 281.17 98.7157 276.72 95.8057C276.86 95.3557 278 95.5757 278.4 95.5657C279.41 95.5557 284.42 95.4057 284.88 95.6857L290.64 105.406C290.49 105.936 289.93 105.426 289.7 105.266ZM321.71 139.716C321.49 139.946 321.19 139.906 321.12 139.966C317.51 142.856 311.75 140.786 308.53 138.036C303.03 123.056 295.73 108.656 286.08 95.9257C286 95.4057 286.22 95.5957 286.56 95.5657C287.46 95.4757 289.22 95.3257 289.8 96.0557C295.48 105.766 301.09 115.546 306.52 125.406C308.08 128.236 309.93 133.006 311.66 135.386C313.38 137.756 317.67 138.606 319.44 136.006C317.91 135.076 317.32 133.236 316.56 131.686C317.05 131.406 317.85 131.866 318.33 132.086C321.17 133.356 324.55 136.706 321.71 139.716ZM314.64 131.186L317.52 135.886C316.91 135.866 316.42 136.126 315.79 136.076C312.96 135.866 310.12 131.206 314.64 131.186ZM305.78 102.146C307.68 103.246 309.8 105.236 311.73 106.516C314.21 108.156 316.89 109.466 319.33 111.166L317.28 120.526C316.83 120.546 316.94 119.806 316.8 119.566C313.95 114.676 310.5 110.086 307.68 105.166C306.69 104.196 306.3 103.246 305.41 102.276C305.02 101.936 305.61 102.046 305.78 102.146ZM319.2 128.926C319.45 129.406 320.43 130.176 320.28 131.076C317.36 129.366 313.46 128.346 310.8 131.076C309.78 128.636 308.52 126.276 307.24 123.956C301.97 114.346 296.68 104.656 290.4 95.6757C290.77 95.4457 291.4 95.5657 291.84 95.5557C293.82 95.5157 296.83 95.3157 298.7 95.5457C298.96 95.5757 299.22 95.5457 299.41 95.7957C306.15 106.786 313.36 117.406 319.2 128.916V128.926ZM306.72 57.0457L305.76 73.9657C305.85 79.5157 304.96 85.3957 304.8 91.0057C304.79 91.4057 304.92 93.1357 304.66 93.1657L158.65 92.6857L157.48 92.6557C157.27 92.2557 157.23 91.8157 157.19 91.3757C156.78 85.7657 157.41 79.9257 157.46 74.3357C157.54 63.9757 157.3 53.6057 157.45 43.2457C157.49 40.1357 157.92 36.8757 157.94 33.7757C157.95 31.4857 157.54 29.2257 157.68 26.9257C158.4 26.9157 159.13 26.9357 159.85 26.9257C164.56 26.8257 169.4 27.3057 174.12 27.4157C215.12 28.3757 256.31 28.7057 297.36 29.8057C297.84 29.8157 298.32 29.7957 298.8 29.8057C299.92 29.8357 301.05 29.7757 302.16 29.8057C303.73 29.8457 305.36 30.0057 306.96 30.0457C307.6 30.0657 308.25 30.0357 308.88 30.0457C308.06 39.0257 307.8 48.0757 306.72 57.0457ZM353.21 97.1957C351.74 96.8657 349.96 95.9757 348.42 95.5057C335.09 91.3757 321.65 87.5557 308.08 84.2957C307.79 84.1957 307.92 83.8057 307.92 83.5657C308 79.6557 308.62 75.6057 308.88 71.6857C308.98 70.1257 308.72 68.5457 308.99 66.9957C309.37 64.7557 312.09 59.1057 313.16 56.7657C315.18 52.3457 317.39 47.9557 320.56 44.2357C323.4 44.7757 326.22 45.5057 329.04 46.1257C341.19 48.8057 353.26 51.8257 365.28 55.0057C365.38 55.6257 365.23 55.3857 364.94 55.5057C361.96 56.8557 360.38 57.3157 357.96 59.8057C350.7 67.2457 347.79 80.5857 350.4 90.5257C350.83 92.1757 352.02 93.9257 352.56 95.5657C353.03 95.8757 354.53 97.4957 353.21 97.1957ZM357.42 74.8657C355.92 78.5657 355.17 82.7057 355.68 86.6857C355.83 87.0057 356.58 88.4257 356.4 88.6057L351.83 87.2957C350.51 80.5557 351.73 72.7257 355.2 66.7657C355.42 66.3957 355.58 65.9957 355.7 65.5857L362.88 67.8457C360.16 69.1157 358.51 72.1657 357.42 74.8657ZM357.6 78.5257L361.68 79.7257C361.64 78.9857 361.86 78.4457 362.16 77.8057C362.67 76.7057 363.09 76.3657 363.95 77.5757C365.31 79.5057 364.63 84.7557 363.64 86.8457C362.23 89.8557 359.07 90.9657 357.56 87.3357C357.19 86.4457 357.24 86.1057 357.12 85.2457C356.78 82.8457 357.17 80.8957 357.6 78.5257ZM366.84 91.9657C365.65 95.7357 363.82 101.126 358.79 98.8157C355.66 97.3757 352.49 92.8357 352.09 89.4357C352.03 88.8857 352.66 89.0257 353.04 89.0857C354.14 89.2557 356.24 89.8357 357.36 90.1657C358.05 90.3757 358.73 90.9857 359.51 91.1457C365.78 92.4057 368.21 79.9757 365.1 76.1857C364.14 75.0057 361.04 73.8757 359.52 73.4857C359.77 72.7357 360.28 72.1857 360.72 71.5657C364.22 66.5857 367.5 69.0357 368.34 74.1557C369.25 79.7557 368.54 86.5657 366.84 91.9657ZM373.2 80.9257C372.93 81.1957 371.76 80.2957 371.52 80.2057C371.19 80.0857 369.66 79.8357 369.59 79.5757C369.72 77.0457 369.36 74.5257 368.88 72.0457C370.37 72.3957 371.96 72.4957 373.44 72.7657C373.65 72.8057 374.41 72.9557 374.41 73.1357C372.99 75.5557 372.14 78.1657 373.2 80.9257Z" fill="#070706"/>
<path d="M298.8 29.8057C299.6 30.2057 301.31 30.2157 302.16 29.8057C303.73 29.8457 305.35 30.0057 306.96 30.0457L306.49 32.5757C299.44 38.8657 292.61 45.4857 286.8 52.9657C286.71 53.2757 286.85 53.4357 287.15 53.3157C287.77 53.0757 292.14 48.9757 293.04 48.1657C297.71 43.9157 302.04 39.3157 306.47 34.8457L306.11 41.0857C302.72 44.4957 299.18 47.8957 296.63 52.0057C296.87 52.4057 297.16 51.9257 297.35 51.7657C300.47 49.1957 303.1 46.0557 305.99 43.2457C305.72 51.5457 305.07 59.7757 305.26 68.0957C305.3 69.9157 305.72 72.2357 305.75 73.9657C305.84 79.5157 304.94 85.3957 304.79 91.0057H247.43C249.93 88.0457 252.71 85.2957 255.1 82.2357C255.9 81.2157 257.4 79.4257 257.95 78.3657C258.09 78.0957 258.46 77.5657 258.11 77.3257L244.43 91.0057H239.51L255.11 72.1757L254.51 71.8157C248.34 77.9757 242.54 84.4957 236.75 91.0157H230.39C230.5 90.7157 230.68 90.4257 230.87 90.1757C232.88 87.5557 236.1 84.8557 237.93 82.1257C238.6 81.1257 238.47 80.5157 237.21 81.1657L227.14 91.0157L193.43 90.7757L201.35 80.3457C200.98 79.8157 200.54 79.8757 200.14 80.3257C197.23 83.9157 193.39 86.7557 191.03 90.7757H185.75C188.81 86.6857 192.2 82.8557 195.07 78.6157C195.63 77.7857 196.84 76.2457 197.17 75.4357C197.62 74.3257 196.8 74.5757 196.22 75.2057C194.39 77.1557 192.57 79.9057 190.79 82.0157C188.43 84.8357 185.52 87.5457 183.84 90.7857H160.08V66.9057C163.68 62.2957 167.83 57.8357 171.21 53.0757C171.57 52.5657 172.44 51.6757 172.32 51.0657C172.24 50.6857 172.03 50.7357 171.72 50.9357C171.05 51.3757 169.61 53.0057 168.95 53.6857C165.9 56.8357 163.2 60.3357 160.08 63.4157V59.2157L173.28 42.4157C173.51 41.1357 171.51 43.1957 171.35 43.3657C167.4 47.4657 163.96 52.0457 160.08 56.2157C160.04 49.4957 160.13 42.7757 160.08 36.0557L297.36 29.8157C297.84 29.8257 298.32 29.8057 298.8 29.8157V29.8057ZM207.63 38.9557C207.18 41.0157 205.83 44.3857 206.45 46.4357C206.71 47.2957 209.54 47.6557 210.39 47.7757C212.13 48.0157 214.36 48.2157 216.11 48.2957C226.76 48.7757 238.35 48.6557 248.99 48.2757C250.95 48.2057 253.04 48.4357 254.97 48.2557C255.81 48.1757 258.31 47.7657 259.04 47.5257C259.37 47.4157 259.38 47.2757 259.44 46.9657C259.82 44.9557 259.04 42.1357 259.61 40.0357C259.58 39.7857 259.29 39.2857 259.1 39.1457C258.65 38.8357 254.46 38.4757 253.57 38.4357C240.94 37.8257 227.83 38.9257 215.15 38.4357L207.63 38.9557Z" fill="#F38328"/>
<path d="M38.6497 92.4455L38.4097 51.8855C45.9597 52.9855 53.6097 51.8655 61.2097 52.1255C55.9097 58.9255 50.7197 65.8855 46.2297 73.2655C45.5897 74.3255 44.6797 75.6455 44.1597 76.7155C44.0497 76.9455 43.6997 77.3855 44.0497 77.5655C44.4697 77.5955 44.6297 77.1855 44.8497 76.9255C49.0397 71.9755 53.6197 65.5755 57.4597 60.2555C59.3797 57.5955 61.1196 54.8055 63.0096 52.1255H69.6097C69.7097 52.5455 69.4397 52.6055 69.2497 52.8455C66.7697 56.0855 63.8897 58.8455 61.4897 62.3655C60.2497 64.1855 58.7497 66.3755 58.0897 68.4455C63.0397 63.6455 67.1897 57.9955 71.1697 52.3655H85.3297C85.4197 52.3655 85.6997 52.6755 85.9297 52.6155C85.4497 55.8755 85.7496 59.2655 85.6996 62.5755C85.5996 68.6055 85.7996 73.8855 85.9396 79.8555C85.9796 81.6355 84.9196 83.5955 87.4396 84.5755C89.9596 85.5555 97.8196 85.0455 100.69 84.7655C101.94 84.6455 105.36 84.3055 106.1 83.4555C108.01 81.2355 107.58 76.4255 107.55 73.5955C107.55 72.9155 107.3 72.3255 107.29 71.6955C107.22 65.0155 107.53 58.3055 107.06 51.6455C112.06 52.7755 117.21 52.2355 122.31 52.3555C122.88 52.3655 123.4 52.6055 123.97 52.6155C127.46 52.6955 130.95 52.4255 134.42 52.8455C132 55.8755 129.84 59.1555 127.9 62.5255C127.27 63.6255 122.91 71.5255 123.38 72.0455C123.83 72.1355 123.96 71.8255 124.2 71.5455C125.17 70.4255 126.29 68.5955 127.17 67.3155C130.47 62.5755 133.28 57.5055 136.69 52.8355H142.57C140.22 55.8855 137.79 58.9955 135.9 62.3655C135.37 63.3155 134.16 65.4555 133.95 66.4155C133.88 66.7355 133.99 66.8855 134.29 66.7555C134.91 66.4855 137.28 63.4055 137.87 62.6555C140.31 59.5555 142.47 56.1955 144.74 52.9655L152.66 52.6055C149.62 65.4155 146.27 78.2255 142.88 90.9455C142.79 91.2755 142.83 91.6255 142.82 91.9555C140.52 92.0155 138.28 92.1855 135.98 92.1955C119.31 92.2255 102.35 92.3655 85.5897 92.4455C70.1097 92.5255 54.0497 91.8255 38.6597 92.4355L38.6497 92.4455Z" fill="#EAAC70"/>
<path d="M313.2 12.5257C312.78 17.6457 312.18 22.7657 311.76 27.8857L291.12 27.6457L296.65 22.7457C297.19 21.8557 297 21.8657 296.4 21.6557C296.27 21.6157 296.29 21.4657 295.93 21.5057C293.82 21.7457 288.33 24.7557 286.69 26.2157C286.31 26.5457 285.88 26.8357 285.84 27.4057C284.65 27.3557 283.41 27.5357 282.24 27.2857L289.81 21.1857C290.34 20.6557 290.29 20.3557 289.67 19.9657C289.11 19.6157 289.15 19.6957 288.54 19.9157C286.54 20.6157 279.55 24.6157 278.14 26.0757C277.77 26.4657 277.48 26.8457 277.43 27.4057C276.75 27.4057 276.07 27.4157 275.39 27.4057L273.11 26.9357L281.88 20.2257L282.23 19.3757C281.79 18.7257 281.49 19.1157 281.03 19.2557C278.98 19.8457 270.05 24.7457 268.67 26.2157C268.39 26.5057 268.07 26.7157 268.07 27.1757C265.97 27.2457 263.91 27.0257 261.83 26.8157L271.67 17.2157C271.49 16.3457 271.19 16.7157 270.71 16.8557C268 17.6657 265.09 20.7857 262.9 22.6057C261.69 23.6157 259.7 24.8157 258.69 25.8457C258.36 26.1857 258.16 26.4157 258.22 26.9357L239.02 26.4557C239.5 25.4457 243.1 23.3657 243.31 22.6957C243.45 22.2657 243.28 22.3257 243.1 22.1457C242.58 21.6457 242.18 22.0157 241.65 22.2557C239.62 23.1857 237.29 25.1657 235.42 26.4657C233.17 26.5257 230.94 26.3957 228.7 26.2257C229.23 25.1357 234.08 21.1957 234.22 20.5757C234.33 20.0857 233.79 20.0757 233.5 19.9857C233.48 19.9857 233.44 19.8257 233.25 19.8557C232.56 19.9557 225.95 24.5257 225.22 25.2657C224.93 25.5557 224.63 25.7757 224.63 26.2357C222.21 26.2757 219.83 26.1957 217.43 25.9957C217.93 25.0957 221.91 21.8357 221.75 21.0857C221.38 20.4357 220.99 20.9757 220.79 20.9557C220.7 20.9557 220.52 20.6157 220.02 20.7457C219.38 20.9257 215.27 23.9357 214.66 24.5357C214.24 24.9557 213.88 25.3557 213.83 25.9857C212.99 26.0357 208.09 26.0957 207.83 25.7457C209.03 24.0857 211.93 21.7657 212.74 19.9757C212.89 19.6557 212.9 19.3657 212.87 19.0257C212.71 18.8357 211.86 19.5757 211.67 19.7457C209.51 20.8057 206.84 22.1957 204.97 23.7257C204.39 24.1957 203.45 24.9157 203.51 25.7457C202.57 25.7757 201.55 25.8257 200.63 25.6257L211.67 14.1057C211.48 13.0957 210.9 13.7457 210.23 13.9857C205.42 15.7857 199.34 20.8157 195.33 24.1757C195.05 24.4157 194.91 24.9857 194.7 25.0357L184.31 24.0657C185.54 22.5057 189.33 18.6357 189.94 17.3357C190.06 17.0857 190.11 16.8957 190.06 16.6257C189.8 16.5557 189.51 16.8457 189.34 16.8657C188.24 16.9757 188.01 17.1257 186.96 17.7257C183.92 19.4557 181.34 21.9357 178.42 23.8257C170.39 23.6657 162.36 23.5057 154.31 23.5857C154.8 21.8957 155.09 20.1757 155.27 18.4257C155.7 14.1757 155.35 9.74568 156.13 5.57568L313.19 12.5457L313.2 12.5257Z" fill="#FBBC3D"/>
<path d="M149.29 42.0455C148.63 42.6855 148.25 43.0455 147.94 43.9755C134.19 44.0855 120.43 44.0455 106.68 44.1955C90.5497 44.3655 74.3497 44.7555 58.2197 44.9355C51.6097 45.0055 44.5697 44.5555 38.0397 44.9155C37.3497 44.9555 34.5597 45.1855 34.3097 45.5655C33.5597 46.7355 34.7597 47.0655 34.7897 47.6655C34.8097 47.9455 34.5696 48.3155 34.5696 48.6455C34.4796 56.0355 34.2597 63.4355 34.0897 70.8455C28.8897 70.1555 23.5796 70.8955 18.3796 71.3255C17.6996 71.1955 16.7496 69.4755 16.3296 68.8155C10.9796 60.4655 11.3396 50.8855 14.3996 41.7255C21.6096 40.3255 29.0296 38.7655 36.3796 37.9655C47.5196 36.7655 58.3497 37.0655 69.4997 37.2455C88.8297 37.5655 108.05 38.6155 127.34 40.1255C134.66 40.6955 141.96 41.7555 149.3 42.0455H149.29Z" fill="#B7E6FD"/>
<path d="M329.04 46.1257C341.19 48.8057 353.25 51.8257 365.28 55.0057C365.38 55.6157 365.23 55.3757 364.94 55.5057C361.96 56.8557 360.38 57.3157 357.95 59.7957C350.69 67.2357 347.78 80.5757 350.39 90.5157C338.04 86.2257 326.03 80.4757 313.19 77.7957C312.45 77.0957 315.5 66.5657 316.06 64.9557C318.54 57.7857 322.46 50.2557 329.02 46.1157L329.04 46.1257Z" fill="#FEFEFE"/>
<path d="M121.45 22.1256C121.42 25.0856 121.47 28.0456 121.45 31.0056C110.18 29.3956 99.2098 26.1056 88.1898 23.3456C80.9298 21.5256 73.3598 20.0156 66.1998 17.9756C62.2398 16.8456 58.4898 15.2156 54.6298 13.9556C51.9598 15.8456 49.9498 18.6356 48.6198 21.6556C47.0098 25.3056 45.9998 29.4256 46.5698 33.4056H43.4498C43.4698 32.4456 43.4198 31.4756 43.4498 30.5256C43.5998 25.8956 45.2098 19.7056 47.3998 15.6356C48.6098 13.3856 52.2098 8.25562 54.8998 8.01562C66.5698 10.1556 78.0498 13.2156 89.7198 15.3256C97.3198 16.7056 105.34 17.4256 112.85 19.0756C115.69 19.6956 119.04 20.5456 121.45 22.1156V22.1256Z" fill="#FEFEFE"/>
<path d="M297.36 29.8057L160.08 36.0457C160.06 32.9957 160.13 29.9657 159.84 26.9257C164.56 26.8257 169.4 27.3057 174.11 27.4157C215.12 28.3757 256.3 28.7057 297.36 29.8057Z" fill="#DC611B"/>
<path d="M34.0901 70.8459C34.0801 71.4059 34.1001 71.9659 34.0901 72.5259C31.7901 72.1959 29.3501 72.6359 27.0201 72.7759C25.8401 72.8459 24.5901 72.6759 23.4101 72.7759C20.7501 72.9959 18.1401 73.6159 15.5001 73.9759C12.5301 71.5959 9.36013 68.6959 7.81013 65.0859C5.71013 60.2059 5.7201 53.9059 6.2801 48.6859C6.5001 46.6759 7.81011 38.4659 9.79011 37.7959C14.4701 37.2059 19.1901 36.6459 23.8901 36.2959C59.9301 33.6559 95.9001 35.0659 131.88 37.4959C138.64 37.9559 145.46 38.4659 152.16 39.2959C151.37 40.4659 150.23 41.1459 149.28 42.0559C141.94 41.7659 134.64 40.7159 127.32 40.1359C108.03 38.6259 88.8101 37.5759 69.4801 37.2559C58.3401 37.0659 47.5001 36.7759 36.3601 37.9759C29.0101 38.7659 21.5901 40.3359 14.3801 41.7359C11.3201 50.8959 10.9701 60.4659 16.3101 68.8259C16.7301 69.4859 17.6801 71.2059 18.3601 71.3359C23.5701 70.9059 28.8701 70.1759 34.0701 70.8559L34.0901 70.8459Z" fill="#FEFEFE"/>
<path d="M159.85 26.9258C160.14 29.9658 160.07 32.9958 160.09 36.0458C160.14 42.7658 160.05 49.4858 160.09 56.2057C163.97 52.0357 167.41 47.4658 171.36 43.3558C171.52 43.1858 173.52 41.1258 173.29 42.4058L160.09 59.2057V63.4058C163.22 60.3358 165.91 56.8258 168.96 53.6758C169.62 52.9958 171.06 51.3558 171.73 50.9258C172.04 50.7257 172.25 50.6658 172.33 51.0558C172.46 51.6658 171.59 52.5557 171.22 53.0658C167.83 57.8158 163.68 62.2758 160.09 66.8958V90.7758H183.85C185.53 87.5358 188.44 84.8258 190.8 82.0058C192.57 79.8958 194.4 77.1358 196.23 75.1958C196.82 74.5758 197.63 74.3158 197.18 75.4258C196.85 76.2458 195.64 77.7758 195.08 78.6058C192.22 82.8458 188.82 86.6858 185.76 90.7658H191.04C193.4 86.7458 197.24 83.9058 200.15 80.3158C200.56 79.8657 201 79.8058 201.36 80.3358L193.44 90.7658L227.15 91.0058L237.22 81.1558C238.48 80.5058 238.61 81.1158 237.94 82.1158C236.11 84.8458 232.89 87.5558 230.88 90.1658C230.69 90.4158 230.51 90.7058 230.4 91.0058H236.76C242.55 84.4858 248.35 77.9658 254.52 71.8058L255.12 72.1658L239.52 90.9958H244.44L258.12 77.3158C258.47 77.5558 258.1 78.0958 257.96 78.3558C257.42 79.4258 255.91 81.2058 255.11 82.2258C252.72 85.2758 249.94 88.0357 247.44 90.9857H304.8C304.79 91.3857 304.92 93.1158 304.66 93.1558L158.64 92.6758C158.27 91.1357 159.31 89.7358 159.54 88.4158C159.86 86.6358 158.84 82.8558 158.64 80.7858C157.64 70.3158 157.99 59.4157 157.67 48.8757C157.61 47.0357 157.93 44.9758 157.44 43.2258C157.48 40.1158 157.92 36.8558 157.93 33.7558C157.93 31.4658 157.53 29.2058 157.68 26.9058C158.4 26.9058 159.12 26.9258 159.84 26.9058L159.85 26.9258Z" fill="#FBD366"/>
<path d="M189.36 16.8458C186.8 19.7058 183.81 22.0858 181.52 25.2058L152.88 25.0058L153.36 2.4458L313.44 9.6458C313.49 10.6158 313.28 11.5658 313.2 12.5258L156.14 5.5558C155.36 9.7358 155.71 14.1558 155.28 18.4058C155.1 20.1558 154.81 21.8758 154.32 23.5658C162.37 23.4758 170.4 23.6358 178.43 23.8058C181.36 21.9158 183.94 19.4358 186.97 17.7058C188.02 17.1058 188.25 16.9558 189.35 16.8458H189.36Z" fill="#FEFEFE"/>
<path d="M38.6498 92.4458C37.9698 92.4758 36.8798 92.9258 36.0098 92.6858L36.7298 50.4458C39.4898 50.3958 42.2598 50.5158 45.0198 50.4558C52.6098 50.2858 59.6898 50.1158 67.3198 50.2158C74.0098 50.3058 80.6898 50.3458 87.3698 50.4458C87.4598 54.4858 87.2498 58.5358 87.3598 62.5758C87.4098 64.6158 87.8098 67.0058 87.8598 69.0358C87.9598 73.0758 87.4598 77.8658 87.8598 81.7658C87.9498 82.6258 87.9998 83.2258 88.9298 83.3358C91.1298 83.6058 94.9698 82.9958 97.3798 82.9358C99.7898 82.8758 102.68 83.9658 104.07 81.4158C105.57 78.6758 105.54 71.3958 105.63 68.0958C105.79 62.1458 105.51 56.1458 105.62 50.2058L153.14 49.9658C153.25 50.0758 152.75 52.2158 152.66 52.6058L144.74 52.9658C142.47 56.1958 140.32 59.5558 137.87 62.6558C137.28 63.4058 134.91 66.4858 134.29 66.7558C133.99 66.8858 133.87 66.7258 133.95 66.4158C134.17 65.4658 135.37 63.3158 135.9 62.3658C137.79 58.9958 140.22 55.8858 142.57 52.8358H136.69C133.28 57.5058 130.47 62.5658 127.17 67.3158C126.28 68.5958 125.17 70.4258 124.2 71.5458C123.96 71.8158 123.83 72.1358 123.38 72.0458C122.9 71.5258 127.26 63.6258 127.9 62.5258C129.84 59.1658 132 55.8858 134.42 52.8458C130.95 52.4258 127.46 52.6958 123.97 52.6158C123.4 52.6058 122.88 52.3658 122.31 52.3558C117.22 52.2358 112.07 52.7758 107.06 51.6458C107.53 58.3058 107.22 65.0158 107.29 71.6958C107.29 72.3158 107.54 72.9058 107.55 73.5958C107.59 76.4258 108.01 81.2358 106.1 83.4558C105.37 84.3058 101.94 84.6458 100.69 84.7658C97.8198 85.0458 89.8698 85.5258 87.4398 84.5758C85.0098 83.6258 85.9798 81.6358 85.9398 79.8558C85.7998 73.8858 85.5998 68.6058 85.6998 62.5758C85.7598 59.2658 85.4498 55.8658 85.9298 52.6158C85.6998 52.6758 85.4198 52.3658 85.3298 52.3658H71.1698C67.1998 57.9958 63.0498 63.6458 58.0898 68.4458C58.7498 66.3858 60.2498 64.1958 61.4898 62.3658C63.8798 58.8458 66.7698 56.0758 69.2498 52.8458C69.4398 52.6058 69.7098 52.5458 69.6098 52.1258H63.0098C61.1198 54.8058 59.3898 57.5958 57.4598 60.2558C53.6198 65.5658 49.0298 71.9658 44.8498 76.9258C44.6298 77.1858 44.4698 77.6058 44.0498 77.5658C43.6998 77.3858 44.0498 76.9458 44.1598 76.7158C44.6798 75.6458 45.5898 74.3258 46.2298 73.2658C50.7098 65.8858 55.9098 58.9358 61.2098 52.1258C53.6098 51.8558 45.9698 52.9758 38.4098 51.8858L38.6498 92.4458Z" fill="#FEFEFE"/>
<path d="M116.41 34.8455C94.1897 33.6055 71.7497 32.5555 49.4497 33.1655C50.3097 28.5755 51.1298 24.5155 53.8098 20.6055C54.1498 20.1055 55.8397 17.7955 56.2397 17.8355C75.3497 26.3255 96.3997 29.0555 116.4 34.8355L116.41 34.8455Z" fill="#B7E6FD"/>
<path d="M329.04 46.1258C322.47 50.2658 318.56 57.7959 316.08 64.9659C315.52 66.5859 312.47 77.1058 313.21 77.8058C326.05 80.4858 338.05 86.2358 350.41 90.5258C350.84 92.1758 352.03 93.9258 352.57 95.5658C350.54 94.2158 342.72 91.6959 339.97 90.7659C331.94 88.0259 322.11 85.6158 313.74 84.1158C311.82 83.7758 309.9 83.4358 307.93 83.5658C308.01 79.6558 308.62 75.6059 308.89 71.6859C308.99 70.1259 308.74 68.5458 309 66.9958C309.38 64.7558 312.1 59.1059 313.17 56.7659C315.19 52.3459 317.4 47.9658 320.57 44.2358C323.41 44.7758 326.23 45.5058 329.05 46.1258H329.04Z" fill="#B7E6FD"/>
<path d="M43.4497 30.5255C42.9197 28.5255 43.2497 26.2155 43.4797 24.1955C44.1297 18.6155 47.1597 8.91552 51.8397 5.43552C52.8597 4.67552 53.3697 4.79552 54.5997 4.84552C57.2197 4.93552 60.7897 5.47552 63.4797 5.80552C83.1797 8.21552 102.19 14.1855 121.68 17.5655C121.37 19.0755 121.46 20.5955 121.44 22.1255C119.04 20.5455 115.68 19.7055 112.84 19.0855C105.33 17.4355 97.3097 16.7155 89.7097 15.3355C78.0397 13.2255 66.5597 10.1655 54.8897 8.02552C52.1997 8.27552 48.5997 13.3955 47.3897 15.6455C45.1897 19.7155 43.5797 25.9055 43.4397 30.5355L43.4497 30.5255Z" fill="#B7E6FD"/>
<path d="M49.4498 33.1655C48.7598 33.1855 48.1998 33.3055 47.5298 33.4055C47.7898 29.3255 48.6698 25.4055 50.2998 21.6555C50.8098 20.4855 53.6698 14.9555 54.8498 14.9355C55.2298 14.9355 59.7598 17.1655 60.6698 17.5155C68.4898 20.4955 77.6198 22.0255 85.7898 24.0655C96.1698 26.6655 106.48 29.6655 117.08 31.4155C118.46 31.6455 120.12 31.9955 121.45 31.7255L121.93 35.3255C120.12 35.0955 118.23 34.9455 116.41 34.8455C96.3998 29.0655 75.3598 26.3355 56.2498 17.8455C55.8398 17.8055 54.1598 20.1155 53.8198 20.6155C51.1298 24.5255 50.3098 28.5755 49.4598 33.1755L49.4498 33.1655Z" fill="#FEFEFE"/>
<path d="M319.2 128.926C317.24 128.126 315.56 127.366 313.45 128.096C312.66 128.366 312.07 128.966 311.29 129.166C306.44 117.106 299.08 106.276 291.85 95.5656C293.83 95.5256 296.84 95.3256 298.7 95.5556C298.96 95.5856 299.23 95.5556 299.41 95.8056C306.15 106.796 313.36 117.416 319.21 128.926H319.2Z" fill="#45ACDE"/>
<path d="M88.5698 48.0459L96.4899 48.7659L95.5298 81.4059C94.6698 81.4459 89.5099 82.1059 89.2899 81.8859C89.2099 77.9259 89.3999 73.9559 89.2999 69.9959C89.1199 62.6959 88.7098 55.3359 88.5698 48.0459Z" fill="#F09845"/>
<path d="M314.64 28.3657C319.86 32.0057 326.7 33.3557 332.88 34.6057C330.08 37.2357 327.05 40.0757 326.16 43.9657C320.87 43.0257 315.68 41.4357 310.32 40.8457L309.84 30.2857C310.94 29.9457 312.58 30.9957 313.51 30.7257C314.32 30.4957 314.4 29.0757 314.64 28.3657Z" fill="#45ACDE"/>
<path d="M103.93 48.2856C103.87 56.8356 104.18 66.0257 103.7 74.5757C103.64 75.6657 103.05 80.8056 102.25 81.2856C100.67 81.5456 99.0397 81.3457 97.4497 81.4057L97.9297 48.7657C100.1 48.7357 101.89 49.3756 103.93 48.2856Z" fill="#F09845"/>
<path d="M306.96 30.0456C307.6 30.0656 308.24 30.0356 308.88 30.0456C308.06 39.0256 307.8 48.0756 306.72 57.0456L305.76 73.9656C305.73 72.2356 305.31 69.9155 305.27 68.0955C305.08 59.7755 305.73 51.5456 306 43.2456C303.12 46.0556 300.48 49.1956 297.36 51.7656C297.17 51.9256 296.88 52.4056 296.64 52.0056C299.19 47.8956 302.73 44.4956 306.12 41.0856L306.48 34.8455C302.04 39.3255 297.71 43.9156 293.05 48.1656C292.15 48.9856 287.78 53.0756 287.16 53.3155C286.85 53.4356 286.72 53.2656 286.81 52.9656C292.62 45.4856 299.45 38.8656 306.5 32.5756L306.97 30.0456H306.96Z" fill="#FBD366"/>
<path d="M286.56 95.5658C287.46 95.4758 289.22 95.3258 289.79 96.0558C295.48 105.766 301.09 115.546 306.52 125.406C308.08 128.236 309.92 133.006 311.65 135.396C313.38 137.786 317.66 138.616 319.43 136.016C317.9 135.076 317.31 133.246 316.55 131.686C317.04 131.416 317.84 131.876 318.31 132.086C321.16 133.366 324.54 136.706 321.69 139.726C321.47 139.956 321.18 139.916 321.11 139.976C316.8 141.796 312.62 139.486 309.25 136.836C304.37 121.796 296.86 107.566 286.55 95.5758L286.56 95.5658Z" fill="#45ACDE"/>
<path d="M353.04 89.0858C354.14 89.2558 356.24 89.8358 357.36 90.1658C358.05 90.3758 358.73 90.9858 359.51 91.1358C365.79 92.3958 368.21 79.9658 365.1 76.1758C364.13 74.9958 361.04 73.8658 359.52 73.4758C359.77 72.7358 360.28 72.1758 360.72 71.5558C366.81 67.1358 366.35 74.5358 366.75 78.6058C367.26 83.6658 367.35 88.5558 365.08 93.3258C360.76 102.396 355.58 94.3258 353.04 89.0858Z" fill="#B7E6FD"/>
<path d="M154.32 45.8857L153.45 48.7757L145.81 48.2757C132.38 48.3857 118.93 47.8757 105.6 49.4857V46.8457L154.32 45.8857Z" fill="#F09845"/>
<path d="M27.8499 74.9255L33.8499 74.6855C33.7799 77.3655 33.9399 80.0555 33.8599 82.7355C33.8099 84.3255 33.7099 86.0455 33.6099 87.6455L22.5698 85.9655C25.3098 82.9755 28.0999 79.2055 27.8499 74.9255Z" fill="#45ACDE"/>
<path d="M88.5698 48.0457C88.5698 47.7257 88.5698 47.4057 88.5698 47.0857L104.03 46.8457C104.5 46.9057 103.93 48.1357 103.93 48.2857C101.88 49.3757 100.1 48.7357 97.9299 48.7657L97.4498 81.4057C96.8098 81.4257 96.1698 81.3757 95.5298 81.4057L96.4899 48.7657L88.5698 48.0457Z" fill="#FEFEFE"/>
<path d="M10.8101 72.2858L6.50015 73.0058C4.48015 68.9658 2.76009 64.9358 2.19009 60.3858C1.61009 55.7358 1.73015 48.7857 2.75015 44.2057C3.27015 41.8857 3.61014 39.8658 6.36014 39.6558C3.47014 50.3258 2.19014 63.8658 10.8001 72.2858H10.8101Z" fill="#B7E6FD"/>
<path d="M352.56 95.5655C353.03 95.8755 354.53 97.4955 353.21 97.1955C351.74 96.8655 349.96 95.9755 348.43 95.4955C335.1 91.3755 321.66 87.5455 308.08 84.2955C307.8 84.1955 307.92 83.8055 307.93 83.5655C309.9 83.4355 311.81 83.7755 313.74 84.1155C322.11 85.6055 331.94 88.0255 339.97 90.7655C342.72 91.7055 350.53 94.2155 352.57 95.5655H352.56Z" fill="#FEFEFE"/>
<path d="M123.37 19.4858L126.26 20.3559C126.19 22.6759 125.9 24.9558 126.01 27.2858C126.07 28.5358 126.24 30.5858 126.6 31.7358C126.72 32.1158 126.75 32.5358 127.2 32.6958C127.22 33.5358 127.08 34.3858 127.42 35.1958C128.08 35.6958 128.4 34.9758 128.53 34.3958C128.6 34.0858 128.87 32.5358 128.87 32.3358V25.6158C128.87 24.2158 129.24 22.5559 129.11 20.9359L132.23 21.4158C131.38 26.2058 129.95 30.9158 129.83 35.8158L123.11 35.3358C123.36 33.6258 123.38 31.9158 123.35 30.1758C123.28 26.5458 123.14 23.1658 123.35 19.4958L123.37 19.4858Z" fill="#F09845"/>
<path d="M360.72 71.5655C364.22 66.5855 367.5 69.0355 368.33 74.1555C369.24 79.7555 368.54 86.5655 366.83 91.9655C365.64 95.7355 363.81 101.135 358.78 98.8155C355.65 97.3755 352.48 92.8255 352.08 89.4255C352.02 88.8855 352.64 89.0155 353.03 89.0755C355.57 94.3255 360.75 102.395 365.07 93.3155C367.34 88.5455 367.24 83.6555 366.74 78.5955C366.33 74.5255 366.8 67.1255 360.71 71.5455L360.72 71.5655Z" fill="#FEFEFE"/>
<path d="M87.85 47.0854L87.47 48.7755C76.44 48.5855 65.42 48.4355 54.36 48.5155L36.73 49.7254V47.5654L87.85 47.0854Z" fill="#F09845"/>
<path d="M286.56 95.5656C296.86 107.566 304.38 121.786 309.26 136.826C312.63 139.476 316.81 141.786 321.12 139.966C317.51 142.856 311.75 140.786 308.53 138.036C303.03 123.056 295.73 108.646 286.09 95.9156C286 95.3956 286.23 95.5956 286.57 95.5556L286.56 95.5656Z" fill="#B7E6FD"/>
<path d="M355.2 66.7656L359.52 68.4456C357.77 70.4956 355.46 73.1656 354.79 75.8356C353.82 79.7056 354.04 83.1156 355.68 86.6856C355.83 87.0056 356.58 88.4256 356.4 88.6056L351.83 87.2956C350.52 80.5556 351.74 72.7256 355.2 66.7656Z" fill="#B7E6FD"/>
<path d="M147.85 23.3257C148.8 23.4657 149.73 23.8657 150.73 23.8057C150.71 24.3357 150.56 26.6857 151.33 26.6857H156.13C156.21 26.6857 156.51 26.9457 156.71 26.9557L155.77 36.5357C155.55 36.7657 151.38 35.4557 150.73 35.3357L150.85 30.5357C150.05 29.7357 147.31 28.4457 147.12 27.2857C146.93 26.1257 147.94 24.5557 147.84 23.3357L147.85 23.3257Z" fill="#B7E6FD"/>
<path d="M314.64 28.3657C314.68 28.2457 314.61 28.0357 314.64 27.8857L337.68 33.8857C337.79 34.5157 337.59 34.2557 337.34 34.3857C334.68 35.7457 333.23 36.8157 331.2 39.0357C329.91 40.4457 328.31 42.3157 327.82 44.1757C327.21 44.4057 326.66 44.0557 326.16 43.9657C327.05 40.0757 330.08 37.2357 332.88 34.6057C326.7 33.3557 319.87 32.0057 314.64 28.3657Z" fill="#FEFEFE"/>
<path d="M147.85 23.3257C147.95 24.5357 146.94 26.1357 147.13 27.2757C147.32 28.4157 150.05 29.7257 150.86 30.5257L150.74 35.3257C148.61 34.9357 146.43 34.7657 144.26 34.8457C144.2 33.4557 144.35 32.0357 144.26 30.6457C144.2 29.6357 143.62 28.3057 143.83 27.3357C144.03 26.3857 145.91 24.4157 146.18 23.1857C146.58 22.9357 147.37 23.2457 147.86 23.3157L147.85 23.3257Z" fill="#FEFEFE"/>
<path d="M330.48 44.9258C330.12 44.8358 328.58 44.8358 328.8 44.3258C331.92 41.2158 336.36 34.0358 341.57 35.6358C346.47 37.1358 344.14 44.2658 342.98 47.6658C342.67 48.1058 341.88 47.6658 341.51 47.5658C345.22 41.7158 342.25 35.2358 335.19 39.9258C333.43 41.0958 331.24 42.9458 330.47 44.9258H330.48Z" fill="#45ACDE"/>
<path d="M158.65 92.6856L157.49 92.6556C157.28 92.2556 157.24 91.8256 157.2 91.3756C156.79 85.7656 157.42 79.9256 157.46 74.3356C157.54 63.9756 157.31 53.6056 157.45 43.2456C157.94 44.9956 157.62 47.0556 157.68 48.8956C158.01 59.4356 157.65 70.3356 158.65 80.8056C158.85 82.8656 159.87 86.6456 159.55 88.4356C159.32 89.7456 158.28 91.1556 158.65 92.6956V92.6856Z" fill="#ECC893"/>
<path d="M357.12 85.2457C356.78 82.8457 357.17 80.8957 357.6 78.5257L361.67 79.7257C361.63 78.9857 361.85 78.4457 362.15 77.8057C364.52 79.1557 363.13 86.6157 360.96 87.2957C358.79 87.9757 358.42 86.2957 357.11 85.2457H357.12Z" fill="#45ACDE"/>
<path d="M210.24 13.9658C206.35 18.0158 201.84 21.4758 198.07 25.6758L183.36 25.2458C183.43 24.6358 184.08 24.3558 184.32 24.0458L194.71 25.0158C194.92 24.9658 195.06 24.3858 195.34 24.1558C199.34 20.7958 205.43 15.7658 210.24 13.9658Z" fill="#FEFEFE"/>
<path d="M142.33 23.3257C139.83 26.2157 136.79 28.6057 134.42 31.6157C133.57 32.6957 131.82 34.4657 132.49 35.8057H131.29C131.35 35.1257 131.45 34.5057 131.77 33.8857C131.8 33.8257 132.11 33.7257 132.21 33.4957C133.9 29.9357 134.44 25.8057 134.65 21.8857L142.33 23.3257Z" fill="#F09845"/>
<path d="M27.85 74.9258C28.1 79.2058 25.31 82.9758 22.57 85.9658L33.61 87.6458C33.59 87.9658 33.63 88.2858 33.61 88.6058C28.85 88.7058 24.0601 88.3958 19.3701 87.6058C18.9001 87.5258 17.45 87.4258 17.29 87.0458C21.15 85.4158 24.38 82.2258 26.26 78.4958C26.55 77.9058 27.51 75.0158 27.85 74.9258Z" fill="#FEFEFE"/>
<path d="M318.96 43.9656C319.16 44.0256 319.61 43.8156 319.68 44.0856C314.55 49.2956 311.87 56.4156 309.36 63.1656C308.94 63.1656 309.09 62.1156 309.11 61.8356C309.21 60.3656 309.22 58.6956 309.36 57.2856C309.62 54.7056 313.78 47.0756 315.36 44.6856C316.35 44.6356 317.38 44.7656 318.37 44.6856C319.11 44.6256 318.99 44.8056 318.96 43.9656Z" fill="#F09845"/>
<path d="M355.2 66.7655C355.42 66.3955 355.58 65.9954 355.7 65.5854L362.88 67.8454C360.16 69.1154 358.51 72.1654 357.41 74.8654C355.91 78.5654 355.16 82.7155 355.67 86.6855C354.03 83.1155 353.81 79.7054 354.78 75.8354C355.45 73.1654 357.76 70.4955 359.51 68.4454L355.19 66.7655H355.2Z" fill="#FEFEFE"/>
<path d="M307.68 105.166C308.58 106.056 309.9 107.006 310.96 107.766C313.04 109.236 315.32 110.426 317.4 111.886L316.79 119.566C313.94 114.676 310.49 110.086 307.67 105.166H307.68Z" fill="#B7E6FD"/>
<path d="M341.52 47.5655C341.31 47.5055 340.79 47.6955 340.8 47.4455C343.58 41.1755 340.03 38.2155 334.8 42.8855C334.29 43.3455 332.77 45.3055 332.48 45.3655C332.01 45.4755 331 45.0455 330.49 44.9255C331.26 42.9455 333.45 41.1055 335.21 39.9255C342.27 35.2355 345.24 41.7055 341.53 47.5655H341.52Z" fill="#FEFEFE"/>
<path d="M307.68 105.166C306.69 104.196 306.3 103.246 305.41 102.276C305.02 101.936 305.61 102.036 305.78 102.136C307.67 103.236 309.8 105.236 311.73 106.506C314.21 108.146 316.89 109.456 319.33 111.156L317.28 120.516C316.84 120.536 316.94 119.796 316.8 119.556L317.41 111.876C315.32 110.406 313.05 109.226 310.97 107.756C309.91 107.006 308.58 106.046 307.69 105.156L307.68 105.166Z" fill="#FEFEFE"/>
<path d="M290.64 105.406L278.4 95.5656C279.41 95.5556 284.41 95.4056 284.88 95.6856L290.64 105.406Z" fill="#B7E6FD"/>
<path d="M131.77 33.8858L133.21 20.4458L143.05 22.3658C143.15 22.9058 142.6 23.0058 142.33 23.3258L134.65 21.8858C134.44 25.8058 133.9 29.9458 132.21 33.4958C132.1 33.7258 131.8 33.8258 131.77 33.8858Z" fill="#FEFEFE"/>
<path d="M357.12 85.2458C358.44 86.2958 358.89 87.9458 360.97 87.2958C363.05 86.6458 364.52 79.1558 362.16 77.8058C362.67 76.7058 363.09 76.3658 363.95 77.5758C365.31 79.4958 364.63 84.7558 363.65 86.8458C362.23 89.8558 359.07 90.9558 357.56 87.3258C357.19 86.4458 357.25 86.0958 357.12 85.2358V85.2458Z" fill="#FEFEFE"/>
<path d="M145.69 22.8454C143.01 27.3654 138.44 30.8355 135.45 35.0455C135.24 35.3355 135.15 35.9554 135.1 36.0054C134.88 36.1954 133.2 35.9454 132.74 36.0354L143.84 22.9055L145.7 22.8354L145.69 22.8454Z" fill="#F09845"/>
<path d="M334.08 45.8857C333.83 45.6157 335.7 43.8457 336 43.6057C340.31 40.0357 341.73 42.2257 340.1 46.9857C339.44 47.4557 335.16 45.8957 334.09 45.8857H334.08Z" fill="#45ACDE"/>
<path d="M123.37 19.4859C123.39 19.2159 123.24 18.5659 123.51 18.5259L128.19 19.3959C127.59 23.8659 127.1 28.1659 127.21 32.6859C126.75 32.5259 126.73 32.1059 126.61 31.7259C126.24 30.5859 126.07 28.5259 126.02 27.2759C125.91 24.9459 126.2 22.6659 126.27 20.3459L123.38 19.4759L123.37 19.4859Z" fill="#FEFEFE"/>
<path d="M373.44 72.7659C371.63 74.9359 371.33 77.4559 371.52 80.2059C371.19 80.0859 369.66 79.8359 369.58 79.5759C369.72 77.0459 369.35 74.5259 368.88 72.0459C370.36 72.3959 371.96 72.4959 373.44 72.7659Z" fill="#45ACDE"/>
<path d="M289.68 19.9655L279.83 27.2755C279.07 27.5255 278.23 27.3955 277.44 27.4055C277.48 26.8455 277.78 26.4655 278.15 26.0755C279.55 24.6155 286.55 20.6155 288.55 19.9155C289.16 19.6955 289.12 19.6255 289.68 19.9655Z" fill="#FEFEFE"/>
<path d="M296.4 21.6456C294.53 22.8056 292.75 24.1556 291.01 25.4956C289.01 27.0256 289.34 27.7856 286.42 27.6556C286.11 27.6456 285.87 27.4056 285.84 27.4056C285.87 26.8356 286.31 26.5456 286.69 26.2156C288.33 24.7556 293.82 21.7456 295.93 21.5056C296.29 21.4656 296.27 21.6056 296.4 21.6556V21.6456Z" fill="#FEFEFE"/>
<path d="M258.24 26.9257C258.17 26.4057 258.37 26.1757 258.71 25.8357C259.72 24.8057 261.71 23.6057 262.92 22.5957C265.11 20.7757 268.02 17.6557 270.73 16.8457C270.01 17.7357 269.17 18.5857 268.33 19.3657C265.52 21.9757 262.42 24.4357 259.55 26.9157H258.24V26.9257Z" fill="#FEFEFE"/>
<path d="M268.08 27.1656C268.08 26.6956 268.4 26.4956 268.68 26.2056C270.07 24.7356 278.99 19.8356 281.04 19.2456L269.87 27.1556C269.28 27.2156 268.68 27.1556 268.08 27.1656Z" fill="#FEFEFE"/>
<path d="M317.52 135.886C316.91 135.876 316.42 136.126 315.79 136.076C312.96 135.866 310.12 131.206 314.64 131.186L317.52 135.886Z" fill="#B7E6FD"/>
<path d="M141.37 36.5256L136.33 36.2856C136.01 36.0056 138.78 33.5156 139.09 33.1656C139.74 32.4456 140.36 31.5156 141.01 30.7656L141.37 36.5256Z" fill="#B7E6FD"/>
<path d="M278.4 95.5656L290.64 105.406C290.49 105.936 289.93 105.426 289.7 105.266C285.31 102.226 281.17 98.7156 276.72 95.8056C276.86 95.3556 277.99 95.5756 278.4 95.5656Z" fill="#FEFEFE"/>
<path d="M313.92 44.4456L309.84 51.8856C309.92 49.1656 310.17 46.4456 310.32 43.7256C311.51 44.0256 312.66 44.5656 313.92 44.4456Z" fill="#F09845"/>
<path d="M233.52 19.9657L227.23 26.1557C226.38 26.2757 225.5 26.1957 224.64 26.2057C224.64 25.7457 224.95 25.5257 225.23 25.2357C225.96 24.4957 232.57 19.9257 233.26 19.8257C233.45 19.7957 233.49 19.9457 233.51 19.9557L233.52 19.9657Z" fill="#FEFEFE"/>
<path d="M203.52 25.7256C203.46 24.8956 204.4 24.1756 204.98 23.7056C206.85 22.1756 209.52 20.7856 211.68 19.7256C209.69 21.5056 207.79 23.8656 205.68 25.6056C205.09 25.8756 204.19 25.7056 203.52 25.7256Z" fill="#FEFEFE"/>
<path d="M373.44 72.7656C373.65 72.8056 374.41 72.9556 374.41 73.1356C372.99 75.5556 372.15 78.1656 373.2 80.9256C372.93 81.1956 371.76 80.2956 371.52 80.2056C371.33 77.4556 371.63 74.9356 373.44 72.7656Z" fill="#FEFEFE"/>
<path d="M155.76 38.2059C155.9 38.8759 155.45 38.7259 154.95 38.6559C153.84 38.5059 152.63 37.9959 151.49 37.7959C149.01 37.3459 146.49 37.1259 144 36.7659L144.37 35.5659L155.77 38.2159L155.76 38.2059Z" fill="#B7E6FD"/>
<path d="M220.8 20.9257L215.27 25.8457C214.81 26.0757 214.31 25.9457 213.84 25.9657C213.89 25.3357 214.25 24.9357 214.67 24.5157C215.28 23.9057 219.39 20.8957 220.03 20.7257C220.52 20.5857 220.71 20.9257 220.8 20.9357V20.9257Z" fill="#FEFEFE"/>
<path d="M142.33 33.0455C142.25 32.2455 141.89 31.0755 141.45 30.4055L142.57 28.6055C142.98 28.7455 143.18 29.8655 143.22 30.2255C143.49 32.4355 142.9 34.5555 143.04 36.7655H142.32C142.23 35.5655 142.44 34.2155 142.32 33.0455H142.33Z" fill="#F09845"/>
<path d="M243.12 22.1255C242.55 22.2455 242.02 22.7355 241.57 23.0955C240.7 23.7955 238.6 25.9755 237.84 26.3255C237.24 26.6055 236.15 26.4255 235.44 26.4455C237.31 25.1455 239.63 23.1655 241.67 22.2355C242.21 21.9855 242.6 21.6155 243.12 22.1255Z" fill="#FEFEFE"/>
<path d="M310.32 43.7256C310.35 43.2456 310.3 42.7656 310.32 42.2856L315.36 43.0056L313.92 44.4456C312.66 44.5656 311.51 44.0256 310.32 43.7256Z" fill="#FEFEFE"/>
<path d="M129.13 20.9258C129.1 20.5858 128.7 19.9958 128.89 19.4858L132.49 19.9659C132.46 20.4559 132.33 20.9259 132.25 21.4059L129.13 20.9258Z" fill="#FEFEFE"/>
<path d="M318.96 43.9656C318.99 44.8056 319.11 44.6256 318.37 44.6856C317.38 44.7656 316.35 44.6256 315.36 44.6856C315.54 44.4156 316.06 43.2556 316.24 43.2256C317.19 43.3356 318.06 43.6756 318.96 43.9656Z" fill="#FEFEFE"/>
<path d="M302.16 29.8055C301.31 30.2155 299.6 30.2055 298.8 29.8055C299.92 29.8355 301.04 29.7755 302.16 29.8055Z" fill="#DC611B"/>
<path d="M291.84 95.5657C299.07 106.276 306.43 117.106 311.28 129.166C312.06 128.966 312.66 128.366 313.44 128.096C315.56 127.376 317.24 128.136 319.19 128.926C319.43 129.406 320.42 130.176 320.27 131.076C317.34 129.366 313.45 128.346 310.79 131.076C309.77 128.636 308.5 126.276 307.23 123.956C301.95 114.346 296.67 104.656 290.39 95.6757C290.75 95.4457 291.39 95.5657 291.83 95.5557L291.84 95.5657Z" fill="#B7E6FD"/>
<path d="M207.63 38.9558L215.15 38.4358C227.83 38.9258 240.94 37.8258 253.57 38.4358C254.46 38.4758 258.65 38.8358 259.1 39.1458C259.3 39.2858 259.59 39.7858 259.61 40.0358C259.03 42.1358 259.81 44.9658 259.44 46.9658C259.38 47.2658 259.37 47.4158 259.04 47.5258C258.31 47.7658 255.81 48.1758 254.97 48.2558C253.04 48.4358 250.95 48.2058 248.99 48.2758C238.35 48.6558 226.77 48.7758 216.11 48.2958C214.36 48.2158 212.13 48.0158 210.39 47.7758C209.53 47.6558 206.7 47.2958 206.45 46.4358C205.83 44.3758 207.19 41.0158 207.63 38.9558ZM257.76 40.6058L209.17 39.6358C208.84 39.6958 208.73 39.7258 208.61 40.0558C208.02 41.6258 208.36 44.5958 207.84 46.3658L257.52 46.1258L257.76 40.6058Z" fill="#070706"/>
<path d="M257.76 40.6057L257.52 46.1257L207.84 46.3657C208.35 44.5957 208.02 41.6157 208.61 40.0557C208.73 39.7257 208.84 39.6957 209.17 39.6357L257.76 40.6057Z" fill="#FEFEFE"/>
</svg>
