<svg width="78" height="56" viewBox="0 0 78 56" fill="none" xmlns="http://www.w3.org/2000/svg">
<path d="M34.73 55.0899H0.540039V8.64987C5.28004 8.35987 9.96007 8.49987 14.7601 8.29987C14.6101 6.15987 15.85 4.76989 17.16 3.41989C18.01 2.54989 18.4701 1.49986 18.5601 0.109863C20.3601 2.14986 21.2101 4.38988 21.3201 6.90988C21.3901 8.48988 21.3501 8.47989 22.9601 8.47989C26.5101 8.47989 30.06 8.47989 33.61 8.47989C34.95 8.47989 35.4501 8.99988 35.4301 10.3499C35.2001 23.9599 34.96 37.5599 34.72 51.1699C34.7 52.4399 34.72 53.7099 34.72 55.0799L34.73 55.0899ZM13.3201 26.1699C13.1901 26.8799 13.4401 27.6599 12.7501 28.4699C12.3801 24.4099 12.3901 20.5299 12.2501 16.6499C12.2701 16.1099 12.3701 15.5599 12.1501 14.9999C11.2101 14.8699 10.2901 14.6399 9.33008 14.8999C9.33008 15.4699 9.27004 15.9899 9.48004 16.4799C10.03 23.3899 10.1301 30.3099 9.59009 37.4799C9.17009 36.7999 9.19004 36.3099 9.17004 35.8399C9.03004 30.1999 8.89007 24.5599 8.76007 18.9199C8.74007 18.0299 8.73007 17.1299 8.57007 16.2499C8.46007 15.6999 8.98005 14.8299 8.11005 14.6799C6.78005 14.4399 5.40003 14.4399 3.97003 14.3299C3.97003 14.7899 3.96003 15.1299 3.97003 15.4599C4.18003 20.9899 4.46009 26.5199 4.59009 32.0499C4.67009 35.4499 4.34006 38.8699 4.50006 42.2599C4.70006 46.5599 6.38004 48.7699 9.98004 49.7899C13.63 51.0099 17.3301 51.0099 21.0601 50.2399C23.6501 49.7099 26.1001 48.8099 28.1401 47.0799C29.2301 46.1599 30.1501 45.0799 30.5301 43.5399C28.6301 43.4699 26.8801 43.3999 25.1501 43.1199C24.2501 42.9799 23.6801 42.6699 23.5701 41.5899C23.3101 38.9499 23.2301 36.3099 23.1501 33.6599C23.0501 30.2899 22.7401 26.9299 22.8401 23.5499C22.8801 22.1699 23.5201 21.5399 24.8801 21.4599C25.4001 21.4299 25.9101 21.4499 26.4301 21.4499C27.9001 21.4499 29.3701 21.4499 30.9301 21.4499C30.8501 19.8399 31.2201 18.4599 31.0701 17.0499L31.2401 15.3899C25.1101 15.4799 19.0101 15.2499 12.7701 14.9599C13.3301 18.7999 13.2601 22.4799 13.3201 26.1599V26.1699ZM32.0101 43.4399C31.2901 46.7799 28.9401 48.6599 26.0301 49.9999C21.2901 52.1799 16.33 52.5299 11.29 51.5199C5.85004 50.4299 3.43004 47.6999 3.42004 42.4899C3.40004 33.4299 2.99003 24.3699 3.16003 15.3099C3.17003 14.7699 3.16003 14.2299 3.16003 13.5899C8.03003 13.4999 12.7701 13.5999 17.8101 13.8099C16.6201 12.6699 15.8201 11.6599 15.4501 10.4199C15.2301 9.69989 14.8601 9.56988 14.1801 9.55988C11.2201 9.52988 8.25004 9.64987 5.29004 9.42987C4.00004 9.32987 2.71008 9.40988 1.39008 9.40988C1.48008 23.9599 1.72004 38.5699 1.98004 53.1599H33.1401C33.2601 49.8799 33.4601 46.6899 33.3401 43.4399H32.0101ZM33.55 41.6499C33.47 36.7299 33.8801 32.1699 33.7501 27.5699C31.8601 27.6699 30.1101 27.6199 28.3901 27.1799C27.7301 27.0099 27.1201 26.8399 27.3101 25.8899C27.5001 24.9299 28.0801 24.9399 28.8401 25.0199C30.4701 25.1799 32.1 25.2699 33.79 25.3999L33.91 23.0299C32.43 23.0299 31.0201 23.1399 29.6301 22.9999C28.2801 22.8699 26.95 22.8799 25.61 22.8899C24.3 22.8899 24.1801 22.9799 24.2101 24.3099C24.2901 27.6499 24.4 30.9899 24.54 34.3299C24.63 36.4599 24.79 38.5898 24.92 40.7198C24.95 41.2198 24.9501 41.6799 25.6801 41.6699C28.2601 41.6399 30.83 41.6699 33.55 41.6699V41.6499ZM34.42 9.65988C34.14 9.59988 34.0401 9.55988 33.9401 9.55988C29.8401 9.55988 25.7501 9.58988 21.6501 9.55988C21.0501 9.55988 20.92 9.88988 20.73 10.3099C20.19 11.5299 19.8801 12.9099 18.5601 13.5999C18.6201 13.7999 18.7801 13.7899 18.9001 13.7899C22.0901 13.8899 25.28 14.2299 28.48 14.2199C29.3 14.2199 30.1301 14.3099 30.9401 14.4099C31.4901 14.4799 31.85 14.7199 31.92 15.3899C32.03 16.3799 32.0801 17.3799 32.0901 18.3699C32.0901 19.3499 32.0901 20.3299 32.0901 21.3199C32.8001 21.3999 33.34 21.4499 33.98 21.3199C33.94 17.4199 34.18 13.5599 34.41 9.64987L34.42 9.65988ZM19.0801 1.98987C16.6101 5.96987 16.2301 6.80989 16.3101 8.22989C17.3901 8.22989 18.4901 8.21989 19.5801 8.22989C20.0701 8.22989 20.2701 7.94989 20.3101 7.53989C20.5201 5.56989 20.0301 3.76989 19.0801 1.97989V1.98987ZM19.7701 9.65988H16.2701C16.7601 10.9799 17.29 12.1099 18.17 13.1299L19.7701 9.65988ZM28.1401 25.9699C28.2801 26.4299 28.63 26.3299 28.92 26.3899C30.31 26.6599 31.71 26.5599 33.11 26.5999C33.35 26.5999 33.7201 26.7799 33.7601 26.3599C33.8201 25.8499 33.3901 25.9699 33.1201 25.9699C31.7501 25.9499 30.3901 25.9499 29.0301 25.7699C28.7501 25.7299 28.4201 25.6299 28.1401 25.9799V25.9699Z" fill="#5A9DBB"/>
<path d="M44.3001 21.4C44.8401 21.15 45.2501 21.24 45.6601 21.23C49.5201 21.18 53.3801 21.14 57.2401 21.12C57.9501 21.12 58.1301 20.85 58.2301 20.16C58.5201 18.18 59.7501 16.65 60.9501 15.15C61.3301 14.68 61.7101 15.15 61.9701 15.43C63.0001 16.53 63.4001 17.93 63.7201 19.34C64.1501 21.19 64.1101 21.19 66.0101 21.23C69.6601 21.3 73.3101 21.39 76.9701 21.43C77.7201 21.43 77.9801 21.65 77.9801 22.44C77.9501 33.08 77.9601 43.73 77.9601 54.37C77.9601 54.57 77.9401 54.77 77.9201 55.05H43.6401C43.8601 43.81 44.0801 32.57 44.2901 21.39L44.3001 21.4ZM73.5401 26.77C73.4701 26.24 73.8501 25.73 73.6401 25.07C65.2001 26.33 56.7201 25.36 48.3301 26.07C47.7901 27.17 48.4101 28.21 48.4401 29.28C48.5001 31.89 48.5501 34.51 48.7401 37.11C48.9101 39.48 48.7801 41.85 49.0801 44.21C49.5201 47.66 51.0801 49.45 54.4101 50.13C56.2101 50.49 58.0201 50.64 59.8501 50.52C61.9501 50.52 64.0601 50.59 66.1601 50.5C67.6601 50.43 69.1901 50.29 70.6101 49.72C71.6001 49.32 72.5501 48.86 73.0401 47.74C70.7201 47.47 68.4601 47.47 66.2001 47.43C64.4401 47.4 62.7001 47.17 61.0201 46.63C60.3101 46.4 59.9301 45.96 59.8801 45.21C59.5601 40.33 59.3501 35.44 59.5501 30.55C59.5901 29.49 59.4701 28.31 60.3501 27.43L63.7901 27.41C67.0801 27.68 70.3801 27.93 73.6701 27.76C73.7701 27.33 73.7801 27.03 73.5601 26.77H73.5401ZM76.4601 31.8L76.2802 31.62C76.9302 30.75 76.9101 29.79 76.6901 28.67C75.8901 28.67 75.1001 28.7 74.3101 28.67C70.1101 28.5 65.9201 28.34 61.7201 28.13C60.7501 28.08 60.5201 28.5 60.4301 29.39C60.1401 32.36 60.3701 35.31 60.5201 38.26C60.6401 40.46 60.8901 42.65 61.0601 44.84C61.1001 45.35 61.3001 45.56 61.7901 45.65C62.7701 45.84 63.7601 45.98 64.7601 45.99C67.7901 46.02 70.8301 46.05 73.8601 46.08C74.8101 46.08 75.7701 46.08 76.8001 46.08C76.8001 41.29 76.8001 36.68 76.8001 32.07C76.8001 31.84 76.6501 31.79 76.4601 31.8ZM73.9901 47.71C73.5601 49.56 72.3301 50.52 70.6901 51.05C69.9701 51.28 69.2401 51.48 68.5001 51.61C65.0801 52.21 61.6301 51.97 58.1901 52.03C56.5201 52.06 54.8901 51.79 53.3001 51.37C50.3401 50.58 48.4401 48.73 47.9101 45.64C47.7301 44.63 47.6301 43.6 47.6501 42.56C47.7301 37.12 47.6401 31.68 47.4501 26.24C47.4001 24.73 47.4201 24.74 48.9401 24.74C52.4201 24.74 55.9001 24.74 59.3801 24.74C59.6401 24.74 59.9201 24.85 60.1901 24.6C59.8101 24.11 59.3501 23.68 59.0901 23.15C58.6901 22.35 58.1101 22.2 57.2701 22.2C54.0701 22.18 50.8601 22.34 47.6601 22.05C46.8601 21.98 46.0301 21.91 45.1001 22.13C44.9401 32.5 44.7801 42.84 44.6201 53.25H76.6101C76.9801 51.39 76.8001 49.56 76.8001 47.73H74.0001L73.9901 47.71ZM61.9001 24.81C63.5601 24.98 64.9202 24.94 66.2802 24.86C68.8502 24.72 71.4201 24.47 74.0101 24.49C74.7501 24.49 75.0201 24.83 74.9201 25.51C74.8201 26.24 74.6901 26.97 74.5701 27.76C75.3601 27.79 76.0701 27.9 76.8101 27.65C76.8601 25.85 76.7801 24.08 77.0801 22.39C76.8601 22.29 76.8001 22.23 76.7401 22.23C72.6801 22.23 68.6101 22.23 64.5501 22.23C64.3001 22.23 64.0501 22.23 63.9301 22.5C63.5301 23.36 62.7901 23.94 61.9001 24.81ZM61.2901 16.19C60.5401 17.34 59.7901 18.48 59.4601 19.82C59.3601 20.22 59.0601 20.95 59.9401 20.99C60.9901 21.03 62.0401 21 63.0701 21C63.2801 19.51 62.4102 17.2 61.2802 16.2L61.2901 16.19ZM59.8801 22.28C60.2001 22.98 60.4302 23.58 61.0302 23.99C61.6102 23.46 62.4001 23.19 62.7201 22.28H59.8901H59.8801Z" fill="#5A9DBB"/>
<path d="M31.0601 17.05C31.2201 18.46 30.8501 19.85 30.9201 21.45C29.3601 21.45 27.8901 21.45 26.4201 21.45C25.9001 21.45 25.3901 21.43 24.8701 21.46C23.5101 21.54 22.8801 22.17 22.8301 23.55C22.7201 26.92 23.0401 30.29 23.1401 33.66C23.2201 36.3 23.3001 38.95 23.5601 41.59C23.6701 42.66 24.2401 42.98 25.1401 43.12C26.8701 43.39 28.6201 43.4599 30.5201 43.5399C30.1401 45.0799 29.2201 46.16 28.1301 47.08C26.0801 48.81 23.6401 49.71 21.0501 50.24C17.3201 51.01 13.6201 51.0099 9.97007 49.7899C9.86007 49.4799 9.62008 49.29 9.35008 49.13C7.49008 47.99 6.44013 46.4199 6.40013 44.1599C6.39013 43.4599 6.33012 42.73 6.21012 42.02C5.65012 38.61 5.42012 35.16 5.27012 31.73C5.10012 27.9 4.79012 24.05 5.02012 20.2C5.11012 18.64 5.27008 17.09 5.10008 15.47L8.55009 16.25C8.71009 17.13 8.72009 18.03 8.74009 18.92C8.87009 24.56 9.01013 30.2 9.15013 35.84C9.16013 36.32 9.15011 36.7999 9.57011 37.4799C10.1101 30.3099 10.0101 23.39 9.46012 16.48C10.4001 16.28 11.3001 16.75 12.2301 16.65C12.3601 20.53 12.3601 24.41 12.7301 28.47C13.4201 27.66 13.1701 26.88 13.3001 26.17C13.7601 26.44 13.8401 26.24 13.9201 25.78C14.3701 23.28 14.5901 20.76 14.5301 18.22C14.5001 16.86 14.5301 16.88 15.8401 16.86C20.9101 16.77 25.9801 16.99 31.0501 17.06L31.0601 17.05Z" fill="#F5EBE0"/>
<path d="M32.0101 43.4399H33.3401C33.4601 46.6899 33.2601 49.8799 33.1401 53.1599H1.9801C1.7201 38.5699 1.49014 23.9599 1.39014 9.40994C2.70014 9.40994 4.0001 9.32993 5.2901 9.42993C8.2501 9.64993 11.2201 9.53994 14.1801 9.55994C14.8601 9.55994 15.2401 9.69995 15.4501 10.42C15.8201 11.66 16.6201 12.6699 17.8101 13.8099C12.7701 13.5999 8.0301 13.4899 3.1601 13.5899C3.1601 14.2299 3.1601 14.7699 3.1601 15.3099C2.9801 24.3699 3.4001 33.4299 3.4201 42.4899C3.4201 47.6999 5.8601 50.43 11.2901 51.52C16.3301 52.53 21.2902 52.1799 26.0302 49.9999C28.9402 48.6599 31.2901 46.7799 32.0101 43.4399Z" fill="#F5D5C8"/>
<path d="M33.5501 41.6499C30.8301 41.6499 28.2501 41.6299 25.6801 41.6499C24.9501 41.6499 24.95 41.1999 24.92 40.6999C24.79 38.5699 24.63 36.4399 24.54 34.3099C24.4 30.9699 24.2901 27.6299 24.2101 24.2899C24.1801 22.9599 24.3001 22.8799 25.6101 22.8699C26.9501 22.8699 28.2901 22.8399 29.6301 22.9799C31.0201 23.1199 32.43 23.0099 33.91 23.0099L33.79 25.3799C32.1 25.2599 30.4701 25.1699 28.8401 24.9999C28.0701 24.9199 27.4901 24.9199 27.3101 25.8699C27.1201 26.8199 27.7301 26.9899 28.3901 27.1599C30.1101 27.5999 31.8601 27.6499 33.7501 27.5499C33.8901 32.1599 33.4701 36.7099 33.5501 41.6299V41.6499ZM28.6901 30.0099C29.2701 29.7899 29.5601 29.8599 29.8701 30.4599C30.3301 31.3799 31.79 31.4099 32.67 30.6099C32.43 30.1999 31.99 30.1999 31.6 30.1199C31.21 30.0299 30.82 29.9299 30.41 29.8199C30.56 29.4799 30.6701 29.1399 30.1501 29.0399C29.4301 28.9099 28.6101 28.7899 28.1101 29.3599C27.7701 29.7499 27.9201 30.4199 28.4601 30.9899L28.6801 29.9999L28.6901 30.0099ZM31.04 35.5599C30.36 34.6299 28.2701 34.7299 27.4401 35.7299C28.3301 36.4999 29.97 36.4199 31.04 35.5599ZM31.5901 39.5399C30.8901 38.9499 29 38.6599 28.47 38.9499C28.31 39.0399 28.1801 39.1399 28.1801 39.3299C28.1801 39.5599 28.3301 39.7299 28.5301 39.7899C29.5301 40.0899 30.5201 40.1599 31.5801 39.5399H31.5901ZM27.91 37.3299C28.47 37.9599 30.5501 38.2599 31.0901 37.8399C31.4801 37.5399 31.38 37.1799 30.97 37.0699C29.95 36.7999 28.92 36.7499 27.91 37.3299ZM30.98 32.9699C30.44 32.3999 28.6 32.1299 28.17 32.4799C27.8 32.7799 27.8801 33.1199 28.3101 33.2399C29.2101 33.5099 30.0701 33.3099 30.9901 32.9699H30.98Z" fill="#FEFEFE"/>
<path d="M34.42 9.65982C34.19 13.5698 33.9501 17.4298 33.9901 21.3298C33.3501 21.4698 32.81 21.4198 32.1 21.3298C32.1 20.3398 32.1 19.3598 32.1 18.3798C32.1 17.3798 32.0401 16.3898 31.9301 15.3998C31.8601 14.7298 31.5001 14.4898 30.9501 14.4198C30.1301 14.3198 29.3101 14.2198 28.4901 14.2298C25.2901 14.2398 22.11 13.8998 18.91 13.7998C18.79 13.7998 18.6301 13.8098 18.5701 13.6098C19.8901 12.9098 20.2001 11.5398 20.7401 10.3198C20.9301 9.88982 21.07 9.56982 21.66 9.56982C25.76 9.58982 29.8501 9.56982 33.9501 9.56982C34.0501 9.56982 34.1501 9.60983 34.4301 9.66983L34.42 9.65982Z" fill="#F5D5C8"/>
<path d="M8.57006 16.2398L5.12005 15.4598C5.29005 17.0798 5.13003 18.6298 5.04003 20.1898C4.81003 24.0298 5.11003 27.8798 5.29003 31.7198C5.44003 35.1498 5.67003 38.5998 6.23003 42.0098C6.34003 42.7098 6.41003 43.4498 6.42003 44.1498C6.46003 46.4098 7.51005 47.9798 9.37005 49.1198C9.64005 49.2898 9.88004 49.4698 9.99004 49.7798C6.39004 48.7598 4.71006 46.5498 4.51006 42.2498C4.35006 38.8598 4.68003 35.4398 4.60003 32.0398C4.47003 26.5098 4.19003 20.9798 3.98003 15.4498C3.97003 15.1198 3.98003 14.7798 3.98003 14.3198C5.41003 14.4298 6.79005 14.4298 8.12005 14.6698C9.00005 14.8298 8.47007 15.6898 8.58007 16.2398H8.57006Z" fill="#FEFEFE"/>
<path d="M31.06 17.05C25.99 16.98 20.92 16.76 15.85 16.85C14.54 16.87 14.51 16.85 14.54 18.21C14.6 20.75 14.38 23.27 13.93 25.77C13.85 26.22 13.77 26.43 13.31 26.16C13.25 22.48 13.32 18.8 12.76 14.96C19 15.25 25.1 15.48 31.23 15.39L31.06 17.05Z" fill="#FEFEFE"/>
<path d="M19.0801 1.98975C20.0301 3.76975 20.5201 5.57974 20.3101 7.54974C20.2701 7.94974 20.0701 8.24975 19.5801 8.23975C18.4901 8.21975 17.3901 8.23975 16.3101 8.23975C16.2301 6.81975 16.6101 5.97976 19.0801 1.99976V1.98975Z" fill="#F4BDBB"/>
<path d="M19.77 9.65991L18.17 13.1299C17.29 12.1099 16.76 10.9799 16.27 9.65991H19.77Z" fill="#F4BDBB"/>
<path d="M12.2399 16.6499C11.3099 16.7499 10.4099 16.2799 9.4699 16.4799C9.2599 15.9899 9.32994 15.4699 9.31994 14.8999C10.2799 14.6299 11.2099 14.8599 12.1399 14.9999C12.3599 15.5599 12.2599 16.1099 12.2399 16.6499Z" fill="#FEFEFE"/>
<path d="M28.1401 25.9699C28.4201 25.6199 28.7502 25.7199 29.0302 25.7599C30.3902 25.9399 31.7601 25.9399 33.1201 25.9599C33.3901 25.9599 33.8201 25.8399 33.7601 26.3499C33.7101 26.7799 33.3501 26.5999 33.1101 26.5899C31.7101 26.5499 30.3101 26.6499 28.9201 26.3799C28.6301 26.3199 28.2801 26.4199 28.1401 25.9599V25.9699Z" fill="#FEFEFE"/>
<path d="M60.3301 27.44C59.4501 28.32 59.5802 29.5 59.5302 30.56C59.3302 35.45 59.5401 40.3399 59.8601 45.2199C59.9101 45.9699 60.2901 46.41 61.0001 46.64C62.6901 47.18 64.4201 47.41 66.1801 47.44C68.4401 47.48 70.7001 47.48 73.0201 47.75C72.5301 48.87 71.5901 49.3399 70.5901 49.7299C69.1601 50.2999 67.6401 50.44 66.1401 50.51C64.0401 50.6 61.9401 50.53 59.8301 50.53C59.4701 49.98 58.8401 49.95 58.3001 49.76C56.8801 49.26 55.4202 48.85 54.0302 48.27C51.5502 47.23 51.0901 44.92 50.9701 42.64C50.8201 39.79 50.2201 37.01 50.0101 34.18C49.8301 31.81 49.6801 29.43 49.4001 26.97C50.8801 27.13 52.2301 27.35 53.5901 27.39C55.8301 27.47 58.0701 27.43 60.3101 27.44H60.3301Z" fill="#F5EBE0"/>
<path d="M76.4602 31.7998C76.6502 31.7998 76.8001 31.8399 76.8001 32.0699C76.8001 36.6799 76.8001 41.2899 76.8001 46.0799C75.7601 46.0799 74.8101 46.0799 73.8601 46.0799C70.8301 46.0499 67.7902 46.0198 64.7602 45.9898C63.7602 45.9898 62.7701 45.8399 61.7901 45.6499C61.3101 45.5499 61.1001 45.3499 61.0601 44.8399C60.9001 42.6399 60.6402 40.4499 60.5202 38.2599C60.3602 35.3099 60.1301 32.3499 60.4301 29.3899C60.5201 28.4999 60.7501 28.0899 61.7201 28.1299C65.9101 28.3399 70.1101 28.4999 74.3101 28.6699C75.1001 28.6999 75.8901 28.6699 76.6901 28.6699C76.9201 29.7899 76.9401 30.7499 76.2901 31.6199C76.2201 31.7099 76.0901 31.8599 76.1001 31.8799C76.2501 32.0399 76.3602 31.9198 76.4602 31.7998ZM65.3101 40.0998C65.3101 40.0998 65.2301 40.0198 65.1901 39.9798C65.1101 39.5798 64.9002 39.1598 64.4602 39.2898C63.8002 39.4798 63.0902 39.7098 62.7802 40.4798C63.5802 40.7398 64.2401 41.7799 65.0501 40.6499C65.4768 41.1365 66.0902 41.2199 66.8902 40.8999C67.3702 41.5732 67.9901 41.7099 68.7501 41.3099C68.9601 41.1999 69.1701 41.0098 69.4201 41.0998C70.8301 41.5998 72.0102 39.9899 73.5102 40.9399C73.4302 40.0299 72.9301 39.6098 72.4801 39.8498C71.1301 40.5998 69.4901 39.8598 68.1301 40.9298C68.2501 39.1098 67.2602 40.0398 66.5902 40.2198C66.6202 39.5798 66.5201 39.2098 65.8701 39.6598C65.6701 39.7998 65.4901 39.9498 65.3001 40.0998H65.3101ZM65.3601 37.9499C66.6601 37.8799 67.9702 37.7998 69.2702 37.7398C71.3502 37.6498 71.5202 37.5199 72.0202 35.5099C72.2602 34.5299 72.0202 34.0598 71.0302 34.0998C68.6002 34.1998 66.1401 34.0599 63.7301 34.5299C62.0801 34.8499 61.8902 35.2599 62.4002 36.8899C62.6402 37.6499 63.0601 38.0499 63.9101 37.9599C64.3901 37.9099 64.8701 37.9599 65.3501 37.9499H65.3601ZM63.5401 31.8199C64.2701 31.3099 64.9301 30.7599 65.0401 29.7899C64.2601 30.2599 63.4301 30.6899 63.5401 31.8199ZM66.7301 30.1499C65.8701 30.0099 65.6702 30.6999 65.3902 31.2899C65.2702 31.5499 65.3401 31.8599 65.6001 31.8499C66.2101 31.8399 66.3101 31.1999 66.6301 30.8399C66.7801 30.6699 66.9401 30.4699 66.7401 30.1399L66.7301 30.1499ZM73.7501 30.2499C73.1601 30.5499 72.8302 30.8498 73.0302 31.4298C73.1202 31.6898 73.3801 31.8299 73.6001 31.6699C74.0701 31.3299 73.9401 30.8699 73.7501 30.2599V30.2499ZM69.9401 30.5099C69.1201 30.4299 69.0202 31.0098 68.8302 31.4598C68.7602 31.6298 68.8801 31.8598 69.0601 31.8598C69.6301 31.8598 69.7001 31.3299 69.9301 30.9699C69.9901 30.8799 69.9301 30.7199 69.9301 30.5099H69.9401ZM67.0802 31.9499C67.6302 31.3999 68.1701 31.0999 67.9801 30.1699C67.3201 30.5899 66.9302 30.9799 67.0802 31.9499ZM71.4801 31.8099C71.5401 31.2699 72.1001 30.8399 71.5501 30.3399C71.3901 30.1899 71.1402 30.3598 71.0802 30.5798C70.9502 31.0198 70.6301 31.5399 71.4801 31.8199V31.8099ZM74.8801 31.6699C75.5401 31.2399 75.8801 30.9199 75.6901 30.2599C74.9201 30.3899 74.9301 30.9099 74.8801 31.6699Z" fill="#FEFEFE"/>
<path d="M73.9901 47.71H76.7901C76.7901 49.54 76.9701 51.37 76.6001 53.23H44.6101C44.7701 42.83 44.9301 32.48 45.0901 22.11C46.0201 21.89 46.8501 21.96 47.6501 22.03C50.8501 22.33 54.0601 22.17 57.2601 22.18C58.1001 22.18 58.6801 22.33 59.0801 23.13C59.3501 23.66 59.8101 24.1 60.1801 24.58C59.9101 24.83 59.6201 24.72 59.3701 24.72C55.8901 24.73 52.4101 24.74 48.9301 24.72C47.4101 24.72 47.3901 24.7 47.4401 26.22C47.6301 31.66 47.7201 37.0999 47.6401 42.5399C47.6201 43.5799 47.7301 44.61 47.9001 45.62C48.4301 48.7 50.3301 50.5599 53.2901 51.3499C54.8901 51.7799 56.5101 52.04 58.1801 52.01C61.6201 51.95 65.0701 52.19 68.4901 51.59C69.2301 51.46 69.9701 51.26 70.6801 51.03C72.3101 50.5 73.5501 49.54 73.9801 47.69L73.9901 47.71Z" fill="#F5D5C8"/>
<path d="M60.3302 27.4398C58.0902 27.4298 55.8501 27.4699 53.6101 27.3899C52.2501 27.3399 50.9001 27.1198 49.4201 26.9698C49.6901 29.4298 49.8502 31.8098 50.0302 34.1798C50.2402 37.0198 50.8501 39.7999 50.9901 42.6399C51.1101 44.9199 51.5601 47.2299 54.0501 48.2699C55.4401 48.8499 56.9002 49.2599 58.3202 49.7599C58.8602 49.9499 59.4901 49.9799 59.8501 50.5299C58.0201 50.6499 56.2101 50.4999 54.4101 50.1399C51.0901 49.4699 49.5202 47.6698 49.0802 44.2198C48.7802 41.8598 48.9201 39.4798 48.7401 37.1198C48.5501 34.5198 48.5001 31.8999 48.4401 29.2899C48.4101 28.2199 47.7902 27.1698 48.3302 26.0798C56.7102 25.3698 65.2002 26.3398 73.6402 25.0798C73.8402 25.7398 73.4601 26.2498 73.5401 26.7798C72.9001 26.8498 72.2501 26.9798 71.6101 26.9898C69.2101 27.0198 66.8301 27.3498 64.4301 27.2098C64.1901 27.1998 63.9502 27.2099 63.7802 27.4199L60.3402 27.4398H60.3302Z" fill="#FEFEFE"/>
<path d="M61.9001 24.81C62.8001 23.94 63.5301 23.36 63.9301 22.5C64.0501 22.24 64.3001 22.23 64.5501 22.23C68.6101 22.23 72.6801 22.23 76.7401 22.23C76.8001 22.23 76.8601 22.28 77.0801 22.39C76.7901 24.09 76.8601 25.86 76.8101 27.65C76.0701 27.91 75.3601 27.79 74.5701 27.76C74.6901 26.97 74.8201 26.24 74.9201 25.51C75.0101 24.83 74.7401 24.5 74.0101 24.49C71.4301 24.47 68.8602 24.72 66.2802 24.86C64.9102 24.94 63.5601 24.98 61.9001 24.81Z" fill="#F5D5C8"/>
<path d="M61.29 16.1899C62.41 17.1999 63.2801 19.5099 63.0801 20.9899C62.0501 20.9899 61.0001 21.0199 59.9501 20.9799C59.0601 20.9399 59.37 20.2099 59.47 19.8099C59.8 18.4699 60.55 17.3399 61.3 16.1799L61.29 16.1899Z" fill="#F4BDBB"/>
<path d="M63.77 27.4198C63.94 27.1998 64.18 27.1898 64.42 27.2098C66.82 27.3498 69.21 27.0198 71.6 26.9898C72.24 26.9898 72.89 26.8498 73.53 26.7798C73.75 27.0498 73.74 27.3398 73.64 27.7698C70.35 27.9398 67.06 27.6898 63.76 27.4198H63.77Z" fill="#F5EBE0"/>
<path d="M59.8801 22.2798H62.7101C62.3901 23.1798 61.6001 23.4598 61.0201 23.9898C60.4201 23.5798 60.1901 22.9898 59.8701 22.2798H59.8801Z" fill="#F4BDBB"/>
<path d="M28.6901 30.0098L28.47 30.9998C27.94 30.4298 27.7801 29.7598 28.1201 29.3698C28.6201 28.7998 29.44 28.9198 30.16 29.0498C30.68 29.1398 30.57 29.4798 30.42 29.8298C30.82 29.9298 31.21 30.0398 31.61 30.1298C32 30.2198 32.44 30.2098 32.68 30.6198C31.8 31.4098 30.3401 31.3898 29.8801 30.4698C29.5801 29.8698 29.2801 29.7898 28.7001 30.0198L28.6901 30.0098Z" fill="#5A9DBB"/>
<path d="M31.0302 35.5598C29.9702 36.4198 28.3202 36.4998 27.4302 35.7298C28.2602 34.7298 30.3402 34.6298 31.0302 35.5598Z" fill="#5A9DBB"/>
<path d="M31.59 39.54C30.52 40.16 29.5399 40.08 28.5399 39.79C28.3399 39.73 28.1899 39.57 28.1899 39.33C28.1899 39.13 28.3199 39.04 28.4799 38.95C29.0099 38.66 30.8999 38.95 31.5999 39.54H31.59Z" fill="#5A9DBB"/>
<path d="M27.9102 37.3299C28.9202 36.7599 29.9502 36.7999 30.9702 37.0699C31.3802 37.1799 31.4802 37.5399 31.0902 37.8399C30.5602 38.2499 28.4702 37.9499 27.9102 37.3299Z" fill="#5A9DBB"/>
<path d="M30.98 32.9698C30.06 33.3098 29.21 33.5098 28.3 33.2398C27.88 33.1098 27.79 32.7798 28.16 32.4798C28.59 32.1298 30.44 32.4098 30.97 32.9698H30.98Z" fill="#5A9DBB"/>
<path d="M65.37 37.9498C64.89 37.9498 64.4 37.9098 63.93 37.9598C63.09 38.0498 62.66 37.6498 62.42 36.8898C61.91 35.2598 62.1 34.8498 63.75 34.5298C66.16 34.0598 68.61 34.1998 71.05 34.0998C72.03 34.0598 72.28 34.5298 72.04 35.5098C71.54 37.5198 71.38 37.6498 69.29 37.7398C67.99 37.7998 66.68 37.8798 65.38 37.9498H65.37ZM63.37 35.4398C63.66 35.9898 63.46 36.6698 64.32 36.6798C66.17 36.6898 68.02 36.5998 69.87 36.4698C70.27 36.4398 70.74 36.3998 70.54 35.6698C68.2 35.8298 65.85 35.5498 63.38 35.4498L63.37 35.4398Z" fill="#5A9DBB"/>
<path d="M65.3101 40.0998C65.5001 39.9498 65.6901 39.7998 65.8801 39.6598C66.5301 39.2098 66.63 39.5798 66.6 40.2198C67.27 40.0398 68.2601 39.0998 68.1401 40.9298C69.5001 39.8698 71.1301 40.5998 72.4901 39.8498C72.9401 39.5998 73.4401 40.0298 73.5201 40.9398C72.0201 39.9898 70.8401 41.5998 69.4301 41.0998C69.1801 41.0098 68.9701 41.1998 68.7601 41.3098C68.0001 41.7098 67.3801 41.5732 66.9001 40.8998C66.0934 41.2198 65.4801 41.1365 65.0601 40.6498C64.2501 41.7798 63.59 40.7398 62.79 40.4798C63.1 39.6998 63.81 39.4698 64.47 39.2898C64.91 39.1698 65.1101 39.5798 65.2001 39.9898C65.1701 40.0398 65.1 40.1098 65.11 40.1298C65.19 40.2598 65.2601 40.1798 65.3201 40.0998H65.3101Z" fill="#5A9DBB"/>
<path d="M63.5401 31.8198C63.4301 30.6798 64.2601 30.2498 65.0401 29.7898C64.9301 30.7598 64.2701 31.3198 63.5401 31.8198Z" fill="#5A9DBB"/>
<path d="M66.7401 30.1599C66.9401 30.4799 66.7801 30.6899 66.6301 30.8599C66.3101 31.2199 66.2101 31.8599 65.6001 31.8699C65.3401 31.8699 65.2701 31.5599 65.3901 31.3099C65.6701 30.7199 65.8701 30.0299 66.7301 30.1699L66.7401 30.1599Z" fill="#5A9DBB"/>
<path d="M73.75 30.26C73.94 30.87 74.0699 31.33 73.5999 31.67C73.3799 31.83 73.12 31.69 73.03 31.43C72.83 30.85 73.16 30.56 73.75 30.25V30.26Z" fill="#5A9DBB"/>
<path d="M69.94 30.5199C69.94 30.7299 69.99 30.8899 69.94 30.9799C69.71 31.3399 69.64 31.8699 69.07 31.8699C68.89 31.8699 68.7701 31.6399 68.8401 31.4699C69.0301 31.0199 69.1201 30.4399 69.9501 30.5199H69.94Z" fill="#5A9DBB"/>
<path d="M67.09 31.9599C66.93 30.9899 67.32 30.5999 67.99 30.1799C68.18 31.1099 67.64 31.4099 67.09 31.9599Z" fill="#5A9DBB"/>
<path d="M71.48 31.8199C70.63 31.5399 70.95 31.0299 71.08 30.5799C71.14 30.3699 71.39 30.1999 71.55 30.3399C72.1 30.8399 71.54 31.2699 71.48 31.8099V31.8199Z" fill="#5A9DBB"/>
<path d="M74.8801 31.6798C74.9301 30.9298 74.9201 30.3998 75.6901 30.2698C75.8801 30.9198 75.5401 31.2498 74.8801 31.6798Z" fill="#5A9DBB"/>
<path d="M76.4602 31.7999C76.3602 31.9199 76.2502 32.0399 76.1002 31.8799C76.0902 31.8599 76.2202 31.7099 76.2902 31.6199C76.3502 31.6799 76.4102 31.7399 76.4602 31.7999Z" fill="#5A9DBB"/>
<path d="M63.3601 35.45C65.8401 35.55 68.1801 35.8299 70.5201 35.6699C70.7301 36.4099 70.2601 36.4399 69.8501 36.4699C68.0001 36.6099 66.1601 36.6899 64.3001 36.6799C63.4401 36.6799 63.6401 35.9899 63.3501 35.4399L63.3601 35.45Z" fill="#FEFEFE"/>
<path d="M65.3101 40.0997C65.2501 40.1797 65.1801 40.2498 65.1001 40.1298C65.0901 40.1098 65.1601 40.0397 65.1901 39.9897C65.2301 40.0297 65.2701 40.0697 65.3101 40.1097V40.0997Z" fill="#FEFEFE"/>
</svg>
