<svg width="492" height="177" viewBox="0 0 492 177" fill="none" xmlns="http://www.w3.org/2000/svg">
<path d="M32.1599 156.48C37.5899 147.94 43.2299 139.51 48.9999 131.2C70.7499 99.92 93.4799 69.7 119.15 41.51L150.88 9.39996L166.31 10.67C160.15 14.67 153.64 19.55 149.17 25.45C148.19 26.74 146.83 28.65 146.63 30.23C146.06 30.88 144.6 32.89 144.48 33.73C144.34 34.72 144.56 35.21 145.65 35C145.69 34.63 145.77 34.35 146.02 34.05C152.61 26.25 161.76 20 169.08 12.95C169.65 12.4 170.33 11.94 170.15 11.02C180.1 11.87 190.03 12.99 199.91 14.38C200 14.8 199.69 14.97 199.43 15.22C195.74 18.82 189.45 22.73 186.47 26.98C186.18 27.4 185.91 27.75 185.99 28.3C186.44 28.4 186.56 28.04 186.83 27.82C190.29 24.97 193.61 21.31 197.03 18.34C197.69 17.76 200.77 15.03 201.28 14.91C202.42 14.65 203.85 15.14 204.95 15.46C203.28 16.99 201.44 18.35 199.78 19.89C198.41 21.17 196.08 23.29 194.98 24.69C194.7 25.04 194.33 25.4 194.39 25.89L206.09 15.61L218.87 18.21C218.98 18.67 218.7 18.67 218.47 18.89C216.4 20.77 213.15 22.61 210.84 24.46C206.53 27.9 197.81 35.35 195.62 40.2C195.48 40.51 195.1 41.03 195.59 41.25C195.52 41.43 195.3 42.64 195.35 42.69L196.44 42.46L223.67 19.41C223.85 19.61 228.26 20.36 228.95 20.61L226.79 22.77C223.85 24.55 219.14 28.42 216.36 30.7C213.3 33.21 203.03 42.46 201.74 45.6C201.47 46.27 200.95 47.49 202.06 47.49C202.55 46.52 203.65 45.96 204.47 45.09C206.78 43.94 209 42.12 211.06 40.52C218.64 34.63 225.67 28.04 233.26 22.15H234.48L255.83 28.05C254.12 29.31 251.65 31.49 250.07 32.97C249.08 33.89 246.44 36.23 246.48 37.55C246.4 38.11 247.06 38.02 247.2 38.13C247.23 38.15 247.09 38.55 247.36 38.62C248.23 38.84 251.13 36.91 251.98 36.31C253.4 35.31 254.76 34.1 256.09 32.98C256.71 32.46 259.8 29.38 260.1 29.3C260.72 29.12 262.26 29.71 263.01 29.91C263.43 30.02 263.91 29.76 263.77 30.46C261.29 32.14 257.44 34.96 255.24 36.93C254.57 37.53 253.93 38.21 253.45 38.98C253.68 39.28 254.36 39 254.65 39.1C254.74 39.13 254.69 39.67 255.67 39.54C258.63 39.14 264.54 35.22 267.01 33.33C267.8 32.72 268.45 31.56 269.62 31.67C298.33 38.74 326.51 47.72 354.26 57.82C354.38 58.38 354.19 58.2 353.95 58.35C348.82 61.66 345.28 63.89 341.31 68.74C340.19 70.1 338.81 71.81 338.18 73.41C337.81 73.73 336.77 76.09 336.98 76.29L338.27 76.02C344.58 70.95 350.86 65.86 357.3 60.96C358.06 60.38 358.3 60.89 358.1 59.25C359.82 59.5 362.31 60.97 364.1 61.41C358.83 64.88 353.37 69.42 348.85 73.88C347.61 75.11 345.71 76.56 345.86 78.45C346.13 78.72 347.47 77.97 347.78 77.73C348.16 78.27 349.06 77.58 349.46 77.37C356.52 73.69 363.4 68.71 368.8 62.88L391.7 70.29C391.8 70.65 391.61 70.69 391.46 70.89C387.59 76.42 382.68 81.64 379.02 87.49C378.86 87.75 378.22 88.94 378.26 89.12C378.33 89.43 378.92 89.43 378.98 89.49C379.2 89.71 379 90.69 380.07 89.98C385.64 84.12 391.72 78.72 397.13 72.71C397.34 72.48 397.68 72.48 397.7 72.45L405.62 75.33C401.78 78.32 396.23 82.8 393.01 86.36C392.6 86.81 391.3 89.06 391.22 89.61C391.03 90.16 392.12 90.02 392.42 89.97C395.36 89.51 402.37 83.65 404.66 81.45C405.47 80.67 408.64 76.81 409.33 76.78C417.87 79.56 426.51 82.37 435.34 84.13C439.29 84.92 443.98 85.7 448 85.66C449.11 85.65 450.44 85.01 451.47 85.65C447.3 91.37 442.92 97.02 438.51 102.45C437.97 102.36 437.78 102.63 437.42 102.92C434.47 105.36 430.46 110.03 427.83 113.01C423.26 118.17 419.27 123.79 414.99 129.09C403.63 143.18 390.45 155.35 379.6 170.14C378.51 171.63 376.84 175.16 378.03 176.85H342.75C344.88 174.06 348.29 172.01 350.42 169.28C350.68 168.95 351.26 168.28 351.14 167.86C350.96 167.4 350.38 167.58 350.18 167.48C349.84 167.31 350.01 166.82 348.92 167.05C347.58 167.32 343.46 170.84 342.26 171.92C340.57 173.44 339.02 175.19 337.46 176.84H333.38C334.97 174.89 336.69 173.02 338.41 171.19C341.55 167.87 345.11 164.61 348.14 161.24C348.96 160.33 350.12 159.26 350.18 158.12C350.24 156.98 350.18 156.92 348.97 157.27C345.08 158.42 335.86 167.51 333.01 170.83C331.48 172.61 329.69 174.67 328.81 176.83H272.89L280.68 167.71L280.81 166.51C280.57 166.52 280.32 166.48 280.09 166.51C278.01 166.74 271.23 173.32 269.65 175.15C269.25 175.61 268.73 176.24 268.57 176.83H265.93C266.12 176.2 266.71 175.54 267.14 175.04C272.56 168.53 278.68 162.24 283.69 155.47C283.87 155.22 285.56 154.13 284.01 153.83C283.13 153.65 274.61 160.5 273.36 161.59C268.22 166.07 263.15 171.29 259.2 176.83H243.36C243.5 176.19 243.04 176.36 242.64 176.24C232.85 173.3 223.2 170.01 213.36 167.23C216.76 163.33 221.02 160.11 223.92 155.81L223.55 154.99C222.79 154.77 222.29 156.01 221.88 156.43C218.57 159.8 215.17 163.12 212.16 166.75C211.85 166.66 211.45 166.65 210.96 166.51L221.39 150.9L221.15 149.95L209.27 165.79C208.22 165.5 206.73 165.42 205.43 165.07L222.71 147.07L221.62 147.3C215.76 153.09 209.58 158.54 203.99 164.59C183.81 159.19 163.36 154.44 142.55 151.87C142.77 150.8 146.24 145.8 145.67 145.15C145.24 145.06 145.07 145.36 144.85 145.64C144.04 146.64 142.84 148.7 142.13 149.88C141.81 150.41 141.35 150.98 141.36 151.63C140.28 151.5 139.08 151.51 138 151.39L143.47 141.86C143.25 139.75 141.58 142.89 141.11 143.59C139.49 146.03 137.98 148.6 136.55 151.15C112.72 148.74 88.5499 148.77 64.7899 151.63C66.9899 148.33 69.4899 145.03 71.3999 141.56C72.1499 140.19 74.1099 136.49 74.3499 135.14C74.3999 134.86 74.4799 134.6 74.2799 134.35C73.9499 133.87 73.7499 134.35 73.6799 134.35C72.5599 134.46 72.6399 134.51 71.8799 135.31C69.2099 138.09 61.1299 147.47 59.8299 150.62C59.2499 152.03 59.7399 151.45 60.2399 151.87C60.2799 151.9 60.2099 152.22 60.2399 152.35C58.5099 152.56 56.2199 152.94 54.5699 153.04C54.2099 153.06 53.8999 153.24 53.9999 152.71L72.4399 127.23L72.7099 125.94C72.3999 125.96 72.0599 125.9 71.7499 125.94C68.5399 126.37 58.9099 139.52 56.6699 142.66C54.2499 146.07 51.7599 149.69 50.1499 153.54C44.1599 154.53 38.1399 155.41 32.1499 156.42L32.1599 156.48ZM177.84 14.64C177.52 14.72 177.1 14.52 176.7 14.71C176.63 14.74 176.6 15.05 176.46 15.12C170.45 18.23 160.12 26.21 155.87 31.44C155.06 32.43 154.58 33.2 154.79 34.56C155.11 34.54 155.44 34.59 155.75 34.56C157.87 34.36 164.22 29.37 166.18 27.83C169.01 25.62 176.87 19.53 178.51 16.88C178.82 16.38 179.86 14.41 178.89 14.17C178.52 14.08 178.05 14.58 177.83 14.64H177.84ZM238.8 40.08C238.61 39.88 237.87 40.29 237.61 40.45C234.05 42.68 226.46 49.51 223.79 52.79C223.29 53.41 222.58 54.08 222.71 54.95C223.16 55.05 223.28 54.69 223.55 54.47C226.38 52.15 229.22 48.75 232.07 46.19C234.12 44.34 236.45 42.71 238.5 40.87C238.74 40.66 239.05 40.34 238.79 40.08H238.8ZM274.56 60C273.34 61.15 271.46 63.25 270.36 64.56C269.88 65.14 268.83 66.4 268.78 67.08C268.69 68.34 269.29 68.35 270.23 67.79C271.34 67.12 274.19 64.5 275.29 63.49C277.07 61.85 278.63 59.83 280.36 58.24C285.46 53.52 291.57 49.12 296.41 44.29C297.22 43.49 297.15 43.41 297.61 42.49C297.68 42.35 298.77 41.3 297.5 41.29C297.21 41.29 294.12 42.67 293.6 42.93C286.77 46.4 280.64 52.38 275.77 58.22C275.35 58.73 274.75 59.39 274.56 60.01V60ZM156 43.68C155.55 43.58 155.43 43.94 155.16 44.16C151.55 47.13 142.91 56.93 140.45 60.89C140.05 61.53 139.54 62.03 139.69 62.88C140.29 63 140.29 62.8 140.61 62.48C143.3 59.82 146.25 55.47 148.81 52.44C150.74 50.16 152.93 48.03 154.8 45.71C155.05 45.39 156.3 44 156.01 43.68H156ZM199.44 44.16L198.35 44.39C195.11 47.69 191.49 50.68 188.4 54.12C187.93 54.65 185.26 57.55 185.77 58.09C186.26 58.19 186.41 57.98 186.74 57.74C188.4 56.52 191.15 53.36 192.74 51.74C194.49 49.95 196.82 47.7 198.38 45.86C198.56 45.64 199.64 44.34 199.46 44.18L199.44 44.16ZM226.32 57.12C226.63 57.43 228.4 55.85 228.72 55.56C231.51 53.11 236.28 48.71 238.41 45.81C238.64 45.49 239.33 44.84 238.79 44.51L238.07 44.75C235 48.16 230.97 50.9 227.99 54.35C227.65 54.74 225.92 56.71 226.32 57.12ZM302.88 48C303.38 47.45 304 46.89 303.84 46.08L302.65 46.2C298.02 49.97 293.29 53.59 288.96 57.71C287.27 59.32 281.43 64.87 280.92 66.71C280.81 67.12 280.77 67.5 280.81 67.92C280.98 68.11 282.04 67.38 282.25 67.2C282.77 67.38 283.13 67.48 283.69 67.34C287.87 66.29 299.56 55.67 301.84 51.87C302.41 50.92 303.49 49.02 302.89 48H302.88ZM159.36 46.56C158.87 46.46 158.72 46.67 158.39 46.91C156.7 48.15 154.69 51.48 152.76 52.8C152.12 53.77 145.31 61.05 145.92 61.68C146.37 61.78 146.49 61.42 146.76 61.2C149.82 58.68 155.89 51.64 158.39 48.35C158.61 48.06 159.66 46.85 159.36 46.56ZM198.72 49.68L195.12 52.44C193.29 54.44 191.17 56.19 189.36 58.2C188.95 58.65 186.37 61.52 186.73 61.93C187.37 61.74 188.14 61.06 188.65 60.61C190.61 58.9 197.14 52.75 198.38 50.9C198.67 50.47 198.83 50.26 198.73 49.69L198.72 49.68ZM151.92 79.44C151.89 79.8 151.85 80.64 152.03 80.89L153.08 81.07C153.29 80.62 153.52 80.18 153.85 79.8C160.85 71.7 168.27 63.99 176.28 56.87L176.4 55.67C176.08 55.67 175.76 55.66 175.44 55.67C168.23 55.93 152.53 72.33 151.92 79.43V79.44ZM321.6 57.36C321.1 56.9 318.72 59.69 318.24 60.12C316.12 62.05 313.8 63.87 311.75 65.87C311.45 66.17 308.97 68.54 309.35 68.87C309.79 68.93 310.06 68.87 310.44 68.64C311.36 68.1 313.68 65.79 314.63 64.91C316.45 63.22 319.23 60.65 320.75 58.79C320.92 58.58 321.78 57.53 321.59 57.35L321.6 57.36ZM322.56 58.56C321.29 58.3 321.58 59.1 321.12 59.64C319.3 61.81 317.33 63.87 315.61 66.13C315.08 66.83 312.18 70.4 312.72 71.04C313.34 70.99 313.88 70.27 314.28 69.84C316.52 67.44 319.47 63.54 321.31 60.79C321.52 60.48 322.78 58.75 322.55 58.56H322.56ZM101.28 85.92C100.9 86.47 99.7799 88.39 99.4699 89.03C98.9099 90.2 98.5199 91.68 100.32 91.57C106.98 82.26 114.93 73.97 121.91 64.91C122.82 63.73 125.03 61.34 125.04 60C125.04 59.62 125.12 59.21 124.82 58.9C123.95 58.29 121.7 60.24 120.96 60.83C114.68 65.87 104.31 77.48 101.34 84.89C101.24 85.15 100.86 85.76 101.28 85.91V85.92ZM178.8 61.44C178.96 60.48 180.1 60.21 180.24 59.16C180.34 58.45 179.42 58.86 179.14 59.03C177.98 59.74 175.28 62.49 174.11 63.6C170.02 67.44 165.53 72.07 161.87 76.32C160.98 77.36 157.64 81.29 157.67 82.44C157.74 82.69 158.18 82.53 158.39 82.56C158.43 82.56 158.52 82.77 158.71 82.75C159.15 82.71 163.33 79.51 164.03 78.96C168.36 75.51 177.5 67.83 178.87 62.59C178.98 62.17 179.2 61.82 178.79 61.44H178.8ZM326.64 60C326 59.87 326.12 60.05 325.85 60.3C323.84 62.16 321.29 64.8 319.43 66.84C319.09 67.21 316.54 70.06 316.8 70.33C317.25 70.43 317.37 70.08 317.64 69.85C319.77 68.08 324.7 63.15 326.29 60.98C326.53 60.65 326.74 60.5 326.64 60.01V60ZM132.96 64.56C133.28 63.74 134.35 62.55 132.72 62.51C125.53 69.52 118.68 76.71 112.94 84.98C111.24 87.44 109.16 89.99 109.2 93.12C109.53 93.13 109.67 93.2 109.93 92.96C110.18 92.73 111.61 90.18 112.08 89.52L112.2 90.72C112.86 90.78 115.54 88.55 116.16 87.96C121.09 83.33 130.52 70.76 132.96 64.56ZM242.64 82.32L262.44 63.36H261.72C257.61 67.26 253.09 70.72 249 74.63C247.36 76.2 244.58 78.72 243.37 80.52C243.01 81.06 242.61 81.63 242.65 82.32H242.64ZM218.88 64.08C216.46 64.69 213.66 67.16 211.57 68.89C204.35 74.84 201.05 79.21 196.32 87.12C194.89 89.51 192.66 91.75 192.24 94.56C192.55 94.87 194.63 93.02 195.01 92.65C199.07 88.72 203.35 83.87 207.24 79.68C211.13 75.49 216.27 70.37 219.83 65.87C220.22 65.38 220.98 64.61 220.78 63.99C220.49 63.09 219.42 63.95 218.88 64.08ZM373.44 68.64C372.71 68.58 372.15 69.17 371.64 69.59C368.36 72.29 359.09 82.26 357.48 85.91C357.22 86.5 356.8 87.08 357.49 87.6L373.44 68.64ZM376.32 69.36C376.01 69.06 375.72 69.48 375.53 69.66C372.84 72.14 368.82 76.67 366.49 79.57C366.18 79.96 363.41 83.03 364.69 83.28C365.33 83.04 365.9 82.34 366.37 81.84C368.6 79.47 371.13 76.56 373.2 74.03C373.67 73.45 376.77 69.8 376.32 69.36ZM261.12 70.32C260.81 70.01 259.04 71.59 258.72 71.88C255.54 74.68 251.7 78.33 248.88 81.48C248.44 81.97 245.76 84.95 246.25 85.45C246.74 85.55 246.89 85.34 247.22 85.1C249.1 83.72 259.65 73.1 260.78 71.3C260.98 70.98 261.27 70.84 261.13 70.34L261.12 70.32ZM222.96 74.4C223.61 73.28 226.71 70.51 223.44 70.92C217.16 76.41 211.13 82.14 205.92 88.68C204.25 90.77 202 93.18 202.08 95.99C202.61 96.18 202.98 95.58 203.28 95.51C203.33 95.5 203.63 95.81 204.16 95.58C204.65 95.37 208.12 92.77 208.78 92.26C215.27 87.13 218.91 81.34 222.96 74.4ZM377.28 71.76C376.99 71.42 375.94 73.06 375.79 73.27C374.59 74.88 372.77 77.44 371.85 79.17C371.67 79.5 371.43 79.72 371.53 80.16C373.1 78.6 374.58 76.57 375.8 74.72C376.11 74.25 377.68 72.22 377.28 71.77V71.76ZM184.56 73.2C183.66 73.03 183.3 73.6 182.76 74.16C178.37 78.67 173.7 84.48 169.69 89.41C168.43 90.96 165.13 94.59 164.44 96.16C164.21 96.69 164.07 97.08 164.16 97.68C164.41 97.96 165.97 96.25 166.2 96C168.34 93.7 170.52 90.88 172.55 88.43C176.25 83.98 180.73 78.89 184.07 74.27C184.3 73.95 184.61 73.64 184.55 73.19L184.56 73.2ZM260.64 75.12C260.41 74.89 259.9 75.3 259.67 75.47C258.45 76.37 253.49 81.22 252.48 82.44C252.26 82.71 251.9 82.83 252 83.28C252.48 83.38 252.64 83.17 252.97 82.93C255.09 81.37 258.29 78.01 260.24 76.04C260.45 75.83 260.94 75.42 260.64 75.12ZM169.68 96.96C169.92 97.24 171.05 95.97 171.24 95.76C173.91 92.97 176.84 89.32 179.27 86.27C180.17 85.15 182.51 82.47 183 81.36C183.33 80.61 182.68 80.48 182.03 81.12C179.41 83.68 175.89 88.14 173.52 91.09C172.59 92.25 170.43 94.67 169.9 95.87C169.73 96.25 169.59 96.52 169.68 96.97V96.96ZM423.36 83.04C422.86 82.97 422.51 83.09 422.07 83.31C419.71 84.49 412.34 91.47 410.64 93.72C410.25 94.23 408.35 96.49 409.8 96.48C412.46 94.11 414.87 91.3 417.47 88.79C419.09 87.22 421.62 85.4 423.06 83.83C423.3 83.57 423.49 83.68 423.36 83.04ZM303.12 83.76C302.48 83.66 302.13 84.01 301.68 84.35C299.84 85.73 296.91 89.12 295.32 90.95C294.59 91.79 288.72 98.92 289.44 99.59C290.08 99.72 289.96 99.54 290.23 99.29C290.57 98.97 291.12 98.31 291.48 97.91C294.91 94.19 298.7 89.71 301.91 85.78C302.16 85.48 303.42 84.06 303.12 83.75V83.76ZM419.52 92.16C419.46 92.25 419.45 92.52 419.29 92.76C418.56 93.85 416.68 95.1 415.92 96.36C415.82 96.94 416.35 96.76 416.64 96.6C419.79 94.77 423.52 89.26 426.72 87L427.2 85.68C426.93 85.65 426.72 85.68 426.48 85.8C425.23 86.46 422.99 89.69 421.44 90.48C421.26 89.16 426.86 85.42 426 84.48C425.47 84.51 424.95 84.99 424.56 85.32C421.68 87.67 416.46 92.68 414.12 95.52C413.79 95.92 412.34 97.53 413.4 97.68C414.66 97.31 417.55 93.3 418.92 92.39C419.16 92.23 419.45 92.21 419.52 92.16C419.92 91.56 420.12 90.59 421.2 90.72C420.89 91.52 420.03 91.79 419.52 92.16ZM330.91 86.83L330.6 85.68C330.27 85.7 330.04 85.89 329.78 86.06C327.98 87.23 323.65 91.72 322.08 93.48C320.51 95.24 318.17 97.75 318.01 100.09L330.91 86.84V86.83ZM324.72 98.64C325.2 98.7 325.52 98.23 325.8 97.92C328.31 95.2 331.25 91.74 333.45 88.77C333.71 88.41 335.52 86.39 334.43 86.16C334.07 86.08 333.93 86.46 333.74 86.66C331.92 88.54 329.73 91.38 328.08 93.48C327.58 94.12 324.27 98.14 324.71 98.63L324.72 98.64ZM184.56 86.64C184.33 86.37 183.42 87.4 183.24 87.6C182.18 88.7 180.98 90.34 180.01 91.57C178.73 93.2 177.06 95.03 176.4 96.96C177.05 96.48 177.66 95.88 178.2 95.28C179.85 93.46 182.65 90.28 183.93 88.29C184.28 87.75 184.69 87.37 184.55 86.63L184.56 86.64ZM302.4 89.76C301.95 89.66 301.83 90.02 301.56 90.24C299.67 91.8 297.32 94.48 295.69 96.37C294.99 97.19 290.06 103.02 290.64 103.68C291.2 103.69 291.61 103.09 291.96 102.72C294.74 99.83 297.91 95.91 300.47 92.75C300.82 92.32 302.76 90.16 302.39 89.76H302.4ZM146.4 92.16C145.91 92.06 145.76 92.27 145.43 92.51C144.07 93.51 141.05 97.17 139.8 98.64C139.18 99.37 137.21 101.56 136.92 102.24C136.77 102.58 136.9 102.9 137.17 102.96C137.65 103.06 141.16 99.05 141.73 98.41C142.9 97.08 144.4 95.36 145.44 93.96C145.66 93.67 146.71 92.46 146.41 92.17L146.4 92.16ZM303.6 93.36C303.13 93.26 302.96 93.46 302.63 93.71C301.35 94.69 297.5 99.67 296.44 101.2C296.23 101.51 295.17 102.91 295.44 103.2C295.91 103.31 296.01 102.95 296.26 102.7C297.83 101.1 299.76 98.63 301.2 96.84C301.53 96.42 303.88 93.63 303.6 93.37V93.36ZM149.28 94.08C148.79 93.97 148.64 94.19 148.31 94.43C146.93 95.44 141.06 102.6 140.1 104.22C139.88 104.59 139.57 104.85 139.68 105.35C140.17 105.46 140.32 105.24 140.65 105C142 104.01 147.98 96.65 148.93 95.04C149.11 94.72 149.41 94.57 149.28 94.07V94.08ZM271.92 97.68C265.71 100.15 252.48 114.67 248.44 120.4C246.55 123.08 245.52 125.29 244.08 128.16C243.1 130.1 241.49 131.91 241.44 134.16C241.95 134.66 243.11 132.64 243.48 132.24C253.61 120.93 264.12 109.88 273.69 98.12C274.15 96.56 272.62 97.41 271.93 97.69L271.92 97.68ZM230.32 97.47C229.9 97.51 226.54 101.12 225.96 101.76C224.59 103.26 218.5 110.46 218.4 111.98C218.38 112.38 218.44 112.56 218.76 112.8L230.76 98.4C231.04 98.03 230.84 97.42 230.32 97.47ZM371.52 97.44C371.21 97.13 369.44 98.71 369.12 99C366.81 101.03 363.44 104.36 361.44 106.68C361.09 107.08 359.38 109.02 359.77 109.45C360.23 109.55 360.34 109.22 360.59 108.95C363.43 105.82 366.44 102.78 369.49 99.85C370.2 99.16 371.58 98.63 371.54 97.46L371.52 97.44ZM379.92 97.68C379.64 97.38 378.39 98.43 378.13 98.65C374.69 101.46 370.53 105.42 367.56 108.72C367.19 109.13 364.45 112.21 364.8 112.56C365.29 112.61 365.65 112.24 366 111.97C368.54 110.01 371.61 106.29 374.03 103.92C375.61 102.37 378.29 100.4 379.57 98.66C379.81 98.33 380.02 98.18 379.92 97.69V97.68ZM319.44 123.6C318.52 125.3 317.4 126.1 316.36 127.6C315.95 128.2 314.29 130.66 315.14 131.26C316.05 131.9 317.93 129.08 318.47 128.52C325.37 121.42 332.68 114.71 339.61 107.65C341.79 105.43 345.07 102.39 346.92 100.09C347.29 99.63 348.09 98.77 347.65 98.15C347.25 97.67 346.16 98.07 345.83 98.4C345.42 98.08 345.2 97.83 344.63 98.01C344.11 98.18 341.66 99.78 341.05 100.21C333.8 105.25 323.6 115.87 319.43 123.59L319.44 123.6ZM235.92 98.88C235.68 98.6 234.32 100.1 234.12 100.32C230.48 104.14 221.87 113.24 219.65 117.53C219.39 118.02 218.86 118.9 219.49 119.28C223.81 113.95 228.49 108.89 232.8 103.56C233.3 102.94 236.35 99.37 235.92 98.89V98.88ZM90.9599 100.08C90.5299 99.99 90.3799 100.31 90.1199 100.55C88.0999 102.38 81.6799 111.62 80.6699 114.14C80.4599 114.67 80.3199 115.09 80.4099 115.67C80.9099 115.78 80.9599 115.41 81.1799 115.12C83.4299 112.3 85.4699 108.48 87.5499 105.41C88.0299 104.71 91.3699 100.52 90.9599 100.06V100.08ZM98.3999 101.76C97.1899 101.52 97.5499 102.07 97.0699 102.7C93.3799 107.57 89.1499 112.51 85.7299 117.52C85.4099 117.98 83.0999 120.94 84.3699 121.2C84.8099 121.14 85.1399 120.89 85.4399 120.6C87.8599 118.28 96.9499 105.65 98.2099 102.65C98.3399 102.35 98.4599 102.1 98.3999 101.76ZM402.48 104.16C397.57 105.8 392.3 109.99 388.43 113.51C383.25 118.23 373.23 127.81 371.04 134.16C370.59 135.47 370 136.82 370.08 138.24L370.93 138.01C380.76 127.11 391.56 117.2 402.24 107.16C403.06 106.39 406.19 104.23 405.99 103.19C405.63 101.35 403.19 103.93 402.49 104.16H402.48ZM383.52 102.96C383.22 102.66 382.81 103.15 382.6 103.36C380.44 105.5 378.38 107.79 376.21 109.93C372.98 113.11 368.37 116.97 365.91 120.75C365.47 121.43 364.9 121.97 365.04 122.88C365.2 123.06 366.89 121.63 367.08 121.45C370.67 118.03 374.76 113.63 378.12 109.93C379.55 108.35 381.77 106.08 382.89 104.38C383.05 104.13 383.78 103.23 383.51 102.96H383.52ZM349.2 105.6C342.58 108.68 335.16 116.51 331.49 122.81C330.33 124.79 329.51 125.95 329.52 128.16C329.52 128.87 327.29 132.23 328.44 132.48C328.67 132.53 331.38 129.59 331.8 129.12C337.11 123.24 343.34 116.17 348.1 109.9C348.6 109.24 350.73 106.44 350.84 105.91C351.25 103.96 349.66 105.39 349.2 105.6ZM103.44 105.12C102.83 105.01 102.93 105.12 102.65 105.41C100.95 107.14 98.4599 110.89 97.0499 113C96.3999 113.97 91.8899 121.12 92.3999 121.67L93.1699 121.12C95.4999 116.15 101 110.94 103.21 106.2C103.39 105.82 103.51 105.55 103.43 105.1L103.44 105.12ZM102 134.16C100.71 136.63 98.4999 139.04 98.6399 141.84L99.3599 141.73C102.83 136.91 106.4 132.15 110.06 127.47C114.98 121.17 120.73 114.85 125.38 108.47C125.67 108.07 126.27 107.24 126.39 106.8C126.54 106.24 126.29 106.28 126.24 106.09C126.14 105.68 126.34 105.16 125.64 105.12C123.94 104.98 118.99 109.76 117.72 111.13C111.11 118.24 106.45 125.63 102 134.17V134.16ZM378 105.36L376.56 105.95C372 110.81 366.92 115.22 362.4 120.11C361.55 121.03 358.32 124.44 357.98 125.29C357.82 125.69 357.81 126.06 357.85 126.48C358.27 126.92 360.15 124.81 360.5 124.45C366.27 118.47 371.82 112.25 377.66 106.33L378.01 105.36H378ZM239.28 105.84C238.18 105.6 238.17 106.38 237.61 106.93C234.05 110.4 229.84 114.31 226.81 118.21C226.63 118.45 225.67 119.59 225.85 119.76C226.68 119.72 227.01 118.73 227.52 118.19C230.72 114.84 236.42 110.24 238.94 106.81C239.18 106.48 239.39 106.33 239.29 105.84H239.28ZM406.8 111.12C398.28 115.52 390.87 122.2 385.24 130C384.25 131.37 383.06 133.04 382.56 134.64C381.33 136.06 379.6 137.76 379.44 139.68C379.9 140.16 383.9 136.43 384.45 135.92C392.99 128.17 401.01 119.39 409.21 111.25L409.42 110.31C408.64 109.26 407.71 110.65 406.8 111.12ZM269.52 113.52C269.57 113.4 269.42 113.09 269.57 112.86C269.86 112.42 271.17 112.26 270.72 110.88L269.53 111C266.68 113.91 263.56 116.54 260.76 119.51C258.81 121.58 251.74 129.35 251.16 131.51C251.07 131.83 250.99 132.13 251.04 132.47C251.36 132.82 252.71 131.44 252.96 131.27C259.69 126.74 266.22 121.19 269.52 113.51V113.52ZM129.84 116.16C130.16 115.59 131.7 113.69 131.72 113.36C131.86 111.71 129.89 113.39 129.47 113.75C123.18 119.2 116.72 126.97 111.6 133.56C110.17 135.41 106.94 139.2 106.36 141.28C106.27 141.6 106.21 142 106.67 141.83C107.23 141.63 110.45 138.01 111.11 137.27C111.98 137.7 112.43 137.19 113.11 136.75C119.86 132.31 125.9 123.12 129.83 116.15L129.84 116.16ZM183.12 141.36C183.08 141.79 183.04 142.7 183.24 143.04L184 143.45C184.77 143.54 185.39 142.03 185.9 141.38C191.82 133.96 198.04 126.74 204.65 119.94L204.71 119.04C204.47 118.98 203.87 119.12 203.75 119.04C203.57 118.93 203.92 117.99 202.3 118.43C201.31 118.7 197.27 122.1 196.3 123C192.85 126.19 183.54 136.92 183.1 141.36H183.12ZM155.04 138.96C155.28 139.24 156.54 137.84 156.71 137.64C160.8 132.81 164.55 126.89 168.48 121.81C168.94 121.21 170.29 120.56 169.31 119.76C168.88 119.68 167.17 121.84 166.8 122.29C163.8 125.9 160.53 130.12 157.82 133.95C157.32 134.65 154.49 138.32 155.04 138.96ZM293.28 120L291.94 120.22C289.51 123.28 286.58 125.92 284.03 128.87C282.7 130.41 280.54 132.79 279.54 134.46C279.18 135.06 278.73 135.51 278.87 136.31C279.27 136.73 280.63 135.16 280.91 134.87C284.57 131.08 289.49 125.39 292.7 121.21C292.98 120.84 293.52 120.97 293.27 119.99L293.28 120ZM175.44 120.48C175.21 120.21 174.3 121.24 174.12 121.44C170.48 125.23 163.48 133.54 160.85 137.93C160.28 138.87 159.34 140.63 161.16 139.68C163.38 136.79 165.74 134.01 167.99 131.15C169.77 128.89 174.14 123.84 175.22 121.58C175.4 121.2 175.51 120.92 175.44 120.48ZM294.96 120.96C294.96 120.96 294.89 121.33 294.72 121.55C291.56 125.35 283.1 135.74 281.65 139.93C281.31 140.93 281.17 142.4 282.3 141.06C285.98 136.69 290.82 129.47 293.86 124.54C294.12 124.11 295.64 121.7 295.66 121.53C295.7 121.13 295.18 120.81 294.97 120.97L294.96 120.96ZM210.24 123.36C210.26 122.96 210.23 122.56 210.24 122.16C209.88 122.08 209.68 122.24 209.38 122.38C208.15 122.97 202.77 129.02 201.6 130.44C199.57 132.91 196.32 137.24 194.83 139.99C194.62 140.39 193.4 142.98 193.43 143.15C193.65 144.38 195.35 142.28 195.59 142.08C197.22 140.68 199.02 139.75 200.63 138.36C204.16 135.33 209.98 128.08 210.23 123.36H210.24ZM288.48 139.92C289.14 140.04 289.41 139.6 289.8 139.2C293.07 135.87 298.33 129.15 301.06 125.26C302.42 123.32 301.8 122.57 300.12 124.32C298.02 126.51 295.68 129.28 293.77 131.65C293.09 132.5 287.79 139.25 288.48 139.92ZM177.12 125.28C177.12 125.28 176.39 125.24 176.21 125.33C175.94 125.48 172.98 129.65 172.46 130.34C170.72 132.65 168.66 135.33 167.17 137.77C166.94 138.15 165.8 139.85 166.07 140.15C166.5 140.24 166.65 139.92 166.91 139.68C168.73 138.04 175.82 128.71 176.83 126.56C176.96 126.28 177.29 125.46 177.11 125.28H177.12ZM334.56 140.4L333.49 140.64C330.64 144.23 327.36 147.51 324.49 151.08C323.66 152.11 321.31 154.86 320.87 155.85C320.66 156.32 320.57 156.66 320.65 157.19C321.05 157.61 322.32 156.13 322.56 155.86C325.57 152.59 332.11 144.97 334.22 141.36C334.4 141.04 334.7 140.89 334.57 140.39L334.56 140.4ZM327.36 156L328.18 155.5C331 150.89 334.93 146.58 337.73 142.01C338.04 141.5 338.77 140.88 338.03 140.4C337.72 140.33 336.51 141.88 336.24 142.21C334.62 144.17 332.94 146.4 331.48 148.49C330.8 149.46 326.69 155.26 327.36 156ZM334.8 154.8C335.22 154.6 335.57 154.18 335.86 153.82C337.87 151.36 340.89 147.32 342.53 144.65C342.84 144.14 343.57 143.52 342.83 143.04C342.47 142.96 341.42 144.43 341.18 144.74C339.63 146.69 337.69 149.35 336.38 151.46C335.76 152.46 334.93 153.62 334.8 154.8ZM383.68 146.91C380.19 151.44 375.68 155.45 372.25 159.97C371.7 160.7 370.13 162.68 369.94 163.43C369.58 164.9 370.96 163.67 371.4 163.2C374.94 159.46 381.08 152.67 383.85 148.53C384.32 147.84 385.08 146.95 383.67 146.91H383.68ZM260.16 149.52C259.91 149.24 258.12 151.17 257.88 151.44C255.85 153.61 253.43 156.72 251.66 159.14C251.13 159.86 247.82 164.29 248.4 164.88C249.04 165 249.23 164.65 249.59 164.28C253.22 160.61 256.09 154.36 259.93 150.62L260.16 149.53V149.52ZM385.92 150C385.92 150 385.06 149.9 384.94 150.16C382.91 153.04 380.54 155.68 378.52 158.56C377.94 159.39 374.29 164.51 374.88 165.11L375.84 164.76C378.42 160.83 381.4 157.17 384.05 153.29C384.35 152.85 386.22 150.28 385.92 150ZM264.72 151.68C264.11 151.57 264.21 151.68 263.93 151.97C261.58 154.36 258.38 158.85 256.37 161.68C255.79 162.5 252.54 166.81 253.21 167.51C253.83 167.65 253.82 167.4 254.13 167.11C255.7 165.66 263.77 154.66 264.54 152.8C264.7 152.42 264.78 152.09 264.73 151.67L264.72 151.68ZM378.24 165.36C379.12 164.63 379.99 163.81 380.76 162.96C381.73 161.9 388.26 154.09 388.32 153.46C388.42 152.46 387.84 152.52 387.23 153.11C385.1 155.19 381.58 159.74 379.81 162.25C379.18 163.14 378.21 164.25 378.23 165.35L378.24 165.36ZM293.76 173.04L294.86 172.82C298.68 167.91 302.7 162.67 305.56 157.13C305.77 156.73 306.91 154.98 306.11 154.81C305.46 155 305 155.87 304.6 156.41C300.94 161.31 297.78 166.86 293.98 171.71L293.76 173.05V173.04ZM307.92 160.8C307.92 160.8 307.24 160.7 307.18 160.95C305.82 163.48 303.94 165.69 302.34 168.07C301.87 168.77 298.32 173.78 298.79 174.24C299.28 174.32 299.43 174.19 299.75 173.89C300.52 173.18 302.63 169.78 303.4 168.66C304.47 167.09 307.21 163.31 307.77 161.75C307.85 161.52 308.02 160.92 307.9 160.81L307.92 160.8ZM311.28 164.64C310.67 164.53 310.77 164.64 310.49 164.93C309.47 165.97 307.93 168.31 307.01 169.6C305.69 171.44 303.98 173.52 303.37 175.68C303.74 175.52 304.05 175.14 304.32 174.83C305.99 172.93 309.84 167.82 311.01 165.68C311.2 165.34 311.35 165.05 311.28 164.64Z" fill="#EDF784"/>
<path d="M491.97 74.54C491.23 67.31 486.54 59.83 479.92 56.6C476.98 55.16 474.55 55.36 471.36 55.56L462.55 69.6C458.81 69.72 455.06 69.23 451.38 68.58C446.27 67.67 441.22 66.43 436.19 65.14C433.82 64.53 431.46 63.91 429.09 63.29C426.87 62.72 408.35 57.92 406.34 57.34C402.29 56.17 398.26 54.92 394.25 53.63C384.48 50.48 374.8 47.09 364.98 44.1C299.86 24.19 232.55 7.22996 164.52 0.959961L153.84 0H152.16L151.35 0.26001C148.34 0.41001 145.05 -0.0100098 142.08 0.23999C141.82 0.25999 141.57 0.219978 141.3 0.289978C139.99 0.629978 135.19 6.35 133.81 7.69C120.01 20.99 106.95 33.83 94.2 48.24C76.78 67.91 59.85 88.2 42.84 108.24C30.16 123.17 15.76 139.2 4.45999 155.06C2.81999 157.37 1.25 159.7 0 162.24V163.68C0.69 165 2.35 164.73 3.69 164.61C7.67 164.25 12.47 162.82 16.51 162.07C51.39 155.55 84.39 150.81 120.12 152.64C158.94 154.63 196.81 164.97 233.71 176.33C234.08 176.45 234.48 176.52 234.72 176.88H243.36C243.5 176.24 243.04 176.41 242.64 176.29C232.86 173.35 223.21 170.06 213.36 167.28C212.9 167.15 212.52 166.9 212.16 166.8C211.85 166.71 211.45 166.7 210.96 166.56C210.23 166.36 209.45 165.89 209.28 165.84C208.23 165.55 206.74 165.47 205.44 165.12C204.97 164.99 204.44 164.76 204 164.64C183.82 159.24 163.37 154.49 142.56 151.92C142.1 151.86 141.68 151.72 141.36 151.68C140.28 151.55 139.08 151.56 138 151.44C137.47 151.38 136.92 151.24 136.56 151.2C112.73 148.79 88.56 148.82 64.8 151.68C63.27 151.86 61.76 152.22 60.24 152.4C58.51 152.61 56.22 152.99 54.57 153.09C54.21 153.12 53.91 153.3 54 152.76L72.45 127.29L72.72 126C72.41 126.02 72.07 125.96 71.76 126L58.7 142.82C57.27 145.73 54.15 148.78 52.91 151.67C52.65 152.26 52.49 152.66 52.54 153.34C52.39 153.51 50.55 153.53 50.16 153.6C44.17 154.59 38.15 155.47 32.16 156.48C29.64 156.91 27.08 157.31 24.59 157.91L24.24 157.56C34.85 142.37 45.31 127.08 56.54 112.34C68.11 97.18 80.15 82.14 92.17 67.33C106.13 50.11 120.66 34.81 136.08 18.96C136.7 18.32 137.47 17.3 138.24 17.04C138.23 16.57 138.56 16.37 138.84 16.08C140.58 14.17 143.25 11.78 145.2 9.95996C147.8 7.50996 150.44 5.06998 153.29 2.91998C166.19 3.76998 179.03 5.06 191.85 6.75C236.84 12.69 282.13 23.43 325.79 35.53C356.39 44.02 386.29 54.72 416.88 63.12C426.4 65.73 436.41 68.47 446.12 70.24C451.09 71.15 456.24 71.89 461.28 71.28C461.66 71.61 458.24 75.85 457.92 76.32C455.75 79.44 453.68 82.6 451.44 85.68C447.27 91.4 442.89 97.05 438.48 102.48C431.25 111.39 423.59 119.99 415.92 128.52C415.64 128.83 415.43 129.11 414.96 129.12C403.6 143.21 390.42 155.38 379.57 170.17C378.48 171.67 376.82 175.19 378 176.88H380.4L388.01 172.13C391.2 170.26 393.76 166.64 397.78 167.07C403.5 167.68 407.75 170.8 408 176.88H414.96C415.38 176.12 415.92 175.12 416.41 174.42C424.53 162.71 434.48 152.06 443.51 140.99C457.11 124.34 470.11 107.14 482.88 89.88C485.08 86.91 487.48 84.15 489.46 80.86C490.59 78.98 492.2 76.77 491.97 74.54ZM21.6 156.48C21.16 157.1 20.79 158.49 19.98 158.82C14.5 159.5 8.9 161.27 3.47 161.99C3.06 162.05 3.08001 162.09 3.24001 161.76C3.69001 160.81 4.45999 159.77 5.03999 158.88C5.68999 157.88 8.31 153.78 9.25 153.61C10.05 153.45 11.22 153.66 12.12 153.6C12.59 153.57 13.04 153.37 13.55 153.35C16.94 153.21 20.37 153.48 23.76 153.36C24 153.57 21.82 156.18 21.6 156.48ZM26.64 149.04C26.26 149.59 26.11 150.81 25.32 150.96L10.92 151.44C10.54 151.23 10.92 151.02 11.04 150.84C11.54 150.09 12.21 149.45 12.72 148.8C12.75 148.76 12.7 148.55 12.81 148.41C13.44 147.6 16.36 143.82 16.91 143.51C18.01 142.88 23.2 143.7 24.83 143.77C26.54 143.85 28.28 143.69 30 143.76C30.48 144.23 27.07 148.41 26.64 149.04ZM39.84 130.2C37.92 132.78 36.19 135.51 34.29 138.1C34.03 138.45 33.62 138.45 33.6 138.48C33.56 138.54 33.62 138.95 33.46 139.17C32.7 140.24 32.53 141.23 31.09 141.37C27.18 141.76 22.91 140.88 18.96 141.12C18.68 140.91 20.97 138.66 21.12 138.48C21.18 138.41 21.18 138.09 21.35 137.88C23.24 135.53 25.28 133.31 27.13 130.93C28.79 130.32 30.56 130.69 32.28 130.56C34.31 130.4 36.81 129.86 38.75 129.83C39.08 129.82 40.06 129.66 39.84 130.2ZM45.85 122.05C45.27 122.96 43.96 124.11 43.44 124.8C43.09 125.26 42.79 126.76 41.88 126.96L29.52 128.4C29.34 128.25 31 126.25 31.2 126C32.57 124.3 34.1 122.68 35.45 120.96L46.08 121.2C46.15 121.58 46.04 121.75 45.85 122.05ZM58.32 105.48C55.8 108.37 53.69 111.57 51.36 114.6C51.14 114.89 50.75 115.06 50.64 115.2C50.08 115.93 48.57 118.77 47.83 118.99L37.08 119.28L40.56 114.96L48.3 106.02C50.37 105.7 52.52 105.77 54.6 105.6C55.64 105.51 56.93 105.13 57.96 105.11C58.33 105.1 58.37 105.06 58.32 105.48ZM68.87 92.27C67.69 93.85 66.09 95.82 64.79 97.31C64.38 97.79 63.68 98.79 63.12 98.88C62.91 99.68 61.13 102.15 60.49 102.37L50.52 103.68C50.15 103.49 50.5 103.27 50.64 103.08C51.51 101.91 53 100.54 54 99.36C56.18 96.78 58.36 94.19 60.48 91.56L69.6 90.96C69.78 91.14 69.04 92.05 68.87 92.27ZM72.58 87.83C72.37 88.05 72.04 88.04 72 88.08C71.95 88.13 71.95 88.51 71.78 88.69C71.01 89.54 64.17 89.39 62.64 89.52C62.45 89.35 63.3 88.16 63.84 88.08C64.36 87.32 65.51 85.48 66.12 84.96C67.16 84.1 73 85.32 74.64 84.96L72.58 87.83ZM80.15 78.11C79.73 78.88 78.7 79.58 78.24 80.16C77.83 80.68 77.27 82.32 76.63 82.51L68.4 82.8C68.29 81.9 69.21 81.5 69.71 80.87C70.05 80.44 70.44 80.07 70.56 79.92C72.71 77.28 74.76 74.46 77.16 72H84.72L80.15 78.11ZM88.66 67.43C88.46 67.65 88.11 67.65 88.08 67.68C87.63 68.2 87.61 69.6 86.04 69.6H79.2C79.56 68.87 80.12 68.23 80.64 67.61C80.82 67.39 81.1 67.46 81.12 67.44C81.17 67.38 81.18 67.06 81.36 66.85C81.99 66.08 83.76 63.61 84.59 63.59C86.29 63.55 88.9 64.58 90.72 64.56C90.93 64.74 88.89 67.16 88.66 67.43ZM95.16 59.52C94.84 59.9 94.32 60.2 94.08 60.48C94.02 60.54 94.03 60.88 93.85 61.08C93.5 61.48 92.3 62.98 91.99 63.08C90.15 62.87 88.11 62.91 86.3 62.62C86.05 62.58 85.3 62.52 85.47 62.07C85.63 61.63 86.73 60.4 87.12 59.93C87.3 59.71 87.58 59.78 87.6 59.76C87.65 59.7 87.66 59.37 87.83 59.16C88.32 58.59 91.42 54.96 91.69 54.84C93.07 54.26 97.01 55.23 98.64 55.32C97.44 56.68 96.35 58.15 95.16 59.52ZM105.85 46.93C105.23 47.88 103.57 49.59 102.73 50.54C102.49 50.81 102.02 50.85 102 50.88C101.95 50.94 102.04 51.42 101.77 51.72C101.51 52.02 100.69 52.9 100.39 52.99C98.57 53.53 95.56 52.5 93.6 52.8C93.29 52.52 95.42 50.59 95.76 50.4V50.16C95.82 50.06 95.94 50 96 49.92C96.45 49.32 99.12 46.01 99.53 45.89L106.08 46.08C106.15 46.45 106.04 46.64 105.85 46.93ZM116.28 35.52C115.51 36.53 113.77 38.25 112.81 39.25C112.22 39.85 110.87 41.41 110.16 41.52L108.43 44.11L101.28 43.92C101.88 42.88 102.94 42.1 103.68 41.28C105.63 39.12 107.5 36.86 109.56 34.8H116.64C116.74 35.22 116.47 35.28 116.28 35.52ZM120.24 31.2C120.33 31.56 119.26 32.64 119.16 32.64H111.84C112.36 31.81 113.11 31.18 113.76 30.48C114.29 29.91 115.34 28.46 116.05 28.33L123.12 28.56C122.46 29.26 121.14 31.05 120.24 31.2ZM126.97 24.86C126.76 25.07 126.52 25.15 126.24 25.2C126.2 25.65 125.37 26.62 125.03 26.77C124.51 27.01 124.33 26.64 124.2 26.64H117.84V26.28C118.28 25.68 119.04 25.22 119.52 24.72C121.73 22.41 123.94 20.11 126.24 17.88L133.68 18L126.97 24.86ZM141.25 11.29C140.52 12.07 138.98 13.41 138.12 14.17C137.82 14.44 137.35 14.35 137.28 14.4C137.13 14.51 136.92 15.65 135.95 15.83C133.89 16.23 130.86 15.19 128.64 15.6C129.43 14.66 130.44 13.83 131.37 13.05C131.51 12.93 131.72 12.99 131.76 12.96C132.48 12.37 134.37 10.33 135.05 10.13C136.66 9.66 139.81 10.82 141.6 10.56C141.69 10.95 141.47 11.05 141.25 11.29ZM149.87 4.07001C148.68 5.25001 145.7 7.45996 144.24 8.39996C144.19 8.42996 144.15 8.69001 144 8.76001L137.04 8.39996C136.67 8.05996 138.96 6.25 139.2 6C140.28 4.89 141.2 3.45999 142.73 2.92999L150.24 3.35999C150.33 3.75999 150.11 3.85001 149.87 4.07001ZM399.36 162C398.98 162.48 398.71 163.56 397.99 163.89C395.04 163.46 392.14 163.94 389.28 164.64C388.86 164.74 388.43 164.77 387.98 164.9C387.75 164.96 385.82 166.11 386.16 165.24L390.64 159.89C393.86 159.71 396.94 160.61 400.08 161.04C400.36 161.97 399.46 161.87 399.36 162ZM406.47 154.24C406.38 154.35 406.1 154.29 406.08 154.32C406.03 154.39 406.02 154.71 405.85 154.92C405.35 155.53 402.44 158.99 402.07 159.09C399.64 158.73 397.25 158.13 394.8 157.92C394.1 157.86 393.35 157.97 392.64 157.92L392.76 157.2L398.81 150.77C401.72 150.81 404.64 152.1 407.52 152.4C407.83 152.7 406.72 153.94 406.47 154.24ZM414 145.44C413.82 145.64 413.58 146.42 413.16 146.88C412.68 147.42 409.6 150.57 409.27 150.67C408.16 151.01 403.75 149.72 402.24 149.52C401.9 149.47 399.82 149.79 400.08 149.16L406.73 142.12L414.97 144.11L415.09 144.72C414.83 145.23 414.07 145.36 414 145.44ZM421.68 136.56C421.52 136.75 421.31 137.45 420.95 137.87C419.56 139.52 417.93 141 416.71 142.8C414.57 142.8 412.48 142.05 410.4 141.6C409.66 141.44 408.77 141.49 408.06 141.18C407.8 141.06 407.69 141.21 407.76 140.76L414.25 133.79L422.64 135.6C422.86 136.32 421.77 136.45 421.68 136.56ZM431.04 125.52C430.98 125.59 430.98 125.91 430.81 126.12C428.77 128.63 426.62 131.07 424.56 133.56C423.76 133.92 420.13 133.04 419.03 132.84C418.8 132.8 418.61 132.49 418.56 132.48C418.08 132.38 416.04 132.6 415.92 132.48L416.05 131.77L423.36 123.49L432.24 124.08C432.28 124.81 431.42 125.05 431.04 125.52ZM440.64 113.28C438.42 116.15 436.17 119.03 433.99 121.93C433.24 122.39 432.64 121.92 431.89 121.91C430.65 121.9 429.39 121.98 428.16 121.92C427.4 121.88 426.64 121.77 425.89 121.67C425.54 121.62 425.18 121.9 425.28 121.32L435.36 109.8C436.35 109.19 440.69 111.16 442.08 111.12C442.38 111.46 440.91 112.93 440.64 113.28ZM447.46 104.63C447.28 104.86 446.9 104.85 446.88 104.88C446.8 104.98 446.77 105.49 446.51 105.83C445.53 107.08 444.44 108.26 443.52 109.57C442.94 109.88 440.67 108.91 439.92 108.72C439.23 108.55 438.32 108.63 437.52 108.35C437.21 108.25 436.94 108.34 437.04 107.88L442.33 101.63L448.32 102.84C448.86 103.21 447.8 104.21 447.46 104.63ZM456.72 91.68C454.61 94.8 452.42 97.85 450.24 100.92C449.4 101.44 447.5 100.49 446.64 100.32C446.24 100.24 444.16 100.25 444 100.08L444.05 99.53L452.02 88.78C452.3 88.5 452.59 88.56 452.94 88.6C454.16 88.76 456.21 90.2 457.68 90.24C457.94 90.6 456.88 91.45 456.72 91.68ZM461.76 84.48C461.29 85.13 458.93 89.03 458.64 89.17C458.27 89.35 456.19 88.75 455.7 88.55C455.42 88.44 455.54 88.09 455.52 88.08C455.46 88.05 454.53 88.03 454.13 87.91C453.84 87.83 452.97 87.68 453.15 87.27C454.11 86.33 456.42 81.72 457.2 81.23C457.8 80.85 461.96 82.72 462.96 82.8C463 83.67 462.18 83.89 461.76 84.48ZM468 75.6C467.85 75.83 467.76 76.45 467.48 76.88C466.53 78.31 465.44 79.65 464.4 81C463.96 81.27 461.68 80.73 460.91 80.64C460.51 80.59 459.99 80.89 460.08 80.16C459.48 80.16 458.98 79.97 458.4 79.92L458.45 79.37L463.2 72.11C463.45 71.91 463.67 72.02 463.92 72.1C464.44 72.26 468.46 74.06 468.72 74.28C469.49 74.97 468.05 75.53 468 75.6ZM473.76 66.96C473.3 67.77 472.98 68.71 472.42 69.58C472.07 70.12 470.46 72.69 470.16 72.85C469.55 73.18 467.31 71.84 466.56 71.52C466.06 71.3 464.36 71.15 464.42 70.48L468.51 63.63L474.45 65.55C474.88 66.64 473.8 66.88 473.76 66.96ZM478.08 60.24C477.99 60.39 477.99 60.75 477.81 61.04C477.19 62.06 476.42 63.06 475.76 64.06C475.21 64.23 472.27 62.9 471.53 62.58C471.28 62.47 471.15 62.17 471.12 62.16C470.9 62.07 469.46 62.21 469.7 61.59C470.24 60.2 472 58.47 472.48 56.86C474.72 57.03 476.81 57.78 478.76 58.84C479.18 59.71 478.24 59.98 478.08 60.24Z" fill="#777C3B"/>
<path d="M408 176.88H380.4L388.01 172.13C391.19 170.26 393.76 166.63 397.77 167.06C403.49 167.67 407.74 170.79 407.99 176.87L408 176.88Z" fill="#EDF784"/>
<path d="M283.68 155.52C282.87 154.23 281.78 156.35 281.29 156.85C275.92 162.29 270.1 167.56 265.45 173.65C264.73 174.6 263.83 175.74 263.53 176.89H259.21C263.16 171.35 268.23 166.13 273.37 161.65C274.62 160.56 283.13 153.71 284.02 153.89C285.57 154.2 283.88 155.28 283.7 155.53L283.68 155.52Z" fill="#B1BA50"/>
<path d="M328.8 176.88C329.68 174.72 331.47 172.66 333 170.88C335.84 167.56 345.07 158.46 348.96 157.32C350.16 156.97 350.22 157.04 350.17 158.17C349.62 158.07 349.38 158.22 348.96 158.52C346.97 159.91 343.68 163.22 341.77 165.01C338.8 167.8 335.54 171.03 332.77 174.01C332.02 174.82 331.03 175.93 330.49 176.89H328.81L328.8 176.88Z" fill="#B1BA50"/>
<path d="M283.68 155.52C278.67 162.28 272.55 168.58 267.13 175.09C266.71 175.6 266.11 176.26 265.92 176.88H263.52C263.83 175.74 264.72 174.59 265.44 173.64C270.09 167.55 275.91 162.28 281.28 156.84C281.77 156.34 282.86 154.23 283.67 155.51L283.68 155.52Z" fill="#777C3B"/>
<path d="M350.16 158.16C350.1 159.3 348.94 160.37 348.12 161.28C345.09 164.65 341.53 167.91 338.39 171.23C336.67 173.05 334.95 174.93 333.36 176.88H330.48C331.01 175.92 332.01 174.81 332.76 174C335.53 171.02 338.79 167.79 341.76 165C343.67 163.2 346.96 159.9 348.95 158.51C349.38 158.21 349.61 158.07 350.16 158.16Z" fill="#777C3B"/>
<path d="M342.72 176.88H339.84C339.84 176.41 340.16 176.21 340.44 175.92C343.3 172.77 346.95 170.3 350.16 167.52C350.35 167.62 350.94 167.43 351.12 167.9C351.24 168.31 350.65 168.99 350.4 169.32C348.27 172.04 344.86 174.1 342.73 176.89L342.72 176.88Z" fill="#777C3B"/>
<path d="M350.16 167.52C346.95 170.29 343.3 172.77 340.44 175.92C340.17 176.22 339.84 176.41 339.84 176.88H337.44C339 175.23 340.55 173.48 342.24 171.96C343.44 170.88 347.56 167.36 348.9 167.09C349.99 166.87 349.82 167.36 350.16 167.52Z" fill="#B1BA50"/>
<path d="M280.08 166.56C280.08 167.03 279.76 167.23 279.48 167.52C276.62 170.63 273.01 173.34 270.72 176.88H268.56C268.71 176.28 269.24 175.66 269.64 175.2C271.22 173.37 278 166.79 280.08 166.56Z" fill="#B1BA50"/>
<path d="M280.08 166.56C280.31 166.53 280.56 166.57 280.8 166.56L280.67 167.76L272.88 176.88H270.72C273.01 173.34 276.62 170.64 279.48 167.52C279.75 167.22 280.08 167.03 280.08 166.56Z" fill="#777C3B"/>
<path d="M152.16 0L151.35 0.26001C148.34 0.41001 145.05 -9.76026e-06 142.08 0.23999V0H152.16Z" fill="#A2A579"/>
<path d="M457.92 76.32C455.75 79.44 453.68 82.6 451.44 85.68C450.41 85.04 449.08 85.68 447.97 85.69C443.95 85.73 439.26 84.96 435.31 84.16C426.48 82.39 417.84 79.59 409.3 76.81C408.61 76.85 405.45 80.7 404.63 81.48C402.33 83.68 395.32 89.54 392.39 90L394.31 87.96L414.01 70.94C414.6 70.11 414.08 69.25 413.1 69.79C410.73 71.82 408.05 73.46 405.6 75.37L397.68 72.49C397.73 72.43 397.74 72.1 397.91 71.89C398.47 71.23 401.48 68.15 400.8 67.45C400.36 67.38 400.09 67.45 399.71 67.68C398.62 68.32 395.56 71.74 394.33 72.86C389.8 76.94 383.89 81.77 380.31 86.68C379.69 87.53 378.85 88.38 378.96 89.53C378.9 89.47 378.31 89.47 378.24 89.16C378.2 88.98 378.83 87.79 379 87.53C382.67 81.68 387.57 76.47 391.44 70.93C391.58 70.73 391.77 70.69 391.68 70.33L368.78 62.92C363.38 68.75 356.5 73.73 349.44 77.41C349.04 77.62 348.13 78.31 347.76 77.77C348.05 77.54 348.42 76.92 348.85 76.58C355.37 71.35 361.74 65.95 368.18 60.62C368.66 60.18 368.18 59.79 367.76 59.57C367.1 59.4 365.51 60.79 364.89 61.19C364.61 61.37 364.22 61.38 364.09 61.46C362.3 61.02 359.81 59.55 358.09 59.3C357.61 59.23 356.87 59.24 356.42 59.43C355.33 59.88 351.87 62.44 350.67 63.28C346.37 66.31 342.08 70.03 338.17 73.46C338.79 71.86 340.18 70.15 341.3 68.79C345.28 63.94 348.81 61.71 353.94 58.4C354.17 58.25 354.37 58.43 354.25 57.87C326.5 47.76 298.32 38.79 269.61 31.72C268.44 31.61 267.79 32.78 267 33.38C264.54 35.27 258.62 39.18 255.66 39.59C254.69 39.72 254.73 39.18 254.64 39.15L270 28.23L270.24 27.15C269.98 27.13 269.72 27.13 269.46 27.21C268.21 27.58 264.98 29.69 263.76 30.51C263.9 29.81 263.42 30.07 263 29.96C262.26 29.76 260.71 29.17 260.09 29.35C259.79 29.44 256.7 32.51 256.08 33.03C254.75 34.15 253.4 35.37 251.97 36.36C251.11 36.96 248.22 38.9 247.35 38.67C247.08 38.6 247.22 38.2 247.19 38.18L262.28 25.54C262.42 24.68 261.79 24.65 261.11 24.85C260.51 25.02 256.55 27.58 255.84 28.1L234.49 22.2H233.27C225.68 28.08 218.65 34.68 211.07 40.57C209.01 42.17 206.79 43.99 204.48 45.14C208.45 40.96 212.81 36.66 217.2 32.78C220.85 29.55 224.78 26.59 228.5 23.44C228.86 23 228.86 22.45 228.36 22.1C227.98 22.02 227.8 22.57 227.51 22.69C227.24 22.81 226.86 22.78 226.8 22.81L228.96 20.65C228.27 20.4 223.86 19.65 223.68 19.45C223.65 19.41 223.71 18.98 223.55 18.75L223.1 18.51C215.2 23.91 207.21 29.38 200.27 36C199.05 37.16 196.14 39.86 195.6 41.29C195.11 41.07 195.49 40.55 195.63 40.24C197.81 35.39 206.54 27.94 210.85 24.5C213.16 22.65 216.41 20.81 218.48 18.93C218.71 18.72 218.99 18.71 218.88 18.25L206.1 15.65L194.4 25.93C194.35 25.43 194.72 25.08 194.99 24.73C196.09 23.33 198.42 21.21 199.79 19.93C201.44 18.39 203.29 17.03 204.96 15.5C203.87 15.18 202.43 14.69 201.29 14.95C200.78 15.07 197.7 17.8 197.04 18.38C193.62 21.36 190.3 25.02 186.84 27.86C186.57 28.08 186.45 28.44 186 28.34C185.92 27.79 186.19 27.44 186.48 27.02C189.46 22.78 195.75 18.86 199.44 15.26C199.7 15.01 200 14.84 199.92 14.42C190.04 13.03 180.11 11.91 170.16 11.06C169.43 10.99 168.97 11.47 168.41 11.83C162.37 15.59 151.24 24.96 146.64 30.26C146.84 28.68 148.2 26.77 149.18 25.48C153.64 19.58 160.15 14.7 166.32 10.7L150.89 9.43L119.16 41.54C93.49 69.73 70.75 99.95 49.01 131.23C43.23 139.54 37.59 147.96 32.17 156.51C29.65 156.94 27.09 157.34 24.6 157.94L24.25 157.59C34.86 142.4 45.32 127.11 56.55 112.37C67.78 97.63 80.16 82.17 92.17 67.35C106.13 50.13 120.67 34.83 136.08 18.98C137.08 18.57 137.76 17.65 138.48 17.06C139.69 16.07 140.99 15.18 142.19 14.17C145.15 11.7 148.52 8.14997 151.56 6.01997C152.06 5.66997 152.31 5.37998 152.98 5.27998C154 5.13998 156.61 5.42998 157.79 5.52998C164.21 6.07998 170.63 7.33003 177.02 8.14003C246.15 16.9 313.76 36.38 380.39 56.05C401.33 62.23 422.16 69.78 443.51 74.53C448.1 75.55 453.24 76.9 457.91 76.33L457.92 76.32Z" fill="#B1BA50"/>
<path d="M402.48 104.16C403.19 103.92 405.63 101.35 405.98 103.19C406.18 104.23 403.05 106.39 402.23 107.16C391.55 117.21 380.76 127.11 370.92 138.01L370.07 138.24C369.98 136.82 370.58 135.47 371.03 134.16C371.57 134.2 371.65 133.79 371.9 133.47C378.25 125.66 385.48 118.52 393.1 111.95C396.17 109.3 399.51 106.94 402.46 104.15L402.48 104.16Z" fill="#777C3B"/>
<path d="M345.84 98.4C346.16 98.07 347.26 97.67 347.66 98.15C348.09 98.76 347.3 99.62 346.93 100.09C345.08 102.39 341.8 105.43 339.62 107.65C332.69 114.71 325.38 121.42 318.48 128.52C317.94 129.08 316.06 131.9 315.15 131.26C314.29 130.66 315.95 128.2 316.37 127.6C317.41 126.1 318.53 125.3 319.45 123.6C320.72 123.19 321.47 121.73 322.32 120.83C329.75 113.01 338.33 106.02 345.85 98.4H345.84Z" fill="#777C3B"/>
<path d="M271.92 97.68C272.61 97.4 274.14 96.55 273.68 98.11C264.12 109.87 253.6 120.92 243.47 132.23C243.11 132.63 241.94 134.65 241.43 134.15C241.48 131.9 243.09 130.09 244.07 128.15L271.91 97.67L271.92 97.68Z" fill="#777C3B"/>
<path d="M218.88 64.08C219.42 63.94 220.49 63.09 220.78 63.99C220.98 64.61 220.22 65.38 219.83 65.87C216.27 70.37 211.22 75.4 207.24 79.68C203.26 83.96 199.07 88.7199 195.01 92.6499C194.63 93.0199 192.55 94.87 192.24 94.56C192.65 91.75 194.89 89.51 196.32 87.12L218.88 64.08Z" fill="#777C3B"/>
<path d="M406.8 111.12C407.71 110.65 408.64 109.26 409.42 110.31L409.21 111.25C401.01 119.39 392.99 128.17 384.45 135.92C383.9 136.42 379.9 140.16 379.44 139.68C379.6 137.76 381.33 136.06 382.56 134.64C389.62 126.49 397.9 119.69 405.84 112.44C406.24 112.08 406.75 111.7 406.8 111.12Z" fill="#777C3B"/>
<path d="M125.04 60C125.03 61.34 122.82 63.73 121.91 64.91C114.94 73.97 106.99 82.26 100.32 91.57C98.5201 91.68 98.9101 90.2 99.4701 89.03C99.7701 88.39 100.9 86.47 101.28 85.92C104.22 81.67 108.68 76.88 112.2 72.96C115.48 69.29 120.33 63.48 123.95 60.47C124.31 60.17 124.49 59.91 125.04 60Z" fill="#777C3B"/>
<path d="M297.6 42.48C297.15 43.4 297.21 43.48 296.4 44.28C291.56 49.11 285.45 53.51 280.35 58.23C278.62 59.83 277.06 61.84 275.28 63.48C274.19 64.49 271.33 67.11 270.22 67.78C269.29 68.34 268.69 68.33 268.77 67.07C268.82 66.38 269.86 65.12 270.35 64.55C271.45 63.24 273.33 61.14 274.55 59.99C281.26 53.66 289.17 48.2 296.4 42.36L297.59 42.47L297.6 42.48Z" fill="#777C3B"/>
<path d="M126.24 106.08C126.29 106.27 126.54 106.23 126.39 106.79C126.27 107.23 125.68 108.06 125.38 108.46C120.73 114.84 114.98 121.16 110.06 127.46C106.41 132.14 102.83 136.9 99.3599 141.72L98.6399 141.83C98.4999 139.03 100.71 136.62 102 134.15C102.51 134.27 102.51 133.86 102.73 133.57C109.33 124.98 116.07 116.39 123.48 108.46C124.25 107.64 125.22 106.5 126.24 106.06V106.08Z" fill="#777C3B"/>
<path d="M223.68 19.44L196.45 42.49L195.36 42.72C195.31 42.67 195.53 41.46 195.6 41.28C196.15 39.85 199.06 37.15 200.27 35.99C207.21 29.36 215.2 23.89 223.1 18.5L223.55 18.74C223.71 18.97 223.64 19.41 223.68 19.44Z" fill="#777C3B"/>
<path d="M329.52 128.16C330.13 128.2 330.13 127.77 330.36 127.44C335.3 120.66 340.74 115.03 346.44 108.96C347.35 107.99 348.5 106.72 349.2 105.6C349.66 105.39 351.25 103.95 350.84 105.91C350.73 106.44 348.6 109.24 348.1 109.9C343.34 116.18 337.12 123.24 331.8 129.12C331.38 129.59 328.67 132.53 328.44 132.48C327.28 132.23 329.52 128.87 329.52 128.16Z" fill="#777C3B"/>
<path d="M222.96 74.4C222.49 74.4 222.29 74.72 222 75C216.1 80.36 209.66 87.77 204.36 93.84C203.96 94.3 203.44 94.93 203.28 95.52C202.98 95.59 202.62 96.19 202.08 96C202.01 93.19 204.26 90.78 205.92 88.69C211.13 82.15 217.16 76.42 223.44 70.93C226.71 70.51 223.61 73.28 222.96 74.41V74.4Z" fill="#777C3B"/>
<path d="M271.92 97.68L244.08 128.16C245.53 125.3 246.56 123.09 248.44 120.4C252.47 114.66 265.71 100.15 271.92 97.68Z" fill="#B1BA50"/>
<path d="M126.24 106.08C125.22 106.51 124.24 107.66 123.48 108.48C116.07 116.4 109.33 124.99 102.73 133.59C102.51 133.87 102.51 134.29 102 134.17C106.44 125.63 111.1 118.24 117.72 111.13C118.99 109.77 123.94 104.98 125.64 105.12C126.34 105.16 126.14 105.68 126.24 106.09V106.08Z" fill="#B1BA50"/>
<path d="M129.84 116.16C129.08 116.35 128.43 117.16 127.91 117.71C122.06 124 116.9 130.92 111.12 137.28C110.45 138.01 107.23 141.63 106.68 141.84C106.22 142.01 106.28 141.61 106.37 141.29C106.95 139.21 110.18 135.42 111.61 133.57C116.72 126.97 123.19 119.21 129.48 113.76C129.91 113.39 131.87 111.71 131.73 113.37C131.7 113.7 130.17 115.6 129.85 116.17L129.84 116.16Z" fill="#777C3B"/>
<path d="M132.96 64.56C130.52 70.76 121.09 83.34 116.16 87.96C115.53 88.55 112.86 90.78 112.2 90.72L112.08 89.52C118.07 81.05 125.04 72.9 132 65.16C132.28 64.85 132.48 64.57 132.96 64.56Z" fill="#B1BA50"/>
<path d="M345.84 98.3999C338.32 106.02 329.75 113.01 322.31 120.83C321.45 121.73 320.71 123.18 319.44 123.6C323.6 115.88 333.8 105.26 341.06 100.22C341.68 99.7899 344.12 98.1799 344.64 98.0199C345.22 97.8399 345.44 98.0899 345.84 98.4099V98.3999Z" fill="#B1BA50"/>
<path d="M132.96 64.56C132.49 64.56 132.28 64.85 132 65.16C125.04 72.9 118.06 81.04 112.08 89.52C111.61 90.18 110.18 92.74 109.93 92.96C109.66 93.2 109.53 93.13 109.2 93.12C109.16 89.99 111.24 87.44 112.94 84.98C118.68 76.7 125.54 69.52 132.72 62.51C134.35 62.55 133.28 63.74 132.96 64.56Z" fill="#777C3B"/>
<path d="M204.48 45.12C203.66 45.98 202.56 46.54 202.07 47.52C200.96 47.52 201.47 46.3 201.75 45.63C203.03 42.49 213.3 33.24 216.37 30.73C219.15 28.45 223.86 24.58 226.8 22.8C226.86 22.76 227.24 22.8 227.51 22.68C227.8 22.55 227.98 22 228.36 22.09C228.86 22.44 228.86 22.99 228.5 23.43C224.78 26.58 220.85 29.54 217.2 32.77C212.81 36.66 208.45 40.95 204.48 45.13V45.12Z" fill="#777C3B"/>
<path d="M125.04 60C124.5 59.91 124.31 60.18 123.95 60.47C120.33 63.48 115.48 69.29 112.2 72.96C108.69 76.89 104.22 81.68 101.28 85.92C100.86 85.77 101.23 85.16 101.34 84.9C104.31 77.48 114.68 65.88 120.96 60.84C121.7 60.25 123.95 58.3 124.82 58.91C125.13 59.21 125.05 59.62 125.04 60.01V60Z" fill="#B1BA50"/>
<path d="M175.44 55.68C175.49 56.24 175.05 56.29 174.75 56.55C169.62 61.01 164.39 65.37 159.59 70.19L151.92 79.44C152.53 72.34 168.23 55.94 175.44 55.68Z" fill="#B1BA50"/>
<path d="M402.48 104.16C399.53 106.95 396.19 109.31 393.12 111.96C385.49 118.53 378.27 125.67 371.92 133.48C371.66 133.79 371.59 134.2 371.05 134.17C373.24 127.82 383.27 118.24 388.44 113.52C392.31 110 397.58 105.81 402.49 104.17L402.48 104.16Z" fill="#B1BA50"/>
<path d="M282.24 67.2C286.29 63.76 290.3 59.46 294.24 55.8C296.99 53.24 300.37 50.75 302.88 48C303.48 49.03 302.4 50.92 301.83 51.87C299.55 55.67 287.86 66.29 283.68 67.34C283.11 67.48 282.76 67.39 282.24 67.2Z" fill="#B1BA50"/>
<path d="M378.96 89.52C378.85 88.36 379.68 87.52 380.31 86.67C383.89 81.76 389.79 76.93 394.33 72.85C395.56 71.74 398.63 68.31 399.71 67.67C400.09 67.45 400.36 67.38 400.8 67.44C401.49 68.14 398.48 71.22 397.91 71.88C397.73 72.09 397.73 72.42 397.68 72.48C397.66 72.51 397.32 72.51 397.11 72.74C391.71 78.75 385.62 84.15 380.05 90.01C378.97 90.72 379.17 89.73 378.96 89.52Z" fill="#777C3B"/>
<path d="M170.16 11.04C170.33 11.96 169.66 12.41 169.09 12.97C161.77 20.02 152.62 26.27 146.03 34.07C145.78 34.37 145.7 34.64 145.66 35.02C144.58 35.23 144.35 34.74 144.49 33.75C144.61 32.91 146.07 30.91 146.64 30.25C151.23 24.95 162.37 15.58 168.41 11.82C168.97 11.47 169.44 10.99 170.16 11.05V11.04Z" fill="#777C3B"/>
<path d="M203.76 119.04C203.88 119.12 204.48 118.98 204.72 119.04L204.66 119.94C198.04 126.74 191.83 133.96 185.91 141.38C185.39 142.03 184.78 143.55 184.01 143.45L183.25 143.04C183.05 142.7 183.09 141.79 183.13 141.36C183.74 141.4 183.74 140.97 183.97 140.64C189.71 132.67 196.26 125.38 203.77 119.04H203.76Z" fill="#777C3B"/>
<path d="M405.6 75.36C408.05 73.45 410.74 71.8099 413.1 69.7799C414.07 69.2399 414.6 70.1 414.01 70.93L394.31 87.95L392.39 89.99C392.09 90.04 391 90.18 391.19 89.63C391.27 89.07 392.57 86.83 392.98 86.38C396.2 82.83 401.75 78.35 405.59 75.35L405.6 75.36Z" fill="#777C3B"/>
<path d="M175.44 55.68C175.76 55.67 176.08 55.68 176.4 55.68L176.28 56.88C168.27 63.99 160.85 71.71 153.85 79.81C153.52 80.19 153.29 80.63 153.08 81.08L152.03 80.9C151.85 80.64 151.89 79.81 151.92 79.45L159.59 70.2C164.38 65.38 169.62 61.02 174.75 56.56C175.05 56.3 175.49 56.25 175.44 55.69V55.68Z" fill="#777C3B"/>
<path d="M282.24 67.2C282.03 67.38 280.97 68.11 280.8 67.92C280.76 67.5 280.8 67.12 280.91 66.71C281.42 64.87 287.26 59.32 288.95 57.71C293.28 53.59 298.01 49.97 302.64 46.2L303.83 46.08C303.99 46.89 303.37 47.45 302.87 48C300.36 50.75 296.98 53.24 294.23 55.8C290.29 59.46 286.29 63.76 282.23 67.2H282.24Z" fill="#777C3B"/>
<path d="M155.76 34.56C155.81 33.92 156.17 33.54 156.59 33.11C162.42 27.13 170.27 22.21 176.4 16.68C176.96 16.17 177.89 15.46 177.84 14.64C178.06 14.59 178.54 14.08 178.9 14.17C179.87 14.41 178.82 16.38 178.52 16.88C176.89 19.53 169.02 25.62 166.19 27.83C164.23 29.37 157.87 34.36 155.76 34.56Z" fill="#B1BA50"/>
<path d="M347.76 77.76C347.45 78 346.11 78.75 345.84 78.48C345.69 76.6 347.59 75.14 348.83 73.91C353.35 69.45 358.81 64.9 364.08 61.44C364.21 61.36 364.6 61.35 364.88 61.17C365.5 60.77 367.09 59.38 367.75 59.55C368.18 59.77 368.65 60.17 368.17 60.6C361.74 65.93 355.36 71.33 348.84 76.56C348.41 76.91 348.04 77.53 347.75 77.75L347.76 77.76Z" fill="#777C3B"/>
<path d="M178.8 61.44C179.21 61.81 178.99 62.17 178.88 62.59C177.51 67.82 168.36 75.51 164.04 78.96C163.34 79.52 159.16 82.71 158.72 82.75C158.53 82.77 158.44 82.57 158.4 82.56C164.66 75.46 171.61 68.93 177.95 61.9C178.18 61.64 178.44 61.45 178.8 61.44Z" fill="#B1BA50"/>
<path d="M222.96 74.4C218.92 81.34 215.27 87.13 208.78 92.26C208.12 92.78 204.65 95.37 204.16 95.58C203.62 95.82 203.33 95.5 203.28 95.51C203.43 94.92 203.96 94.28 204.36 93.83C209.66 87.76 216.1 80.35 222 74.99C222.3 74.72 222.49 74.39 222.96 74.39V74.4Z" fill="#B1BA50"/>
<path d="M349.2 105.6C348.5 106.73 347.36 107.99 346.44 108.96C340.73 115.03 335.3 120.66 330.36 127.44C330.12 127.76 330.13 128.2 329.52 128.16C329.51 125.94 330.33 124.79 331.49 122.81C335.17 116.51 342.58 108.68 349.2 105.6Z" fill="#B1BA50"/>
<path d="M177.84 14.64C177.89 15.47 176.97 16.17 176.4 16.68C170.27 22.21 162.42 27.13 156.59 33.11C156.17 33.54 155.81 33.92 155.76 34.56C155.44 34.59 155.12 34.55 154.8 34.56C154.59 33.19 155.07 32.43 155.88 31.44C160.13 26.21 170.46 18.22 176.47 15.12C176.61 15.05 176.63 14.75 176.71 14.71C177.11 14.52 177.53 14.72 177.85 14.64H177.84Z" fill="#777C3B"/>
<path d="M71.7599 126L58.6999 142.82C57.2599 145.73 54.1499 148.78 52.9099 151.67C52.6499 152.27 52.4899 152.67 52.5399 153.34C52.3899 153.51 50.5499 153.53 50.1599 153.6C51.7799 149.76 54.2599 146.13 56.6799 142.72C58.9099 139.57 68.5399 126.43 71.7599 126Z" fill="#B1BA50"/>
<path d="M358.08 59.2799C358.28 60.9299 358.04 60.42 357.28 60.99C350.83 65.88 344.56 70.98 338.25 76.05L336.96 76.32C336.75 76.12 337.79 73.76 338.16 73.44C342.07 70.01 346.36 66.29 350.66 63.26C351.86 62.41 355.32 59.8499 356.41 59.4099C356.86 59.2199 357.6 59.2099 358.08 59.2799Z" fill="#777C3B"/>
<path d="M203.76 119.04C196.25 125.38 189.7 132.68 183.96 140.64C183.72 140.97 183.73 141.4 183.12 141.36C183.56 136.91 192.86 126.19 196.32 123C197.29 122.11 201.33 118.7 202.32 118.43C203.94 117.99 203.59 118.92 203.77 119.04H203.76Z" fill="#B1BA50"/>
<path d="M218.88 64.08L196.32 87.12C201.05 79.21 204.34 74.84 211.57 68.89C213.66 67.16 216.47 64.69 218.88 64.08Z" fill="#B1BA50"/>
<path d="M406.8 111.12C406.75 111.7 406.24 112.08 405.84 112.44C397.89 119.69 389.62 126.49 382.56 134.64C383.06 133.04 384.25 131.37 385.24 130C390.87 122.2 398.28 115.52 406.8 111.12Z" fill="#B1BA50"/>
<path d="M158.4 82.56C158.18 82.53 157.75 82.69 157.68 82.44C157.65 81.29 160.99 77.36 161.88 76.32C165.53 72.07 170.03 67.44 174.12 63.6C175.29 62.5 178 59.75 179.15 59.03C179.42 58.86 180.34 58.45 180.25 59.16C180.11 60.21 178.96 60.48 178.81 61.44C178.44 61.45 178.19 61.65 177.96 61.9C171.62 68.93 164.67 75.45 158.41 82.56H158.4Z" fill="#777C3B"/>
<path d="M129.84 116.16C125.91 123.12 119.87 132.31 113.12 136.76C112.44 137.21 111.99 137.72 111.12 137.28C116.9 130.92 122.06 124.01 127.91 117.71C128.43 117.16 129.08 116.34 129.84 116.16Z" fill="#B1BA50"/>
<path d="M252.96 131.28C252.72 131.44 251.36 132.83 251.04 132.48C250.99 132.14 251.07 131.84 251.16 131.52C251.74 129.36 258.81 121.59 260.76 119.52C263.56 116.55 266.68 113.92 269.53 111.01L270.72 110.89C271.17 112.27 269.87 112.43 269.57 112.87C269.42 113.1 269.57 113.42 269.52 113.53C269.05 113.53 268.85 113.85 268.56 114.13C263.82 118.43 258.61 124.51 254.28 129.37C253.83 129.88 253.18 130.65 252.96 131.29V131.28Z" fill="#777C3B"/>
<path d="M210.24 123.36C210 128.08 204.17 135.33 200.64 138.36C199.03 139.74 197.23 140.67 195.6 142.08C195.5 141.54 195.81 141.34 196.06 140.98C199.85 135.49 204.55 129.85 208.8 124.68C209.13 124.28 209.71 123.4 210.23 123.35L210.24 123.36Z" fill="#B1BA50"/>
<path d="M195.6 142.08C195.36 142.29 193.66 144.39 193.44 143.15C193.41 142.98 194.62 140.39 194.84 139.99C196.33 137.25 199.59 132.91 201.61 130.44C202.78 129.02 208.16 122.97 209.39 122.38C209.68 122.24 209.88 122.07 210.25 122.16C210.24 122.56 210.27 122.96 210.25 123.36C209.72 123.41 209.15 124.28 208.82 124.69C204.56 129.86 199.86 135.5 196.08 140.99C195.83 141.35 195.51 141.55 195.62 142.09L195.6 142.08Z" fill="#777C3B"/>
<path d="M64.7999 151.68C63.2699 151.86 61.7599 152.22 60.2399 152.4C60.2099 152.27 60.2799 151.95 60.2399 151.92C60.8899 151.69 61.3499 151.21 61.7999 150.72C64.9699 147.33 70.7699 140.01 73.0599 136.06C73.3599 135.54 73.7199 135.05 73.6799 134.4C73.7499 134.4 73.9599 133.92 74.2799 134.4C74.4799 134.65 74.3999 134.91 74.3499 135.19C74.1099 136.54 72.1499 140.24 71.3999 141.61C69.4999 145.09 66.9999 148.39 64.7899 151.68H64.7999Z" fill="#B1BA50"/>
<path d="M297.6 42.48L296.41 42.37C289.18 48.21 281.27 53.67 274.56 60C274.75 59.37 275.34 58.71 275.77 58.21C280.64 52.37 286.77 46.39 293.6 42.92C294.11 42.66 297.2 41.28 297.5 41.28C298.77 41.29 297.68 42.34 297.61 42.48H297.6Z" fill="#B1BA50"/>
<path d="M184.56 73.2C184.62 73.64 184.31 73.95 184.08 74.28C180.74 78.9 176.26 83.99 172.56 88.44C170.53 90.89 168.34 93.71 166.21 96.01C165.98 96.26 164.41 97.97 164.17 97.69C164.08 97.09 164.21 96.7 164.45 96.17C165.14 94.6 168.44 90.97 169.7 89.42C173.71 84.49 178.38 78.68 182.77 74.17C183.31 73.62 183.67 73.04 184.57 73.21L184.56 73.2Z" fill="#B1BA50"/>
<path d="M73.68 134.4C73.72 135.05 73.36 135.54 73.06 136.06C70.78 140.01 64.97 147.33 61.8 150.72C61.34 151.21 60.89 151.69 60.24 151.92C59.74 151.49 59.24 152.08 59.83 150.67C61.13 147.52 69.21 138.14 71.88 135.36C72.64 134.56 72.56 134.51 73.68 134.4Z" fill="#777C3B"/>
<path d="M247.2 38.16C247.06 38.05 246.4 38.14 246.48 37.58C246.45 36.26 249.09 33.92 250.07 33C251.65 31.52 254.12 29.34 255.83 28.08C256.55 27.55 260.51 25 261.1 24.83C261.78 24.64 262.41 24.6599 262.27 25.5199L247.18 38.16H247.2Z" fill="#777C3B"/>
<path d="M269.52 113.52C266.22 121.2 259.69 126.75 252.96 131.28C253.18 130.63 253.82 129.87 254.28 129.36C258.6 124.5 263.82 118.42 268.56 114.12C268.86 113.85 269.05 113.52 269.52 113.52Z" fill="#B1BA50"/>
<path d="M378 105.36L377.65 106.33C371.81 112.25 366.26 118.46 360.49 124.45C360.14 124.81 358.26 126.92 357.84 126.48C357.8 126.06 357.81 125.69 357.97 125.29C358.32 124.44 361.54 121.04 362.39 120.11C366.91 115.22 371.99 110.81 376.55 105.95L377.99 105.36H378Z" fill="#B1BA50"/>
<path d="M383.52 102.96C383.79 103.22 383.06 104.13 382.9 104.38C381.77 106.08 379.56 108.35 378.13 109.93C374.77 113.63 370.68 118.03 367.09 121.45C366.89 121.64 365.2 123.07 365.05 122.88C364.9 121.97 365.47 121.43 365.92 120.75C368.38 116.97 372.99 113.11 376.22 109.93C378.39 107.79 380.45 105.5 382.61 103.36C382.82 103.15 383.23 102.67 383.53 102.96H383.52Z" fill="#B1BA50"/>
<path d="M419.52 92.16C419.45 92.21 419.16 92.23 418.92 92.39C417.55 93.3 414.66 97.31 413.4 97.68C412.34 97.53 413.79 95.92 414.12 95.52C416.46 92.68 421.68 87.67 424.56 85.32C424.95 85 425.47 84.51 426 84.48C426.86 85.42 421.26 89.16 421.44 90.48C422.99 89.69 425.23 86.46 426.48 85.8C426.72 85.67 426.93 85.65 427.2 85.68L426.72 87C423.52 89.26 419.79 94.77 416.64 96.6C416.36 96.77 415.82 96.95 415.92 96.36C416.68 95.1 418.56 93.85 419.29 92.76C419.45 92.52 419.46 92.25 419.52 92.16C420.03 91.79 420.89 91.53 421.2 90.72C420.12 90.59 419.92 91.55 419.52 92.16Z" fill="#B1BA50"/>
<path d="M438.48 102.48C431.25 111.39 423.59 119.99 415.92 128.52C415.64 128.83 415.44 129.11 414.96 129.12C419.24 123.81 423.22 118.2 427.8 113.04C430.43 110.07 434.45 105.4 437.39 102.95C437.75 102.65 437.93 102.39 438.48 102.48Z" fill="#B1BA50"/>
<path d="M98.4 101.76C98.47 102.1 98.34 102.35 98.21 102.65C96.95 105.64 87.86 118.28 85.44 120.6C85.13 120.9 84.81 121.15 84.37 121.2C83.1 120.95 85.4101 117.99 85.7301 117.52C89.1501 112.51 93.38 107.57 97.07 102.7C97.55 102.07 97.19 101.52 98.4 101.76Z" fill="#B1BA50"/>
<path d="M294.96 120.96C295.17 120.8 295.69 121.12 295.65 121.52C295.63 121.69 294.12 124.11 293.85 124.53C290.8 129.45 285.96 136.68 282.29 141.05C281.16 142.39 281.3 140.92 281.64 139.92C283.09 135.73 291.55 125.34 294.71 121.54C294.89 121.33 294.93 120.97 294.95 120.95L294.96 120.96Z" fill="#B1BA50"/>
<path d="M373.44 68.64L357.49 87.6C356.8 87.08 357.22 86.5 357.48 85.91C359.09 82.27 368.37 72.3 371.64 69.59C372.15 69.17 372.72 68.57 373.44 68.64Z" fill="#B1BA50"/>
<path d="M175.44 120.48C175.51 120.92 175.4 121.2 175.22 121.58C174.14 123.84 169.77 128.89 167.99 131.15C165.74 134.01 163.37 136.79 161.16 139.68C159.33 140.62 160.28 138.87 160.85 137.93C163.48 133.54 170.48 125.24 174.12 121.44C174.3 121.25 175.21 120.22 175.44 120.48Z" fill="#B1BA50"/>
<path d="M293.76 173.04L293.98 171.7C297.78 166.85 300.94 161.3 304.6 156.4C305 155.86 305.47 154.98 306.11 154.8C306.91 154.97 305.76 156.72 305.56 157.12C302.69 162.66 298.67 167.9 294.86 172.81L293.76 173.03V173.04Z" fill="#B1BA50"/>
<path d="M235.92 98.88C236.34 99.37 233.3 102.93 232.8 103.55C228.49 108.88 223.81 113.95 219.49 119.27C218.86 118.88 219.4 118.01 219.65 117.52C221.87 113.24 230.48 104.14 234.12 100.31C234.33 100.09 235.68 98.59 235.92 98.87V98.88Z" fill="#B1BA50"/>
<path d="M288.48 139.92C287.79 139.25 293.09 132.5 293.77 131.65C295.67 129.27 298.02 126.5 300.12 124.32C301.8 122.57 302.42 123.32 301.06 125.26C298.33 129.15 293.08 135.87 289.8 139.2C289.41 139.6 289.14 140.04 288.48 139.92Z" fill="#B1BA50"/>
<path d="M383.68 146.91C385.09 146.95 384.33 147.84 383.86 148.53C381.08 152.66 374.95 159.45 371.41 163.2C370.97 163.67 369.59 164.89 369.95 163.43C370.13 162.68 371.7 160.7 372.26 159.97C375.69 155.45 380.2 151.44 383.69 146.91H383.68Z" fill="#B1BA50"/>
<path d="M293.28 120C293.54 120.99 293 120.85 292.71 121.22C289.5 125.4 284.58 131.09 280.92 134.88C280.64 135.17 279.28 136.73 278.88 136.32C278.73 135.51 279.18 135.07 279.55 134.47C280.55 132.8 282.71 130.42 284.04 128.88C286.58 125.93 289.52 123.29 291.95 120.23L293.29 120.01L293.28 120Z" fill="#B1BA50"/>
<path d="M210.96 166.56C210.23 166.36 209.45 165.89 209.28 165.84L221.16 150L221.4 150.95L210.97 166.56H210.96Z" fill="#B1BA50"/>
<path d="M334.56 140.4C334.69 140.89 334.39 141.05 334.21 141.37C332.1 144.99 325.56 152.6 322.55 155.87C322.3 156.14 321.04 157.62 320.64 157.2C320.56 156.68 320.65 156.33 320.86 155.86C321.3 154.87 323.66 152.11 324.48 151.09C327.35 147.52 330.63 144.24 333.48 140.65L334.55 140.41L334.56 140.4Z" fill="#B1BA50"/>
<path d="M263.76 30.48C264.98 29.66 268.21 27.55 269.46 27.18C269.72 27.1 269.98 27.1 270.24 27.12L270 28.2L254.64 39.12C254.35 39.02 253.67 39.3 253.44 39C253.92 38.23 254.56 37.56 255.23 36.95C257.43 34.97 261.27 32.15 263.76 30.48Z" fill="#777C3B"/>
<path d="M204 164.64C209.59 158.59 215.77 153.14 221.63 147.35L222.72 147.12L205.44 165.12C204.97 164.99 204.44 164.76 204 164.64Z" fill="#B1BA50"/>
<path d="M155.04 138.96C154.49 138.32 157.33 134.65 157.82 133.95C160.53 130.12 163.8 125.9 166.8 122.29C167.17 121.85 168.88 119.68 169.31 119.76C170.29 120.55 168.94 121.21 168.48 121.81C164.54 126.88 160.8 132.81 156.71 137.64C156.54 137.84 155.28 139.25 155.04 138.96Z" fill="#B1BA50"/>
<path d="M303.12 83.76C303.42 84.07 302.16 85.49 301.91 85.79C298.7 89.72 294.91 94.2 291.48 97.92C291.11 98.32 290.57 98.98 290.23 99.3C289.96 99.54 290.08 99.73 289.44 99.6C288.71 98.92 294.58 91.8 295.32 90.96C296.91 89.12 299.84 85.74 301.68 84.36C302.13 84.02 302.49 83.67 303.12 83.77V83.76Z" fill="#B1BA50"/>
<path d="M230.32 97.47C230.84 97.42 231.05 98.03 230.76 98.4L218.76 112.8C218.43 112.56 218.37 112.38 218.4 111.98C218.49 110.46 224.59 103.26 225.96 101.76C226.54 101.12 229.9 97.51 230.32 97.47Z" fill="#B1BA50"/>
<path d="M330.91 86.83L318.01 100.08C318.17 97.74 320.52 95.22 322.08 93.47C323.64 91.72 327.98 87.23 329.78 86.05C330.04 85.88 330.27 85.69 330.6 85.67L330.91 86.82V86.83Z" fill="#B1BA50"/>
<path d="M242.64 82.32C242.6 81.63 242.99 81.06 243.36 80.52C244.58 78.72 247.35 76.2 248.99 74.63C253.08 70.72 257.61 67.25 261.71 63.35H262.43L242.63 82.31L242.64 82.32Z" fill="#B1BA50"/>
<path d="M156 43.68C156.3 44.01 155.05 45.4 154.79 45.71C152.92 48.03 150.73 50.16 148.8 52.44C146.24 55.46 143.29 59.82 140.6 62.48C140.28 62.8 140.28 63 139.68 62.88C139.53 62.02 140.04 61.53 140.44 60.89C142.91 56.93 151.55 47.14 155.15 44.16C155.42 43.94 155.54 43.58 155.99 43.68H156Z" fill="#B1BA50"/>
<path d="M261.12 70.32C261.25 70.83 260.96 70.97 260.77 71.28C259.64 73.08 249.09 83.71 247.21 85.08C246.88 85.32 246.73 85.53 246.24 85.43C245.75 84.94 248.43 81.96 248.87 81.46C251.69 78.31 255.53 74.66 258.71 71.86C259.04 71.57 260.8 69.99 261.11 70.3L261.12 70.32Z" fill="#B1BA50"/>
<path d="M264.72 151.68C264.78 152.1 264.69 152.43 264.53 152.81C263.76 154.67 255.69 165.66 254.12 167.12C253.81 167.41 253.82 167.65 253.2 167.52C252.53 166.81 255.78 162.5 256.36 161.69C258.37 158.86 261.57 154.37 263.92 151.98C264.2 151.69 264.1 151.58 264.71 151.69L264.72 151.68Z" fill="#B1BA50"/>
<path d="M423.36 83.04C423.5 83.68 423.31 83.57 423.06 83.83C421.62 85.4 419.09 87.23 417.47 88.79C414.87 91.3 412.46 94.12 409.8 96.48C408.36 96.48 410.26 94.23 410.64 93.72C412.34 91.47 419.71 84.49 422.07 83.31C422.51 83.09 422.85 82.96 423.36 83.04Z" fill="#B1BA50"/>
<path d="M169.68 96.96C169.6 96.52 169.73 96.24 169.9 95.86C170.43 94.67 172.59 92.24 173.52 91.08C175.89 88.13 179.42 83.67 182.03 81.11C182.68 80.47 183.33 80.61 183 81.35C182.51 82.46 180.17 85.14 179.27 86.26C176.84 89.31 173.91 92.96 171.24 95.75C171.05 95.95 169.91 97.22 169.68 96.95V96.96Z" fill="#B1BA50"/>
<path d="M379.92 97.68C380.02 98.17 379.81 98.3199 379.57 98.6499C378.29 100.39 375.62 102.36 374.03 103.91C371.61 106.29 368.54 110 366 111.96C365.65 112.23 365.29 112.61 364.8 112.55C364.45 112.2 367.18 109.12 367.56 108.71C370.53 105.41 374.69 101.45 378.13 98.64C378.39 98.43 379.64 97.38 379.92 97.67V97.68Z" fill="#B1BA50"/>
<path d="M199.44 44.16C199.62 44.32 198.55 45.63 198.36 45.84C196.8 47.69 194.47 49.93 192.72 51.72C191.13 53.34 188.39 56.51 186.72 57.72C186.39 57.96 186.24 58.17 185.75 58.07C185.24 57.54 187.91 54.63 188.38 54.1C191.48 50.66 195.09 47.67 198.33 44.37L199.42 44.14L199.44 44.16Z" fill="#B1BA50"/>
<path d="M213.36 167.28C212.9 167.15 212.52 166.9 212.16 166.8C215.17 163.17 218.57 159.85 221.88 156.48C222.29 156.06 222.79 154.82 223.55 155.04L223.92 155.86C221.01 160.15 216.75 163.38 213.36 167.28Z" fill="#B1BA50"/>
<path d="M385.92 150C386.22 150.28 384.35 152.86 384.05 153.29C381.41 157.17 378.42 160.83 375.84 164.76L374.88 165.11C374.3 164.5 377.94 159.39 378.52 158.56C380.54 155.67 382.91 153.04 384.94 150.16C385.06 149.9 385.88 149.96 385.92 150Z" fill="#B1BA50"/>
<path d="M260.16 149.52L259.93 150.61C256.1 154.36 253.22 160.6 249.59 164.27C249.22 164.64 249.04 164.99 248.4 164.87C247.82 164.28 251.13 159.86 251.66 159.13C253.43 156.71 255.85 153.6 257.88 151.43C258.12 151.17 259.91 149.23 260.16 149.51V149.52Z" fill="#B1BA50"/>
<path d="M177.12 125.28C177.31 125.46 176.98 126.28 176.84 126.56C175.84 128.71 168.74 138.04 166.92 139.68C166.65 139.92 166.51 140.25 166.08 140.15C165.81 139.85 166.95 138.15 167.18 137.77C168.67 135.33 170.73 132.64 172.47 130.34C172.99 129.65 175.94 125.48 176.22 125.33C176.4 125.23 177.08 125.24 177.13 125.28H177.12Z" fill="#B1BA50"/>
<path d="M327.36 156C326.7 155.26 330.81 149.45 331.48 148.49C332.94 146.41 334.62 144.17 336.24 142.21C336.51 141.88 337.72 140.34 338.03 140.4C338.76 140.89 338.04 141.5 337.73 142.01C334.93 146.57 331 150.88 328.18 155.5L327.36 156Z" fill="#B1BA50"/>
<path d="M226.32 57.12C225.92 56.72 227.66 54.74 227.99 54.35C230.98 50.9 235.01 48.16 238.07 44.75L238.79 44.51C239.32 44.84 238.64 45.49 238.41 45.81C236.28 48.71 231.51 53.1 228.72 55.56C228.39 55.85 226.63 57.43 226.32 57.12Z" fill="#B1BA50"/>
<path d="M376.32 69.36C376.77 69.8 373.67 73.46 373.2 74.03C371.13 76.56 368.6 79.46 366.37 81.84C365.9 82.33 365.33 83.03 364.69 83.28C363.42 83.03 366.18 79.96 366.49 79.57C368.82 76.68 372.84 72.14 375.53 69.66C375.72 69.48 376.01 69.06 376.32 69.36Z" fill="#B1BA50"/>
<path d="M159.36 46.56C159.66 46.85 158.61 48.06 158.39 48.35C155.89 51.64 149.82 58.67 146.76 61.2C146.49 61.42 146.37 61.78 145.92 61.68C145.31 61.04 152.12 53.77 152.76 52.8C154.69 51.48 156.71 48.15 158.39 46.91C158.72 46.67 158.87 46.46 159.36 46.56Z" fill="#B1BA50"/>
<path d="M238.8 40.08C239.06 40.34 238.75 40.66 238.51 40.87C236.46 42.71 234.13 44.34 232.08 46.19C229.24 48.75 226.39 52.15 223.56 54.47C223.29 54.69 223.17 55.05 222.72 54.95C222.59 54.08 223.3 53.4 223.8 52.79C226.46 49.51 234.06 42.67 237.62 40.45C237.87 40.29 238.61 39.88 238.81 40.08H238.8Z" fill="#B1BA50"/>
<path d="M103.44 105.12C103.52 105.56 103.4 105.83 103.22 106.22C101 110.96 95.51 116.16 93.18 121.14L92.41 121.69C91.9 121.14 96.41 113.99 97.06 113.02C98.47 110.9 100.96 107.15 102.66 105.43C102.94 105.14 102.84 105.03 103.45 105.14L103.44 105.12Z" fill="#B1BA50"/>
<path d="M302.4 89.76C302.77 90.16 300.82 92.33 300.48 92.75C297.91 95.9 294.75 99.82 291.97 102.72C291.62 103.08 291.2 103.69 290.65 103.68C290.07 103.02 294.99 97.18 295.7 96.37C297.33 94.48 299.68 91.8 301.57 90.24C301.84 90.02 301.96 89.66 302.41 89.76H302.4Z" fill="#B1BA50"/>
<path d="M90.9601 100.08C91.3701 100.53 88.0301 104.72 87.5501 105.43C85.4701 108.5 83.4301 112.31 81.1801 115.14C80.9501 115.42 80.9101 115.8 80.4101 115.69C80.3201 115.1 80.4601 114.68 80.6701 114.16C81.6801 111.64 88.1001 102.4 90.1201 100.57C90.3901 100.33 90.5301 100 90.9601 100.1V100.08Z" fill="#B1BA50"/>
<path d="M378.24 165.36C378.22 164.27 379.19 163.15 379.82 162.26C381.58 159.75 385.1 155.2 387.24 153.12C387.85 152.53 388.42 152.47 388.33 153.47C388.27 154.1 381.74 161.91 380.77 162.97C380 163.81 379.13 164.64 378.25 165.37L378.24 165.36Z" fill="#B1BA50"/>
<path d="M198.72 49.68C198.82 50.25 198.67 50.46 198.37 50.89C197.13 52.74 190.6 58.89 188.64 60.6C188.13 61.04 187.36 61.72 186.72 61.92C186.36 61.52 188.95 58.65 189.35 58.19C191.16 56.18 193.29 54.43 195.11 52.43L198.71 49.67L198.72 49.68Z" fill="#B1BA50"/>
<path d="M322.56 58.56C322.79 58.76 321.52 60.49 321.32 60.79C319.47 63.54 316.53 67.44 314.29 69.84C313.89 70.27 313.35 70.99 312.73 71.04C312.19 70.4 315.08 66.83 315.62 66.13C317.34 63.87 319.31 61.82 321.13 59.64C321.58 59.1 321.3 58.3 322.57 58.56H322.56Z" fill="#B1BA50"/>
<path d="M307.92 160.8C308.03 160.91 307.87 161.51 307.79 161.74C307.23 163.3 304.49 167.07 303.42 168.65C302.65 169.77 300.54 173.17 299.77 173.88C299.44 174.18 299.29 174.32 298.81 174.23C298.34 173.77 301.89 168.76 302.36 168.06C303.95 165.68 305.83 163.47 307.2 160.94C307.26 160.69 307.91 160.76 307.94 160.79L307.92 160.8Z" fill="#B1BA50"/>
<path d="M321.6 57.36C321.8 57.54 320.93 58.59 320.76 58.8C319.24 60.66 316.46 63.23 314.64 64.92C313.69 65.8 311.37 68.11 310.45 68.65C310.07 68.88 309.8 68.94 309.36 68.88C308.98 68.54 311.45 66.18 311.76 65.88C313.81 63.88 316.12 62.06 318.25 60.13C318.73 59.7 321.1 56.91 321.61 57.37L321.6 57.36Z" fill="#B1BA50"/>
<path d="M324.72 98.64C324.28 98.15 327.58 94.13 328.09 93.49C329.74 91.38 331.93 88.55 333.75 86.67C333.94 86.47 334.08 86.09 334.44 86.17C335.52 86.4 333.72 88.4299 333.46 88.7799C331.26 91.7499 328.32 95.21 325.81 97.93C325.52 98.24 325.21 98.7099 324.73 98.6499L324.72 98.64Z" fill="#B1BA50"/>
<path d="M149.28 94.08C149.41 94.57 149.12 94.73 148.93 95.05C147.99 96.66 142.01 104.03 140.65 105.01C140.32 105.25 140.17 105.46 139.68 105.36C139.57 104.85 139.89 104.6 140.1 104.23C141.05 102.61 146.92 95.44 148.31 94.44C148.64 94.2 148.79 93.99 149.28 94.09V94.08Z" fill="#B1BA50"/>
<path d="M146.4 92.16C146.7 92.45 145.65 93.66 145.43 93.95C144.39 95.35 142.89 97.07 141.72 98.4C141.15 99.05 137.64 103.05 137.16 102.95C136.89 102.89 136.77 102.57 136.91 102.23C137.2 101.55 139.17 99.36 139.79 98.63C141.04 97.16 144.07 93.5 145.42 92.5C145.75 92.26 145.9 92.05 146.39 92.15L146.4 92.16Z" fill="#B1BA50"/>
<path d="M138 151.44C137.47 151.38 136.92 151.24 136.56 151.2C137.98 148.64 139.49 146.07 141.12 143.64C141.58 142.94 143.26 139.81 143.48 141.91L138.01 151.44H138Z" fill="#B1BA50"/>
<path d="M239.28 105.84C239.38 106.33 239.17 106.48 238.93 106.81C236.41 110.25 230.71 114.85 227.51 118.19C227 118.73 226.67 119.71 225.84 119.76C225.66 119.59 226.62 118.44 226.8 118.21C229.83 114.31 234.04 110.41 237.6 106.93C238.16 106.38 238.17 105.6 239.27 105.84H239.28Z" fill="#B1BA50"/>
<path d="M371.52 97.44C371.57 98.61 370.19 99.15 369.47 99.83C366.43 102.77 363.42 105.8 360.57 108.93C360.33 109.2 360.21 109.53 359.75 109.43C359.36 109 361.08 107.06 361.42 106.66C363.43 104.34 366.79 101.02 369.1 98.98C369.43 98.69 371.19 97.11 371.5 97.42L371.52 97.44Z" fill="#B1BA50"/>
<path d="M334.8 154.8C334.93 153.62 335.75 152.46 336.38 151.46C337.69 149.36 339.63 146.7 341.18 144.74C341.43 144.43 342.47 142.96 342.83 143.04C343.56 143.53 342.84 144.14 342.53 144.65C340.89 147.32 337.86 151.36 335.86 153.82C335.57 154.18 335.22 154.6 334.8 154.8Z" fill="#B1BA50"/>
<path d="M184.56 86.64C184.7 87.38 184.29 87.76 183.94 88.3C182.65 90.28 179.86 93.47 178.21 95.29C177.67 95.88 177.05 96.49 176.41 96.97C177.06 95.04 178.74 93.21 180.02 91.58C180.99 90.35 182.19 88.7 183.25 87.61C183.43 87.42 184.34 86.39 184.57 86.65L184.56 86.64Z" fill="#B1BA50"/>
<path d="M311.28 164.64C311.35 165.05 311.19 165.34 311.01 165.68C309.83 167.81 305.98 172.93 304.32 174.83C304.05 175.13 303.74 175.52 303.37 175.68C303.98 173.52 305.7 171.44 307.01 169.6C307.93 168.31 309.47 165.97 310.49 164.93C310.77 164.64 310.67 164.53 311.28 164.64Z" fill="#B1BA50"/>
<path d="M326.64 60C326.74 60.49 326.53 60.64 326.29 60.97C324.7 63.14 319.77 68.07 317.64 69.84C317.37 70.06 317.25 70.42 316.8 70.32C316.54 70.06 319.09 67.21 319.43 66.83C321.29 64.79 323.83 62.15 325.85 60.29C326.12 60.05 326 59.86 326.64 59.99V60Z" fill="#B1BA50"/>
<path d="M303.6 93.36C303.88 93.62 301.53 96.42 301.2 96.83C299.76 98.62 297.83 101.1 296.26 102.69C296.01 102.94 295.91 103.3 295.44 103.19C295.17 102.91 296.23 101.5 296.44 101.19C297.5 99.66 301.34 94.68 302.63 93.7C302.96 93.45 303.13 93.26 303.6 93.35V93.36Z" fill="#B1BA50"/>
<path d="M141.36 151.68C141.35 151.03 141.81 150.47 142.13 149.93C142.84 148.76 144.05 146.69 144.85 145.69C145.08 145.41 145.24 145.11 145.67 145.2C146.24 145.85 142.77 150.85 142.55 151.92C142.09 151.86 141.67 151.72 141.35 151.68H141.36Z" fill="#B1BA50"/>
<path d="M260.64 75.12C260.94 75.42 260.45 75.83 260.24 76.04C258.29 78.01 255.09 81.37 252.97 82.93C252.64 83.17 252.49 83.38 252 83.28C251.9 82.83 252.26 82.71 252.48 82.44C253.49 81.22 258.45 76.37 259.67 75.47C259.9 75.3 260.41 74.9 260.64 75.12Z" fill="#B1BA50"/>
<path d="M377.28 71.76C377.67 72.22 376.11 74.25 375.8 74.71C374.57 76.57 373.1 78.59 371.53 80.15C371.43 79.71 371.68 79.49 371.85 79.16C372.77 77.44 374.59 74.87 375.79 73.26C375.95 73.05 376.99 71.41 377.28 71.75V71.76Z" fill="#B1BA50"/>
<path d="M416.88 63.12C426.4 65.73 436.41 68.47 446.12 70.24C451.09 71.15 456.24 71.89 461.28 71.28C461.66 71.61 458.24 75.85 457.92 76.32C453.24 76.89 448.11 75.54 443.52 74.52C422.17 69.77 401.34 62.22 380.4 56.04C313.77 36.36 246.17 16.89 177.03 8.13C170.63 7.32 164.22 6.06996 157.8 5.51996C156.62 5.41996 154.01 5.12996 152.99 5.26996C152.32 5.35996 152.07 5.65001 151.57 6.01001C148.53 8.14001 145.16 11.68 142.2 14.16C141 15.17 139.7 16.05 138.49 17.05H138.25C138.25 16.58 138.57 16.38 138.85 16.09C140.6 14.18 143.26 11.8 145.21 9.96997C147.81 7.51997 150.45 5.08 153.3 2.94C166.2 3.78 179.04 5.06996 191.86 6.76996C236.85 12.71 282.14 23.45 325.8 35.55C356.4 44.04 386.3 54.74 416.89 63.14L416.88 63.12Z" fill="#FEFEFE"/>
<path d="M431.04 125.52C430.98 125.59 430.98 125.91 430.81 126.12C428.77 128.63 426.62 131.07 424.56 133.56C423.77 133.93 420.14 133.04 419.03 132.84C418.8 132.8 418.61 132.49 418.56 132.48L425.04 125.41C426.98 125.19 429.02 125.74 431.04 125.52Z" fill="#B1BA50"/>
<path d="M440.64 113.28C438.42 116.15 436.17 119.03 433.99 121.93C433.24 122.39 432.64 121.91 431.89 121.91C430.65 121.9 429.39 121.98 428.16 121.92L432.84 115.92C433.25 115.46 435.81 112.81 436.09 112.68C436.96 112.28 439.5 113.49 440.64 113.29V113.28Z" fill="#B1BA50"/>
<path d="M428.16 121.92C427.4 121.88 426.64 121.77 425.89 121.67C425.55 121.62 425.18 121.9 425.29 121.32L435.37 109.8C436.36 109.19 440.7 111.16 442.09 111.12C442.39 111.46 440.92 112.93 440.65 113.28C439.51 113.49 436.97 112.28 436.1 112.67C435.81 112.8 433.26 115.45 432.85 115.91L428.17 121.91L428.16 121.92Z" fill="#EDF784"/>
<path d="M414 145.44C413.82 145.64 413.58 146.42 413.16 146.88C412.68 147.41 409.6 150.57 409.27 150.67C408.16 151 403.75 149.72 402.24 149.52C402.24 149.05 402.56 148.85 402.84 148.56C403.39 147.96 407.13 144.15 407.46 144.05C408.76 143.66 412.52 145.23 414.01 145.45L414 145.44Z" fill="#B1BA50"/>
<path d="M421.68 136.56C421.52 136.75 421.31 137.45 420.95 137.87C419.55 139.51 417.93 141 416.71 142.8C414.57 142.8 412.48 142.05 410.4 141.6C410.4 141.13 410.72 140.93 411 140.64C411.64 139.95 415.75 135.51 416.1 135.4C417.97 135.5 419.78 136.41 421.69 136.56H421.68Z" fill="#B1BA50"/>
<path d="M406.08 154.32C406.03 154.39 406.02 154.71 405.85 154.92C405.35 155.53 402.44 158.99 402.07 159.09C399.64 158.74 397.26 158.14 394.8 157.92C394.71 157.38 394.97 157.19 395.27 156.83C396.43 155.43 397.95 154.17 398.92 152.66L406.08 154.32Z" fill="#B1BA50"/>
<path d="M446.64 100.32C446.24 100.24 444.16 100.25 444 100.08L444.05 99.5299L452.03 88.7799C452.3 88.4999 452.6 88.5599 452.94 88.5999C454.16 88.7599 456.21 90.2 457.68 90.24C457.94 90.6 456.88 91.44 456.72 91.68C455.71 91.61 454.78 91.25 453.92 90.75L453.6 90.83L446.64 100.33V100.32Z" fill="#EDF784"/>
<path d="M418.56 132.48C418.08 132.38 416.04 132.6 415.92 132.48L416.05 131.77L423.36 123.49L432.23 124.09C432.27 124.82 431.41 125.06 431.03 125.53C429.01 125.74 426.98 125.2 425.03 125.42L418.55 132.49L418.56 132.48Z" fill="#EDF784"/>
<path d="M456.72 91.68C454.61 94.8 452.42 97.85 450.24 100.92C449.4 101.44 447.5 100.49 446.64 100.32L453.6 90.82L453.92 90.74C454.78 91.25 455.72 91.6 456.72 91.67V91.68Z" fill="#B1BA50"/>
<path d="M446.88 104.88C445.83 105.15 443.89 104.25 443.04 104.76L439.92 108.72C439.23 108.55 438.32 108.63 437.52 108.35C437.21 108.24 436.94 108.33 437.04 107.88L442.33 101.63L448.32 102.84C448.86 103.21 447.8 104.2 447.46 104.63C447.28 104.86 446.9 104.85 446.88 104.88Z" fill="#EDF784"/>
<path d="M394.8 157.92C394.1 157.86 393.35 157.97 392.64 157.92L392.76 157.2L398.81 150.77C401.72 150.81 404.64 152.1 407.52 152.4C407.83 152.7 406.72 153.94 406.47 154.24C406.38 154.35 406.1 154.29 406.08 154.32L398.92 152.66C397.96 154.16 396.44 155.43 395.27 156.83C394.97 157.19 394.71 157.38 394.8 157.92Z" fill="#EDF784"/>
<path d="M410.4 141.6C409.66 141.44 408.77 141.49 408.06 141.18C407.8 141.07 407.69 141.21 407.76 140.77L414.24 133.8L422.63 135.61C422.85 136.33 421.77 136.46 421.67 136.57C419.76 136.42 417.95 135.51 416.08 135.41C415.73 135.51 411.62 139.95 410.98 140.65C410.71 140.95 410.38 141.14 410.38 141.61L410.4 141.6Z" fill="#EDF784"/>
<path d="M460.08 80.16C459.48 80.16 458.98 79.97 458.4 79.92L458.45 79.37L463.21 72.11C463.46 71.91 463.68 72.02 463.93 72.11C464.45 72.27 468.47 74.07 468.73 74.29C469.5 74.98 468.06 75.53 468.01 75.61L464.45 74.68C464.07 74.9 461.95 79.25 461.17 79.93C460.79 80.26 460.53 80.17 460.09 80.17L460.08 80.16Z" fill="#EDF784"/>
<path d="M473.76 66.96C473.3 67.77 472.98 68.71 472.42 69.58C472.07 70.12 470.47 72.69 470.16 72.85C469.55 73.18 467.31 71.84 466.56 71.52L469.68 65.62C470.07 65.37 472.96 66.98 473.76 66.96Z" fill="#B1BA50"/>
<path d="M414 145.44C412.51 145.23 408.75 143.66 407.45 144.04C407.12 144.14 403.38 147.96 402.83 148.55C402.56 148.85 402.23 149.04 402.23 149.51C401.89 149.46 399.81 149.78 400.07 149.15L406.72 142.1L414.96 144.1L415.08 144.71C414.82 145.22 414.06 145.35 413.99 145.43L414 145.44Z" fill="#EDF784"/>
<path d="M389.28 164.64C388.86 164.74 388.43 164.77 387.98 164.9C387.75 164.96 385.82 166.12 386.16 165.25L390.64 159.89C393.85 159.71 396.94 160.62 400.08 161.05C400.36 161.98 399.46 161.88 399.36 162.01C396.71 162.49 394.18 162.17 391.59 161.59C391.2 161.67 389.39 164.04 389.28 164.65V164.64Z" fill="#EDF784"/>
<path d="M455.52 88.08C455.46 88.05 454.53 88.03 454.13 87.91C453.84 87.83 452.97 87.6799 453.15 87.2699C454.11 86.3299 456.42 81.71 457.2 81.22C457.8 80.85 461.95 82.71 462.96 82.79C463 83.65 462.18 83.88 461.76 84.47L458.44 83.54L455.52 88.07V88.08Z" fill="#EDF784"/>
<path d="M466.56 71.52C466.06 71.3 464.36 71.15 464.42 70.48L468.51 63.63L474.45 65.55C474.88 66.64 473.8 66.88 473.76 66.96C472.96 66.98 470.07 65.37 469.68 65.62L466.56 71.52Z" fill="#EDF784"/>
<path d="M468 75.6C467.85 75.83 467.76 76.45 467.48 76.88C466.54 78.31 465.45 79.65 464.4 81C463.96 81.27 461.69 80.73 460.91 80.63C460.51 80.58 459.99 80.88 460.08 80.15C460.52 80.15 460.78 80.24 461.16 79.91C461.94 79.23 464.06 74.89 464.44 74.66L468 75.59V75.6Z" fill="#B1BA50"/>
<path d="M478.08 60.24C477.99 60.39 477.99 60.75 477.81 61.04C477.19 62.06 476.42 63.06 475.76 64.06C475.21 64.24 472.27 62.91 471.53 62.58C471.28 62.47 471.15 62.17 471.12 62.16C471.54 61.61 472.08 58.92 472.46 58.82L478.08 60.24Z" fill="#B1BA50"/>
<path d="M446.88 104.88C446.8 104.98 446.77 105.49 446.51 105.83C445.53 107.09 444.43 108.27 443.52 109.58C442.94 109.89 440.67 108.91 439.92 108.73L443.04 104.77C443.89 104.25 445.83 105.16 446.88 104.89V104.88Z" fill="#B1BA50"/>
<path d="M461.76 84.48C461.29 85.13 458.93 89.03 458.64 89.17C458.27 89.35 456.19 88.75 455.7 88.55C455.43 88.44 455.55 88.09 455.52 88.08L458.44 83.55L461.76 84.48Z" fill="#B1BA50"/>
<path d="M471.12 62.16C470.9 62.07 469.46 62.21 469.7 61.59C470.24 60.2 472 58.48 472.48 56.87C474.72 57.04 476.81 57.79 478.76 58.85C479.18 59.72 478.24 59.99 478.08 60.25L472.46 58.83C472.08 58.93 471.54 61.62 471.12 62.17V62.16Z" fill="#EDF784"/>
<path d="M399.36 162C398.98 162.48 398.71 163.56 397.99 163.89C395.04 163.46 392.13 163.95 389.28 164.64C389.39 164.03 391.2 161.65 391.59 161.58C394.19 162.17 396.71 162.48 399.36 162Z" fill="#B1BA50"/>
<path d="M21.1201 138.48C21.1801 138.41 21.1801 138.09 21.3501 137.88C23.2401 135.53 25.2801 133.31 27.1301 130.93C28.7901 130.32 30.5601 130.69 32.2801 130.56C34.3101 130.4 36.8101 129.87 38.7501 129.83C39.0801 129.83 40.0601 129.66 39.8401 130.2C37.9201 132.78 36.1901 135.51 34.2901 138.1C34.0301 138.45 33.6301 138.45 33.6001 138.48H21.1201Z" fill="#EDF784"/>
<path d="M40.5601 114.96L48.3 106.02C50.37 105.7 52.5101 105.77 54.6001 105.6C55.6401 105.52 56.9401 105.13 57.9601 105.11C58.3401 105.11 58.3801 105.06 58.3201 105.48C55.8101 108.37 53.69 111.58 51.36 114.61C51.14 114.9 50.75 115.07 50.64 115.21L40.5601 114.97V114.96Z" fill="#EDF784"/>
<path d="M12.7199 148.8C12.7199 148.8 12.6999 148.55 12.8099 148.41C13.4399 147.59 16.3699 143.81 16.9099 143.5C18.0099 142.87 23.1999 143.69 24.8299 143.76C26.5399 143.84 28.2799 143.68 29.9999 143.76C30.4799 144.23 27.0699 148.41 26.6399 149.04L12.7199 148.8Z" fill="#EDF784"/>
<path d="M54 99.36C56.18 96.78 58.36 94.19 60.48 91.56L69.6 90.96C69.79 91.14 69.04 92.05 68.88 92.27C67.7 93.85 66.09 95.82 64.8 97.31C64.38 97.79 63.69 98.78 63.13 98.88L54.01 99.36H54Z" fill="#EDF784"/>
<path d="M70.5601 79.92C72.7101 77.28 74.7601 74.46 77.1601 72H84.7201L80.1501 78.11C79.7301 78.88 78.7001 79.58 78.2401 80.16C76.1201 80.14 74.0001 80.19 71.8801 80.16C71.4701 80.16 70.8101 80.31 70.5601 79.92Z" fill="#EDF784"/>
<path d="M5.04004 158.88C5.69004 157.88 8.31005 153.78 9.25005 153.61C10.06 153.46 11.22 153.66 12.12 153.61C12.59 153.58 13.04 153.38 13.55 153.36C16.94 153.22 20.3701 153.49 23.7601 153.37C24.0001 153.58 21.8201 156.18 21.6001 156.49L5.04004 158.89V158.88Z" fill="#EDF784"/>
<path d="M119.52 24.72C121.73 22.41 123.94 20.11 126.24 17.88L133.68 18L126.97 24.85C126.77 25.06 126.53 25.15 126.24 25.19C124.34 25.5 121.52 24.68 119.52 24.71V24.72Z" fill="#EDF784"/>
<path d="M103.68 41.28C105.63 39.12 107.5 36.86 109.56 34.8H116.64C116.74 35.22 116.47 35.28 116.28 35.52C115.51 36.53 113.77 38.25 112.8 39.24C112.21 39.85 110.86 41.4 110.15 41.51C108.18 41.82 105.73 40.94 103.67 41.27L103.68 41.28Z" fill="#EDF784"/>
<path d="M31.2 126C32.57 124.3 34.1 122.68 35.45 120.96L46.0799 121.2C46.1599 121.58 46.0399 121.75 45.8499 122.05C45.2699 122.96 43.9599 124.11 43.4399 124.8L31.2 126Z" fill="#EDF784"/>
<path d="M50.6401 115.2C50.0801 115.93 48.5701 118.77 47.8301 118.99L37.0801 119.28L40.5601 114.96L50.6401 115.2Z" fill="#B1BA50"/>
<path d="M21.6 156.48C21.16 157.1 20.79 158.49 19.98 158.82C14.5 159.5 8.90003 161.27 3.47003 161.99C3.06003 162.05 3.08004 162.09 3.24004 161.76C3.69004 160.81 4.46003 159.77 5.04003 158.88L21.6 156.48Z" fill="#B1BA50"/>
<path d="M87.6001 59.76C87.6501 59.7 87.6601 59.37 87.8301 59.16C88.3201 58.58 91.4201 54.95 91.6801 54.84C93.0701 54.26 97.0101 55.22 98.6301 55.31C97.4301 56.67 96.3401 58.14 95.1501 59.51C94.8201 59.89 94.3101 60.19 94.0701 60.47L87.5901 59.75L87.6001 59.76Z" fill="#EDF784"/>
<path d="M33.6 138.48C33.56 138.54 33.62 138.95 33.46 139.17C32.69 140.24 32.53 141.23 31.09 141.37C27.17 141.75 22.91 140.87 18.96 141.11C18.68 140.9 20.97 138.65 21.12 138.47H33.6V138.48Z" fill="#B1BA50"/>
<path d="M63.1201 98.88C62.9101 99.68 61.1301 102.15 60.4901 102.37L50.5201 103.68C50.1501 103.49 50.4901 103.26 50.6301 103.07C51.5001 101.91 52.9901 100.53 53.9901 99.35L63.1101 98.87L63.1201 98.88Z" fill="#B1BA50"/>
<path d="M96 49.92C96.45 49.32 99.12 46.01 99.53 45.89L106.08 46.08C106.15 46.45 106.05 46.64 105.85 46.93C105.23 47.88 103.57 49.59 102.73 50.54C102.49 50.81 102.02 50.85 102 50.88L95.76 50.4V50.16L96 49.92Z" fill="#EDF784"/>
<path d="M26.6399 149.04C26.2599 149.59 26.1099 150.81 25.3199 150.96L10.9199 151.44C10.5399 151.23 10.9199 151.02 11.0399 150.84C11.5399 150.09 12.2099 149.45 12.7199 148.8L26.6399 149.04Z" fill="#B1BA50"/>
<path d="M139.2 6C140.28 4.89 141.2 3.45999 142.73 2.92999L150.24 3.35999C150.33 3.75999 150.11 3.84001 149.88 4.07001C148.68 5.24001 145.7 7.45996 144.25 8.39996C144.04 6.28996 140.53 7.05 139.21 6H139.2Z" fill="#EDF784"/>
<path d="M43.4401 124.8C43.0901 125.26 42.7901 126.76 41.8801 126.96L29.52 128.4C29.34 128.25 30.9901 126.26 31.2001 126L43.4401 124.8Z" fill="#B1BA50"/>
<path d="M63.8401 88.08C64.3601 87.32 65.5101 85.48 66.1201 84.96C67.1601 84.1 73.0001 85.31 74.6401 84.96L72.5801 87.83C72.3701 88.05 72.0401 88.04 72.0001 88.08C69.4601 88.25 66.3201 87.73 63.8401 88.08Z" fill="#EDF784"/>
<path d="M81.1201 67.44C81.1701 67.38 81.1801 67.06 81.3601 66.85C82.0001 66.08 83.7601 63.6099 84.5901 63.5899C86.2901 63.5499 88.9101 64.58 90.7201 64.56C90.9301 64.74 88.8901 67.16 88.6601 67.43C88.4601 67.65 88.1101 67.65 88.0801 67.68L81.1201 67.44Z" fill="#EDF784"/>
<path d="M131.76 12.9599C132.48 12.3699 134.37 10.33 135.05 10.13C136.66 9.65998 139.81 10.81 141.6 10.56C141.69 10.95 141.47 11.05 141.25 11.29C140.52 12.08 138.99 13.41 138.12 14.17C137.82 14.43 137.34 14.3499 137.28 14.3999C135.98 12.8999 133.34 13.9599 131.76 12.9599Z" fill="#EDF784"/>
<path d="M70.5599 79.92C70.8099 80.32 71.4699 80.16 71.8799 80.16C73.9999 80.18 76.1299 80.14 78.2399 80.16C77.8299 80.68 77.2699 82.32 76.6299 82.51L68.3999 82.8C68.2899 81.91 69.2099 81.5 69.7099 80.87C70.0499 80.44 70.4299 80.08 70.5599 79.92Z" fill="#B1BA50"/>
<path d="M87.6001 59.76L94.0801 60.48C94.0201 60.54 94.0301 60.88 93.8501 61.08C93.5001 61.48 92.3101 62.98 91.9901 63.08C90.1501 62.88 88.1101 62.91 86.3001 62.62C86.0501 62.58 85.2901 62.52 85.4601 62.07C85.6301 61.62 86.7201 60.4 87.1101 59.93C87.2901 59.71 87.5801 59.78 87.5901 59.76H87.6001Z" fill="#B1BA50"/>
<path d="M113.76 30.48C114.29 29.91 115.34 28.46 116.05 28.33L123.12 28.57C122.46 29.27 121.14 31.06 120.24 31.21C118.36 31.07 116.48 31.03 114.59 30.97C114.13 30.95 113.63 31.21 113.76 30.49V30.48Z" fill="#EDF784"/>
<path d="M110.16 41.52L108.43 44.11L101.28 43.92C101.88 42.88 102.94 42.1 103.68 41.28C105.74 40.95 108.19 41.83 110.16 41.52Z" fill="#B1BA50"/>
<path d="M102 50.88C101.95 50.94 102.04 51.42 101.77 51.72C101.5 52.02 100.68 52.9 100.39 52.99C98.57 53.53 95.5601 52.5 93.6001 52.8C93.2901 52.52 95.4201 50.6 95.7601 50.4L102 50.88Z" fill="#B1BA50"/>
<path d="M131.76 12.96C133.34 13.96 135.98 12.9 137.28 14.4C137.13 14.51 136.92 15.65 135.95 15.83C133.88 16.22 130.85 15.19 128.64 15.59C129.43 14.65 130.44 13.82 131.37 13.04C131.5 12.93 131.72 12.99 131.76 12.95V12.96Z" fill="#B1BA50"/>
<path d="M81.1199 67.44L88.0799 67.68C87.6299 68.2 87.6099 69.6 86.0399 69.6H79.2C79.56 68.87 80.1199 68.23 80.6399 67.61C80.8199 67.39 81.1099 67.46 81.1199 67.44Z" fill="#B1BA50"/>
<path d="M144.24 8.39996C144.19 8.42996 144.15 8.69001 144 8.76001L137.04 8.39996C136.67 8.06996 138.95 6.25 139.2 6C140.52 7.05 144.03 6.28996 144.24 8.39996Z" fill="#B1BA50"/>
<path d="M126.24 25.2C126.2 25.65 125.37 26.62 125.03 26.77C124.51 27.01 124.33 26.64 124.2 26.64H117.84V26.28C118.28 25.68 119.04 25.22 119.52 24.72C121.52 24.69 124.34 25.51 126.24 25.2Z" fill="#B1BA50"/>
<path d="M113.76 30.48C113.63 31.2 114.13 30.94 114.59 30.96C116.48 31.02 118.36 31.06 120.24 31.2C120.33 31.56 119.26 32.64 119.16 32.64H111.84C112.36 31.81 113.11 31.18 113.76 30.48Z" fill="#B1BA50"/>
<path d="M72 88.08C71.95 88.13 71.95 88.51 71.78 88.69C71.01 89.54 64.17 89.3899 62.64 89.5199C62.45 89.3499 63.3 88.16 63.84 88.08C66.32 87.73 69.46 88.25 72 88.08Z" fill="#B1BA50"/>
<path d="M138.24 17.04H138.48C137.76 17.63 137.08 18.55 136.08 18.96C136.7 18.32 137.47 17.3 138.24 17.04Z" fill="#CCCFB0"/>
<path d="M95.76 50.16C95.82 50.06 95.94 50 96 49.92L95.76 50.16Z" fill="#B1BA50"/>
</svg>
