<svg width="271" height="415" viewBox="0 0 271 415" fill="none" xmlns="http://www.w3.org/2000/svg">
<path d="M153.13 414.34C150.69 414.12 146.37 412.95 144.48 411.35C142.03 409.26 142.96 407.11 145.69 406.06C144.98 405.33 145.13 403.53 144.85 403.06C144.45 402.38 142.26 402.56 141.48 399.95C140.93 394.44 139.74 388.52 139.45 383.03C139.27 379.79 139.58 375.1 143.25 374C143.13 370.3 142.42 366.58 142.09 362.88C141.28 353.84 141.14 344.22 139.66 335.31C139.45 334.06 138.53 329.08 137.36 328.73C136.3 328.41 134.24 328.43 133.09 328.44C125.3 328.57 116.66 329.97 109.11 331.82C91.5398 336.12 74.8598 343.71 60.7598 355.01C61.3598 356.58 62.3498 358.09 62.8998 359.75C63.7798 362.4 64.4498 366.59 64.0698 369.34C63.8698 370.79 62.6398 370.38 61.4498 370.44C62.2298 375.14 60.9498 380.33 57.3698 383.63C60.1198 383.19 72.2898 385.47 66.8498 389.87C61.9598 393.83 50.1298 392.45 44.0798 391.76C40.2398 391.32 36.1198 390.66 32.4098 389.63C31.1798 392.62 30.2698 394.71 27.1198 392.15C24.8198 390.28 24.1398 388.63 27.5998 387.7C23.4498 383.96 29.3998 381.29 32.8798 381.46C32.6498 380.96 32.4498 380.29 32.7598 379.78C32.8698 379.6 35.5798 377.81 36.1098 377.37C36.6398 376.93 38.8398 375.12 38.8298 374.66L37.3198 370.42C36.2698 371.17 34.8398 374.55 33.8598 374.87C32.6998 375.25 31.6498 374.79 30.5998 374.74C29.3798 374.68 26.3298 374.93 25.5398 374.04C24.6398 373.02 24.9098 369.7 25.1798 368.4C25.0198 367.78 22.9298 368.36 22.8198 366.69L25.1998 357.87C26.1398 356.72 28.5298 358.41 28.8098 358.18C27.2298 355.81 27.2298 354.53 29.1898 352.45C31.7798 349.7 35.6998 348.02 39.3598 347.26C42.2398 341.97 46.6998 337.95 51.5298 334.47C58.7698 329.26 66.8098 325.21 75.0998 321.92C75.0498 320.82 74.6698 319.94 75.1298 318.83C71.5598 319.02 72.3898 316.22 73.5698 314.02C75.3298 310.72 78.5998 309.81 82.0498 309.18C82.8998 301.63 91.2398 296.37 98.2998 295.79C110.91 294.76 122.91 299.46 133.93 304.91C133.4 300.71 133.33 296.52 133.22 292.3C133.12 288.44 132.45 280.94 135.56 278.03C136.15 277.48 138.13 276.68 138.21 276.55C138.35 276.32 138.24 275.85 138.26 275.55C133.44 273.82 131.41 269.77 129.38 265.42C110.82 262.56 92.0698 261.43 73.3498 260.26C53.4098 259.01 33.3498 260.76 25.6898 238.08C21.2698 224.99 26.1198 209.5 22.8498 196.52C20.9198 188.85 15.8298 184.47 14.6898 175.4C13.8398 168.57 16.1298 161.69 20.1198 156.2C18.4498 151.73 16.0898 143.8 19.1098 139.57C19.5598 138.94 20.0798 138.77 20.4998 138.38C20.7098 138.19 20.7198 138.21 20.6498 137.88C17.8398 137.89 15.6398 135.3 14.8198 132.79C8.70984 101.96 -0.96016 68.6902 0.97984 36.9702C1.31984 31.3902 3.04982 24.1403 7.32982 20.2803C14.2798 14.0203 32.1098 5.10028 41.2498 3.32028C59.5798 -0.229717 80.1298 0.490292 98.7798 0.830292C116.95 1.17029 135.52 1.43029 153.38 5.27029C169.07 8.64029 174.38 13.8003 179.54 28.7903C184.7 43.7803 186.12 60.6903 188.97 75.9903C193.23 98.9003 198.44 121.97 205.73 143.95C206.93 147.56 207.95 151.26 209.06 154.89C216.19 149.56 223.3 145.43 232 143.15C239.54 141.17 253.76 139.52 260.67 143.48C266.82 147.01 264.49 154.24 257.54 153.69C262.19 159.44 255.04 164.41 249.85 165.59C249.65 176.49 247.14 187.25 246.06 198.04C248.05 198.84 250.15 200.52 251.15 202.42C252.79 205.53 254.57 215.78 254.07 219.2C253.23 224.97 246.79 228.88 242.78 232.39C234.21 239.91 226.48 248.34 217.7 255.78C213.6 259.26 209.38 262.58 204.85 265.5C204.85 267.63 205.39 269 204.8 271.21C204.26 273.25 203.2 274.66 201.37 275.7C196.69 278.36 194.65 276.23 190.18 275.12C183.54 273.47 175.36 272.19 168.53 271.09C166.24 270.72 163.93 270.46 161.65 270.05C160.47 270.88 159.61 272.35 158.39 273.27C157.17 274.19 154.73 274.53 155.05 276.29C156.35 276.17 157.16 276.31 158.18 277.13C162.82 280.85 161.46 293.92 161.76 299.46C161.81 300.43 162.19 301.41 162.01 302.45C169.87 299.24 177.67 295.56 185.91 293.35C196.35 290.55 203.58 289.95 210.96 298.74C211.66 299.58 213.51 302.66 214.1 303.04C214.69 303.42 216.48 303.6 217.42 304.04C219.31 304.93 222.19 308.09 222.26 310.26C222.31 311.8 221.24 311.7 221.07 312.21C220.82 312.98 221.98 316.06 220.57 317.21C222.95 318.14 225.64 318.68 228.13 319.48C236.52 322.19 250.93 328.03 255.09 336.2C256.06 338.11 256.84 340.35 256.81 342.52C261.2 343.11 265.24 345.58 267.8 349.17C268.55 350.22 270.76 353.83 270.31 354.93C270.25 355.09 269.08 356.76 268.92 356.92C268.41 357.44 267.35 357.91 266.65 358.14C267.31 362.13 266.96 365.97 264.47 369.27C264.56 369.69 271.15 370.73 270.37 373.96C269.91 375.88 266.25 376.94 264.53 377.25C259.41 378.18 244.26 378.49 240.47 374.56C237.77 371.77 241.91 370.75 243.54 369.92C243.71 369.84 244 369.9 243.84 369.51C243.53 368.78 242.01 367.6 241.89 366.54C240.32 366.47 238.69 367.19 237.19 366.31C236.04 365.64 236.74 365.18 236.58 364.52C236.28 363.23 235.79 362 235.68 360.62C235.19 354.29 238.47 347.63 243.83 344.31C235.5 340.02 226.83 336.37 217.77 333.89C201.49 329.42 184.49 327.75 167.63 327.63L158.05 328.56L160.06 373.79C162.33 374.41 163.39 374.2 164.17 376.68C165.11 379.69 165.49 386.33 165.61 389.64C165.76 393.66 166.3 400.51 161.74 402.17L160.56 405.61C163.33 406.31 168.83 408.61 164.89 411.74C162.84 413.37 158.31 414.11 155.76 414.25C154.97 414.3 153.89 414.32 153.12 414.25L153.13 414.34ZM130.33 4.94028C119.94 3.02028 106.37 3.95028 95.6398 3.75028C75.4598 3.38028 54.5898 2.11028 34.9898 7.88028L28.3298 10.9403C32.7598 10.4503 37.2098 9.85028 41.6498 9.50028C67.4798 7.52028 94.5898 5.87026 120.36 8.30026C129.46 9.16026 138.68 10.3603 147.46 12.8703C148.31 11.5403 149.46 10.4503 150.48 9.26029C150.86 8.82029 151.3 8.39028 151.68 7.94028C144.72 6.25028 137.48 5.52028 130.32 4.94028H130.33ZM152.41 9.98026C151.54 11.2403 150.51 12.0703 149.44 13.0803C149.24 13.2703 149.22 13.2503 149.29 13.5803L154.01 15.4603C154.45 15.5003 157.59 12.1702 158.17 11.6602C158.27 11.5702 160.35 10.3203 160.09 9.98026L153.3 8.29025C152.91 8.39025 152.59 9.72026 152.41 9.98026ZM132.49 12.8603C125.66 12.2103 118.84 11.1003 111.98 10.6903C87.6898 9.25028 61.8598 10.7903 37.5698 12.8603C26.9898 13.7603 21.5898 14.0903 12.5098 19.9603C6.33984 23.9503 4.76982 29.6003 4.32982 36.7403C3.46982 50.7503 5.54984 66.2903 7.72984 80.1303C10.6298 98.5303 14.9098 116.71 19.0098 134.85C19.3198 135.37 20.3998 135.44 21.0098 135.49C26.5198 135.97 33.5398 135.62 39.2498 135.73C41.8498 135.78 44.4598 135.67 47.0598 135.72C47.4598 135.36 44.8898 131.98 46.5798 131.88C46.7098 132.4 47.2698 132.76 47.2998 132.84C47.6198 133.69 47.6598 134.96 48.3798 135.72H55.9398L54.9798 132L55.8198 131.87L56.9398 135.69L61.9498 135.96C62.1798 135.75 61.0398 133.11 60.8598 132.61C60.7398 132.27 60.8298 131.85 60.7598 131.65C61.3998 131.33 62.1898 132.99 62.4398 133.57C62.7098 134.19 62.6298 135.42 63.2798 135.97H69.3998C68.6798 131.91 66.1898 127.74 65.3698 123.8C65.2098 123.02 65.4598 123.26 66.0398 123.25C67.6398 127.51 69.5398 131.66 70.9998 135.98L118.12 136.45H120.76C121 136.21 119.9 133.3 119.85 132.66C119.82 132.24 120.04 131.99 120.04 131.89C120.64 131.86 120.67 132.22 120.84 132.66C121.26 133.77 121.55 135.26 121.74 136.44C123.93 136.59 126.28 136.28 128.45 136.45C128.79 136.48 129.38 136.88 129.89 136.69L127.97 130.57L128.93 130.69C129.76 132.52 130.5 134.44 130.87 136.43C132.79 136.6 134.68 136.73 136.61 136.69C137.1 136.69 138.63 136.96 138.53 136.33C138.23 134.35 136.14 131.34 135.65 129.25C135.67 129.07 135.12 128.66 135.77 128.29C136.1 128.21 136.18 128.47 136.33 128.68C136.91 129.48 137.88 131.47 138.33 132.44C138.95 133.78 139.34 135.23 139.96 136.57C140.32 136.81 143.32 136.69 144.05 136.68C144.78 136.67 145.66 136.77 146.34 136.68C146.69 136.63 146.74 136.82 146.68 136.33L142.85 125.16C142.94 125.1 142.93 124.23 143.57 124.44C145.28 128.44 147.4 132.31 148.16 136.65C150.7 136.77 153.27 136.57 155.82 136.67C156.26 136.69 156.78 136.93 157.5 136.91C157.74 136.91 157.98 136.91 158.22 136.91C158.39 136.31 157.86 135.86 157.74 135.47C157.29 134.05 157.01 132.56 156.54 131.15C156.59 131.11 156.57 130.16 157.46 130.71C158.06 131.08 159.49 136.84 159.81 136.92C164.52 136.98 169.24 136.8 173.94 136.9C176.85 136.96 179.88 137.28 182.8 137.4C183.47 137.43 184.41 137.56 184.85 137.03V131.51C184.85 130.12 183.15 124.92 182.76 123.04C177.93 99.6003 174.37 75.7003 168.89 52.4403C167.02 44.5203 163 27.2603 157.5 21.5903C152.78 16.7303 139.19 13.2803 132.53 12.8403L132.49 12.8603ZM159.85 12.3803C158.72 13.8103 156.8 15.1303 155.53 16.4603C157.45 17.3003 158.99 18.8403 160.45 20.3003C161.84 18.6203 163.39 17.0803 164.89 15.5003C165.23 15.1403 166.73 14.0203 166.79 13.6703C166.85 13.3703 166.61 13.2703 166.45 13.1003C165.89 12.5003 161.53 10.3602 160.69 10.2202C159.99 10.1002 160.71 10.7003 160.54 11.2503C160.52 11.3103 159.9 12.3203 159.85 12.3803ZM166.09 16.9403C164.78 18.6303 163.23 20.3303 161.52 21.6203C163.14 24.3203 164.63 27.1303 165.61 30.1303C165.97 30.2303 166.01 30.0403 166.21 29.8903C167.98 28.6503 169.75 26.3103 171.13 24.6103C171.9 23.6603 172.7 22.7303 173.5 21.8003C172.48 18.9203 170.37 16.3803 168.12 14.3003C167.58 14.1803 166.41 16.5303 166.1 16.9303L166.09 16.9403ZM171.85 27.0203C171.34 27.7603 169.95 29.5503 169.34 30.1503C168.78 30.7003 166.61 31.8903 166.56 32.4203L170.41 45.7403C170.8 45.7903 171.06 45.5603 171.35 45.3603C173.08 44.2103 174.95 42.2403 176.65 40.9403H178.09C178.37 41.3403 177.42 42.2903 177.13 42.6203C175.33 44.6803 173.35 46.2103 171.17 47.8303L172.57 55.3403C172.99 55.4503 173.05 55.1703 173.29 54.9803C175.09 53.6003 177.14 51.0203 178.81 49.3403C179.51 48.6403 180.32 47.9003 181.16 47.3703L181.23 47.0603C179.71 38.8003 177.58 30.6503 174.24 22.9403L171.84 27.0203H171.85ZM179.04 51.7303C177.46 53.7203 175.66 55.9503 173.32 57.0503C173.19 57.4603 173.27 57.8903 173.32 58.3003C173.67 62.2403 175.48 67.9703 176.29 72.1203C176.98 75.6203 177.6 79.1503 178.09 82.6803C178.54 82.7903 178.55 82.5303 178.77 82.2803C179.7 81.2003 180.81 78.6703 181.8 77.8703C182.26 77.5003 182.29 77.5903 182.65 78.0003L178.56 84.2503L180.05 92.8303L180.37 93.2303L185.05 88.2003C186.74 87.5403 185.54 89.2003 185.05 89.8803C183.72 91.7403 181.79 93.2203 180.49 95.0403C181.44 98.0603 181.47 102.17 182.46 105.06C182.6 105.46 182.69 105.53 183.01 105.24C184.45 103.92 185.87 101.45 187.21 99.9603C187.62 99.5103 187.58 99.3503 188.41 99.4803C188.62 99.6703 187.66 101.54 187.45 101.88C186.84 102.87 182.94 106.83 182.89 107.28L185.17 118.19C187 116.79 188.51 115.05 190.09 113.39C190.53 112.93 192.32 110.72 192.49 110.61C192.87 110.38 193.43 110.83 193.44 110.63C188.5 90.1603 185.7 69.2603 181.68 48.5903C181.18 48.0103 179.21 51.4903 179.04 51.7103V51.7303ZM190.32 115.33C189.99 115.71 189.46 116.33 189.13 116.66C188.5 117.28 185.33 119.4 185.33 119.96L188.88 135.13C189.06 136.88 188.53 138.71 187.21 139.93C191.54 142.8 192.43 148.13 193.17 152.93C195.03 164.97 194.35 178.44 191.46 190.26C189.93 196.53 187.39 202.49 185.65 208.69C181.04 225.14 179.11 250.08 186.92 265.73C188.94 269.77 193.89 275.75 198.96 273.96C206.69 271.24 199.03 260.36 197.34 255.54C191.23 238.07 193.25 212.32 201.95 195.96C207.57 185.4 216.24 178.11 226.31 171.97C231.51 168.8 237.22 166.05 243.11 164.41C248.37 162.95 259.53 161.92 256.4 153.71C255.33 152.95 248.93 153.55 247.34 153.76C233.68 155.56 229.44 164.59 219 171.25C214.38 174.2 205.98 177.41 201.84 172.08C198.09 167.26 202.14 161.69 205.44 158.04C205.76 157.68 206.65 157.31 206.64 156.73L203.64 147.97L203.29 147.73C202.76 149.09 202.09 150.55 201.37 151.81C200.23 153.81 198.17 157.07 196.45 158.53C196.18 158.76 196.06 159.11 195.61 159.01C196.59 155.48 198.55 152.29 200.41 149.17C201.16 147.92 202.15 146.78 202.79 145.46C202.63 145.06 201.57 140.72 201.13 141.01C200.44 142.4 199.62 143.82 198.73 145.09C198.35 145.63 195.55 149.59 194.89 148.93C195.08 146.8 196.34 144.2 197.53 142.45C198.13 141.57 200.7 139.18 200.61 138.31C197.66 129.37 195.46 120.21 193.45 111.01L190.33 115.33H190.32ZM217.92 168.36C222.37 166.12 227.41 160.59 231.62 157.47C238.54 152.34 243.77 151.33 252.36 151.56C255.15 151.63 257.7 152.56 260.39 151.21C261.9 150.45 262.14 149.28 261.59 147.73C260.69 145.18 255.73 144 253.28 143.68C244.33 142.5 232.02 144.4 223.82 148.24C217.91 151.01 204.77 159.79 203.37 166.43C201.61 174.78 214.52 172.04 217.9 168.36H217.92ZM188.64 146.76C188.51 146.25 187.93 143.73 187.52 143.63L180.6 143.88L180.25 144.23L186.51 159.45C187.37 159.55 188.26 159.41 189.13 159.47C189.47 159.5 190.06 159.9 190.57 159.71C190.17 155.45 189.71 150.9 188.65 146.75L188.64 146.76ZM26.4098 156.36C27.0898 156.38 28.0498 156.44 28.6998 156.36C29.0298 156.32 29.1198 156.49 29.0498 156.01C27.3898 152.53 25.5698 149.08 24.0198 145.56C23.8898 145.27 23.7898 143.97 23.3798 143.87H21.1398L24.3698 156.12C24.6798 156.53 25.8798 156.34 26.4198 156.35L26.4098 156.36ZM36.4898 146.04C36.1298 145.44 35.7198 144.56 35.5298 143.88H25.6898L31.4398 156.43C31.8398 156.93 32.5798 156.8 33.1298 156.84C36.1798 157.03 39.4198 156.7 42.4898 156.84C42.5398 156.56 42.4598 156.38 42.3598 156.13C41.1398 153.17 38.1998 148.92 36.4898 146.04ZM47.7698 157.08C51.0498 157.18 54.3398 156.93 57.6098 157.32C56.0298 153.95 54.4798 150.51 52.6998 147.24C52.4498 146.77 52.0598 146.4 51.8598 146.04C51.5198 145.43 51.4198 144.41 50.7798 143.88H37.9398L45.2598 156.84C45.7498 157.27 47.0598 157.05 47.7798 157.08H47.7698ZM71.2898 146.04C70.9598 145.36 70.8398 144.45 70.2098 143.88H53.5298L60.0698 157.02C60.5498 157.48 61.9698 157.3 62.6498 157.32C67.1198 157.47 71.6598 157.02 76.0898 157.56C74.7698 153.63 73.1098 149.77 71.2898 146.04ZM82.5698 157.56C86.0098 157.6 89.4498 157.64 92.8898 157.8C92.9098 157.53 92.8898 157.28 92.8298 157.02C92.1698 154.05 89.9698 149.07 88.7998 146.05C88.5398 145.38 88.3498 144.58 88.0798 143.89H72.2398L78.1098 157.34C78.5298 157.77 81.6898 157.56 82.5598 157.57L82.5698 157.56ZM100.33 146.04C99.9998 145.37 99.8798 144.44 99.2498 143.88H90.2498L95.3198 157.77C96.3398 157.85 97.3798 157.79 98.4098 157.8C100.74 157.83 103.07 157.68 105.37 158.04C105.96 157.46 101.01 147.4 100.33 146.04ZM110.41 158.04C113.44 158.1 116.49 157.99 119.53 158.04C118.17 154.07 116.43 150.22 114.97 146.28C114.71 145.58 114.77 144.47 114.13 143.88H101.77L107.89 157.8C108.24 158.23 109.76 158.03 110.41 158.04ZM126.49 158.28C129.45 158.32 132.41 158.25 135.37 158.28C134.2 154.07 132.46 150.07 130.81 146.04C130.56 145.43 130.58 144.42 129.97 143.88H116.17L122.28 158.05C122.7 158.48 125.64 158.27 126.49 158.28ZM148.81 146.04C148.54 145.42 148.37 144.54 148.09 143.88H132.49L137.79 158.49C138.82 158.55 139.86 158.51 140.89 158.51C145.21 158.55 149.53 158.57 153.85 158.75C152.39 154.42 150.61 150.22 148.81 146.03V146.04ZM159.85 158.76C163.13 158.85 166.4 159.07 169.69 159C168.17 154.74 166.62 150.47 164.89 146.28C164.55 145.47 164.42 144.54 163.81 143.88H150.25L156.13 158.52C156.49 158.96 159.07 158.73 159.85 158.76ZM179.28 146.28C179.02 145.65 178.74 144.57 178.56 143.88H165.84L171.62 158.97C172.76 158.9 173.84 159.18 174.96 159.23C178.15 159.38 181.38 159 184.56 159.47C183.17 154.93 181.09 150.64 179.28 146.27V146.28ZM26.4098 162.36C28.3398 169.04 30.3298 173.43 32.9298 179.72C36.1698 187.56 38.6798 195.93 39.1298 204.48C39.8798 218.68 33.5598 237.46 40.0498 250.59C41.2098 252.93 41.7498 253.01 44.2298 253.85C52.7098 256.73 63.4498 256.57 72.3698 257.15C104.36 259.23 135.75 262.47 167.34 268.02C173.35 269.08 179.88 271.2 185.65 272.03C185.79 272.05 186.04 272.1 186.01 271.91C184.23 270.09 183.28 267.78 182.41 265.43C176.26 248.93 177.61 225.22 182.29 208.43C186.97 191.64 190.9 183.45 190.81 165.95C190.81 164.35 190.81 162.75 190.81 161.15L25.5798 159.23C25.1098 159.29 26.3398 162.08 26.4198 162.35L26.4098 162.36ZM21.3698 159.97C21.3698 160.58 20.7098 160.68 20.4398 161.08C19.7798 162.05 18.5298 167.6 18.3098 169.03C16.2798 182.32 26.3698 188.61 27.1298 200.63C27.8898 212.65 24.4098 224.17 28.0198 236.22C29.4298 240.94 32.2198 246.69 36.3698 249.47C35.3298 246.36 34.2898 243.08 34.0798 239.77C33.2098 226.48 37.1698 213.37 35.4998 200.2C34.2898 190.71 31.6898 185.5 27.8098 177.17C25.3798 171.95 23.9498 165.84 22.0398 160.38L21.3798 159.97H21.3698ZM247.44 166.2C245.71 166.57 243.65 167.04 241.98 167.58C240.19 168.15 239.77 167.88 239.53 169.93C237.93 183.25 236.98 196.67 235.45 210C234.85 215.19 234.17 216.3 231.33 220.52C223.36 232.34 210.77 242.24 199.09 250.19C198.87 250.34 198.76 250.54 198.74 250.8C198.67 251.49 199.91 254.89 200.24 255.78C201.24 258.47 202.71 260.98 203.79 263.64L204.28 263.54C208.83 260.47 213.06 257.01 217.23 253.44C223.52 248.05 232.14 240.59 237.39 234.36C239.41 231.96 239.71 231.08 240.23 227.96C241.14 222.51 241.25 216.74 241.98 211.23C242.78 205.18 244.09 199.19 245.03 193.16C246.41 184.21 247.61 175.24 249.15 166.32C249.24 165.57 247.87 166.12 247.47 166.2H247.44ZM207.12 193.08C197.82 206.09 195.97 225.1 196.83 240.68L197.16 241.07C202.59 235.19 208.41 229.35 214.8 224.52C215.22 224.2 216.38 223.93 216.48 223.2C216.37 222.74 213 221.8 213.36 220.44C213.67 220.51 214.09 220.42 214.56 220.55C215.62 220.85 217.18 222.27 218.26 222.12C219.21 221.99 221.39 219.78 222.56 219.5C222.7 217.91 222.93 216.36 223.18 214.78C223.26 214.26 223.64 213.9 223.68 213.72C224.52 213.69 224.34 213.57 224.4 214.31C224.52 215.76 224.22 217.1 224.16 218.52C224.25 218.65 226.54 216.98 226.8 216.84C228.64 215.87 230.68 215.14 232.52 214.16C233.05 208.66 233.54 203.15 234 197.64C234.04 197.15 234.52 196.24 234.21 195.51C229.42 194.54 224.55 193.44 219.69 192.87C215.8 192.42 211.87 192.46 207.97 192.12C207.12 192.28 207.36 192.74 207.12 193.08ZM245.52 200.76C245.1 203.31 244.58 205.86 244.32 208.44L246.64 206.56C247.06 206.35 248.5 205.81 248.88 205.8C249.29 205.79 250.47 206.27 251.03 206.16C249.83 203.46 247.82 201.67 245.63 199.8C245.37 199.95 245.56 200.48 245.51 200.76H245.52ZM244.56 210.12C245.5 209.92 245.59 210.78 245.7 211.5C245.79 212.06 246.19 215.04 245.64 215.15C245.09 215.26 245.05 214.49 244.96 214.16C244.61 212.89 244.53 211.42 244.57 210.11C244.46 210.22 244.19 210.28 244.08 210.45C243.05 217.05 243.08 223.87 241.94 230.51C245.86 227.2 251.5 223.49 251.99 217.88C252.15 216.04 251.7 211.75 251.01 210.04C249.71 206.81 246.46 208.18 244.58 210.11L244.56 210.12ZM198.01 248.27C198.37 248.37 198.41 248.18 198.61 248.03C207.64 241.74 217.33 233.12 224.77 224.99C226.94 222.62 230.47 218.67 232.19 216.09C232.38 215.8 232.64 215.55 232.57 215.15L221.88 221.87L223.21 224.51L222.27 224.13L220.73 222.62C220.02 223.05 219.44 223.31 219.61 224.27C219.2 224.31 218.83 223.98 218.42 224.14C218.25 224.21 215.62 226.14 215.51 226.29C214.68 227.41 217.05 231.35 215.88 231.7C214.35 231.91 214.38 227.66 213.49 227.86C213.2 227.93 209.28 231.4 209.04 231.81C208.5 232.71 208.2 235.93 207.61 236.38C207.26 236.65 207.06 236.4 206.92 236.1L207.01 233.62L197.41 243.46L198.01 248.25V248.27ZM153.6 275.63C149.96 276.58 146.22 277.04 142.47 276.56C141.49 276.43 140.44 275.99 139.54 275.88C138.76 275.79 139.54 277.91 139.8 278.27C141.49 280.61 150.19 280.25 152.38 278.62C153.31 277.93 153.65 276.76 153.59 275.64L153.6 275.63ZM137.53 310.67C142.03 313.84 150.46 313.26 155.53 311.75C159.68 310.52 159.84 309.58 160.1 305.28C160.39 300.52 159.97 293.56 159.61 288.71C159.34 285.07 159.15 277.9 154.59 277.31C153.29 281.54 146.11 281.78 142.57 281.03C140.21 280.53 139.81 280.27 138.46 278.42C137.72 277.41 136.98 279.42 136.7 280.19C136.04 282.04 136.81 283.21 138.41 284.23C141.66 286.28 150.15 285.03 153.79 283.85C154.87 283.5 155.72 283.07 156.73 282.59C156.51 284.26 154.51 285.05 153.37 285.95L151.21 286.43C151.21 286.77 151.41 287.06 151.45 287.39C152.14 292.24 151.9 297.14 151.93 302.03C151.07 301.99 151.08 300.67 150.73 299.87C150.32 295.49 149.95 291.05 150.49 286.67C149.74 287.12 146.78 286.98 146.4 287.25C145.76 287.7 146.4 288.79 146.42 289.07C146.58 292.85 146.74 297.7 146.42 301.43C146.22 303.72 145.44 301.99 145.22 300.83C145.1 300.19 145.01 298.8 144.97 298.08C144.77 294.52 145.12 290.94 145.22 287.39H141.62C141.37 287.99 141.84 288.77 141.86 289.07C142.14 292.79 141.66 296.83 141.86 300.59C140.93 300.83 141.01 299.91 140.66 299.15C140.59 299 140.63 298.78 140.42 298.67C140.42 298.59 140.42 298.51 140.42 298.43C140.28 294.71 139.99 291.03 140.39 287.3C140.27 286.95 137.99 286.29 137.32 285.81C136.71 285.38 136.2 284.63 135.62 284.14L135.17 284.41C134.84 291.65 135.28 298.58 136.1 305.74C136.26 307.13 135.92 308.99 136.85 310.28C137.14 310.68 137.41 310.56 137.55 310.66L137.53 310.67ZM201.12 304.67C194.27 304.52 188.35 309.15 182.16 311.51L196.3 313.29C196.84 309.86 198.42 306.86 201.12 304.68V304.67ZM200.87 313.78C201.4 311.2 203.27 308.7 204.94 306.68C205.04 306.14 203.35 305.18 202.88 304.95C202.31 304.9 200.17 307.71 199.82 308.3C199.34 309.11 197.87 312.41 197.76 313.2C197.69 313.73 197.84 313.47 198.11 313.56C198.99 313.84 199.96 313.82 200.87 313.78ZM218.56 306.67C215.4 303.89 209.4 304.65 206.52 307.54C205.95 308.11 201.94 313.93 202.33 314.26L204.73 314.5C204.87 309.12 211.85 303.23 216.85 306.82C218.49 308 218.76 309.42 219.56 311.08C219.91 311.8 220.44 310.88 220.94 310.66C221.38 309.97 219.18 307.21 218.56 306.67ZM116.17 312.11C108.75 310.51 100.12 305.21 92.6498 308.87C94.6398 309.49 96.3098 310.7 97.6798 312.23C98.2098 312.82 99.4398 314.89 99.9698 314.99C104.99 314.18 110.01 313.37 115.01 312.51C115.31 312.46 116.17 312.46 116.16 312.11H116.17ZM220.08 312.83L218.63 312.96C215.98 303.73 207.85 308.12 205.44 314.75L209.76 315.23C208.8 312.05 212.91 308.44 215.5 311.05C217.08 312.64 216.3 314.7 215.52 316.43L219.21 317.17C219.55 317.1 220.37 313.22 220.08 312.83ZM97.9298 315.46C98.0898 315.25 96.7398 313.69 96.4998 313.42C95.6398 312.44 92.6998 309.54 91.3898 309.74C91.0198 309.8 89.8998 310.72 89.7798 311.03C89.6098 311.43 89.9398 311.35 90.0798 311.44C92.1798 312.68 94.2998 313.62 95.5798 315.91L97.9298 315.47V315.46ZM41.7698 345.94C41.4998 346.29 40.9598 346.64 40.8098 347.14C45.5998 346.3 50.3398 348 54.7998 349.51C57.0998 347.42 59.3898 345.23 62.1698 343.78L57.8698 341.96C57.7898 341.66 57.8198 341.44 58.0798 341.25C58.9198 340.66 62.5198 342.75 63.7098 342.58C64.8998 342.41 68.2398 339.83 69.5998 339.34L63.8698 337.27L63.8398 336.34L71.3498 338.46L76.7998 335.62L71.9098 333.48L71.7598 332.74C72.3098 332.18 77.2898 334.69 78.3398 334.64C79.7798 334.58 82.3898 332.49 83.9998 332.25L78.9698 329.97C78.2598 329.63 78.4698 328.86 79.1298 328.69C79.8598 328.5 84.8198 331.33 86.0098 331.29C86.4698 331.27 90.7398 329.59 91.4398 329.26C91.7098 329.13 91.9698 329.03 92.1598 328.78L87.8398 326.38L88.1998 325.78C88.7498 325.67 92.9098 328.28 93.7498 328.36C94.8698 328.47 99.0598 326.34 100.55 326.26L96.0998 323.63L95.7498 322.66L102.35 325.55L109.19 323.85C108.89 323.17 103.76 320.93 104.63 320.01L111.46 323.38L117.11 322.16L112.57 319.14L112.07 318.32L119.21 321.88C122.78 321.31 126.21 321.16 129.83 321.2C133.45 321.24 139.3 321.2 142.18 323.61C145.06 326.02 146 332.2 146.59 335.76C147.97 344.14 148.99 353.2 149.96 361.67C150.86 369.6 151.61 377.56 152.15 385.52C152.79 385.52 153.43 385.52 154.07 385.52C155.28 385.5 156.43 385.34 157.63 385.24C158.56 383.61 158.43 381.93 158.39 380.12C157.97 362.7 156.7 345.2 156.5 327.78C156.49 326.66 157.07 323.27 157.97 322.56C159.66 321.24 166.32 320.38 168.6 320.25C174.65 319.9 181.98 320.22 188.03 320.73C198.37 321.61 208.58 323.83 218.51 326.73C218.84 326.75 218.98 326.75 218.87 326.37C218.59 325.42 216.95 323.21 216.96 322.27L217.56 321.68C218.24 321.85 220.14 326.88 221.05 327.55C222.16 328.38 224.9 328.65 226.21 329.35L224.65 324.44C224.65 324.23 225.13 324.28 225.24 324.33C226.05 324.68 227.85 329.36 228.74 330.19C228.92 330.36 232.79 332.12 233.17 332.24C233.51 332.34 233.59 332.24 233.51 331.9C233.16 330.39 231.81 328.46 231.61 326.84C231.54 326.28 232.3 326.39 232.53 326.53C232.85 326.73 235.47 332.52 235.92 333.34C236.08 333.53 239.84 335.6 240.24 335.74C240.45 335.81 240.97 336 240.97 335.73L239.28 330.7C239.28 330.49 239.77 330.54 239.88 330.58C240.38 330.79 242.8 336.37 243.27 337.27L248.05 340.41L245.77 331.53C246.19 331.81 246.27 331.22 246.97 332.49C247.84 334.07 248.95 337.01 249.44 338.78C249.63 339.46 249.69 341.18 249.91 341.55C250.34 342.3 252.62 342.06 253.45 342.09C254.14 342.11 254.7 342.23 255.37 342.33C253.68 333.17 244.62 328.2 236.81 324.77C213.62 314.58 185.89 314.78 161.15 310.91C154.95 315.77 144.49 316.06 137.37 313.09C136.33 312.66 136.14 312.03 134.79 312.08C122.88 312.55 108.63 314.98 96.9298 317.44C78.2198 321.38 53.9198 330.55 41.7798 345.92L41.7698 345.94ZM93.8498 316.43C94.1298 316.17 92.3098 314.51 92.0398 314.28C90.4498 312.93 87.6498 311.36 85.5698 311.16C80.9798 310.71 75.2298 311.75 74.1598 317.01L77.0598 317.54C79.6498 311.79 85.3198 311.73 89.9998 315.14C91.5198 316.25 91.3398 317.2 93.8598 316.44L93.8498 316.43ZM213.81 315.91C217.33 309.94 209.43 311.43 210.76 315.32C210.94 315.84 213.21 315.97 213.81 315.91ZM90.7298 316.91C87.2298 315.11 83.3298 312.62 79.9298 316.06C78.5098 317.5 78.6098 319.6 76.0998 319.06C76.1698 319.65 75.7798 321.2 76.6798 321.21C76.9198 321.21 78.7298 320.73 78.9598 320.6C79.5898 320.26 80.2798 318.75 81.0098 318.09C82.7298 316.52 84.7098 316.33 86.0898 318.35L90.7298 316.9V316.91ZM84.9698 318.35C84.2898 317.63 82.1698 318.57 81.8498 319.54C82.6898 319.4 83.8698 319.19 84.6298 318.85C84.8398 318.75 85.3498 318.76 84.9698 318.35ZM238.56 364.66C240.46 364.86 242.45 364.47 244.32 364.18C241.53 356 246.97 348.69 255.72 349.55C260.16 349.98 262.8 353.17 264.01 357.21C265.54 357.23 266.83 356.02 267.84 355.06C267.89 355.01 268.29 355.2 268.34 354.92C265.71 345.6 253.64 341.68 245.36 345.9C241.51 347.86 237.83 353.55 237.39 357.85C237.17 360.01 237.61 362.12 237.63 364.27C237.79 364.75 238.19 364.63 238.56 364.66ZM61.4498 368.74C61.7198 368.76 62.7098 369.44 62.6498 368.62C62.3298 364.01 60.9698 358.46 57.8498 354.93C53.2098 349.69 43.4798 348.03 37.0798 350.49C36.5798 350.68 33.9098 352 33.8498 352.31C33.8198 352.45 34.3498 353.36 34.4898 353.39C35.1598 353.53 37.7398 352.43 38.6398 352.17L39.1198 353.13L35.2798 354.33C34.9298 354.72 36.6898 356.68 35.6398 356.97C34.5898 357.26 34.2798 355.17 33.3598 355.05C33.5398 354.57 32.8998 353.08 32.5198 352.65C32.2498 352.59 29.9098 354.89 29.8098 355.22C29.3998 356.58 30.3698 356.97 30.7198 357.69C31.0398 358.34 32.1898 360.66 31.4598 361.19C30.3498 361.51 29.1198 360.6 28.0798 360.09C27.5898 359.85 27.1398 359.21 26.3998 359.37L24.7398 366.31L33.3598 368.73C33.3898 368.58 33.3198 368.37 33.3598 368.25C33.7698 366.92 33.7098 365.69 34.2798 364.25C36.8198 357.81 47.4398 355.45 52.0798 360.94C53.8298 363 54.7698 366.05 54.9698 368.73C57.1798 368.58 59.2398 368.6 61.4498 368.73V368.74ZM265.89 358.7C264.98 358.48 263.4 358.97 262.67 358.45C261.35 357.49 261.25 353.87 258.17 352.39C251.57 349.21 245.54 354.08 245.05 360.96C244.98 361.97 245.41 364.29 245.3 364.76C245.23 365.07 243.71 365.13 243.87 366.18C244.11 367.7 247.36 370.48 248.82 371.1C257.88 374.94 267.73 368.85 265.89 358.71V358.7ZM60.7298 370.66C59.0298 370.16 55.0998 371.65 53.7698 371.02C52.9698 370.64 52.4998 366.31 52.0398 365.08C48.8598 356.67 37.0798 360.05 35.1598 367.77C34.9498 368.62 35.2098 369.79 34.4198 370.39C33.2198 370.8 28.8698 368.98 27.2298 368.77C26.7498 368.71 26.1898 368.5 26.1698 369.1C26.1398 370.25 26.6298 371.63 26.6698 372.81C27.2598 372.88 27.8598 372.76 28.4598 372.83C29.6098 372.96 32.1098 373.63 33.0198 373.55C33.7498 373.48 34.9698 371.01 35.5498 370.31C36.1998 369.52 37.6798 367.61 38.5298 368.76C38.6998 368.99 39.9798 373.68 40.0498 374.21C40.0898 374.5 40.1698 374.77 40.0498 375.05L34.5698 380.62C35.9898 383.55 37.2098 385.07 40.5098 385.72C47.1498 387.02 53.3098 385.51 57.7298 380.27C58.6098 379.23 60.7298 375.89 60.7298 374.63V370.67V370.66ZM143.53 379.06C143.6 377.92 143.93 377.02 143.53 375.82C143.21 375.05 142.02 377.5 141.92 377.8C141.66 378.6 141.35 380.26 141.35 381.09C141.36 385.27 142.47 392.32 143.08 396.66C143.42 399.11 143.11 400.25 145.74 400.96C149.17 401.89 157.91 401.39 161.22 399.98C162.36 399.5 162.72 398.86 163.01 397.69C163.86 394.24 163.55 380.97 162.2 377.79C161.51 376.15 159.58 374.56 160.33 377.38C159.54 379.96 161.78 386.55 157.94 387.35C156.92 387.56 155.18 387.66 154.09 387.7C153.93 387.7 153.77 387.7 153.61 387.7C152.77 387.71 151.78 387.77 150.97 387.7C150.93 387.7 150.59 387.51 150.25 387.46C148.95 387.28 147.22 387.21 146.24 386.19C146.1 386.04 145.27 385.02 145.1 384.81C144.43 383.93 144.18 381.13 144 379.9C143.93 379.45 144.3 378.93 143.53 379.06ZM30.9598 386.74L26.8998 389.53C28.5698 391.89 29.8598 392.37 31.0898 389.38C31.5598 388.24 31.5598 387.84 30.9698 386.74H30.9598ZM160.32 402.58C158.21 402.83 156.09 403.4 153.96 403.54C151.37 403.7 148.74 403.41 146.16 403.42C149.54 410.43 157.34 408.99 160.32 402.58Z" fill="#040303"/>
<path d="M22.98 381.271L25.33 382.18C25.5 382.43 25.46 382.69 25.4 382.97C25.13 384.29 18.87 388.98 17.45 389.92C15.38 391.28 15.1 391.75 13.34 389.61C10.27 385.88 11.68 385.65 15.37 384C17.84 382.9 20.47 382.281 22.98 381.281V381.271ZM23.77 382.66C20.13 383 17.01 385.17 13.69 386.5C13.53 386.72 15.08 389.32 15.68 389.35C16.2 389.26 21.25 385.45 21.96 384.81C22.21 384.58 24.06 382.91 23.77 382.66Z" fill="#040303"/>
<path d="M28.6498 399.54C29.2498 398.85 32.3698 396.8 33.2498 396.8C34.0498 396.8 35.6498 397.95 36.0198 398.6C37.0698 400.43 35.0098 402.79 33.3598 403.41C30.7598 404.38 26.0898 402.46 28.6498 399.54ZM33.6098 397.54C33.3198 397.32 28.7498 400.64 29.2898 401.38C30.9198 402.11 32.3598 402.64 33.8598 401.27C35.7998 399.5 34.1598 399.26 33.6098 397.54Z" fill="#040303"/>
<path d="M132.49 12.8604C139.15 13.2904 152.74 16.7504 157.46 21.6104C162.96 27.2804 166.98 44.5304 168.85 52.4604C174.34 75.7204 177.89 99.6204 182.72 123.06C183.11 124.94 184.81 130.14 184.81 131.53V137.05C184.37 137.59 183.42 137.45 182.76 137.42C179.84 137.3 176.82 136.98 173.9 136.92C169.19 136.82 164.47 137 159.77 136.94C159.45 136.86 158.02 131.1 157.42 130.73C156.53 130.18 156.54 131.13 156.5 131.17C156.46 131.2 156.16 131.11 156.01 131.33C155.42 132.16 155.97 135.51 155.78 136.69C153.24 136.59 150.67 136.79 148.12 136.67C147.36 132.33 145.24 128.45 143.53 124.46C142.89 124.25 142.9 125.12 142.81 125.18C142.72 125.24 142.16 125.11 141.95 125.4C141.74 125.71 142.27 129.32 142.39 130.03C142.77 132.28 143.48 134.48 144.01 136.69C143.28 136.69 140.29 136.82 139.92 136.58C139.3 135.24 138.91 133.79 138.29 132.45C137.84 131.48 136.88 129.49 136.29 128.69C136.14 128.48 136.05 128.22 135.73 128.3C135.08 128.67 135.62 129.07 135.61 129.26C135.61 129.35 135.35 129.55 135.38 130.05C135.5 132.25 136.29 134.52 136.57 136.7C134.64 136.74 132.75 136.61 130.83 136.44C130.46 134.45 129.72 132.53 128.89 130.7C128.64 130.15 128.67 129.75 127.84 129.97C126.73 130.26 128.28 135.5 128.41 136.46C126.24 136.29 123.89 136.6 121.7 136.45C121.51 135.26 121.23 133.78 120.8 132.67C120.63 132.23 120.61 131.88 120 131.9C120 131.54 120.07 130.84 119.63 130.7C118.07 130.23 118.02 135.53 118.08 136.46L70.9597 135.99C69.4997 131.67 67.5997 127.52 65.9997 123.26C65.9597 123.16 66.0597 122.95 65.9797 122.81L65.0397 122.78C64.7797 126.63 65.7197 130.38 66.7197 134.06L62.3997 133.58C62.1497 133 61.3597 131.34 60.7197 131.66C60.3497 130.6 59.8397 129.72 58.5597 129.98L58.7997 133.34H56.4097C55.7797 129.18 52.5197 126.41 53.7597 133.1L47.2797 132.86C47.2497 132.78 46.6897 132.42 46.5597 131.9C46.5597 131.88 46.8097 131.69 46.7097 131.43C46.3897 130.6 45.1797 127.09 44.2897 127.1L43.5097 127.74L44.1697 132.63L21.8597 131.9C21.1797 128.85 20.2997 125.84 19.5697 122.79C16.5997 110.56 13.5897 97.7204 11.1297 85.4004C8.16972 70.5504 3.81973 41.7604 10.2897 28.0804C14.0797 20.0604 25.5197 17.7704 33.5597 16.3204C51.7897 13.0204 71.6097 13.8104 90.1197 13.3604C103.99 13.0304 118.8 12.0004 132.49 12.8904V12.8604Z" fill="#936D49"/>
<path d="M190.8 165.96C190.89 183.46 186.74 192.45 182.28 208.44C177.6 225.23 176.24 248.94 182.4 265.44C183.27 267.78 184.22 270.09 186 271.92C186.04 272.11 185.79 272.06 185.64 272.04C179.86 271.21 173.34 269.09 167.33 268.03C135.74 262.49 104.35 259.24 72.3599 257.16C63.4399 256.58 52.6899 256.74 44.2199 253.86C41.7499 253.02 41.1999 252.94 40.0399 250.6C33.5499 237.47 39.8699 218.69 39.1199 204.49C38.6699 195.94 36.1599 187.57 32.9199 179.73C30.3199 173.44 28.3299 169.06 26.3999 162.37L33.4699 162.86C83.0499 164.64 132.74 163.68 182.29 165.48C185.07 165.58 187.94 166.29 190.8 165.97V165.96Z" fill="#936D49"/>
<path d="M197.52 142.45C196.33 144.2 195.07 146.8 194.88 148.93C195.54 149.59 198.34 145.63 198.72 145.09C198.96 146.47 199.63 147.99 200.4 149.17C198.54 152.29 196.59 155.48 195.6 159.01C196.05 159.11 196.17 158.76 196.44 158.53C198.16 157.07 200.22 153.81 201.36 151.81C202.7 153.84 203.12 156.87 205.44 158.05C202.14 161.69 198.09 167.27 201.84 172.09C205.99 177.41 214.38 174.21 219 171.26C229.44 164.6 233.68 155.57 247.34 153.77C248.93 153.56 255.33 152.96 256.4 153.72C259.53 161.93 248.37 162.96 243.11 164.42C237.22 166.06 231.52 168.81 226.31 171.98C221.87 173.19 217.89 175.57 214.14 178.17C206.44 183.5 199.61 189.64 195.63 198.29C186.39 218.37 187.04 239.83 195.48 260.05C197.41 264.66 201.03 268.7 198.96 273.97C193.88 275.76 188.93 269.77 186.92 265.74C179.11 250.1 181.04 225.15 185.65 208.7C187.39 202.5 189.93 196.54 191.46 190.27C194.35 178.45 195.03 164.98 193.17 152.94C192.43 148.14 191.54 142.81 187.21 139.94C188.54 138.72 189.06 136.9 188.88 135.14L185.33 119.97C185.33 119.41 188.49 117.3 189.13 116.67C189.46 116.34 189.99 115.72 190.32 115.34C192.28 124.49 194.29 133.66 197.52 142.46V142.45Z" fill="#E9AC6F"/>
<path d="M234 197.64C233.54 203.15 233.05 208.66 232.52 214.16C230.67 215.13 228.64 215.87 226.8 216.84C226.74 215.21 226.95 210.32 224.74 210.11C223.17 209.96 223.84 212.81 223.68 213.72C223.65 213.9 223.27 214.27 223.18 214.78C222.93 216.36 222.7 217.91 222.56 219.5C221.38 219.78 219.2 221.99 218.26 222.12C217.18 222.27 215.62 220.85 214.56 220.55C214.09 220.42 213.67 220.51 213.36 220.44C213.07 220.37 212.83 220.42 212.47 220.26C212.09 220.09 208.52 217.01 209.08 219.08C209.42 220.33 213.41 223.93 214.8 224.52C208.41 229.36 202.59 235.2 197.16 241.07L196.83 240.68C195.97 225.1 197.82 206.09 207.12 193.08L234 197.64Z" fill="#936D49"/>
<path d="M247.44 166.2C242.49 188.64 239.85 211.51 237.36 234.35C232.12 240.58 223.49 248.04 217.2 253.43C213.04 257 208.81 260.46 204.25 263.53L203.76 263.63C202.69 260.97 201.21 258.47 200.21 255.77C199.88 254.88 198.64 251.48 198.71 250.79C198.74 250.52 198.85 250.33 199.06 250.18C210.74 242.22 223.33 232.33 231.3 220.51C234.14 216.29 234.82 215.18 235.42 209.99C236.96 196.66 237.9 183.24 239.5 169.92C239.75 167.87 240.16 168.14 241.95 167.57C243.63 167.04 245.68 166.56 247.41 166.19L247.44 166.2Z" fill="#E9AC6F"/>
<path d="M132.49 12.8603C118.8 11.9703 103.99 13.0003 90.1196 13.3303C71.6096 13.7803 51.7896 12.9903 33.5596 16.2903C25.5096 17.7503 14.0796 20.0303 10.2896 28.0503C3.81957 41.7403 8.16957 70.5303 11.1296 85.3703C13.5896 97.6903 16.6096 110.54 19.5696 122.76C20.3096 125.8 21.1795 128.81 21.8595 131.87L44.1696 132.6L43.5096 127.71L44.2896 127.07C45.1796 127.07 46.3896 130.57 46.7096 131.4C46.8096 131.66 46.5596 131.85 46.5596 131.87C44.8696 131.97 47.4396 135.35 47.0396 135.71C44.4396 135.66 41.8296 135.77 39.2296 135.72C33.5196 135.61 26.4996 135.96 20.9896 135.48C20.3896 135.43 19.3096 135.35 18.9896 134.84C14.8896 116.7 10.6096 98.5203 7.70955 80.1203C5.52955 66.2803 3.45956 50.7403 4.30956 36.7303C4.74956 29.5903 6.31955 23.9403 12.4896 19.9503C21.5696 14.0803 26.9695 13.7603 37.5495 12.8503C61.8295 10.7703 87.6696 9.24027 111.96 10.6803C118.82 11.0903 125.64 12.2003 132.47 12.8503L132.49 12.8603Z" fill="#E9AC6F"/>
<path d="M26.4096 162.36C26.3296 162.09 25.0996 159.3 25.5696 159.24L190.8 161.16C190.8 162.76 190.8 164.36 190.8 165.96C187.94 166.28 185.07 165.57 182.29 165.47C132.74 163.67 83.0496 164.63 33.4696 162.85L26.3996 162.36H26.4096Z" fill="#E9AC6F"/>
<path d="M137.53 310.671L136.57 287.151L138.74 288.261C138.76 291.241 139.15 294.491 139.89 297.391C139.99 297.781 140.02 298.201 140.41 298.431C140.41 298.511 140.41 298.591 140.41 298.671C140.43 298.881 140.41 299.071 140.65 299.151C141 299.911 140.92 300.831 141.85 300.591C141.65 296.831 142.13 292.791 141.85 289.071L143.05 289.211C143.04 291.801 143.34 294.491 143.84 297.041C144.07 298.191 144.35 300.061 145.21 300.831C145.43 301.991 146.21 303.731 146.41 301.431C146.73 297.701 146.57 292.851 146.41 289.071L148.57 288.831C148.59 291.921 148.88 295.471 149.94 298.381C150.18 299.031 150.53 299.421 150.73 299.871C151.08 300.671 151.07 301.991 151.93 302.031C151.9 297.141 152.14 292.241 151.45 287.391C152.46 287.421 152.84 286.371 153.37 285.951C154.51 285.061 156.51 284.261 156.73 282.591C155.73 283.071 154.87 283.501 153.79 283.851C150.15 285.031 141.66 286.281 138.41 284.231C136.8 283.211 136.03 282.041 136.7 280.191C136.98 279.421 137.72 277.411 138.46 278.421C139.81 280.271 140.21 280.531 142.57 281.031C146.11 281.781 153.29 281.531 154.59 277.311C159.15 277.901 159.34 285.071 159.61 288.711C159.97 293.551 160.39 300.521 160.1 305.281C159.84 309.581 159.68 310.521 155.53 311.751C150.46 313.261 142.03 313.841 137.53 310.671Z" fill="#58595B"/>
<path d="M41.77 345.94C53.91 330.56 78.22 321.4 96.92 317.46C108.62 315 122.86 312.57 134.78 312.1C136.13 312.05 136.32 312.68 137.36 313.11C144.48 316.08 154.95 315.78 161.14 310.93C185.88 314.79 213.6 314.59 236.8 324.79C244.61 328.22 253.66 333.19 255.36 342.35C254.69 342.25 254.13 342.13 253.44 342.11C252.64 338.36 250.34 334.44 246.96 332.51C246.26 331.24 246.18 331.83 245.76 331.55C225.82 318.23 207.18 319.33 184.48 316.16C176.7 315.07 168.95 313.6 161.2 312.41C155.04 318.15 145.02 318.16 137.7 314.59C113.61 317.23 89.9 319.18 67.85 329.91C58.87 334.28 51.08 340.47 42.67 345.76C42.46 345.89 41.93 346.48 41.78 345.95L41.77 345.94Z" fill="#FEFEFE"/>
<path d="M130.33 4.94021C133.87 5.60021 137.72 6.74022 141.32 7.51022C144.36 8.15022 147.43 8.83022 150.49 9.26022C149.47 10.4502 148.32 11.5402 147.47 12.8702C138.69 10.3602 129.47 9.1602 120.37 8.3002C94.5998 5.8702 67.4799 7.52021 41.6599 9.50021C37.2199 9.84021 32.7698 10.4502 28.3398 10.9402L34.9998 7.88022C54.5998 2.11022 75.4598 3.38021 95.6498 3.75021C106.38 3.95021 119.95 3.02021 130.34 4.94021H130.33Z" fill="#E9AC6F"/>
<path d="M226.32 171.96C216.24 178.1 207.58 185.39 201.96 195.95C193.25 212.31 191.24 238.06 197.35 255.53C199.04 260.35 206.7 271.23 198.97 273.95C201.04 268.68 197.42 264.64 195.49 260.03C187.05 239.81 186.4 218.36 195.64 198.27C199.62 189.62 206.45 183.48 214.15 178.15C217.9 175.55 221.88 173.17 226.32 171.96Z" fill="#FEFEFE"/>
<path d="M261.6 147.72C262.15 149.27 261.91 150.45 260.4 151.2C257.71 152.55 255.16 151.62 252.37 151.55C243.77 151.32 238.55 152.34 231.63 157.46C227.42 160.58 222.38 166.12 217.93 168.35C215.11 169.77 209.69 171.39 207.01 169.31C206.21 167.65 208.93 163.78 210.02 162.48C218.34 152.52 233.03 148.46 245.45 147.03C250.82 146.41 256.42 145.93 261.62 147.72H261.6Z" fill="#E9AC6F"/>
<path d="M60.7298 370.66V374.62C60.7298 375.88 58.6098 379.23 57.7298 380.26C53.3098 385.5 47.1598 387.01 40.5098 385.71C37.2098 385.06 35.9798 383.54 34.5698 380.61L40.0498 375.04C40.1598 374.75 40.0798 374.48 40.0498 374.2C39.9798 373.67 38.6898 368.98 38.5298 368.75C37.6798 367.6 36.1898 369.52 35.5498 370.3C34.9798 371 33.7498 373.47 33.0198 373.54C32.1098 373.62 29.6098 372.95 28.4598 372.82C27.8698 372.75 27.2598 372.87 26.6698 372.8C26.6298 371.62 26.1398 370.25 26.1698 369.09C26.1898 368.48 26.7498 368.69 27.2298 368.76C28.8798 368.98 33.2198 370.8 34.4198 370.38C35.2098 369.78 34.9498 368.61 35.1598 367.76C37.0798 360.04 48.8598 356.66 52.0398 365.07C52.5098 366.3 52.9698 370.63 53.7698 371.01C55.0998 371.64 59.0298 370.15 60.7298 370.65V370.66ZM44.0998 365.92C43.7198 366 42.3798 366.7 42.0198 366.96C37.2098 370.43 43.3298 376.62 48.2498 372.71C52.3998 369.41 48.0498 365.11 44.0998 365.92ZM56.8898 371.86C56.5298 371.45 54.3098 374.56 54.0198 374.86C51.9298 377.03 48.3398 380 45.2598 380.26C42.7298 380.48 40.5398 379.53 38.2998 379.52C36.4798 379.52 39.0398 380.79 39.4898 380.97C45.3698 383.29 50.1598 381.41 54.1398 376.89C54.7098 376.24 57.4898 372.52 56.8998 371.85L56.8898 371.86Z" fill="#FEFEFE"/>
<path d="M265.89 358.701C267.73 368.831 257.88 374.931 248.82 371.091C247.36 370.471 244.12 367.701 243.87 366.171C243.7 365.111 245.22 365.061 245.3 364.751C245.41 364.281 244.97 361.971 245.05 360.951C245.54 354.071 251.57 349.201 258.17 352.381C261.25 353.861 261.34 357.491 262.67 358.441C263.4 358.971 264.98 358.481 265.89 358.691V358.701ZM252.42 354.881C249.3 355.401 247.7 359.031 249.61 361.661C252.9 366.201 259.87 363.411 258.68 358.111C258.17 355.851 254.49 354.531 252.43 354.881H252.42Z" fill="#FEFEFE"/>
<path d="M61.4499 368.74C59.2399 368.61 57.1899 368.59 54.9699 368.74C54.7699 366.06 53.8299 363.01 52.0799 360.95C47.4399 355.47 36.8199 357.82 34.2799 364.26C33.7099 365.71 33.7699 366.93 33.3599 368.26L26.8799 365.62L28.0799 360.11C29.1199 360.62 30.3499 361.53 31.4599 361.21C32.1899 360.69 31.0399 358.36 30.7199 357.71C30.9799 357.14 33.2899 355.26 33.3599 355.07C34.2799 355.19 34.5799 357.28 35.6399 356.99C36.6999 356.7 34.9399 354.74 35.2799 354.35L39.1199 353.15L38.6399 352.19C44.9799 350.4 53.2899 351.75 57.3199 357.39C59.5999 360.58 61.1799 364.83 61.4399 368.75L61.4499 368.74Z" fill="#58595B"/>
<path d="M261.6 147.72C256.41 145.94 250.8 146.42 245.43 147.03C233.01 148.46 218.32 152.53 210 162.48C208.91 163.78 206.19 167.66 206.99 169.31C209.67 171.39 215.09 169.76 217.91 168.35C214.53 172.03 201.62 174.77 203.38 166.42C204.78 159.78 217.92 151 223.83 148.23C232.02 144.39 244.33 142.49 253.29 143.67C255.74 143.99 260.7 145.17 261.6 147.72Z" fill="#FEFEFE"/>
<path d="M185.04 88.2103L180.36 93.2402L180.04 92.8403L178.55 84.2603L182.64 78.0103C182.28 77.6003 182.26 77.5102 181.79 77.8802C180.79 78.6702 179.69 81.2102 178.76 82.2902C178.55 82.5402 178.53 82.7902 178.08 82.6902C177.59 79.1602 176.97 75.6302 176.28 72.1302C175.46 67.9802 173.66 62.2402 173.31 58.3102C173.27 57.9002 173.19 57.4702 173.31 57.0602C175.65 55.9602 177.44 53.7302 179.03 51.7402C181.16 60.9202 182 70.3402 183.39 79.6602C183.82 82.5102 184.26 85.4802 185.03 88.2202L185.04 88.2103Z" fill="#E9AC6F"/>
<path d="M198.01 248.27L197.41 243.48L207.01 233.64L206.92 236.12C207.06 236.42 207.27 236.67 207.61 236.4C208.2 235.95 208.5 232.73 209.04 231.83C209.29 231.42 213.2 227.95 213.49 227.88C214.38 227.67 214.35 231.92 215.88 231.72C217.04 231.37 214.68 227.42 215.51 226.31C215.62 226.16 218.25 224.23 218.42 224.16C218.83 224 219.2 224.33 219.61 224.29C219.44 223.33 220.02 223.07 220.73 222.64L222.27 224.15L223.21 224.53L221.88 221.89L232.57 215.17C232.64 215.57 232.39 215.82 232.19 216.11C230.48 218.7 226.94 222.64 224.77 225.01C217.33 233.14 207.64 241.75 198.61 248.05C198.41 248.19 198.37 248.38 198.01 248.29V248.27Z" fill="#735130"/>
<path d="M154.09 385.54C153.45 385.54 152.81 385.54 152.17 385.54C151.63 377.58 150.89 369.62 149.98 361.69C149.01 353.22 147.99 344.16 146.61 335.78C146.02 332.22 145.07 326.01 142.2 323.63C139.33 321.25 133.47 321.26 129.85 321.22C129.71 320.51 130.19 320.78 130.64 320.71C142.08 318.8 146.72 322.99 148.97 333.89C151.35 345.42 151.89 357.84 152.88 369.57C153.24 373.84 154.14 378.58 154.31 382.77C154.35 383.74 154.29 384.59 154.07 385.53L154.09 385.54Z" fill="#FEFEFE"/>
<path d="M148.81 146.04C150.61 150.23 152.39 154.43 153.85 158.76C149.53 158.58 145.21 158.56 140.89 158.52C139.82 154.1 137.85 149.92 135.13 146.28L148.81 146.04Z" fill="#936D49"/>
<path d="M71.2896 146.04C73.1096 149.77 74.7696 153.63 76.0896 157.56C71.6596 157.02 67.1196 157.47 62.6496 157.32C62.0096 154.76 60.6196 152.03 59.3296 149.72C59.1096 149.32 56.9696 146.18 57.1296 146.04H71.2896Z" fill="#936D49"/>
<path d="M267.84 355.061C266.83 356.021 265.54 357.221 264.01 357.211C262.8 353.161 260.15 349.981 255.72 349.551C246.97 348.691 241.54 356.011 244.32 364.181C242.45 364.471 240.46 364.861 238.56 364.661C238.86 362.341 238.92 360.111 239.54 357.841C242.11 348.391 251.17 343.851 260.32 347.581C264.08 349.111 265.71 351.821 267.84 355.061Z" fill="#58595B"/>
<path d="M247.44 166.2C247.84 166.11 249.22 165.56 249.12 166.32C247.57 175.24 246.38 184.21 245 193.16C244.07 199.19 242.76 205.19 241.95 211.23C241.22 216.74 241.11 222.51 240.2 227.96C239.68 231.08 239.38 231.96 237.36 234.36C239.85 211.52 242.49 188.64 247.44 166.21V166.2Z" fill="#FEFEFE"/>
<path d="M160.33 377.38C159.58 374.56 161.5 376.15 162.2 377.79C163.55 380.97 163.86 394.24 163.01 397.69C162.72 398.86 162.36 399.5 161.22 399.98C157.91 401.39 149.17 401.89 145.74 400.96C143.11 400.25 143.43 399.11 143.08 396.66C142.47 392.32 141.36 385.27 141.35 381.09C141.35 380.26 141.65 378.6 141.92 377.8C142.02 377.49 143.21 375.05 143.53 375.82C143.93 377.02 143.61 377.91 143.53 379.06C143.22 383.82 143.24 392.82 144.55 397.36C145.03 399.01 148.31 399.04 149.77 399.22C149.15 395.31 149.94 391.36 150.25 387.46C150.59 387.51 150.93 387.7 150.97 387.7L151.45 398.87C151.28 399.59 152.84 399.1 152.9 398.82C152.57 395.09 152.73 391.35 153.61 387.7C153.77 387.7 153.93 387.7 154.09 387.7L154.81 398.98L162.39 397.55C161.86 390.85 162.06 383.88 160.33 377.38Z" fill="#FEFEFE"/>
<path d="M244.56 210.12C246.44 208.19 249.69 206.82 250.99 210.05C251.68 211.76 252.13 216.05 251.97 217.89C251.48 223.49 245.84 227.21 241.92 230.52C243.06 223.88 243.04 217.06 244.06 210.46C244.17 210.29 244.45 210.23 244.55 210.12C244.52 211.43 244.6 212.9 244.94 214.17C245.03 214.5 245.1 215.28 245.62 215.16C246.17 215.04 245.77 212.06 245.68 211.51C245.57 210.79 245.49 209.93 244.54 210.13L244.56 210.12Z" fill="#735130"/>
<path d="M88.8096 146.04C89.9796 149.07 92.1796 154.04 92.8396 157.01C92.8996 157.27 92.9196 157.53 92.8996 157.79C89.4596 157.63 86.0196 157.59 82.5796 157.55L75.1396 146.03H88.8196L88.8096 146.04Z" fill="#936D49"/>
<path d="M164.89 146.28C166.62 150.46 168.17 154.73 169.69 159C166.41 159.08 163.13 158.85 159.85 158.76C158.04 154.42 156.17 150.08 153.37 146.28H164.89Z" fill="#936D49"/>
<path d="M179.28 146.28C181.09 150.65 183.17 154.94 184.56 159.48C181.38 159.02 178.16 159.39 174.96 159.24C173.61 154.51 170.83 150.39 168.24 146.28H179.28Z" fill="#936D49"/>
<path d="M197.52 142.45C194.29 133.65 192.28 124.49 190.32 115.33L193.44 111.01C195.45 120.21 197.65 129.37 200.6 138.31C200.69 139.18 198.11 141.57 197.52 142.45Z" fill="#FEFEFE"/>
<path d="M130.81 146.04C132.46 150.07 134.2 154.07 135.37 158.28C132.41 158.25 129.45 158.32 126.49 158.28C124.87 153.96 122.53 149.8 119.53 146.28L130.81 146.04Z" fill="#936D49"/>
<path d="M114.97 146.28C116.43 150.21 118.17 154.06 119.53 158.04C116.5 158 113.44 158.11 110.41 158.04L105.13 146.28H114.97Z" fill="#936D49"/>
<path d="M51.8498 146.04C52.0498 146.4 52.4398 146.77 52.6898 147.24C54.4698 150.51 56.0298 153.95 57.5998 157.32C54.3298 156.93 51.0398 157.18 47.7598 157.08L42.2397 146.04H51.8398H51.8498Z" fill="#936D49"/>
<path d="M176.64 40.9405C174.94 42.2405 173.07 44.2105 171.34 45.3605C171.05 45.5505 170.79 45.7905 170.4 45.7405L166.55 32.4205C166.6 31.8905 168.77 30.7005 169.33 30.1505C169.94 29.5505 171.33 27.7605 171.84 27.0205L176.64 40.9405Z" fill="#E9AC6F"/>
<path d="M160.33 377.38C162.06 383.88 161.87 390.85 162.39 397.55L154.81 398.98L154.09 387.7C155.18 387.66 156.92 387.57 157.94 387.35C161.78 386.54 159.54 379.96 160.33 377.38Z" fill="#58595B"/>
<path d="M36.4896 146.04C38.2096 148.92 41.1396 153.17 42.3596 156.13C42.4596 156.38 42.5396 156.56 42.4896 156.84C39.4196 156.7 36.1796 157.03 33.1296 156.84C32.1796 152.99 29.9596 149.42 28.3296 145.8L36.4896 146.04Z" fill="#936D49"/>
<path d="M238.56 364.66C238.19 364.62 237.79 364.74 237.63 364.27C237.61 362.12 237.17 360.01 237.39 357.85C237.83 353.55 241.5 347.86 245.36 345.9C253.64 341.68 265.71 345.6 268.34 354.92C268.29 355.2 267.89 355.02 267.84 355.06C265.71 351.82 264.08 349.11 260.32 347.58C251.17 343.85 242.1 348.39 239.54 357.84C238.92 360.12 238.86 362.35 238.56 364.66Z" fill="#FEFEFE"/>
<path d="M100.33 146.04C101.01 147.4 105.96 157.45 105.37 158.04C103.07 157.68 100.74 157.84 98.4096 157.8L92.8896 146.04H100.33Z" fill="#936D49"/>
<path d="M171.85 27.0204L174.25 22.9404C177.59 30.6504 179.72 38.8004 181.24 47.0604L181.17 47.3704C180.33 47.9004 179.51 48.6405 178.82 49.3405L177.14 42.6204C177.43 42.2904 178.38 41.3404 178.1 40.9404H176.66L171.86 27.0204H171.85Z" fill="#FEFEFE"/>
<path d="M143.53 379.06C144.3 378.92 143.93 379.451 144 379.901C144.18 381.121 144.43 383.93 145.1 384.81C145.27 385.03 146.09 386.04 146.24 386.19C147.22 387.21 148.95 387.281 150.25 387.461C149.93 391.361 149.15 395.31 149.77 399.22C148.31 399.04 145.03 399.01 144.55 397.36C143.24 392.82 143.22 383.82 143.53 379.06Z" fill="#58595B"/>
<path d="M130.81 146.04L119.53 146.28C122.53 149.8 124.87 153.95 126.49 158.28C125.64 158.27 122.7 158.48 122.28 158.05L116.17 143.88H129.97C130.58 144.42 130.56 145.43 130.81 146.04Z" fill="#E9AC6F"/>
<path d="M82.57 157.56C81.7 157.55 78.54 157.76 78.12 157.33L72.25 143.88H88.09C88.36 144.57 88.55 145.37 88.81 146.04H75.13L82.57 157.56Z" fill="#E9AC6F"/>
<path d="M140.89 158.52C139.86 158.52 138.82 158.55 137.79 158.5L132.49 143.89H148.09C148.37 144.55 148.54 145.43 148.81 146.05L135.13 146.29C137.85 149.92 139.82 154.1 140.89 158.53V158.52Z" fill="#E9AC6F"/>
<path d="M38.6496 352.18C37.7496 352.43 35.1696 353.53 34.4996 353.4C34.3596 353.37 33.8296 352.46 33.8596 352.32C33.9196 352.01 36.5896 350.69 37.0896 350.5C43.4896 348.04 53.2196 349.7 57.8596 354.94C60.9796 358.46 62.3396 364.01 62.6596 368.63C62.7196 369.45 61.7296 368.77 61.4596 368.75C61.1996 364.83 59.6196 360.58 57.3396 357.39C53.3096 351.75 44.9996 350.4 38.6596 352.19L38.6496 352.18Z" fill="#FEFEFE"/>
<path d="M164.89 146.28H153.37C156.17 150.08 158.04 154.42 159.85 158.76C159.06 158.74 156.49 158.96 156.13 158.52L150.25 143.88H163.81C164.42 144.54 164.55 145.47 164.89 146.28Z" fill="#E9AC6F"/>
<path d="M71.2898 146.04H57.1298C56.9698 146.18 59.1098 149.32 59.3298 149.72C60.6198 152.03 62.0098 154.76 62.6498 157.32C61.9698 157.3 60.5498 157.48 60.0698 157.02L53.5298 143.88H70.2098C70.8398 144.45 70.9598 145.36 71.2898 146.04Z" fill="#E9AC6F"/>
<path d="M190.08 113.41C188.5 115.07 186.99 116.81 185.16 118.21L182.88 107.3C182.93 106.85 186.83 102.89 187.44 101.9L190.08 113.42V113.41Z" fill="#E9AC6F"/>
<path d="M171.13 24.6202C169.75 26.3202 167.98 28.6602 166.21 29.9002C166.01 30.0402 165.97 30.2302 165.61 30.1402C164.63 27.1402 163.14 24.3202 161.52 21.6302C163.23 20.3302 164.77 18.6302 166.09 16.9502C168.58 18.8502 169.24 22.2402 171.13 24.6302V24.6202Z" fill="#E9AC6F"/>
<path d="M174.96 159.24C173.84 159.19 172.76 158.9 171.62 158.98L165.84 143.89H178.56C178.74 144.58 179.02 145.66 179.28 146.29H168.24C170.83 150.4 173.61 154.52 174.96 159.25V159.24Z" fill="#E9AC6F"/>
<path d="M187.2 99.9701C185.86 101.46 184.45 103.93 183 105.25C182.68 105.55 182.58 105.47 182.45 105.07C181.46 102.18 181.42 98.0701 180.48 95.0501C181.78 93.2301 183.71 91.7501 185.04 89.8901L187.2 99.9701Z" fill="#E9AC6F"/>
<path d="M51.8497 146.04H42.2497L47.7697 157.08C47.0497 157.06 45.7397 157.28 45.2497 156.84L37.9297 143.88H50.7697C51.4097 144.41 51.5097 145.43 51.8497 146.04Z" fill="#E9AC6F"/>
<path d="M114.97 146.28H105.13L110.41 158.04C109.76 158.03 108.24 158.23 107.89 157.8L101.77 143.88H114.13C114.77 144.47 114.71 145.58 114.97 146.28Z" fill="#E9AC6F"/>
<path d="M207.12 193.08C207.36 192.75 207.12 192.29 207.97 192.12C211.87 192.46 215.79 192.42 219.69 192.87C224.55 193.44 229.42 194.54 234.21 195.51C234.52 196.24 234.04 197.15 234 197.64L207.12 193.08Z" fill="#EDC995"/>
<path d="M140.41 298.43C140.03 298.19 139.99 297.77 139.89 297.39C139.15 294.49 138.76 291.24 138.74 288.26L136.57 287.15L137.53 310.67C137.39 310.57 137.12 310.7 136.83 310.29C135.91 309 136.24 307.14 136.08 305.75C135.27 298.59 134.83 291.66 135.15 284.42L135.6 284.15C136.18 284.64 136.69 285.39 137.3 285.82C137.97 286.29 140.25 286.95 140.37 287.31C139.98 291.03 140.26 294.72 140.4 298.44L140.41 298.43Z" fill="#FEFEFE"/>
<path d="M220.08 312.83C220.37 313.22 219.55 317.1 219.21 317.17L215.52 316.43C216.3 314.7 217.08 312.64 215.5 311.05C212.91 308.44 208.8 312.05 209.76 315.23L205.44 314.75C207.85 308.12 215.98 303.73 218.63 312.96L220.08 312.83Z" fill="#FEFEFE"/>
<path d="M189.12 159.48C188.26 159.41 187.37 159.56 186.5 159.46L180.24 144.24L180.59 143.89L187.51 143.64C187.92 143.74 188.5 146.25 188.63 146.77C186.81 147.11 185.13 145.98 183.35 146.41C185.36 150.65 188.01 154.92 189.11 159.49L189.12 159.48Z" fill="#E9AC6F"/>
<path d="M178.8 49.3304C177.13 51.0104 175.09 53.5903 173.28 54.9703C173.04 55.1503 172.98 55.4404 172.56 55.3304L171.16 47.8204C173.34 46.2004 175.33 44.6704 177.12 42.6104L178.8 49.3304Z" fill="#E9AC6F"/>
<path d="M100.33 146.04H92.89L98.41 157.8C97.38 157.78 96.35 157.85 95.32 157.77L90.25 143.88H99.25C99.88 144.44 100 145.37 100.33 146.04Z" fill="#E9AC6F"/>
<path d="M93.8499 316.43C91.3399 317.2 91.5099 316.24 89.9899 315.13C85.3099 311.72 79.6399 311.78 77.0499 317.53L74.1499 317C75.2199 311.74 80.9799 310.7 85.5599 311.15C87.6499 311.36 90.4499 312.92 92.0299 314.27C92.2999 314.5 94.1099 316.16 93.8399 316.42L93.8499 316.43Z" fill="#58595B"/>
<path d="M160.32 402.58C157.34 408.99 149.54 410.43 146.16 403.42C148.74 403.42 151.37 403.7 153.96 403.54C156.09 403.4 158.21 402.83 160.32 402.58Z" fill="#FEFEFE"/>
<path d="M153.6 275.63C153.66 276.75 153.31 277.93 152.39 278.61C150.2 280.24 141.5 280.6 139.81 278.26C139.55 277.91 138.77 275.78 139.55 275.87C140.45 275.98 141.5 276.42 142.48 276.55C146.22 277.04 149.97 276.58 153.61 275.62L153.6 275.63Z" fill="#58595B"/>
<path d="M188.64 146.76C189.7 150.91 190.16 155.46 190.56 159.72C190.05 159.91 189.46 159.51 189.12 159.48C188.02 154.91 185.37 150.64 183.36 146.4C185.14 145.97 186.82 147.1 188.64 146.76Z" fill="#936D49"/>
<path d="M33.1299 156.84C32.5699 156.8 31.8399 156.93 31.4399 156.43L25.6899 143.88H35.5299C35.7199 144.56 36.1299 145.44 36.4899 146.04L28.3299 145.8C29.9499 149.41 32.1799 152.99 33.1299 156.84Z" fill="#E9AC6F"/>
<path d="M90.73 316.91L86.0899 318.36C84.6999 316.34 82.73 316.53 81.01 318.1C80.28 318.77 79.5899 320.27 78.9599 320.61C78.7199 320.74 76.9099 321.22 76.6799 321.22C75.7799 321.2 76.17 319.66 76.1 319.07C78.62 319.6 78.5099 317.5 79.9299 316.07C83.3299 312.63 87.23 315.12 90.73 316.92V316.91Z" fill="#FEFEFE"/>
<path d="M164.89 15.5004C163.39 17.0704 161.84 18.6204 160.45 20.3004C158.99 18.8404 157.45 17.3004 155.53 16.4604C156.8 15.1304 158.72 13.8204 159.85 12.3804L164.89 15.5004Z" fill="#E9AC6F"/>
<path d="M171.13 24.6201C169.24 22.2301 168.58 18.8401 166.09 16.9401C166.4 16.5401 167.58 14.1901 168.11 14.3101C170.36 16.3901 172.47 18.9301 173.49 21.8101C172.69 22.7401 171.89 23.6701 171.12 24.6201H171.13Z" fill="#FEFEFE"/>
<path d="M218.56 306.67C219.18 307.21 221.37 309.97 220.94 310.66C220.43 310.88 219.9 311.8 219.56 311.08C218.76 309.43 218.49 308 216.85 306.82C211.85 303.23 204.87 309.12 204.73 314.5L202.33 314.26C201.94 313.92 205.95 308.11 206.52 307.54C209.41 304.65 215.4 303.89 218.56 306.67Z" fill="#58595B"/>
<path d="M62.4097 133.57L66.7297 134.05C65.7397 130.37 64.7897 126.621 65.0497 122.771L65.9897 122.8C66.0697 122.94 65.9697 123.15 66.0097 123.25C65.4297 123.25 65.1697 123.03 65.3397 123.8C66.1697 127.74 68.6497 131.91 69.3697 135.97H63.2497C62.5997 135.42 62.6797 134.2 62.4097 133.57Z" fill="#E9AC6F"/>
<path d="M200.87 313.78C199.96 313.82 198.99 313.84 198.11 313.56C197.84 313.47 197.69 313.73 197.76 313.2C197.87 312.4 199.34 309.1 199.82 308.3C200.17 307.71 202.31 304.9 202.88 304.95C203.35 305.18 205.04 306.14 204.94 306.68C203.26 308.7 201.4 311.2 200.87 313.78Z" fill="#58595B"/>
<path d="M47.29 132.85L53.77 133.09C52.53 126.4 55.79 129.17 56.42 133.32H58.81L58.57 129.97C59.85 129.72 60.36 130.59 60.73 131.65C60.8 131.85 60.71 132.28 60.83 132.61C61.01 133.12 62.15 135.75 61.92 135.96L56.91 135.69L55.79 131.87L54.95 132L55.91 135.72H48.35C47.63 134.96 47.59 133.69 47.27 132.84L47.29 132.85Z" fill="#E9AC6F"/>
<path d="M158.17 11.6605C157.6 12.1805 154.45 15.5005 154.01 15.4605L149.29 13.5805C149.23 13.2505 149.24 13.2705 149.44 13.0805C150.5 12.0705 151.54 11.2405 152.41 9.98047L158.17 11.6605Z" fill="#E9AC6F"/>
<path d="M130.33 4.94043C137.49 5.52043 144.73 6.25043 151.69 7.94043C151.31 8.39043 150.87 8.82044 150.49 9.26044C147.44 8.82044 144.36 8.15044 141.32 7.51044C137.71 6.75044 133.87 5.60043 130.33 4.94043Z" fill="#FEFEFE"/>
<path d="M142.81 125.17L146.64 136.34C146.7 136.82 146.64 136.64 146.3 136.69C145.63 136.78 144.73 136.69 144.01 136.69C143.49 134.48 142.77 132.27 142.39 130.03C142.27 129.32 141.74 125.7 141.95 125.4C142.15 125.11 142.71 125.24 142.81 125.18V125.17Z" fill="#E9AC6F"/>
<path d="M205.44 158.04C203.12 156.86 202.7 153.83 201.36 151.8C202.08 150.54 202.75 149.08 203.28 147.72L203.63 147.96L206.63 156.72C206.63 157.31 205.75 157.68 205.43 158.03L205.44 158.04Z" fill="#FEFEFE"/>
<path d="M24.0098 145.561C25.5698 149.081 27.3898 152.531 29.0398 156.011C29.1098 156.491 29.0198 156.321 28.6898 156.361C28.0498 156.441 27.0898 156.381 26.3998 156.361L22.3198 145.921L23.9998 145.561H24.0098Z" fill="#936D49"/>
<path d="M253.44 342.1C252.61 342.07 250.33 342.32 249.9 341.56C249.69 341.18 249.62 339.47 249.43 338.79C248.94 337.03 247.83 334.09 246.96 332.5C250.34 334.43 252.64 338.35 253.44 342.1Z" fill="#58595B"/>
<path d="M141.85 289.07C141.83 288.77 141.36 287.99 141.61 287.39H145.21C145.11 290.94 144.76 294.52 144.96 298.08C145 298.8 145.09 300.18 145.21 300.83C144.35 300.06 144.07 298.19 143.84 297.04C143.34 294.49 143.04 291.8 143.05 289.21L141.85 289.07Z" fill="#FEFEFE"/>
<path d="M146.41 289.07C146.4 288.8 145.75 287.71 146.39 287.25C146.77 286.98 149.73 287.12 150.48 286.67C149.94 291.05 150.31 295.49 150.72 299.87C150.52 299.42 150.17 299.03 149.93 298.38C148.87 295.47 148.57 291.92 148.56 288.83L146.4 289.07H146.41Z" fill="#FEFEFE"/>
<path d="M26.4099 156.36C25.8699 156.34 24.6699 156.54 24.3599 156.13L21.1299 143.89H23.3699C23.7899 143.98 23.8799 145.28 24.0099 145.57L22.3299 145.93L26.4099 156.37V156.36Z" fill="#E9AC6F"/>
<path d="M153.61 387.7C152.73 391.35 152.57 395.09 152.9 398.82C152.84 399.1 151.28 399.58 151.45 398.87L150.97 387.7C151.78 387.77 152.77 387.71 153.61 387.7Z" fill="#58595B"/>
<path d="M28.09 360.1L26.89 365.61L33.37 368.25C33.33 368.37 33.4 368.58 33.37 368.73L24.75 366.31L26.41 359.37C27.15 359.21 27.6 359.85 28.09 360.09V360.1Z" fill="#FEFEFE"/>
<path d="M97.9299 315.461L95.5799 315.901C94.2999 313.611 92.1799 312.671 90.0799 311.431C89.9399 311.341 89.61 311.431 89.78 311.021C89.9 310.721 91.02 309.791 91.39 309.731C92.7 309.531 95.64 312.431 96.5 313.411C96.74 313.681 98.0899 315.251 97.9299 315.451V315.461Z" fill="#58595B"/>
<path d="M226.8 216.84C226.54 216.98 224.25 218.65 224.16 218.52C224.22 217.1 224.51 215.76 224.4 214.31C224.34 213.57 224.52 213.69 223.68 213.72C223.85 212.82 223.17 209.97 224.74 210.11C226.95 210.32 226.73 215.21 226.8 216.84Z" fill="#735130"/>
<path d="M200.4 149.16C199.63 147.98 198.96 146.46 198.72 145.08C199.61 143.81 200.43 142.39 201.12 141C201.56 140.7 202.62 145.04 202.78 145.45C202.14 146.77 201.14 147.91 200.4 149.16Z" fill="#FEFEFE"/>
<path d="M164.89 15.5001L159.85 12.3801C159.9 12.3101 160.52 11.3101 160.54 11.2501C160.71 10.7001 159.99 10.1001 160.69 10.2201C161.53 10.3701 165.89 12.5101 166.45 13.1001C166.61 13.2701 166.86 13.3701 166.79 13.6701C166.73 14.0201 165.23 15.1401 164.89 15.5001Z" fill="#FEFEFE"/>
<path d="M213.36 220.44C213 221.81 216.37 222.74 216.48 223.2C216.38 223.93 215.22 224.2 214.8 224.52C213.41 223.93 209.42 220.33 209.08 219.08C208.52 217.01 212.09 220.09 212.47 220.26C212.83 220.42 213.07 220.37 213.36 220.44Z" fill="#735130"/>
<path d="M248.88 205.8C248.51 205.81 247.06 206.35 246.64 206.56L244.32 208.44C244.58 205.86 245.1 203.31 245.52 200.76L248.88 205.8Z" fill="#936D49"/>
<path d="M152.41 9.98004C152.59 9.73004 152.91 8.39004 153.3 8.29004L160.09 9.98004C160.35 10.32 158.27 11.57 158.17 11.66L152.41 9.98004Z" fill="#FEFEFE"/>
<path d="M213.81 315.91C213.21 315.97 210.94 315.84 210.76 315.32C209.43 311.43 217.33 309.94 213.81 315.91Z" fill="#FEFEFE"/>
<path d="M30.9596 386.74C31.5496 387.83 31.5496 388.24 31.0796 389.38C29.8496 392.37 28.5696 391.88 26.8896 389.53L30.9496 386.74H30.9596Z" fill="#FEFEFE"/>
<path d="M120.01 131.891C120.01 131.991 119.79 132.241 119.82 132.661C119.87 133.301 120.97 136.211 120.73 136.451H118.09C118.03 135.521 118.08 130.221 119.64 130.691C120.08 130.821 120.01 131.531 120.01 131.891Z" fill="#E9AC6F"/>
<path d="M33.3696 355.06C33.2996 355.25 30.9896 357.13 30.7296 357.7C30.3796 356.98 29.3996 356.6 29.8196 355.23C29.9196 354.9 32.2596 352.59 32.5296 352.66C32.9096 353.09 33.5596 354.58 33.3696 355.06Z" fill="#FEFEFE"/>
<path d="M135.61 129.25C136.1 131.34 138.19 134.351 138.49 136.331C138.59 136.961 137.06 136.68 136.57 136.69C136.29 134.51 135.5 132.24 135.38 130.04C135.35 129.54 135.6 129.34 135.61 129.25Z" fill="#E9AC6F"/>
<path d="M156.49 131.17C156.96 132.58 157.24 134.07 157.69 135.49C157.27 135.76 157.48 136.48 157.45 136.93C156.73 136.95 156.21 136.71 155.77 136.69C155.96 135.51 155.41 132.16 156 131.33C156.15 131.12 156.45 131.21 156.49 131.17Z" fill="#E9AC6F"/>
<path d="M128.41 136.45C128.28 135.49 126.74 130.25 127.84 129.96C128.66 129.74 128.64 130.14 128.89 130.69L127.93 130.57L129.85 136.69C129.34 136.88 128.75 136.48 128.41 136.45Z" fill="#E9AC6F"/>
<path d="M84.9696 318.35C85.3596 318.76 84.8496 318.75 84.6296 318.85C83.8696 319.2 82.6896 319.4 81.8496 319.54C82.1596 318.56 84.2896 317.63 84.9696 318.35Z" fill="#FEFEFE"/>
<path d="M153.37 285.95C152.84 286.37 152.46 287.42 151.45 287.39C151.4 287.07 151.21 286.77 151.21 286.43L153.37 285.95Z" fill="#FEFEFE"/>
<path d="M157.69 135.49C157.81 135.87 158.34 136.33 158.17 136.93C157.93 136.93 157.69 136.93 157.45 136.93C157.48 136.48 157.27 135.76 157.69 135.49Z" fill="#936D49"/>
<path d="M140.65 299.15C140.42 299.07 140.43 298.88 140.41 298.67C140.62 298.78 140.58 299 140.65 299.15Z" fill="#FEFEFE"/>
<path d="M21.3696 159.97L22.0296 160.38C23.9496 165.83 25.3696 171.94 27.7996 177.17C31.6796 185.5 34.2796 190.71 35.4896 200.2C37.1696 213.37 33.2096 226.48 34.0696 239.77C34.2896 243.08 35.3196 246.36 36.3596 249.47C32.2096 246.69 29.4296 240.94 28.0096 236.22C24.3996 224.17 27.8896 212.63 27.1196 200.63C26.3496 188.63 16.2596 182.32 18.2996 169.03C18.5196 167.6 19.7596 162.05 20.4296 161.08C20.6996 160.68 21.3596 160.57 21.3596 159.97H21.3696Z" fill="#E9AC6F"/>
<path d="M248.88 205.8L245.52 200.76C245.57 200.48 245.38 199.95 245.64 199.8C247.83 201.67 249.84 203.46 251.04 206.16C250.48 206.27 249.29 205.78 248.89 205.8H248.88Z" fill="#EDC995"/>
<path d="M179.04 51.73C179.21 51.51 181.18 48.03 181.68 48.61C185.69 69.27 188.5 90.1701 193.44 110.65C193.43 110.85 192.86 110.4 192.49 110.63C192.32 110.73 190.53 112.95 190.09 113.41L187.45 101.89C187.66 101.55 188.62 99.68 188.41 99.49C187.58 99.35 187.62 99.51 187.21 99.97L185.05 89.8901C185.54 89.2101 186.74 87.5501 185.05 88.2101C184.28 85.4701 183.84 82.5001 183.41 79.6501C182.02 70.3401 181.18 60.92 179.05 51.73H179.04Z" fill="#FEFEFE"/>
<path d="M245.76 331.55L248.04 340.43L243.26 337.29C242.79 336.39 240.38 330.81 239.87 330.6C239.77 330.56 239.27 330.5 239.27 330.72L240.96 335.75C240.96 336.02 240.44 335.83 240.23 335.76C239.83 335.62 236.06 333.55 235.91 333.36C235.46 332.54 232.84 326.75 232.52 326.55C232.29 326.41 231.53 326.3 231.6 326.86C231.81 328.48 233.15 330.41 233.5 331.92C233.58 332.25 233.5 332.36 233.16 332.26C232.78 332.14 228.91 330.38 228.73 330.21C227.84 329.38 226.04 324.7 225.23 324.35C225.12 324.3 224.64 324.25 224.64 324.46L226.2 329.37C224.89 328.67 222.15 328.4 221.04 327.57C220.14 326.89 218.24 321.86 217.55 321.7L216.95 322.29C216.94 323.23 218.59 325.44 218.86 326.39C218.97 326.77 218.83 326.77 218.5 326.75C208.57 323.84 198.36 321.63 188.02 320.75C181.97 320.24 174.64 319.92 168.59 320.27C166.32 320.4 159.66 321.26 157.96 322.58C157.05 323.29 156.48 326.68 156.49 327.8C156.69 345.22 157.96 362.72 158.38 380.14C158.42 381.95 158.56 383.63 157.62 385.26C156.42 385.36 155.27 385.52 154.06 385.54C154.27 384.6 154.34 383.75 154.3 382.78C154.12 378.59 153.23 373.85 152.87 369.58C151.88 357.85 151.34 345.43 148.96 333.9C146.71 323 142.06 318.81 130.63 320.72C130.18 320.8 129.7 320.52 129.84 321.23C126.22 321.19 122.79 321.34 119.22 321.91L112.08 318.35L112.58 319.17L117.12 322.19L111.47 323.41L104.64 320.04C103.77 320.96 108.9 323.2 109.2 323.88L102.36 325.58L95.7598 322.69L96.1098 323.66L100.56 326.29C99.0598 326.37 94.8798 328.5 93.7598 328.39C92.9198 328.31 88.7598 325.7 88.2098 325.81L87.8498 326.41L92.1698 328.81C91.9798 329.06 91.7198 329.17 91.4498 329.29C90.7598 329.62 86.4898 331.31 86.0198 331.32C84.8198 331.36 79.8698 328.53 79.1398 328.72C78.4798 328.89 78.2598 329.66 78.9798 330L84.0098 332.28C82.3998 332.52 79.7898 334.61 78.3498 334.67C77.2998 334.72 72.3298 332.2 71.7698 332.77L71.9198 333.51L76.8098 335.65L71.3598 338.49L63.8498 336.37L63.8798 337.3L69.6098 339.37C68.2498 339.87 64.8598 342.45 63.7198 342.61C62.5798 342.77 58.9298 340.69 58.0898 341.28C57.8298 341.46 57.7998 341.69 57.8798 341.99L62.1798 343.81C59.3998 345.26 57.1098 347.45 54.8098 349.54C50.3498 348.03 45.6098 346.33 40.8198 347.17C40.9698 346.67 41.5098 346.32 41.7798 345.97C41.9298 346.5 42.4598 345.91 42.6698 345.78C51.0798 340.48 58.8698 334.3 67.8498 329.93C89.8998 319.2 113.62 317.25 137.7 314.61C145.01 318.18 155.04 318.17 161.2 312.43C168.95 313.62 176.71 315.09 184.48 316.18C207.18 319.36 225.82 318.25 245.76 331.57V331.55Z" fill="#58595B"/>
<path d="M23.7697 382.66C24.0597 382.92 22.2197 384.58 21.9597 384.81C21.2497 385.45 16.2097 389.26 15.6797 389.35C15.0797 389.32 13.5297 386.72 13.6897 386.5C17.0097 385.17 20.1297 383 23.7697 382.66Z" fill="#FEFEFE"/>
<path d="M33.61 397.54C34.16 399.26 35.81 399.5 33.86 401.27C32.36 402.63 30.92 402.11 29.29 401.38C28.75 400.64 33.31 397.32 33.61 397.54Z" fill="#FEFEFE"/>
<path d="M44.0997 365.92C48.0497 365.11 52.4097 369.41 48.2497 372.71C43.3297 376.62 37.2097 370.43 42.0197 366.96C42.3697 366.7 43.7097 366 44.0997 365.92ZM42.3197 368.57C41.1697 370.01 42.7897 371.84 44.3497 372.05C45.6697 372.23 48.3897 370.95 47.9697 369.39C46.7697 367.75 43.7997 366.71 42.3197 368.57Z" fill="#040303"/>
<path d="M56.89 371.86C57.49 372.53 54.71 376.251 54.13 376.901C50.15 381.421 45.36 383.31 39.48 380.98C39.03 380.8 36.47 379.521 38.29 379.531C40.53 379.541 42.72 380.48 45.25 380.27C48.33 380.01 51.92 377.04 54.01 374.87C54.31 374.56 56.52 371.45 56.88 371.87L56.89 371.86Z" fill="#040303"/>
<path d="M252.42 354.88C254.48 354.53 258.16 355.86 258.67 358.11C259.87 363.41 252.9 366.2 249.6 361.66C247.69 359.03 249.29 355.4 252.41 354.88H252.42ZM253.38 356.32C252.25 356.49 250.78 357.33 250.57 358.56C250.05 361.52 254.33 363.27 256.33 361.19C258.61 358.83 256.42 355.85 253.38 356.32Z" fill="#040303"/>
<path d="M42.32 368.57C43.8 366.71 46.77 367.75 47.97 369.39C48.39 370.95 45.67 372.23 44.35 372.05C42.78 371.84 41.17 370.01 42.32 368.57Z" fill="#58595B"/>
<path d="M253.38 356.32C256.42 355.85 258.61 358.83 256.33 361.19C254.33 363.27 250.05 361.52 250.57 358.56C250.78 357.34 252.25 356.5 253.38 356.32Z" fill="#58595B"/>
</svg>
