<svg width="270" height="414" viewBox="0 0 270 414" fill="none" xmlns="http://www.w3.org/2000/svg">
<path d="M152.039 413.589C151.229 413.519 149.569 413.159 148.719 412.949C144.969 412.049 138.399 408.839 144.319 405.389L143.769 402.309C142.319 401.599 140.749 400.969 140.399 399.199C139.839 393.689 138.669 387.779 138.369 382.289C138.189 379.049 138.499 374.369 142.169 373.259C142.049 369.559 141.339 365.839 141.009 362.139C140.249 353.709 140.269 337.029 137.419 329.749C136.629 327.729 135.879 327.759 133.709 327.709C112.749 327.219 86.6091 336.349 69.0791 347.529C66.6991 349.049 62.2491 351.809 60.3091 353.629C60.0791 353.839 59.7091 354.039 59.7391 354.419C59.7891 354.949 61.5791 358.099 61.9291 359.189C62.9891 362.489 63.4891 366.829 62.7491 370.219C62.0091 373.609 61.1691 372.599 58.2591 372.569C58.3491 374.629 57.1491 376.429 56.0991 378.079C58.5291 378.509 63.9691 379.879 63.9691 382.999C63.9691 384.989 61.9991 386.469 60.3891 387.289C54.3191 390.349 38.8391 390.149 32.5391 387.619C27.1491 385.459 26.7091 382.049 31.8791 379.159C29.3291 376.749 27.4791 373.289 27.8091 369.679C24.6991 369.479 23.0891 369.719 22.7791 366.199C21.9891 357.289 29.7091 348.089 38.3591 346.529C41.5391 340.639 46.7491 336.259 52.1991 332.549C58.9991 327.919 66.4291 324.229 74.0691 321.199C74.0191 320.099 73.6391 319.219 74.0991 318.109C70.2291 318.359 71.5391 314.789 72.8991 312.709C74.7691 309.839 77.8391 309.079 81.0191 308.479C84.5891 292.739 102.829 293.799 115.219 297.029C121.409 298.639 127.059 301.629 132.859 304.209C132.309 300.009 132.259 295.829 132.149 291.609C132.079 288.749 131.779 286.469 132.169 283.499C132.649 279.899 133.529 277.109 137.189 275.749C137.569 274.379 135.519 274.139 134.469 273.469C131.169 271.369 130.059 267.789 128.149 264.679C117.399 263.299 106.619 261.909 95.8091 261.039C84.1591 260.109 72.4391 260.019 60.7991 259.119C43.8591 257.799 30.7191 255.269 24.6891 237.429C20.2691 224.339 25.1191 208.869 21.8491 195.899C19.6891 187.319 13.8391 182.879 13.4191 172.439C13.1891 166.789 15.8591 160.099 19.1291 155.609C17.4591 151.109 15.0791 143.239 18.1291 138.989C18.5791 138.359 19.0991 138.189 19.5191 137.799C19.7191 137.609 19.7391 137.629 19.6691 137.299C16.8691 137.309 14.6591 134.719 13.8391 132.209C7.84912 103.109 -0.310871 73.5691 0.00912946 43.6491C0.0991295 35.6191 -0.060874 25.2791 6.59913 19.5391C13.2591 13.7991 30.1391 5.00909 39.0491 3.05909C57.1291 -0.890913 78.7591 -0.0208838 97.2691 0.339116C115.559 0.689116 134.139 0.92908 152.109 4.73908C166.229 7.72908 172.209 11.8991 177.419 25.4791C183.289 40.7691 184.859 59.2891 187.869 75.4691C192.129 98.3691 197.339 121.409 204.619 143.389C205.819 146.999 206.809 150.699 207.949 154.329C215.079 148.999 222.179 144.869 230.869 142.599C238.399 140.629 252.609 138.969 259.519 142.929C265.659 146.459 263.339 153.679 256.389 153.129C261.039 158.869 253.889 163.839 248.699 165.029C248.489 175.919 245.989 186.669 244.919 197.469C246.909 198.269 249.009 199.939 250.009 201.849C251.649 204.959 253.429 215.199 252.929 218.619C252.089 224.389 245.649 228.289 241.649 231.809C233.089 239.329 225.359 247.749 216.579 255.189C212.479 258.669 208.269 261.989 203.739 264.899C203.369 265.499 204.099 267.539 204.099 268.379C204.089 271.039 202.549 273.799 200.269 275.099C195.589 277.759 193.559 275.629 189.089 274.519C182.449 272.869 174.279 271.589 167.449 270.489C165.159 270.119 162.859 269.859 160.569 269.449C159.389 270.279 158.529 271.739 157.309 272.669C156.089 273.599 153.649 273.929 153.969 275.689C156.639 275.219 158.329 277.479 159.219 279.679C160.359 282.489 160.579 287.129 160.699 290.189C160.759 291.719 160.459 301.499 160.929 301.829C169.079 298.469 177.189 294.689 185.769 292.499C195.959 289.889 202.749 289.669 209.849 298.119C210.549 298.949 212.399 302.039 212.989 302.419C213.579 302.799 215.359 302.979 216.309 303.419C218.199 304.309 221.079 307.469 221.149 309.639C221.199 311.179 220.129 311.079 219.959 311.589C219.709 312.359 220.859 315.439 219.459 316.589C221.829 317.509 224.519 318.059 227.009 318.859C235.489 321.599 249.859 327.439 254.029 335.729C254.959 337.579 255.689 339.779 255.669 341.879C260.059 342.499 264.079 344.919 266.649 348.529C267.399 349.579 269.609 353.189 269.159 354.289C269.099 354.449 267.929 356.119 267.779 356.279C267.269 356.799 266.209 357.269 265.509 357.499C266.169 361.489 265.809 365.329 263.339 368.629C263.439 369.119 270.719 370.149 268.979 373.789C268.009 375.809 263.569 376.619 261.519 376.879C256.639 377.489 242.929 377.619 239.359 373.919C236.669 371.129 240.799 370.109 242.419 369.289C242.589 369.209 242.879 369.269 242.719 368.879C242.409 368.149 240.889 366.969 240.769 365.919C239.199 365.849 237.569 366.569 236.079 365.689C234.929 365.019 235.629 364.559 235.469 363.899C235.169 362.609 234.679 361.379 234.569 359.999C234.079 353.699 237.359 346.999 242.719 343.699C234.389 339.419 225.729 335.759 216.679 333.279C200.399 328.819 183.429 327.129 166.579 327.029L156.999 327.959L158.999 373.169C160.459 373.759 161.439 373.309 162.479 374.769C163.829 376.669 164.439 386.249 164.539 389.009C164.689 393.029 165.229 399.869 160.669 401.529L159.489 404.969C162.259 405.669 167.759 407.969 163.809 411.089C161.759 412.709 157.229 413.459 154.689 413.599C153.899 413.649 152.829 413.669 152.049 413.599L152.039 413.589ZM108.629 3.23908C83.8391 2.80908 58.0991 0.959094 33.9791 7.37909L27.3291 10.4291C32.7891 9.78908 38.2791 9.1591 43.7591 8.7591C73.3791 6.5991 103.979 4.96911 133.419 9.51911C137.789 10.1891 142.169 11.0791 146.389 12.3691C147.039 11.4691 147.719 10.5591 148.449 9.71912C148.669 9.45912 150.789 7.5691 150.609 7.3191C136.829 4.6891 122.669 3.47908 108.639 3.23908H108.629ZM150.839 10.1891C150.409 10.7691 149.469 11.6991 148.929 12.2391C148.579 12.5891 148.039 12.4391 148.209 13.0591L153.239 14.8691C154.169 13.9091 155.139 12.9891 156.119 12.0991C156.419 11.8291 159.199 9.72911 158.999 9.45911C157.799 9.19911 152.789 7.24908 152.019 7.92908C151.649 8.25908 151.159 9.73913 150.839 10.1691V10.1891ZM133.089 12.5891C105.259 8.23912 77.6891 9.65909 49.7391 11.6291C39.8591 12.3291 25.7391 11.8391 16.9991 16.2991C7.33912 21.2291 4.00912 24.8691 3.33912 36.2091C2.49912 50.2791 4.54911 65.6891 6.73911 79.5791C9.62911 97.9691 13.8991 116.139 18.0091 134.269C18.3191 134.789 19.3991 134.859 19.9991 134.909C25.4991 135.389 32.5191 135.039 38.2291 135.149C40.8291 135.199 43.4391 135.089 46.0291 135.139C46.3291 134.879 44.4691 131.999 45.0691 131.299C45.1591 131.359 45.5391 131.149 45.8091 131.449C46.1091 131.789 46.5091 133.379 46.7491 133.939C46.8691 134.209 46.9691 134.739 47.1091 134.899C47.5991 135.489 53.6891 134.959 54.9091 135.139C54.6691 134.109 54.2791 133.099 54.0091 132.079C53.9091 131.719 54.0091 131.309 53.9491 131.069C54.6391 130.959 54.5291 131.069 54.7991 131.529C55.3591 132.489 55.3591 133.669 55.8691 134.669C55.9191 134.769 55.8691 135.019 55.9791 135.149L60.9091 135.379C61.3991 134.919 58.9091 131.639 60.1891 131.059C60.7991 132.329 61.4791 133.629 62.1091 134.899C62.1491 134.979 62.0291 135.259 62.1391 135.349C62.4391 135.449 62.7591 135.369 63.0691 135.379C63.2291 135.379 63.3891 135.379 63.5491 135.379C65.1391 135.419 66.7491 135.349 68.3491 135.379L64.2691 123.149C64.4291 122.959 64.3091 122.259 64.9891 122.429L69.9491 135.389L117.999 135.859H119.679L118.719 131.539C118.849 131.439 119.149 131.259 119.299 131.309L120.649 135.849C122.869 135.949 125.129 135.749 127.349 135.859C127.629 135.869 128.839 136.589 128.789 135.739C128.709 134.159 127.249 131.929 126.869 130.339C126.909 130.239 126.829 130.009 126.869 129.859C127.599 129.289 128.549 131.729 128.729 132.189C129.189 133.369 129.389 134.619 129.779 135.819C131.779 136.019 133.739 136.139 135.749 136.089C136.219 136.079 137.529 136.359 137.429 135.729C137.129 133.759 135.039 130.739 134.549 128.649C134.579 128.599 134.049 127.479 134.909 127.689C135.669 127.879 138.449 134.839 138.859 135.969C139.219 136.209 142.889 136.099 143.669 136.079C144.309 136.059 144.949 136.089 145.589 136.079L145.569 135.499L141.749 125.049C141.789 124.499 141.619 123.809 142.469 123.849C144.169 127.849 146.289 131.719 147.049 136.059C149.749 136.199 152.479 135.959 155.179 136.079C155.639 136.099 156.449 136.549 157.099 136.319L155.419 131.279C155.479 130.909 155.379 130.459 155.419 130.079C155.699 130.119 156.109 129.989 156.339 130.119C156.949 130.479 158.369 136.249 158.699 136.319C165.739 136.259 172.759 136.339 179.779 136.539C180.979 136.569 182.679 137.289 183.729 136.429V130.909C183.729 129.519 182.029 124.319 181.649 122.439C176.819 99.0091 173.269 75.1291 167.789 51.8791C165.949 44.0591 161.869 26.5891 156.389 21.0691C151.209 15.8391 140.209 13.6591 133.129 12.5491L133.089 12.5891ZM157.799 12.8291C156.769 13.9991 155.519 14.8491 154.439 15.9391C156.359 16.7791 157.899 18.3191 159.359 19.7791C160.639 18.3091 161.959 16.8591 163.319 15.4691C163.689 15.0891 165.799 13.4291 165.709 12.9791C165.209 12.1091 159.589 9.42912 159.249 9.71912C159.919 10.6491 158.479 12.0691 157.809 12.8391L157.799 12.8291ZM164.749 16.6691C163.469 18.2691 162.099 19.9191 160.429 21.1091C162.049 23.8091 163.539 26.6191 164.519 29.6191C164.879 29.7191 164.919 29.5291 165.119 29.3791C167.209 27.9091 168.929 25.3591 170.509 23.3791C170.969 22.8091 172.499 21.5991 172.399 20.9191C172.369 20.7191 171.309 18.9591 171.089 18.6091C170.619 17.8491 167.459 13.6291 166.799 13.7891C165.999 14.5991 165.429 15.8191 164.749 16.6691ZM171.709 25.0591C170.429 26.3591 169.529 28.3591 168.239 29.6291C167.679 30.1791 165.509 31.3691 165.459 31.8991L169.309 45.2091C169.729 45.5891 175.229 40.4091 176.259 40.1691C176.619 40.5491 177.669 40.1791 176.499 41.6091C175.939 42.2891 174.529 43.7491 173.859 44.3691C173.269 44.9191 170.149 46.9891 170.059 47.2991L171.459 54.7991C171.879 54.9091 171.939 54.6291 172.179 54.4391C174.119 52.9491 176.379 50.1391 178.169 48.3191C178.679 47.8091 179.399 47.1891 180.039 46.8291L180.109 46.5191C178.599 38.2591 176.459 30.1191 173.129 22.4191L171.689 25.0591H171.709ZM178.659 50.2391C176.829 52.5491 174.939 55.2091 172.219 56.5091C172.079 56.9891 172.189 57.4791 172.249 57.9691C172.699 62.0491 174.349 67.3491 175.189 71.5791C175.879 75.0791 176.499 78.6091 176.979 82.1391C177.429 82.2491 177.439 81.9891 177.659 81.7391C178.589 80.6591 179.699 78.1291 180.689 77.3391C181.149 76.9691 181.179 77.0591 181.539 77.4691L177.459 83.7091L178.949 92.2891L179.269 92.6891C179.669 92.6891 183.229 88.0191 184.179 87.5291C184.599 87.3091 184.639 87.4891 184.899 87.7791C183.419 90.2391 181.379 92.2291 179.419 94.2991L181.419 104.689C181.709 105.089 181.779 104.799 182.019 104.559C183.419 103.159 185.139 100.099 186.419 99.0091C186.659 98.7991 186.969 98.6491 187.299 98.6891C188.239 99.6991 182.529 105.659 181.789 106.729L183.949 117.639C186.419 115.979 188.229 113.579 190.179 111.399C190.789 110.719 191.469 109.739 192.329 110.079C187.399 89.6191 184.589 68.7291 180.579 48.0791C180.099 47.5191 178.779 50.0891 178.659 50.2391ZM190.419 113.319C189.469 114.009 188.839 115.289 188.029 116.089C187.399 116.719 184.239 118.829 184.229 119.389L187.769 134.549C188.089 136.489 187.099 137.909 186.349 139.559C190.709 142.579 191.629 148.809 192.299 153.769C194.509 170.229 192.129 184.009 187.359 199.619C184.249 209.779 181.599 218.229 180.819 229.049C179.999 240.489 180.769 264.299 191.129 271.619C193.239 273.109 194.899 274.199 197.549 273.369C205.189 270.969 199.089 261.949 197.249 257.469C188.629 236.499 192.259 204.719 206.479 186.849C213.669 177.819 224.489 171.689 234.529 166.339C239.399 164.759 244.639 163.619 249.279 162.029C253.299 160.649 257.859 157.649 254.999 152.939C252.099 152.629 249.099 152.799 246.189 153.179C240.569 153.919 236.889 155.449 232.389 158.809C225.329 164.089 212.799 178.509 202.939 173.339C197.379 170.419 199.009 164.309 202.049 160.129C202.899 158.959 204.749 157.459 205.259 156.509C205.669 155.729 205.189 155.759 204.949 155.019C204.359 153.259 203.289 148.639 202.499 147.399C202.429 147.279 202.299 147.129 202.149 147.159C201.979 147.289 200.759 150.469 200.469 150.999C199.419 152.879 196.909 156.599 195.309 157.959C195.039 158.189 194.919 158.539 194.469 158.439C193.939 157.869 198.809 149.259 199.509 148.129C199.969 147.379 201.709 145.429 201.629 144.719L200.109 140.459C199.949 140.379 198.509 143.269 198.309 143.579C197.629 144.589 195.479 147.579 194.599 148.149C194.309 148.339 194.119 148.449 193.749 148.379C193.989 145.609 195.749 142.899 197.349 140.709C197.869 139.999 199.559 138.669 199.469 137.779C196.519 128.839 194.339 119.679 192.309 110.499L190.389 113.379L190.419 113.319ZM213.439 169.679C221.299 166.719 227.939 157.159 235.889 153.399C242.379 150.329 246.659 151.439 253.249 151.209C255.849 151.449 261.169 151.699 260.659 147.759C260.269 144.689 254.469 143.379 251.919 143.059C243.949 142.069 233.819 143.469 226.259 146.169C219.029 148.749 205.099 157.669 202.519 165.129C200.089 172.179 209.369 172.639 213.429 169.679H213.439ZM187.299 145.939C187.069 145.099 187.219 143.839 186.419 143.049L179.499 143.299L179.149 143.649L185.399 158.859C186.319 158.719 187.189 159.049 188.019 159.119C188.489 159.159 188.989 159.089 189.459 159.119C189.079 155.009 188.619 150.659 187.669 146.629C187.589 146.299 187.339 146.059 187.299 145.929V145.939ZM24.4491 155.769C25.3091 155.839 26.8791 155.879 27.6891 155.769C28.0191 155.729 28.1091 155.899 28.0391 155.419C26.0891 151.909 24.6691 148.139 23.0091 144.499C22.8891 144.239 22.5491 143.339 22.3691 143.289C21.8791 143.449 20.0591 142.929 20.1391 143.649C20.5891 147.359 22.5591 151.649 23.2891 155.369L23.6391 155.749C23.8991 155.829 24.1791 155.759 24.4391 155.779L24.4491 155.769ZM35.4791 145.459C35.0691 144.789 34.8691 143.829 34.1591 143.299H24.6891L30.4291 155.839C30.8991 156.429 32.1391 156.219 32.8391 156.249C35.7091 156.359 38.5991 156.169 41.4691 156.249C41.5191 155.969 41.4391 155.789 41.3391 155.539C40.1391 152.639 37.1891 148.259 35.4691 145.459H35.4791ZM46.5091 156.489C49.8691 156.609 53.2391 156.319 56.5791 156.729C54.9891 152.809 52.8791 149.119 50.8291 145.459C50.4891 144.859 50.3891 143.829 49.7491 143.299H36.9191L44.2291 156.249C44.7191 156.679 45.8191 156.459 46.5091 156.489ZM70.2591 145.459C69.9291 144.779 69.8091 143.869 69.1791 143.299H52.5091L59.0491 156.429C59.5191 156.889 60.9491 156.709 61.6291 156.729C66.0891 156.879 70.6291 156.429 75.0591 156.969C73.7391 153.039 72.0791 149.179 70.2591 145.459ZM79.8491 156.969C83.8491 157.079 87.8491 156.939 91.8391 157.209C91.8591 156.939 91.8391 156.689 91.7791 156.429C91.1191 153.459 88.9191 148.489 87.7591 145.459C87.4991 144.789 87.3091 143.989 87.0391 143.299H71.2091L77.0791 156.739C77.4891 157.159 79.1391 156.949 79.8491 156.969ZM99.2791 145.459C98.9491 144.789 98.8291 143.859 98.1991 143.299H89.2091L94.2191 157.069C94.4191 157.359 96.3691 157.199 96.8891 157.209C99.3691 157.259 101.859 157.069 104.319 157.449C104.909 156.869 99.9591 146.819 99.2791 145.459ZM109.589 157.449C112.539 157.499 115.509 157.409 118.459 157.449C117.009 153.429 115.359 149.479 113.899 145.459C113.649 144.759 113.609 143.879 113.059 143.299H100.709L106.819 157.209C107.179 157.639 108.899 157.439 109.579 157.449H109.589ZM123.019 157.689C126.759 157.819 130.539 157.599 134.289 157.689C133.119 153.489 131.379 149.479 129.729 145.459C129.479 144.849 129.499 143.839 128.889 143.299H115.099L121.499 157.649C121.999 157.749 122.509 157.669 123.019 157.689ZM147.959 146.179C147.619 145.369 147.409 144.149 146.999 143.299H131.409L136.709 157.909C137.579 157.969 138.459 157.919 139.319 157.929C143.809 157.979 148.269 157.969 152.749 158.169C151.349 154.429 150.029 150.639 148.479 146.969C148.329 146.629 148.029 146.349 147.959 146.179ZM157.799 158.169C161.399 158.229 164.989 158.459 168.589 158.409C167.229 154.359 165.619 150.389 164.029 146.419C163.629 145.409 163.459 144.139 162.709 143.299H149.159L155.029 157.929C155.379 158.349 157.119 158.149 157.789 158.169H157.799ZM173.389 158.649C176.729 158.869 180.139 158.359 183.459 158.889C181.969 154.579 180.199 150.379 178.419 146.179C178.059 145.339 177.689 144.199 177.459 143.299H164.749L170.619 158.169C170.789 158.379 172.899 158.609 173.379 158.649H173.389ZM24.9291 160.329C26.9691 167.479 29.1491 172.379 31.9291 179.109C35.1691 186.949 37.6691 195.309 38.1191 203.859C38.8791 218.069 32.5491 236.819 39.0391 249.949C40.1991 252.289 40.7391 252.369 43.2091 253.209C51.6791 256.089 62.4191 255.929 71.3291 256.499C103.299 258.579 134.669 261.819 166.239 267.359C172.249 268.419 178.769 270.529 184.539 271.369C184.679 271.389 184.929 271.439 184.899 271.249C183.119 269.429 182.169 267.119 181.299 264.779C175.149 248.289 176.509 224.589 181.179 207.819C182.909 201.629 185.419 195.649 186.989 189.399C189.209 180.579 189.839 172.059 189.699 162.969C189.699 162.549 189.819 160.609 189.559 160.569C188.209 160.339 186.759 160.839 185.499 160.839C156.179 160.789 126.609 159.799 97.2491 159.369C74.1291 159.029 50.9191 159.149 27.9391 158.649C26.7791 158.619 25.6091 158.689 24.4491 158.659C24.3691 159.279 24.7691 159.789 24.9291 160.339V160.329ZM20.3791 159.369C20.3791 159.969 19.7191 160.079 19.4491 160.479C18.7891 161.449 17.5391 166.999 17.3291 168.429C15.2991 181.709 25.3791 187.999 26.1491 200.009C26.9191 212.019 23.4291 223.539 27.0391 235.579C28.4491 240.299 31.2291 246.039 35.3791 248.819C34.3391 245.709 33.3091 242.429 33.0891 239.119C32.2191 225.839 36.1791 212.739 34.4991 199.569C33.2891 190.089 30.6891 184.879 26.8091 176.559C24.3791 171.339 22.9591 165.229 21.0391 159.779L20.3791 159.369ZM246.299 165.599C244.619 165.919 242.469 166.459 240.839 166.979C239.049 167.549 238.629 167.279 238.389 169.319C236.789 182.629 235.839 196.049 234.309 209.369C233.709 214.529 233.019 215.679 230.189 219.879C224.789 227.879 216.069 236.059 208.519 242.099C205.019 244.899 201.109 247.109 197.639 249.949C198.369 254.259 200.399 258.189 202.409 262.009C202.529 262.249 202.569 262.689 202.649 262.969C202.999 263.219 208.989 258.739 209.719 258.169C216.559 252.829 223.169 246.469 229.389 240.419C232.059 237.819 237.579 233.459 238.559 229.919C239.839 225.299 239.729 219.449 240.309 214.639C242.579 198.289 245.769 182.049 247.969 165.699C248.069 164.959 246.699 165.519 246.299 165.599ZM205.049 193.909C196.679 207.369 194.809 224.429 195.729 240.049L196.059 240.439C201.499 234.309 207.409 228.849 213.929 223.899C214.399 223.539 215.189 223.169 215.369 222.579C215.259 222.119 211.889 221.189 212.249 219.819C212.579 219.889 212.979 219.799 213.449 219.929C214.359 220.179 215.629 221.279 216.509 221.449C217.879 221.719 220.129 219.239 221.559 218.809C221.709 217.389 221.619 215.069 222.149 213.759C222.379 213.209 222.719 213.059 223.289 213.099C223.139 214.669 223.349 216.319 223.049 217.899C223.139 218.029 225.429 216.359 225.689 216.219C226.419 215.839 231.379 213.729 231.449 213.419L233.119 195.829L233.089 194.909C231.309 194.459 229.469 194.089 227.659 193.739C220.749 192.429 213.909 191.739 206.869 191.509C205.969 191.689 205.499 193.209 205.069 193.909H205.049ZM244.379 200.139C243.959 202.689 243.469 205.239 243.179 207.809L245.499 205.939C245.829 205.769 247.219 205.209 247.499 205.179C248.199 205.089 249.149 205.329 249.779 205.649C248.929 202.849 246.579 201.049 244.499 199.179C244.239 199.329 244.429 199.859 244.379 200.139ZM243.419 209.489C244.359 209.289 244.439 210.149 244.559 210.869C244.649 211.429 245.049 214.399 244.499 214.519C243.949 214.639 243.909 213.859 243.819 213.529C243.469 212.259 243.389 210.789 243.429 209.489C243.069 209.879 242.829 209.859 242.719 210.579C242.259 213.639 242.299 217.059 241.989 220.159C241.679 223.259 241.189 226.639 240.789 229.869C244.659 226.579 250.349 222.789 250.829 217.249C250.929 216.069 250.729 213.509 250.549 212.309C250.339 210.859 249.649 207.509 247.819 207.399C246.609 207.329 244.249 208.579 243.419 209.479V209.489ZM196.889 247.629C197.249 247.729 197.289 247.539 197.489 247.389C206.519 241.099 216.199 232.489 223.629 224.369C225.799 221.999 229.329 218.059 231.039 215.469C231.229 215.179 231.489 214.929 231.419 214.529L220.739 221.239L222.069 223.879L221.129 223.499L219.589 221.989C218.879 222.419 218.299 222.679 218.469 223.639C218.069 223.679 217.689 223.349 217.279 223.509C217.109 223.579 214.479 225.509 214.369 225.659C213.539 226.769 215.909 230.719 214.739 231.069C213.209 231.279 213.239 227.029 212.349 227.239C212.059 227.309 208.149 230.779 207.899 231.189C207.359 232.089 207.059 235.309 206.469 235.759C206.119 236.029 205.919 235.779 205.779 235.479L205.869 232.999L196.279 242.839L196.879 247.629H196.889ZM152.519 274.969C148.859 275.929 145.169 276.389 141.399 275.899C140.419 275.769 139.369 275.329 138.479 275.219C137.699 275.129 138.479 277.249 138.739 277.609C140.429 279.939 149.119 279.579 151.309 277.959C152.239 277.269 152.579 276.099 152.519 274.979V274.969ZM136.689 310.229C141.419 313.059 149.129 312.609 154.249 311.119C158.509 309.879 158.739 309.049 158.999 304.599C159.289 299.809 158.889 292.679 158.509 287.799C158.229 284.229 157.969 277.199 153.489 276.649C153.329 277.339 153.009 277.939 152.529 278.449C149.969 281.129 140.499 281.559 137.999 278.809C137.619 278.399 137.289 277.069 136.689 277.469C135.089 279.919 134.529 281.779 137.339 283.549C140.589 285.609 149.079 284.349 152.709 283.169C153.789 282.819 154.639 282.389 155.639 281.909C156.039 282.339 154.079 284.149 153.709 284.409C152.689 285.129 151.329 285.469 150.129 285.749C151.239 290.859 150.739 296.139 150.849 301.339C149.829 301.289 150.079 299.659 149.819 298.889C149.719 298.609 149.469 298.389 149.419 298.219V285.989L145.099 286.469C144.859 286.989 145.319 287.659 145.339 287.909C145.529 290.289 145.349 292.879 145.329 295.219C145.319 296.249 145.519 301.429 145.099 301.819C144.589 302.289 144.439 300.969 144.379 300.859C143.659 296.169 143.889 291.429 144.139 286.709H140.539C140.299 287.229 140.759 287.899 140.779 288.149C141.089 291.919 140.549 296.089 140.779 299.899L140.039 299.749C139.949 299.489 139.909 299.199 139.819 298.939C139.339 297.529 139.159 295.319 139.089 293.789C138.969 291.259 139.229 288.749 139.329 286.239C137.379 286.169 135.799 284.859 134.539 283.469L134.089 283.739C133.769 290.969 134.189 297.899 135.009 305.059C135.239 307.089 134.589 308.949 136.689 310.209V310.229ZM200.009 303.989C193.169 303.839 187.249 308.459 181.059 310.819L195.189 312.599C195.729 309.169 197.309 306.169 200.009 303.989ZM199.759 313.089C200.289 310.509 202.159 308.009 203.829 305.989C203.929 305.449 202.239 304.489 201.769 304.259C200.959 304.179 198.419 308.029 198.049 308.859C197.649 309.739 196.929 311.619 196.669 312.519C196.529 313.009 196.779 312.799 196.999 312.869C197.879 313.139 198.849 313.139 199.759 313.089ZM219.619 310.179C220.619 308.479 216.369 305.129 214.789 304.679C207.829 302.669 203.649 307.869 201.199 313.589L203.599 313.829C204.109 305.579 215.979 300.719 218.469 310.709C218.589 310.799 219.559 310.279 219.609 310.179H219.619ZM115.099 311.429C107.679 309.829 99.0591 304.529 91.5991 308.189C93.5791 308.809 95.2591 310.019 96.6291 311.549C97.1591 312.139 98.3891 314.209 98.9191 314.309C103.929 313.499 108.949 312.689 113.949 311.829C114.249 311.779 115.109 311.779 115.099 311.429ZM218.949 312.139C217.149 313.029 217.339 311.069 216.749 309.899C215.419 307.259 212.569 306.269 209.919 307.539C208.309 308.309 204.459 312.069 204.789 313.929L208.639 314.539C208.049 306.969 218.239 308.539 214.399 315.739L218.089 316.479C218.739 315.139 219.099 313.639 218.959 312.139H218.949ZM97.1191 314.779C95.9391 313.299 92.2991 308.879 90.3191 309.089C89.9491 309.129 88.8591 310.059 88.7291 310.349C88.5391 310.809 89.8491 310.989 90.2391 311.229C91.8391 312.189 93.5091 313.669 94.5191 315.219L97.1091 314.779H97.1191ZM158.999 311.189C157.399 312.389 155.639 312.879 153.719 313.349C148.749 314.569 143.299 314.779 138.369 313.229C137.269 312.879 135.049 311.529 134.399 311.429C133.749 311.329 131.639 311.599 130.819 311.659C108.849 313.399 82.6191 317.739 63.0591 328.079C54.5791 332.559 45.8791 338.379 40.0391 346.069C40.7991 346.319 41.6491 346.149 42.4391 346.189C46.4591 346.399 50.0391 347.419 53.7791 348.799C56.0791 346.709 58.3591 344.519 61.1391 343.069L56.8491 341.249C56.7691 340.949 56.7991 340.729 57.0591 340.539C57.8991 339.949 61.4891 342.029 62.6891 341.869C63.8891 341.709 67.2191 339.129 68.5791 338.629L62.8591 336.559L62.8291 335.629L70.3291 337.749L75.7791 334.909L70.8891 332.769L70.7391 332.029C71.2891 331.469 76.2691 333.979 77.3091 333.929C78.7491 333.869 81.3491 331.779 82.9591 331.539L77.9291 329.259C77.2191 328.919 77.4291 328.149 78.0891 327.979C78.8191 327.789 83.7691 330.619 84.9691 330.579C85.4291 330.559 89.6991 328.879 90.3891 328.549C90.6591 328.419 90.9191 328.319 91.1091 328.069L86.7891 325.669L87.1491 325.069C87.6991 324.959 91.8591 327.559 92.6991 327.649C93.8191 327.759 97.9991 325.629 99.4991 325.549L95.0591 322.919L94.7091 321.949L101.309 324.839L108.139 323.139C107.839 322.459 102.709 320.219 103.579 319.309L110.399 322.679L116.049 321.469L111.509 318.459L111.009 317.639L118.339 321.229C123.969 320.439 130.339 320.009 135.959 320.999C142.289 322.109 143.379 324.939 144.719 330.829C146.939 340.639 148.019 353.179 149.149 363.329C149.949 370.469 150.559 377.629 151.069 384.789H155.269C156.539 384.789 156.839 383.859 157.069 382.869C157.549 380.819 157.079 379.819 157.069 377.959C156.859 360.989 155.459 344.009 155.449 327.099C155.449 325.939 155.949 322.599 156.899 321.859C158.589 320.539 165.249 319.679 167.519 319.549C173.569 319.199 180.889 319.519 186.939 320.029C197.269 320.909 207.479 323.119 217.399 326.029C217.729 326.049 217.869 326.049 217.759 325.669C217.479 324.719 215.839 322.519 215.849 321.569L216.449 320.979C217.129 321.149 219.029 326.169 219.929 326.849C221.039 327.679 223.769 327.949 225.079 328.649L223.519 323.739C223.519 323.529 223.999 323.579 224.109 323.629C224.919 323.979 226.719 328.659 227.609 329.479C227.789 329.649 231.659 331.409 232.039 331.529C232.379 331.629 232.459 331.529 232.379 331.189C232.029 329.679 230.689 327.749 230.479 326.129C230.409 325.569 231.169 325.679 231.399 325.819C231.719 326.019 234.339 331.799 234.789 332.619C234.949 332.809 238.699 334.879 239.109 335.019C239.319 335.089 239.839 335.279 239.839 335.009L238.159 329.979C238.159 329.769 238.649 329.819 238.759 329.859C239.259 330.069 241.679 335.649 242.139 336.549L246.919 339.689L244.639 330.819C245.329 331.309 245.549 331.609 246.079 332.019C246.679 334.159 247.779 336.099 248.369 338.249C248.539 338.879 248.559 340.459 248.779 340.839C249.219 341.619 251.689 341.349 252.559 341.379C253.099 341.399 253.759 341.799 254.239 341.499C252.259 331.799 242.219 326.719 233.839 323.279C213.479 314.919 187.959 313.599 166.119 311.129C165.049 311.009 160.249 310.089 159.739 310.309C159.379 310.469 159.209 311.009 159.009 311.159L158.999 311.189ZM92.7991 315.739C88.8891 309.149 75.4191 307.759 73.1191 316.309L76.0191 316.839C78.4791 311.129 84.3791 311.009 88.9491 314.449C89.4091 314.789 90.4891 316.119 90.7991 316.179C91.2191 316.259 92.1891 315.549 92.8091 315.739H92.7991ZM213.139 311.479C211.609 309.959 208.859 312.959 209.629 314.749L212.679 315.219C213.179 314.349 213.939 312.279 213.139 311.479ZM89.6791 316.219C86.3891 314.589 83.3791 312.429 79.7191 314.529C77.2491 315.949 78.1491 318.889 75.0491 318.369V320.769C75.1691 320.899 77.5991 320.109 77.9091 319.909C78.6291 319.459 79.1791 318.109 79.9591 317.399C81.6791 315.829 83.6591 315.649 85.0391 317.659L89.6791 316.209V316.219ZM83.9291 317.659C82.5591 317.059 81.5591 317.659 80.8091 318.849C81.7391 318.689 82.6691 318.409 83.5791 318.139C83.9191 318.039 83.9991 318.289 83.9291 317.659ZM236.939 363.949C237.589 364.109 242.909 363.769 243.179 363.469C240.399 355.299 245.829 347.989 254.569 348.839C259.009 349.269 261.649 352.459 262.859 356.499C263.359 356.929 265.699 355.309 266.189 354.929C266.419 354.759 266.409 354.369 266.439 354.349C266.829 354.099 267.409 354.939 266.989 353.439C266.179 350.549 262.539 346.759 259.879 345.439C251.279 341.169 241.449 343.919 237.449 352.829C235.879 356.319 236.159 359.629 236.459 363.349C236.489 363.659 236.619 363.869 236.939 363.949ZM54.4291 368.989C54.4091 369.459 53.7891 370.369 54.5891 370.629L60.8991 370.889C61.7991 366.869 61.2291 362.829 59.7191 359.029C56.2891 350.389 44.4391 346.579 36.0891 349.799C29.9891 352.149 24.1491 360.329 25.5291 367.089L31.6591 368.029C31.6791 367.629 31.6391 367.229 31.6591 366.829C31.8391 363.659 33.0291 361.509 35.5191 359.539C44.1891 352.649 54.8391 357.959 54.4491 368.989H54.4291ZM264.729 357.989C263.819 357.779 262.239 358.259 261.509 357.739C261.039 357.399 260.349 355.429 259.929 354.769C257.389 350.819 251.649 349.439 247.849 352.439C245.069 354.639 243.999 357.709 243.899 361.199C243.879 362.009 244.239 363.619 244.149 364.029C244.099 364.249 242.669 364.819 242.729 365.479C242.869 366.909 246.289 369.799 247.669 370.379C256.729 374.219 266.569 368.139 264.729 357.999V357.989ZM28.7591 369.709C30.3591 378.629 39.9691 384.119 48.6091 381.769C51.3991 381.009 53.5191 378.779 54.9391 376.349C55.2291 375.849 56.3091 373.819 56.3391 373.409C56.4391 371.829 53.1091 372.469 52.6191 371.639C52.5191 367.969 52.5591 364.829 50.1991 361.819C46.8391 357.519 41.5891 357.909 37.3091 360.639C35.2491 361.959 34.1491 363.399 33.6191 365.819C33.3791 366.899 33.4791 369.419 32.7291 369.969L28.7591 369.709ZM142.929 379.059C142.729 377.739 142.619 376.429 142.439 375.109C142.389 374.769 142.669 374.399 142.089 374.509C140.899 375.009 140.269 378.959 140.269 380.139C140.269 384.399 141.379 391.519 141.999 395.939C142.339 398.389 142.029 399.529 144.659 400.239C148.119 401.169 156.579 400.659 159.959 399.319C161.289 398.789 161.649 398.139 161.969 396.769C162.849 392.969 162.379 381.779 161.579 377.799C161.189 375.859 160.979 375.509 159.009 374.979C158.999 375.299 159.009 375.619 159.009 375.939C158.919 378.349 160.029 384.849 157.899 386.219C156.999 386.799 154.199 386.939 153.019 386.969C152.619 386.979 152.219 386.969 151.819 386.969C150.859 386.949 149.889 386.859 148.939 386.729C148.519 386.669 148.149 386.579 147.739 386.489C147.459 386.429 147.149 386.499 146.779 386.379C145.419 385.929 143.839 384.059 143.489 382.709C143.209 381.619 143.119 380.199 142.939 379.059H142.929ZM159.239 401.839C157.129 402.089 155.009 402.659 152.879 402.799C150.619 402.939 147.829 402.519 145.679 402.799C145.429 402.829 145.159 402.739 145.329 403.159C145.409 403.369 146.419 404.709 146.639 404.969C150.859 409.739 156.919 406.799 159.229 401.849L159.239 401.839Z" fill="#040303"/>
<path d="M133.09 12.5892C140.18 13.6992 151.17 15.8692 156.35 21.1092C161.83 26.6392 165.9 44.0992 167.75 51.9192C173.23 75.1692 176.79 99.0492 181.61 122.479C182 124.359 183.69 129.559 183.69 130.949V136.469C182.65 137.329 180.94 136.609 179.74 136.579C172.72 136.379 165.7 136.299 158.66 136.359C158.34 136.279 156.91 130.509 156.3 130.159C156.07 130.029 155.66 130.159 155.38 130.119C155.33 130.499 155.44 130.949 155.38 131.319C155.12 132.959 155.08 134.439 155.14 136.119C152.44 135.989 149.71 136.229 147.01 136.099C146.25 131.759 144.13 127.889 142.43 123.889C141.59 123.849 141.76 124.539 141.71 125.089C141.44 128.689 143.25 132.539 143.63 136.119C142.85 136.139 139.18 136.249 138.82 136.009C138.41 134.869 135.63 127.909 134.87 127.729C134.02 127.519 134.55 128.639 134.51 128.689C134.5 128.709 134.04 128.609 134.02 128.829L135.71 136.129C133.7 136.179 131.74 136.059 129.74 135.859C129.36 134.659 129.15 133.409 128.69 132.229C128.51 131.759 127.56 129.329 126.83 129.899C126.79 130.049 126.87 130.269 126.83 130.379C126.15 132.099 127.17 134.099 127.31 135.899C125.09 135.789 122.83 135.989 120.61 135.889L119.26 131.349C119.11 131.299 118.82 131.479 118.68 131.579C117.96 132.099 118.1 134.919 117.96 135.899L69.9096 135.429L64.9496 122.469C64.2696 122.299 64.3896 122.999 64.2296 123.189C64.2096 123.219 63.8096 123.079 63.7396 123.349C63.0396 126.059 65.5696 132.239 65.8996 135.179L63.4996 135.419C63.3396 135.419 63.1796 135.419 63.0196 135.419V134.939H62.0596C61.4296 133.679 60.7496 132.369 60.1396 131.099C59.8896 130.569 59.6496 128.419 58.5796 128.699C58.0996 128.829 58.4396 130.489 58.4896 130.939C58.6496 132.279 58.9196 133.669 59.4096 134.929L55.8096 134.689C55.3096 133.689 55.3096 132.509 54.7396 131.549C54.4696 131.089 54.5796 130.979 53.8896 131.089C53.6496 130.199 53.2996 128.809 52.2096 129.169L52.9296 134.449L46.6896 133.969C46.4496 133.409 46.0396 131.819 45.7496 131.479C45.4896 131.179 45.1096 131.389 45.0096 131.329C44.9496 131.299 44.7296 130.409 44.3996 130.139C42.6096 128.609 43.9396 133.539 43.7996 133.729C39.3996 133.119 34.9296 133.159 30.4796 133.019C27.6896 132.929 24.9096 132.679 22.0896 132.759C21.4296 132.779 20.3896 133.379 20.1096 132.599C18.3196 124.509 16.7296 116.379 14.9096 108.299C11.2196 91.9191 7.72956 76.8592 6.14956 59.9792C4.87956 46.4592 1.85955 25.2592 17.3596 18.9092C30.0296 13.7092 46.1796 13.0192 59.7596 12.6292C83.4596 11.9392 107.3 11.3691 130.97 12.8691C131.61 12.9091 132.47 12.9991 133.02 12.6191L133.09 12.5892Z" fill="#936D49"/>
<path d="M189.699 162.969C189.839 172.059 189.209 180.589 186.989 189.399C185.419 195.649 182.909 201.619 181.179 207.819C176.499 224.599 175.149 248.299 181.299 264.779C182.169 267.119 183.119 269.429 184.899 271.249C184.939 271.439 184.689 271.389 184.539 271.369C178.769 270.539 172.249 268.419 166.239 267.359C134.679 261.819 103.299 258.579 71.3287 256.499C62.4187 255.919 51.6787 256.079 43.2087 253.209C40.7387 252.369 40.1887 252.289 39.0387 249.949C32.5487 236.819 38.8787 218.069 38.1187 203.859C37.6587 195.309 35.1687 186.949 31.9287 179.109C29.1487 172.379 26.9687 167.469 24.9287 160.329C28.2187 160.869 31.5487 161.329 34.8887 161.529C57.5887 162.839 80.4987 161.889 103.249 162.239C127.489 162.619 151.899 163.749 176.139 163.199C180.659 163.099 185.179 163.019 189.699 162.969Z" fill="#936D49"/>
<path d="M197.369 140.659C195.769 142.859 194.009 145.559 193.769 148.329C194.139 148.399 194.329 148.289 194.619 148.099C195.499 147.529 197.649 144.539 198.329 143.529L199.529 148.089C198.839 149.229 193.959 157.829 194.489 158.399C194.939 158.499 195.059 158.149 195.329 157.919C196.919 156.569 199.429 152.839 200.489 150.959C201.359 152.989 202.239 157.489 205.289 156.479C204.779 157.439 202.929 158.939 202.079 160.099C199.039 164.279 197.409 170.389 202.969 173.309C212.829 178.479 225.359 164.059 232.419 158.779C236.919 155.419 240.589 153.889 246.219 153.149C249.129 152.769 252.129 152.599 255.029 152.909C257.889 157.619 253.329 160.609 249.309 161.999C244.659 163.599 239.429 164.729 234.559 166.309C227.159 168.709 222.489 170.409 216.019 174.989C189.749 193.559 185.159 225.879 194.209 255.229C195.489 259.379 198.829 265.169 198.349 269.319C197.959 272.659 193.589 272.729 191.159 271.599C180.799 264.279 180.029 240.469 180.849 229.029C181.629 218.199 184.289 209.759 187.389 199.599C192.159 183.999 194.539 170.209 192.329 153.749C191.659 148.799 190.749 142.569 186.379 139.539C187.129 137.889 188.109 136.469 187.799 134.529L184.259 119.369C184.259 118.809 187.419 116.699 188.059 116.069C188.869 115.269 189.499 113.999 190.449 113.299L197.409 140.639L197.369 140.659Z" fill="#E9AC6F"/>
<path d="M233.109 195.819L231.439 213.409C231.369 213.719 226.409 215.829 225.679 216.209C225.649 215.209 225.549 210.259 224.969 209.839C223.899 209.059 223.339 212.439 223.279 213.089C222.709 213.049 222.369 213.199 222.139 213.749C221.609 215.059 221.699 217.379 221.549 218.799C220.129 219.239 217.879 221.709 216.499 221.439C215.629 221.269 214.349 220.169 213.439 219.919C212.969 219.789 212.569 219.879 212.239 219.809C210.479 219.419 207.249 218.539 209.859 221.349L213.919 223.889C207.409 228.849 201.499 234.299 196.049 240.429L195.719 240.039C194.799 224.429 196.669 207.369 205.039 193.899L233.099 195.819H233.109Z" fill="#936D49"/>
<path d="M246.299 165.599C242.159 186.999 238.389 208.459 236.169 230.179C233.969 232.879 231.229 235.149 228.779 237.659C224.619 241.929 220.819 245.909 216.319 249.899C211.819 253.889 206.729 257.639 202.409 262.009C200.409 258.189 198.369 254.259 197.639 249.949C201.109 247.109 205.009 244.899 208.519 242.099C216.069 236.059 224.789 227.879 230.189 219.879C233.019 215.679 233.709 214.529 234.309 209.369C235.849 196.049 236.789 182.629 238.389 169.319C238.639 167.269 239.049 167.539 240.839 166.979C242.469 166.459 244.619 165.929 246.299 165.599Z" fill="#E9AC6F"/>
<path d="M136.689 310.229L135.729 286.009C137.989 286.879 137.359 290.399 137.679 292.569C137.939 294.309 138.329 296.589 139.009 298.189C139.189 298.609 139.179 298.989 139.799 298.959C139.889 299.219 139.929 299.509 140.019 299.769L140.759 299.919C140.529 296.099 141.069 291.939 140.759 288.169H142.679C142.759 291.839 142.779 296.149 143.749 299.689C143.919 300.299 144.149 300.459 144.359 300.879C144.419 300.989 144.569 302.309 145.079 301.839C145.509 301.449 145.299 296.259 145.309 295.239C145.329 292.899 145.519 290.309 145.319 287.929L147.719 287.449C148.079 290.529 147.909 294.689 148.979 297.589C149.099 297.919 149.379 298.169 149.399 298.239C149.459 298.409 149.709 298.619 149.799 298.909C150.069 299.679 149.799 301.309 150.829 301.359C150.719 296.159 151.219 290.889 150.109 285.769C151.319 285.489 152.669 285.149 153.689 284.429C154.059 284.169 156.019 282.359 155.619 281.929C154.619 282.409 153.759 282.839 152.689 283.189C149.059 284.369 140.569 285.619 137.319 283.569C134.509 281.789 135.079 279.939 136.669 277.489C137.269 277.089 137.609 278.419 137.979 278.829C140.479 281.579 149.949 281.149 152.509 278.469C152.999 277.959 153.319 277.349 153.469 276.669C157.949 277.219 158.209 284.249 158.489 287.819C158.869 292.699 159.269 299.829 158.979 304.619C158.709 309.069 158.489 309.899 154.229 311.139C149.109 312.629 141.399 313.079 136.669 310.249L136.689 310.229Z" fill="#595A5C"/>
<path d="M133.089 12.589C132.539 12.969 131.679 12.879 131.039 12.839C107.369 11.339 83.5288 11.909 59.8288 12.599C46.2488 12.999 30.0988 13.6889 17.4288 18.8789C1.92876 25.2289 4.95877 46.4289 6.21877 59.9489C7.79877 76.8289 11.2788 91.899 14.9788 108.269C16.7988 116.349 18.3888 124.479 20.1788 132.569C20.4688 133.349 21.4988 132.749 22.1588 132.729C24.9888 132.649 27.7688 132.899 30.5488 132.989C34.9888 133.129 39.4688 133.089 43.8688 133.699C44.0088 133.509 42.6788 128.579 44.4688 130.109C44.7888 130.389 45.0188 131.269 45.0788 131.299C44.4788 131.989 46.3388 134.869 46.0388 135.139C43.4388 135.089 40.8288 135.199 38.2388 135.149C32.5288 135.039 25.5188 135.389 20.0088 134.909C19.4088 134.859 18.3288 134.779 18.0188 134.269C13.9088 116.139 9.63877 97.9689 6.74877 79.5789C4.56877 65.6889 2.51877 50.279 3.34877 36.209C4.01877 24.869 7.35878 21.2189 17.0088 16.2989C25.7488 11.8389 39.8688 12.3189 49.7488 11.6289C77.6988 9.65894 105.259 8.23896 133.099 12.589H133.089Z" fill="#E9AC6F"/>
<path d="M24.9289 160.329C24.7689 159.779 24.3689 159.279 24.4489 158.649C25.6089 158.679 26.779 158.609 27.939 158.639C50.919 159.139 74.129 159.019 97.249 159.359C126.609 159.789 156.179 160.779 185.499 160.829C186.759 160.829 188.209 160.329 189.559 160.559C189.809 160.599 189.689 162.539 189.699 162.959C185.179 163.009 180.659 163.089 176.139 163.189C151.899 163.739 127.489 162.609 103.249 162.229C80.499 161.869 57.5889 162.829 34.8889 161.519C31.5489 161.329 28.2289 160.869 24.9289 160.319V160.329Z" fill="#E9AC6F"/>
<path d="M190.179 111.399C188.229 113.569 186.409 115.979 183.949 117.639L181.789 106.729C182.529 105.669 188.239 99.6993 187.299 98.6893C186.969 98.6493 186.659 98.7993 186.419 99.0093C185.139 100.109 183.419 103.159 182.019 104.559C181.779 104.799 181.709 105.079 181.419 104.689L179.419 94.2993C181.379 92.2293 183.409 90.2393 184.899 87.7793C184.639 87.4893 184.599 87.3093 184.179 87.5293C183.229 88.0193 179.669 92.6793 179.269 92.6893L178.949 92.2893L177.459 83.7093L181.539 77.4693C181.179 77.0593 181.159 76.9693 180.689 77.3393C179.689 78.1293 178.589 80.6693 177.659 81.7393C177.449 81.9893 177.429 82.2393 176.979 82.1393C176.489 78.6093 175.869 75.0793 175.189 71.5793C174.359 67.3493 172.709 62.0493 172.249 57.9693C172.199 57.4893 172.079 56.9993 172.219 56.5093C174.939 55.1993 176.819 52.5493 178.659 50.2393L190.169 111.399H190.179Z" fill="#E9AC6F"/>
<path d="M108.629 3.23924L124.779 5.19926C132.699 6.51926 140.609 7.94928 148.439 9.71928C147.709 10.5593 147.029 11.4692 146.379 12.3692C142.159 11.0692 137.779 10.1893 133.409 9.51927C103.969 4.97927 73.3693 6.59926 43.7493 8.75926C38.2693 9.15926 32.7793 9.79924 27.3193 10.4292L33.9693 7.37925C58.0893 0.969251 83.8293 2.81924 108.619 3.23924H108.629Z" fill="#E9AC6F"/>
<path d="M253.249 151.209C246.659 151.439 242.379 150.329 235.889 153.399C227.939 157.159 221.289 166.719 213.439 169.679C211.699 170.329 206.149 171.559 205.029 169.819C203.159 166.899 209.789 160.589 211.889 158.899C222.709 150.139 239.019 145.399 252.889 146.419C254.989 146.569 261.299 147.589 257.069 150.109C256.119 150.669 254.329 151.169 253.249 151.209Z" fill="#E9AC6F"/>
<path d="M234.549 166.319C224.499 171.669 213.679 177.799 206.499 186.829C192.269 204.699 188.649 236.479 197.269 257.449C199.109 261.929 205.209 270.949 197.569 273.349C194.919 274.179 193.259 273.089 191.149 271.599C193.589 272.729 197.959 272.669 198.339 269.319C198.819 265.169 195.479 259.379 194.199 255.229C185.159 225.879 189.749 193.559 216.009 174.989C222.489 170.409 227.149 168.709 234.549 166.309V166.319Z" fill="#FEFEFE"/>
<path d="M28.7588 369.709L32.7288 369.969C33.4888 369.409 33.3788 366.899 33.6188 365.819C34.1588 363.399 35.2488 361.959 37.3088 360.639C41.5788 357.909 46.8388 357.519 50.1988 361.819C52.5588 364.829 52.5188 367.969 52.6188 371.639C53.1088 372.469 56.4488 371.829 56.3388 373.409C56.3088 373.819 55.2288 375.849 54.9388 376.349C53.5188 378.779 51.3988 381.009 48.6088 381.769C39.9688 384.119 30.3488 378.629 28.7588 369.709ZM41.8888 362.569C39.0388 363.059 37.6688 366.169 37.2688 368.739C36.3888 374.389 42.6288 377.879 46.9788 374.129C49.0788 372.319 50.0088 370.289 49.6088 367.449C49.1588 364.169 44.9788 362.049 41.8888 362.569Z" fill="#FEFEFE"/>
<path d="M153.72 313.339C152.69 314.169 151.17 314.599 149.89 314.909C146.03 315.829 141.35 316.629 137.59 315.209C136.64 314.849 135.33 313.869 134.41 313.809C131.74 313.629 126.52 314.289 123.62 314.549C108.2 315.939 93.5095 319.199 78.9395 324.319C67.6795 328.279 53.3395 335.559 44.5795 343.689C43.8395 344.379 42.7795 345.279 42.4195 346.209C41.6295 346.169 40.7795 346.339 40.0195 346.089C45.8595 338.389 54.5596 332.579 63.0396 328.099C82.5996 317.759 108.83 313.409 130.8 311.679C131.62 311.619 133.76 311.359 134.38 311.449C135 311.539 137.25 312.899 138.35 313.249C143.28 314.789 148.73 314.579 153.7 313.369L153.72 313.339Z" fill="#FEFEFE"/>
<path d="M264.729 357.989C266.569 368.129 256.739 374.209 247.669 370.369C246.289 369.789 242.869 366.899 242.729 365.469C242.669 364.809 244.099 364.249 244.149 364.019C244.239 363.609 243.879 361.999 243.899 361.189C243.989 357.699 245.069 354.629 247.849 352.429C251.649 349.429 257.389 350.809 259.929 354.759C260.349 355.419 261.049 357.399 261.509 357.729C262.239 358.259 263.819 357.769 264.729 357.979V357.989ZM251.269 354.169C248.149 354.689 246.549 358.319 248.459 360.949C251.749 365.489 258.719 362.699 257.519 357.399C257.019 355.179 253.309 353.829 251.269 354.169Z" fill="#FEFEFE"/>
<path d="M253.249 151.209C254.319 151.169 256.119 150.669 257.069 150.109C261.299 147.589 254.989 146.569 252.889 146.419C239.019 145.399 222.709 150.139 211.889 158.899C209.789 160.599 203.16 166.899 205.03 169.819C206.15 171.559 211.7 170.339 213.44 169.679C209.38 172.639 200.1 172.179 202.53 165.129C205.1 157.669 219.039 148.749 226.269 146.169C233.829 143.469 243.96 142.069 251.93 143.059C254.48 143.379 260.28 144.679 260.67 147.759C261.17 151.699 255.859 151.449 253.259 151.209H253.249Z" fill="#FEFEFE"/>
<path d="M246.299 165.599C246.689 165.519 248.069 164.969 247.969 165.699C245.769 182.059 242.569 198.299 240.309 214.639C239.729 219.449 239.839 225.299 238.559 229.919C237.579 233.459 232.059 237.819 229.389 240.419C223.179 246.469 216.559 252.829 209.719 258.169C208.989 258.739 202.999 263.219 202.649 262.969C202.559 262.689 202.529 262.249 202.409 262.009C206.729 257.639 211.729 253.979 216.319 249.899C220.909 245.819 224.619 241.929 228.779 237.659C231.229 235.149 233.959 232.879 236.169 230.179C238.379 208.459 242.159 186.999 246.299 165.599Z" fill="#FEFEFE"/>
<path d="M31.6391 366.829L26.8291 365.949C27.3091 353.689 41.1791 348.329 51.2291 354.069C56.7991 357.249 58.7991 361.839 59.2391 368.119L54.4291 368.989C54.8191 357.959 44.1691 352.649 35.4991 359.539C33.0191 361.509 31.8191 363.659 31.6391 366.829Z" fill="#595A5C"/>
<path d="M196.889 247.629L196.289 242.839L205.879 232.999L205.789 235.479C205.929 235.779 206.139 236.029 206.479 235.759C207.069 235.309 207.369 232.089 207.909 231.189C208.159 230.779 212.069 227.309 212.359 227.239C213.249 227.029 213.219 231.279 214.749 231.069C215.909 230.719 213.549 226.769 214.379 225.659C214.489 225.519 217.119 223.579 217.289 223.509C217.699 223.349 218.069 223.679 218.479 223.639C218.309 222.679 218.889 222.419 219.599 221.989L221.139 223.499L222.079 223.879L220.749 221.239L231.429 214.529C231.499 214.929 231.249 215.179 231.049 215.469C229.339 218.049 225.799 221.999 223.639 224.369C216.209 232.489 206.529 241.109 197.499 247.389C197.299 247.529 197.259 247.719 196.899 247.629H196.889Z" fill="#735130"/>
<path d="M158.999 311.189C159.199 311.039 159.369 310.499 159.729 310.339C160.239 310.109 165.039 311.029 166.109 311.159C187.949 313.629 213.469 314.949 233.829 323.309C242.199 326.749 252.249 331.819 254.229 341.529C253.749 341.829 253.089 341.429 252.549 341.409C252.619 337.669 249.359 334.509 246.669 332.289C246.459 332.119 246.149 332.119 246.069 332.059C245.549 331.649 245.319 331.349 244.629 330.859C233.629 323.139 215.599 319.699 202.419 317.299C190.879 315.199 179.169 314.199 167.549 312.589C164.699 312.199 161.819 311.739 158.999 311.189Z" fill="#FEFEFE"/>
<path d="M31.6395 366.829C31.6195 367.229 31.6595 367.629 31.6395 368.029L25.5095 367.089C24.1395 360.329 29.9695 352.149 36.0695 349.799C44.4195 346.579 56.2795 350.399 59.6995 359.029C61.2095 362.829 61.7795 366.869 60.8795 370.889L54.5695 370.629C53.7795 370.369 54.3995 369.449 54.4095 368.989L59.2195 368.119C58.7795 361.839 56.7795 357.259 51.2095 354.069C41.1595 348.329 27.2895 353.689 26.8095 365.949L31.6195 366.829H31.6395Z" fill="#FEFEFE"/>
<path d="M147.959 146.179C148.029 146.349 148.339 146.619 148.479 146.969C150.039 150.649 151.359 154.429 152.749 158.169C148.269 157.969 143.809 157.979 139.319 157.929C138.469 153.389 135.869 149.449 133.319 145.699L147.949 146.179H147.959Z" fill="#936D49"/>
<path d="M70.2587 145.459C72.0787 149.179 73.7287 153.039 75.0587 156.969C70.6287 156.429 66.0987 156.879 61.6287 156.729C60.2087 152.689 57.7587 149.009 55.3887 145.459H70.2587Z" fill="#936D49"/>
<path d="M266.439 354.359C266.439 354.359 266.419 354.759 266.189 354.939C265.689 355.309 263.349 356.939 262.859 356.509C261.649 352.469 259.009 349.279 254.569 348.849C245.829 347.999 240.4 355.309 243.18 363.479C242.91 363.779 237.599 364.119 236.939 363.959C237.399 358.499 237.789 352.549 242.339 348.859C248.109 344.179 257.089 345.029 262.719 349.569L266.439 354.369V354.359Z" fill="#595A5C"/>
<path d="M87.7592 145.459C88.9292 148.479 91.1191 153.459 91.7791 156.429C91.8391 156.689 91.8591 156.949 91.8391 157.209C87.8491 156.939 83.8492 157.079 79.8492 156.969C77.8692 153.049 76.1591 148.899 73.3691 145.459H87.7592Z" fill="#936D49"/>
<path d="M158.999 375.939C159.009 375.619 158.989 375.299 158.999 374.979C160.979 375.509 161.189 375.859 161.569 377.799C162.369 381.779 162.839 392.969 161.959 396.769C161.639 398.139 161.279 398.789 159.949 399.319C156.569 400.659 148.109 401.169 144.649 400.239C142.019 399.529 142.339 398.389 141.989 395.939C141.369 391.519 140.259 384.399 140.259 380.139C140.259 378.949 140.889 375.009 142.079 374.509C142.649 374.409 142.379 374.769 142.429 375.109C142.609 376.429 142.719 377.739 142.919 379.059C142.189 378.929 142.459 379.429 142.439 379.889C142.299 383.489 142.959 388.909 143.429 392.579C143.669 394.469 144.259 396.319 144.379 398.229L147.479 398.489L147.719 386.499C148.129 386.589 148.499 386.679 148.919 386.739C149.149 388.439 148.499 397.959 149.219 398.679L151.559 398.979L151.799 386.989C152.199 386.989 152.599 386.999 152.999 386.989L153.479 398.979C155.799 398.509 158.359 399.019 160.449 397.619C160.629 397.329 160.889 394.249 160.919 393.589C161.139 389.079 160.979 383.469 160.669 378.949C160.599 377.949 160.569 375.049 158.989 375.949L158.999 375.939Z" fill="#FEFEFE"/>
<path d="M129.739 145.459C131.379 149.479 133.119 153.489 134.299 157.689C130.549 157.599 126.769 157.819 123.029 157.689C122.439 153.269 119.929 149.119 117.509 145.459H129.739Z" fill="#936D49"/>
<path d="M243.419 209.489C244.259 208.589 246.609 207.339 247.819 207.409C249.649 207.519 250.339 210.859 250.549 212.319C250.719 213.519 250.929 216.089 250.829 217.259C250.349 222.799 244.659 226.589 240.789 229.879C241.179 226.649 241.659 223.409 241.989 220.169C242.319 216.929 242.259 213.649 242.719 210.589C242.829 209.869 243.059 209.889 243.429 209.499C243.399 210.809 243.479 212.279 243.819 213.539C243.909 213.869 243.979 214.649 244.499 214.529C245.049 214.409 244.649 211.429 244.559 210.879C244.449 210.159 244.369 209.299 243.419 209.499V209.489Z" fill="#735130"/>
<path d="M164.029 146.419C165.619 150.389 167.219 154.349 168.589 158.409C164.989 158.459 161.399 158.239 157.799 158.169L152.759 146.179L164.029 146.419Z" fill="#936D49"/>
<path d="M178.419 146.179C180.189 150.379 181.969 154.579 183.459 158.889C180.129 158.369 176.729 158.869 173.389 158.649C173.159 157.179 172.379 155.549 171.749 154.169C170.509 151.459 169.159 148.649 167.149 146.419L178.419 146.179Z" fill="#936D49"/>
<path d="M135.969 321.019C138.659 320.109 141.899 322.349 143.499 324.399C149.849 332.529 150.239 358.379 151.079 369.109C151.429 373.629 151.999 378.139 152.279 382.659L157.079 382.899C156.849 383.879 156.559 384.819 155.279 384.819H151.079C150.569 377.659 149.959 370.489 149.159 363.359C148.029 353.199 146.949 340.669 144.729 330.859C143.389 324.969 142.309 322.139 135.969 321.029V321.019Z" fill="#FEFEFE"/>
<path d="M176.259 40.1691C175.219 40.4091 169.729 45.5791 169.309 45.2091L165.459 31.8991C165.509 31.3691 167.679 30.1791 168.239 29.6291C169.519 28.3591 170.429 26.3591 171.709 25.0591C172.479 27.1391 173.279 29.2291 173.929 31.3491C174.329 32.6391 175.949 39.8391 176.259 40.1691Z" fill="#E9AC6F"/>
<path d="M50.829 145.459C52.879 149.119 54.989 152.819 56.579 156.729C53.239 156.319 49.8691 156.609 46.5091 156.489C45.1991 152.429 42.4991 148.929 39.7891 145.699L50.8191 145.459H50.829Z" fill="#936D49"/>
<path d="M113.909 145.459C115.359 149.479 117.019 153.429 118.469 157.449C115.519 157.409 112.549 157.509 109.599 157.449L107.569 152.399L103.359 145.459H113.909Z" fill="#936D49"/>
<path d="M158.999 375.939C160.579 375.039 160.609 377.939 160.679 378.939C160.989 383.459 161.149 389.069 160.929 393.579C160.899 394.239 160.639 397.319 160.459 397.609C158.369 399.009 155.809 398.499 153.489 398.969L153.009 386.979C154.199 386.949 156.989 386.799 157.889 386.229C160.019 384.859 158.909 378.359 158.999 375.949V375.939Z" fill="#595A5C"/>
<path d="M35.4792 145.459C37.1992 148.269 40.1492 152.639 41.3492 155.539C41.4492 155.789 41.5292 155.969 41.4792 156.249C38.6092 156.169 35.7092 156.359 32.8492 156.249C31.3492 152.209 29.2391 148.229 26.3691 144.979C29.3891 145.349 32.4292 145.549 35.4792 145.459Z" fill="#936D49"/>
<path d="M99.2791 145.459C99.9591 146.819 104.909 156.869 104.319 157.449C101.859 157.069 99.3691 157.259 96.8891 157.209C95.5291 153.089 93.6291 149.159 91.3691 145.459H99.2791Z" fill="#936D49"/>
<path d="M236.939 363.949C236.629 363.879 236.489 363.659 236.459 363.349C236.159 359.629 235.879 356.329 237.449 352.829C241.449 343.919 251.279 341.169 259.879 345.439C262.529 346.759 266.179 350.549 266.989 353.439C267.409 354.939 266.819 354.109 266.439 354.349L262.719 349.549C257.099 344.999 248.109 344.149 242.339 348.839C237.789 352.529 237.389 358.479 236.939 363.939V363.949Z" fill="#FEFEFE"/>
<path d="M164.029 146.419L152.759 146.179L157.799 158.169C157.129 158.159 155.389 158.359 155.039 157.929L149.169 143.299H162.719C163.469 144.139 163.639 145.409 164.039 146.419H164.029Z" fill="#E9AC6F"/>
<path d="M197.369 140.659L190.409 113.319L192.329 110.439C194.359 119.629 196.549 128.789 199.489 137.719C199.579 138.609 197.889 139.949 197.369 140.649V140.659Z" fill="#FEFEFE"/>
<path d="M139.329 157.929C138.459 157.919 137.579 157.969 136.719 157.909L131.419 143.299H147.009C147.419 144.149 147.629 145.369 147.969 146.179L133.339 145.699C135.889 149.439 138.489 153.389 139.339 157.929H139.329Z" fill="#E9AC6F"/>
<path d="M170.509 23.3789C168.919 25.3589 167.199 27.9089 165.119 29.3789C164.919 29.5189 164.879 29.7089 164.519 29.6189C163.539 26.6189 162.049 23.8089 160.429 21.1089C162.109 19.9089 163.479 18.2689 164.749 16.6689C166.999 18.5789 168.899 20.9189 170.509 23.3889V23.3789Z" fill="#E9AC6F"/>
<path d="M173.389 158.649C172.909 158.619 170.799 158.379 170.629 158.169L164.759 143.299H177.469C177.699 144.199 178.069 145.339 178.429 146.179L167.159 146.419C169.169 148.649 170.519 151.459 171.759 154.169C172.389 155.549 173.159 157.179 173.399 158.649H173.389Z" fill="#E9AC6F"/>
<path d="M108.629 3.23926C122.659 3.47926 136.819 4.68927 150.599 7.31927C150.779 7.56927 148.659 9.4593 148.439 9.7193C140.609 7.9493 132.699 6.51928 124.779 5.19928L108.629 3.23926Z" fill="#FEFEFE"/>
<path d="M70.2588 145.459H55.3888C57.7588 149.009 60.1988 152.699 61.6288 156.729C60.9488 156.709 59.5288 156.889 59.0488 156.429L52.5088 143.299H69.1788C69.8088 143.869 69.9288 144.779 70.2588 145.459Z" fill="#E9AC6F"/>
<path d="M136.689 310.229C134.589 308.969 135.239 307.099 135.009 305.079C134.179 297.919 133.769 290.999 134.089 283.759L134.539 283.489C135.789 284.879 137.369 286.189 139.329 286.259C139.229 288.769 138.979 291.289 139.089 293.809C139.159 295.339 139.339 297.539 139.819 298.959C139.199 298.989 139.209 298.619 139.029 298.189C138.349 296.579 137.949 294.309 137.699 292.569C137.379 290.399 138.009 286.879 135.749 286.009L136.709 310.229H136.689Z" fill="#FEFEFE"/>
<path d="M171.709 25.0589L173.149 22.4189C176.489 30.1189 178.619 38.2689 180.129 46.5189L180.059 46.8289C179.419 47.1889 178.699 47.7989 178.189 48.3189L176.509 41.5989C177.679 40.1689 176.629 40.5389 176.269 40.1589C175.959 39.8289 174.329 32.6289 173.939 31.3389C173.279 29.2089 172.489 27.1289 171.719 25.0489L171.709 25.0589Z" fill="#FEFEFE"/>
<path d="M205.049 193.909C205.479 193.219 205.959 191.689 206.849 191.509C213.889 191.729 220.729 192.429 227.639 193.739C229.459 194.079 231.289 194.449 233.069 194.909L233.099 195.829L205.039 193.909H205.049Z" fill="#EDC995"/>
<path d="M79.849 156.969C79.149 156.949 77.499 157.159 77.079 156.739L71.209 143.299H87.039C87.309 143.989 87.499 144.789 87.759 145.459H73.369C76.149 148.899 77.869 153.049 79.849 156.969Z" fill="#E9AC6F"/>
<path d="M142.929 379.059C143.099 380.199 143.189 381.619 143.479 382.709C143.829 384.059 145.409 385.929 146.769 386.379C147.139 386.499 147.449 386.429 147.729 386.489L147.489 398.479L144.389 398.219C144.269 396.309 143.679 394.459 143.439 392.569C142.969 388.899 142.309 383.479 142.449 379.879C142.469 379.419 142.199 378.919 142.929 379.049V379.059Z" fill="#595A5C"/>
<path d="M178.179 48.3193C176.379 50.1293 174.129 52.9493 172.189 54.4393C171.949 54.6193 171.889 54.9093 171.469 54.7993L170.069 47.2993C170.159 46.9893 173.279 44.9293 173.869 44.3693C174.529 43.7493 175.949 42.2794 176.509 41.6094L178.189 48.3293L178.179 48.3193Z" fill="#E9AC6F"/>
<path d="M129.739 145.459H117.509C119.919 149.129 122.439 153.269 123.029 157.689C122.529 157.669 122.009 157.759 121.509 157.649L115.109 143.299H128.899C129.509 143.839 129.489 144.849 129.739 145.459Z" fill="#E9AC6F"/>
<path d="M113.909 145.459H103.359L107.569 152.399L109.599 157.449C108.919 157.439 107.199 157.639 106.839 157.209L100.729 143.299H113.079C113.629 143.879 113.669 144.759 113.919 145.459H113.909Z" fill="#E9AC6F"/>
<path d="M218.949 312.139C219.089 313.639 218.729 315.129 218.079 316.479L214.389 315.739C218.239 308.539 208.049 306.969 208.629 314.539L204.779 313.929C204.449 312.079 208.299 308.309 209.909 307.539C212.569 306.269 215.419 307.269 216.739 309.899C217.329 311.069 217.139 313.029 218.939 312.139H218.949Z" fill="#FEFEFE"/>
<path d="M188.019 159.129C187.199 159.059 186.319 158.729 185.399 158.869L179.149 143.659L179.499 143.309L186.419 143.059C187.229 143.839 187.069 145.109 187.299 145.949L182.499 146.309C183.399 147.769 184.229 149.269 184.939 150.829C186.129 153.429 187.349 156.389 188.019 159.149V159.129Z" fill="#E9AC6F"/>
<path d="M50.8287 145.459L39.7987 145.699C42.5087 148.929 45.1987 152.429 46.5187 156.489C45.8287 156.469 44.7187 156.679 44.2387 156.249L36.9287 143.299H49.7587C50.3987 143.829 50.4987 144.849 50.8387 145.459H50.8287Z" fill="#E9AC6F"/>
<path d="M92.7994 315.739C92.1894 315.539 91.2094 316.259 90.7894 316.179C90.4794 316.119 89.3894 314.789 88.9394 314.449C84.3694 311.009 78.4694 311.139 76.0094 316.839L73.1094 316.309C75.4094 307.759 88.8794 309.149 92.7894 315.739H92.7994Z" fill="#595A5C"/>
<path d="M99.279 145.459H91.369C93.629 149.159 95.529 153.089 96.889 157.209C96.369 157.209 94.429 157.349 94.219 157.069L89.209 143.299H98.199C98.829 143.859 98.949 144.789 99.279 145.459Z" fill="#E9AC6F"/>
<path d="M159.239 401.839C156.929 406.779 150.859 409.729 146.649 404.959C146.419 404.699 145.419 403.359 145.339 403.149C145.179 402.739 145.439 402.829 145.689 402.789C147.839 402.499 150.619 402.929 152.889 402.789C155.019 402.659 157.129 402.079 159.249 401.829L159.239 401.839Z" fill="#FEFEFE"/>
<path d="M35.4792 145.459C32.4292 145.549 29.3892 145.359 26.3692 144.979C29.2292 148.229 31.3492 152.209 32.8492 156.249C32.1492 156.219 30.9092 156.429 30.4392 155.839L24.6992 143.299H34.1692C34.8792 143.829 35.0792 144.789 35.4892 145.459H35.4792Z" fill="#E9AC6F"/>
<path d="M152.519 274.969C152.579 276.089 152.229 277.269 151.309 277.949C149.119 279.579 140.429 279.939 138.739 277.599C138.479 277.249 137.699 275.119 138.479 275.209C139.379 275.319 140.429 275.759 141.399 275.889C145.169 276.389 148.859 275.929 152.519 274.959V274.969Z" fill="#595A5C"/>
<path d="M187.299 145.939C187.339 146.069 187.589 146.309 187.669 146.639C188.619 150.669 189.079 155.019 189.459 159.129C188.989 159.099 188.489 159.169 188.019 159.129C187.359 156.379 186.129 153.419 184.939 150.809C184.229 149.249 183.399 147.749 182.499 146.289L187.299 145.929V145.939Z" fill="#936D49"/>
<path d="M89.6788 316.219L85.0388 317.669C83.6588 315.649 81.6788 315.839 79.9588 317.409C79.1788 318.119 78.6388 319.469 77.9088 319.919C77.5988 320.109 75.1688 320.899 75.0488 320.779V318.379C78.1488 318.899 77.2488 315.949 79.7188 314.539C83.3788 312.439 86.3888 314.599 89.6788 316.229V316.219Z" fill="#FEFEFE"/>
<path d="M151.799 386.969L151.559 398.959L149.219 398.659C148.499 397.939 149.149 388.419 148.919 386.719C149.869 386.849 150.839 386.939 151.799 386.959V386.969Z" fill="#595A5C"/>
<path d="M170.509 23.3789C168.909 20.9189 167.009 18.5789 164.749 16.6589C165.429 15.8089 165.999 14.5989 166.799 13.7789C167.459 13.6089 170.619 17.8289 171.089 18.5989C171.309 18.9589 172.369 20.7189 172.399 20.9089C172.499 21.5889 170.969 22.7989 170.509 23.3689V23.3789Z" fill="#FEFEFE"/>
<path d="M163.309 15.4691C161.959 16.8691 160.629 18.3091 159.349 19.7791C157.889 18.3191 156.349 16.7891 154.429 15.9391C155.509 14.8391 156.759 13.9891 157.789 12.8291C159.659 13.6191 161.609 14.3191 163.309 15.4691Z" fill="#E9AC6F"/>
<path d="M219.619 310.179C219.559 310.279 218.589 310.789 218.479 310.709C215.989 300.719 204.109 305.579 203.609 313.829L201.209 313.589C203.659 307.869 207.839 302.669 214.799 304.679C216.379 305.139 220.619 308.479 219.629 310.179H219.619Z" fill="#595A5C"/>
<path d="M199.76 313.089C198.85 313.139 197.879 313.139 196.999 312.869C196.769 312.799 196.529 313.009 196.669 312.519C196.929 311.619 197.649 309.739 198.049 308.859C198.419 308.039 200.959 304.189 201.769 304.259C202.239 304.489 203.929 305.449 203.829 305.989C202.149 308.009 200.29 310.509 199.76 313.089Z" fill="#595A5C"/>
<path d="M23.0093 144.499C24.6693 148.139 26.0993 151.909 28.0393 155.419C28.1093 155.899 28.0193 155.729 27.6893 155.769C26.8793 155.879 25.2993 155.829 24.4493 155.769L21.5893 145.079L21.5693 144.499H23.0093Z" fill="#936D49"/>
<path d="M252.529 341.399C251.659 341.369 249.199 341.639 248.749 340.859C248.529 340.479 248.509 338.899 248.339 338.269C247.759 336.119 246.649 334.179 246.049 332.039C246.129 332.099 246.439 332.099 246.649 332.269C249.339 334.489 252.599 337.649 252.529 341.389V341.399Z" fill="#595A5C"/>
<path d="M205.289 156.489C202.249 157.509 201.359 152.999 200.489 150.969C200.789 150.439 201.999 147.259 202.169 147.129C202.319 147.109 202.449 147.249 202.519 147.369C203.309 148.619 204.379 153.229 204.969 154.989C205.219 155.729 205.699 155.699 205.279 156.479L205.289 156.489Z" fill="#FEFEFE"/>
<path d="M163.309 15.469C161.609 14.319 159.669 13.6189 157.789 12.8289C158.459 12.0589 159.899 10.6389 159.229 9.70895C159.569 9.42895 165.189 12.099 165.689 12.969C165.789 13.419 163.669 15.0789 163.299 15.4589L163.309 15.469Z" fill="#FEFEFE"/>
<path d="M64.2591 123.149L68.3391 135.379C66.7491 135.359 65.1391 135.419 63.5391 135.379L65.9391 135.139C65.6091 132.189 63.0691 126.019 63.7791 123.309C63.8491 123.039 64.239 123.179 64.269 123.149H64.2591Z" fill="#E9AC6F"/>
<path d="M150.839 10.1891C151.159 9.75912 151.649 8.27913 152.019 7.94913C152.779 7.25913 157.799 9.20916 158.999 9.47916C159.199 9.73916 156.419 11.8491 156.119 12.1191L150.839 10.1991V10.1891Z" fill="#FEFEFE"/>
<path d="M156.119 12.1093C155.139 12.9993 154.159 13.9192 153.239 14.8792L148.209 13.0692C148.039 12.4492 148.579 12.5992 148.929 12.2492C149.479 11.7092 150.409 10.7792 150.839 10.1992L156.119 12.1192V12.1093Z" fill="#E9AC6F"/>
<path d="M97.1193 314.779L94.5293 315.219C93.5193 313.669 91.8493 312.189 90.2493 311.229C89.8593 310.989 88.5392 310.809 88.7392 310.349C88.8692 310.049 89.9592 309.129 90.3292 309.089C92.3092 308.879 95.9493 313.309 97.1293 314.779H97.1193Z" fill="#595A5C"/>
<path d="M140.769 288.159C140.749 287.909 140.289 287.239 140.529 286.719H144.129C143.879 291.439 143.649 296.189 144.369 300.869C144.159 300.449 143.929 300.289 143.759 299.679C142.789 296.129 142.769 291.829 142.689 288.159H140.769Z" fill="#FEFEFE"/>
<path d="M145.329 287.919C145.309 287.669 144.849 286.999 145.089 286.479L149.409 285.999V298.229C149.389 298.169 149.109 297.909 148.989 297.579C147.919 294.679 148.089 290.519 147.729 287.439L145.329 287.919Z" fill="#FEFEFE"/>
<path d="M24.4487 155.769C24.1887 155.749 23.9087 155.819 23.6487 155.739L23.2987 155.359C22.5587 151.639 20.5987 147.349 20.1487 143.639C20.0587 142.929 21.8887 143.439 22.3787 143.279C22.5587 143.319 22.8987 144.229 23.0187 144.489H21.5787L21.5987 145.069L24.4587 155.759L24.4487 155.769Z" fill="#E9AC6F"/>
<path d="M141.729 125.069L145.549 135.519L145.569 136.099C144.929 136.109 144.289 136.089 143.649 136.099C143.279 132.519 141.459 128.659 141.729 125.069Z" fill="#E9AC6F"/>
<path d="M225.669 216.209C225.409 216.349 223.129 218.019 223.029 217.889C223.329 216.319 223.119 214.659 223.269 213.089C223.329 212.439 223.899 209.059 224.959 209.839C225.529 210.259 225.639 215.209 225.669 216.209Z" fill="#735130"/>
<path d="M247.499 205.179C247.219 205.219 245.839 205.769 245.499 205.939L243.179 207.809C243.459 205.239 243.959 202.689 244.379 200.139C245.629 201.659 246.649 203.399 247.499 205.179Z" fill="#936D49"/>
<path d="M46.749 133.949L52.989 134.429L52.269 129.149C53.349 128.789 53.709 130.179 53.949 131.069C54.009 131.309 53.909 131.729 54.009 132.079C54.279 133.109 54.679 134.109 54.909 135.139C53.689 134.959 47.609 135.489 47.109 134.899C46.979 134.739 46.869 134.219 46.749 133.939V133.949Z" fill="#E9AC6F"/>
<path d="M199.529 148.099L198.329 143.539C198.529 143.239 199.959 140.349 200.129 140.419L201.649 144.679C201.729 145.399 199.989 147.349 199.529 148.089V148.099Z" fill="#FEFEFE"/>
<path d="M212.239 219.809C211.879 221.179 215.239 222.109 215.359 222.569C215.189 223.159 214.389 223.529 213.919 223.889L209.859 221.349C207.249 218.539 210.479 219.419 212.239 219.809Z" fill="#735130"/>
<path d="M213.139 311.479C213.939 312.279 213.179 314.349 212.679 315.219L209.629 314.749C208.849 312.959 211.609 309.959 213.139 311.479Z" fill="#595A5C"/>
<path d="M60.1794 131.069C58.8994 131.649 61.3894 134.919 60.8994 135.389L55.9694 135.159C55.8494 135.019 55.9094 134.779 55.8594 134.679L59.4594 134.919C58.9594 133.659 58.6994 132.269 58.5394 130.929C58.4794 130.479 58.1494 128.819 58.6294 128.689C59.6994 128.399 59.9294 130.559 60.1894 131.089L60.1794 131.069Z" fill="#E9AC6F"/>
<path d="M134.529 128.669C135.019 130.759 137.109 133.779 137.409 135.749C137.509 136.369 136.199 136.099 135.729 136.109L134.039 128.809C134.059 128.599 134.509 128.699 134.529 128.669Z" fill="#E9AC6F"/>
<path d="M126.86 130.349C127.25 131.939 128.7 134.169 128.78 135.749C128.82 136.599 127.62 135.889 127.34 135.869C127.2 134.079 126.18 132.069 126.86 130.349Z" fill="#E9AC6F"/>
<path d="M155.399 131.309L157.079 136.349C156.429 136.579 155.619 136.129 155.159 136.109C155.099 134.439 155.139 132.949 155.399 131.309Z" fill="#E9AC6F"/>
<path d="M118.699 131.549L119.659 135.869H117.979C118.119 134.899 117.979 132.069 118.699 131.549Z" fill="#E9AC6F"/>
<path d="M83.9296 317.659C83.9996 318.289 83.9296 318.039 83.5796 318.139C82.6796 318.409 81.7396 318.689 80.8096 318.849C81.5596 317.669 82.5596 317.049 83.9296 317.659Z" fill="#595A5C"/>
<path d="M62.0992 134.909H63.0592V135.389C62.7492 135.369 62.4292 135.459 62.1292 135.359C62.0192 135.269 62.1292 134.989 62.0992 134.909Z" fill="#E9AC6F"/>
<path d="M178.659 50.2392C178.779 50.0892 180.099 47.5192 180.579 48.0792C184.589 68.7292 187.389 89.6192 192.329 110.079C191.469 109.729 190.789 110.719 190.179 111.399L178.669 50.2392H178.659Z" fill="#FEFEFE"/>
<path d="M244.619 330.849L246.899 339.719L242.119 336.579C241.659 335.679 239.239 330.099 238.739 329.889C238.639 329.849 238.139 329.789 238.139 330.009L239.819 335.039C239.819 335.309 239.299 335.119 239.089 335.049C238.689 334.909 234.929 332.839 234.769 332.649C234.319 331.829 231.709 326.049 231.379 325.849C231.149 325.709 230.389 325.599 230.459 326.159C230.669 327.779 232.009 329.709 232.359 331.219C232.439 331.549 232.359 331.659 232.019 331.559C231.639 331.439 227.769 329.679 227.589 329.509C226.699 328.679 224.899 324.009 224.089 323.659C223.979 323.609 223.499 323.559 223.499 323.769L225.059 328.679C223.749 327.979 221.009 327.719 219.909 326.879C219.009 326.199 217.109 321.179 216.429 321.009L215.829 321.599C215.819 322.539 217.459 324.749 217.739 325.699C217.849 326.079 217.709 326.079 217.379 326.059C207.459 323.149 197.249 320.939 186.919 320.059C180.869 319.549 173.549 319.229 167.499 319.579C165.229 319.709 158.569 320.569 156.879 321.889C155.929 322.629 155.429 325.969 155.429 327.129C155.429 344.029 156.839 361.019 157.049 377.989C157.069 379.849 157.539 380.849 157.049 382.899L152.249 382.659C151.979 378.139 151.409 373.619 151.049 369.109C150.209 358.379 149.829 332.529 143.469 324.399C141.869 322.349 138.629 320.109 135.939 321.019C130.319 320.029 123.949 320.459 118.319 321.249L110.989 317.659L111.489 318.479L116.029 321.489L110.379 322.699L103.559 319.329C102.689 320.249 107.809 322.479 108.119 323.159L101.289 324.859L94.689 321.969L95.039 322.939L99.479 325.569C97.989 325.649 93.799 327.779 92.679 327.669C91.839 327.589 87.679 324.979 87.129 325.089L86.769 325.689L91.089 328.089C90.899 328.339 90.639 328.449 90.369 328.569C89.679 328.899 85.4089 330.579 84.9489 330.599C83.7489 330.639 78.799 327.809 78.069 327.999C77.409 328.169 77.189 328.939 77.909 329.279L82.939 331.559C81.329 331.799 78.729 333.879 77.289 333.949C76.239 333.999 71.269 331.479 70.719 332.049L70.869 332.789L75.759 334.929L70.309 337.769L62.809 335.649L62.839 336.579L68.559 338.649C67.199 339.149 63.8089 341.729 62.6689 341.889C61.5289 342.049 57.879 339.969 57.039 340.559C56.779 340.739 56.7489 340.969 56.8289 341.269L61.119 343.089C58.339 344.539 56.049 346.729 53.759 348.819C50.019 347.449 46.4289 346.429 42.4189 346.209C42.7689 345.269 43.8289 344.379 44.5789 343.689C53.3389 335.559 67.669 328.279 78.939 324.319C93.509 319.199 108.199 315.939 123.619 314.549C126.519 314.289 131.729 313.639 134.409 313.809C135.329 313.869 136.639 314.849 137.589 315.209C141.349 316.629 146.029 315.829 149.889 314.909C151.169 314.609 152.689 314.169 153.719 313.339C155.639 312.869 157.389 312.379 158.999 311.179C161.819 311.729 164.699 312.189 167.549 312.579C179.169 314.179 190.879 315.189 202.419 317.289C215.599 319.689 233.629 323.119 244.629 330.849H244.619Z" fill="#595A5C"/>
<path d="M20.3791 159.369L21.0391 159.779C22.9491 165.229 24.3791 171.339 26.8091 176.559C30.6891 184.889 33.2891 190.089 34.4991 199.569C36.1791 212.739 32.2191 225.839 33.0891 239.119C33.3091 242.429 34.3391 245.709 35.3791 248.819C31.2291 246.039 28.4491 240.299 27.0391 235.579C23.4291 223.539 26.9191 211.999 26.1491 200.009C25.3791 188.019 15.2991 181.709 17.3291 168.429C17.5491 166.999 18.789 161.449 19.449 160.479C19.719 160.079 20.3791 159.969 20.3791 159.369Z" fill="#E9AC6F"/>
<path d="M247.499 205.179C246.659 203.399 245.629 201.669 244.379 200.139C244.429 199.859 244.239 199.329 244.499 199.179C246.579 201.049 248.929 202.849 249.779 205.649C249.149 205.319 248.199 205.089 247.499 205.179Z" fill="#EDC995"/>
<path d="M41.8894 362.569C44.9794 362.049 49.1494 364.169 49.6094 367.449C49.9994 370.289 49.0794 372.309 46.9794 374.129C42.6294 377.879 36.3894 374.389 37.2694 368.739C37.6694 366.169 39.0394 363.059 41.8894 362.569ZM42.3894 364.239C40.0194 364.479 39.3394 366.009 39.1094 368.169C38.9294 369.859 39.0094 371.659 40.3994 372.829C44.8594 376.579 50.7494 368.539 46.0194 365.289C45.1494 364.689 43.4494 364.139 42.3894 364.249V364.239Z" fill="#040303"/>
<path d="M251.269 354.169C253.309 353.829 257.019 355.179 257.519 357.399C258.709 362.689 251.749 365.479 248.459 360.949C246.549 358.319 248.149 354.699 251.269 354.169ZM252.229 355.609C251.099 355.779 249.639 356.619 249.419 357.839C248.899 360.799 253.179 362.549 255.179 360.469C257.449 358.109 255.269 355.139 252.229 355.599V355.609Z" fill="#040303"/>
<path d="M42.3893 364.239C43.4593 364.129 45.1493 364.679 46.0193 365.279C50.7393 368.529 44.8593 376.569 40.3993 372.819C39.0093 371.659 38.9293 369.849 39.1093 368.159C39.3393 365.999 40.0193 364.469 42.3893 364.229V364.239Z" fill="#595A5C"/>
<path d="M252.229 355.609C255.269 355.139 257.449 358.119 255.179 360.479C253.179 362.559 248.899 360.809 249.419 357.849C249.629 356.629 251.099 355.789 252.229 355.619V355.609Z" fill="#595A5C"/>
</svg>
