<svg width="240" height="179" viewBox="0 0 240 179" fill="none" xmlns="http://www.w3.org/2000/svg">
<path d="M238.213 0.354095C239.793 0.704095 239.333 2.3341 239.823 3.4241C239.823 3.4241 240.073 148.654 239.593 152.594C239.463 153.674 238.883 153.994 237.963 154.324C205.533 161.584 173.393 170.064 140.883 176.954C140.203 178.124 127.413 178.794 126.823 176.774L127.013 153.664C125.293 153.614 123.563 153.734 121.843 153.674C107.383 153.154 6.59328 154.494 0.883278 153.914C-0.136722 153.814 -0.0367387 49.2941 0.0532613 3.2941C-0.0467387 1.8841 0.853264 1.47409 1.74326 0.664093C59.7833 0.394093 117.823 0.524117 175.873 0.314117C190.623 0.254117 234.843 -0.385905 238.213 0.354095ZM229.743 2.22409C221.363 1.90409 213.143 3.79408 204.873 4.83408C199.043 5.56408 193.193 6.15408 187.383 7.02408L133.743 13.7441L141.053 15.4341L229.743 2.2341V2.22409ZM114.783 2.70407C95.5732 3.42407 75.6432 2.58407 56.3332 2.70407C38.9332 2.80407 21.4533 3.34411 4.01328 3.18411L2.73325 3.47409C2.61325 8.54409 2.77323 13.6241 2.71323 18.6941C2.16323 61.6541 2.42324 104.714 2.22324 147.684C2.22324 148.804 2.29325 149.944 2.10325 151.044L115.743 150.804C115.823 136.124 115.633 121.434 115.733 106.754C115.973 72.7541 116.943 38.6441 116.943 4.64407C117.363 4.25407 117.323 3.10409 116.943 2.72409C116.253 2.03409 115.253 2.70409 114.783 2.72409V2.70407ZM142.863 16.6241C142.553 16.6641 140.953 16.9041 140.933 17.0041L140.703 174.784L235.803 151.984C236.403 151.664 236.203 149.954 236.223 149.344C236.753 134.054 236.563 118.454 236.713 103.154C237.003 73.4441 236.553 43.6841 237.183 13.9841C237.213 12.5541 237.123 11.0941 237.183 9.66409C237.183 9.63409 237.413 9.39408 237.433 9.08408C237.533 7.19408 237.663 5.3141 237.663 3.4241H236.103C205.023 7.8341 173.963 12.4141 142.863 16.6241ZM137.823 175.744V165.184L135.073 169.274L134.223 169.494C133.713 168.964 135.403 165.844 135.773 165.174C136.163 164.464 137.643 162.564 137.763 162.124C138.233 160.294 137.453 157.344 138.063 155.344L133.983 161.824L133.503 161.704C132.883 159.804 138.063 153.814 138.063 153.064V146.944L133.033 154.274L132.553 154.384C131.943 152.264 138.073 145.494 138.073 144.664V139.024L133.273 145.984C132.843 146.014 132.763 146.094 132.793 145.624C132.893 143.524 136.813 139.024 137.943 137.084C138.873 119.794 138.173 102.244 138.813 84.9141V62.4641L133.763 68.5841C133.433 68.8341 133.213 68.7941 133.273 68.3341C133.513 66.5241 137.723 62.5841 138.743 60.8441L139.033 54.5341L133.273 62.2141C132.853 62.2441 132.763 62.3241 132.783 61.8541C132.893 60.0241 138.073 54.6841 139.033 52.7341C139.003 40.6741 139.013 28.6441 139.523 16.6141C138.583 17.0241 130.043 14.3441 129.923 14.8141L129.203 175.494L137.843 175.734L137.823 175.744ZM127.743 39.6641L125.613 39.9341C125.493 41.1041 125.763 42.3041 125.423 43.4641C125.003 44.9041 122.993 45.9641 122.933 47.4641C122.873 48.9641 124.393 50.8541 124.393 52.2641C124.393 53.0541 123.853 53.6041 123.723 54.2441C123.303 56.3441 124.673 57.9141 124.633 59.6941C124.603 60.9341 123.633 62.3241 123.653 63.5341C123.693 65.7941 125.903 67.7941 125.223 70.3941C125.043 71.0841 124.193 71.9641 124.143 72.6741C124.073 73.6741 125.043 75.3041 125.103 76.7341C125.183 78.7441 124.103 80.4041 124.153 82.0041C124.203 83.6041 125.673 85.1841 125.823 87.0541C125.993 89.2741 124.653 91.1941 124.833 92.8341C124.913 93.5641 125.443 93.8441 125.553 94.5241C125.723 95.5141 125.413 96.4041 125.343 97.3541L127.363 98.2341L127.723 39.6741L127.743 39.6641ZM122.223 110.224C124.163 110.334 125.663 110.244 127.503 111.184V107.584H120.183C120.023 107.584 119.123 107.364 119.343 106.864C122.043 106.534 124.943 105.524 127.503 106.864V101.824C126.423 101.784 119.233 101.824 118.903 102.344C118.443 104.854 118.653 107.434 118.623 109.984C118.623 110.464 118.623 110.944 118.623 111.424C118.583 116.144 118.653 120.864 118.623 125.584L127.263 125.344V113.824C127.613 113.454 127.663 112.294 127.263 112.014C126.953 111.794 123.903 111.394 122.983 111.014C122.553 110.834 122.183 110.844 122.213 110.224H122.223ZM118.623 127.984C118.603 129.184 118.623 130.384 118.623 131.584C118.623 131.904 118.623 132.224 118.623 132.544C118.593 138.544 118.783 144.564 118.383 150.544L127.263 150.304C127.163 144.874 127.393 139.414 127.263 133.984C127.253 133.344 127.273 132.704 127.263 132.064C124.683 132.374 122.093 131.594 119.583 131.584C119.323 130.674 120.293 130.694 120.903 130.624C123.033 130.374 125.143 130.494 127.263 130.864C127.243 129.904 127.293 128.944 127.263 127.984C127.243 127.504 127.273 127.024 127.263 126.544C124.413 126.504 121.533 126.764 118.743 126.064C118.523 126.054 118.623 127.664 118.623 127.984Z" fill="#040303"/>
<path d="M237.183 9.66387C237.123 11.0939 237.213 12.5539 237.183 13.9839L175.023 163.744C164.623 166.194 154.243 168.794 143.823 171.184C143.823 166.624 143.823 162.064 143.823 157.504C144.233 157.354 144.323 156.964 144.503 156.634C145.883 154.094 147.183 151.454 148.503 148.874C171.523 103.814 194.003 58.4639 217.053 13.4239L217.923 12.8539C223.473 11.9639 228.963 10.7139 234.493 9.74389C235.263 9.60389 236.533 9.17387 237.173 9.66387H237.183Z" fill="#936D49"/>
<path d="M237.183 13.9839C236.553 43.6839 237.003 73.4439 236.713 103.154C236.563 118.454 236.753 134.054 236.223 149.344C235.033 149.524 233.783 149.764 232.623 150.064L232.383 108.064L219.183 153.424C204.483 156.924 189.733 160.284 175.023 163.744L237.183 13.9839Z" fill="#755231"/>
<path d="M114.783 2.70414C114.963 3.55414 114.603 4.46416 114.593 5.22416C114.583 6.05416 114.563 6.93418 114.543 7.74418C109.653 8.20418 104.693 8.06415 99.7731 8.21415C99.2031 8.23415 98.6832 8.45416 98.1132 8.47416C93.8632 8.61416 88.5232 8.24414 84.4232 8.70414C83.8432 8.77414 83.2931 8.89416 82.8431 9.28416L10.2731 102.554C9.92313 102.944 9.93319 103.374 9.89319 103.854C9.46319 108.564 10.1131 113.564 10.1531 118.254C10.2331 127.974 10.0732 137.704 10.1432 147.424C9.79319 147.424 9.32313 147.664 8.83313 147.674C6.63313 147.734 4.42314 147.614 2.22314 147.674C2.42314 104.704 2.16313 61.6442 2.71313 18.6842C2.77313 13.6142 2.61315 8.53415 2.73315 3.46415L4.01318 3.17417C21.4532 3.34417 38.9331 2.79419 56.3331 2.69419C75.6431 2.58419 95.5731 3.42419 114.783 2.69419V2.70414ZM57.4232 9.66416L9.42316 11.1042L9.66315 68.7041L57.4232 9.66416Z" fill="#755231"/>
<path d="M142.863 16.6238C173.973 12.4138 205.023 7.83383 236.103 3.42383H237.663C237.663 5.30383 237.533 7.1938 237.433 9.0838C237.413 9.3938 237.183 9.63382 237.183 9.66382C236.533 9.17382 235.273 9.60384 234.503 9.74384C228.973 10.7138 223.483 11.9638 217.933 12.8538L217.063 13.4238C194.013 58.4738 171.533 103.814 148.513 148.874C147.193 151.454 145.893 154.094 144.513 156.634C144.333 156.974 144.233 157.354 143.833 157.504C143.823 150.384 143.833 143.264 143.833 136.144L203.593 15.7838L145.023 26.5739L143.593 52.6238C143.523 42.3538 143.793 31.7738 143.363 21.5338C143.303 19.9738 142.983 18.2038 142.873 16.6238H142.863Z" fill="#755231"/>
<path d="M137.823 175.744L129.183 175.504L129.903 14.8243C130.023 14.3543 138.573 17.0242 139.503 16.6242C138.993 28.6443 138.983 40.6842 139.013 52.7442C138.063 54.6942 132.873 60.0342 132.763 61.8642C132.733 62.3342 132.833 62.2542 133.253 62.2242L139.013 54.5442L138.723 60.8542C137.703 62.5942 133.493 66.5342 133.253 68.3442C133.193 68.7942 133.413 68.8342 133.743 68.5942L138.773 62.4742V84.9242C138.143 102.254 138.843 119.804 137.913 137.094C136.793 139.034 132.863 143.534 132.763 145.634C132.743 146.114 132.813 146.024 133.243 145.994L138.043 139.034V144.674C138.043 145.504 131.913 152.274 132.523 154.394L133.003 154.284L138.033 146.954V153.074C138.033 153.824 132.853 159.814 133.473 161.714L133.953 161.834L138.033 155.354C137.433 157.354 138.203 160.304 137.733 162.134C137.623 162.584 136.143 164.474 135.743 165.184C135.373 165.854 133.673 168.974 134.193 169.504L135.043 169.284L137.793 165.194V175.754L137.823 175.744Z" fill="#FCE5C4"/>
<path d="M116.944 2.70423V4.62427C116.944 38.6243 115.974 72.7343 115.734 106.734C115.634 121.414 115.834 136.104 115.744 150.784L2.10352 151.024C2.29352 149.924 2.21351 148.784 2.22351 147.664C4.42351 147.614 6.6335 147.734 8.8335 147.664C9.3235 147.654 9.78355 147.424 10.1436 147.414C38.7136 146.784 67.4035 147.874 95.9435 146.934C100.754 146.774 103.794 146.654 108.654 146.944C110.194 147.034 111.794 146.854 113.344 146.944C113.394 145.064 113.273 143.174 113.333 141.294C114.803 96.8843 113.374 52.1743 114.544 7.74427C114.564 6.93427 114.574 6.05425 114.594 5.22425C114.604 4.46425 114.964 3.55423 114.784 2.70423C115.254 2.68423 116.254 2.01423 116.944 2.70423Z" fill="#FEFEFE"/>
<path d="M142.863 16.624C142.973 18.204 143.283 19.974 143.353 21.534C143.783 31.774 143.513 42.354 143.583 52.624C143.783 80.464 143.803 108.284 143.823 136.144C143.823 143.264 143.813 150.384 143.823 157.504C143.823 162.064 143.823 166.624 143.823 171.184C154.243 168.794 164.623 166.194 175.023 163.744C189.733 160.284 204.483 156.924 219.183 153.424C223.683 152.354 228.143 151.224 232.623 150.064C233.783 149.764 235.033 149.524 236.223 149.344C236.203 149.954 236.413 151.674 235.803 151.984L140.703 174.784L140.933 17.004C140.953 16.904 142.553 16.674 142.863 16.624Z" fill="#FEFEFE"/>
<path d="M127.743 39.6643L127.383 98.2243L125.363 97.3443C125.433 96.3943 125.743 95.4943 125.573 94.5143C125.463 93.8343 124.933 93.5543 124.853 92.8243C124.673 91.1843 126.013 89.2743 125.843 87.0443C125.703 85.1743 124.223 83.5043 124.173 81.9943C124.123 80.4043 125.203 78.7443 125.123 76.7243C125.063 75.2943 124.093 73.6643 124.163 72.6643C124.213 71.9543 125.063 71.0643 125.243 70.3843C125.923 67.7843 123.713 65.7843 123.673 63.5243C123.653 62.3143 124.623 60.9343 124.653 59.6843C124.693 57.9043 123.323 56.3343 123.743 54.2343C123.873 53.6043 124.413 53.0543 124.413 52.2543C124.413 50.8443 122.893 48.9443 122.953 47.4543C123.013 45.9643 125.033 44.8843 125.443 43.4543C125.783 42.2943 125.503 41.0943 125.633 39.9243L127.763 39.6543L127.743 39.6643Z" fill="#FEFEFE"/>
<path d="M229.743 2.22424L141.053 15.4243L133.743 13.7343L187.383 7.01428C193.193 6.14428 199.043 5.55428 204.873 4.82428C213.143 3.78428 221.363 1.89423 229.743 2.21423V2.22424Z" fill="#755231"/>
<path d="M127.263 133.984C127.393 139.414 127.173 144.874 127.263 150.304L118.383 150.544C118.783 144.564 118.603 138.544 118.623 132.544C121.313 134.124 124.193 134.524 127.263 133.984Z" fill="#44ABDD"/>
<path d="M127.263 113.824V125.344L118.623 125.584C118.653 120.864 118.593 116.134 118.623 111.424L127.263 113.824Z" fill="#44ABDD"/>
<path d="M118.623 109.984C118.653 107.434 118.443 104.854 118.903 102.344C119.233 101.824 126.423 101.784 127.503 101.824V106.864C124.943 105.524 122.043 106.534 119.343 106.864C119.123 107.364 120.023 107.584 120.183 107.584H127.503V111.184C125.663 110.244 124.163 110.334 122.223 110.224C121.023 110.154 119.823 110.104 118.623 109.984Z" fill="#44ABDD"/>
<path d="M127.263 127.984C127.293 128.934 127.243 129.904 127.263 130.864C125.153 130.494 123.043 130.374 120.903 130.624C120.293 130.694 119.323 130.674 119.583 131.584C119.263 131.584 118.943 131.584 118.623 131.584C118.623 130.384 118.603 129.184 118.623 127.984C121.493 128.404 124.393 128.244 127.263 127.984Z" fill="#44ABDD"/>
<path d="M119.583 131.584C122.093 131.594 124.683 132.374 127.263 132.064C127.273 132.704 127.243 133.344 127.263 133.984C124.193 134.524 121.313 134.124 118.623 132.544C118.623 132.224 118.623 131.904 118.623 131.584C118.943 131.584 119.263 131.584 119.583 131.584Z" fill="#FEFEFE"/>
<path d="M122.223 110.224C122.193 110.844 122.563 110.844 122.993 111.014C123.913 111.394 126.963 111.784 127.273 112.014C127.663 112.294 127.613 113.454 127.273 113.824L118.633 111.424C118.633 110.944 118.633 110.464 118.633 109.984C119.833 110.104 121.033 110.154 122.233 110.224H122.223Z" fill="#FEFEFE"/>
<path d="M118.623 127.984C118.623 127.654 118.523 126.044 118.743 126.064C121.533 126.764 124.413 126.504 127.263 126.544C127.273 127.024 127.243 127.504 127.263 127.984C124.393 128.244 121.493 128.404 118.623 127.984Z" fill="#FEFEFE"/>
<path d="M116.943 4.62415V2.7041C117.323 3.0841 117.363 4.23415 116.943 4.62415Z" fill="#755231"/>
<path d="M232.623 150.064C228.143 151.224 223.683 152.354 219.183 153.424L232.383 108.064L232.623 150.064Z" fill="#936D49"/>
<path d="M114.543 7.7439C113.373 52.1739 114.803 96.8839 113.333 141.294C113.273 143.174 113.403 145.064 113.343 146.944C111.793 146.864 110.193 147.044 108.653 146.944C103.793 146.644 100.753 146.774 95.9435 146.934C67.4035 147.874 38.7135 146.794 10.1435 147.414C10.0735 137.694 10.2335 127.964 10.1535 118.244C10.1135 113.554 9.46351 108.554 9.89351 103.844C9.93351 103.364 9.92345 102.934 10.2735 102.544L82.8435 9.27386C83.2935 8.87386 83.8435 8.75391 84.4235 8.69391C88.5235 8.23391 93.8635 8.60387 98.1135 8.46387C98.6835 8.44387 99.2035 8.22386 99.7735 8.20386C104.693 8.05386 109.653 8.20389 114.543 7.73389V7.7439ZM104.463 75.1839C104.243 75.9539 105.923 75.7039 106.273 75.6739C110.323 75.3339 111.573 71.3939 110.413 67.9139C109.773 66.0039 107.483 63.4639 107.333 61.8739C107.183 60.2839 107.573 58.9339 107.593 57.5539C107.693 52.2439 107.323 46.7339 107.593 41.4639C107.683 39.7239 108.023 35.0039 108.553 33.5439C108.853 32.7139 110.044 31.8339 110.514 30.9439C111.334 29.4139 111.403 28.0539 110.873 26.3939C110.743 26.0039 110.823 25.6139 110.223 25.7339C109.733 20.5839 100.313 19.1939 97.9435 24.6139C95.1635 30.9539 96.3135 48.2039 96.5535 55.6039C96.7035 60.1139 96.4835 67.6939 97.5735 71.8639C98.3735 74.9139 101.573 76.0239 104.463 75.1739V75.1839Z" fill="#936D49"/>
<path d="M57.4233 9.66406L9.66333 68.704L9.42334 11.1041L57.4233 9.66406Z" fill="#936D49"/>
<path d="M143.583 52.6242L145.013 26.5742L203.583 15.7842L143.823 136.144C143.803 108.284 143.783 80.4642 143.583 52.6242ZM148.863 33.1842C148.273 37.5342 150.553 38.2142 151.023 41.9442C152.003 49.8042 151.753 59.5042 151.993 67.6142C152.103 71.3242 150.983 70.7942 150.183 73.5042C149.353 76.2942 150.433 80.4942 153.353 81.6042C153.773 81.7642 154.503 82.1642 154.853 81.6642C158.353 84.2342 162.903 82.3142 163.673 78.1242C164.713 72.4342 163.773 65.9342 163.723 60.1942C163.653 53.0042 163.943 45.7242 163.503 38.5742C163.153 32.8842 162.253 25.5042 154.793 26.5242C152.703 26.8142 152.423 27.3442 151.133 28.6242C149.303 30.4242 149.213 30.4942 148.853 33.1842H148.863Z" fill="#936D49"/>
<path d="M110.223 25.7438C110.413 27.7238 109.133 29.4038 107.423 30.2638C106.803 30.5738 105.463 30.7638 105.163 31.1238C104.893 31.4438 104.513 33.4938 104.463 34.0238V66.4238C104.533 67.1138 105.373 67.0638 105.913 67.3738C109.953 69.6738 108.513 73.9938 104.463 75.1838C101.573 76.0338 98.3631 74.9338 97.5731 71.8738C96.4831 67.7038 96.7031 60.1238 96.5531 55.6138C96.3031 48.2138 95.1631 30.9638 97.9431 24.6238C100.323 19.2138 109.743 20.5938 110.223 25.7438ZM97.9831 37.7438H101.463C101.533 37.7438 101.803 38.0738 102.063 37.9838V33.7838C102.063 33.2538 102.563 31.2538 102.773 30.6538C103.653 28.1538 105.073 28.9738 106.373 27.7738C107.403 26.8238 107.903 25.3738 106.753 24.2938C105.863 23.4538 102.603 23.5438 101.403 24.0138C99.2331 24.8638 98.8831 27.7138 98.5231 29.7738C98.0831 32.3738 97.9331 35.1038 97.9731 37.7438H97.9831ZM102.063 39.4238C100.613 39.6238 99.1831 39.8938 97.7431 39.4238L97.5031 53.8238C99.1031 53.3638 100.613 52.7338 102.303 53.3438L102.063 39.4238ZM102.303 54.7838C100.663 54.9338 99.2031 55.7838 97.5031 55.5038C97.8931 59.3538 97.8131 63.2838 98.2231 67.1438C98.4331 69.1538 98.4731 71.5838 100.303 72.7438C101.653 73.6038 102.513 73.6438 103.983 73.1338C105.893 72.4638 106.373 71.9138 105.383 70.0638C104.533 68.4738 103.473 68.8238 102.843 68.1638C102.783 68.0938 102.303 66.9738 102.303 66.9038V54.7838Z" fill="#040303"/>
<path d="M110.223 25.7443C110.823 25.6243 110.743 26.0142 110.873 26.4042C111.403 28.0642 111.333 29.4242 110.513 30.9542C110.033 31.8442 108.853 32.7243 108.553 33.5543C108.013 35.0143 107.673 39.7242 107.593 41.4742C107.333 46.7442 107.703 52.2543 107.593 57.5643C107.563 58.9443 107.193 60.3643 107.333 61.8843C107.473 63.4043 109.773 66.0143 110.413 67.9243C111.573 71.3943 110.323 75.3343 106.273 75.6843C105.923 75.7143 104.243 75.9643 104.463 75.1943C108.523 74.0043 109.953 69.6843 105.913 67.3843C105.373 67.0743 104.543 67.1243 104.463 66.4343V34.0342C104.513 33.5042 104.893 31.4543 105.163 31.1343C105.463 30.7743 106.793 30.5842 107.423 30.2742C109.133 29.4142 110.413 27.7343 110.223 25.7543V25.7443Z" fill="#755231"/>
<path d="M154.864 81.6643C151.824 79.4243 152.234 75.4442 154.614 72.8942C155.214 72.2542 156.293 72.0043 156.313 70.9943C156.283 66.7443 155.733 62.4942 155.573 58.2742C155.333 52.1342 155.793 44.8143 155.073 38.8543C154.713 35.8443 153.864 36.7243 151.684 36.0043C150.104 35.4743 149.324 34.8043 148.854 33.1943C149.214 30.5043 149.304 30.4343 151.134 28.6343C152.434 27.3543 152.704 26.8242 154.794 26.5342C162.254 25.5142 163.154 32.8942 163.504 38.5842C163.944 45.7342 163.654 53.0142 163.724 60.2042C163.774 65.9442 164.714 72.4443 163.674 78.1343C162.904 82.3243 158.354 84.2443 154.854 81.6743L154.864 81.6643ZM161.583 43.5043C161.213 39.8343 161.484 32.7043 159.154 29.7443C157.464 27.5943 151.904 28.4043 151.144 31.2643C150.234 34.6843 152.923 33.8543 154.933 34.9243C157.323 36.2043 157.014 41.1543 157.274 43.5043C158.754 43.2543 160.114 43.1143 161.594 43.5043H161.583ZM158.224 64.6243H162.063C161.993 60.9843 162.163 57.3343 162.063 53.6943C162.053 53.1243 161.823 52.6043 161.803 52.0343C161.763 50.8843 162.124 45.5643 161.394 45.1843L157.374 44.4642L158.214 64.6243H158.224ZM162.063 66.3043L158.224 66.0643C158.044 68.0043 158.764 69.9042 158.354 71.8342C157.894 74.0542 154.734 74.2742 154.844 77.4642C154.944 80.5842 159.464 81.9043 161.214 79.2543C161.524 78.7843 162.063 76.9943 162.063 76.5043V66.3043Z" fill="#040303"/>
<path d="M148.863 33.1838C149.323 34.8038 150.113 35.4738 151.693 35.9938C153.863 36.7238 154.723 35.8338 155.083 38.8438C155.793 44.8038 155.343 52.1239 155.583 58.2639C155.743 62.4939 156.293 66.7438 156.323 70.9838C156.303 71.9838 155.223 72.2339 154.623 72.8839C152.243 75.4339 151.833 79.4138 154.873 81.6538C154.523 82.1538 153.793 81.7538 153.373 81.5938C150.453 80.4838 149.373 76.2838 150.203 73.4938C151.003 70.7838 152.123 71.3138 152.013 67.6038C151.773 59.4938 152.013 49.8038 151.043 41.9338C150.573 38.2038 148.303 37.5238 148.883 33.1738L148.863 33.1838Z" fill="#755231"/>
<path d="M102.303 54.7842V66.9042C102.303 66.9742 102.783 68.1042 102.843 68.1642C103.473 68.8242 104.523 68.4742 105.383 70.0642C106.373 71.9142 105.893 72.4642 103.983 73.1342C102.513 73.6442 101.653 73.6042 100.303 72.7442C98.4734 71.5842 98.4334 69.1442 98.2234 67.1442C97.8134 63.2842 97.8934 59.3542 97.5034 55.5042C99.2034 55.7842 100.663 54.9342 102.303 54.7842Z" fill="#EECA95"/>
<path d="M97.9833 37.744C97.9433 35.104 98.0932 32.374 98.5332 29.774C98.8832 27.704 99.2332 24.864 101.413 24.014C102.603 23.544 105.863 23.454 106.763 24.294C107.903 25.374 107.403 26.824 106.383 27.774C105.083 28.974 103.663 28.154 102.783 30.654C102.573 31.254 102.073 33.254 102.073 33.784V37.984C101.813 38.074 101.543 37.744 101.473 37.744H97.9933H97.9833Z" fill="#EECA95"/>
<path d="M102.063 39.4238L102.303 53.3438C100.613 52.7338 99.1134 53.3639 97.5034 53.8239L97.7434 39.4238C99.1834 39.8938 100.613 39.6238 102.063 39.4238Z" fill="#E6AA6E"/>
<path d="M161.583 43.5043C160.103 43.1143 158.743 43.2543 157.263 43.5043C157.013 41.1543 157.314 36.2043 154.924 34.9243C152.914 33.8443 150.223 34.6844 151.133 31.2644C151.893 28.4044 157.453 27.5943 159.143 29.7443C161.473 32.7143 161.203 39.8443 161.573 43.5043H161.583Z" fill="#EECA95"/>
<path d="M158.223 64.6239L157.383 44.4639L161.403 45.1839C162.133 45.5639 161.773 50.8839 161.813 52.0339C161.833 52.6039 162.063 53.1239 162.073 53.6939C162.163 57.3339 161.993 60.9839 162.073 64.6239H158.233H158.223Z" fill="#E6AA6E"/>
<path d="M162.063 66.304V76.504C162.063 76.994 161.523 78.774 161.213 79.254C159.463 81.914 154.943 80.5839 154.843 77.4639C154.743 74.2739 157.893 74.0539 158.353 71.8339C158.753 69.8939 158.043 68.004 158.223 66.064L162.063 66.304Z" fill="#EECA95"/>
</svg>
