<svg width="241" height="155" viewBox="0 0 241 155" fill="none" xmlns="http://www.w3.org/2000/svg">
<path d="M240.276 3.6754C240.276 3.6754 240.546 148.755 240.046 152.625C239.946 153.375 239.706 153.205 239.556 153.445C238.666 153.815 238.036 153.675 237.156 153.445C235.836 153.095 236.286 153.225 234.886 153.215C215.546 153.075 196.166 153.405 176.866 153.455C121.946 153.595 67.0256 153.315 12.1456 153.935C8.97559 153.975 4.87558 154.215 1.81558 153.935C-1.24442 153.655 0.475546 152.115 0.535546 150.695C0.665546 147.445 0.215578 143.355 0.255578 139.895C0.765578 94.3854 0.685558 48.8454 0.735558 3.3054C0.585558 2.1154 2.23559 0.815432 3.26559 0.775432C4.18559 0.735432 5.28559 1.06539 6.39559 1.04539C38.2456 0.55539 70.1756 0.8854 102.056 0.8054C133.606 0.7254 165.236 0.65541 196.766 0.56541C209.466 0.52541 223.476 -0.4946 236.086 0.3054C237.276 0.3854 239.536 0.425393 239.926 1.73539L240.276 3.66545V3.6754ZM127.356 2.71543C126.856 2.72543 125.576 2.5554 125.306 2.9354C124.976 7.1354 124.926 11.3254 124.956 15.5454C125.166 52.2754 125.776 89.0354 126.176 125.755C125.416 133.005 127.146 142.255 126.176 149.265C126.086 149.885 125.716 150.025 125.686 150.565L236.556 150.335C236.806 150.295 236.686 148.785 236.696 148.415C237.796 100.625 236.416 52.7554 238.146 5.00541C238.176 4.21541 238.516 2.18544 237.366 2.28544C232.006 2.76544 226.166 2.67544 220.756 2.72544C189.746 3.01544 158.276 1.83543 127.356 2.71543ZM116.086 2.95542C97.4156 3.70542 77.9156 2.83542 59.1356 2.95542C41.0356 3.05542 22.8456 3.6054 4.70559 3.4354L3.43557 3.71543C3.31557 9.09543 3.47555 14.4854 3.41555 19.8654C3.03555 51.4354 3.06555 83.1654 2.91555 114.735C2.86555 126.465 3.40555 138.675 2.91555 150.325C2.91555 150.445 2.43556 150.955 2.79556 151.045L116.326 150.805C116.416 136.225 116.216 121.635 116.316 107.065C116.416 91.9354 116.906 76.6754 117.056 61.5554C117.226 44.6954 116.856 27.8154 117.276 10.9754C117.326 8.87544 117.916 5.77539 117.786 3.79539C117.766 3.45539 117.826 3.08542 117.546 2.82542C116.996 2.44542 116.406 2.94543 116.086 2.96543V2.95542ZM122.796 2.71543L119.196 3.07542C119.626 6.57542 119.706 10.1054 119.686 13.6254C119.506 46.7254 119.336 79.9554 119.186 113.045C119.126 125.545 119.346 138.125 119.066 150.575C119.546 151.265 122.846 150.265 123.756 150.555L123.026 148.775C122.936 101.055 122.796 53.3454 122.536 5.70542C122.536 4.73542 122.986 3.73542 122.796 2.70542V2.71543Z" fill="#050404"/>
<path d="M236.686 148.415C233.976 148.395 231.246 148.435 228.536 148.415L228.896 115.345L214.385 148.175C188.715 147.835 162.565 146.775 136.945 147.215L229.975 7.75534H216.186L132.586 123.815C131.376 125.485 130.175 127.235 128.795 128.775C128.725 120.475 128.855 112.155 128.795 103.855L193.536 7.40536L127.836 6.56533C127.766 5.34533 127.425 3.97532 127.355 2.73532C158.275 1.85532 189.745 3.03533 220.755 2.74533C226.155 2.69533 231.995 2.78532 237.365 2.30532C238.515 2.20532 238.166 4.23536 238.146 5.02536C236.416 52.7654 237.795 100.645 236.695 148.435L236.686 148.415Z" fill="#755231"/>
<path d="M116.086 2.95558C115.876 4.19558 115.906 5.43556 115.856 6.68556C115.846 6.99556 115.606 7.23558 115.606 7.26558C105.956 7.45558 96.3357 8.0356 86.7157 8.2256L86.2356 8.46559L9.76565 112.476L9.63565 150.326C7.40565 150.386 5.15562 150.286 2.92562 150.326C3.40562 138.676 2.86562 126.456 2.92562 114.736C3.07562 83.1556 3.04562 51.4356 3.42562 19.8656C3.48562 14.4856 3.32564 9.09559 3.44564 3.71559L4.71566 3.43556C22.8557 3.61556 41.0457 3.05558 59.1457 2.95558C77.9257 2.84558 97.4256 3.71558 116.096 2.95558H116.086ZM9.62564 11.1056V84.6756L62.8556 9.19557L9.62564 11.1056Z" fill="#755231"/>
<path d="M127.355 2.7153C127.425 3.9553 127.765 5.33525 127.835 6.54525C128.425 16.9753 127.965 27.5853 128.065 38.0653C128.275 59.9653 128.635 81.9253 128.795 103.835C128.855 112.135 128.725 120.455 128.795 128.755C128.845 134.985 129.095 141.215 129.035 147.445C131.685 147.625 134.315 147.245 136.945 147.205C162.565 146.765 188.725 147.815 214.385 148.165C219.105 148.225 223.815 148.365 228.535 148.405C231.245 148.425 233.975 148.385 236.685 148.405C236.685 148.785 236.805 150.285 236.545 150.325L125.675 150.555C125.705 150.015 126.085 149.875 126.165 149.255C127.135 142.245 125.405 132.995 126.165 125.745C125.755 89.0253 125.155 52.2653 124.945 15.5353C124.925 11.3153 124.975 7.12526 125.295 2.92526C125.565 2.53526 126.845 2.71529 127.345 2.70529L127.355 2.7153Z" fill="#F1F1F1"/>
<path d="M116.086 2.95533C116.406 2.94533 116.996 2.43532 117.546 2.81532C117.836 3.07532 117.766 3.44535 117.786 3.78535C117.916 5.76535 117.326 8.87534 117.276 10.9653C116.856 27.8053 117.226 44.6853 117.056 61.5453C116.906 76.6653 116.416 91.9253 116.316 107.055C116.216 121.635 116.416 136.225 116.326 150.795L2.79568 151.035C2.43568 150.945 2.90568 150.435 2.91568 150.315C5.14568 150.275 7.3957 150.375 9.6257 150.315C39.9257 149.505 70.2857 148.415 100.606 147.665C104.726 147.565 108.846 147.775 112.966 147.435C113.476 141.605 113.106 135.685 113.196 129.815C113.796 92.0753 114.606 54.2253 115.616 16.4953C115.696 13.4753 115.476 10.1853 115.616 7.25532C115.616 7.22532 115.856 6.9853 115.866 6.6753C115.916 5.4153 115.886 4.18532 116.096 2.94532L116.086 2.95533Z" fill="#F1F1F1"/>
<path d="M122.795 2.71533C122.985 3.74533 122.525 4.73533 122.535 5.71533C122.795 53.3553 122.935 101.065 123.025 148.785L123.755 150.565C122.845 150.265 119.545 151.275 119.065 150.585C119.355 138.135 119.135 125.555 119.185 113.055C119.345 79.9553 119.505 46.7253 119.685 13.6353C119.705 10.1053 119.615 6.58533 119.195 3.08533L122.795 2.72534V2.71533Z" fill="#755231"/>
<path d="M239.566 153.445C239.526 153.515 239.636 153.835 239.416 153.945C238.906 154.295 237.016 154.355 237.166 153.445C238.036 153.675 238.676 153.815 239.566 153.445Z" fill="#3F3F3F"/>
<path d="M127.836 6.55566L193.536 7.39569L128.796 103.846C128.636 81.9357 128.286 59.9857 128.066 38.0757C127.966 27.5957 128.426 16.9857 127.836 6.55566ZM138.626 78.4457C138.486 79.2057 138.996 78.8557 139.446 78.9257C146.976 80.1957 149.826 73.2457 144.186 68.4457C144.356 55.8457 145.026 43.2357 145.336 30.6357C146.946 28.5357 149.136 27.1157 147.776 24.1157C146.936 22.2857 146.286 22.5357 144.856 21.8757C142.146 20.6357 141.046 20.2157 137.956 21.0857C133.816 22.2557 133.726 25.3657 133.346 29.1857C132.786 34.8957 132.986 40.7157 132.876 46.4457C132.706 54.6357 132.176 63.9457 133.106 72.0757C133.526 75.7357 134.346 78.3757 138.616 78.4257L138.626 78.4457Z" fill="#936D49"/>
<path d="M128.796 128.766C130.186 127.236 131.386 125.486 132.586 123.806L216.186 7.74561H229.976L136.946 147.206C134.306 147.256 131.686 147.626 129.036 147.446C129.106 141.216 128.846 134.986 128.796 128.756V128.766Z" fill="#936D49"/>
<path d="M228.536 148.416C223.816 148.376 219.106 148.236 214.386 148.176L228.896 115.346L228.536 148.416Z" fill="#936D49"/>
<path d="M115.605 7.27539C115.475 10.1954 115.695 13.4854 115.605 16.5154C114.595 54.2454 113.785 92.0954 113.185 129.835C113.095 135.705 113.455 141.625 112.955 147.455C108.845 147.795 104.725 147.585 100.595 147.685C70.2852 148.435 39.9152 149.525 9.61523 150.335L9.74524 112.485L86.2153 8.4754L86.6953 8.23535C96.3153 8.04535 105.935 7.46539 115.585 7.27539H115.605ZM104.335 75.5654C104.195 76.2554 104.715 76.0654 105.165 76.0554C107.015 76.0054 108.575 75.3854 109.715 73.8754C109.925 73.6054 110.745 72.1154 110.795 71.8454C111.205 69.7254 109.635 68.8754 109.385 67.2854C109.095 65.4354 109.595 63.3254 109.615 61.5554C109.755 52.3754 108.905 42.0154 109.615 33.0354C109.795 30.7054 110.315 31.5354 111.255 30.1154C112.045 28.9254 112.395 26.8654 110.815 26.2054C110.465 20.7854 101.125 19.5854 98.6553 24.4754C96.0753 29.5954 96.7153 48.3854 96.8953 54.8454C97.0353 59.6354 97.2253 65.9154 97.8953 70.6254C98.4053 74.1754 100.645 76.0954 104.335 75.5654Z" fill="#936D49"/>
<path d="M9.62598 11.1053L62.856 9.19531L9.62598 84.6753V11.1053Z" fill="#936D49"/>
<path d="M144.855 21.8855C147.775 25.3155 144.925 27.6555 142.025 29.4855C140.525 42.6255 141.175 55.9555 141.015 69.2155C141.135 69.8455 142.555 70.3455 143.135 71.1755C145.695 74.8155 142.605 78.4855 138.615 78.4455C134.345 78.3955 133.525 75.7555 133.105 72.0955C132.165 63.9755 132.705 54.6655 132.875 46.4655C132.995 40.7355 132.785 34.9155 133.345 29.2055C133.715 25.3955 133.805 22.2855 137.955 21.1055C141.045 20.2255 142.155 20.6555 144.855 21.8955V21.8855ZM139.105 38.9055C139.225 36.3855 138.825 29.5455 140.435 27.6555C141.305 26.6355 143.695 26.4655 143.675 24.6355C143.655 23.0555 140.345 22.3955 139.095 22.7155C136.925 23.2755 136.205 24.5955 135.815 26.6255C135.055 30.5855 135.265 35.0955 135.025 39.1355L139.105 38.8955V38.9055ZM138.855 40.3455L135.015 40.8255L134.775 56.6455L138.615 56.1655L138.855 40.3455ZM138.615 57.8355L134.775 58.5555C134.825 60.6655 134.715 62.7955 134.775 64.9155C134.835 67.2555 134.915 72.3255 135.625 74.3655C136.875 77.9355 143.435 75.8055 141.255 72.5655C140.635 71.6355 138.835 71.2955 138.625 70.1655C138.285 68.3755 138.875 65.8255 138.865 63.9255C138.865 62.0155 138.365 59.8355 138.615 57.8255V57.8355Z" fill="#050404"/>
<path d="M144.855 21.8853C146.285 22.5353 146.935 22.2852 147.775 24.1252C149.145 27.1252 146.955 28.5453 145.335 30.6453C145.015 43.2453 144.355 55.8453 144.185 68.4553C149.825 73.2553 146.975 80.2052 139.445 78.9352C138.995 78.8552 138.485 79.2053 138.625 78.4553C142.615 78.5053 145.705 74.8252 143.145 71.1852C142.565 70.3552 141.145 69.8653 141.025 69.2253C141.185 55.9653 140.535 42.6352 142.035 29.4952C144.935 27.6652 147.775 25.3253 144.865 21.8953L144.855 21.8853Z" fill="#755231"/>
<path d="M110.806 26.2054C110.926 28.0854 109.636 29.6554 108.006 30.4754C107.386 30.7854 106.056 30.9754 105.756 31.3354C105.326 31.8454 105.346 33.3454 105.086 34.0154L105.056 66.5754C105.186 67.2154 107.126 67.6854 107.796 68.3954C110.596 71.3354 107.666 75.0854 104.346 75.5654C100.656 76.0954 98.4059 74.1754 97.9059 70.6254C97.2359 65.9254 97.0459 59.6354 96.9059 54.8454C96.7159 48.3754 96.0759 29.5954 98.6659 24.4754C101.136 19.5754 110.476 20.7854 110.826 26.2054H110.806ZM98.5859 37.9454H102.066C102.136 37.9454 102.406 38.2754 102.666 38.1854V33.9954C102.666 33.4654 103.166 31.4654 103.376 30.8654C104.206 28.5254 105.536 29.1054 107.106 27.8854C108.376 26.8954 108.586 25.9454 107.466 24.6454C106.596 23.6454 103.266 23.7454 102.016 24.2354C99.8459 25.0854 99.4959 27.9254 99.1459 29.9854C98.7059 32.5854 98.5559 35.3154 98.5959 37.9454H98.5859ZM102.656 39.6254C101.206 39.8254 99.7759 40.0954 98.3459 39.6254L98.1059 54.0054C99.7059 53.5454 101.216 52.9154 102.896 53.5254L102.656 39.6254ZM102.896 54.9554C101.256 55.1054 99.7959 55.9554 98.0959 55.6754C98.4859 59.5254 98.4059 63.4454 98.8159 67.2954C99.0259 69.2954 99.0659 71.7254 100.896 72.8854C104.316 75.0654 109.126 71.3554 105.506 69.2354C105.026 68.9554 103.716 68.6054 103.436 68.3154C103.376 68.2454 102.896 67.1254 102.896 67.0554V54.9554Z" fill="#050404"/>
<path d="M110.806 26.2056C112.386 26.8756 112.036 28.9255 111.246 30.1155C110.316 31.5355 109.796 30.7056 109.606 33.0356C108.906 42.0156 109.746 52.3755 109.606 61.5555C109.576 63.3255 109.086 65.4356 109.376 67.2856C109.626 68.8756 111.196 69.7256 110.786 71.8456C110.736 72.1256 109.906 73.6055 109.706 73.8755C108.566 75.3755 107.006 75.9955 105.156 76.0555C104.706 76.0655 104.186 76.2656 104.326 75.5656C107.646 75.0856 110.576 71.3356 107.776 68.3956C107.106 67.6856 105.166 67.2256 105.036 66.5756L105.066 34.0156C105.326 33.3356 105.306 31.8456 105.736 31.3356C106.036 30.9756 107.366 30.7856 107.986 30.4756C109.616 29.6556 110.906 28.0856 110.786 26.2056H110.806Z" fill="#755231"/>
<path d="M139.105 38.9056L135.025 39.1456C135.265 35.1056 135.055 30.6056 135.815 26.6356C136.205 24.6056 136.925 23.2756 139.095 22.7256C140.355 22.4056 143.655 23.0656 143.675 24.6456C143.695 26.4756 141.315 26.6456 140.435 27.6656C138.815 29.5456 139.225 36.3856 139.105 38.9156V38.9056Z" fill="#EEC995"/>
<path d="M138.615 57.8354C138.365 59.8354 138.865 62.0154 138.865 63.9354C138.865 65.8254 138.285 68.3854 138.625 70.1754C138.845 71.3054 140.635 71.6454 141.255 72.5754C143.425 75.8054 136.865 77.9454 135.625 74.3754C134.915 72.3254 134.835 67.2654 134.775 64.9254C134.725 62.8054 134.835 60.6754 134.775 58.5654L138.615 57.8455V57.8354Z" fill="#EEC995"/>
<path d="M138.855 40.3457L138.625 56.1557L134.785 56.6357L135.025 40.8157L138.855 40.3457Z" fill="#E7AA6E"/>
<path d="M102.896 54.9556V67.0555C102.896 67.1255 103.376 68.2456 103.436 68.3156C103.716 68.6056 105.026 68.9655 105.506 69.2355C109.126 71.3555 104.316 75.0556 100.896 72.8856C99.0658 71.7256 99.0357 69.2955 98.8157 67.2955C98.4057 63.4455 98.4857 59.5255 98.0957 55.6755C99.7857 55.9555 101.256 55.1056 102.896 54.9556Z" fill="#EEC995"/>
<path d="M98.5852 37.9454C98.5452 35.3154 98.6852 32.5854 99.1352 29.9854C99.4852 27.9254 99.8352 25.0854 102.005 24.2354C103.255 23.7454 106.585 23.6454 107.455 24.6454C108.575 25.9354 108.365 26.8954 107.095 27.8854C105.525 29.1054 104.195 28.5254 103.365 30.8654C103.155 31.4654 102.655 33.4654 102.655 33.9954V38.1854C102.395 38.2754 102.125 37.9454 102.055 37.9454H98.5752H98.5852Z" fill="#EEC995"/>
<path d="M102.656 39.6255L102.896 53.5255C101.206 52.9155 99.7055 53.5455 98.1055 54.0055L98.3455 39.6255C99.7855 40.0955 101.206 39.8255 102.656 39.6255Z" fill="#E7AA6E"/>
</svg>
