<svg width="36" height="36" viewBox="0 0 36 36" fill="none" xmlns="http://www.w3.org/2000/svg">
<rect x="1.5" y="1.5" width="33" height="33" rx="6.5" fill="#F38328"/>
<rect x="1.5" y="1.5" width="33" height="33" rx="6.5" stroke="black" stroke-width="3"/>
<path d="M16.1213 11.8787C14.9497 10.7071 13.0503 10.7071 11.8787 11.8787C10.7071 13.0503 10.7071 14.9497 11.8787 16.1213L13.7574 18L11.8787 19.8787C10.7071 21.0503 10.7071 22.9497 11.8787 24.1213C13.0503 25.2929 14.9497 25.2929 16.1213 24.1213L18 22.2426L19.8787 24.1213C21.0503 25.2929 22.9497 25.2929 24.1213 24.1213C25.2929 22.9497 25.2929 21.0503 24.1213 19.8787L22.2426 18L24.1213 16.1213C25.2929 14.9497 25.2929 13.0503 24.1213 11.8787C22.9497 10.7071 21.0503 10.7071 19.8787 11.8787L18 13.7574L16.1213 11.8787Z" fill="white" stroke="black" stroke-width="3" stroke-linecap="round" stroke-linejoin="round"/>
</svg>
