<svg width="168" height="366" viewBox="0 0 168 366" fill="none" xmlns="http://www.w3.org/2000/svg">
<path d="M0.262701 320.33C0.262701 320.33 0.0227012 320.06 0.0127012 319.75C-0.00729877 319.06 0.0327012 318.37 0.0127012 317.69L4.56275 318.17V1.92999C4.56275 1.28999 5.50279 0.1 6.23279 0H157.233C157.823 0.05 158.903 1.23 158.903 1.69V319.61C161.633 318.98 164.493 319.05 167.293 318.89V321.53L158.903 321.05V325.13L167.293 325.37V341.92H0.0127012C0.0427012 335.61 -0.0272988 329.28 0.0127012 322.97L4.56275 323.21V319.85L0.252691 320.33H0.262701ZM11.2927 3.73999H8.41273V6.62L11.2827 3.73999H11.2927ZM16.8027 3.73999C15.9627 3.84999 14.6927 3.51999 13.9327 3.85999C13.2327 4.17999 11.5227 6.45 10.8127 7.09C13.8027 7.73 15.0527 5.65999 16.8027 3.73999ZM24.7128 3.72998H19.8027L17.0427 6.84998H21.7128C21.9328 6.84998 24.3428 4.13998 24.7128 3.72998ZM31.6627 3.72998H27.2328C27.0228 3.72998 24.6128 6.32998 24.4728 6.84998H28.6627C28.8827 6.84998 31.2927 4.13998 31.6627 3.72998ZM38.6128 3.72998H34.4227C34.2027 3.72998 31.7927 6.43998 31.4227 6.84998H35.3728C35.5928 6.84998 38.1628 4.10998 38.6128 3.72998ZM45.5628 3.72998H40.8927C40.6727 3.72998 38.2627 6.43998 37.8927 6.84998H42.3228C42.5428 6.84998 45.1528 4.13998 45.5628 3.72998ZM54.6627 3.72998H47.8328L44.8328 6.84998H50.9428C51.1828 6.84998 54.1927 4.14998 54.6527 3.72998H54.6627ZM61.8528 3.72998H56.9428C56.7228 3.72998 54.1128 6.43998 53.7028 6.84998H58.1327C58.4427 6.84998 61.3428 4.15998 61.8428 3.72998H61.8528ZM71.9227 3.72998H63.8927L60.6527 6.84998H69.4027L71.9227 3.72998ZM79.5928 3.72998H73.9628L71.6827 6.84998H76.5928C76.8128 6.84998 79.2228 4.13998 79.5928 3.72998ZM89.4127 3.72998H81.5027C81.5027 3.72998 81.4727 4.11999 81.2727 4.32999C80.4627 5.15999 79.5628 5.91998 78.8728 6.84998H86.1827L89.4227 3.72998H89.4127ZM96.8428 3.72998H92.1727C91.9527 3.72998 89.2327 6.35998 88.9327 6.84998H93.1228C93.4028 6.84998 96.3128 4.13998 96.8328 3.72998H96.8428ZM104.993 3.72998H99.6028C99.3728 3.72998 96.5428 6.42998 96.1228 6.84998H101.513C101.773 6.84998 104.623 4.22998 104.993 3.72998ZM112.903 3.72998H107.513C107.273 3.72998 104.193 6.36998 103.803 6.84998H109.673L112.913 3.72998H112.903ZM121.533 3.72998H115.663C115.433 3.72998 112.583 6.38998 112.183 6.84998H117.333C117.733 6.84998 121.063 4.26998 121.523 3.72998H121.533ZM131.833 3.72998H124.043L120.563 6.84998H128.113C128.353 6.84998 131.493 4.23998 131.823 3.72998H131.833ZM141.183 3.72998H134.353C134.083 3.72998 131.343 6.20999 130.873 6.60999H137.463C137.693 6.60999 140.723 4.11998 141.173 3.72998H141.183ZM147.893 3.72998H143.703C143.473 3.72998 140.383 6.14999 139.993 6.60999H144.423L147.903 3.72998H147.893ZM152.203 3.73999C150.413 3.34999 148.523 4.94998 147.293 6.13998C147.063 6.36998 146.843 6.44998 146.933 6.84998C149.273 7.38998 150.713 5.17999 152.203 3.73999ZM155.083 3.72998C154.643 3.66998 154.373 3.72999 153.993 3.95999C153.743 4.10999 151.493 6.38999 151.733 6.60999L155.073 6.35999V3.72998H155.083ZM10.5728 9.00998C10.2128 8.98998 8.44273 8.90999 8.41273 9.14999V279.32C12.6027 278.95 16.8027 279.16 21.0127 279.09C57.9627 278.45 95.1128 278.63 131.953 277.87C139.663 277.71 147.393 277.58 155.093 277.16C155.093 276.12 155.083 275.08 155.093 274.04C155.203 263.73 155.013 253.41 155.093 243.1L149.343 251.49L143.233 258.68C142.833 258.73 142.843 258.69 142.873 258.32C142.953 256.91 148.383 249.28 149.593 247.65C151.273 245.38 153.313 243.25 155.103 241.05V229.42L149.353 237.81L131.853 260.47C132.123 258.47 133.423 256.45 134.483 254.71C138.643 247.87 144.673 240.15 149.583 233.73C151.313 231.48 153.323 229.36 155.093 227.13V217.66L149.343 226.05C146.663 228.6 144.783 232.44 141.913 234.81C141.723 234.97 141.433 235.45 141.193 235.05C142.983 230.23 146.393 226.24 149.463 222.21L149.583 221.5C150.123 221.52 150.223 221.16 150.493 220.86C152.043 219.13 153.393 217.22 155.093 215.63V44.02L148.983 51.96C148.533 52.34 148.473 51.95 148.383 51.94C148.873 50.81 149.613 49.34 150.303 48.34C150.323 48.32 150.633 48.41 150.723 48.29C152.153 46.25 153.423 44.09 155.093 42.23V23.64L142.393 42.72C142.283 43.02 141.723 43.02 141.673 43.07C142.513 40.94 143.623 38.9 144.743 36.91C145.703 35.2 150.333 28.37 150.533 27.24L155.083 20.64V9.72998C149.793 16.83 144.793 24.15 139.703 31.39C139.563 31.58 138.863 32.97 138.553 32.27C141.643 26.1 145.403 20.37 149.573 14.76C150.943 12.92 152.513 11.2 153.883 9.35999C153.943 8.86999 153.863 9.05 153.533 9C147.203 8.17 140.463 8.97998 134.123 9.00998C111.113 9.13998 88.0928 8.91999 65.0828 8.98999C46.9728 9.03999 28.6728 9.77 10.5728 9V9.00998ZM155.083 280.76C137.613 280.25 120.193 280.35 102.713 280.51C71.7828 280.79 40.3728 282.03 9.48279 281.25C9.07279 281.24 8.78274 281.17 8.42274 281V285.08L155.093 284.6V280.76H155.083ZM14.6427 288.43C14.6227 287.95 14.6527 287.47 14.6427 286.99L8.41273 286.75V338.32C9.13273 338.32 9.85276 338.3 10.5728 338.32C11.7628 338.34 12.9727 338.3 14.1727 338.32C14.2427 329.97 14.0827 321.6 14.1627 313.24C14.2427 305.2 14.9327 296.42 14.6527 288.43H14.6427ZM86.3027 289.39C86.3527 288.52 86.2627 287.62 86.3027 286.75H78.9928C78.9328 286.75 78.1727 287.03 78.1427 287.14C78.2027 288.25 78.1027 289.37 78.1427 290.48C78.5427 301.16 78.8628 311.91 79.1228 322.6C79.2528 327.84 79.1928 333.09 79.3528 338.32C80.1528 338.32 80.9527 338.31 81.7527 338.32C83.1027 338.34 84.4728 338.3 85.8328 338.32C86.0228 337.29 85.6128 336.28 85.5828 335.33C85.0628 320.01 85.4428 304.68 86.3128 289.39H86.3027ZM95.6427 289.63C95.5827 288.68 95.6827 287.7 95.6427 286.75H88.3328L88.2128 338.32C89.7228 338.3 91.2527 338.34 92.7627 338.32C93.6427 338.31 94.5227 338.32 95.4027 338.32C95.2227 331.13 95.6828 324.02 95.8728 316.84C96.1128 307.72 96.2227 298.73 95.6427 289.63ZM103.313 289.63C103.263 288.75 102.863 287.74 103.073 286.75H97.3228C98.2628 296.67 98.7627 306.64 98.5327 316.62C98.4227 321.13 97.9127 325.76 97.7927 330.27C97.7227 332.95 97.8627 335.64 97.7927 338.32C98.7527 338.32 99.7127 338.31 100.673 338.32C101.873 338.34 103.073 338.31 104.273 338.32C103.643 330.53 103.923 322.74 103.803 314.92C103.673 306.65 103.803 297.84 103.313 289.63ZM113.383 289.63C113.463 288.67 113.743 287.73 113.623 286.75H104.753C105.583 292.52 105.543 298.33 105.703 304.15C105.723 304.72 105.953 305.24 105.963 305.81C106.213 316.64 105.593 327.53 106.193 338.32C107.473 338.31 108.753 338.33 110.033 338.32C111.073 338.31 112.113 338.32 113.153 338.32C112.273 327.79 112.203 317.12 112.423 306.53C112.533 300.96 112.943 295.26 113.393 289.63H113.383ZM122.973 289.87C122.963 288.83 122.973 287.79 122.973 286.75H115.303C114.933 289.42 115.163 292.11 115.073 294.79C114.713 306.09 114.653 317.53 115.073 328.83C115.193 331.98 115.073 335.17 115.553 338.3C116.423 338.33 117.303 338.31 118.173 338.31C119.043 338.31 119.933 338.31 120.813 338.31C121.203 334.85 121.093 331.34 121.283 327.87C121.973 315.23 123.113 302.5 122.973 289.86V289.87ZM130.873 289.87C130.863 288.83 130.873 287.79 130.873 286.75H124.403C124.183 288.47 124.613 290.25 124.653 291.9C125.013 306.54 123.313 321 122.723 335.57C122.683 336.44 122.743 337.32 122.723 338.19C122.763 338.44 124.703 338.32 125.123 338.33C126.793 338.36 128.483 338.31 130.153 338.33C130.113 333.72 129.863 329.14 129.903 324.53C129.993 313.01 131.003 301.45 130.873 289.88V289.87ZM139.983 290.11C139.973 288.99 139.983 287.87 139.983 286.75H132.553V338.32C133.353 338.32 134.153 338.31 134.953 338.32C136.143 338.34 137.353 338.31 138.553 338.32C138.653 335.01 138.423 331.67 138.543 328.36C139.023 315.45 140.113 303.15 139.993 290.11H139.983ZM146.453 290.35C146.483 289.16 146.433 287.95 146.453 286.75H141.903C142.163 293.42 142.503 300.09 142.393 306.79C142.263 314.84 141.493 322.94 141.173 330.99C141.073 333.39 141.433 335.84 140.943 338.19C140.943 338.41 143.413 338.31 143.823 338.31C144.933 338.32 146.063 338.31 147.173 338.31C146.323 333.02 146.593 327.68 146.463 322.35C146.223 312.29 146.893 301.15 146.213 291.3C146.453 291.23 146.433 291.02 146.453 290.82C146.473 290.66 146.453 290.5 146.453 290.34V290.35ZM155.083 286.75H148.133C148.253 294.14 147.983 301.55 148.133 308.95C148.263 315.68 148.493 322.58 148.863 329.32C149.023 332.31 149.453 335.32 149.583 338.32H155.093V286.75H155.083ZM23.7527 288.91C23.7427 288.27 23.7527 287.63 23.7527 286.99H16.3228L16.5627 338.32C17.2827 338.32 18.0028 338.3 18.7228 338.32C20.2328 338.35 21.7627 338.3 23.2727 338.32C23.2727 331.88 22.9827 325.45 23.0227 319C23.0827 309.03 23.9627 298.88 23.7527 288.91ZM32.6128 288.91C32.5928 288.27 32.6228 287.63 32.6128 286.99H25.6627L25.9027 338.32C26.7027 338.32 27.5027 338.31 28.3027 338.32C29.5727 338.34 30.8627 338.3 32.1427 338.32C31.8527 334.22 31.8427 330.08 31.8927 325.96C32.0527 313.69 32.9128 301.2 32.6228 288.91H32.6128ZM40.7627 288.91C40.7927 288.52 41.2527 287.65 41.0027 286.99H34.2927L34.5327 338.32C35.4127 338.31 36.2927 338.34 37.1727 338.32C37.8927 338.3 38.6128 338.33 39.3328 338.32C39.0728 336.45 39.0428 334.57 39.0828 332.67C39.2528 323.75 39.9427 314.75 40.3027 305.83C40.5327 300.2 40.3927 294.56 40.7727 288.91H40.7627ZM50.8328 289.15C50.8528 288.43 50.8128 287.71 50.8328 286.99H42.6827L41.7228 338.32C42.7628 338.32 43.8028 338.31 44.8428 338.32C46.9928 338.34 49.1628 338.3 51.3128 338.32C50.4828 328.17 50.9028 317.93 50.8428 307.73C50.8028 301.5 50.6428 295.41 50.8328 289.15ZM59.9428 289.15C59.9728 288.53 60.3827 287.73 60.1827 286.99H52.5127C52.6627 291.11 52.6428 295.23 52.7428 299.35C53.0028 310.38 52.8928 321.68 53.4728 332.68C53.5728 334.56 53.5528 336.43 53.7128 338.32C54.7528 338.31 55.7928 338.34 56.8328 338.32C57.6328 338.31 58.4328 338.33 59.2328 338.32C59.3628 329.09 59.0628 319.84 59.2228 310.61C59.3528 303.49 59.6528 296.29 59.9528 289.15H59.9428ZM69.5227 289.39C69.5127 288.59 69.5227 287.79 69.5227 286.99H61.6128C61.5428 294.46 61.7028 301.95 61.6128 309.43C61.5428 315.85 61.1728 322.42 61.1128 328.84C61.0828 332.01 61.1128 335.17 61.3628 338.32C62.3228 338.32 63.2828 338.31 64.2428 338.32C66.0728 338.34 67.9227 338.3 69.7527 338.32C69.5927 336.6 69.3227 334.65 69.2627 332.94C68.7727 318.44 69.7527 303.86 69.5127 289.4L69.5227 289.39ZM76.4728 289.39C76.4628 288.59 76.4828 287.79 76.4728 286.99H70.9628C71.2028 290.71 71.3128 294.41 71.4428 298.14C71.4628 298.6 71.6728 299.06 71.6928 299.57C72.0728 312.47 71.2027 325.44 71.9227 338.32C72.9627 338.3 74.0027 338.34 75.0427 338.32C75.6827 338.31 76.3228 338.33 76.9628 338.32C76.3628 326.16 76.3428 314.05 76.2428 301.86C76.2428 301.06 76.2428 300.26 76.2428 299.46C76.2128 297.37 76.0227 295.29 76.0027 293.22H76.4828C76.5028 292.58 76.4628 291.94 76.4828 291.3C76.5028 290.66 76.4928 290.02 76.4828 289.38L76.4728 289.39Z" fill="#050505"/>
<path d="M167.303 345.51V348.15C166.873 348.32 166.533 348.36 166.063 348.33C149.313 347.32 132.393 348.11 115.673 348.16C84.9929 348.24 54.3029 348.07 23.6229 348.16L14.5228 347.65L5.30285 359.42L13.5629 359.17L15.1229 358.44C15.4029 358.05 12.2428 353.24 11.9028 352.46C11.7528 352.12 11.8828 351.8 12.1528 351.74C13.0228 351.56 15.8529 356.46 16.4829 357.24L21.3729 354.5C22.0829 353.88 19.8029 351.83 19.4429 351.15C19.2429 350.77 19.1229 350.53 19.2129 350.07C19.8029 349.46 22.3429 352.98 22.9829 353.15C24.0029 353.43 25.4928 351.55 25.9228 351.99C26.6228 352.7 23.8928 353.54 24.0228 354.24L27.7129 357.99L34.3029 354.27C34.3029 353.88 31.2028 351.53 31.6728 350.55C32.2228 349.98 35.0729 353.35 35.8729 353.43C37.6529 353.2 41.2028 350.26 42.7628 350.59C43.9828 350.84 46.6228 354.53 47.8828 355.32C49.9928 353.94 52.7428 352.89 54.7628 351.47C55.1728 351.18 55.1628 350.66 55.7528 350.54C57.6128 350.18 56.8229 350.93 57.1229 351.45C57.2929 351.75 61.8129 354.53 62.4629 355.1L70.1229 350.31C70.7329 350.69 70.1029 351.18 70.4629 351.64C70.7729 352.05 73.8829 354.44 74.4829 354.83C74.8429 355.06 75.1429 355.4 75.6229 355.36C76.9529 354.95 83.2128 350.34 84.0228 350.56C85.0128 350.83 83.7329 351.7 83.6929 351.91C83.5729 352.57 87.8229 355.17 88.5829 355.59L95.7728 351.04L105.373 357.51L110.993 353.67C111.463 352.98 107.473 351.36 108.123 350.8C109.723 350.62 110.813 352.13 112.323 352.47C113.193 352.44 116.443 348.67 115.633 351.3L113.403 353.08L119.753 357.03L123.463 354.88C123.883 354.27 120.023 351.98 120.593 350.81L124.823 353.88L130.253 351.08L136.083 355.83L142.413 351.66C142.853 351.37 142.243 351.17 142.193 350.9C142.383 349.76 143.133 350.82 143.683 350.77C144.303 350.71 144.963 349.66 145.873 349.61C146.433 349.58 146.333 350.26 146.243 350.65C146.173 350.94 144.713 351.35 145.153 352.03L151.653 356.35L157.263 353.22C157.593 352.74 154.833 350.99 154.503 350.35C154.333 350.02 154.493 349.68 154.753 349.63C155.323 349.52 157.993 352.08 158.823 352.26C159.713 352.12 161.533 350.34 162.293 350.7C164.093 351.55 160.143 352.91 160.143 353.35C160.893 353.85 162.373 355.46 163.183 355.59C164.243 355.76 166.063 353.44 167.323 353.47V354.67L164.673 356.48C164.553 357.2 166.643 358.46 167.323 358.75V365.23C160.713 365.97 153.973 365.76 147.303 365.72C104.253 365.46 60.9728 365.33 17.9128 364.5C13.1028 364.41 8.26281 364.79 3.50281 364.05C2.67281 361.89 2.03283 360.42 3.40283 358.39C5.18283 355.76 9.46284 351.15 11.7828 348.79C12.1128 348.45 13.7329 346.77 13.9529 346.66C15.3329 345.91 21.2129 346.34 23.1829 346.29C41.3829 345.81 59.6229 345.77 77.8229 346.05C106.623 344.57 136.323 347.16 165.053 345.81C165.833 345.77 166.543 345.52 167.323 345.56L167.303 345.51ZM42.6628 351.29L36.6929 354.4L40.7628 359.07C40.8728 359.16 40.9928 359.18 41.1328 359.21C41.6828 359.3 46.2028 356.49 46.2628 356.17L42.6528 351.3L42.6628 351.29ZM69.4128 351.79L63.5428 355.94C63.5428 356.21 67.2729 359.08 67.7429 359.17C70.6029 359.7 71.8929 358.12 73.8229 356.39L69.4128 351.79ZM55.5629 352.03L49.0128 356.31C48.7428 356.77 50.6629 358.99 50.8229 359.07C51.2129 359.26 56.3728 359.29 56.8928 359.14C57.5728 358.93 59.6529 356.72 60.5529 356.32C60.7829 356.04 60.5729 355.92 60.4329 355.71C60.2929 355.5 56.7829 352.41 56.4829 352.23C56.1229 352.02 56.0129 351.93 55.5729 352.05L55.5629 352.03ZM134.953 357.02C135.053 356.67 134.853 356.62 134.723 356.42C134.443 356.01 130.763 352.33 130.473 352.25L126.093 354.63C126.013 355.05 126.313 355.22 126.563 355.47C127.983 356.85 130.043 358.03 131.533 359.4C132.393 359.63 134.033 357.17 134.953 357.02ZM103.793 359.18L95.9729 352.5L90.1428 356.42C90.0528 356.77 90.3628 356.81 90.5328 356.98C90.9628 357.38 93.8928 359.26 94.3828 359.36C97.1828 359.94 100.913 358.93 103.793 359.17V359.18ZM150.013 357.96L149.933 357.27L143.903 352.51C143.613 352.45 139.963 354.99 139.433 355.4C138.953 355.77 137.893 356.36 137.823 356.92L141.073 359.43C143.133 359.18 146.083 359.8 148.013 359.43C148.813 359.28 149.173 358.14 150.023 357.97L150.013 357.96ZM77.0028 356.75C78.1428 357.23 79.5128 359.05 80.6528 359.2C81.2228 359.28 83.7429 359.28 84.2129 359.14C84.8029 358.96 86.2728 357.24 87.0128 356.9L82.3429 352.71C81.6229 353.34 77.2429 355.69 76.9929 356.11C76.9029 356.26 76.9029 356.6 76.9929 356.76L77.0028 356.75ZM117.903 357.77C116.543 357.41 113.103 354.12 112.063 354.12C111.853 354.12 111.653 354.16 111.473 354.27L106.423 358.34C106.493 358.82 107.323 359.33 107.763 359.41C108.993 359.63 114.843 359.61 116.153 359.43C116.793 359.34 118.323 358.48 117.913 357.77H117.903ZM153.433 357.72C154.413 357.82 155.443 359.17 156.223 359.37C158.893 360.06 159.923 358.34 161.793 356.91L158.573 354.16C158.283 354.16 153.613 356.82 153.453 357.07C153.353 357.24 153.393 357.52 153.433 357.73V357.72ZM25.6628 359.18C25.4628 358.51 24.7929 357.81 24.3529 357.26C23.9929 356.82 22.5729 355.1 22.1929 355.1C21.9129 355.1 17.4529 357.76 17.3029 358.01C17.0929 358.38 17.6729 359.18 17.8729 359.18H25.6628ZM38.3729 359.18C38.4729 358.76 38.2028 358.7 38.0128 358.46C37.6828 358.02 35.4229 355.61 35.1229 355.58C34.6229 355.53 30.2728 358.02 29.6628 358.51C29.3928 358.72 29.1628 358.75 29.2628 359.19H38.3729V359.18ZM128.963 359.42L124.733 355.61L121.053 357.75C120.833 358.07 122.723 359.42 122.853 359.42H128.963ZM64.4929 359.18C63.9029 358.3 62.8829 357.59 61.9829 357.02C61.5629 357.01 59.9328 358.28 59.5228 358.63C59.3528 358.78 59.0729 358.62 59.2229 359.18H64.4929ZM48.6729 359.18L47.3329 357.27C47.1729 357.23 44.7429 358.75 44.5929 359.18H48.6628H48.6729ZM77.6729 359.42C78.0729 359.07 75.5529 357.58 75.3629 357.29L72.8828 359.06L77.6729 359.42ZM90.6129 359.42C91.0329 359.05 88.7128 357.85 88.5428 357.53L86.3029 359.06L90.6129 359.42ZM138.303 359.42C136.743 357.71 136.563 357.28 134.773 358.87C134.613 359.01 134.313 358.85 134.463 359.42H138.293H138.303ZM160.833 359.42H164.903C165.043 358.86 164.773 359.02 164.603 358.87C164.323 358.63 163.173 357.74 162.913 357.78L160.833 359.42ZM152.683 359.42C152.383 357.43 149.833 359.32 150.643 359.42H152.683Z" fill="#050505"/>
<path d="M167.303 348.15V353.43C166.043 353.4 164.223 355.72 163.163 355.55C162.343 355.42 160.863 353.81 160.123 353.31C160.123 352.87 164.073 351.51 162.273 350.66C161.513 350.3 159.693 352.08 158.803 352.22C157.973 352.04 155.303 349.48 154.733 349.59C154.473 349.64 154.313 349.99 154.483 350.31C154.813 350.95 157.573 352.7 157.243 353.18L151.633 356.31L145.133 351.99C144.693 351.31 146.153 350.91 146.223 350.61C146.313 350.23 146.413 349.54 145.853 349.57C144.943 349.63 144.283 350.68 143.663 350.73C143.123 350.78 142.363 349.72 142.173 350.86C142.223 351.13 142.833 351.33 142.393 351.62L136.063 355.79L130.233 351.04L124.803 353.84L120.573 350.77C120.013 351.94 123.863 354.23 123.443 354.84L119.733 356.99L113.383 353.04L115.613 351.26C116.423 348.63 113.173 352.4 112.303 352.43C110.793 352.09 109.703 350.58 108.103 350.76C107.453 351.32 111.443 352.94 110.973 353.63L105.353 357.47L95.7532 351L88.5632 355.55C87.8032 355.13 83.5532 352.53 83.6732 351.87C83.7132 351.66 84.9932 350.79 84.0032 350.52C83.1932 350.3 76.9333 354.91 75.6033 355.32C75.1233 355.36 74.8233 355.02 74.4633 354.79C73.8633 354.4 70.7532 352.01 70.4432 351.6C70.0932 351.14 70.7233 350.65 70.1033 350.27L62.4432 355.06C61.7832 354.49 57.2733 351.71 57.1033 351.41C56.8033 350.89 57.5933 350.14 55.7333 350.5C55.1433 350.61 55.1533 351.14 54.7433 351.43C52.7133 352.85 49.9733 353.9 47.8633 355.28C46.6033 354.49 43.9633 350.8 42.7433 350.55C41.1933 350.23 37.6333 353.16 35.8533 353.39C35.0433 353.31 32.1932 349.94 31.6532 350.51C31.1832 351.48 34.2832 353.83 34.2832 354.23L27.6932 357.95L24.0032 354.2C23.8732 353.5 26.6032 352.66 25.9032 351.95C25.4632 351.51 23.9833 353.4 22.9633 353.11C22.3233 352.93 19.7832 349.42 19.1932 350.03C19.1032 350.49 19.2232 350.73 19.4232 351.11C19.7732 351.79 22.0533 353.84 21.3533 354.46L16.4633 357.2C15.8333 356.42 13.0032 351.52 12.1332 351.7C11.8632 351.76 11.7432 352.08 11.8832 352.42C12.2232 353.2 15.3833 358.01 15.1033 358.4L13.5432 359.13L5.2832 359.38L14.5032 347.61L23.6033 348.12C54.2833 348.03 84.9732 348.2 115.653 348.12C132.383 348.08 149.293 347.28 166.043 348.29C166.513 348.32 166.853 348.28 167.283 348.11L167.303 348.15Z" fill="#2884C2"/>
<path d="M167.303 321.53V325.37L158.913 325.13V321.05L167.303 321.53Z" fill="#D9D5CC"/>
<path d="M167.302 358.71C166.622 358.41 164.532 357.16 164.652 356.44L167.302 354.63V358.71Z" fill="#2884C2"/>
<path d="M149.573 14.7697C145.403 20.3797 141.632 26.0997 138.552 32.2797C138.542 32.3097 138.182 32.1797 138.002 32.5697C137.852 32.8797 137.173 34.4897 137.363 34.6697L138.333 34.3197L150.422 20.2797C150.382 22.2897 150.882 25.3397 150.542 27.2297C150.342 28.3597 145.712 35.1997 144.752 36.8997C143.632 38.8897 142.512 40.9197 141.682 43.0597C140.972 43.7497 140.393 45.1797 141.873 44.6797L150.312 33.4597V48.3297C149.623 49.3197 148.882 50.7997 148.402 51.9297C148.252 51.9097 148.082 51.9297 147.932 51.9297L147.203 53.7297C147.153 54.0897 147.203 54.1597 147.573 54.0897C148.423 53.9397 149.473 51.7997 150.203 51.2097C149.933 63.9497 150.153 76.8897 150.093 89.7097C150.093 90.3297 149.833 90.9197 149.833 91.6097C149.733 114.28 149.933 136.95 149.843 159.62C147.463 157.18 142.922 157 140.502 159.5C139.402 160.64 139.622 162.35 139.512 162.47C139.452 162.54 138.902 162.54 138.652 162.68C136.322 163.98 135.863 166.58 135.693 169.08C135.253 175.5 135.413 185.21 135.943 191.63C136.123 193.82 136.403 195.12 138.583 195.95C142.123 197.3 143.043 193.97 143.373 191.15C143.643 188.77 143.373 186.48 143.373 184.21C143.373 180.89 143.392 177.56 143.382 174.25C143.972 174.66 144.373 174.7 145.062 174.73C144.722 178.08 144.703 181.77 144.812 185.17C144.832 185.68 145.043 186.14 145.062 186.6C145.142 188.53 145.063 197 146.743 197.87C147.863 198.45 148.292 196.71 148.542 195.83C150.432 189.17 148.072 180.42 148.422 173.52C148.522 173.44 149.573 172.39 149.623 172.32V221.49L149.502 222.2C146.432 226.23 143.023 230.23 141.233 235.04C141.473 235.44 141.763 234.96 141.953 234.8C144.813 232.44 146.702 228.59 149.382 226.04C149.782 226.29 149.623 226.95 149.623 227.36C149.653 229.48 149.593 231.6 149.623 233.72C144.703 240.14 138.682 247.87 134.522 254.7C133.462 256.44 132.152 258.45 131.892 260.46L149.392 237.8C149.422 240.64 149.352 243.48 149.392 246.32C149.392 246.73 149.242 247.39 149.632 247.64C148.422 249.27 142.992 256.9 142.912 258.31C142.892 258.69 142.882 258.73 143.272 258.67L149.382 251.48V274.03C140.472 274.47 131.572 274.31 122.652 274.5C90.0225 275.18 57.2625 275.92 24.6525 276.44C20.3725 276.51 16.0825 276.25 11.8225 276.67C11.9225 194.44 11.5825 112.18 11.3525 29.9797L11.1025 14.7597C13.5325 14.8897 15.9825 14.8897 18.4225 14.9897C34.3525 15.6297 50.4025 15.0197 66.3325 14.9897C87.1025 14.9497 107.902 14.9297 128.642 14.7497C135.632 14.6897 142.633 14.8097 149.623 14.7497L149.573 14.7697ZM29.9825 201.61C30.3725 202.51 30.3725 203.27 31.4625 203.61C33.1125 204.12 35.3125 203.44 37.0425 204.02C65.4825 204.11 93.9724 203.76 122.382 204.24C124.772 204.28 130.652 205.84 130.162 201.85C131.422 201.28 131.723 200.7 131.853 199.34L131.623 32.6197C131.383 31.9597 130.852 31.5897 130.182 31.4197L31.7825 31.3097C30.0825 31.2997 29.1825 32.3897 29.2625 34.0697V199.34C29.2225 200.2 29.6726 200.87 29.9926 201.61H29.9825Z" fill="#D9D5CC"/>
<path d="M10.5731 9.01009L11.0531 14.7701L11.3031 29.9901C11.5331 112.19 11.8731 194.45 11.7731 276.68C16.0331 276.26 20.3231 276.52 24.6031 276.45C57.2132 275.93 89.9731 275.19 122.603 274.51C131.533 274.32 140.423 274.48 149.333 274.04C151.173 273.95 153.223 273.44 155.083 274.04C155.073 275.08 155.083 276.12 155.083 277.16C147.383 277.58 139.653 277.71 131.943 277.87C95.0931 278.63 57.9531 278.45 21.0031 279.09C16.7931 279.16 12.6031 278.96 8.41309 279.32V9.15011C8.44309 8.91011 10.2131 9.00009 10.5731 9.01009Z" fill="#FDFDFD"/>
<path d="M149.573 221.51V172.34C151.743 169.37 152.533 162.41 149.813 159.63C149.903 136.97 149.703 114.29 149.803 91.62C149.803 90.94 150.063 90.35 150.063 89.72C150.123 76.9 149.902 63.96 150.172 51.22C149.432 51.81 148.392 53.95 147.542 54.1C147.172 54.16 147.122 54.1 147.172 53.74L147.902 51.94C148.052 51.94 148.223 51.92 148.373 51.94C148.463 51.95 148.523 52.35 148.973 51.96L155.083 44.02V215.63C153.383 217.22 152.033 219.14 150.483 220.86C150.203 221.17 150.113 221.53 149.573 221.5V221.51Z" fill="#7C7C7C"/>
<path d="M10.5723 9.01007C28.6723 9.78007 46.9723 9.05009 65.0823 9.00009C88.0923 8.93009 111.112 9.15008 134.122 9.02008C140.462 8.98008 147.202 8.17007 153.532 9.01007C153.862 9.05007 153.942 8.88008 153.882 9.37008C152.512 11.2101 150.942 12.9301 149.572 14.7701C142.582 14.8301 135.582 14.7001 128.592 14.7701C107.852 14.9501 87.0522 14.9701 66.2822 15.0101C50.3522 15.0401 34.3023 15.6501 18.3723 15.0101C15.9323 14.9101 13.4822 14.9101 11.0522 14.7801L10.5723 9.02008V9.01007Z" fill="#7C7C7C"/>
<path d="M155.083 280.76V284.6L8.41309 285.08V281C8.77309 281.18 9.07314 281.24 9.47314 281.25C40.3631 282.02 71.7731 280.78 102.703 280.51C120.183 280.35 137.613 280.25 155.073 280.76H155.083Z" fill="#7C7C7C"/>
<path d="M155.083 286.75V338.32H149.573C149.453 335.32 149.023 332.32 148.853 329.32C148.483 322.58 148.253 315.68 148.123 308.95C147.983 301.56 148.253 294.14 148.123 286.75H155.073H155.083Z" fill="#7C7C7C"/>
<path d="M50.8329 289.15C50.6429 295.41 50.8029 301.5 50.8429 307.73C50.9029 317.93 50.4829 328.17 51.3129 338.32C49.1629 338.3 46.9929 338.34 44.8429 338.32C44.7929 334.68 44.9129 331.04 44.8429 327.4C44.8329 326.77 44.5929 326.19 44.5829 325.5C44.4229 313.38 45.1228 301.2 43.6328 289.15H50.8229H50.8329Z" fill="#D9D5CC"/>
<path d="M69.5227 289.39C69.7627 303.85 68.7827 318.44 69.2727 332.93C69.3327 334.64 69.6027 336.59 69.7627 338.31C67.9327 338.3 66.0827 338.33 64.2527 338.31L63.0527 289.38H69.5227V289.39Z" fill="#D9D5CC"/>
<path d="M86.3025 289.39C85.4325 304.68 85.0525 320.01 85.5725 335.33C85.6025 336.28 86.0125 337.29 85.8225 338.32C84.4725 338.3 83.1026 338.34 81.7426 338.32C82.5826 330.85 81.2525 323.34 80.7825 315.89C80.2325 307.05 80.0525 298.19 79.1025 289.39H86.2925H86.3025Z" fill="#D9D5CC"/>
<path d="M122.973 289.87C123.123 302.51 121.983 315.24 121.283 327.88C121.093 331.35 121.203 334.87 120.813 338.32C119.933 338.32 119.053 338.32 118.173 338.32L116.973 289.63L122.963 289.87H122.973Z" fill="#D9D5CC"/>
<path d="M95.6432 289.63C96.2232 298.73 96.1133 307.72 95.8733 316.84C95.6833 324.01 95.2332 331.13 95.4032 338.32C94.5232 338.32 93.6432 338.31 92.7632 338.32C92.5432 335.64 92.0432 332.96 91.8032 330.28C90.5932 316.68 92.3033 302.89 90.3633 289.39L95.6332 289.63H95.6432Z" fill="#D9D5CC"/>
<path d="M130.873 289.87C131.003 301.43 129.993 313 129.903 324.52C129.863 329.13 130.113 333.72 130.153 338.32C128.483 338.3 126.793 338.35 125.123 338.32C125.643 334 125.213 329.59 125.353 325.24C125.713 314.06 127.373 302.07 126.563 290.95C126.533 290.58 126.343 290.24 126.323 289.87H130.873Z" fill="#D9D5CC"/>
<path d="M139.983 290.11C140.113 303.15 139.013 315.45 138.533 328.36C138.413 331.67 138.643 335.01 138.543 338.32C137.343 338.3 136.143 338.34 134.943 338.32C135.023 330.93 134.843 323.52 134.943 316.12C135.013 309.94 135.643 303.6 135.443 297.41C135.363 295.03 134.913 292.51 134.953 290.1H139.983V290.11Z" fill="#D9D5CC"/>
<path d="M23.7526 288.91C23.9626 298.88 23.0826 309.03 23.0226 319C22.9826 325.45 23.2626 331.88 23.2726 338.32C21.7626 338.3 20.2327 338.35 18.7227 338.32C19.4427 335.61 19.0726 332.8 19.1926 330.04C19.3026 327.44 19.6326 324.75 19.6926 322.15C19.9426 310.97 19.5726 299.8 18.9626 288.68L23.7526 288.92V288.91Z" fill="#D9D5CC"/>
<path d="M32.6128 288.91C32.9028 301.19 32.0427 313.69 31.8827 325.96C31.8327 330.09 31.8427 334.22 32.1327 338.32C30.8627 338.3 29.5727 338.34 28.2927 338.32L28.0527 288.91H32.6028H32.6128Z" fill="#D9D5CC"/>
<path d="M92.7726 338.32C91.2626 338.34 89.7327 338.3 88.2227 338.32L88.3427 286.75H95.6526C95.6926 287.7 95.5926 288.68 95.6526 289.63L90.3826 289.39C92.3226 302.9 90.6126 316.68 91.8226 330.28C92.0626 332.96 92.5626 335.64 92.7826 338.32H92.7726Z" fill="#7C7C7C"/>
<path d="M59.9429 289.15C59.6429 296.29 59.3429 303.49 59.2129 310.61C59.0529 319.84 59.3529 329.09 59.2229 338.32C58.4229 338.32 57.6229 338.31 56.8229 338.32L54.4229 289.15H59.9329H59.9429Z" fill="#D9D5CC"/>
<path d="M113.383 289.63C112.933 295.26 112.533 300.96 112.413 306.53C112.193 317.12 112.263 327.79 113.143 338.32C112.103 338.32 111.063 338.31 110.023 338.32C109.993 337.41 110.073 336.48 110.023 335.56C109.733 330.77 109.263 325.95 109.053 321.18C108.683 312.58 109.023 303.6 108.073 295.06C107.873 293.24 107.543 291.42 107.143 289.64H113.373L113.383 289.63Z" fill="#D9D5CC"/>
<path d="M14.6425 288.43C14.9225 296.42 14.2325 305.2 14.1525 313.24C14.0725 321.6 14.2325 329.96 14.1625 338.32C12.9725 338.3 11.7625 338.34 10.5625 338.32V288.19L14.6324 288.43H14.6425Z" fill="#D9D5CC"/>
<path d="M110.023 338.32C108.753 338.33 107.463 338.31 106.183 338.32C105.583 327.53 106.203 316.64 105.953 305.81C105.943 305.24 105.713 304.72 105.693 304.15C105.533 298.33 105.573 292.52 104.743 286.75H113.613C113.733 287.73 113.453 288.67 113.373 289.63H107.143C107.543 291.41 107.873 293.24 108.073 295.06C109.023 303.6 108.683 312.59 109.053 321.18C109.263 325.96 109.723 330.77 110.023 335.56C110.083 336.47 109.993 337.4 110.023 338.32Z" fill="#7C7C7C"/>
<path d="M103.313 289.63C103.813 297.84 103.673 306.65 103.803 314.92C103.933 322.74 103.643 330.53 104.273 338.32C103.073 338.31 101.873 338.33 100.673 338.32L100.443 301.25C100.063 297.4 100.113 293.49 99.7129 289.63H103.313Z" fill="#D9D5CC"/>
<path d="M18.7125 338.32C17.9925 338.31 17.2725 338.33 16.5525 338.32L16.3125 286.99H23.7426C23.7426 287.63 23.7326 288.27 23.7426 288.91L18.9525 288.67C19.5625 299.79 19.9325 310.96 19.6825 322.14C19.6225 324.74 19.2925 327.44 19.1825 330.03C19.0625 332.8 19.4325 335.6 18.7125 338.31V338.32Z" fill="#7C7C7C"/>
<path d="M118.172 338.32C117.302 338.32 116.422 338.34 115.552 338.31C115.072 335.18 115.192 331.99 115.072 328.84C114.652 317.54 114.712 306.11 115.072 294.8C115.162 292.11 114.932 289.43 115.302 286.76H122.972C122.972 287.8 122.962 288.84 122.972 289.88L116.982 289.64L118.182 338.33L118.172 338.32Z" fill="#7C7C7C"/>
<path d="M40.7631 288.91C40.3831 294.56 40.5231 300.2 40.2931 305.83C39.9331 314.76 39.2431 323.75 39.0731 332.67C39.0331 334.56 39.0631 336.45 39.3231 338.32C38.6031 338.33 37.8831 338.3 37.1631 338.32L36.2031 288.91H40.7531H40.7631Z" fill="#D9D5CC"/>
<path d="M155.083 274.04C153.213 273.44 151.173 273.95 149.333 274.04V251.49L155.083 243.1C155.003 253.41 155.203 263.73 155.083 274.04Z" fill="#7C7C7C"/>
<path d="M134.953 338.32C134.153 338.31 133.353 338.32 132.553 338.32V286.75H139.983C139.983 287.87 139.973 288.99 139.983 290.11H134.953C134.913 292.51 135.373 295.03 135.443 297.41C135.643 303.6 135.013 309.94 134.943 316.12C134.853 323.52 135.033 330.92 134.943 338.32H134.953Z" fill="#7C7C7C"/>
<path d="M56.823 338.32C55.783 338.34 54.743 338.31 53.703 338.32C53.543 336.44 53.563 334.56 53.463 332.68C52.893 321.67 52.993 310.38 52.733 299.35C52.633 295.23 52.6529 291.1 52.5029 286.99H60.173C60.373 287.73 59.963 288.53 59.933 289.15H54.423L56.823 338.32Z" fill="#7C7C7C"/>
<path d="M28.3031 338.32C27.5031 338.31 26.7031 338.32 25.9031 338.32L25.6631 286.99H32.6132C32.6232 287.63 32.5932 288.27 32.6132 288.91H28.0631L28.3031 338.32Z" fill="#7C7C7C"/>
<path d="M75.0331 338.32C74.0031 338.34 72.9531 338.3 71.9131 338.32C71.1931 325.45 72.0631 312.47 71.6831 299.57C71.6631 299.06 71.4531 298.6 71.4331 298.14C71.3031 294.41 71.1931 290.71 70.9531 286.99H76.4631C76.4731 287.79 76.4531 288.59 76.4631 289.39L72.8632 289.51L75.0231 338.32H75.0331Z" fill="#7C7C7C"/>
<path d="M100.683 338.32C99.723 338.31 98.763 338.32 97.803 338.32C97.863 335.64 97.723 332.95 97.803 330.27C97.923 325.76 98.433 321.13 98.543 316.62C98.773 306.64 98.273 296.67 97.333 286.75H103.083C102.873 287.73 103.273 288.75 103.323 289.63H99.723C100.123 293.5 100.073 297.4 100.453 301.25L100.683 338.32Z" fill="#7C7C7C"/>
<path d="M44.8427 338.32C43.8027 338.31 42.7627 338.32 41.7227 338.32L42.6826 286.99H50.8326C50.8126 287.71 50.8526 288.43 50.8326 289.15H43.6426C45.1326 301.2 44.4227 313.37 44.5927 325.5C44.5927 326.18 44.8427 326.77 44.8527 327.4C44.9127 331.04 44.7927 334.69 44.8527 338.32H44.8427Z" fill="#7C7C7C"/>
<path d="M64.2528 338.32C63.2928 338.31 62.3329 338.32 61.3729 338.32C61.1329 335.16 61.0929 332.01 61.1229 328.84C61.1829 322.42 61.5529 315.85 61.6229 309.43C61.7029 301.95 61.5429 294.47 61.6229 286.99H69.5328C69.5328 287.79 69.5228 288.59 69.5328 289.39H63.0628L64.2628 338.32H64.2528Z" fill="#7C7C7C"/>
<path d="M10.5731 338.32C9.85312 338.31 9.13309 338.33 8.41309 338.32V286.75L14.6431 286.99C14.6531 287.47 14.6231 287.95 14.6431 288.43L10.5731 288.19V338.32Z" fill="#7C7C7C"/>
<path d="M37.173 338.32C36.293 338.34 35.413 338.31 34.533 338.32L34.293 286.99H41.0029C41.2529 287.65 40.7929 288.52 40.7629 288.91H36.213L37.173 338.32Z" fill="#7C7C7C"/>
<path d="M125.123 338.32C124.703 338.32 122.763 338.44 122.723 338.18C122.753 337.31 122.693 336.43 122.723 335.56C123.313 320.99 125.012 306.54 124.652 291.89C124.612 290.24 124.182 288.47 124.402 286.74H130.873C130.873 287.78 130.863 288.82 130.873 289.86H126.323C126.343 290.23 126.532 290.57 126.562 290.94C127.372 302.06 125.723 314.05 125.353 325.23C125.213 329.58 125.643 333.99 125.123 338.31V338.32Z" fill="#7C7C7C"/>
<path d="M81.7429 338.32C80.9429 338.31 80.1429 338.32 79.3429 338.32C79.1829 333.09 79.2429 327.83 79.1129 322.6C78.8529 311.91 78.5328 301.16 78.1328 290.48C78.0928 289.37 78.1928 288.25 78.1328 287.14C78.1628 287.04 78.9229 286.75 78.9829 286.75H86.2928C86.2528 287.62 86.3428 288.52 86.2928 289.39H79.1029C80.0529 298.19 80.2328 307.05 80.7828 315.89C81.2428 323.34 82.5829 330.84 81.7429 338.32Z" fill="#7C7C7C"/>
<path d="M76.473 289.39C76.483 290.03 76.493 290.67 76.473 291.31H75.993C75.993 291.95 75.993 292.59 75.993 293.23C76.013 295.3 76.203 297.38 76.233 299.47H75.7529V301.72L76.233 301.87C76.333 314.06 76.353 326.17 76.953 338.33C76.313 338.34 75.673 338.31 75.033 338.33L72.873 289.52L76.473 289.4V289.39Z" fill="#D9D5CC"/>
<path d="M143.822 338.32C143.412 338.32 140.952 338.42 140.942 338.2C141.442 335.85 141.082 333.39 141.172 331C141.492 322.95 142.262 314.85 142.392 306.8C142.502 300.1 142.162 293.44 141.902 286.76H146.452C146.432 287.95 146.482 289.16 146.452 290.36L143.342 290.12C143.962 293.58 143.712 297.07 143.812 300.56C144.132 312.03 144.492 324.01 143.812 335.56C143.762 336.48 143.872 337.41 143.812 338.33L143.822 338.32Z" fill="#7C7C7C"/>
<path d="M146.453 290.35C146.453 290.51 146.473 290.67 146.453 290.83H145.973C145.873 291.08 146.213 291.28 146.213 291.31C146.893 301.16 146.223 312.3 146.463 322.36C146.593 327.69 146.322 333.03 147.172 338.32C146.062 338.32 144.933 338.33 143.823 338.32C143.873 337.4 143.763 336.47 143.823 335.55C144.503 324.01 144.143 312.02 143.823 300.55C143.723 297.06 143.973 293.57 143.353 290.11L146.463 290.35H146.453Z" fill="#D9D5CC"/>
<path d="M141.662 43.0701C141.722 43.0201 142.272 43.0302 142.382 42.7202L155.082 23.6401V42.2301C153.412 44.0901 152.142 46.2601 150.712 48.2901C150.622 48.4101 150.302 48.3201 150.292 48.3401V33.4702L141.852 44.6902C140.372 45.1902 140.952 43.7501 141.662 43.0701Z" fill="#7C7C7C"/>
<path d="M150.533 27.24C150.873 25.34 150.373 22.29 150.413 20.29L138.323 34.33L137.353 34.68C137.163 34.5 137.843 32.89 137.993 32.58C138.183 32.19 138.533 32.31 138.543 32.29C138.853 32.99 139.563 31.6 139.693 31.41C144.783 24.17 149.783 16.85 155.073 9.75V20.66L150.522 27.26L150.533 27.24Z" fill="#7C7C7C"/>
<path d="M149.572 247.66C149.172 247.41 149.332 246.75 149.332 246.34C149.292 243.5 149.362 240.66 149.332 237.82L155.082 229.43V241.06C153.292 243.25 151.252 245.39 149.572 247.66Z" fill="#7C7C7C"/>
<path d="M149.573 233.75C149.553 231.63 149.603 229.51 149.573 227.39C149.573 226.98 149.723 226.32 149.333 226.07L155.083 217.68V227.15C153.303 229.37 151.293 231.49 149.573 233.75Z" fill="#7C7C7C"/>
<path d="M71.9224 3.72998L69.4023 6.84998H60.6523L63.8923 3.72998H71.9224Z" fill="#D9D5CC"/>
<path d="M131.832 3.72998C131.502 4.22998 128.362 6.84998 128.122 6.84998H120.572L124.052 3.72998H131.842H131.832Z" fill="#D9D5CC"/>
<path d="M89.4132 3.72998L86.1732 6.84998H78.8633C79.5533 5.91998 80.4632 5.15999 81.2632 4.32999C81.4632 4.12999 81.4633 3.72998 81.4933 3.72998H89.4032H89.4132Z" fill="#D9D5CC"/>
<path d="M54.6627 3.72998C54.2027 4.14998 51.1928 6.84998 50.9528 6.84998H44.8428L47.8428 3.72998H54.6727H54.6627Z" fill="#D9D5CC"/>
<path d="M141.183 3.72998C140.733 4.11998 137.703 6.60999 137.473 6.60999H130.883C131.343 6.20999 134.093 3.72998 134.363 3.72998H141.193H141.183Z" fill="#D9D5CC"/>
<path d="M112.903 3.72998L109.663 6.84998H103.793C104.193 6.36998 107.263 3.72998 107.503 3.72998H112.893H112.903Z" fill="#D9D5CC"/>
<path d="M121.532 3.72998C121.072 4.26998 117.732 6.84998 117.342 6.84998H112.192C112.582 6.38998 115.432 3.72998 115.672 3.72998H121.542H121.532Z" fill="#D9D5CC"/>
<path d="M104.993 3.72998C104.633 4.22998 101.783 6.84998 101.513 6.84998H96.123C96.543 6.42998 99.363 3.72998 99.603 3.72998H104.993Z" fill="#D9D5CC"/>
<path d="M79.5927 3.72998C79.2227 4.13998 76.8127 6.84998 76.5927 6.84998H71.6826L73.9626 3.72998H79.5927Z" fill="#D9D5CC"/>
<path d="M24.713 3.72998C24.343 4.13998 21.933 6.84998 21.713 6.84998H17.043L19.803 3.72998H24.713Z" fill="#D9D5CC"/>
<path d="M61.8529 3.72998C61.3529 4.15998 58.4428 6.84998 58.1428 6.84998H53.7129C54.1129 6.43998 56.7229 3.72998 56.9529 3.72998H61.8629H61.8529Z" fill="#D9D5CC"/>
<path d="M45.5626 3.72998C45.1626 4.13998 42.5526 6.84998 42.3226 6.84998H37.8926C38.2626 6.43998 40.6726 3.72998 40.8926 3.72998H45.5626Z" fill="#D9D5CC"/>
<path d="M96.8424 3.72998C96.3224 4.13998 93.4123 6.84998 93.1323 6.84998H88.9424C89.2424 6.35998 91.9524 3.72998 92.1824 3.72998H96.8524H96.8424Z" fill="#D9D5CC"/>
<path d="M31.6626 3.72998C31.2926 4.13998 28.8826 6.84998 28.6626 6.84998H24.4727C24.6027 6.32998 27.0227 3.72998 27.2327 3.72998H31.6626Z" fill="#D9D5CC"/>
<path d="M0.262451 320.33L4.57251 319.85V323.21L0.0224609 322.97C0.0224609 322.02 0.252451 321.09 0.262451 320.33Z" fill="#D9D5CC"/>
<path d="M38.6129 3.72998C38.1629 4.10998 35.6029 6.84998 35.3729 6.84998H31.4229C31.7929 6.43998 34.2029 3.72998 34.4229 3.72998H38.6129Z" fill="#D9D5CC"/>
<path d="M147.892 3.72998L144.412 6.60999H139.982C140.372 6.14999 143.462 3.72998 143.692 3.72998H147.882H147.892Z" fill="#D9D5CC"/>
<path d="M16.8025 3.74016C15.0525 5.66016 13.8025 7.73017 10.8125 7.09017C11.5225 6.45017 13.2325 4.18016 13.9325 3.86016C14.6925 3.52016 15.9625 3.85016 16.8025 3.74016Z" fill="#D9D5CC"/>
<path d="M152.203 3.73999C150.713 5.17999 149.263 7.38997 146.933 6.84997C146.843 6.44997 147.063 6.35998 147.293 6.13998C148.513 4.94998 150.403 3.34999 152.203 3.73999Z" fill="#D9D5CC"/>
<path d="M155.083 3.73V6.36001L151.733 6.61001C151.493 6.40001 153.743 4.11001 153.993 3.96001C154.373 3.74001 154.633 3.67 155.083 3.73Z" fill="#D9D5CC"/>
<path d="M11.2931 3.73999L8.41309 6.60999V3.72998L11.2931 3.73999Z" fill="#D9D5CC"/>
<path d="M76.233 299.46C76.233 300.26 76.233 301.06 76.233 301.86L75.7529 301.71V299.46H76.233Z" fill="#7C7C7C"/>
<path d="M76.4731 291.31C76.4531 291.95 76.4931 292.59 76.4731 293.23H75.9932C75.9932 292.59 75.9932 291.95 75.9932 291.31H76.4731Z" fill="#7C7C7C"/>
<path d="M146.453 290.83C146.433 291.03 146.453 291.24 146.213 291.31C146.213 291.28 145.883 291.08 145.973 290.83H146.453Z" fill="#7C7C7C"/>
<path d="M55.5625 352.03C56.0025 351.92 56.1225 352 56.4725 352.21C56.7725 352.39 60.2825 355.48 60.4225 355.69C60.5625 355.9 60.7725 356.02 60.5425 356.3C59.6425 356.7 57.5625 358.92 56.8825 359.12C56.3625 359.28 51.2125 359.24 50.8125 359.05C50.6425 358.97 48.7225 356.75 49.0025 356.29L55.5525 352.01L55.5625 352.03Z" fill="#2884C2"/>
<path d="M150.012 357.96C149.162 358.13 148.802 359.27 148.002 359.42C146.072 359.79 143.122 359.17 141.062 359.42L137.812 356.91C137.892 356.35 138.942 355.76 139.422 355.39C139.962 354.98 143.602 352.44 143.892 352.5L149.922 357.26L150.002 357.95L150.012 357.96Z" fill="#2884C2"/>
<path d="M103.793 359.18C100.913 358.94 97.183 359.94 94.383 359.37C93.893 359.27 90.953 357.39 90.533 356.99C90.363 356.83 90.053 356.78 90.143 356.43L95.9731 352.51L103.793 359.19V359.18Z" fill="#2884C2"/>
<path d="M69.413 351.79L73.823 356.39C71.893 358.12 70.593 359.7 67.743 359.17C67.273 359.08 63.543 356.21 63.543 355.94L69.413 351.79Z" fill="#2884C2"/>
<path d="M42.6631 351.29L46.2731 356.16C46.2031 356.49 41.6931 359.29 41.1431 359.2C41.0131 359.18 40.8831 359.15 40.7731 359.06L36.7031 354.39L42.6731 351.28L42.6631 351.29Z" fill="#2884C2"/>
<path d="M77.0027 356.75C76.9027 356.59 76.9027 356.26 77.0027 356.1C77.2627 355.68 81.6328 353.33 82.3528 352.7L87.0228 356.89C86.2828 357.23 84.8128 358.95 84.2228 359.13C83.7528 359.27 81.2328 359.27 80.6628 359.19C79.5228 359.04 78.1427 357.22 77.0127 356.74L77.0027 356.75Z" fill="#2884C2"/>
<path d="M117.903 357.77C118.313 358.49 116.783 359.34 116.143 359.43C114.833 359.61 108.983 359.63 107.753 359.41C107.313 359.33 106.483 358.83 106.413 358.34L111.463 354.27C111.643 354.15 111.843 354.12 112.053 354.12C113.093 354.12 116.533 357.41 117.893 357.77H117.903Z" fill="#2884C2"/>
<path d="M134.953 357.02C134.023 357.17 132.393 359.63 131.533 359.4C130.043 358.03 127.993 356.85 126.563 355.47C126.313 355.22 126.003 355.05 126.093 354.63L130.473 352.25C130.763 352.32 134.443 356 134.723 356.42C134.863 356.62 135.053 356.67 134.953 357.02Z" fill="#2884C2"/>
<path d="M153.432 357.72C153.392 357.52 153.352 357.23 153.452 357.06C153.602 356.81 158.272 354.14 158.572 354.15L161.792 356.9C159.922 358.33 158.892 360.05 156.222 359.36C155.442 359.16 154.412 357.82 153.432 357.71V357.72Z" fill="#2884C2"/>
<path d="M25.6629 359.18H17.873C17.673 359.18 17.0929 358.38 17.3029 358.01C17.4429 357.76 21.9029 355.1 22.1929 355.1C22.5629 355.1 23.993 356.82 24.353 357.26C24.803 357.81 25.4729 358.52 25.6629 359.18Z" fill="#2884C2"/>
<path d="M38.3728 359.18H29.2627C29.1727 358.74 29.3927 358.71 29.6627 358.5C30.2827 358.02 34.6228 355.52 35.1228 355.57C35.4128 355.6 37.6727 358.02 38.0127 358.45C38.1927 358.69 38.4728 358.75 38.3728 359.17V359.18Z" fill="#2884C2"/>
<path d="M128.963 359.42H122.853C122.723 359.42 120.833 358.07 121.053 357.75L124.733 355.61L128.963 359.42Z" fill="#2884C2"/>
<path d="M64.4925 359.18H59.2225C59.0825 358.62 59.3524 358.78 59.5224 358.63C59.9224 358.28 61.5625 357.01 61.9825 357.02C62.8825 357.59 63.9025 358.3 64.4925 359.18Z" fill="#2884C2"/>
<path d="M77.6729 359.42L72.8828 359.06L75.3629 357.29C75.5529 357.58 78.0729 359.07 77.6729 359.42Z" fill="#2884C2"/>
<path d="M48.6725 359.18H44.6025C44.7525 358.75 47.1725 357.23 47.3425 357.27L48.6825 359.18H48.6725Z" fill="#2884C2"/>
<path d="M90.6128 359.42L86.3027 359.06L88.5427 357.53C88.7127 357.85 91.0328 359.05 90.6128 359.42Z" fill="#2884C2"/>
<path d="M160.833 359.42L162.913 357.78C163.173 357.74 164.323 358.63 164.603 358.87C164.773 359.02 165.053 358.86 164.903 359.42H160.833Z" fill="#2884C2"/>
<path d="M138.302 359.42H134.472C134.322 358.85 134.622 359.01 134.782 358.87C136.562 357.27 136.742 357.71 138.312 359.42H138.302Z" fill="#2884C2"/>
<path d="M152.683 359.42H150.643C149.833 359.32 152.383 357.43 152.683 359.42Z" fill="#2884C2"/>
<path d="M130.162 201.85H32.0122L29.9823 201.61C29.6623 200.87 29.2122 200.2 29.2522 199.34V34.0701C29.1622 32.4001 30.0722 31.3001 31.7722 31.3101L130.172 31.4201C130.842 31.5801 131.372 31.9601 131.612 32.6201L131.842 199.34C131.712 200.7 131.412 201.28 130.152 201.85H130.162ZM126.082 35.1501H35.2522L39.3323 38.3901L40.4322 39.7201C60.9722 39.1501 81.6622 39.6201 102.252 39.4801C108.162 38.4501 115.402 40.0101 121.182 39.2401C121.512 39.2001 121.612 39.1601 121.902 39.0001C122.952 38.3901 124.802 35.8801 126.082 35.1501ZM33.0923 39.4701C32.6323 91.7401 33.4423 144.05 33.0923 196.33L38.7223 189.13C39.0523 145.31 38.4223 101.38 38.1123 57.5901C38.0823 53.1601 38.0123 48.6901 38.1123 44.2701C38.1123 44.2301 38.3523 43.8901 38.3723 43.4601C38.3923 42.7701 38.4723 41.4001 38.3523 40.8001C38.2323 40.2001 35.8723 38.4901 35.2423 37.9201C34.5323 37.2801 33.9123 36.5201 33.2123 35.8801C32.9823 37.0501 33.1023 38.2901 33.0923 39.4801V39.4701ZM123.682 43.3101C124.562 62.0901 123.562 81.4401 123.432 100.26C123.232 129.75 123.662 159.29 122.972 188.78C122.962 189.34 122.732 189.86 122.702 190.42L127.992 194.41C127.652 143.01 128.452 91.5801 127.992 40.1901C127.982 39.0001 128.102 37.7601 127.872 36.5901L123.552 40.4401C123.612 41.3901 123.632 42.3501 123.682 43.3101ZM86.5422 46.9101C86.4522 46.3601 86.7222 46.1801 87.0122 45.8201C88.3622 44.1501 90.2623 42.8601 91.5723 41.1501L40.0522 40.6701C41.1522 56.9801 40.6322 73.3601 40.7622 89.7301C40.7622 90.4101 41.0222 91.0001 41.0222 91.6301C41.0822 98.5501 40.9522 105.47 41.0222 112.39L49.7622 97.5201L50.6023 96.8001C50.3023 99.5801 45.5222 107.59 43.8922 110.71C43.4922 111.47 41.0122 115.48 41.0122 115.87V125.34L43.7023 120.23C43.9223 119.87 43.8522 119.49 43.8922 119.1L50.0122 109.99C50.4222 109.46 50.6123 109.89 50.8423 109.99L41.2722 129.55C41.2922 149.17 41.5822 168.77 41.7722 188.38C42.2322 189.12 55.9222 188.84 57.9222 188.88C58.4922 188.89 59.0123 189.12 59.5823 189.14C61.0523 189.19 62.5322 189.11 64.0022 189.11C65.0022 185.55 66.9522 182.12 68.7822 178.9C70.6422 175.62 74.9623 168.03 77.2123 165.63C77.5523 165.27 78.4122 164.23 78.6522 165.27C76.2022 169.47 73.7822 173.69 71.4222 177.94C69.9622 180.59 68.6622 183.72 67.1522 186.26C66.6522 187.1 65.4523 188.04 65.2323 189.14H70.6223L76.9723 179.31C77.0723 179.42 77.8723 179.04 77.6923 179.66C76.4823 181.74 75.0923 184 74.3423 186.26C74.2023 186.27 74.0422 186.2 73.9122 186.3L72.1923 189.14L120.362 189.38L120.842 106.99L119.522 109.02L118.692 111.18C118.092 111.05 118.202 111.49 118.022 111.81C116.322 114.75 113.422 120.57 111.362 122.91C111.122 123.18 110.992 123.5 110.542 123.41C110.502 123.1 110.592 122.75 110.542 122.45C113.672 116.33 116.902 110.23 120.852 104.58V93.4301L119.202 95.9801C118.982 96.3101 118.982 96.6601 118.942 97.0301C118.422 97.0001 118.312 97.3701 118.072 97.7201C112.022 106.39 107.072 116.74 101.072 125.56L100.012 126.29C100.322 125.93 100.152 125.35 100.252 125.09C101.112 122.77 103.252 119.29 104.522 117.01C109.572 107.93 115.462 99.3001 120.992 90.5601C121.372 77.1701 120.852 63.7501 121.092 50.3601C121.132 47.8101 121.572 45.0901 121.512 42.5201C121.512 42.2001 121.332 41.7701 121.282 41.4301C121.152 41.2401 120.522 41.1601 120.252 41.1401C115.422 40.6701 109.852 41.4501 104.952 41.1801L93.4222 54.3401L92.3323 54.8101C94.7323 50.7201 97.9623 47.0801 101.202 43.6501C101.382 43.4601 101.392 43.1001 101.432 43.0501C101.472 43.0101 101.902 42.9601 102.152 42.7101C102.652 42.2101 103.192 41.7201 103.582 41.1301H99.7522C99.5222 41.7501 98.9722 42.5501 98.5522 43.0501C93.5522 49.0001 88.1122 54.6501 83.0522 60.5301C82.8522 60.7401 82.4122 60.7101 82.2522 60.8001C86.9922 53.6601 92.5922 47.0401 98.7922 41.1301H93.1622C92.4922 41.6401 91.9423 42.5201 91.3623 43.0501C89.8123 44.4701 88.1223 45.7901 86.5723 46.8901L86.5422 46.9101ZM42.2023 191.29C41.3223 191.29 40.5523 191.56 39.7123 191.34L35.2522 197.89C36.0122 198.11 36.8622 198 37.6422 198.01C66.0622 198.26 94.5423 198.15 122.962 198.01C124.422 198.01 125.942 198.09 127.402 198.01C127.672 198 128.062 198.17 127.992 197.77C125.382 196.31 123.172 193.99 121.042 191.9C120.592 191.65 120.062 191.83 119.612 191.78C118.852 191.68 117.862 191.56 117.102 191.53C93.8623 190.5 69.5422 191.86 46.1422 191.55C44.8622 191.53 43.6023 191.28 42.2023 191.3V191.29Z" fill="#050505"/>
<path d="M130.162 201.85C130.662 205.84 124.772 204.28 122.382 204.24C93.9723 203.76 65.4824 204.11 37.0424 204.02C35.3024 203.44 33.1024 204.12 31.4624 203.61C30.3724 203.27 30.3724 202.51 29.9824 201.61L32.0123 201.86H130.162V201.85Z" fill="#7C7C7C"/>
<path d="M149.812 159.63C152.532 162.41 151.742 169.37 149.572 172.34C149.522 172.41 148.473 173.46 148.373 173.54C147.303 174.42 146.432 174.81 145.012 174.74C144.332 174.71 143.922 174.67 143.332 174.26C143.332 177.58 143.322 180.9 143.322 184.22C143.322 186.49 143.602 188.79 143.322 191.16C143.002 193.98 142.072 197.3 138.532 195.96C136.362 195.13 136.082 193.83 135.892 191.64C135.362 185.22 135.202 175.51 135.642 169.09C135.812 166.59 136.273 163.98 138.603 162.69C138.853 162.55 139.402 162.55 139.462 162.48C139.572 162.36 139.342 160.65 140.452 159.51C142.872 157.01 147.412 157.19 149.792 159.63H149.812ZM145.973 162.03C146.323 163.21 146.852 164.15 146.932 165.39C146.982 166.11 146.982 167.13 146.692 167.79C146.572 168.06 145.222 169.42 145.012 169.47C144.572 169.58 143.682 169.15 143.582 169.23L143.373 173.03C144.883 173.73 145.742 172.86 146.692 171.87C147.082 171.47 147.352 171.14 147.652 170.67C148.552 169.27 149.013 167.88 149.093 166.11C149.163 164.71 148.993 163.54 148.373 162.27C146.983 159.41 143.162 159.74 141.192 161.91C142.282 161.32 145.303 162.27 145.983 162.03H145.973ZM139.743 194.41C141.323 194.41 141.552 191.74 141.652 190.45C142.232 183.41 141.692 176.2 141.912 169.12C142.202 167.26 144.463 167.29 144.973 166.42C145.353 165.77 145.412 164.13 145.012 163.47C144.902 163.28 144.893 163.11 144.623 163.03C141.003 163.26 138.283 163.83 137.853 167.93C137.203 174.19 137.802 181.28 137.812 187.56C137.812 189.52 137.063 194.42 139.743 194.41Z" fill="#050505"/>
<path d="M148.373 173.54C148.023 180.44 150.383 189.19 148.493 195.85C148.243 196.73 147.813 198.47 146.693 197.89C145.023 197.02 145.093 188.55 145.013 186.62C144.993 186.16 144.783 185.7 144.763 185.19C144.653 181.79 144.673 178.1 145.013 174.75C146.423 174.82 147.303 174.43 148.373 173.55V173.54Z" fill="#B8B2A2"/>
<path d="M50.5928 96.7898C50.6728 96.0398 51.6727 95.1398 51.7927 94.2698C51.8427 93.8698 51.7927 93.8798 51.4227 93.8998C50.3827 93.9598 48.1027 97.0598 47.3827 98.0098C46.1427 99.6398 45.1227 101.4 43.8827 103.02L43.7627 82.8798L82.3428 42.8198H87.4928C86.9328 43.5798 82.7127 47.8598 83.4227 48.5798C84.7327 48.7198 85.5827 47.5798 86.5327 46.8998C88.0927 45.7998 89.7828 44.4798 91.3228 43.0598L93.4828 43.1798C91.7728 44.8998 80.2927 59.9898 81.5027 61.2898C82.3527 61.5798 82.1828 60.8298 82.2228 60.8098C82.3828 60.7198 82.8227 60.7498 83.0227 60.5398C88.0827 54.6598 93.5227 49.0098 98.5227 43.0598H101.403C101.403 43.0598 101.353 43.4698 101.173 43.6598C97.9227 47.0898 94.6927 50.7298 92.3027 54.8198L91.8228 54.9398L92.3027 55.1798L91.8228 55.7698C92.8928 55.9798 93.7028 55.0898 94.4628 54.4598C98.4328 51.1398 101.923 46.5198 105.843 43.0598H119.383C119.083 58.2498 118.963 73.5098 118.893 88.7398C114.053 97.8898 107.893 106.52 103.203 115.73C102.143 117.8 99.9228 122.08 99.7328 124.26C99.6928 124.71 99.5128 125.23 100.213 125.09C100.113 125.35 100.283 125.93 99.9728 126.29L101.033 125.56C107.033 116.74 111.983 106.39 118.033 97.7198C118.273 97.3798 118.383 97.0098 118.903 97.0298C118.673 99.1598 119.293 102.27 118.793 104.23C118.063 107.07 114.093 112.65 112.633 115.81C111.873 117.45 110.253 120.83 110.523 122.45C110.573 122.74 110.493 123.1 110.523 123.41C110.973 123.5 111.103 123.19 111.343 122.91C113.393 120.57 116.303 114.76 118.003 111.81C118.183 111.49 118.073 111.04 118.673 111.18L118.543 144.03L88.3728 186.27C87.4728 186.92 85.3427 186.27 84.2927 186.24C81.3127 186.17 77.2028 185.97 74.3328 186.24C75.0828 183.98 76.4827 181.72 77.6827 179.64C77.8627 179.01 77.0728 179.39 76.9628 179.29V178.57C76.5228 178.17 74.4728 180.4 74.0828 180.84C73.2528 181.77 70.7027 185.85 70.2527 186.12C69.6427 186.49 67.9227 186.11 67.1427 186.24C68.6527 183.71 69.9527 180.57 71.4127 177.92C73.7627 173.67 76.1927 169.44 78.6427 165.25C78.4027 164.21 77.5428 165.25 77.2028 165.61L77.0828 164.41C76.1828 164.33 74.4228 166.81 73.6128 167.42L60.6627 186.13L44.3628 186.01C43.8528 171.54 44.2627 156.98 44.1327 142.47C44.0927 138.12 43.6428 133.68 43.8728 129.28C45.6028 124.76 47.9928 120.48 49.7428 115.97C50.1028 115.05 51.5127 111.47 51.5427 110.79C51.5827 109.99 51.3128 110.17 50.8228 109.98C50.5828 109.89 50.3928 109.45 49.9928 109.98L43.8728 119.09C44.1128 116.41 43.6928 113.41 43.8728 110.7C45.5028 107.58 50.2828 99.5698 50.5828 96.7898H50.5928Z" fill="#7C7C7C"/>
<path d="M33.093 39.4702C33.803 40.1902 34.9929 40.7902 35.6429 41.4702C36.3729 42.2302 36.953 43.9602 38.123 44.2702C38.013 48.6902 38.083 53.1702 38.123 57.5902C38.433 101.39 39.063 145.31 38.733 189.13L33.103 196.33C33.443 144.05 32.633 91.7402 33.103 39.4702H33.093Z" fill="#D9D5CC"/>
<path d="M50.593 96.7902L49.7529 97.5102L41.0129 112.38C40.9529 105.47 41.0829 98.5402 41.0129 91.6202C41.0129 91.0002 40.7529 90.4102 40.7529 89.7202C40.6229 73.3502 41.143 56.9702 40.043 40.6602L91.563 41.1402C90.243 42.8502 88.3529 44.1402 87.0029 45.8102C86.7129 46.1702 86.443 46.3502 86.533 46.9002C85.573 47.5802 84.723 48.7202 83.423 48.5802C82.713 47.8602 86.943 43.5802 87.493 42.8202H82.343L43.7629 82.8802L43.8829 103.02C45.1229 101.4 46.1429 99.6402 47.3829 98.0102C48.1029 97.0602 50.383 93.9602 51.423 93.9002C51.803 93.8802 51.843 93.8702 51.793 94.2702C51.663 95.1402 50.673 96.0402 50.593 96.7902ZM67.603 42.8302H42.923L43.403 68.0102L67.603 42.8302Z" fill="#FDFDFD"/>
<path d="M118.652 111.18L119.482 109.02L120.802 106.99L120.322 189.38L72.1523 189.14L73.8724 186.3C74.0024 186.2 74.1624 186.27 74.3024 186.26C77.1724 185.98 81.2823 186.18 84.2623 186.26C85.3123 186.28 87.4424 186.93 88.3424 186.29L118.512 144.05L118.642 111.2L118.652 111.18ZM118.412 186.5V162.04L102.832 186.5H118.412Z" fill="#FDFDFD"/>
<path d="M128.003 40.1899C128.463 91.5799 127.663 143.01 128.003 194.41L122.713 190.42C122.743 189.86 122.973 189.35 122.983 188.78C123.673 159.29 123.243 129.75 123.443 100.26C123.573 81.4399 124.573 62.0799 123.693 43.3099C125.563 43.0099 126.593 41.2399 128.003 40.1899Z" fill="#D9D5CC"/>
<path d="M119.612 191.77C119.372 194.36 122.042 195.82 122.972 198.01C94.5524 198.15 66.0723 198.26 37.6523 198.01C39.4023 196.04 41.2424 193.74 42.2024 191.29C43.6024 191.28 44.8623 191.52 46.1423 191.54C69.5423 191.84 93.8624 190.48 117.102 191.52C117.862 191.55 118.842 191.67 119.612 191.77Z" fill="#D9D5CC"/>
<path d="M126.083 35.1499C124.803 35.8799 122.953 38.3999 121.903 38.9999C121.623 39.1599 121.513 39.1999 121.183 39.2399C115.393 40.0099 108.163 38.4399 102.253 39.4799C81.6529 39.6199 60.973 39.1499 40.433 39.7199L39.333 38.3899L35.2529 35.1499H126.083Z" fill="#D9D5CC"/>
<path d="M50.8325 109.98C51.3225 110.17 51.5925 109.99 51.5525 110.79C51.5225 111.47 50.1124 115.04 49.7524 115.97C48.0024 120.48 45.6124 124.76 43.8824 129.28C43.6524 133.67 44.1025 138.11 44.1425 142.47C44.2725 156.98 43.8526 171.54 44.3726 186.01L60.6725 186.13L73.6226 167.42C74.4326 166.81 76.1925 164.33 77.0925 164.41L77.2125 165.61C74.9625 168.01 70.6525 175.6 68.7825 178.88C66.9525 182.1 65.0124 185.53 64.0024 189.09C62.5324 189.09 61.0525 189.17 59.5825 189.12C59.0125 189.1 58.4925 188.87 57.9225 188.86C55.9225 188.82 42.2325 189.1 41.7725 188.36C41.5825 168.75 41.2925 149.15 41.2725 129.53L50.8425 109.97L50.8325 109.98Z" fill="#FDFDFD"/>
<path d="M92.2922 54.8202L93.3822 54.3502L104.912 41.1902C109.822 41.4702 115.382 40.6902 120.212 41.1502C120.472 41.1802 121.102 41.2602 121.242 41.4402C121.292 41.7802 121.462 42.2102 121.472 42.5302C121.532 45.1002 121.092 47.8202 121.052 50.3702C120.812 63.7602 121.332 77.1802 120.952 90.5702C115.412 99.3002 109.532 107.94 104.482 117.02C103.212 119.3 101.072 122.78 100.212 125.1C99.5223 125.24 99.7023 124.72 99.7323 124.27C99.9223 122.09 102.142 117.81 103.202 115.74C107.892 106.53 114.052 97.9002 118.892 88.7502C118.962 73.5202 119.082 58.2602 119.382 43.0702H105.842C101.922 46.5302 98.4323 51.1502 94.4623 54.4702C93.7123 55.1002 92.9023 56.0002 91.8223 55.7802L92.3022 55.1902L91.8223 54.9502L92.3022 54.8302L92.2922 54.8202Z" fill="#FDFDFD"/>
<path d="M91.3333 43.0699C91.9133 42.5399 92.4632 41.6599 93.1332 41.1499H98.7632C92.5632 47.0599 86.9633 53.6699 82.2233 60.8199C82.1833 60.8399 82.3532 61.5799 81.5032 61.2999C80.2932 59.9999 91.7733 44.9099 93.4833 43.1899L91.3233 43.0699H91.3333Z" fill="#FDFDFD"/>
<path d="M110.503 122.46C110.243 120.84 111.863 117.46 112.613 115.82C114.073 112.66 118.043 107.08 118.773 104.24C119.283 102.27 118.653 99.1699 118.883 97.0399C118.923 96.6699 118.923 96.3199 119.143 95.9899L120.793 93.4399V104.59C116.853 110.23 113.623 116.34 110.483 122.46H110.503Z" fill="#FDFDFD"/>
<path d="M67.1328 186.26C67.9228 186.13 69.6329 186.51 70.2429 186.14C70.6929 185.87 73.2429 181.79 74.0729 180.86C74.4729 180.42 76.5129 178.18 76.9529 178.59V179.31L70.6029 189.14H65.2129C65.4229 188.05 66.6328 187.1 67.1328 186.26Z" fill="#FDFDFD"/>
<path d="M43.8829 119.1C43.8529 119.48 43.923 119.87 43.693 120.23L41.0029 125.34V115.87C41.0029 115.48 43.4829 111.48 43.8829 110.71C43.7029 113.43 44.1229 116.43 43.8829 119.1Z" fill="#FDFDFD"/>
<path d="M119.613 191.77C120.063 191.83 120.593 191.64 121.043 191.89C123.183 193.98 125.383 196.3 127.993 197.76C128.053 198.15 127.673 197.98 127.403 198C125.943 198.08 124.433 198 122.963 198C122.043 195.82 119.363 194.36 119.603 191.76L119.613 191.77Z" fill="#7C7C7C"/>
<path d="M38.1325 44.2701C36.9625 43.9701 36.3825 42.2301 35.6525 41.4701C34.9925 40.7901 33.8026 40.1901 33.1026 39.4701C33.1126 38.2801 32.9926 37.0401 33.2226 35.8701C33.9326 36.5101 34.5425 37.2801 35.2525 37.9101C35.8925 38.4801 38.2526 40.1901 38.3626 40.7901C38.4726 41.3901 38.4125 42.7601 38.3825 43.4501C38.3625 43.8801 38.1226 44.2201 38.1226 44.2601L38.1325 44.2701Z" fill="#7C7C7C"/>
<path d="M42.2028 191.29C41.2428 193.74 39.3927 196.04 37.6527 198.01C36.8727 198.01 36.0127 198.12 35.2627 197.89L39.7228 191.34C40.5628 191.56 41.3428 191.3 42.2128 191.29H42.2028Z" fill="#7C7C7C"/>
<path d="M128.002 40.1898C126.592 41.2398 125.563 43.0098 123.693 43.3098C123.653 42.3598 123.622 41.3898 123.562 40.4398L127.882 36.5898C128.112 37.7598 127.992 38.9998 128.002 40.1898Z" fill="#7C7C7C"/>
<path d="M98.5225 43.0699C98.9425 42.5699 99.4825 41.7699 99.7225 41.1499H103.552C103.162 41.7299 102.613 42.2299 102.123 42.7299C101.863 42.9899 101.442 43.0299 101.402 43.0699H98.5225Z" fill="#FDFDFD"/>
<path d="M139.743 194.41C139.293 188.23 139.583 182.01 139.513 175.81C139.483 173.01 138.753 170.37 139.863 167.55C140.643 165.58 143.493 164.79 145.013 163.47C145.403 164.13 145.353 165.77 144.973 166.42C144.463 167.28 142.213 167.26 141.913 169.12C141.703 176.2 142.233 183.41 141.653 190.45C141.543 191.74 141.313 194.4 139.743 194.41Z" fill="#ED9645"/>
<path d="M145.013 163.47C143.493 164.79 140.643 165.58 139.863 167.55C138.743 170.37 139.473 173.01 139.513 175.81C139.583 182.01 139.293 188.23 139.743 194.41C137.063 194.43 137.823 189.53 137.813 187.56C137.803 181.28 137.203 174.2 137.853 167.93C138.273 163.83 140.993 163.26 144.623 163.03C144.903 163.11 144.903 163.28 145.013 163.47Z" fill="#FDFDFD"/>
<path d="M148.373 162.27C148.983 163.53 149.153 164.71 149.093 166.11C148.093 166.38 147.753 165.62 146.933 165.39C146.853 164.15 146.323 163.21 145.973 162.03C146.033 162.01 146.113 161.49 146.793 161.54C147.393 161.58 147.773 162.22 148.373 162.27Z" fill="#FDFDFD"/>
<path d="M147.653 170.67C147.353 171.13 147.083 171.47 146.693 171.87C144.863 172.11 144.913 170.95 145.013 169.47C145.223 169.42 146.573 168.06 146.693 167.79C148.423 167.79 147.863 169.48 147.653 170.67Z" fill="#FDFDFD"/>
<path d="M145.013 169.47C144.913 170.95 144.863 172.11 146.693 171.87C145.743 172.86 144.883 173.73 143.373 173.03L143.583 169.23C143.693 169.15 144.583 169.58 145.013 169.47Z" fill="#B8B2A2"/>
<path d="M149.092 166.11C149.012 167.87 148.562 169.27 147.652 170.67C147.872 169.49 148.422 167.78 146.692 167.79C146.982 167.14 146.982 166.11 146.932 165.39C147.752 165.62 148.082 166.38 149.092 166.11Z" fill="#B8B2A2"/>
<path d="M148.373 162.27C147.773 162.22 147.393 161.59 146.793 161.54C146.113 161.49 146.043 162 145.973 162.03C145.293 162.27 142.273 161.33 141.183 161.91C143.153 159.74 146.983 159.41 148.363 162.27H148.373Z" fill="#B8B2A2"/>
<path d="M67.6029 42.8301L43.4028 68.0101L42.9229 42.8301H67.6029Z" fill="#7C7C7C"/>
<path d="M118.413 186.5L102.833 186.49L118.413 162.03V186.5Z" fill="#7C7C7C"/>
</svg>
