<svg width="591" height="439" viewBox="0 0 591 439" fill="none" xmlns="http://www.w3.org/2000/svg">
<path d="M0.0100098 190.749C6.68001 184.409 16.95 182.879 24.96 178.519C23.46 177.699 23.01 176.759 22.62 175.109C21.33 169.649 22.58 163.109 22 157.499C7.89 147.379 3.99 127.329 4.31 110.859C4.48 101.849 5.71998 93.7289 10.85 86.2189C11.48 85.2989 13.1 84.2989 13.35 83.4389C13.93 81.4889 12.32 79.6789 13.91 77.7589C14.73 76.7689 23.45 72.7989 24.78 72.7489C27.11 72.6489 27.08 75.5689 27.66 75.6589C29.8 74.6189 32.76 75.6189 34.71 75.0389C35.6 74.7789 37.41 72.3689 38.45 71.5789C44.1 67.3189 58.29 65.3389 64.59 68.3989C65.88 69.0189 66.74 70.4789 67.55 70.7189C71.1 71.7689 74.7 70.0389 78.49 73.6989C79.3 74.4789 79.89 76.2089 80.55 76.5589C81.72 77.1889 85.64 77.2489 87.47 77.6689C92.78 78.8989 94.62 78.8689 92.54 84.3689C91.58 86.9089 88.34 90.5389 87.96 92.2589C86.66 98.0789 88.93 111.479 89.29 118.069C89.87 128.459 90.24 138.859 90.73 149.249C90.86 150.439 92.22 150.519 92.89 151.409C94.34 153.339 93.5 157.829 93.21 160.179C94.38 161.859 96.15 163.049 97.46 164.589C97.97 165.189 98.33 166.549 98.5 166.659C98.85 166.889 105.25 167.919 106.67 168.319C131.7 175.429 156 194.199 146.54 223.249C142.98 234.199 133.83 242.139 135.42 254.239C135.57 255.389 136.08 258.559 136.44 259.459C136.9 260.609 142.01 263.679 142.56 263.179C142.92 255.369 156.01 246.409 161.54 254.039C168.35 263.429 153.8 273.799 145.44 268.929V278.759C145.44 285.619 152.77 301.439 156.4 307.629C157.3 309.159 161.1 315.829 162.44 315.899C165.22 316.059 169.23 313.989 172.53 314.529C175.35 314.989 179.3 320.399 181.15 322.709C183.18 325.239 188.25 331.469 189.53 333.999C189.93 334.779 190.22 335.379 190.09 336.309L177.82 349.069C176.99 350.889 180.65 353.649 181.21 355.759C183.03 362.469 171.03 372.559 165.61 375.219C161.65 377.159 154.55 380.139 151.91 374.959L128.32 396.479C125.45 396.589 117.76 401.619 115.68 400.629C115.09 400.349 114.54 399.119 113.99 399.069C110.12 399.629 111.02 405.759 112.07 408.519C112.69 410.129 117.51 416.279 118.88 416.629C119.93 416.899 120.98 415.259 122.63 415.209C125.53 415.109 130.85 416.429 134.15 416.679C137.74 416.949 141.4 416.299 144.95 417.169L143.74 420.509C151.35 419.089 159.08 418.249 166.64 416.529C183.7 412.649 200.18 404.599 213.54 393.339C208.94 386.719 205.95 376.719 209.97 369.169C213.46 362.629 220.51 360.099 227.35 363.339C241.11 369.859 233.39 388.789 222.7 394.139C222.4 394.579 228.94 399.729 229.75 400.279C251.83 415.459 296.48 415.269 322.16 411.259C346.79 407.419 371.96 398.699 392.61 384.779C382.03 373.069 394.28 351.599 409.61 358.209C417.87 361.769 417.18 371.319 412.29 377.569C411.35 378.769 405.09 384.259 405.1 384.769C417.41 392.459 433.27 390.959 446.95 388.219C496.98 378.219 526.86 333.529 540.59 287.509C544.01 276.029 544.97 268.889 546.23 257.159C547.05 249.559 549.04 240.609 549.12 233.149C549.14 230.839 547.83 227.239 547.65 224.549C547.11 216.739 547.94 208.749 548.62 201.019C548.84 198.519 547.84 195.459 549.83 193.599L551.51 194.539C552.48 186.989 551.73 179.329 551.97 171.729C552.61 151.759 553.73 131.759 553.91 111.789C553.93 109.429 554.02 106.099 553.33 103.729C552.95 102.409 550.57 100.579 551.51 98.1089C549.4 97.7889 542.34 98.7989 541.06 97.5189C538.64 83.0289 538.77 68.0589 539.48 53.3289C539.49 53.0989 541.8 52.5989 542.08 52.5289C542.99 52.3089 543.92 52.1489 544.85 52.0289C548.95 51.5089 553.09 51.7989 557.22 51.8189C560.03 51.8289 562.85 51.8189 565.66 51.7689C568.16 51.7289 571.12 51.1989 573.5 52.1589C574.22 52.4489 574.87 52.9289 575.02 53.7289L575.4 96.8089L573.8 98.0889L561.09 98.5789C560.78 99.5289 561.61 100.939 561.46 101.639C561.35 102.159 560.48 102.539 560.24 103.239C557.56 110.979 558.99 120.779 558.71 129.049C558.3 141.329 557.79 153.689 557.27 165.989C557.02 171.859 554.43 193.419 556.07 197.379C556.29 197.909 557.14 198.379 557.51 199.299C559.27 203.749 558.17 224.809 557.72 230.709C557.65 231.569 556.79 232.309 556.89 233.039C556.93 233.319 558.84 237.469 559.18 238.169C558.83 237.359 557.67 235.999 557.02 235.299C556.81 238.989 558.78 241.649 559.88 244.899C560.58 246.969 560.94 249.199 561.71 251.249C561.9 251.749 561.94 252.949 562.77 252.559C563.81 251.779 563.57 250.659 563.39 249.559C563.09 247.809 560.02 240.099 559.18 238.169C560.81 241.479 565.9 248.909 564.95 252.699L562.22 254.409C561.72 254.479 561.36 254.159 561.08 253.789C560.18 252.589 558.89 246.179 558.24 244.159C557.96 243.289 557.65 241.419 556.79 241.049C555.18 277.979 543.85 315.459 522.62 345.779C498.76 379.859 457.8 401.279 415.44 396.469C408.27 395.659 401.51 393.279 395.82 388.839C378.69 403.469 355.86 410.359 334.08 414.959C305.04 421.099 274.11 423.039 245.39 414.359C234.87 411.179 225.2 406.699 217.68 398.479C198.26 412.479 175.15 421.069 151.38 424.249C146.75 424.869 142.02 424.159 137.76 426.229C139.48 430.479 143.71 431.769 146.37 435.159C146.54 436.109 143.83 437.579 143.04 437.729C142.67 437.799 141.48 437.809 141.12 437.729C137.91 437.039 132.81 429.439 131.53 426.449C128.67 426.519 116.59 424.109 115.17 422.039C114.16 420.569 116.06 419.579 115.68 419.029C108.87 415.769 104.93 407.769 107.04 400.309C99.03 400.489 106.46 392.269 106.01 390.579C104.15 387.909 101.7 385.349 100.12 382.519C98.2 379.099 97.42 378.189 100.08 374.879C110.07 362.409 124.05 349.209 135.59 337.929C137.28 336.279 141.04 334.419 140.49 331.429C140.4 330.949 139.25 330.699 138.81 329.939C138.18 328.849 138.3 327.089 137.5 325.499C136.15 322.819 126.88 312.659 124.29 311.349C123.53 310.969 122.6 311.159 121.66 310.619C120.41 309.909 115.07 303.049 114.81 301.599C114.58 300.319 115.23 299.469 115.11 298.469C114.89 296.679 112.69 291.999 112.08 289.489C109.98 280.909 109.02 270.239 109.43 261.399C110.59 235.949 122.74 210.509 108.57 186.019C106.53 182.499 98.37 171.369 94.7 170.619C93.05 170.279 91.03 170.579 89.29 170.029C89.51 173.949 89.63 177.149 86.37 179.829C83.11 182.509 68.1 185.129 63.62 185.399C60.03 185.619 55.01 184.809 51.71 185.489C48.41 186.169 40.51 191.959 36.97 193.789C28.86 197.969 25.64 197.619 16.56 196.889C10.77 196.429 4.03 196.299 0 191.619V190.659L0.0100098 190.749ZM560.17 75.6089C570.45 77.9789 571.38 89.6189 560.65 91.9289L561.13 96.7189H572.89C573.57 96.2989 573.55 95.7589 573.63 95.0689C574.22 90.0489 573.12 84.1589 573.1 79.2389C573.07 70.8189 574.14 62.3789 573.39 53.9989C573.05 53.5089 572.46 53.5889 571.94 53.5289C565.5 52.7389 550.78 53.0289 544.06 53.5289C542.84 53.6189 541.7 54.0389 540.48 54.0289L542.4 96.7189H551.52C551.9 92.9289 549.06 91.9489 547.79 89.1789C544.93 82.9389 548.15 75.5689 555.36 75.1289C556.98 75.0289 558.59 75.2489 560.16 75.6089H560.17ZM65.29 70.3389C57.51 68.0689 46.8 68.3289 39.89 73.0089C39.29 73.4189 33.82 77.8189 34.58 78.4889L78.74 77.5289C78.7 75.7289 76.71 74.2789 75.23 73.6089C70.15 71.3189 51.78 72.2989 46.59 74.4189C44.68 75.1989 43.37 76.8889 41.31 77.0489C41.92 74.5489 45.33 73.1389 47.55 72.4889C51.67 71.2789 56 71.1989 60.27 71.2889L65.31 70.3389H65.29ZM26.41 75.6089C24.56 74.7889 16.84 77.9889 15.86 79.2089C15.26 79.9489 15.3 80.4689 15.38 81.3589L26.42 75.6089H26.41ZM10.57 89.9989C9.90001 91.1789 9.96999 91.5789 9.60999 92.3989C8.90999 93.9889 8.27 94.6889 7.69 96.7189C7.39 97.7689 7.39002 98.6289 7.21002 99.5989C5.24002 110.059 5.85 122.409 8.31 132.799C9.04 135.889 10.09 139.639 11.77 142.289L9.27002 132.319C7.56002 121.969 7.57997 110.789 10.09 100.559C10.28 99.7689 10.5 97.8089 10.57 97.6789C10.82 97.1789 11.89 95.4689 12.49 94.3189C12.96 93.4289 13.3 92.1689 13.45 91.9189C13.48 91.8789 14.09 92.0089 14.41 91.5689C17.8 86.7589 21.09 83.6889 26.57 81.2789C27.64 80.8089 31.39 79.9889 31.59 79.8189C31.77 79.6689 32.8 76.6089 33.61 76.0889C23.85 77.1189 15.42 81.3689 10.57 89.9989ZM552.49 78.4889C548.51 80.6989 547.7 84.8889 549.99 88.9089C550.75 90.2489 552.18 90.9589 552.74 92.3989C553.7 94.8489 553.53 98.8489 553.93 101.529H555.85C555.06 98.2489 554.86 94.8089 554.89 91.4489C554.97 83.3989 556.25 87.7989 559.22 84.0189C562.6 79.7189 558.2 75.3189 552.49 78.4889ZM84.97 121.179L86.89 121.419L85.43 99.8489C85.63 97.5289 85.18 94.9389 85.49 92.6789C86.04 88.6789 91.36 85.0989 92.16 80.8889C87.37 82.0489 82.42 81.9289 77.5 81.8689C65.71 81.7189 53.77 80.1789 42.02 79.9089C40.09 79.8589 33.61 79.4989 32.61 80.6189C31.46 81.9089 29.25 96.1889 28.87 98.9489C27.91 105.829 27.4 112.829 26.89 119.749C29.23 118.769 31.76 118.019 34.31 117.809C45.18 116.949 54.93 120.789 65.77 118.789C66.34 118.679 67.08 118.869 67.69 118.789C67.97 115.079 67.89 111.209 68.17 107.519C68.48 103.459 69.29 99.3089 69.6 95.2789C70.37 96.7189 70.21 99.5189 70.12 101.309C70.08 102.129 69.6 102.999 69.6 103.189V113.739C69.6 115.009 69.18 117.509 69.12 119.259C69.09 120.059 69.15 120.859 69.12 121.659C68.87 129.489 68.36 137.309 68.64 145.169C71.7 145.019 74.74 145.259 77.76 145.649C78.72 145.769 79.69 145.939 80.64 146.129C81.79 146.359 84.63 146.789 85.44 147.089C85.78 147.219 88.2 149.159 88.32 149.009C88.24 146.539 88.44 144.029 88.34 141.549C88.16 136.669 87.9 130.079 87.3 125.319C87.07 123.459 86.57 122.219 84.96 121.189L84.97 121.179ZM28.33 90.4789C19.06 92.8289 16.14 99.2589 14.95 108.049C13.51 118.639 14.28 133.509 22.34 141.329L28.33 90.4789ZM558.25 103.429H554.89V106.789L557.8 106.579L558.25 103.429ZM557.74 108.729L555.37 108.229L553.69 196.019C554.41 185.089 554.87 174.119 555.37 163.169C555.82 153.299 556.43 143.309 556.82 133.439C557.15 125.209 557.17 116.949 557.73 108.739L557.74 108.729ZM54.25 120.229C46.76 119.999 36.91 117.739 29.67 119.879C28.71 120.159 27.34 120.669 26.89 121.659C33.56 122.779 40.5 121.989 47.23 121.609L54.25 120.239V120.229ZM64.81 145.169C65.61 145.129 66.42 145.199 67.21 145.169L67.68 119.739C53.99 121.239 40.21 124.519 26.41 122.619L24.49 150.919C25.4 150.319 26.39 149.939 27.37 149.479C39.59 143.689 51.85 145.749 64.81 145.159V145.169ZM12.25 142.769V143.249C12.56 143.089 12.56 142.929 12.25 142.769ZM25.93 150.929C25.2 151.269 24.33 151.929 24.49 152.839C27.87 154.279 30.78 155.569 34.57 155.729C38.85 157.079 43.39 156.839 47.76 157.169C56.14 157.819 62.56 158.379 71.05 157.639C75.76 157.229 80.47 156.859 84.82 154.849C88.79 153.019 90.44 150.509 85.45 148.519C83.55 147.759 82.42 147.889 80.65 147.559C79.59 147.359 78.89 147.219 77.77 147.079C74.73 146.689 71.69 146.499 68.65 146.119C69.34 148.779 67.78 148.389 67.69 148.519C67.96 145.719 66.86 146.239 64.81 146.119C52.89 145.439 38.91 146.399 27.84 150.709C27.21 150.959 26.72 150.549 25.93 150.919V150.929ZM24.49 155.239C24.72 158.329 24.17 161.809 24.49 164.829C24.53 165.189 24.42 165.589 24.55 165.959C24.93 166.909 31.55 168.629 33.02 169.009C37.82 170.259 43.56 171.529 48.48 171.539C50.57 172.549 53.46 172.089 55.68 171.539C58.51 170.839 61.34 169.179 64.21 168.319C68.86 166.929 75.44 165.739 80.16 165.309C80.79 165.249 81.45 165.349 82.08 165.309C82.87 165.249 83.68 165.329 84.48 165.309C84.8 165.309 85.12 165.319 85.44 165.309C86.1 165.279 88.25 165.559 88.33 165.029V154.749C88.16 154.569 85.94 155.929 85.44 156.189C84.9 156.469 84.25 157.049 84 157.149C83.23 157.469 82.3 157.419 81.6 157.629C81.28 157.729 80.95 158.029 80.64 158.109C71.22 160.569 61.43 160.229 51.84 159.549C51.47 159.519 50.42 159.149 49.44 159.069C48.65 158.999 47.83 159.149 47.04 159.069C40.87 158.469 34.4 158.039 28.43 156.329C27.5 156.059 24.79 154.229 24.48 155.239H24.49ZM103.21 172.999C137.01 201.559 112.55 239.729 116.17 276.379C116.6 280.699 118.57 293.449 120.49 296.879C121.45 298.589 125.91 302.229 127.41 304.479C128.92 306.739 127.65 306.519 129.61 308.499C134.87 313.829 138 318.759 142.55 323.889C142.85 324.229 146.63 327.609 146.88 327.749C147.57 328.109 147.58 327.859 148.09 327.509C150.8 325.649 154 321.239 156.87 319.249C154.71 314.369 151.48 309.719 149.19 304.779C143.97 293.559 139.74 280.229 141.53 267.789C140 266.729 138.35 265.929 136.83 264.839C135.86 264.139 134.95 262.679 134.16 262.209C133.48 261.799 132.9 262.379 131.97 261.579C129.6 259.549 127.66 253.299 128.39 250.229C128.73 248.799 129.9 248.359 130.04 247.959C133.45 238.259 140.01 227.739 142.13 218.399C147.67 193.999 123.58 178.799 103.67 172.519C103.32 172.409 103.01 171.749 102.23 172.049C102.21 172.629 102.89 172.749 103.19 172.999H103.21ZM50.89 181.159L34.93 178.839L5.28998 190.749L27.01 193.519C29.78 193.099 46.31 184.619 49.3 182.699C49.9 182.309 50.69 181.919 50.89 181.169V181.159ZM39.37 190.269L26.18 195.099L1.94 191.459C4.4 193.949 8.04999 194.559 11.36 194.999C15.02 195.489 25.3 196.419 28.59 196.029C31.88 195.639 36.64 192.309 39.37 190.269ZM555.85 203.699C556.63 199.749 554.14 196.839 550.58 195.549C549.5 199.959 553.27 201.029 555.85 203.699ZM555.75 205.229C555.59 204.949 551.13 202.369 550.57 201.299C548.77 205.959 552.98 206.599 555.61 209.449C555.91 208.599 556.1 205.839 555.75 205.229ZM555.85 215.689C557.04 210.779 552.98 209.569 550.1 206.579C550.22 207.959 549.04 210.569 549.72 211.759C549.9 212.069 555.61 215.969 555.85 215.699V215.689ZM555.78 217.199C555.69 217.089 554.44 216.909 553.86 216.489C553.28 216.069 550.01 212.829 549.61 213.289C549.8 214.229 549.3 217.579 549.68 218.019C549.81 218.169 550.82 218.209 551.3 218.539C551.91 218.959 555.46 221.899 555.85 221.449C555.67 220.569 556.15 217.629 555.78 217.199ZM555.77 223.439C555.66 223.269 553.06 222.159 552.25 221.439C551.22 220.529 550.83 219.179 549.61 218.559L550.09 224.069L555.84 227.669C555.64 226.659 556.19 224.099 555.76 223.429L555.77 223.439ZM555.31 229.179C555.22 229.039 554.17 228.909 553.76 228.589C552.55 227.639 551.49 226.469 550.09 225.769L551.03 230.849L555.37 230.559C555.31 230.129 555.5 229.469 555.31 229.179ZM555.37 236.319C555.77 234.379 553.7 234.149 552.5 233.439C551.72 234.689 555.02 236.699 555.37 236.319ZM554.89 242.079C555.19 239.339 555.06 237.419 552.02 236.809C551.56 239.739 552.39 240.829 554.89 242.079ZM554.89 246.389C555.41 244.069 553.77 242.689 551.53 242.559C550.89 244.789 552.74 246.179 554.89 246.389ZM554.31 248.409C554.22 248.249 551.3 246.599 551.05 246.879C550.69 248.939 552.16 249.809 553.7 250.709C554.82 251.119 554.54 248.819 554.31 248.419V248.409ZM134.3 250.339C133.67 249.149 129.3 248.429 130.09 251.189L134.41 252.149C134.37 251.569 134.59 250.869 134.3 250.339ZM553.83 252.729C553.73 252.569 550.8 250.479 550.58 250.719C549.63 254.319 550.29 255.009 553.22 256.949C553.69 256.019 554.33 253.569 553.83 252.729ZM134.35 253.159L130.09 252.149V254.539L134.41 255.019L134.36 253.159H134.35ZM134.89 257.909C135.95 256.929 130.86 254.729 130.58 255.039L131.15 257.349L134.9 257.909H134.89ZM552.49 263.179C553.25 259.649 553.5 257.749 549.62 256.469L549.22 261.669L552.5 263.179H552.49ZM146.41 265.579C150.36 266.779 156.86 265.359 157.44 260.499C158.45 252.079 145.2 260.129 146.41 265.579ZM134.41 258.869L132.01 258.389C132.2 260.719 133.18 261.019 134.41 258.869ZM551.43 265.199C551.28 264.949 549.15 264.039 548.66 263.659C549.08 267.809 544.43 278.899 545.39 282.029C545.67 282.929 547.24 283.519 547.22 284.759L548.62 281.129C548.83 278.269 552.55 267.119 551.43 265.189V265.199ZM121.93 301.559C120.89 298.319 118.61 297.949 116.73 300.919C117.46 304.719 119.65 302.069 121.93 301.559ZM119.05 303.969L120.3 306.319L124.8 304.199C122.98 301.379 121.52 303.349 119.05 303.969ZM127.21 307.309C126.33 303.449 123.37 306.719 120.97 306.839C123.31 310.669 124.14 308.709 127.21 307.309ZM167.05 316.919C164.48 317.149 161.28 318.059 165.12 319.789L167.05 316.919ZM177.61 346.179L187.65 335.459C183.6 330.859 180.55 325.269 176.42 320.749C171.61 315.489 171.38 316.139 165.74 320.149C165.48 320.329 164.82 320.149 165.15 320.969C165.27 321.259 168.7 325.679 168.97 325.819C169.73 326.209 171.93 325.179 173.05 325.179C180.67 325.119 184.46 336.439 177.09 339.769L177.61 346.189V346.179ZM406.57 360.089L406.33 359.609C404.74 359.259 403.57 359.789 402.25 360.089C387.76 363.289 389 380.239 399.41 388.109C411.69 397.399 438.42 394.469 452.74 391.119C488.23 382.829 516.25 357.869 532.1 325.559C533.69 322.309 534.27 322.369 532.54 318.839C532.29 318.329 532.58 317.619 531.61 317.869C531.09 318.009 527.48 325.869 526.65 327.309C512.74 351.259 497.03 371.389 471.21 383.199C452.58 391.729 413.28 401.299 398.69 382.109C393.17 374.849 393.69 365.459 402.82 361.849C404.11 361.339 405.99 361.849 406.57 360.079V360.089ZM160.33 324.099L160.31 323.409C159.25 322.689 158.77 320.399 157.3 320.799C156.1 321.119 151.01 327.259 149.03 327.949C148.15 329.339 150.73 331.559 151.45 332.739C152.24 332.759 158.21 324.179 160.33 324.099ZM164.65 335.149C165.12 335.399 167.37 337.729 167.53 337.549C167.76 336.139 165.6 335.359 165.13 334.669C163.85 332.789 165.34 330.969 165.05 329.729C164.86 328.879 162.06 326.189 161.51 325.069L152.63 332.979C151.63 333.839 154.27 335.429 154.92 335.549C156.65 335.879 157.78 334.319 159.61 334.159C161.06 334.039 163.37 334.469 164.65 335.139V335.149ZM176.97 328.589C175.06 326.659 172.44 326.909 169.93 326.989C172.74 330.149 176.16 332.989 176.65 337.539C180.57 336.629 179.02 330.659 176.96 328.589H176.97ZM146.81 328.989C145.24 328.069 140.95 331.249 142.33 333.709C143.11 335.119 144.28 331.079 145.64 331.329C148.49 334.809 150.51 338.549 155.39 339.369L156.97 337.549C154.94 337.099 153.16 336.949 151.45 335.619C149.74 334.289 147.22 329.239 146.8 328.989H146.81ZM161.29 353.379C159.9 362.829 169.17 369.809 173.65 358.299C176.29 351.519 176.95 339.129 172.9 332.889C171.7 331.029 169.5 328.409 167.53 330.819C172.31 330.989 173.95 338.139 174.24 342.109C174.61 347.199 173.29 359.949 167.53 361.819C164.11 362.929 163.05 354.979 161.29 353.379ZM101.29 375.919C103.16 375.159 107.91 375.379 109.25 374.519C110.42 373.769 114.72 367.999 116.4 366.319C123.62 359.099 131.27 351.969 138.73 344.979C139.83 343.949 144.27 341.109 143.95 339.819L141.14 335.379L101.3 375.919H101.29ZM144.5 347.619C143.22 350.199 141.36 353.019 143.25 355.819C150.52 358.259 162.33 346.379 163.49 339.959C164.25 335.759 161.04 334.769 157.67 336.089C158.72 338.209 157.08 339.749 156.99 341.159C156.91 342.479 158.55 344.789 156.26 345.229C155.15 345.179 154.46 343.029 152.61 345.929C151.8 347.189 153.39 348.559 152.21 349.809C150.95 350.719 149.93 349.109 149.06 349.069C148.29 349.039 146.25 350.649 145.48 349.989C145.26 349.799 145.49 347.599 144.5 347.619ZM162.73 345.699C162.34 346.319 160.94 347.839 160.33 348.579C156.93 352.699 151.44 357.509 145.93 358.169C144.8 358.309 143.97 357.959 143.06 357.909C142.42 357.879 142.38 357.389 142.57 358.409C143.1 361.319 146.78 365.099 148.19 367.789C151.97 367.969 154.28 365.619 157.24 363.949L157.4 363.299C157.38 363.119 157 363.049 156.98 362.969C156.22 359.979 155.97 357.029 157.73 354.369C159.07 352.339 159.74 350.769 160.82 349.059C161.39 348.169 162.49 347.089 163.22 346.179C165.82 342.949 170.18 340.819 165.14 337.069C165.51 340.149 164.33 343.149 162.74 345.709L162.73 345.699ZM147.37 376.879C148.62 375.819 150.01 374.889 151.2 373.759C147.3 368.939 143.73 363.799 141.13 358.169C140.99 355.289 140.24 353.629 141.36 350.489C142.54 347.179 146.72 345.489 144.25 341.379L113.28 372.309C112.46 373.639 110.28 375.289 110.61 376.889C110.99 378.709 119.65 389.539 121.46 391.499C122.97 393.129 125.17 396.299 127.47 394.649C133.9 388.499 140.6 382.639 147.36 376.879H147.37ZM172.33 363.929C168.71 367.719 161.57 369.419 158.17 364.429C156.09 366.569 153.95 367.689 151.21 368.729C150.57 368.969 149.79 369.099 149.29 369.449C151.03 370.699 153.53 376.099 155.3 376.409C161.87 377.569 178.85 364.719 179.5 357.879C179.67 356.089 178.59 353.319 176.65 352.899C176.52 356.649 174.93 361.209 172.33 363.929ZM225.61 365.359C220.11 360.779 211.53 366.989 210.47 373.019C207.59 389.339 223.03 403.469 236.67 409.249C266.22 421.759 304.35 419.249 335.06 412.629C356.25 408.059 377.58 401.179 395.03 388.109C393.43 383.699 389.97 388.179 387.52 389.749C352.49 412.209 304.8 419.579 263.83 414.249C246.44 411.979 225.31 405.739 215.81 389.809C212.48 384.219 209.26 372.629 215.85 368.339C219.31 366.089 222.42 367.719 225.61 365.379V365.359ZM399.86 379.759C400.45 380.199 404.32 376.149 404.9 375.449C406.81 373.139 408.56 370.839 407.91 367.639C406.69 361.649 399.83 364.759 398.18 369.199C396.75 373.029 398.5 376.249 399.87 379.759H399.86ZM223.49 385.319C226.62 381.609 230.11 375.689 226.11 371.349C223.64 368.669 217.82 368.899 215.79 372.109C212.58 377.199 216.02 384.609 218.42 389.359C219.22 389.969 222.86 386.069 223.49 385.319ZM112.81 391.269L109.69 389.359C109.1 389.829 108.77 390.169 109.02 390.979C109.11 391.269 113.29 395.019 113.6 395.069C114.12 395.159 114.78 394.549 114.98 394.139C116.01 391.959 112.55 388.839 111.13 387.439C108.91 389.219 112.95 389.039 112.81 391.269ZM113.29 395.599C111.66 396.229 108.79 391.749 108.25 391.769C106.77 393.499 105.52 395.619 105.61 397.999C106.01 398.409 113.67 398.069 113.29 395.609V395.599ZM216.45 397.459L214.33 394.169C200.84 406.529 183.53 414.959 165.61 418.869C158.75 420.369 151.64 420.799 144.87 422.129C143.83 422.329 142.07 422.279 141.61 423.419C147.97 423.819 154.21 422.539 160.42 421.359C180.53 417.529 199.75 409.139 216.45 397.469V397.459ZM109.93 400.389C108 399.849 107.57 402.569 107.52 404.009C107.36 408.739 110.59 413.309 114 416.229C115.22 417.279 117.72 419.889 118.57 417.659C112.36 414.649 107.71 407.449 109.93 400.389ZM122.89 417.179L120.26 418.629L117.61 421.489L123.36 423.419L122.88 417.189L122.89 417.179ZM127.14 417.729L123.37 417.189C124.48 421.039 123.95 424.879 129.13 424.379L127.14 417.729ZM131.94 418.199L128.17 417.659C128.57 421.149 129.9 425.979 134.4 424.849L131.94 418.199ZM136.31 418.159L133.45 418.139C133.02 419.609 136.03 426.029 137.77 424.369C138.15 424.009 135.88 419.329 136.31 418.159ZM143.05 418.149H137.77L138.74 422.939C139.86 423.249 139.55 422.639 139.83 422.329C140.99 421.039 142.16 419.649 143.05 418.149ZM136.26 426.369C135.96 426.179 132.61 425.819 132.98 426.999C133.64 429.129 139.7 436.379 141.94 436.749C142.71 436.879 143.62 435.829 144.5 435.879C144.68 435.109 144.23 434.899 143.8 434.429C141.99 432.469 139.22 430.709 137.3 428.449C136.8 427.859 136.39 426.439 136.27 426.359L136.26 426.369Z" fill="#0D0B0C"/>
<path d="M562.57 0.288939C567.43 0.308939 574.91 -0.371061 579.37 0.288939C582.26 0.718939 581.65 6.58895 581.84 8.85895C584.47 10.1089 587.42 8.89896 589.74 7.52896L590.89 8.92895V11.3289C588.11 12.8489 584.96 14.099 581.77 13.249C580.46 18.199 587.35 25.1389 585.99 29.6989C585.69 30.6889 584.69 31.169 583.7 30.989L581.05 23.7989C580.17 25.0289 578.81 24.7989 577.45 24.7589C578.14 26.5689 576.54 27.3789 576.27 28.1289C575.85 29.3089 576.38 30.9989 575.22 31.3889L538.41 38.6089C537.32 38.3089 536.7 34.979 536.41 33.869C534.48 26.359 533.44 18.469 532.07 10.839L540.29 7.98895C540.66 5.77895 540.22 1.35896 542.87 0.498961C549.42 0.128961 556.02 0.258939 562.58 0.288939H562.57ZM573.13 29.0689L568.8 4.11896L534.29 11.6289L538.56 35.7889L573.12 29.0689H573.13ZM589.93 8.92895C586.86 11.009 581.44 11.719 578.65 8.92895C577.71 7.98895 577.66 6.62895 576.49 6.04895C576.15 10.7489 581.94 12.719 585.81 12.249C587.66 12.019 590.64 11.229 589.93 8.92895ZM585.13 29.5489C583.36 23.6989 581.61 14.559 574.57 13.249C580 17.289 582.04 22.219 584.12 28.429C584.37 29.179 583.7 29.7989 585.13 29.5489ZM574.09 17.559C574.52 20.009 574.67 22.539 575.04 24.999C575.16 25.809 574.82 26.5589 575.77 27.1389C576.76 26.4889 576.43 26.039 576.37 25.119C576.28 23.759 575.49 20.609 575.07 19.209C574.88 18.569 575.03 17.7189 574.09 17.5489V17.559Z" fill="#0D0B0C"/>
<path d="M143.05 437.809V438.289H141.13V437.809C141.49 437.889 142.68 437.879 143.05 437.809Z" fill="#757676"/>
<path d="M65.7701 118.779C54.9301 120.779 45.1901 116.939 34.3101 117.799C31.7601 117.999 29.2301 118.749 26.8901 119.739C27.4101 112.819 27.9101 105.819 28.8701 98.939C29.2601 96.179 31.4601 81.9091 32.6101 80.6091C33.6101 79.4891 40.0901 79.8591 42.0201 79.8991C53.7701 80.1691 65.7101 81.7091 77.5001 81.8591C82.4201 81.9191 87.3701 82.039 92.1601 80.879C91.3601 85.089 86.0301 88.6691 85.4901 92.6691C85.1801 94.9391 85.6301 97.5291 85.4301 99.8391L86.8901 121.409L84.9701 121.169C83.7001 120.349 82.6901 120.059 81.1301 120.209C81.0801 117.569 81.1601 114.919 81.1501 112.269L80.1701 101.019C80.2101 99.589 80.1001 98.129 80.1701 96.699C81.7301 94.579 81.1501 91.259 81.9401 88.629C82.4101 87.059 83.8201 85.4891 84.0101 84.2191C84.1101 83.5191 84.1801 83.079 83.3001 83.259C82.3801 84.399 80.7301 85.459 79.9501 86.629C77.3101 90.629 76.9801 99.729 76.7901 104.579C76.6001 109.429 76.9701 114.049 76.8101 118.749C75.1501 118.609 72.3701 118.459 71.0501 119.229C70.4801 119.129 69.7401 119.299 69.1301 119.229C69.1901 117.479 69.6101 114.979 69.6101 113.709V103.159C69.6101 102.969 70.0801 102.089 70.1301 101.279C70.2201 99.4891 70.3901 96.689 69.6101 95.249C69.7301 93.669 69.5101 92.029 69.6101 90.449C70.8701 90.719 70.5801 89.819 70.8001 89.019C70.9801 88.329 71.7601 84.969 71.5301 84.689C70.6501 84.419 70.7001 85.1091 70.5701 85.1691C67.7301 86.4591 67.1801 92.009 66.7901 95.059C65.8001 102.769 65.8201 110.979 65.7701 118.749V118.779Z" fill="#B6E5FD"/>
<path d="M555.37 75.129C548.16 75.559 544.93 82.939 547.8 89.179C549.07 91.949 551.91 92.929 551.53 96.719H542.41L540.49 54.029C541.71 54.039 542.86 53.619 544.07 53.529C550.79 53.029 565.51 52.739 571.95 53.529C572.46 53.589 573.05 53.509 573.4 53.999C574.14 62.379 573.07 70.819 573.11 79.239C573.13 84.159 574.23 90.049 573.64 95.069C573.56 95.769 573.58 96.299 572.9 96.719H561.14L560.66 91.929C571.39 89.619 570.46 77.979 560.18 75.609V74.649C562.86 74.219 565.55 71.179 566.52 68.749C570.05 59.859 560.43 54.049 552.55 58.149C546.36 61.369 547.5 72.119 554.42 74.169L555.38 75.129H555.37Z" fill="white"/>
<path d="M27.3699 149.489L27.8499 124.549C40.3599 128.219 52.8998 124.369 65.2798 122.149L64.7999 145.179C51.8399 145.769 39.5799 143.709 27.3599 149.499L27.3699 149.489ZM42.7299 127.899C45.7099 127.709 47.0299 130.859 43.1799 130.089L42.7299 127.899C41.8299 129.159 41.1499 129.169 42.7299 131.019C45.5599 132.159 47.8599 129.929 45.8999 127.369C45.2699 126.879 43.7699 126.729 43.0399 126.919C42.4699 127.069 42.8199 127.779 42.7399 127.899H42.7299ZM48.5599 138.499C48.0699 139.149 49.1899 140.179 50.1699 139.889C51.5599 139.479 51.0599 136.299 48.9799 137.019C49.9299 139.029 48.7599 138.229 48.5599 138.499ZM36.0499 140.799C37.1099 142.279 40.6099 140.369 39.1599 138.419C37.7099 136.469 34.9599 139.279 36.0499 140.799Z" fill="#46ACDE"/>
<path d="M141.13 358.169C141.13 358.169 140.63 358.049 140.7 358.839C141.29 365.609 144.16 371.079 147.37 376.879C140.6 382.639 133.9 388.509 127.48 394.649C125.17 396.289 122.97 393.129 121.47 391.499C119.66 389.539 111 378.709 110.62 376.889C110.28 375.289 112.47 373.639 113.29 372.309L144.26 341.379C146.73 345.489 142.56 347.169 141.37 350.489C140.25 353.629 140.99 355.289 141.14 358.169H141.13ZM132.36 364.049C121.74 365.669 118.85 385.939 133.09 383.489C145.31 381.389 144.42 362.219 132.36 364.049Z" fill="white"/>
<path d="M406.57 360.089C405.99 361.859 404.11 361.349 402.82 361.859C393.69 365.469 393.17 374.859 398.69 382.119C413.28 401.299 452.58 391.729 471.21 383.209C497.03 371.399 512.73 351.259 526.65 327.319C527.49 325.879 531.1 318.019 531.61 317.879C532.58 317.619 532.29 318.329 532.54 318.849C534.26 322.379 533.69 322.319 532.1 325.569C516.25 357.879 488.22 382.839 452.74 391.129C438.43 394.479 411.69 397.409 399.41 388.119C389 380.249 387.76 363.299 402.25 360.099H406.57V360.089Z" fill="#757676"/>
<path d="M225.61 365.359C222.42 367.699 219.31 366.069 215.85 368.319C209.26 372.609 212.48 384.199 215.81 389.789C225.31 405.729 246.45 411.969 263.83 414.229C304.8 419.569 352.49 412.199 387.52 389.729C389.97 388.159 393.43 383.669 395.03 388.089C377.58 401.169 356.24 408.039 335.06 412.609C304.35 419.239 266.22 421.739 236.67 409.229C223.03 403.449 207.59 389.319 210.47 372.999C211.53 366.969 220.11 360.759 225.61 365.339V365.359Z" fill="#757676"/>
<path d="M64.8102 146.129C64.7202 147.309 64.9902 150.859 66.0202 151.399C66.9502 151.889 67.2402 149.159 67.6902 148.529C67.7802 148.399 69.3402 148.789 68.6502 146.129C71.6902 146.509 74.7302 146.699 77.7702 147.089L78.2502 150.929C69.9502 152.969 62.2002 154.289 53.5602 154.309C49.0502 154.319 43.4702 153.969 39.3802 152.129C42.5602 149.639 47.0602 149.599 50.9002 149.009L50.6602 148.059C50.3202 148.319 49.8802 148.509 49.4502 148.529C46.6902 146.559 33.5402 149.029 37.7102 153.789C39.5102 155.859 52.8302 157.449 55.6902 155.719C57.2002 155.709 59.3802 156.119 60.4902 155.239C65.2502 155.069 75.0801 154.419 79.0901 151.979C80.5501 151.089 79.6602 150.989 79.6902 150.919C80.1402 149.839 80.6602 148.779 80.6502 147.559C82.4202 147.889 83.5502 147.759 85.4502 148.519C85.3102 149.689 85.9002 151.819 84.9702 152.599L71.0502 157.629C62.5602 158.369 56.1402 157.809 47.7602 157.159C43.3802 156.819 38.8502 157.069 34.5702 155.719C35.1202 155.739 37.0202 156.079 36.9702 155.249C33.1602 154.169 28.4902 154.409 25.9302 150.929C26.7202 150.559 27.2101 150.969 27.8401 150.719C38.9201 146.409 52.8902 145.449 64.8102 146.129ZM58.8902 147.629C56.6802 148.369 58.0302 152.539 60.6302 151.819C63.0202 151.149 62.1202 146.549 58.8902 147.629Z" fill="#757676"/>
<path d="M80.6501 158.119L80.17 165.319C75.45 165.749 68.87 166.939 64.22 168.329C61.34 169.189 58.5101 170.859 55.6901 171.549C54.3801 171.639 53.12 171.279 51.85 171.069C48.01 170.449 44.1801 169.709 40.3301 169.149V159.559C42.4601 159.089 45.0601 160.009 46.9001 160.019C47.6201 160.019 47.9501 159.559 48.0101 159.559C48.4901 159.549 48.9701 159.579 49.4501 159.559C50.2501 159.529 51.05 159.579 51.85 159.559C61.44 160.239 71.2301 160.579 80.6501 158.119Z" fill="#ED4534"/>
<path d="M50.8901 181.159C50.6901 181.909 49.9 182.299 49.3 182.689C46.31 184.619 29.7801 193.099 27.0101 193.509L5.29004 190.739L34.9301 178.829L50.8901 181.149V181.159Z" fill="#757676"/>
<path d="M101.29 375.919L141.13 335.379L143.94 339.819C144.27 341.109 139.82 343.949 138.72 344.979C131.26 351.969 123.62 359.099 116.39 366.319C114.71 367.999 110.4 373.769 109.24 374.519C107.91 375.379 103.15 375.159 101.28 375.919H101.29Z" fill="#757676"/>
<path d="M65.2901 70.3391L60.2501 71.2891C55.9801 71.2091 51.66 71.289 47.53 72.489C45.32 73.139 41.9001 74.539 41.2901 77.049C43.3601 76.889 44.6601 75.1991 46.5701 74.4191C51.7601 72.3091 70.1301 71.3291 75.2101 73.6091C76.6901 74.2791 78.6901 75.7291 78.7201 77.5291L34.5601 78.489C33.8001 77.819 39.2701 73.4191 39.8701 73.0091C46.7801 68.3291 57.4901 68.0691 65.2701 70.3391H65.2901Z" fill="#ED4534"/>
<path d="M27.3702 149.489C26.4002 149.949 25.4002 150.329 24.4902 150.929L26.4102 122.629C40.2102 124.529 54.0002 121.249 67.6802 119.749L67.2103 145.179C66.4103 145.209 65.6002 145.139 64.8102 145.179L65.2902 122.149C52.9102 124.359 40.3602 128.219 27.8602 124.549L27.3802 149.489H27.3702Z" fill="white"/>
<path d="M69.13 121.659L76.76 122.189C77.36 123.929 77.23 125.629 77.29 127.419C73.29 124.249 73.13 132.119 77.29 129.819C77.55 135.079 77.85 140.369 77.77 145.649C74.75 145.259 71.71 145.019 68.65 145.169C68.38 137.309 68.88 129.489 69.13 121.659ZM73.01 138.019C72.38 139.649 71.76 141.879 74.17 141.859C77.75 141.819 75.97 137.299 73.01 138.019Z" fill="#46ACDE"/>
<path d="M177.61 346.179L177.09 339.759C184.45 336.429 180.67 325.119 173.05 325.169C171.93 325.169 169.73 326.199 168.97 325.809C168.7 325.669 165.26 321.249 165.15 320.959C164.82 320.139 165.48 320.319 165.74 320.139C171.38 316.129 171.61 315.479 176.42 320.739C180.55 325.259 183.6 330.849 187.65 335.449L177.61 346.169V346.179Z" fill="white"/>
<path d="M144.5 347.619C145.49 347.599 145.26 349.799 145.48 349.989C146.25 350.639 148.29 349.039 149.06 349.069C149.93 349.099 150.95 350.719 152.21 349.809C153.4 348.569 151.81 347.189 152.61 345.929C154.46 343.029 155.15 345.179 156.26 345.229C158.55 344.779 156.9 342.479 156.99 341.159C157.08 339.749 158.71 338.209 157.67 336.089C161.04 334.769 164.25 335.749 163.49 339.959C162.33 346.379 150.52 358.259 143.25 355.819C141.36 353.019 143.22 350.199 144.5 347.619Z" fill="white"/>
<path d="M216.45 397.459C199.75 409.119 180.53 417.519 160.42 421.349C154.21 422.529 147.97 423.819 141.61 423.409C142.07 422.269 143.83 422.319 144.87 422.119C151.64 420.799 158.75 420.359 165.61 418.859C183.52 414.949 200.84 406.519 214.33 394.159L216.45 397.449V397.459Z" fill="#757676"/>
<path d="M557.74 108.729C557.17 116.939 557.15 125.199 556.83 133.429C556.44 143.299 555.83 153.289 555.38 163.159C554.88 174.119 554.42 185.079 553.7 196.009L555.38 108.219L557.75 108.719L557.74 108.729Z" fill="#757676"/>
<path d="M47.0498 159.079L48.0098 159.559C47.9498 159.559 47.6198 160.019 46.8998 160.019C45.0598 160.019 42.4598 159.089 40.3298 159.559V169.149C44.1798 169.709 48.0098 170.439 51.8498 171.069C51.1998 171.889 49.5298 171.549 48.4898 171.549C43.5598 171.529 37.8198 170.269 33.0298 169.019C31.5598 168.639 24.9398 166.919 24.5598 165.969C24.4198 165.609 24.5298 165.209 24.4998 164.839L31.6698 166.739L32.6098 158.869C30.0698 157.599 26.8398 157.299 24.4998 155.239C24.8098 154.229 27.5098 156.069 28.4498 156.329C34.4198 158.049 40.8898 158.479 47.0598 159.069L47.0498 159.079ZM38.4098 159.079L34.0898 158.599L34.8498 167.759L37.4498 168.189L38.4098 159.069V159.079Z" fill="white"/>
<path d="M160.81 349.059C159.73 350.759 159.06 352.339 157.72 354.369C155.96 357.039 156.21 359.979 156.97 362.969C155.11 364.419 152.2 367.149 149.61 366.249C148.33 365.809 145.74 359.839 145.93 358.169C151.44 357.499 156.93 352.699 160.33 348.579L160.81 349.059Z" fill="white"/>
<path d="M172.33 363.929C174.93 361.209 176.53 356.649 176.65 352.899C178.59 353.309 179.67 356.079 179.5 357.879C178.85 364.719 161.88 377.569 155.3 376.409C153.52 376.099 151.02 370.699 149.29 369.449C149.79 369.109 150.57 368.979 151.21 368.729C154.92 378.839 167.18 370.659 171.86 365.619C172.22 365.229 173.47 364.339 172.33 363.929Z" fill="#757676"/>
<path d="M10.5698 89.9988C15.4198 81.3688 23.8498 77.1189 33.6098 76.0889C32.7998 76.6089 31.7598 79.6688 31.5898 79.8188C31.3898 79.9888 27.6398 80.8089 26.5698 81.2789C21.0898 83.6889 17.7998 86.7688 14.4098 91.5688C14.0998 92.0088 13.4798 91.8689 13.4498 91.9189L10.5698 89.9988Z" fill="#ED4534"/>
<path d="M151.21 368.729C153.94 367.689 156.09 366.569 158.17 364.429C161.57 369.419 168.71 367.729 172.33 363.929C173.46 364.339 172.22 365.229 171.86 365.619C167.18 370.659 154.92 378.839 151.21 368.729Z" fill="white"/>
<path d="M81.1298 123.579C81.9698 123.269 85.3698 124.219 85.4898 124.849L85.4498 147.089C84.6398 146.789 81.7999 146.359 80.6499 146.129C80.7199 145.359 80.5399 144.479 80.6499 143.729C81.6399 136.839 81.2098 130.599 81.1298 123.579Z" fill="#46ACDE"/>
<path d="M161.29 353.379C163.05 354.979 164.12 362.929 167.53 361.819C173.29 359.959 174.6 347.199 174.24 342.109C173.95 338.139 172.31 330.989 167.53 330.819C169.5 328.409 171.7 331.029 172.9 332.889C176.95 339.129 176.29 351.509 173.65 358.299C169.17 369.809 159.9 362.829 161.29 353.379Z" fill="white"/>
<path d="M71.0497 119.259C73.7897 119.739 76.7898 120.319 79.6898 120.219L80.6498 143.729C80.5398 144.479 80.7198 145.359 80.6498 146.129C79.6998 145.939 78.7298 145.769 77.7698 145.649C77.8498 140.369 77.5497 135.079 77.2897 129.819C77.2497 129.019 77.3197 128.219 77.2897 127.419C77.2297 125.629 77.3598 123.929 76.7598 122.189L69.1298 121.659C69.1598 120.859 69.0998 120.059 69.1298 119.259C69.7398 119.329 70.4797 119.159 71.0497 119.259Z" fill="white"/>
<path d="M84.97 121.179C86.58 122.219 87.08 123.449 87.31 125.309C87.9 130.069 88.17 136.659 88.35 141.539C88.44 144.019 88.25 146.519 88.33 148.999C88.22 149.149 85.8 147.209 85.45 147.079L85.49 124.839C85.37 124.209 81.97 123.259 81.13 123.569C81.12 122.449 81.15 121.329 81.13 120.209C82.69 120.049 83.7 120.349 84.97 121.169V121.179Z" fill="white"/>
<path d="M552.49 78.4889C558.2 75.3089 562.59 79.7089 559.22 84.0189C556.26 87.7989 554.97 83.3989 554.89 91.4489C551.52 88.9889 549.61 85.9589 551.18 81.7389C551.61 80.5789 553.34 79.3989 552.49 78.4989V78.4889Z" fill="#757676"/>
<path d="M165.13 334.669L164.65 335.149C163.37 334.479 161.06 334.039 159.61 334.169C157.78 334.329 156.65 335.899 154.92 335.559C154.27 335.429 151.63 333.849 152.63 332.989L161.51 325.079C162.05 326.189 164.85 328.889 165.05 329.739C165.33 330.979 163.85 332.799 165.13 334.679V334.669Z" fill="white"/>
<path d="M10.09 100.549C7.58004 110.779 7.56009 121.959 9.27009 132.309L11.7701 142.279C10.0901 139.629 9.04007 135.879 8.31007 132.789C5.85007 122.399 5.2401 110.039 7.2101 99.5889L10.09 100.549Z" fill="#ED4534"/>
<path d="M70.5698 85.199C69.4798 86.929 69.7298 88.599 69.6098 90.479C69.5098 92.059 69.7298 93.699 69.6098 95.279C69.2998 99.309 68.4798 103.459 68.1798 107.519C67.8998 111.209 67.9798 115.079 67.6998 118.789C67.0898 118.869 66.3498 118.679 65.7798 118.789C65.8298 111.019 65.8098 102.809 66.7998 95.099C67.1898 92.039 67.7398 86.499 70.5798 85.209L70.5698 85.199Z" fill="white"/>
<path d="M24.4901 155.239C26.8301 157.299 30.0601 157.599 32.6001 158.869L31.6601 166.739L24.4901 164.839C24.1701 161.809 24.7201 158.329 24.4901 155.249V155.239Z" fill="#ED4534"/>
<path d="M551.43 265.199C552.55 267.129 548.82 278.279 548.62 281.139L547.22 284.769C547.24 283.529 545.66 282.939 545.39 282.039C544.43 278.909 549.08 267.819 548.66 263.669C549.16 264.049 551.28 264.949 551.43 265.209V265.199Z" fill="#757676"/>
<path d="M54.2501 120.229L47.2301 121.599C40.5001 121.989 33.5601 122.769 26.8901 121.649C27.3401 120.669 28.7101 120.159 29.6701 119.869C36.9101 117.729 46.7601 119.989 54.2501 120.219V120.229Z" fill="#46ACDE"/>
<path d="M147.37 376.879C144.16 371.089 141.29 365.609 140.7 358.839C140.63 358.039 141.14 358.209 141.13 358.169C143.74 363.799 147.31 368.939 151.2 373.759C150 374.889 148.62 375.809 147.37 376.879Z" fill="#757676"/>
<path d="M160.33 324.099C158.21 324.169 152.24 332.759 151.45 332.739C150.73 331.569 148.15 329.339 149.03 327.949C151 327.269 156.1 321.129 157.3 320.799C158.77 320.399 159.25 322.689 160.31 323.409L160.33 324.099Z" fill="#757676"/>
<path d="M39.3699 190.269C36.6399 192.319 31.9699 195.639 28.5899 196.029C25.2099 196.419 15.0099 195.489 11.3599 194.999C8.04992 194.559 4.39994 193.949 1.93994 191.459L26.1799 195.099L39.3699 190.269Z" fill="#757676"/>
<path d="M552.49 78.489C553.34 79.389 551.61 80.569 551.18 81.729C549.61 85.949 551.53 88.979 554.89 91.439C554.86 94.789 555.06 98.229 555.85 101.509H553.93C553.53 98.839 553.69 94.839 552.74 92.389C552.18 90.949 550.75 90.239 549.99 88.899C547.7 84.879 548.51 80.699 552.49 78.479V78.489Z" fill="white"/>
<path d="M136.26 426.369C136.37 426.439 136.79 427.869 137.29 428.459C139.21 430.719 141.98 432.469 143.79 434.439C144.22 434.909 144.67 435.119 144.49 435.889C143.62 435.839 142.7 436.889 141.93 436.759C139.69 436.389 133.63 429.139 132.97 427.009C132.6 425.819 135.95 426.189 136.25 426.379L136.26 426.369Z" fill="#46ACDE"/>
<path d="M176.97 328.589C179.03 330.669 180.58 336.629 176.66 337.539C176.17 332.989 172.75 330.149 169.94 326.989C172.45 326.909 175.07 326.659 176.98 328.589H176.97Z" fill="#757676"/>
<path d="M146.81 328.989C147.23 329.239 149.81 334.339 151.46 335.619C153.11 336.899 154.94 337.099 156.98 337.549L155.4 339.369C150.52 338.549 148.5 334.819 145.65 331.329C144.29 331.079 143.12 335.119 142.34 333.709C140.97 331.249 145.25 328.069 146.82 328.989H146.81Z" fill="white"/>
<path d="M71.0498 157.639L84.9698 152.609C85.8998 151.829 85.3098 149.699 85.4498 148.529C90.4398 150.519 88.7898 153.019 84.8198 154.859C80.4698 156.869 75.7498 157.239 71.0498 157.649V157.639Z" fill="white"/>
<path d="M109.93 400.389C107.71 407.449 112.36 414.649 118.57 417.659C117.72 419.879 115.22 417.269 114 416.229C110.59 413.309 107.36 408.739 107.52 404.009C107.57 402.569 108 399.849 109.93 400.389Z" fill="#757676"/>
<path d="M555.85 215.689C555.61 215.969 549.9 212.069 549.72 211.749C549.03 210.569 550.22 207.949 550.1 206.569C552.98 209.559 557.05 210.769 555.85 215.679V215.689Z" fill="#46ACDE"/>
<path d="M145.93 358.169C145.74 359.839 148.34 365.809 149.61 366.249C152.19 367.149 155.11 364.419 156.97 362.969C156.99 363.049 157.38 363.109 157.39 363.299L157.23 363.949C154.28 365.619 151.96 367.969 148.18 367.789C146.77 365.099 143.09 361.319 142.56 358.409C142.37 357.389 142.41 357.879 143.05 357.909C143.97 357.959 144.79 358.299 145.92 358.169H145.93Z" fill="#757676"/>
<path d="M559.21 238.239C560.05 240.169 563.13 247.879 563.42 249.629C563.6 250.719 563.84 251.839 562.8 252.629C561.97 253.029 561.92 251.819 561.74 251.319C560.97 249.279 560.62 247.039 559.91 244.969C558.8 241.719 556.83 239.059 557.05 235.369C557.7 236.069 558.86 237.429 559.21 238.239Z" fill="#46ACDE"/>
<path d="M85.4502 156.199C85.9502 155.949 88.1702 154.579 88.3302 154.759V165.039C88.2602 165.569 86.1102 165.289 85.4502 165.319V156.199Z" fill="#ED4534"/>
<path d="M113.29 395.599C113.67 398.059 106.01 398.399 105.61 397.989C105.52 395.609 106.77 393.489 108.25 391.759C108.8 391.749 111.66 396.219 113.29 395.589V395.599Z" fill="#757676"/>
<path d="M555.77 223.439C556.19 224.109 555.64 226.669 555.85 227.679L550.1 224.079L549.62 218.569C550.84 219.189 551.23 220.529 552.26 221.449C553.07 222.169 555.67 223.279 555.78 223.449L555.77 223.439Z" fill="#46ACDE"/>
<path d="M555.78 217.199C556.15 217.619 555.67 220.559 555.85 221.449C555.46 221.899 551.92 218.959 551.3 218.539C550.82 218.209 549.81 218.169 549.68 218.019C549.3 217.589 549.8 214.229 549.61 213.289C550 212.819 553.25 216.049 553.86 216.489C554.47 216.929 555.68 217.089 555.78 217.199Z" fill="#46ACDE"/>
<path d="M131.94 418.199L134.4 424.849C129.9 425.969 128.56 421.149 128.17 417.659L131.94 418.199Z" fill="#46ACDE"/>
<path d="M127.14 417.729L129.13 424.379C123.96 424.879 124.49 421.049 123.37 417.189L127.14 417.729Z" fill="#46ACDE"/>
<path d="M555.85 203.699C553.27 201.019 549.5 199.959 550.58 195.549C554.14 196.839 556.63 199.749 555.85 203.699Z" fill="#46ACDE"/>
<path d="M555.75 205.229C556.1 205.839 555.91 208.599 555.61 209.449C552.98 206.599 548.78 205.959 550.57 201.299C551.13 202.369 555.58 204.949 555.75 205.229Z" fill="#46ACDE"/>
<path d="M112.81 391.269C112.95 389.039 108.91 389.219 111.13 387.439C112.54 388.839 116.01 391.959 114.98 394.139C114.78 394.559 114.12 395.159 113.6 395.069C113.3 395.019 109.12 391.269 109.02 390.979C108.77 390.169 109.1 389.829 109.69 389.359L112.81 391.269Z" fill="#757676"/>
<path d="M122.89 417.179L123.37 423.419L117.61 421.489L120.26 418.629L122.89 417.179Z" fill="#46ACDE"/>
<path d="M26.4098 75.609L15.3698 81.359C15.2998 80.469 15.2598 79.949 15.8498 79.209C16.8398 77.989 24.5498 74.789 26.3998 75.609H26.4098Z" fill="#ED4534"/>
<path d="M552.49 263.179L549.21 261.669L549.61 256.469C553.49 257.749 553.25 259.649 552.48 263.179H552.49Z" fill="#46ACDE"/>
<path d="M84.0099 157.159C84.2199 159.829 83.4899 162.819 84.4899 165.319C83.6899 165.339 82.8798 165.259 82.0898 165.319L81.6099 157.639C82.3099 157.429 83.2399 157.479 84.0099 157.159Z" fill="#ED4534"/>
<path d="M136.31 418.159C135.88 419.329 138.15 424.009 137.77 424.369C136.04 426.029 133.03 419.599 133.45 418.139L136.31 418.159Z" fill="#46ACDE"/>
<path d="M25.9299 150.929C28.4899 154.409 33.1599 154.169 36.9699 155.249C37.0199 156.079 35.1199 155.749 34.5699 155.719C30.7799 155.559 27.8699 154.279 24.4899 152.829C24.3299 151.919 25.1999 151.259 25.9299 150.919V150.929Z" fill="white"/>
<path d="M12.4899 94.3189C11.8899 95.4689 10.8199 97.1789 10.5699 97.6789L7.68994 96.7189C8.26994 94.6889 8.90992 93.9889 9.60992 92.3989L12.4899 94.3189Z" fill="#ED4534"/>
<path d="M163.21 346.179L162.73 345.699C164.33 343.139 165.51 340.149 165.13 337.059C170.17 340.819 165.81 342.949 163.21 346.169V346.179Z" fill="white"/>
<path d="M555.31 229.179C555.5 229.469 555.31 230.129 555.37 230.559L551.03 230.849L550.09 225.769C551.49 226.469 552.55 227.639 553.76 228.589C554.17 228.909 555.22 229.039 555.31 229.179Z" fill="#46ACDE"/>
<path d="M553.83 252.729C554.32 253.569 553.68 256.019 553.22 256.949C550.29 255.009 549.63 254.309 550.58 250.719C550.8 250.479 553.74 252.569 553.83 252.729Z" fill="#46ACDE"/>
<path d="M143.05 418.149C142.15 419.649 140.99 421.029 139.83 422.329C139.55 422.639 139.86 423.249 138.74 422.939L137.77 418.139H143.05V418.149Z" fill="#46ACDE"/>
<path d="M121.93 301.559C119.65 302.069 117.46 304.719 116.73 300.919C118.61 297.959 120.89 298.319 121.93 301.559Z" fill="#46ACDE"/>
<path d="M127.21 307.309C124.14 308.709 123.32 310.679 120.97 306.839C123.36 306.709 126.33 303.439 127.21 307.309Z" fill="#46ACDE"/>
<path d="M85.45 165.319C85.13 165.329 84.81 165.319 84.49 165.319C83.49 162.829 84.22 159.829 84.01 157.159C84.26 157.059 84.91 156.479 85.45 156.199V165.319Z" fill="white"/>
<path d="M119.05 303.969C121.52 303.349 122.97 301.379 124.8 304.199L120.3 306.319L119.05 303.969Z" fill="#46ACDE"/>
<path d="M67.6899 148.529C67.2399 149.159 66.9499 151.899 66.0199 151.399C64.9899 150.849 64.7299 147.309 64.8099 146.129C66.8599 146.249 67.9599 145.729 67.6899 148.529Z" fill="white"/>
<path d="M82.0899 165.319C81.4599 165.359 80.7999 165.259 80.1699 165.319L80.65 158.119C80.96 158.039 81.2899 157.739 81.6099 157.639L82.0899 165.319Z" fill="white"/>
<path d="M558.25 103.429L557.8 106.579L554.89 106.789V103.429H558.25Z" fill="#757676"/>
<path d="M554.89 242.079C552.39 240.819 551.56 239.739 552.02 236.809C555.06 237.429 555.19 239.339 554.89 242.079Z" fill="#46ACDE"/>
<path d="M13.4499 91.9191C13.2999 92.1691 12.9599 93.429 12.4899 94.319L9.60986 92.399C9.96986 91.579 9.89989 91.189 10.5699 89.999L13.4499 91.9191Z" fill="white"/>
<path d="M10.5699 97.679C10.4999 97.809 10.2799 99.769 10.0899 100.559L7.20996 99.599C7.38996 98.639 7.38994 97.769 7.68994 96.719L10.5699 97.679Z" fill="white"/>
<path d="M134.35 253.159L134.41 255.029L130.09 254.549V252.149L134.35 253.159Z" fill="#46ACDE"/>
<path d="M554.89 246.389C552.74 246.179 550.9 244.789 551.53 242.559C553.77 242.689 555.41 244.079 554.89 246.389Z" fill="#46ACDE"/>
<path d="M134.3 250.339C134.58 250.869 134.36 251.569 134.41 252.149L130.09 251.189C129.3 248.429 133.67 249.149 134.3 250.339Z" fill="#46ACDE"/>
<path d="M80.65 147.569C80.66 148.789 80.14 149.839 79.69 150.929C79.24 150.999 78.65 150.829 78.25 150.929L77.77 147.089C78.89 147.229 79.59 147.369 80.65 147.569Z" fill="white"/>
<path d="M554.31 248.409C554.54 248.819 554.82 251.119 553.7 250.699C552.17 249.799 550.69 248.929 551.05 246.869C551.3 246.599 554.22 248.249 554.31 248.399V248.409Z" fill="#46ACDE"/>
<path d="M134.89 257.909L131.14 257.349L130.57 255.039C130.86 254.739 135.95 256.929 134.88 257.909H134.89Z" fill="#46ACDE"/>
<path d="M167.05 316.919L165.12 319.789C161.28 318.049 164.48 317.149 167.05 316.919Z" fill="#757676"/>
<path d="M555.37 236.319C555.02 236.699 551.72 234.689 552.5 233.439C553.7 234.149 555.77 234.369 555.37 236.319Z" fill="#46ACDE"/>
<path d="M55.6902 171.559C53.4702 172.109 50.5802 172.569 48.4902 171.559C49.5302 171.559 51.2002 171.899 51.8502 171.079C53.1202 171.289 54.3802 171.649 55.6902 171.559Z" fill="#BB7774"/>
<path d="M560.17 74.6489V75.6089C558.6 75.2489 556.99 75.0289 555.37 75.1289L554.41 74.1689C555.87 74.6089 558.69 74.8889 560.17 74.6489Z" fill="#757676"/>
<path d="M163.21 346.179C162.48 347.089 161.38 348.159 160.81 349.059L160.33 348.579C160.94 347.839 162.34 346.319 162.73 345.699L163.21 346.179Z" fill="#757676"/>
<path d="M134.41 258.869C133.19 261.009 132.21 260.719 132.01 258.389L134.41 258.869Z" fill="#46ACDE"/>
<path d="M165.13 334.669C165.6 335.359 167.76 336.139 167.53 337.549C167.37 337.729 165.12 335.399 164.65 335.149L165.13 334.669Z" fill="#757676"/>
<path d="M406.57 360.089H402.25C403.57 359.799 404.73 359.259 406.33 359.609L406.57 360.089Z" fill="#366565"/>
<path d="M49.4498 159.079V159.559C48.9698 159.579 48.4898 159.549 48.0098 159.559L47.0498 159.079C47.8398 159.159 48.6598 159.009 49.4498 159.079Z" fill="#83BFBF"/>
<path d="M51.8502 159.559C51.0502 159.579 50.2502 159.529 49.4502 159.559V159.079C50.4302 159.159 51.4802 159.529 51.8502 159.559Z" fill="#366565"/>
<path d="M103.69 172.519L103.21 172.999C102.91 172.739 102.23 172.619 102.25 172.049C103.03 171.749 103.34 172.409 103.69 172.519Z" fill="#757676"/>
<path d="M12.25 142.769C12.56 142.929 12.56 143.089 12.25 143.249V142.769Z" fill="#ED4534"/>
<path d="M573.13 29.0689L538.57 35.7889L534.3 11.6289L568.81 4.1189L573.14 29.0689H573.13ZM538.16 13.7889C537.58 14.7089 539.39 22.6089 539.76 24.2789C540.08 25.7089 541.19 32.0889 542.23 32.3889C548.64 31.4889 555.1 30.3589 561.33 28.5489C562.7 28.1489 567.89 26.9189 568.25 25.8689C568.53 25.0589 568.33 24.0289 568.21 23.1789C567.73 19.7589 565.93 13.1689 564.83 9.76889C564.62 9.11889 564.43 8.23888 563.68 8.00888L538.15 13.7789L538.16 13.7889Z" fill="white"/>
<path d="M589.93 8.92883C590.64 11.2288 587.66 12.0188 585.81 12.2488C581.94 12.7188 576.15 10.7488 576.49 6.04883C577.65 6.62883 577.71 7.98883 578.65 8.92883C581.44 11.7188 586.86 11.0088 589.93 8.92883Z" fill="#ED4534"/>
<path d="M585.13 29.549C583.7 29.799 584.37 29.169 584.12 28.429C582.04 22.219 580 17.289 574.57 13.249C581.61 14.559 583.36 23.699 585.13 29.549Z" fill="#46ACDE"/>
<path d="M574.09 17.5591C575.03 17.7291 574.87 18.5791 575.07 19.2191C575.49 20.6191 576.28 23.7691 576.37 25.1291C576.43 26.0491 576.75 26.4991 575.77 27.1491C574.82 26.5591 575.16 25.8091 575.04 25.0091C574.67 22.5491 574.52 20.0191 574.09 17.5691V17.5591Z" fill="#46ACDE"/>
<path d="M76.8101 118.779C76.9701 114.069 76.6101 109.309 76.7901 104.609C76.9701 99.909 77.3101 90.659 79.9501 86.659C80.7201 85.489 82.3701 84.419 83.3001 83.289C84.1801 83.099 84.1201 83.549 84.0101 84.249C82.6101 85.199 81.37 86.359 80.78 87.969C79.66 91.039 80.3101 93.939 80.1701 96.719C80.1001 98.149 80.2101 99.609 80.1701 101.039C80.1701 101.099 79.7001 101.159 79.6701 102.199C79.5101 107.879 79.8301 113.589 79.6901 119.269C78.6501 119.749 77.3201 118.829 76.8101 118.789V118.779Z" fill="white"/>
<path d="M81.1298 120.219C81.1498 121.339 81.1198 122.459 81.1298 123.579C81.2098 130.589 81.6398 136.839 80.6498 143.729L79.6898 120.219C76.7898 120.319 73.7898 119.739 71.0498 119.259C72.3698 118.489 75.1498 118.639 76.8098 118.779C77.3198 118.819 78.6498 119.739 79.6898 119.259C79.8298 113.579 79.5098 107.869 79.6698 102.189C79.6998 101.149 80.1698 101.089 80.1698 101.029L81.1498 112.279C81.1498 114.919 81.0798 117.579 81.1298 120.219Z" fill="#0D0B0C"/>
<path d="M80.1699 96.7191C80.2999 93.9391 79.6598 91.0391 80.7798 87.9691C81.3698 86.3491 82.6099 85.199 84.0099 84.249C83.8199 85.519 82.4099 87.0891 81.9399 88.6591C81.1499 91.2791 81.7299 94.5991 80.1699 96.7291V96.7191Z" fill="#0D0B0C"/>
<path d="M70.5699 85.1989C70.6999 85.1389 70.6398 84.4489 71.5298 84.7189C71.7598 84.9889 70.9799 88.3588 70.7999 89.0488C70.5899 89.8488 70.8699 90.7489 69.6099 90.4789C69.7299 88.6089 69.4799 86.9389 70.5699 85.1989Z" fill="#0D0B0C"/>
<path d="M560.17 74.6491C558.69 74.8891 555.87 74.6091 554.41 74.1691C547.49 72.1091 546.35 61.3691 552.54 58.1491C560.42 54.0491 570.04 59.859 566.51 68.7491C565.54 71.1891 562.86 74.2191 560.17 74.6491ZM554.41 72.2491C556.94 73.2891 559.48 74.159 561.6 71.9991C565.37 68.1691 563.37 61.9191 559.21 59.2891C557.2 58.0191 556.73 58.209 554.42 59.059C548.44 61.279 548.61 69.849 554.41 72.239V72.2491ZM565.44 68.4091C566.51 64.8091 566.08 60.669 562.09 59.299L564.51 63.8291L565.44 68.4091Z" fill="#0D0B0C"/>
<path d="M42.7298 127.899L43.1798 130.089C47.0298 130.859 45.7198 127.709 42.7298 127.899C42.8198 127.779 42.4598 127.069 43.0298 126.919C43.7598 126.729 45.2599 126.889 45.8899 127.369C47.8499 129.929 45.5498 132.159 42.7198 131.019C41.1398 129.169 41.8198 129.159 42.7198 127.899H42.7298Z" fill="#0D0B0C"/>
<path d="M36.05 140.799C34.96 139.279 37.6899 136.419 39.1599 138.419C40.6299 140.419 37.11 142.289 36.05 140.799ZM37.93 139.419L36.49 139.649C37.13 140.559 37.52 140.459 37.93 139.419Z" fill="#0D0B0C"/>
<path d="M48.5598 138.499C48.7598 138.229 49.9298 139.029 48.9798 137.019C51.0598 136.299 51.5598 139.469 50.1698 139.889C49.1898 140.179 48.0798 139.149 48.5598 138.499Z" fill="#0D0B0C"/>
<path d="M132.36 364.049C144.42 362.209 145.31 381.379 133.09 383.489C118.85 385.939 121.74 365.669 132.36 364.049ZM128.17 368.249C123.57 370.599 123.33 378.199 127.71 380.939C131.34 383.209 137.64 380.019 139.21 376.409C142.62 368.549 134.45 361.659 128.17 368.249Z" fill="#0D0B0C"/>
<path d="M49.4502 148.529C49.8702 148.509 50.3202 148.319 50.6602 148.059L50.9002 149.009C47.0602 149.609 42.5602 149.649 39.3802 152.129C43.4802 153.969 49.0502 154.319 53.5602 154.309C62.2102 154.289 69.9502 152.969 78.2502 150.929C78.6502 150.829 79.2402 150.999 79.6902 150.929C79.6602 150.999 80.5501 151.099 79.0901 151.989C75.0801 154.429 65.2502 155.069 60.4902 155.249C56.7002 155.389 52.2602 155.449 48.4902 155.249C45.1902 155.079 39.6302 154.899 37.9302 151.659C41.2002 149.119 45.4302 148.689 49.4502 148.539V148.529Z" fill="#0D0B0C"/>
<path d="M49.4499 148.529C45.4299 148.689 41.1998 149.109 37.9298 151.649C39.6298 154.889 45.1898 155.069 48.4898 155.239C50.4598 156.109 53.4198 155.729 55.6898 155.719C52.8198 157.449 39.5099 155.849 37.7099 153.789C33.5499 149.019 46.6899 146.559 49.4499 148.529Z" fill="white"/>
<path d="M58.8901 147.629C62.1201 146.539 63.0201 151.149 60.6301 151.819C58.0401 152.539 56.6801 148.379 58.8901 147.629ZM60.4901 149.009C60.4301 148.929 58.6701 148.429 58.5701 148.529C58.3801 151.899 61.5601 150.589 60.4901 149.009Z" fill="#0D0B0C"/>
<path d="M60.4902 155.239C59.3802 156.119 57.2002 155.709 55.6902 155.719C53.4202 155.739 50.4602 156.109 48.4902 155.239C52.2602 155.439 56.7002 155.379 60.4902 155.239Z" fill="#366565"/>
<path d="M73.0101 138.019C75.9701 137.289 77.75 141.809 74.17 141.859C71.76 141.889 72.3901 139.659 73.0101 138.019ZM73.4501 140.849C75.3001 140.709 74.98 139.929 73.69 138.939L73.4501 140.849Z" fill="#0D0B0C"/>
<path d="M77.2898 127.419C77.3198 128.219 77.2498 129.019 77.2898 129.819C73.1298 132.119 73.2898 124.249 77.2898 127.419ZM76.3298 127.899C75.4998 127.069 73.8798 128.669 75.6198 129.329C76.6398 129.719 76.4698 128.039 76.3298 127.899Z" fill="#0D0B0C"/>
<path d="M38.4099 159.079L37.4499 168.199L34.8499 167.769L34.0898 158.609L38.4099 159.079Z" fill="#ED4534"/>
<path d="M538.16 13.789L563.69 8.01904C564.44 8.24904 564.63 9.12905 564.84 9.77905C565.93 13.1791 567.73 19.779 568.22 23.189C568.34 24.029 568.54 25.059 568.26 25.879C567.9 26.929 562.71 28.1591 561.34 28.5591C555.11 30.3691 548.65 31.499 542.24 32.399C541.2 32.099 540.09 25.719 539.77 24.289C539.39 22.609 537.58 14.709 538.17 13.799L538.16 13.789ZM564.97 25.7191C565.6 25.5391 566.24 25.339 566.89 25.229L563.52 9.87903L551.52 12.2791L555.66 28.079C556.31 28.299 556.85 27.719 557.28 27.619C559.82 27.069 562.45 26.399 564.96 25.699L564.97 25.7191ZM550.57 14.679C550.4 13.639 551.19 12.889 549.85 12.739C547.06 12.429 542.07 14.559 539.05 14.679L543.37 30.989C544.05 31.299 544.6 30.549 544.81 30.509C547.71 29.959 550.56 29.1891 553.45 28.5891C552.12 24.049 551.33 19.349 550.57 14.679Z" fill="#0D0B0C"/>
<path d="M559.21 59.299C563.37 61.929 565.37 68.169 561.6 72.009C559.48 74.159 556.93 73.299 554.41 72.259C550.22 67.009 551.25 58.829 559.21 59.309V59.299ZM557.1 61.259C555.74 61.709 555.99 65.1291 557.96 64.5291C559.46 64.0791 559.87 60.339 557.1 61.259ZM556.45 67.579C554.88 69.149 556.55 71.4691 558.53 69.8991C560.51 68.3291 558.29 65.729 556.45 67.579Z" fill="#757676"/>
<path d="M559.21 59.2989C551.25 58.8189 550.22 66.9989 554.41 72.2489C548.61 69.8589 548.44 61.2889 554.42 59.0689C556.73 58.2089 557.2 58.0289 559.21 59.2989Z" fill="white"/>
<path d="M565.44 68.4089L564.51 63.8289L562.09 59.2988C566.08 60.6688 566.51 64.7989 565.44 68.4089Z" fill="#757676"/>
<path d="M37.9302 139.419C37.5202 140.469 37.1302 140.559 36.4902 139.649L37.9302 139.419Z" fill="#46ACDE"/>
<path d="M139.21 376.399C137.64 380.009 131.34 383.199 127.71 380.929C123.33 378.189 123.56 370.589 128.17 368.239C131.98 366.289 136.11 367.189 137.86 371.269C138.66 373.139 138.51 374.659 139.21 376.399ZM129.92 369.749C129.17 369.999 128.53 371.469 128.71 372.229C132.3 376.739 133.54 368.549 129.92 369.749ZM135.32 374.529C133.77 373.479 131.17 376.409 133.3 377.869C135.71 379.519 136.46 375.299 135.32 374.529Z" fill="#757676"/>
<path d="M139.21 376.399C138.5 374.659 138.66 373.149 137.86 371.269C136.11 367.189 131.98 366.289 128.17 368.239C134.45 361.649 142.62 368.529 139.21 376.399Z" fill="white"/>
<path d="M60.4897 149.009C61.5597 150.589 58.3797 151.899 58.5697 148.529C58.6697 148.429 60.4297 148.929 60.4897 149.009Z" fill="#757676"/>
<path d="M73.4502 140.849L73.6902 138.939C74.9802 139.929 75.3002 140.719 73.4502 140.849Z" fill="#46ACDE"/>
<path d="M76.33 127.899C76.47 128.039 76.64 129.719 75.62 129.329C73.88 128.669 75.5 127.059 76.33 127.899Z" fill="#46ACDE"/>
<path d="M550.57 14.679C551.33 19.349 552.12 24.039 553.45 28.589C550.56 29.189 547.71 29.9589 544.81 30.5089C544.25 25.9989 542.96 21.6289 541.48 17.3489C541.66 16.4989 549.24 14.899 550.57 14.679Z" fill="#757676"/>
<path d="M557.29 27.6289L553.45 13.719C556.2 13.679 558.95 11.8889 561.45 11.3889C562.38 11.2089 562.18 12.029 562.33 12.739C563.21 17.059 563.74 21.469 564.97 25.709C562.46 26.409 559.83 27.0789 557.29 27.6289Z" fill="#757676"/>
<path d="M557.29 27.6289C556.86 27.7189 556.32 28.3089 555.67 28.0889L551.53 12.2889L563.53 9.88892L566.9 25.2389C566.25 25.3389 565.61 25.5489 564.98 25.7289C563.75 21.4889 563.22 17.0789 562.34 12.7589C562.2 12.0489 562.39 11.2289 561.46 11.4089C558.96 11.9089 556.21 13.6989 553.46 13.7389L557.3 27.6489L557.29 27.6289Z" fill="white"/>
<path d="M544.81 30.5089C544.6 30.5489 544.06 31.2989 543.37 30.9889L539.05 14.6789C542.08 14.5489 547.07 12.4289 549.85 12.7389C551.19 12.8889 550.4 13.6289 550.57 14.6789C549.24 14.9089 541.66 16.4989 541.48 17.3489C542.96 21.6189 544.25 25.9989 544.81 30.5089Z" fill="white"/>
<path d="M556.45 67.5789C558.29 65.7289 560.5 68.329 558.53 69.899C556.56 71.469 554.89 69.1589 556.45 67.5789Z" fill="#0D0B0C"/>
<path d="M557.1 61.2591C559.88 60.3391 559.46 64.0791 557.96 64.5291C555.99 65.1291 555.73 61.7091 557.1 61.2591Z" fill="#0D0B0C"/>
<path d="M129.92 369.749C133.54 368.549 132.3 376.739 128.71 372.229C128.52 371.469 129.17 369.999 129.92 369.749Z" fill="#0D0B0C"/>
<path d="M135.32 374.529C136.47 375.299 135.71 379.519 133.3 377.869C131.17 376.409 133.76 373.479 135.32 374.529Z" fill="#0D0B0C"/>
</svg>
