<svg width="40" height="97" viewBox="0 0 40 97" fill="none" xmlns="http://www.w3.org/2000/svg">
<path d="M39.7342 27.5647C39.7142 28.3247 39.5442 29.1347 38.8842 29.5147C37.8142 30.1347 35.5442 29.7147 34.3342 29.7047L24.9143 29.6747C18.2143 29.6547 11.5042 29.6247 4.80416 29.6047C4.16416 29.6047 1.40424 30.0247 0.884235 29.5947C0.434235 29.2147 0.194255 26.5347 0.154255 25.7847C-0.305745 18.0347 0.42425 9.72467 0.27425 1.94467C0.35425 1.69467 0.654235 1.22469 0.884235 1.11469C1.11424 1.00469 3.57421 0.784669 4.10421 0.754669C12.6442 0.254669 21.5042 0.634689 30.0942 0.524689C32.2942 0.494689 37.9043 -1.10531 39.1543 1.43469C39.4343 2.00469 39.5042 2.66468 39.5642 3.29468C39.9242 7.46468 39.6042 11.6447 39.3842 15.8147C39.2942 17.5847 39.1742 19.3847 39.1842 21.1647C39.1942 23.0647 39.6042 24.9447 39.7042 26.8347C39.7142 27.0547 39.7242 27.3047 39.7142 27.5647H39.7342ZM2.08419 2.41467V27.5547C6.60419 27.4947 11.1142 27.4247 15.6342 27.3647C22.0242 27.2747 28.4143 27.1847 34.7943 27.0947C35.2743 27.0947 35.9242 27.1947 36.3842 27.0747C36.9042 26.9347 36.8142 27.0947 37.0542 26.4647C37.6042 25.0347 37.3042 23.3247 37.3342 21.8247C37.3742 20.2047 37.3842 18.5747 37.3942 16.9547C37.3942 14.7947 37.3742 12.6347 37.3742 10.4747C37.3742 8.84467 37.3742 7.2247 37.3742 5.5947C37.3742 4.8547 37.6842 3.22469 37.3642 2.55469C36.9542 1.69469 33.2842 2.21467 32.3142 2.22467C30.0042 2.24467 2.07418 2.37469 2.07418 2.43469L2.08419 2.41467Z" fill="#070707"/>
<path d="M21.6239 96.3547C19.3839 96.3547 17.1539 96.3547 14.9139 96.2947C13.0039 96.2547 11.1038 96.1947 9.19383 96.1047C8.32383 96.0647 7.43383 95.9847 6.57383 96.0247C5.83383 96.0647 4.96381 96.2346 4.30381 95.8046C3.57381 95.3346 3.39391 94.2846 3.28391 93.4946C1.31391 80.0046 2.0139 66.3547 2.2739 52.7847C2.3039 51.1047 2.9539 50.9647 4.5239 50.6647C5.6039 50.4547 6.70392 50.3747 7.79392 50.2547C10.0339 50.0047 12.3038 49.9747 14.5538 50.0147C20.2338 50.1047 25.8639 50.3347 31.5339 50.0947C32.7439 50.0447 33.9938 49.9847 35.1838 50.2647C36.7638 50.6347 37.0438 51.0147 37.2038 52.5047C38.6338 66.1747 37.9638 80.1147 37.8038 93.8347C37.8038 93.8947 37.8038 93.9647 37.8038 94.0247C37.8038 94.2347 37.8038 94.4447 37.8038 94.6547C37.5838 95.6347 36.4638 96.1146 35.5738 96.2446C32.2338 96.6946 28.8639 96.2447 25.5239 96.3147C24.2339 96.3447 22.9339 96.3546 21.6439 96.3646L21.6239 96.3547ZM4.94383 95.0647C5.38383 94.9847 5.78387 94.8247 6.24387 94.8147C15.1939 94.4947 24.8638 95.4747 33.6838 94.8347C34.1138 94.8047 35.9138 94.5747 36.0738 94.3547L35.9338 52.0847C34.6338 51.5047 33.1539 51.7647 31.7639 51.7247C24.4639 51.5047 16.6739 51.3947 9.36387 51.7347C8.45387 51.7747 3.76388 51.6547 3.37388 52.1847L4.94383 95.0546V95.0647Z" fill="#070707"/>
<path d="M2.08398 2.41479L37.374 2.1748C37.324 3.8048 37.424 5.45482 37.384 7.09482C37.364 7.77482 37.134 8.3648 37.124 8.9848C37.004 15.0148 37.334 21.0648 36.884 27.0548L2.08398 27.5448V2.40482V2.41479ZM24.684 4.8848C19.394 4.9748 13.6341 4.8448 8.40405 5.2948C6.85405 5.4248 5.38395 5.26481 5.17395 7.08481C4.75395 10.7648 5.19406 16.2548 5.41406 20.0248C5.46406 20.9548 5.17403 24.1048 5.88403 24.5848C10.024 24.9748 14.2439 25.0748 18.424 24.9448C22.344 24.8148 27.964 24.6048 31.754 23.9648C32.184 23.8948 32.544 23.7048 32.854 23.3948L32.244 5.5448C32.074 5.3248 31.844 5.11479 31.584 5.00479C30.424 4.51479 26.214 4.86481 24.684 4.89481V4.8848Z" fill="#F1F1F1"/>
<path d="M4.94397 95.0645L3.37402 52.1945C3.76402 51.6645 8.45401 51.7845 9.36401 51.7445C16.674 51.4045 24.464 51.5145 31.764 51.7345C33.154 51.7745 34.634 51.5145 35.934 52.0945L36.074 94.3644C35.914 94.5844 34.104 94.8145 33.684 94.8445C24.864 95.4845 15.194 94.5045 6.24402 94.8245C5.78402 94.8445 5.38397 95.0045 4.94397 95.0745V95.0645ZM18.714 55.1445C6.96399 56.6445 9.21405 74.6545 22.4041 72.7345C27.3441 72.0145 30.834 65.4045 29.204 60.7645C27.564 56.0945 23.374 54.5445 18.714 55.1445ZM19.434 75.2645C7.68396 76.6745 9.78398 94.7745 22.204 93.1345C24.714 92.8045 29.084 89.2845 29.704 86.7845C31.554 79.3945 26.834 74.3845 19.424 75.2645H19.434Z" fill="#F1F1F1"/>
<path d="M24.6845 4.8849C26.2245 4.8549 30.4245 4.50491 31.5845 4.99491C31.8445 5.10491 32.0745 5.30489 32.2445 5.53489L32.8545 23.3849C32.5445 23.6949 32.1845 23.8849 31.7545 23.9549C27.9645 24.5949 22.3445 24.8049 18.4245 24.9349C14.2545 25.0649 10.0346 24.9649 5.88455 24.5749C5.17455 24.1049 5.46458 20.9449 5.41458 20.0149C5.19458 16.2449 4.74447 10.7549 5.17447 7.0749C5.38447 5.2549 6.85457 5.41489 8.40457 5.28489C13.6346 4.83489 19.3945 4.96492 24.6845 4.87492V4.8849ZM17.5845 8.8849C17.6145 8.4149 18.0645 7.4549 17.8245 6.7349H6.38455L7.3345 23.4949C7.7345 23.5149 8.13457 23.4749 8.52457 23.4949C9.80457 23.5549 10.8345 23.2749 11.9745 23.2449C13.9245 23.1949 15.8845 23.3049 17.8245 23.2549C17.6645 18.5949 17.2945 13.5449 17.5845 8.8849ZM30.4545 22.5249C30.7745 22.5249 31.0946 22.5249 31.4046 22.5249L31.1646 6.72489L18.7646 6.96491L19.4845 23.2449C19.9745 23.3649 20.4946 23.0249 20.9146 23.0049C24.0946 22.8749 27.2745 22.5849 30.4545 22.5249Z" fill="#070707"/>
<path d="M19.4343 75.2647C26.8343 74.3747 31.5643 79.3947 29.7143 86.7847C29.0843 89.2847 24.7243 92.8047 22.2143 93.1347C9.79431 94.7747 7.68429 76.6747 19.4443 75.2647H19.4343ZM20.6743 76.3947C9.77427 76.5247 10.9944 92.7147 21.7544 91.4747C22.1744 91.5047 22.2043 91.1347 22.3443 91.0047C23.0343 90.3547 24.5444 88.9247 24.9044 88.1847C26.5244 84.8547 25.4144 78.0547 21.7544 76.3747C21.1444 76.0947 21.0743 76.3947 20.6743 76.4047V76.3947ZM26.0943 77.6647C25.9143 77.5147 24.1443 76.4147 24.4943 77.2247C24.7043 77.7047 25.7943 78.6247 26.2043 79.5747C27.3443 82.2247 27.5944 86.1647 26.1644 88.7147C26.6344 89.0747 27.5044 87.6947 27.7844 87.2347C29.0644 85.1447 29.1743 82.2647 28.1043 80.0547C27.8643 79.5647 26.4843 77.9847 26.0843 77.6547L26.0943 77.6647Z" fill="#070707"/>
<path d="M18.7137 55.1445C23.3837 54.5445 27.5737 56.0945 29.2037 60.7645C30.8337 65.4145 27.3437 72.0246 22.4037 72.7346C9.21375 74.6446 6.96369 56.6445 18.7137 55.1445ZM21.6337 71.3645C23.4337 71.2545 24.0637 70.7045 25.0137 69.1345C27.4837 65.0745 25.8837 60.3846 22.3437 57.7146C21.6837 57.2146 21.3137 56.5545 20.3137 56.5045C17.1037 56.3545 13.6938 58.6346 12.9138 61.7746C11.4738 67.6546 15.9137 71.7146 21.6237 71.3546L21.6337 71.3645ZM27.5837 67.0545C27.6537 66.9945 28.1237 65.6345 28.1937 65.3845C29.1937 61.6945 27.5638 57.5745 23.5438 57.0045L25.2037 58.5645C26.9337 60.8545 28.2837 64.2245 27.1137 67.0545C27.2637 67.0445 27.5437 67.0945 27.5837 67.0545Z" fill="#070707"/>
<path d="M17.5847 8.88477C17.2947 13.5348 17.6647 18.5948 17.8247 23.2548C15.8847 23.3048 13.9147 23.1948 11.9747 23.2448C10.8347 23.2748 9.80478 23.5548 8.52478 23.4948L7.80469 9.12479L17.5847 8.88477Z" fill="#7C7C7C"/>
<path d="M20.9144 23.0048C21.3844 21.8948 20.9444 20.9848 20.9144 20.0048C20.8044 16.2848 20.7643 12.5548 20.1943 8.87482C21.9443 8.40482 23.7743 8.7748 25.5543 8.6348C26.8543 8.5248 28.3244 8.00479 29.6144 7.91479C30.3144 7.86479 29.7344 8.92481 29.7244 9.46481C29.5844 13.8148 29.8043 18.2248 30.4543 22.5248C27.2743 22.5848 24.0944 22.8748 20.9144 23.0048Z" fill="#7C7C7C"/>
<path d="M20.9147 23.0046C20.4947 23.0246 19.9746 23.3646 19.4846 23.2446L18.7646 6.96463L31.1647 6.72461L31.4047 22.5246C31.0847 22.5246 30.7646 22.5246 30.4546 22.5246C29.8046 18.2246 29.5846 13.8146 29.7246 9.46463C29.7446 8.92463 30.3146 7.86461 29.6146 7.91461C28.3246 8.00461 26.8646 8.52461 25.5546 8.63461C23.7746 8.78461 21.9446 8.40463 20.1946 8.87463C20.7546 12.5546 20.8047 16.2846 20.9147 20.0046C20.9447 20.9746 21.3847 21.8846 20.9147 23.0046Z" fill="#F1F1F1"/>
<path d="M8.52478 23.4846C8.12478 23.4646 7.72472 23.5046 7.33472 23.4846L6.38477 6.72461H17.8247C18.0647 7.45461 17.6147 8.41463 17.5847 8.87463L7.80469 9.11462L8.52478 23.4846Z" fill="#F1F1F1"/>
<path d="M22.3445 90.9947C19.5545 90.2647 17.0646 89.2147 15.7846 86.4447C13.4746 81.4247 16.1545 78.2647 20.6745 76.3947C21.0745 76.3947 21.1446 76.0847 21.7546 76.3647C25.4046 78.0547 26.5146 84.8447 24.9046 88.1747C24.5446 88.9147 23.0345 90.3447 22.3445 90.9947ZM21.3345 81.5947C22.7345 80.2947 20.7246 78.3847 19.5446 79.5647C18.3646 80.7447 20.2045 82.6447 21.3345 81.5947ZM20.3746 84.8047C18.8546 85.2247 18.7646 88.0047 20.7846 87.8747C22.8046 87.7447 22.3946 84.2447 20.3746 84.8047Z" fill="#7C7C7C"/>
<path d="M20.674 76.3948C16.154 78.2748 13.4741 81.4248 15.7841 86.4448C17.0641 89.2148 19.5441 90.2648 22.3441 90.9948C22.2041 91.1348 22.1641 91.5048 21.7541 91.4648C11.0041 92.7048 9.77404 76.5148 20.674 76.3848V76.3948Z" fill="#F1F1F1"/>
<path d="M26.0939 77.6646C26.5039 77.9846 27.8739 79.5646 28.1139 80.0646C29.1839 82.2746 29.074 85.1546 27.794 87.2446C27.514 87.7046 26.6338 89.0846 26.1738 88.7246C27.6038 86.1646 27.3639 82.2346 26.2139 79.5846C25.8039 78.6246 24.7039 77.7046 24.5039 77.2346C24.1539 76.4146 25.9139 77.5246 26.1039 77.6746L26.0939 77.6646Z" fill="#7C7C7C"/>
<path d="M22.3441 57.7148C25.8841 60.3848 27.4741 65.0748 25.0141 69.1348C24.0641 70.7048 23.4341 71.2548 21.6341 71.3648C18.7641 70.1448 16.2741 69.8248 15.1841 66.4648C13.3941 60.9848 16.7341 57.1248 22.3441 57.7148ZM19.0641 62.2048C20.3741 63.5248 22.5942 60.9348 21.2842 59.6148C19.6342 57.9448 17.9741 61.1048 19.0641 62.2048ZM20.1442 65.1748C18.6242 65.4548 17.7042 68.1448 19.6642 68.4448C22.0642 68.8148 22.7342 64.7048 20.1442 65.1748Z" fill="#7C7C7C"/>
<path d="M22.3441 57.7148C16.7341 57.1248 13.394 60.9848 15.184 66.4648C16.274 69.8148 18.7641 70.1447 21.6341 71.3647C15.9241 71.7247 11.484 67.6548 12.924 61.7848C13.694 58.6348 17.114 56.3548 20.324 56.5148C21.324 56.5648 21.6941 57.2348 22.3541 57.7248L22.3441 57.7148Z" fill="#F1F1F1"/>
<path d="M27.5839 67.0549C27.5839 67.0549 27.2539 67.0449 27.1139 67.0549C28.2839 64.2249 26.9239 60.8549 25.2039 58.5649L23.5439 57.0049C27.5639 57.5749 29.1938 61.6949 28.1938 65.3849C28.1238 65.6349 27.6539 66.9949 27.5839 67.0549Z" fill="#7C7C7C"/>
<path d="M20.3739 84.8046C22.3939 84.2446 22.8139 87.7546 20.7839 87.8746C18.7539 87.9946 18.8539 85.2246 20.3739 84.8046Z" fill="#070707"/>
<path d="M21.3342 81.5949C20.2142 82.6349 18.4243 80.6948 19.5443 79.5648C20.6643 78.4348 22.7342 80.2949 21.3342 81.5949Z" fill="#070707"/>
<path d="M20.1441 65.1747C22.7341 64.7047 22.0641 68.8147 19.6641 68.4447C17.7141 68.1447 18.6241 65.4547 20.1441 65.1747Z" fill="#070707"/>
<path d="M19.0644 62.2048C17.9744 61.1048 19.6345 57.9448 21.2845 59.6148C22.5945 60.9348 20.3744 63.5248 19.0644 62.2048Z" fill="#070707"/>
</svg>
