<svg width="306" height="126" viewBox="0 0 306 126" fill="none" xmlns="http://www.w3.org/2000/svg">
<path d="M107.014 61.6659L94.6527 68.5L97.014 54.0252L87 43.7751L100.819 41.6691L107 28.5L113.181 41.6691L127 43.7751L116.986 54.0252L119.347 68.5L107.014 61.6659Z" fill="#FFEC20" stroke="black" stroke-width="4" stroke-linecap="round" stroke-linejoin="round"/>
<path d="M153.021 52.2489L134.479 62.5L138.021 40.7878L123 25.4127L143.729 22.2536L153 2.5L162.271 22.2536L183 25.4127L167.979 40.7878L171.521 62.5L153.021 52.2489Z" fill="#FFEC20" stroke="black" stroke-width="4" stroke-linecap="round" stroke-linejoin="round"/>
<path d="M199.014 61.6659L186.653 68.5L189.014 54.0252L179 43.7751L192.819 41.6691L199 28.5L205.181 41.6691L219 43.7751L208.986 54.0252L211.347 68.5L199.014 61.6659Z" fill="#FFEC20" stroke="black" stroke-width="4" stroke-linecap="round" stroke-linejoin="round"/>
<mask id="path-4-outside-1_27_125" maskUnits="userSpaceOnUse" x="0" y="79.5" width="306" height="47" fill="black">
<rect fill="white" y="79.5" width="306" height="47"/>
<path d="M24.608 116.5H18.308V102.532L10.1 116.5H4.592V90.868H10.892V104.836L19.1 90.868H24.608V116.5ZM46.323 96.484H36.099V116.5H29.799V90.868H46.323V96.484ZM68.7029 99.112C68.7029 103.324 65.6429 107.356 59.9549 107.356H56.1029V116.5H49.8029V90.868H59.9549C65.6429 90.868 68.7029 94.9 68.7029 99.112ZM62.4029 99.112C62.4029 97.78 61.3949 96.52 59.6669 96.52H56.1029V101.704H59.6669C61.3949 101.704 62.4029 100.444 62.4029 99.112ZM91.4963 116.5H84.9083L83.7203 112.684H75.8363L74.5763 116.5H67.9883L77.3123 90.868H82.1723L91.4963 116.5ZM82.0643 107.428L79.9043 100.588L77.6003 107.428H82.0643ZM121.376 116.5H115.076V96.484H108.38V116.5H102.08V90.868H121.376V116.5ZM145.449 99.112C145.449 103.324 142.389 107.356 136.701 107.356H132.849V116.5H126.549V90.868H136.701C142.389 90.868 145.449 94.9 145.449 99.112ZM139.149 99.112C139.149 97.78 138.141 96.52 136.413 96.52H132.849V101.704H136.413C138.141 101.704 139.149 100.444 139.149 99.112ZM167.803 103.684C167.803 108.004 167.803 111.28 165.175 113.908C163.339 115.744 161.179 116.716 158.047 116.716C154.915 116.716 152.755 115.744 150.919 113.908C148.291 111.28 148.291 108.004 148.291 103.684C148.291 99.364 148.291 96.088 150.919 93.46C152.755 91.624 154.915 90.652 158.047 90.652C161.179 90.652 163.339 91.624 165.175 93.46C167.803 96.088 167.803 99.364 167.803 103.684ZM161.503 103.684C161.503 99.004 161.143 98.14 160.567 97.384C160.099 96.772 159.199 96.268 158.047 96.268C156.895 96.268 155.995 96.772 155.527 97.384C154.951 98.14 154.591 99.004 154.591 103.684C154.591 108.364 154.951 109.192 155.527 109.948C155.995 110.56 156.895 111.1 158.047 111.1C159.199 111.1 160.099 110.56 160.567 109.948C161.143 109.192 161.503 108.364 161.503 103.684ZM188.419 84.172C188.311 88.42 184.999 89.644 182.227 89.644C179.455 89.644 176.143 88.42 176.035 84.172H180.319C180.391 85.612 181.219 86.08 182.227 86.08C183.235 86.08 184.063 85.612 184.135 84.172H188.419ZM192.163 116.5H185.863V102.532L177.655 116.5H172.147V90.868H178.447V104.836L186.655 90.868H192.163V116.5ZM219.602 121.684H213.554V116.5H201.17V121.684H195.122V110.884H197.642C199.442 106.096 200.234 101.02 200.234 91.948V90.868H216.686V110.884H219.602V121.684ZM210.386 110.884V96.484H206.354V97.204C206.354 103.288 205.382 107.14 204.05 110.884H210.386ZM240.301 116.5H222.877V90.868H240.301V96.484H229.177V100.768H238.681V106.384H229.177V110.884H240.301V116.5ZM264.076 116.5H257.776V106.348H251.08V116.5H244.78V90.868H251.08V100.732H257.776V90.868H264.076V116.5ZM290.164 116.5H283.576L282.388 112.684H274.504L273.244 116.5H266.656L275.98 90.868H280.84L290.164 116.5ZM280.732 107.428L278.572 100.588L276.268 107.428H280.732ZM301.192 90.868L299.608 107.968H295.36L293.776 90.868H301.192ZM300.508 116.5H294.46V110.704H300.508V116.5Z"/>
</mask>
<path d="M24.608 116.5H18.308V102.532L10.1 116.5H4.592V90.868H10.892V104.836L19.1 90.868H24.608V116.5ZM46.323 96.484H36.099V116.5H29.799V90.868H46.323V96.484ZM68.7029 99.112C68.7029 103.324 65.6429 107.356 59.9549 107.356H56.1029V116.5H49.8029V90.868H59.9549C65.6429 90.868 68.7029 94.9 68.7029 99.112ZM62.4029 99.112C62.4029 97.78 61.3949 96.52 59.6669 96.52H56.1029V101.704H59.6669C61.3949 101.704 62.4029 100.444 62.4029 99.112ZM91.4963 116.5H84.9083L83.7203 112.684H75.8363L74.5763 116.5H67.9883L77.3123 90.868H82.1723L91.4963 116.5ZM82.0643 107.428L79.9043 100.588L77.6003 107.428H82.0643ZM121.376 116.5H115.076V96.484H108.38V116.5H102.08V90.868H121.376V116.5ZM145.449 99.112C145.449 103.324 142.389 107.356 136.701 107.356H132.849V116.5H126.549V90.868H136.701C142.389 90.868 145.449 94.9 145.449 99.112ZM139.149 99.112C139.149 97.78 138.141 96.52 136.413 96.52H132.849V101.704H136.413C138.141 101.704 139.149 100.444 139.149 99.112ZM167.803 103.684C167.803 108.004 167.803 111.28 165.175 113.908C163.339 115.744 161.179 116.716 158.047 116.716C154.915 116.716 152.755 115.744 150.919 113.908C148.291 111.28 148.291 108.004 148.291 103.684C148.291 99.364 148.291 96.088 150.919 93.46C152.755 91.624 154.915 90.652 158.047 90.652C161.179 90.652 163.339 91.624 165.175 93.46C167.803 96.088 167.803 99.364 167.803 103.684ZM161.503 103.684C161.503 99.004 161.143 98.14 160.567 97.384C160.099 96.772 159.199 96.268 158.047 96.268C156.895 96.268 155.995 96.772 155.527 97.384C154.951 98.14 154.591 99.004 154.591 103.684C154.591 108.364 154.951 109.192 155.527 109.948C155.995 110.56 156.895 111.1 158.047 111.1C159.199 111.1 160.099 110.56 160.567 109.948C161.143 109.192 161.503 108.364 161.503 103.684ZM188.419 84.172C188.311 88.42 184.999 89.644 182.227 89.644C179.455 89.644 176.143 88.42 176.035 84.172H180.319C180.391 85.612 181.219 86.08 182.227 86.08C183.235 86.08 184.063 85.612 184.135 84.172H188.419ZM192.163 116.5H185.863V102.532L177.655 116.5H172.147V90.868H178.447V104.836L186.655 90.868H192.163V116.5ZM219.602 121.684H213.554V116.5H201.17V121.684H195.122V110.884H197.642C199.442 106.096 200.234 101.02 200.234 91.948V90.868H216.686V110.884H219.602V121.684ZM210.386 110.884V96.484H206.354V97.204C206.354 103.288 205.382 107.14 204.05 110.884H210.386ZM240.301 116.5H222.877V90.868H240.301V96.484H229.177V100.768H238.681V106.384H229.177V110.884H240.301V116.5ZM264.076 116.5H257.776V106.348H251.08V116.5H244.78V90.868H251.08V100.732H257.776V90.868H264.076V116.5ZM290.164 116.5H283.576L282.388 112.684H274.504L273.244 116.5H266.656L275.98 90.868H280.84L290.164 116.5ZM280.732 107.428L278.572 100.588L276.268 107.428H280.732ZM301.192 90.868L299.608 107.968H295.36L293.776 90.868H301.192ZM300.508 116.5H294.46V110.704H300.508V116.5Z" fill="white"/>
<path d="M24.608 116.5V120.5C26.8171 120.5 28.608 118.709 28.608 116.5H24.608ZM18.308 116.5H14.308C14.308 118.709 16.0989 120.5 18.308 120.5V116.5ZM18.308 102.532H22.308C22.308 100.727 21.0995 99.1461 19.3581 98.6723C17.6167 98.1985 15.7737 98.9495 14.8594 100.505L18.308 102.532ZM10.1 116.5V120.5C11.5181 120.5 12.8302 119.749 13.5487 118.527L10.1 116.5ZM4.592 116.5H0.592C0.592 118.709 2.38286 120.5 4.592 120.5V116.5ZM4.592 90.868V86.868C2.38286 86.868 0.592 88.6589 0.592 90.868H4.592ZM10.892 90.868H14.892C14.892 88.6589 13.1011 86.868 10.892 86.868V90.868ZM10.892 104.836H6.892C6.892 106.641 8.10049 108.222 9.84191 108.696C11.5833 109.169 13.4263 108.418 14.3407 106.863L10.892 104.836ZM19.1 90.868V86.868C17.6819 86.868 16.3698 87.6188 15.6514 88.8415L19.1 90.868ZM24.608 90.868H28.608C28.608 88.6589 26.8171 86.868 24.608 86.868V90.868ZM24.608 112.5H18.308V120.5H24.608V112.5ZM22.308 116.5V102.532H14.308V116.5H22.308ZM14.8594 100.505L6.65135 114.473L13.5487 118.527L21.7567 104.559L14.8594 100.505ZM10.1 112.5H4.592V120.5H10.1V112.5ZM8.592 116.5V90.868H0.592V116.5H8.592ZM4.592 94.868H10.892V86.868H4.592V94.868ZM6.892 90.868V104.836H14.892V90.868H6.892ZM14.3407 106.863L22.5487 92.8945L15.6514 88.8415L7.44335 102.809L14.3407 106.863ZM19.1 94.868H24.608V86.868H19.1V94.868ZM20.608 90.868V116.5H28.608V90.868H20.608ZM46.323 96.484V100.484C48.5322 100.484 50.323 98.6931 50.323 96.484H46.323ZM36.099 96.484V92.484C33.8899 92.484 32.099 94.2749 32.099 96.484H36.099ZM36.099 116.5V120.5C38.3082 120.5 40.099 118.709 40.099 116.5H36.099ZM29.799 116.5H25.799C25.799 118.709 27.5899 120.5 29.799 120.5V116.5ZM29.799 90.868V86.868C27.5899 86.868 25.799 88.6589 25.799 90.868H29.799ZM46.323 90.868H50.323C50.323 88.6589 48.5322 86.868 46.323 86.868V90.868ZM46.323 92.484H36.099V100.484H46.323V92.484ZM32.099 96.484V116.5H40.099V96.484H32.099ZM36.099 112.5H29.799V120.5H36.099V112.5ZM33.799 116.5V90.868H25.799V116.5H33.799ZM29.799 94.868H46.323V86.868H29.799V94.868ZM42.323 90.868V96.484H50.323V90.868H42.323ZM56.1029 107.356V103.356C53.8938 103.356 52.1029 105.147 52.1029 107.356H56.1029ZM56.1029 116.5V120.5C58.3121 120.5 60.1029 118.709 60.1029 116.5H56.1029ZM49.8029 116.5H45.8029C45.8029 118.709 47.5938 120.5 49.8029 120.5V116.5ZM49.8029 90.868V86.868C47.5938 86.868 45.8029 88.6589 45.8029 90.868H49.8029ZM56.1029 96.52V92.52C53.8938 92.52 52.1029 94.3109 52.1029 96.52H56.1029ZM56.1029 101.704H52.1029C52.1029 103.913 53.8938 105.704 56.1029 105.704V101.704ZM64.7029 99.112C64.7029 100.263 64.2853 101.306 63.5791 102.041C62.9153 102.731 61.7978 103.356 59.9549 103.356V111.356C63.8001 111.356 67.0566 109.965 69.3448 107.586C71.5905 105.252 72.7029 102.173 72.7029 99.112H64.7029ZM59.9549 103.356H56.1029V111.356H59.9549V103.356ZM52.1029 107.356V116.5H60.1029V107.356H52.1029ZM56.1029 112.5H49.8029V120.5H56.1029V112.5ZM53.8029 116.5V90.868H45.8029V116.5H53.8029ZM49.8029 94.868H59.9549V86.868H49.8029V94.868ZM59.9549 94.868C61.7978 94.868 62.9153 95.4933 63.5791 96.1834C64.2853 96.9177 64.7029 97.9609 64.7029 99.112H72.7029C72.7029 96.0511 71.5905 92.9723 69.3448 90.6376C67.0566 88.2587 63.8001 86.868 59.9549 86.868V94.868ZM66.4029 99.112C66.4029 95.6788 63.7105 92.52 59.6669 92.52V100.52C59.5047 100.52 59.1368 100.436 58.8146 100.104C58.5291 99.8107 58.4029 99.4466 58.4029 99.112H66.4029ZM59.6669 92.52H56.1029V100.52H59.6669V92.52ZM52.1029 96.52V101.704H60.1029V96.52H52.1029ZM56.1029 105.704H59.6669V97.704H56.1029V105.704ZM59.6669 105.704C63.7105 105.704 66.4029 102.545 66.4029 99.112H58.4029C58.4029 98.7774 58.5291 98.4133 58.8146 98.1196C59.1368 97.7881 59.5047 97.704 59.6669 97.704V105.704ZM91.4963 116.5V120.5C92.8012 120.5 94.0241 119.863 94.7727 118.795C95.5213 117.726 95.7014 116.359 95.2553 115.133L91.4963 116.5ZM84.9083 116.5L81.0891 117.689C81.6096 119.361 83.1572 120.5 84.9083 120.5V116.5ZM83.7203 112.684L87.5395 111.495C87.019 109.823 85.4714 108.684 83.7203 108.684V112.684ZM75.8363 112.684V108.684C74.1104 108.684 72.5791 109.791 72.038 111.43L75.8363 112.684ZM74.5763 116.5V120.5C76.3022 120.5 77.8335 119.393 78.3746 117.754L74.5763 116.5ZM67.9883 116.5L64.2293 115.133C63.7832 116.359 63.9633 117.726 64.7119 118.795C65.4605 119.863 66.6833 120.5 67.9883 120.5V116.5ZM77.3123 90.868V86.868C75.6304 86.868 74.1282 87.9201 73.5533 89.5006L77.3123 90.868ZM82.1723 90.868L85.9313 89.5006C85.3564 87.9201 83.8541 86.868 82.1723 86.868V90.868ZM82.0643 107.428V111.428C83.3389 111.428 84.5371 110.821 85.2906 109.793C86.044 108.764 86.2624 107.439 85.8786 106.223L82.0643 107.428ZM79.9043 100.588L83.7186 99.3835C83.1973 97.7327 81.6733 96.6046 79.9423 96.5882C78.2113 96.5717 76.6662 97.6706 76.1136 99.3111L79.9043 100.588ZM77.6003 107.428L73.8096 106.151C73.3984 107.372 73.6002 108.716 74.3516 109.762C75.1031 110.808 76.3123 111.428 77.6003 111.428V107.428ZM91.4963 112.5H84.9083V120.5H91.4963V112.5ZM88.7275 115.311L87.5395 111.495L79.9011 113.873L81.0891 117.689L88.7275 115.311ZM83.7203 108.684H75.8363V116.684H83.7203V108.684ZM72.038 111.43L70.778 115.246L78.3746 117.754L79.6346 113.938L72.038 111.43ZM74.5763 112.5H67.9883V120.5H74.5763V112.5ZM71.7473 117.867L81.0713 92.2354L73.5533 89.5006L64.2293 115.133L71.7473 117.867ZM77.3123 94.868H82.1723V86.868H77.3123V94.868ZM78.4133 92.2354L87.7373 117.867L95.2553 115.133L85.9313 89.5006L78.4133 92.2354ZM85.8786 106.223L83.7186 99.3835L76.09 101.793L78.25 108.633L85.8786 106.223ZM76.1136 99.3111L73.8096 106.151L81.391 108.705L83.695 101.865L76.1136 99.3111ZM77.6003 111.428H82.0643V103.428H77.6003V111.428ZM121.376 116.5V120.5C123.585 120.5 125.376 118.709 125.376 116.5H121.376ZM115.076 116.5H111.076C111.076 118.709 112.867 120.5 115.076 120.5V116.5ZM115.076 96.484H119.076C119.076 94.2749 117.285 92.484 115.076 92.484V96.484ZM108.38 96.484V92.484C106.171 92.484 104.38 94.2749 104.38 96.484H108.38ZM108.38 116.5V120.5C110.589 120.5 112.38 118.709 112.38 116.5H108.38ZM102.08 116.5H98.0803C98.0803 118.709 99.8711 120.5 102.08 120.5V116.5ZM102.08 90.868V86.868C99.8711 86.868 98.0803 88.6589 98.0803 90.868H102.08ZM121.376 90.868H125.376C125.376 88.6589 123.585 86.868 121.376 86.868V90.868ZM121.376 112.5H115.076V120.5H121.376V112.5ZM119.076 116.5V96.484H111.076V116.5H119.076ZM115.076 92.484H108.38V100.484H115.076V92.484ZM104.38 96.484V116.5H112.38V96.484H104.38ZM108.38 112.5H102.08V120.5H108.38V112.5ZM106.08 116.5V90.868H98.0803V116.5H106.08ZM102.08 94.868H121.376V86.868H102.08V94.868ZM117.376 90.868V116.5H125.376V90.868H117.376ZM132.849 107.356V103.356C130.64 103.356 128.849 105.147 128.849 107.356H132.849ZM132.849 116.5V120.5C135.058 120.5 136.849 118.709 136.849 116.5H132.849ZM126.549 116.5H122.549C122.549 118.709 124.34 120.5 126.549 120.5V116.5ZM126.549 90.868V86.868C124.34 86.868 122.549 88.6589 122.549 90.868H126.549ZM132.849 96.52V92.52C130.64 92.52 128.849 94.3109 128.849 96.52H132.849ZM132.849 101.704H128.849C128.849 103.913 130.64 105.704 132.849 105.704V101.704ZM141.449 99.112C141.449 100.263 141.031 101.306 140.325 102.041C139.661 102.731 138.544 103.356 136.701 103.356V111.356C140.546 111.356 143.803 109.965 146.091 107.586C148.337 105.252 149.449 102.173 149.449 99.112H141.449ZM136.701 103.356H132.849V111.356H136.701V103.356ZM128.849 107.356V116.5H136.849V107.356H128.849ZM132.849 112.5H126.549V120.5H132.849V112.5ZM130.549 116.5V90.868H122.549V116.5H130.549ZM126.549 94.868H136.701V86.868H126.549V94.868ZM136.701 94.868C138.544 94.868 139.661 95.4933 140.325 96.1834C141.031 96.9177 141.449 97.9609 141.449 99.112H149.449C149.449 96.0511 148.337 92.9723 146.091 90.6376C143.803 88.2587 140.546 86.868 136.701 86.868V94.868ZM143.149 99.112C143.149 95.6788 140.457 92.52 136.413 92.52V100.52C136.251 100.52 135.883 100.436 135.561 100.104C135.275 99.8107 135.149 99.4466 135.149 99.112H143.149ZM136.413 92.52H132.849V100.52H136.413V92.52ZM128.849 96.52V101.704H136.849V96.52H128.849ZM132.849 105.704H136.413V97.704H132.849V105.704ZM136.413 105.704C140.457 105.704 143.149 102.545 143.149 99.112H135.149C135.149 98.7774 135.275 98.4133 135.561 98.1196C135.883 97.7881 136.251 97.704 136.413 97.704V105.704ZM165.175 113.908L162.347 111.08V111.08L165.175 113.908ZM150.919 113.908L153.748 111.08L150.919 113.908ZM150.919 93.46L148.091 90.6316V90.6316L150.919 93.46ZM160.567 97.384L163.749 94.9598L163.745 94.9542L160.567 97.384ZM155.527 97.384L152.35 94.9542L152.346 94.9598L155.527 97.384ZM155.527 109.948L152.346 112.372L152.35 112.378L155.527 109.948ZM160.567 109.948L163.745 112.378L163.749 112.372L160.567 109.948ZM163.803 103.684C163.803 108.371 163.609 109.817 162.347 111.08L168.004 116.736C171.997 112.743 171.803 107.637 171.803 103.684H163.803ZM162.347 111.08C161.286 112.14 160.154 112.716 158.047 112.716V120.716C162.204 120.716 165.393 119.348 168.004 116.736L162.347 111.08ZM158.047 112.716C155.94 112.716 154.809 112.14 153.748 111.08L148.091 116.736C150.702 119.348 153.89 120.716 158.047 120.716V112.716ZM153.748 111.08C152.485 109.817 152.291 108.371 152.291 103.684H144.291C144.291 107.637 144.097 112.743 148.091 116.736L153.748 111.08ZM152.291 103.684C152.291 98.9965 152.485 97.5509 153.748 96.2884L148.091 90.6316C144.097 94.6251 144.291 99.7315 144.291 103.684H152.291ZM153.748 96.2884C154.809 95.2277 155.94 94.652 158.047 94.652V86.652C153.89 86.652 150.702 88.0203 148.091 90.6316L153.748 96.2884ZM158.047 94.652C160.154 94.652 161.286 95.2277 162.347 96.2884L168.004 90.6316C165.393 88.0203 162.204 86.652 158.047 86.652V94.652ZM162.347 96.2884C163.609 97.5509 163.803 98.9965 163.803 103.684H171.803C171.803 99.7315 171.997 94.6251 168.004 90.6316L162.347 96.2884ZM165.503 103.684C165.503 99.129 165.246 96.9242 163.749 94.9598L157.386 99.8082C157.411 99.8419 157.349 99.7622 157.296 99.642C157.254 99.5456 157.275 99.5534 157.315 99.7746C157.409 100.294 157.503 101.376 157.503 103.684H165.503ZM163.745 94.9542C162.461 93.2754 160.345 92.268 158.047 92.268V100.268C158.036 100.268 157.964 100.265 157.852 100.211C157.753 100.165 157.575 100.056 157.39 99.8138L163.745 94.9542ZM158.047 92.268C155.75 92.268 153.634 93.2754 152.35 94.9542L158.705 99.8138C158.519 100.056 158.341 100.165 158.243 100.211C158.131 100.265 158.059 100.268 158.047 100.268V92.268ZM152.346 94.9598C150.849 96.9242 150.591 99.129 150.591 103.684H158.591C158.591 101.376 158.685 100.294 158.779 99.7746C158.819 99.5534 158.841 99.5456 158.799 99.642C158.746 99.7622 158.683 99.8419 158.709 99.8082L152.346 94.9598ZM150.591 103.684C150.591 106.054 150.677 107.74 150.909 109.007C151.188 110.534 151.689 111.51 152.346 112.372L158.709 107.524C158.672 107.476 158.735 107.554 158.791 107.678C158.836 107.781 158.817 107.781 158.778 107.568C158.686 107.062 158.591 105.994 158.591 103.684H150.591ZM152.35 112.378C153.573 113.977 155.647 115.1 158.047 115.1V107.1C158.104 107.1 158.197 107.115 158.305 107.168C158.396 107.214 158.545 107.31 158.705 107.518L152.35 112.378ZM158.047 115.1C160.448 115.1 162.522 113.977 163.745 112.378L157.39 107.518C157.549 107.31 157.698 107.214 157.79 107.168C157.898 107.115 157.99 107.1 158.047 107.1V115.1ZM163.749 112.372C164.406 111.51 164.907 110.534 165.186 109.007C165.418 107.74 165.503 106.054 165.503 103.684H157.503C157.503 105.994 157.409 107.062 157.316 107.568C157.278 107.781 157.258 107.781 157.304 107.678C157.359 107.554 157.422 107.476 157.386 107.524L163.749 112.372ZM188.419 84.172L192.417 84.2737C192.445 83.1955 192.036 82.152 191.283 81.3797C190.53 80.6075 189.497 80.172 188.419 80.172V84.172ZM176.035 84.172V80.172C174.956 80.172 173.923 80.6075 173.171 81.3797C172.418 82.152 172.009 83.1955 172.036 84.2737L176.035 84.172ZM180.319 84.172L184.314 83.9722C184.207 81.8434 182.45 80.172 180.319 80.172V84.172ZM184.135 84.172V80.172C182.003 80.172 180.246 81.8434 180.14 83.9722L184.135 84.172ZM192.163 116.5V120.5C194.372 120.5 196.163 118.709 196.163 116.5H192.163ZM185.863 116.5H181.863C181.863 118.709 183.654 120.5 185.863 120.5V116.5ZM185.863 102.532H189.863C189.863 100.727 188.654 99.1461 186.913 98.6723C185.171 98.1985 183.328 98.9495 182.414 100.505L185.863 102.532ZM177.655 116.5V120.5C179.073 120.5 180.385 119.749 181.103 118.527L177.655 116.5ZM172.147 116.5H168.147C168.147 118.709 169.938 120.5 172.147 120.5V116.5ZM172.147 90.868V86.868C169.938 86.868 168.147 88.6589 168.147 90.868H172.147ZM178.447 90.868H182.447C182.447 88.6589 180.656 86.868 178.447 86.868V90.868ZM178.447 104.836H174.447C174.447 106.641 175.655 108.222 177.397 108.696C179.138 109.169 180.981 108.418 181.895 106.863L178.447 104.836ZM186.655 90.868V86.868C185.237 86.868 183.924 87.6188 183.206 88.8415L186.655 90.868ZM192.163 90.868H196.163C196.163 88.6589 194.372 86.868 192.163 86.868V90.868ZM184.42 84.0703C184.406 84.6093 184.298 84.8739 184.244 84.9788C184.192 85.0783 184.128 85.1533 184.018 85.2311C183.731 85.4329 183.118 85.644 182.227 85.644V93.644C184.107 93.644 186.536 93.2431 188.626 91.7709C190.911 90.1607 192.333 87.5829 192.417 84.2737L184.42 84.0703ZM182.227 85.644C181.335 85.644 180.722 85.4329 180.436 85.2311C180.325 85.1533 180.261 85.0783 180.209 84.9788C180.155 84.8739 180.047 84.6093 180.033 84.0703L172.036 84.2737C172.12 87.5829 173.542 90.1607 175.828 91.7709C177.917 93.2431 180.346 93.644 182.227 93.644V85.644ZM176.035 88.172H180.319V80.172H176.035V88.172ZM176.324 84.3717C176.397 85.8398 176.909 87.4791 178.299 88.6861C179.624 89.8369 181.162 90.08 182.227 90.08V82.08C182.283 82.08 182.903 82.0891 183.544 82.6459C184.25 83.2589 184.312 83.9442 184.314 83.9722L176.324 84.3717ZM182.227 90.08C183.291 90.08 184.829 89.8369 186.154 88.6861C187.544 87.4791 188.056 85.8398 188.13 84.3717L180.14 83.9722C180.141 83.9442 180.203 83.2589 180.909 82.6459C181.55 82.0891 182.17 82.08 182.227 82.08V90.08ZM184.135 88.172H188.419V80.172H184.135V88.172ZM192.163 112.5H185.863V120.5H192.163V112.5ZM189.863 116.5V102.532H181.863V116.5H189.863ZM182.414 100.505L174.206 114.473L181.103 118.527L189.311 104.559L182.414 100.505ZM177.655 112.5H172.147V120.5H177.655V112.5ZM176.147 116.5V90.868H168.147V116.5H176.147ZM172.147 94.868H178.447V86.868H172.147V94.868ZM174.447 90.868V104.836H182.447V90.868H174.447ZM181.895 106.863L190.103 92.8945L183.206 88.8415L174.998 102.809L181.895 106.863ZM186.655 94.868H192.163V86.868H186.655V94.868ZM188.163 90.868V116.5H196.163V90.868H188.163ZM219.602 121.684V125.684C221.811 125.684 223.602 123.893 223.602 121.684H219.602ZM213.554 121.684H209.554C209.554 123.893 211.345 125.684 213.554 125.684V121.684ZM213.554 116.5H217.554C217.554 114.291 215.763 112.5 213.554 112.5V116.5ZM201.17 116.5V112.5C198.961 112.5 197.17 114.291 197.17 116.5H201.17ZM201.17 121.684V125.684C203.379 125.684 205.17 123.893 205.17 121.684H201.17ZM195.122 121.684H191.122C191.122 123.893 192.913 125.684 195.122 125.684V121.684ZM195.122 110.884V106.884C192.913 106.884 191.122 108.675 191.122 110.884H195.122ZM197.642 110.884V114.884C199.308 114.884 200.8 113.851 201.386 112.292L197.642 110.884ZM200.234 90.868V86.868C198.025 86.868 196.234 88.6589 196.234 90.868H200.234ZM216.686 90.868H220.686C220.686 88.6589 218.895 86.868 216.686 86.868V90.868ZM216.686 110.884H212.686C212.686 113.093 214.477 114.884 216.686 114.884V110.884ZM219.602 110.884H223.602C223.602 108.675 221.811 106.884 219.602 106.884V110.884ZM210.386 110.884V114.884C212.595 114.884 214.386 113.093 214.386 110.884H210.386ZM210.386 96.484H214.386C214.386 94.2749 212.595 92.484 210.386 92.484V96.484ZM206.354 96.484V92.484C204.145 92.484 202.354 94.2749 202.354 96.484H206.354ZM204.05 110.884L200.281 109.543C199.845 110.768 200.032 112.128 200.781 113.19C201.531 114.252 202.75 114.884 204.05 114.884V110.884ZM219.602 117.684H213.554V125.684H219.602V117.684ZM217.554 121.684V116.5H209.554V121.684H217.554ZM213.554 112.5H201.17V120.5H213.554V112.5ZM197.17 116.5V121.684H205.17V116.5H197.17ZM201.17 117.684H195.122V125.684H201.17V117.684ZM199.122 121.684V110.884H191.122V121.684H199.122ZM195.122 114.884H197.642V106.884H195.122V114.884ZM201.386 112.292C203.423 106.874 204.234 101.262 204.234 91.948H196.234C196.234 100.778 195.461 105.318 193.898 109.476L201.386 112.292ZM204.234 91.948V90.868H196.234V91.948H204.234ZM200.234 94.868H216.686V86.868H200.234V94.868ZM212.686 90.868V110.884H220.686V90.868H212.686ZM216.686 114.884H219.602V106.884H216.686V114.884ZM215.602 110.884V121.684H223.602V110.884H215.602ZM214.386 110.884V96.484H206.386V110.884H214.386ZM210.386 92.484H206.354V100.484H210.386V92.484ZM202.354 96.484V97.204H210.354V96.484H202.354ZM202.354 97.204C202.354 102.759 201.486 106.156 200.281 109.543L207.818 112.225C209.277 108.124 210.354 103.817 210.354 97.204H202.354ZM204.05 114.884H210.386V106.884H204.05V114.884ZM240.301 116.5V120.5C242.51 120.5 244.301 118.709 244.301 116.5H240.301ZM222.877 116.5H218.877C218.877 118.709 220.668 120.5 222.877 120.5V116.5ZM222.877 90.868V86.868C220.668 86.868 218.877 88.6589 218.877 90.868H222.877ZM240.301 90.868H244.301C244.301 88.6589 242.51 86.868 240.301 86.868V90.868ZM240.301 96.484V100.484C242.51 100.484 244.301 98.6931 244.301 96.484H240.301ZM229.177 96.484V92.484C226.968 92.484 225.177 94.2749 225.177 96.484H229.177ZM229.177 100.768H225.177C225.177 102.977 226.968 104.768 229.177 104.768V100.768ZM238.681 100.768H242.681C242.681 98.5589 240.89 96.768 238.681 96.768V100.768ZM238.681 106.384V110.384C240.89 110.384 242.681 108.593 242.681 106.384H238.681ZM229.177 106.384V102.384C226.968 102.384 225.177 104.175 225.177 106.384H229.177ZM229.177 110.884H225.177C225.177 113.093 226.968 114.884 229.177 114.884V110.884ZM240.301 110.884H244.301C244.301 108.675 242.51 106.884 240.301 106.884V110.884ZM240.301 112.5H222.877V120.5H240.301V112.5ZM226.877 116.5V90.868H218.877V116.5H226.877ZM222.877 94.868H240.301V86.868H222.877V94.868ZM236.301 90.868V96.484H244.301V90.868H236.301ZM240.301 92.484H229.177V100.484H240.301V92.484ZM225.177 96.484V100.768H233.177V96.484H225.177ZM229.177 104.768H238.681V96.768H229.177V104.768ZM234.681 100.768V106.384H242.681V100.768H234.681ZM238.681 102.384H229.177V110.384H238.681V102.384ZM225.177 106.384V110.884H233.177V106.384H225.177ZM229.177 114.884H240.301V106.884H229.177V114.884ZM236.301 110.884V116.5H244.301V110.884H236.301ZM264.076 116.5V120.5C266.285 120.5 268.076 118.709 268.076 116.5H264.076ZM257.775 116.5H253.775C253.775 118.709 255.566 120.5 257.775 120.5V116.5ZM257.775 106.348H261.776C261.776 104.139 259.985 102.348 257.775 102.348V106.348ZM251.079 106.348V102.348C248.87 102.348 247.079 104.139 247.079 106.348H251.079ZM251.079 116.5V120.5C253.289 120.5 255.079 118.709 255.079 116.5H251.079ZM244.779 116.5H240.779C240.779 118.709 242.57 120.5 244.779 120.5V116.5ZM244.779 90.868V86.868C242.57 86.868 240.779 88.6589 240.779 90.868H244.779ZM251.079 90.868H255.079C255.079 88.6589 253.289 86.868 251.079 86.868V90.868ZM251.079 100.732H247.079C247.079 102.941 248.87 104.732 251.079 104.732V100.732ZM257.775 100.732V104.732C259.985 104.732 261.776 102.941 261.776 100.732H257.775ZM257.775 90.868V86.868C255.566 86.868 253.775 88.6589 253.775 90.868H257.775ZM264.076 90.868H268.076C268.076 88.6589 266.285 86.868 264.076 86.868V90.868ZM264.076 112.5H257.775V120.5H264.076V112.5ZM261.776 116.5V106.348H253.775V116.5H261.776ZM257.775 102.348H251.079V110.348H257.775V102.348ZM247.079 106.348V116.5H255.079V106.348H247.079ZM251.079 112.5H244.779V120.5H251.079V112.5ZM248.779 116.5V90.868H240.779V116.5H248.779ZM244.779 94.868H251.079V86.868H244.779V94.868ZM247.079 90.868V100.732H255.079V90.868H247.079ZM251.079 104.732H257.775V96.732H251.079V104.732ZM261.776 100.732V90.868H253.775V100.732H261.776ZM257.775 94.868H264.076V86.868H257.775V94.868ZM260.076 90.868V116.5H268.076V90.868H260.076ZM290.164 116.5V120.5C291.469 120.5 292.692 119.863 293.441 118.795C294.189 117.726 294.369 116.359 293.923 115.133L290.164 116.5ZM283.576 116.5L279.757 117.689C280.278 119.361 281.825 120.5 283.576 120.5V116.5ZM282.388 112.684L286.207 111.495C285.687 109.823 284.139 108.684 282.388 108.684V112.684ZM274.504 112.684V108.684C272.778 108.684 271.247 109.791 270.706 111.43L274.504 112.684ZM273.244 116.5V120.5C274.97 120.5 276.501 119.393 277.043 117.754L273.244 116.5ZM266.656 116.5L262.897 115.133C262.451 116.359 262.631 117.726 263.38 118.795C264.128 119.863 265.351 120.5 266.656 120.5V116.5ZM275.98 90.868V86.868C274.298 86.868 272.796 87.9201 272.221 89.5006L275.98 90.868ZM280.84 90.868L284.599 89.5006C284.024 87.9201 282.522 86.868 280.84 86.868V90.868ZM280.732 107.428V111.428C282.007 111.428 283.205 110.821 283.959 109.793C284.712 108.764 284.93 107.439 284.547 106.223L280.732 107.428ZM278.572 100.588L282.387 99.3835C281.865 97.7327 280.341 96.6046 278.61 96.5882C276.879 96.5717 275.334 97.6706 274.782 99.3111L278.572 100.588ZM276.268 107.428L272.478 106.151C272.066 107.372 272.268 108.716 273.02 109.762C273.771 110.808 274.98 111.428 276.268 111.428V107.428ZM290.164 112.5H283.576V120.5H290.164V112.5ZM287.395 115.311L286.207 111.495L278.569 113.873L279.757 117.689L287.395 115.311ZM282.388 108.684H274.504V116.684H282.388V108.684ZM270.706 111.43L269.446 115.246L277.043 117.754L278.303 113.938L270.706 111.43ZM273.244 112.5H266.656V120.5H273.244V112.5ZM270.415 117.867L279.739 92.2354L272.221 89.5006L262.897 115.133L270.415 117.867ZM275.98 94.868H280.84V86.868H275.98V94.868ZM277.081 92.2354L286.405 117.867L293.923 115.133L284.599 89.5006L277.081 92.2354ZM284.547 106.223L282.387 99.3835L274.758 101.793L276.918 108.633L284.547 106.223ZM274.782 99.3111L272.478 106.151L280.059 108.705L282.363 101.865L274.782 99.3111ZM276.268 111.428H280.732V103.428H276.268V111.428ZM301.192 90.868L305.175 91.2369C305.279 90.1167 304.906 89.0046 304.148 88.1732C303.39 87.3418 302.317 86.868 301.192 86.868V90.868ZM299.608 107.968V111.968C301.674 111.968 303.4 110.394 303.591 108.337L299.608 107.968ZM295.36 107.968L291.377 108.337C291.567 110.394 293.294 111.968 295.36 111.968V107.968ZM293.776 90.868V86.868C292.651 86.868 291.578 87.3418 290.82 88.1732C290.062 89.0046 289.689 90.1167 289.793 91.2369L293.776 90.868ZM300.508 116.5V120.5C302.717 120.5 304.508 118.709 304.508 116.5H300.508ZM294.46 116.5H290.46C290.46 118.709 292.251 120.5 294.46 120.5V116.5ZM294.46 110.704V106.704C292.251 106.704 290.46 108.495 290.46 110.704H294.46ZM300.508 110.704H304.508C304.508 108.495 302.717 106.704 300.508 106.704V110.704ZM297.209 90.4991L295.625 107.599L303.591 108.337L305.175 91.2369L297.209 90.4991ZM299.608 103.968H295.36V111.968H299.608V103.968ZM299.343 107.599L297.759 90.4991L289.793 91.2369L291.377 108.337L299.343 107.599ZM293.776 94.868H301.192V86.868H293.776V94.868ZM300.508 112.5H294.46V120.5H300.508V112.5ZM298.46 116.5V110.704H290.46V116.5H298.46ZM294.46 114.704H300.508V106.704H294.46V114.704ZM296.508 110.704V116.5H304.508V110.704H296.508Z" fill="black" mask="url(#path-4-outside-1_27_125)"/>
</svg>
