<svg width="219" height="486" viewBox="0 0 219 486" fill="none" xmlns="http://www.w3.org/2000/svg">
<path d="M42.7733 0.0299988C44.8733 0.449999 46.7333 0.9 48.6033 2C60.6433 9.04 59.7033 30.8 58.3533 42.62C58.3133 42.99 58.0833 43.27 57.9433 43.6C68.9233 51.18 67.3034 67.15 66.0134 78.85C64.6634 91.13 61.6633 102.57 63.7133 115.05C63.9033 116.18 65.1033 118.32 63.8733 119.18C63.3933 119.52 60.4833 119.94 60.1633 119.55C55.7033 107.14 59.4633 93.71 60.5233 81.03C61.1633 73.33 61.4633 64.73 59.6433 57.19C59.1633 55.21 58.4233 52.73 57.1733 51.15C57.0733 57.74 55.2833 64.2 53.6333 70.53C53.4233 71.33 53.4234 72.24 53.1534 73.17C52.4834 75.56 51.5233 77.88 50.5633 80.17C51.2633 81.52 52.3533 82.54 53.1333 83.87C58.7833 93.49 56.1533 107.07 53.0233 117.2C52.6833 118.31 51.1933 122.77 50.2833 123.1C48.2733 123.18 46.4933 124.36 44.4533 124.11C44.3133 121.81 45.8334 119.89 46.6133 117.75C49.5834 109.66 50.5233 98.98 48.2733 90.64L47.5733 88.82C44.0833 96.84 38.7933 104.19 33.6133 111.21C23.7333 124.59 16.8933 132.92 10.9233 148.99C3.87335 167.98 -2.42665 206.4 11.8333 223.08C12.8533 224.27 15.6433 226.05 16.1533 226.91C16.8333 228.06 15.2733 229.8 13.7333 229.33C11.2233 228.57 7.44335 222.66 6.18335 220.33C3.23335 214.86 1.71335 209.03 0.823348 202.89L0.0733483 196.08C0.243348 192.05 -0.156652 187.84 0.0733483 183.84C0.553348 175.52 2.43335 165.26 4.75335 157.2C5.16335 155.76 6.74335 152.18 6.79335 151.05C6.84335 149.92 4.66335 150.04 4.91335 148.02C5.83335 145.94 6.49335 143.73 7.47335 141.67C8.54335 139.41 9.07335 137.26 12.0633 138.46C18.2233 123.72 29.9534 112.5 38.3233 99.09C41.2034 94.48 43.6433 89.75 45.8633 84.77C45.9833 84 43.3533 79.96 42.6633 79.67C41.8433 81.59 39.4433 81.03 37.7433 81.11C37.9133 82.94 37.1733 84.12 35.3333 84.37C35.2533 88.05 35.5733 91.81 35.1633 95.45C34.9034 95.9 34.5133 96.23 34.1433 96.59C33.6233 97.11 29.0333 100.88 28.6933 100.98C26.8134 101.53 24.7733 101.03 22.9933 101.02C18.6733 100.99 12.6333 101.54 8.57335 101.04C7.06335 100.85 7.77335 98.63 7.75335 97.3C7.61335 81.91 7.22335 66.22 6.77335 50.76C6.74335 49.69 6.68335 47.73 7.33335 46.86C7.47335 46.67 7.89335 46.58 8.10335 46.32C8.99335 45.23 10.0133 43.95 10.9733 42.94C11.4733 42.42 13.8733 39.86 14.2233 39.7C14.8633 39.41 16.7134 40.11 17.5734 39.83C17.5934 38.07 17.7633 33.81 19.1234 32.62C19.5734 32.23 20.5034 32.2 20.6634 31.76C21.0734 28.72 19.7733 23.17 24.2733 23.25C24.1133 20.38 24.6833 17.79 26.5633 15.58C26.8533 15.25 27.5233 15.05 27.6333 14.71C27.8033 14.19 27.1634 12.91 27.4634 11.92C27.5634 11.61 27.9834 11.43 28.0734 11.1C28.4434 9.83001 28.4133 8.62001 28.9733 7.20001C30.0033 4.58001 31.9533 2.6 34.5233 1.47L39.8833 0H42.7633L42.7733 0.0299988ZM54.5233 42.27C55.4733 32.35 56.0433 22.1 51.9933 12.76C49.4533 6.90001 45.9433 3.34001 39.0733 4.14001C36.1933 4.48001 31.9133 7.36002 30.9533 10.18C30.5533 11.35 31.3233 11.77 31.7433 12.86C31.9233 13.34 31.8933 14.2 32.0133 14.39C32.0733 14.49 33.6433 15.13 34.1333 15.51C36.1233 17.06 37.6333 20 37.2833 22.56C37.5333 22.96 39.9033 22.51 40.4833 23.8C41.0634 25.09 40.3933 29.48 40.3533 31.09C40.4533 31.45 42.9833 31.39 43.3333 32.25C43.9933 33.86 43.7733 37.43 43.4933 39.16C44.4833 39 45.6034 39.93 46.4734 39.88C48.0233 39.78 49.8133 37.77 51.7433 39.67C52.8733 40.77 52.2633 42.6 54.5233 42.29V42.27ZM29.0934 24.99C27.2634 25.14 25.3434 25.1 23.5034 25.28C22.9634 25.36 22.6133 26.87 22.6133 27.27V31.47C28.2933 31.23 33.9734 30.63 39.6433 31.23C39.3733 30.54 39.2533 29.8 39.1633 29.07C38.9934 27.65 38.8933 26.21 38.8933 24.78C38.4033 24.21 30.9834 24.65 29.6634 24.74C29.3534 24.76 29.1234 24.99 29.0833 24.99H29.0934ZM21.9033 34.11C21.5233 34.22 21.1234 34.25 20.7633 34.4C20.6033 34.54 20.3933 35.47 20.3333 35.77C19.2533 41.05 19.7534 51.47 20.2334 57.02C20.3434 58.3 20.9533 63.78 21.6533 64.48C22.8233 65.64 29.7233 64.8 31.5833 64.54C35.0834 64.06 38.5433 63.1 42.0833 62.79L42.5633 62.49C42.8033 62.09 42.7333 61.64 42.7833 61.21C43.1333 58.34 42.9033 55.44 43.1333 52.56L43.8233 52.36C44.4933 52.53 44.6433 54.19 44.6933 54.85C44.8433 56.61 44.6533 61.78 44.1033 63.38C43.8733 64.06 43.4733 64.11 42.8833 64.32C40.8033 65.03 38.0133 65.04 35.8333 65.54C35.9333 67.36 35.1233 70.66 35.5733 72.32C35.5933 72.39 36.6233 73.16 36.6933 73.17C37.2433 73.28 38.2934 72.08 39.7133 72.78C40.8033 73.32 41.3333 74.95 41.8133 75.24C42.1833 75.46 43.1133 75.48 43.7234 75.73C45.0033 76.26 46.0633 77.02 47.2033 77.77C47.4333 77.92 47.4433 78.18 47.8133 77.9C48.1333 77.65 50.2234 71.22 50.5134 70.28C52.6734 63.04 53.6933 55.59 54.7833 48.12C54.8533 47.39 54.0733 47.15 53.5733 46.82C53.9034 49.28 50.0834 48.61 48.4734 49.04C45.3233 49.88 41.5133 52.87 37.4133 53.81C35.3834 54.28 33.7433 53.86 32.3733 54.09C32.0033 54.15 31.7034 54.7 30.8934 54.76C29.6034 54.86 26.7833 53.74 25.8833 52.8C23.8433 50.67 23.0533 45.02 24.6733 42.52C25.8233 40.74 28.6333 40.27 30.2033 38.94C34.4033 37.67 38.9333 38.6 43.2533 38.91C42.8433 38.05 42.6933 37.06 42.5633 36.12C42.3733 34.71 43.0434 32.83 41.2133 32.67C36.2033 32.22 26.7034 32.74 21.8934 34.11H21.9033ZM46.3133 40.88C46.1233 40.74 43.3933 40.39 42.8833 40.35C39.9633 40.12 35.4034 39.86 32.5933 40.37C29.7833 40.88 29.0933 42.89 28.8633 45.51C28.6033 48.45 29.8633 52.67 33.2933 53.07C36.5133 53.45 44.2634 50.39 46.9333 48.47C48.3334 47.46 47.9633 44.26 47.3733 42.82C47.2733 42.57 46.4033 40.94 46.3133 40.88ZM52.1333 47.55C52.4533 47.22 51.0933 41.55 50.6633 40.73C50.0533 39.97 48.6333 40.39 47.8133 40.59C48.9133 42.91 49.7733 45.18 49.0134 47.79L52.1333 47.55ZM34.1333 72.27V66.03C31.2433 66.24 22.4733 67.62 20.4533 65.44C19.2233 64.11 18.2933 57.17 18.0633 55.11C17.5333 50.45 17.5233 45.77 17.5833 41.07H15.4233L15.6733 44.78V95.07L33.4133 94.59L33.6233 86.94C32.6733 86.83 31.2234 85.77 30.3934 85.71C29.6534 85.66 28.1633 86.99 26.8133 87.15C16.8533 88.29 13.7033 75.41 22.8633 71.67C25.0433 70.78 26.6733 70.84 28.8533 71.67C29.4233 71.88 29.7333 72.38 30.4233 72.5C31.6833 72.71 32.8833 72.15 34.1333 72.27ZM13.5034 44.19C13.6434 43.91 13.9133 43.16 13.9733 42.85C14.0133 42.63 14.1734 41.73 13.7534 41.79L8.46335 47.89C7.84335 48.94 8.46335 50.19 8.48335 51.25C8.73335 61.75 8.99335 72.22 9.20335 82.69C9.30335 87.78 9.00335 92.87 9.43335 97.94L13.2733 95.66C13.6833 95.25 13.4933 94.63 13.5133 94.1C13.9433 84.4 13.4233 74.22 13.5133 64.45C13.5633 58.16 13.8333 51.83 13.7633 45.5C13.7633 45.09 13.9133 44.43 13.5233 44.18L13.5034 44.19ZM27.6533 42.03C24.9333 42.71 25.0633 46.37 25.5633 48.56C26.1833 51.31 27.5633 52.64 30.2933 53.31C30.4733 53.14 28.5533 50.78 28.3333 50.35C27.0133 47.79 26.7933 44.76 27.6533 42.03ZM62.6534 118.07C63.2134 117.17 61.8134 110.5 61.7234 108.88C61.0534 97.42 64.0434 86.15 64.8533 74.79C65.6133 64.2 66.0833 47.59 53.3433 44.19C53.0233 45.83 55.0133 46.38 56.0933 47.32C65.3033 55.3 62.8433 76.73 61.7133 87.72C60.7433 97.15 58.7533 105.95 60.9034 115.47C61.0233 116.02 61.3733 117.79 61.6233 118.11C61.8933 118.46 62.5733 118.21 62.6633 118.07H62.6534ZM27.6533 72.75C25.5333 72.2 23.4734 72.87 21.7833 74.19C15.6634 78.97 21.2633 87.53 28.1333 84.98L25.0833 84.32C24.5133 83.35 22.2434 82.19 22.4134 81.08C22.5434 80.25 23.6234 80.14 23.3333 78.63C23.1433 77.66 21.5333 77.47 22.2633 75.87C22.5033 75.34 25.0434 74.3 25.5734 73.42L27.6634 72.75H27.6533ZM35.5733 73.47L27.5333 74.91C26.6534 77.65 27.5834 80.52 27.4134 83.32L35.7733 82.81C36.3133 79.77 35.6133 76.56 35.5633 73.48L35.5733 73.47ZM40.6133 79.23C40.0833 77.25 39.8433 73.55 37.0133 74.19L37.6033 79.25C38.0233 79.86 39.9433 79.21 40.6233 79.23H40.6133ZM25.9733 81.99C25.8633 80.14 25.9733 78.11 25.9733 76.23C25.9733 76.12 26.6633 75.03 25.8533 75.63C24.8034 77.84 25.0733 80.82 25.9733 83.07C26.6033 83.04 25.9733 82.15 25.9733 81.99ZM46.6133 122.19C46.7234 122.3 49.4933 121.12 49.6033 120.99C49.9333 120.6 51.1033 116.8 51.3433 116.01C54.3033 105.86 56.7033 90.91 49.3733 82.12C47.6433 80.05 44.8633 77.41 42.2933 76.6C42.0233 78.59 43.0533 78.48 44.0933 79.47C54.7633 89.69 52.6933 110.02 46.6033 122.19H46.6133ZM31.9733 96.27C29.7733 96.56 27.5834 96.43 25.3734 96.51C23.3633 96.58 15.5333 96.52 14.3733 97.02C14.0433 97.16 11.5833 98.85 11.5833 99.02C11.8133 99.37 12.0433 99.35 12.4033 99.39C15.9933 99.78 20.6633 99.28 24.4233 99.37C25.4833 99.39 26.6133 99.84 27.7633 99.61C28.5633 99.46 31.1133 96.85 31.9634 96.26L31.9733 96.27Z" fill="#060606"/>
<path d="M217.913 444.98C217.953 447.01 217.993 449.2 217.913 451.22C217.723 456.27 216.643 462.63 214.673 467.3C209.343 479.89 195.353 475.57 184.673 476.17C172.403 476.87 163.813 483.32 152.463 485.23C151.103 485.46 149.633 485.41 148.333 485.78H147.373C146.263 485.38 144.423 485.38 143.293 485.78C143.133 485.77 142.973 485.8 142.813 485.78C137.733 485.2 134.743 481.78 130.383 480.81C126.733 480 123.103 482.15 119.773 481.1C114.783 479.54 114.143 470.18 113.773 465.86C105.893 468.61 96.8334 470.2 88.4534 469.71C85.7234 469.55 82.3434 469.01 79.9434 467.66V462.26C90.9334 465.7 102.423 464.43 113.423 461.8C113.583 461.57 113.553 461.23 113.533 460.96C113.433 458.45 112.893 455.62 112.793 453.04C112.083 434.46 112.723 412.56 115.993 394.31C120.293 370.35 130.933 353.35 157.293 352.11C175.133 351.27 183.653 356.85 194.973 369.64C209.873 386.46 217.443 422.94 217.883 445L217.913 444.98ZM209.913 470.34C216.483 463.76 216.073 444.93 215.273 436.23C213.393 415.69 207.073 387.76 193.673 371.68C190.633 368.03 186.503 363.82 183.133 360.39C181.473 358.7 180.523 357.77 178.213 356.91C170.873 354.19 158.313 353.49 150.683 355.06C144.503 356.33 137.253 363.84 134.493 369.34C127.653 382.99 127.433 411.28 127.943 426.63C128.453 441.98 130.353 462.84 135.923 477.21C136.503 478.7 137.543 481.59 138.983 482.31C144.853 485.27 155.663 482.29 161.593 480.21C170.383 477.13 176.383 474.28 186.113 473.78C193.563 473.4 203.983 476.28 209.913 470.35V470.34ZM123.383 479.06C126.113 478.72 127.963 477.82 130.833 478.45C132.333 478.78 133.713 479.85 135.143 479.9C131.713 473.78 130.383 466.7 129.023 459.87C125.793 456.76 123.063 453.19 120.153 449.78L120.263 448.94C120.693 448.61 120.853 449.03 120.983 449.06L128.303 456.98C128.613 455.97 128.323 454.88 128.183 453.86C127.763 450.73 126.923 447.61 126.943 444.43C123.853 441.9 121.703 438.48 119.783 435.02C120.273 433.67 120.593 434.91 120.983 435.14L126.623 442.58C126.703 441.46 126.373 440.33 126.263 439.22C126.013 436.73 125.773 434.21 125.783 431.71C122.863 429.8 121.093 426.73 119.063 423.98C119.283 422.96 120.173 423.96 120.503 424.34C122.193 426.28 123.703 428.39 125.663 430.1C125.963 429.16 125.573 428.2 125.543 427.22C125.453 424.8 125.443 422.37 125.253 419.95C124.473 419.08 120.123 414.16 120.253 413.44C120.293 413.22 120.733 413.32 120.743 413.3C122.623 414.25 123.563 416.32 125.183 417.62C125.693 416.96 125.263 416.17 125.303 415.46C125.403 413.8 125.923 410.17 125.493 408.67C125.063 407.17 122.133 405.38 122.183 403.22C123.803 403.49 124.813 405.76 125.543 407.06C125.943 407.12 125.763 406.73 125.783 406.46C125.813 405.94 125.743 405.41 125.783 404.9C126.613 393.38 127.283 378.73 132.743 368.42C135.313 363.56 138.863 360.28 143.303 357.14C133.633 360.37 127.283 366.58 123.273 375.87C114.133 397.05 114.733 425.46 115.243 448.23C115.393 454.89 115.033 471.84 118.393 477.22C119.733 479.37 121.083 479.35 123.383 479.06ZM80.9534 466.31C87.8434 468.38 94.8434 467.95 101.873 467.02C104.713 466.64 107.893 466.16 110.673 465.5C112.143 465.15 114.703 465.11 113.563 463.08L113.203 462.98C102.833 466.22 91.4934 467.44 80.9234 464.42L80.9534 466.31Z" fill="#060606"/>
<path d="M218.154 451.22H217.914C217.994 449.2 217.954 447.01 217.914 444.98H218.154V451.22Z" fill="#7B7B7B"/>
<path d="M147.373 485.78H143.293C144.423 485.38 146.253 485.38 147.373 485.78Z" fill="#4C4C4E"/>
<path d="M29.0932 147.39C29.0432 149.51 30.4732 152.57 29.8932 154.55C29.2132 156.87 24.1332 163.02 22.5132 165.65C15.4432 177.15 11.3232 191.89 17.1332 204.84C20.4932 212.33 26.7632 215.53 34.8532 213.4C35.0032 214.14 34.6332 214.15 34.1432 214.47C34.5832 215.36 35.8132 218.38 35.2232 219.18C33.4332 220.01 31.9932 220.89 29.9232 221.08C10.4132 222.88 7.20319 199.38 9.21319 185C11.2232 170.62 20.0732 159.33 28.1232 147.76L29.0832 147.4L29.0932 147.39ZM33.4132 214.83C20.6132 219.43 13.4632 206.63 12.3032 195.75C10.5832 179.52 19.1132 165.68 28.4932 153.38L27.8932 149.55C22.1232 160.22 14.1432 170 11.6832 182.18C8.90319 195.96 10.4032 220.75 29.9232 219.14C30.5732 219.09 33.2532 218.66 33.5332 218.19C34.0232 217.36 33.2332 215.78 33.4132 214.83Z" fill="#060606"/>
<path d="M78.3035 421.68C78.1635 421.08 77.8935 420.49 77.8335 419.88C76.1035 404.47 96.1435 401.25 101.604 388.99C104.604 382.25 103.414 373.01 98.6735 367.35C98.6735 366.92 101.204 364.47 101.734 364.39C102.894 364.21 105.874 367.89 106.464 368.93C109.614 374.49 108.714 384.71 106.164 390.43C101.044 401.91 88.4835 405.92 82.0335 416.21C80.9935 417.87 80.0835 419.64 79.3735 421.47L78.3135 421.69L78.3035 421.68ZM106.594 379.71C106.664 374.66 106.174 369.45 101.724 366.3C101.274 366.72 100.684 366.89 100.184 367.18C100.034 367.27 99.7135 367.18 99.8835 367.59C99.9835 367.82 101.394 369.25 101.754 369.8C103.534 372.5 104.834 377.27 104.914 380.43C105.204 390.89 98.9435 396.32 91.4535 402.12C86.8135 405.71 78.9735 410.28 79.2435 417.03C79.2535 417.32 79.0635 417.92 79.4835 417.87C83.7935 407.33 95.3235 403.26 101.754 394.43C105.114 389.81 106.524 385.45 106.594 379.71Z" fill="#060606"/>
<path d="M34.1333 72.2701C32.8833 72.1501 31.6833 72.7001 30.4233 72.5001C29.7333 72.3901 29.4233 71.89 28.8533 71.67C26.6733 70.85 25.0333 70.79 22.8633 71.67C13.7033 75.4 16.8633 88.2801 26.8133 87.1501C28.1633 87.0001 29.6533 85.6601 30.3933 85.7101C31.2133 85.7701 32.6633 86.8301 33.6233 86.9401L33.4133 94.5901L15.6633 95.0701V44.7801L15.4233 41.0701H17.5833C17.5233 45.7601 17.5333 50.44 18.0633 55.11C18.2933 57.17 19.2233 64.1101 20.4533 65.4401C22.4733 67.6201 31.2433 66.2401 34.1333 66.0301V72.2701Z" fill="#FEFEFE"/>
<path d="M46.3135 40.88C46.4035 40.95 47.2735 42.57 47.3735 42.82C47.9535 44.26 48.3335 47.46 46.9335 48.47C44.2635 50.39 36.5135 53.44 33.2935 53.07C29.8635 52.67 28.6035 48.4601 28.8635 45.5101C29.0935 42.8901 29.8135 40.87 32.5935 40.37C35.3735 39.87 39.9635 40.12 42.8835 40.35C43.3935 40.39 46.1135 40.74 46.3135 40.88ZM35.8135 49.9501C35.9535 49.8201 35.0335 46.73 34.9235 46.16C34.7135 45.05 34.6835 42.81 34.3135 41.97C34.1735 41.64 34.0335 41.48 33.6535 41.56C33.4035 43.29 33.2435 45.1 33.5235 46.85C33.7035 48.03 34.2335 50.4701 35.8135 49.9601V49.9501ZM41.9335 41.7901C41.2135 42.0201 41.7535 44.7701 41.9235 45.4001C42.0535 45.8901 42.0835 46.85 42.8935 46.59C43.4235 46.42 43.0635 43.5201 42.9535 42.9301C42.8635 42.4601 42.6435 41.5701 41.9335 41.7901ZM38.2135 42.2701C37.9535 42.2701 37.7135 42.21 37.4835 42.38C37.2735 42.53 36.9935 45.4301 37.0335 45.9601C37.1135 47.0401 37.6835 49.5701 39.1735 48.9901L38.2135 42.2701Z" fill="#FEFEFE"/>
<path d="M13.5036 94.1099L10.1436 95.5499C9.89355 82.7999 10.4636 70.0099 10.1436 57.2599C10.0936 55.1499 9.64355 52.6499 9.64355 50.5499C9.64355 48.0099 12.4536 46.2899 13.4936 44.1899C13.8936 44.4399 13.7336 45.0999 13.7336 45.5099C13.8036 51.8399 13.5336 58.18 13.4836 64.46C13.4036 74.23 13.9236 84.4099 13.4836 94.1099H13.5036Z" fill="#7B7B7B"/>
<path d="M62.6532 118.07C62.5632 118.22 61.8732 118.46 61.6132 118.11C61.3632 117.79 61.0132 116.02 60.8932 115.47C58.7432 105.95 60.7332 97.15 61.7032 87.72C62.8332 76.73 65.2932 55.2899 56.0832 47.3199C55.0032 46.3799 53.0132 45.8399 53.3332 44.1899C66.0732 47.5899 65.6032 64.19 64.8432 74.79C64.0332 86.15 61.0532 97.4199 61.7132 108.88C61.8032 110.5 63.2032 117.17 62.6432 118.07H62.6532Z" fill="#FEFEFE"/>
<path d="M46.6136 122.19C52.6936 110.02 54.7736 89.6801 44.1036 79.4701C43.0636 78.4801 42.0236 78.5801 42.3036 76.6001C44.8736 77.4001 47.6536 80.0401 49.3836 82.1201C56.7136 90.9101 54.3036 105.87 51.3536 116.01C51.1236 116.8 49.9436 120.6 49.6136 120.99C49.5036 121.12 46.7336 122.31 46.6236 122.19H46.6136Z" fill="#EA9443"/>
<path d="M21.9034 34.1101C22.0634 35.0501 21.6334 35.9501 21.6434 36.8701C21.7034 43.4401 22.0134 52.4701 22.8934 58.9201C23.0934 60.4201 23.2934 63.3201 25.1634 63.3701C31.0534 63.1701 36.9534 62.2001 42.7734 61.2301C42.7234 61.6601 42.7934 62.1101 42.5534 62.5101L42.0734 62.8101C38.5334 63.1201 35.0834 64.0801 31.5734 64.5601C29.7134 64.8101 22.8134 65.6601 21.6434 64.5001C20.9434 63.8001 20.3334 58.3201 20.2234 57.0401C19.7434 51.4901 19.2434 41.0701 20.3234 35.7901C20.3834 35.4901 20.5934 34.5501 20.7534 34.4201C21.1134 34.2701 21.5234 34.2301 21.8934 34.1301L21.9034 34.1101Z" fill="#7B7B7B"/>
<path d="M13.5036 44.1901C12.4636 46.2901 9.64356 48.0101 9.65356 50.5501C9.65356 52.6501 10.1036 55.1501 10.1536 57.2601C10.4636 70.0101 9.89356 82.8001 10.1536 95.5501L13.5136 94.1101C13.4936 94.6401 13.6736 95.2601 13.2736 95.6701L9.43356 97.9501C9.00356 92.8801 9.30356 87.7901 9.20356 82.7001C8.99356 72.2301 8.73356 61.7601 8.48356 51.2601C8.45356 50.2001 7.84356 48.9501 8.46356 47.9001L13.7536 41.8001C14.1736 41.7501 14.0236 42.6401 13.9736 42.8601C13.9136 43.1701 13.6536 43.9101 13.5036 44.2001V44.1901Z" fill="#FEFEFE"/>
<path d="M35.5731 73.47C35.6231 76.55 36.3231 79.7599 35.7831 82.7999L27.4231 83.3099C27.5931 80.5099 26.6631 77.64 27.5431 74.9L35.5831 73.46L35.5731 73.47Z" fill="#4C4C4E"/>
<path d="M29.0935 24.99L28.8535 28.59L39.1735 29.07C39.2635 29.8 39.3835 30.54 39.6535 31.23C33.9735 30.63 28.2935 31.23 22.6235 31.47V27.27C22.6235 26.87 22.9735 25.35 23.5135 25.28C25.3535 25.1 27.2735 25.14 29.1035 24.99H29.0935Z" fill="#7B7B7B"/>
<path d="M31.9733 96.27C31.1233 96.87 28.5633 99.47 27.7733 99.62C26.6233 99.84 25.4833 99.4 24.4333 99.38C20.6833 99.29 16.0033 99.8 12.4133 99.4C12.0533 99.36 11.8133 99.38 11.5933 99.03C11.5933 98.86 14.0533 97.17 14.3833 97.03C15.5433 96.53 23.3733 96.58 25.3833 96.52C27.5933 96.44 29.7833 96.57 31.9833 96.28L31.9733 96.27Z" fill="#7B7B7B"/>
<path d="M29.0935 24.9901C29.0935 24.9901 29.3635 24.7601 29.6735 24.7401C30.9935 24.6501 38.4135 24.2 38.9035 24.78C38.9035 26.21 39.0035 27.6601 39.1735 29.0701L28.8535 28.59L29.0935 24.9901Z" fill="#FEFEFE"/>
<path d="M27.6533 72.75L25.5633 73.4199C25.0333 74.2999 22.5033 75.3399 22.2533 75.8699C21.5333 77.4699 23.1333 77.66 23.3233 78.63C23.6133 80.14 22.5333 80.24 22.4033 81.08C22.2333 82.19 24.4933 83.35 25.0733 84.32L28.1233 84.9799C21.2533 87.5299 15.6533 78.97 21.7733 74.19C23.4633 72.87 25.5233 72.2 27.6433 72.75H27.6533Z" fill="#7B7B7B"/>
<path d="M27.6534 42.03C26.7834 44.76 27.0134 47.79 28.3334 50.35C28.5534 50.78 30.4734 53.14 30.2934 53.31C27.5634 52.64 26.1834 51.31 25.5634 48.56C25.0634 46.37 24.9334 42.7 27.6534 42.03Z" fill="#FEFEFE"/>
<path d="M52.1335 47.5499L49.0135 47.7899C49.7735 45.1799 48.9135 42.9199 47.8135 40.5899C48.6335 40.3899 50.0535 39.9699 50.6635 40.7299C51.0935 41.5399 52.4535 47.2199 52.1335 47.5499Z" fill="#FEFEFE"/>
<path d="M40.6134 79.2301C39.9334 79.2101 38.0234 79.8601 37.5934 79.2501L37.0034 74.1901C39.8334 73.5501 40.0734 77.2501 40.6034 79.2301H40.6134Z" fill="#4C4C4E"/>
<path d="M25.9733 81.9899C25.9733 82.1499 26.6033 83.0299 25.9733 83.0699C25.0733 80.8199 24.8033 77.8399 25.8533 75.6299C26.6633 75.0299 25.9733 76.1198 25.9733 76.2298C25.9733 78.1098 25.8633 80.1399 25.9733 81.9899Z" fill="#4C4C4E"/>
<path d="M209.913 470.34C203.993 476.27 193.563 473.39 186.113 473.77C176.383 474.27 170.373 477.12 161.593 480.2C155.663 482.28 144.843 485.26 138.983 482.3C137.543 481.57 136.503 478.69 135.923 477.2C130.353 462.83 128.453 442.04 127.943 426.62C127.433 411.2 127.653 382.97 134.493 369.33C137.253 363.82 144.503 356.32 150.683 355.05C158.313 353.48 170.873 354.18 178.213 356.9C180.523 357.75 181.473 358.69 183.133 360.38C186.503 363.81 190.633 368.02 193.673 371.67C207.073 387.76 213.393 415.68 215.273 436.22C216.073 444.93 216.483 463.75 209.913 470.33V470.34ZM159.563 356.74C154.933 357.07 141.073 360.03 147.143 367.1C151.963 372.71 169.743 372.58 175.213 368.07C176.593 366.93 177.263 366.11 177.103 364.26C176.443 356.53 165.303 356.34 159.573 356.74H159.563ZM166.093 378.03C165.763 378.36 167.153 381.29 167.363 381.92C171.723 395.23 175.313 409.7 175.943 423.73C176.353 432.72 176.063 441.6 175.693 450.62C175.633 451.97 175.153 455.2 176.783 455.29C180.003 455.47 186.933 452.81 189.373 450.62C191.093 449.08 191.163 448.39 191.303 446.07C191.893 436.12 189.563 422.39 187.293 412.62C185.383 404.44 180.103 386.62 174.943 380.34C172.953 377.92 169.003 378.29 166.103 378.02L166.093 378.03ZM164.123 379.51C161.653 378.06 158.233 378.96 156.033 380.58C156.543 383.7 157.263 386.8 157.653 389.93C159.693 406.23 159.753 422.81 157.133 439.02C156.783 441.2 155.203 446.95 155.533 448.7C155.603 449.04 155.663 449.08 155.913 449.27C156.933 450.06 159.963 451.15 161.283 451.57C163.523 452.29 169.093 453.78 171.233 453.37C172.303 453.16 172.393 451.26 172.533 450.35C175.803 427.93 172.893 401.59 164.273 380.66C164.123 380.29 164.223 379.87 164.113 379.5L164.123 379.51ZM194.903 445.45C195.153 445.62 195.913 445.43 196.103 445.12C199.623 439.23 202.013 433 203.403 426.27C207.023 408.8 203.723 393.76 187.763 384.31C186.323 383.46 182.173 381.17 180.743 380.77C180.073 380.59 179.183 380.47 179.333 381.44C186.853 399.42 193.053 418.78 194.403 438.38C194.483 439.54 194.173 444.93 194.903 445.44V445.45ZM152.893 382.11C152.893 382.11 153.183 381.92 153.133 381.76C152.963 381.54 152.893 381.44 152.593 381.44C150.203 381.39 145.793 384.24 144.013 385.83C129.423 398.89 133.213 422.93 142.573 437.92C144.013 440.22 148.443 446.3 150.483 447.76C152.663 449.33 153.183 446.8 153.783 445.04C157.753 433.49 157.263 420.38 156.733 408.39C156.343 399.56 156.103 390.91 153.593 382.36H153.133L152.893 382.35C152.893 382.27 152.893 382.19 152.893 382.11ZM145.453 454.34C143.693 452.93 141.173 452.83 139.833 454.84C138.703 456.52 139.723 457.34 139.343 458.17C139.153 458.58 137.783 459.7 137.293 460.45C134.003 465.5 135.873 476.2 141.373 479.18C146.873 482.16 154.763 480.87 158.893 476.18C163.723 470.7 165.213 463.75 160.213 457.7C156.183 452.82 151.233 451.09 145.453 454.34ZM179.463 461.83C178.323 462.17 177.173 465.28 177.983 466.57C180.023 469.82 184.933 465.9 182.853 463.14C182.303 462.4 180.363 461.57 179.463 461.83Z" fill="#FEFEFE"/>
<path d="M132.743 368.43C127.283 378.74 126.613 393.39 125.783 404.91C124.903 404.78 123.013 402.14 122.183 402.75C122.173 402.91 122.183 403.07 122.183 403.23C122.133 405.39 125.073 407.24 125.493 408.68C125.913 410.12 125.403 413.81 125.303 415.47C124.683 415.03 121.323 412.07 120.743 412.59C120.663 412.66 120.803 413.21 120.743 413.31C120.733 413.33 120.293 413.23 120.253 413.45C120.123 414.17 124.473 419.09 125.253 419.96C125.433 422.38 125.453 424.81 125.543 427.23C123.703 426.58 122.503 424.8 120.503 424.35C120.173 423.97 119.293 422.96 119.063 423.99C121.093 426.74 122.853 429.82 125.783 431.72C125.773 434.22 126.003 436.74 126.263 439.23C124.493 438.28 123.413 436.4 121.683 435.28C121.413 435.1 121.063 435.2 120.983 435.15C120.593 434.92 120.273 433.68 119.783 435.03C121.693 438.49 123.853 441.91 126.943 444.44C126.923 447.62 127.763 450.74 128.183 453.87C125.833 452.42 123.743 449.68 120.983 449.07C120.853 449.04 120.683 448.62 120.263 448.95L120.153 449.79C123.063 453.2 125.793 456.77 129.023 459.88C130.383 466.71 131.713 473.79 135.143 479.91C133.713 479.85 132.333 478.79 130.833 478.46C127.963 477.83 126.113 478.73 123.383 479.07C118.683 474.26 118.663 466.59 118.343 460.23C117.633 446.19 117.713 431.53 118.343 417.51C119.053 401.59 120.783 381.44 131.823 369.08C132.103 368.77 132.193 368.41 132.743 368.44V368.43Z" fill="#7B7B7B"/>
<path d="M123.383 479.06C121.073 479.35 119.733 479.36 118.393 477.22C115.033 471.84 115.393 454.89 115.243 448.23C114.743 425.46 114.133 397.05 123.273 375.87C127.273 366.59 133.623 360.37 143.303 357.14C138.873 360.28 135.313 363.56 132.743 368.42C132.203 368.4 132.103 368.76 131.823 369.06C120.783 381.43 119.053 401.58 118.343 417.49C117.713 431.51 117.633 446.18 118.343 460.21C118.663 466.57 118.683 474.24 123.383 479.05V479.06Z" fill="#FEFEFE"/>
<path d="M80.9533 466.31L80.9233 464.42C91.4933 467.44 102.843 466.23 113.203 462.98L113.563 463.08C114.703 465.11 112.143 465.16 110.673 465.5C107.893 466.15 104.713 466.64 101.873 467.02C94.8433 467.95 87.8433 468.38 80.9533 466.31Z" fill="#FEFEFE"/>
<path d="M128.183 453.86C128.323 454.88 128.613 455.97 128.303 456.98L120.983 449.06C123.743 449.67 125.833 452.41 128.183 453.86Z" fill="#FEFEFE"/>
<path d="M126.263 439.22C126.373 440.33 126.703 441.46 126.623 442.58L120.983 435.14C121.063 435.19 121.413 435.09 121.683 435.27C123.413 436.39 124.483 438.27 126.263 439.22Z" fill="#FEFEFE"/>
<path d="M125.543 427.22C125.583 428.19 125.963 429.16 125.663 430.1C123.703 428.39 122.193 426.29 120.503 424.34C122.503 424.79 123.703 426.57 125.543 427.22Z" fill="#FEFEFE"/>
<path d="M125.303 415.47C125.263 416.18 125.693 416.97 125.183 417.63C123.563 416.33 122.623 414.26 120.743 413.31C120.813 413.21 120.663 412.67 120.743 412.59C121.313 412.07 124.673 415.02 125.303 415.47Z" fill="#FEFEFE"/>
<path d="M125.784 404.91C125.744 405.42 125.814 405.95 125.784 406.47C125.764 406.74 125.944 407.13 125.544 407.07C124.814 405.78 123.794 403.5 122.184 403.23C122.184 403.07 122.184 402.91 122.184 402.75C123.014 402.14 124.904 404.78 125.784 404.91Z" fill="#FEFEFE"/>
<path d="M33.4135 214.83C33.2335 215.79 34.0335 217.37 33.5335 218.19C33.2535 218.66 30.5835 219.09 29.9235 219.14C10.4135 220.74 8.90354 195.95 11.6835 182.18C14.1435 170 22.1235 160.22 27.8935 149.55L28.4935 153.38C19.1135 165.67 10.5835 179.52 12.3035 195.75C13.4635 206.63 20.6135 219.43 33.4135 214.83Z" fill="#EA9443"/>
<path d="M106.593 379.71C106.523 385.44 105.113 389.81 101.753 394.43C95.3233 403.26 83.7933 407.33 79.4833 417.87C79.0633 417.93 79.2633 417.32 79.2433 417.03C78.9733 410.28 86.8133 405.71 91.4533 402.12C98.9533 396.32 105.203 390.88 104.913 380.43C105.663 380.58 105.903 379.77 106.593 379.71Z" fill="#FEFEFE"/>
<path d="M106.593 379.71C105.903 379.77 105.663 380.58 104.913 380.43C104.823 377.26 103.523 372.5 101.753 369.8C101.393 369.25 99.9735 367.82 99.8835 367.59C99.7135 367.19 100.043 367.27 100.183 367.18C100.673 366.89 101.263 366.72 101.723 366.3C106.183 369.45 106.663 374.66 106.593 379.71Z" fill="#7B7B7B"/>
<path d="M35.8133 49.9501C34.2333 50.4601 33.7033 48.0201 33.5233 46.8401C33.2533 45.0901 33.4033 43.2801 33.6533 41.5501C34.0433 41.4801 34.1733 41.6301 34.3133 41.9601C34.6733 42.8001 34.7133 45.0401 34.9233 46.1501C35.0233 46.7101 35.9533 49.8101 35.8133 49.9401V49.9501Z" fill="#060606"/>
<path d="M38.2131 42.27L39.1731 48.99C37.6831 49.57 37.1131 47.04 37.0331 45.96C36.9931 45.43 37.2731 42.5299 37.4831 42.3799C37.7131 42.2099 37.9531 42.28 38.2131 42.27Z" fill="#060606"/>
<path d="M41.9333 41.79C42.6433 41.57 42.8633 42.4501 42.9533 42.9301C43.0633 43.5201 43.4233 46.42 42.8933 46.59C42.0833 46.85 42.0633 45.8901 41.9233 45.4001C41.7533 44.7801 41.2133 42.02 41.9333 41.79Z" fill="#060606"/>
<path d="M166.094 378.03C168.984 378.3 172.934 377.93 174.934 380.35C180.094 386.63 185.384 404.45 187.284 412.63C189.564 422.39 191.894 436.13 191.294 446.08C191.154 448.4 191.084 449.09 189.364 450.63C186.924 452.82 180.004 455.47 176.774 455.3C175.144 455.21 175.624 451.98 175.684 450.63C176.054 441.61 176.334 432.73 175.934 423.74C175.304 409.71 171.714 395.23 167.354 381.93C167.144 381.3 165.764 378.37 166.084 378.04L166.094 378.03ZM170.654 382.83C172.094 382.68 173.544 382.61 174.974 382.35C175.214 382.1 174.504 380.94 174.254 380.67C173.384 379.75 172.394 380.18 171.374 379.95C170.354 379.72 169.344 379.43 168.254 379.23C167.904 379.16 167.274 378.74 166.824 378.87C167.494 379.66 168.014 380.58 168.544 381.47C168.994 382.23 168.794 383.05 169.834 383.1C170.304 383.12 170.554 382.84 170.664 382.83H170.654ZM171.614 383.79C171.004 383.9 170.314 383.95 169.694 384.03L170.434 386.64C171.174 386.93 172.054 386.48 172.564 386.43C174.014 386.29 175.444 386.14 176.884 385.95C177.024 385.85 176.244 384.7 176.164 384.51C175.974 384.1 175.914 383.95 175.684 383.55C175.624 383.45 175.834 383.08 175.544 383.05C174.234 383.31 172.914 383.55 171.604 383.79H171.614ZM173.294 387.87C172.694 387.99 171.804 387.87 171.134 388.11L171.634 390.24C172.444 390.4 173.224 390.14 174.014 390.03C174.234 390 174.414 389.8 174.494 389.79C175.064 389.69 177.944 389.55 178.054 388.95C178.054 388.81 177.864 388.68 177.854 388.59C177.534 386.04 175.084 387.51 173.294 387.87ZM177.844 390.99C177.064 391 176.644 391.11 175.924 391.23C175.514 391.3 175.134 391.37 174.724 391.47C174.054 391.63 173.324 391.76 172.674 391.94C172.394 392.02 172.244 391.78 172.354 392.27C172.494 392.91 172.954 393.64 173.064 394.32C173.404 394.57 174.744 393.95 175.204 393.86C176.654 393.56 178.104 393.33 179.524 392.9C179.584 392.61 179.364 392.4 179.284 392.18C179.134 391.78 178.964 391.37 178.804 390.98C178.754 390.86 178.934 390.54 178.674 390.49H177.844V390.98V390.99ZM176.164 395.31C175.844 395.41 173.494 396.01 173.534 396.14L174.394 398.17C174.954 398.34 176.154 397.6 176.644 397.47C177.644 397.21 179.084 397.11 180.074 396.75C180.394 396.63 180.194 396.39 180.244 396.27C180.534 395.56 180.304 395.92 180.244 395.55C180.184 395.18 180.384 394.53 179.854 394.37C178.614 394.62 177.374 394.95 176.164 395.31ZM177.364 399.39C176.994 399.51 175.064 399.79 174.984 399.89L175.204 402.03C175.444 402.28 177.304 401.18 177.604 401.07C178.614 400.7 178.484 400.78 179.284 400.35C179.514 400.23 181.194 400.26 181.664 399.85C181.874 399.44 181.514 399.15 181.444 398.91C181.394 398.73 181.494 398.41 181.444 398.19C179.984 398.13 178.654 398.98 177.364 399.39ZM178.084 402.99C177.424 403.25 176.614 403.38 175.964 403.75L176.414 406.83C176.784 407.09 178.164 406.24 178.564 406.12C179.384 405.87 182.414 405.2 182.884 404.8C183.614 404.19 182.414 402.15 182.394 401.32C180.924 401.79 179.514 402.44 178.074 403L178.084 402.99ZM179.044 407.55C178.654 407.7 176.754 408.17 176.674 408.3L177.124 411.63C177.934 411.43 178.734 411.16 179.524 410.91C180.154 410.71 181.624 410.6 181.444 409.95C182.254 409.97 183.124 409.56 183.844 409.23C183.934 409.19 184.164 409.29 184.304 409.23L183.484 405.9C181.994 406.44 180.514 407 179.044 407.56V407.55ZM180.004 412.59C179.584 412.74 177.534 413.12 177.394 413.34L177.844 417.63C178.014 417.8 180.074 416.81 180.484 416.67C182.264 416.03 184.064 415.42 185.774 414.6L185.034 410.91C184.734 410.62 180.694 412.35 179.994 412.59H180.004ZM180.724 418.59C180.364 418.73 178.044 419.11 177.844 419.31C177.754 419.56 178.084 419.82 178.084 419.91V424.95C178.084 425.78 180.804 424.47 181.204 424.35C182.784 423.85 185.434 423.17 186.794 422.38C187.054 422.23 187.164 422.25 187.154 421.89C187.124 421.06 186.474 417.69 186.224 416.8C186.154 416.54 186.154 416.36 185.874 416.2C184.404 416.98 182.794 417.44 181.254 418.06C180.934 418.19 180.754 418.58 180.714 418.59H180.724ZM181.204 426.27C180.394 426.56 179.194 426.77 178.324 426.99V430.59C179.314 430.49 180.264 430.14 181.204 429.87C183.464 429.21 185.614 428.26 187.894 427.69L187.434 423.87C187.184 423.65 181.964 426 181.194 426.27H181.204ZM181.444 431.3C180.524 431.61 179.294 431.81 178.324 432.02V436.1C179.354 436.11 180.314 435.44 181.204 435.14C183.694 434.31 186.354 433.62 188.624 432.35L188.164 428.9C187.854 428.63 182.264 431.02 181.444 431.3ZM181.204 437.06C180.304 437.38 179.274 437.62 178.324 437.78V441.86C179.294 441.93 180.154 441.19 180.964 440.9C183.144 440.12 186.624 439.19 188.574 438.07C189.584 437.49 188.544 435.3 188.884 434.18C188.604 433.88 182.104 436.74 181.204 437.06ZM180.724 443.06C178.434 444.03 177.734 443.19 178.084 446.66C178.224 446.81 180.134 445.83 180.484 445.7C181.704 445.26 182.934 444.96 184.144 444.43C184.504 444.27 184.924 444.39 184.804 443.78C186.034 443.85 187.534 442.89 188.644 442.34C188.754 442.29 188.994 442.34 189.124 442.23C189.624 441.82 188.994 440.16 189.004 439.46C186.264 440.68 183.494 441.89 180.724 443.06ZM180.004 450.5C183.124 449.48 186.144 448.15 189.124 446.78L189.364 443.54C189.284 443.45 187.254 444.15 187.444 444.74C185.734 444.76 184.774 445.96 183.604 446.42C182.614 446.81 181.374 447.17 180.244 447.62C179.874 447.77 178.004 448.18 177.874 448.37C177.984 449.13 177.634 449.89 177.604 450.62C177.584 451.01 177.434 451.27 177.954 451.21C178.574 451.14 179.384 450.7 180.004 450.49V450.5ZM179.524 452.42C178.384 452.89 177.024 452.58 177.364 454.34C177.454 454.45 178.964 453.74 179.284 453.62C181.574 452.75 184.324 451.82 186.404 450.54C186.844 450.27 189.234 448.47 189.364 448.22C189.564 447.82 189.214 447.82 188.864 447.96C185.794 449.21 182.704 451.12 179.524 452.42Z" fill="#060606"/>
<path d="M152.893 382.11L147.613 384.99C147.613 385.41 148.663 385.25 148.943 385.24C149.633 385.2 150.283 385.04 150.973 384.99C151.763 384.93 152.583 385.03 153.373 384.99C153.553 384.83 152.933 383.15 152.893 382.83C152.883 382.75 152.893 382.67 152.893 382.59L153.133 382.35H153.593C156.103 390.91 156.343 399.55 156.733 408.39C157.263 420.38 157.753 433.49 153.783 445.04C153.183 446.8 152.663 449.33 150.483 447.76C148.443 446.29 144.013 440.22 142.573 437.92C133.213 422.94 129.423 398.89 144.013 385.83C145.793 384.23 150.203 381.38 152.593 381.44C152.893 381.44 152.963 381.54 153.133 381.76C153.173 381.93 152.893 382.09 152.893 382.11ZM149.773 386.19C149.023 386.24 146.353 386.37 145.943 386.55C145.753 386.63 143.143 389.24 143.063 389.43C142.963 389.97 143.303 389.76 143.653 389.79C144.683 389.87 146.053 389.64 147.133 389.55C149.373 389.37 151.613 389.11 153.843 388.82L153.613 385.95C152.343 386.12 151.043 386.1 149.773 386.19ZM152.893 390.51C151.043 390.58 149.603 390.84 147.853 390.99C147.223 391.04 146.563 390.94 145.933 390.99C144.553 391.11 143.173 391.27 141.773 391.27C141.223 391.72 138.893 395.48 139.213 395.79C140.683 395.8 142.103 395.28 143.533 395.07C147.193 394.54 150.923 394.16 154.553 393.37C154.383 392.78 154.433 390.8 154.223 390.5C153.793 389.88 153.043 390.5 152.883 390.51H152.893ZM152.653 395.79C151.313 395.99 149.923 396.09 148.573 396.27C146.503 396.54 144.413 396.74 142.333 396.99C141.583 397.08 138.613 397.27 138.313 397.53C138.203 397.63 137.423 399.92 137.343 400.28C137.253 400.69 137.143 400.86 137.653 400.83C138.883 400.76 140.163 400.29 141.373 400.11C145.943 399.43 150.493 398.71 155.053 397.95L154.813 395.31C154.653 395.14 152.973 395.74 152.653 395.79ZM139.943 405.63C144.923 404.49 150.013 403.59 155.053 402.75V399.87C154.353 399.79 153.683 399.99 153.003 400.11C152.553 400.18 152.043 399.84 152.183 400.59C151.493 400.58 150.703 400.54 150.023 400.59C147.013 400.83 143.473 401.57 140.423 402.03C139.243 402.21 138.033 402.21 136.883 402.57C136.703 402.73 136.173 405.73 136.113 406.25C136.053 406.77 136.283 406.6 136.673 406.57C137.713 406.49 138.963 405.85 139.933 405.63H139.943ZM139.703 407.55C138.433 407.81 137.123 407.92 135.863 408.27V411.63C137.163 411.66 138.433 411.3 139.703 411.15C144.903 410.52 150.023 409.59 155.063 408.16C155.403 407.91 155.373 405.55 155.303 405.03C155.253 404.7 155.443 404.62 154.943 404.67C149.853 405.58 144.773 406.52 139.713 407.56L139.703 407.55ZM139.703 413.07C138.553 413.23 137.373 413.27 136.243 413.52L136.343 417.15C137.523 416.9 138.743 416.84 139.943 416.67C145.163 415.93 150.303 414.64 155.403 413.34L155.543 410.19C150.273 411.28 145.043 412.34 139.713 413.07H139.703ZM153.613 415.23C152.183 415.57 150.733 415.89 149.293 416.19C146.273 416.83 143.223 417.41 140.173 417.87C139.563 417.96 136.603 418.12 136.573 418.49L137.283 421.37C137.583 421.61 140.103 420.83 140.653 420.75C142.513 420.47 144.353 420.33 146.213 419.96C149.263 419.34 152.263 418.46 155.293 417.76L155.523 414.76C154.843 414.72 154.233 415.09 153.603 415.24L153.613 415.23ZM141.143 422.19C139.943 422.38 138.723 422.51 137.543 422.79L138.733 425.93C138.923 426.06 140.823 425.84 141.283 425.8C141.603 425.77 141.823 425.56 141.863 425.55C142.533 425.49 143.233 425.62 143.903 425.55C147.723 425.15 151.503 424.39 155.303 423.87L155.543 419.31C150.783 420.47 145.993 421.41 141.153 422.19H141.143ZM142.583 427.22C141.683 427.32 140.743 427.31 139.833 427.47C139.533 427.52 139.383 427.3 139.493 427.79L141.383 431.91C141.593 432.04 143.713 431.8 144.263 431.78C147.723 431.67 151.163 431.4 154.593 430.95C155.273 430.51 155.043 426.54 155.303 425.54C151.073 426.19 146.843 426.74 142.583 427.22ZM145.453 433.22C144.503 433.29 143.373 433.35 142.453 433.46C142.173 433.49 141.973 433.37 142.103 433.81C142.203 434.16 144.073 437.3 144.253 437.42C144.953 437.85 146.573 437.16 147.373 437.06C149.573 436.79 151.793 436.68 153.943 436.13L154.563 432.51C151.553 433.04 148.473 433 145.443 433.23L145.453 433.22ZM153.373 438.02C153.053 438.02 152.733 438.02 152.413 438.02C150.893 437.98 150.043 438.29 148.573 438.5C147.543 438.65 146.273 438.66 145.213 438.74L148.253 442.79C149.093 442.52 149.983 442.67 150.833 442.56C151.023 442.53 151.163 442.35 151.213 442.34C151.663 442.27 152.173 442.44 152.623 442.31C153.063 441.25 153.133 440.09 153.373 438.98C153.433 438.71 153.533 438.29 153.613 438.02C153.663 437.84 154.303 437.46 153.373 437.54V438.02ZM152.173 444.03C151.293 444 150.343 443.97 149.533 444.39L151.453 446.43L152.173 444.03Z" fill="#060606"/>
<path d="M164.124 379.51C164.234 379.88 164.124 380.3 164.284 380.67C172.894 401.59 175.814 427.94 172.544 450.36C172.414 451.27 172.324 453.18 171.244 453.38C169.104 453.79 163.534 452.3 161.294 451.58C159.974 451.16 156.934 450.07 155.924 449.28C155.674 449.09 155.604 449.05 155.544 448.71C155.214 446.97 156.794 441.22 157.144 439.03C159.764 422.81 159.714 406.24 157.664 389.94C157.274 386.8 156.554 383.7 156.044 380.59C158.244 378.97 161.654 378.07 164.134 379.52L164.124 379.51ZM157.454 380.91C157.124 381.02 156.664 380.62 156.744 381.26C156.844 382.18 157.594 383.36 157.664 384.37C157.844 384.63 158.814 384.53 159.134 384.51C160.804 384.4 162.704 383.91 164.414 383.79C164.574 383.61 163.364 380.67 163.094 380.43C162.414 379.82 158.444 380.57 157.454 380.91ZM161.534 385.23C160.894 385.31 160.254 385.39 159.614 385.47C159.154 385.53 158.644 385.43 158.174 385.47L158.664 388.35C159.154 388.35 159.604 388.16 160.094 388.11C161.804 387.94 163.504 387.72 165.214 387.59C166.094 387.15 165.304 386.44 165.134 385.95C165.044 385.69 165.084 384.8 164.744 384.73C163.674 384.91 162.614 385.1 161.534 385.23ZM164.174 389.07C162.964 389.19 161.774 389.37 160.574 389.55C160.184 389.61 159.704 389.46 159.294 389.59C158.564 389.83 159.294 391.75 159.244 392.44C159.514 392.86 160.354 392.48 160.814 392.43C162.834 392.22 164.804 391.73 166.814 391.47C166.844 390.7 166.324 390.1 166.094 389.55C166.034 389.41 166.144 389.04 166.094 388.83C165.444 388.86 164.824 389.01 164.174 389.07ZM164.174 393.87C163.254 394.02 162.444 394.16 161.534 394.35C160.994 394.46 160.224 394.36 159.644 394.62L159.874 396.97C160.004 397.06 161.404 396.8 161.774 396.75C163.784 396.46 165.784 395.94 167.774 395.55C167.644 395.21 167.654 394.55 167.524 394.29C167.374 394.01 167.064 394.13 167.054 394.11C166.984 393.99 167.204 393.45 166.924 393.38C165.934 393.3 165.124 393.72 164.174 393.87ZM166.094 397.71C164.824 397.94 163.514 398.15 162.254 398.43C161.544 398.59 160.814 398.7 160.124 398.94L160.334 401.55C161.144 401.44 161.934 401.23 162.734 401.07C164.654 400.69 166.544 400.13 168.484 399.86C168.704 399.27 168.364 398.86 168.254 398.43C168.164 398.07 168.424 397.49 167.874 397.24C167.274 397.47 166.724 397.59 166.094 397.71ZM164.894 402.75C164.434 402.86 163.864 402.84 163.214 402.99C162.354 403.19 161.454 403.27 160.604 403.49L160.824 406.59C161.034 406.78 163.074 405.74 163.464 405.63C163.744 405.55 164.224 405.65 164.664 405.52C165.424 405.3 168.864 404.35 169.224 404.07C169.604 403.77 169.334 402.98 169.224 402.51C169.164 402.27 169.064 401.57 168.844 401.55C167.714 401.95 166.534 402.13 165.374 402.39C165.134 402.44 164.954 402.74 164.904 402.76L164.894 402.75ZM163.694 407.79C163.274 407.93 160.934 408.42 160.844 408.53L160.824 411.63C160.954 411.76 163.494 411.03 163.944 410.91C165.984 410.33 167.994 409.59 170.034 409.02C170.394 408.76 169.954 405.96 169.564 405.88C167.604 406.49 165.654 407.15 163.704 407.79H163.694ZM163.934 412.35C163.474 412.5 161.104 413 161.044 413.22L161.064 416.19C161.224 416.36 163.494 415.58 163.944 415.47C164.764 415.27 171.104 413.79 171.144 413.41L170.664 410.43C170.404 410.17 164.774 412.09 163.944 412.35H163.934ZM163.934 417.39C163.194 417.59 161.874 417.66 161.054 417.87V422.43C161.974 422.5 162.824 422.14 163.694 421.95C164.654 421.74 171.524 420.03 171.624 419.63L171.374 415.23C169.384 415.74 167.364 416.23 165.384 416.79C164.854 416.94 164.304 417.29 163.944 417.39H163.934ZM163.694 423.63C163.194 423.76 160.874 424.21 160.804 424.51L160.574 429.87C161.514 430.09 162.424 429.53 163.214 429.39C166.134 428.86 169.064 428.35 171.864 427.32L171.604 421.47C168.994 422.27 166.334 422.94 163.684 423.63H163.694ZM162.974 431.3C162.204 431.46 161.174 431.45 160.374 431.57L159.984 435.14C160.974 435.08 162.064 434.59 162.984 434.42C165.954 433.86 168.974 433.44 171.864 432.5V429.14C168.874 429.67 165.954 430.7 162.984 431.3H162.974ZM162.494 436.1C161.834 436.25 159.604 436.42 159.414 436.98C159.284 437.34 158.754 440.99 158.894 441.14C159.864 441.07 160.824 440.84 161.774 440.66C162.914 440.45 171.504 438.6 171.624 438.1L171.854 433.94C168.764 434.78 165.624 435.41 162.494 436.1ZM161.294 442.58C160.454 442.77 159.444 442.77 158.594 443.06L157.464 447.86C157.764 448.15 159.894 447.24 160.344 447.14C163.964 446.35 167.654 445.67 171.154 444.35L171.374 440.17C167.994 440.87 164.654 441.8 161.294 442.57V442.58ZM170.414 446.66C168.924 446.91 168.124 447.29 166.814 447.62C164.784 448.14 162.664 448.49 160.624 448.98C160.234 449.07 159.274 449.15 159.144 449.53C160.654 449.57 162.594 450.7 164.024 450.65C165.914 450.58 168.494 449.15 170.494 449.06L170.894 446.41C170.604 446.31 170.444 446.64 170.414 446.65V446.66ZM170.404 450.75L167.524 451.47L170.404 451.71V450.75Z" fill="#060606"/>
<path d="M194.903 445.45C194.173 444.94 194.483 439.55 194.403 438.39C193.043 418.79 186.853 399.43 179.333 381.45C179.183 380.48 180.073 380.6 180.743 380.78C182.173 381.17 186.323 383.46 187.763 384.32C203.723 393.77 207.023 408.8 203.403 426.28C202.003 433.02 199.613 439.24 196.103 445.13C195.913 445.43 195.153 445.63 194.903 445.46V445.45ZM184.083 384.51L180.973 383.18L182.093 384.96L184.093 384.51H184.083ZM183.843 385.71C183.363 385.8 182.883 385.89 182.403 385.95L183.143 387.61C183.703 387.82 184.213 387.25 184.563 387.15C184.963 387.04 186.973 386.71 186.953 386.31C185.863 385.25 185.133 385.47 183.843 385.71ZM185.043 388.35C184.813 388.45 183.883 388.4 183.833 388.73L184.813 391.47C185.003 391.61 186.333 390.79 186.493 390.75C186.733 390.68 187.153 390.8 187.503 390.69C188.763 390.32 189.973 389.74 191.293 389.55C190.983 388.69 189.933 388.5 189.373 388.11C189.033 387.88 188.223 387.44 188.173 387.39C188.113 387.34 188.343 386.75 187.843 386.92C186.933 387.3 185.923 387.96 185.053 388.35H185.043ZM188.163 391.71C187.983 391.79 187.413 391.78 186.963 391.95C186.513 392.12 186.043 392.22 185.623 392.41C185.403 392.51 185.173 392.27 185.313 392.76C185.453 393.29 186.003 393.92 186.023 394.58C186.643 394.67 187.143 394.27 187.693 394.11C189.703 393.52 191.673 392.77 193.693 392.19C193.763 391.28 192.783 390.54 192.013 390.27C191.773 390.19 191.893 389.98 191.303 390.13C190.613 390.31 189.473 390.89 188.713 391.18C188.383 391.31 188.213 391.69 188.173 391.71H188.163ZM193.923 393.15C192.573 393.5 191.753 394.09 190.563 394.59C189.833 394.9 189.103 395.24 188.403 395.55C188.023 395.72 187.183 395.74 186.743 396.06C186.883 397.88 187.203 397.89 188.703 397.22C188.963 397.1 188.863 396.76 188.883 396.75C189.003 396.69 189.683 396.8 190.083 396.64C192.023 395.86 193.883 394.85 195.833 394.11L195.073 392.96C194.643 392.74 194.273 393.06 193.913 393.16L193.923 393.15ZM191.043 401.31C192.113 400.83 197.753 398.31 198.133 397.71C198.493 397.15 196.983 395.14 196.553 394.93C196.213 394.77 195.193 395.33 194.803 395.54C194.583 395.66 194.663 396.01 194.643 396.02C193.993 396.44 193.163 396.18 192.243 397.22C191.613 397.24 191.033 397.47 190.473 397.73C190.013 397.94 189.733 398.36 189.603 398.42C189.313 398.56 188.003 398.64 187.913 399.06L188.653 402.26C189.043 402.53 190.623 401.49 191.043 401.3V401.31ZM191.283 402.75C190.983 402.91 189.313 403.24 189.133 403.49C189.433 404.32 189.553 405.68 189.903 406.42C190.353 407.39 191.703 406.1 192.253 405.87C193.703 405.26 199.613 402.65 200.293 401.55C200.713 400.87 199.463 398.75 198.853 398.24C196.593 399.85 194.143 401.05 191.683 402.31C191.463 402.42 191.353 402.72 191.293 402.75H191.283ZM199.443 403.95C199.023 404.26 198.253 404.44 197.523 405.15L192.723 407.55C192.143 407.84 191.223 408.17 190.563 408.27L191.523 411.87C192.383 411.98 193.033 411.23 193.683 410.91C194.613 410.44 195.573 410.03 196.483 409.51C197.343 409.02 201.233 406.77 201.613 406.25C202.313 405.3 201.103 403.58 201.113 402.51C200.153 402.26 199.553 403.86 199.433 403.95H199.443ZM193.923 412.59C193.373 412.93 192.193 412.81 192.283 413.84C192.433 415.5 193.603 417.55 193.683 419.31C193.783 419.42 195.133 418.47 195.363 418.35C197.883 417.05 200.423 415.78 202.683 414.03C203.023 411.64 202.443 409.22 202.323 406.83C199.873 409.01 197.093 410.48 194.323 412.15C194.113 412.28 194.003 412.55 193.933 412.59H193.923ZM195.603 420.03C195.353 420.18 194.313 420.37 194.203 420.55L194.643 424.35C195.353 424.6 195.733 424.01 196.083 423.87C198.333 422.98 200.703 421.63 202.513 420.1C202.643 419.69 202.513 419.24 202.563 418.83C202.603 418.45 202.543 418.02 202.563 417.63C202.563 417.51 203.293 415.14 202.443 415.47C200.263 417.12 197.943 418.63 195.603 420.03ZM196.323 425.31C196.113 425.43 195.213 425.31 195.113 425.71L195.363 429.39C195.943 429.5 196.333 429.09 196.803 428.91C197.583 428.61 200.693 427.3 201.113 426.86C201.583 426.37 201.683 425.03 201.843 424.35C201.893 424.15 201.803 423.85 201.843 423.63C201.943 423.1 202.673 422.16 202.203 421.47L196.323 425.31ZM197.043 430.34C196.773 430.5 195.643 430.67 195.583 430.98L196.083 434.66C196.693 434.74 197.113 434.13 197.523 433.94C198.083 433.68 199.143 433.45 199.573 432.99C200.003 432.53 199.973 431.86 200.163 431.3C200.263 431 200.313 430.48 200.403 430.1C200.433 429.99 201.513 427.89 200.523 428.18C200.193 428.28 197.963 429.6 197.433 429.9C197.213 430.02 197.113 430.3 197.043 430.34ZM197.523 435.62C196.353 436.23 196.113 435.24 196.323 437.78C196.473 437.95 197.493 437.13 197.523 437.06C197.993 437.07 198.033 437.56 198.293 437C198.383 436.81 199.313 434.52 198.843 434.67C198.353 434.77 197.763 435.5 197.523 435.63V435.62ZM196.323 441.62C197.183 440.57 197.723 438.88 197.993 437.54C196.013 438.55 196.213 439.58 196.323 441.62Z" fill="#060606"/>
<path d="M158.893 476.18C154.703 478.88 150.083 479.98 145.173 478.75C137.383 476.8 135.853 466.98 139.093 460.57C140.003 458.77 140.173 459.1 140.713 456.91C140.903 456.16 142.313 454.72 143.123 454.86C143.503 454.93 143.823 455.4 144.323 455.27C144.683 455.18 145.103 454.54 145.453 454.34C151.233 451.08 156.183 452.82 160.213 457.7C165.213 463.75 163.723 470.7 158.893 476.18ZM150.013 454.11C149.703 453.78 145.473 455.71 144.993 456.38C145.903 458.76 147.863 455.68 149.763 456.25L150.013 454.1V454.11ZM153.613 454.35L151.213 454.11L150.973 456.27L153.133 456.51L153.613 454.35ZM155.773 458.18C155.943 456.36 157.113 455.32 154.573 454.82L153.873 457.19C154.833 457.69 155.743 458.69 156.493 459.5C156.863 459.9 157.473 461.05 157.693 461.18C158.343 461.57 160.163 461.05 161.053 461.54C161.473 461.11 158.223 457.1 157.573 456.75C157.043 457.32 156.753 458.33 155.773 458.18ZM151.463 468.98L152.383 468.35C152.453 467.99 151.873 467.32 151.653 466.99C150.193 464.69 145.993 459.18 144.143 457.22C143.013 456.02 142.093 455.82 141.973 457.7L151.463 468.98ZM155.533 470.66C158.663 467.92 158.323 464.07 156.113 460.84C154.453 458.41 152.173 457.3 149.193 457.73C148.303 457.86 147.593 458.52 146.653 458.43C146.413 458.65 147.433 459.63 147.613 459.87C148.683 461.33 153.453 466.78 153.603 467.93C153.753 469.08 152.313 470.68 151.283 470.26L142.933 462.52C140.453 467.57 143.313 473.52 149.163 473.8C151.263 473.9 154.603 472.66 155.533 470.67V470.66ZM140.423 472.82C139.943 472.41 142.313 471.4 142.313 470.99C141.333 469.03 140.913 467.27 141.173 465.05C141.273 464.24 142.183 462.15 142.073 461.71C141.953 461.24 140.683 459.56 139.983 460.49C138.633 462.3 138.223 466.17 138.273 468.38C138.753 469.02 140.913 466.1 140.673 467.42C140.433 468.74 138.403 468.57 138.803 470.48C139.233 472.49 141.373 476.01 143.513 476.39L144.923 473.9L142.913 471.88C142.033 472.23 141.503 473.08 140.423 472.82ZM162.013 467.54C162.143 465.81 161.903 464.18 161.533 462.5C160.633 462.93 159.493 463.28 158.533 462.75L159.163 467.04L162.013 467.54ZM161.533 468.99L158.793 468.55C156.733 470.49 159.143 471.24 159.613 473.07C160.823 472.08 161.083 470.4 161.533 468.99ZM159.373 473.31C158.363 473.37 157.813 472.04 157.213 471.73C156.653 471.44 155.473 473.16 154.833 473.45L155.773 476.19C156.073 476.45 159.783 473.87 159.373 473.31ZM147.853 474.74L145.453 474.26C145.633 475.49 144.583 476.12 144.253 477.14L147.363 477.61L147.853 474.74ZM153.833 474.28L152.283 474.73L152.173 477.38C152.713 477.5 154.673 477.05 154.793 476.51L153.833 474.27V474.28ZM150.973 474.99L148.843 475.01L148.103 477.86L151.463 477.62L150.983 474.98L150.973 474.99Z" fill="#060606"/>
<path d="M159.564 356.74C165.294 356.34 176.434 356.53 177.094 364.26C177.254 366.11 176.594 366.93 175.204 368.07C169.734 372.58 151.954 372.71 147.134 367.1C141.064 360.03 154.924 357.06 159.554 356.74H159.564ZM159.084 358.66C155.134 358.94 141.944 362.13 150.184 367.18C153.304 369.09 157.224 369.45 160.804 369.51C163.724 367.19 167.294 365.02 164.374 360.91C162.834 358.74 161.624 358.48 159.094 358.66H159.084Z" fill="#060606"/>
<path d="M145.453 454.34C145.103 454.54 144.673 455.17 144.323 455.27C143.823 455.4 143.503 454.93 143.123 454.86C142.313 454.72 140.893 456.16 140.713 456.91C140.173 459.1 140.003 458.77 139.093 460.57C135.853 466.98 137.383 476.8 145.173 478.75C150.093 479.98 154.703 478.88 158.893 476.18C154.763 480.87 147.073 482.27 141.373 479.18C135.673 476.09 134.003 465.5 137.293 460.45C137.783 459.69 139.153 458.58 139.343 458.17C139.723 457.33 138.703 456.52 139.833 454.84C141.183 452.83 143.693 452.94 145.453 454.34Z" fill="#7B7B7B"/>
<path d="M179.463 461.83C180.363 461.56 182.303 462.4 182.853 463.14C184.933 465.91 180.013 469.83 177.983 466.57C177.173 465.28 178.323 462.16 179.463 461.83ZM179.313 463.24C176.573 467.03 182.273 466.9 181.413 464.34C181.293 464 179.493 463.11 179.313 463.24Z" fill="#060606"/>
<path d="M152.893 382.35C152.893 382.43 152.893 382.51 152.893 382.59C152.893 382.67 152.883 382.75 152.893 382.83L150.973 384.99C150.283 385.04 149.643 385.21 148.943 385.24C148.663 385.25 147.613 385.41 147.613 384.99L152.893 382.11C152.893 382.19 152.893 382.27 152.893 382.35Z" fill="#4C4C4E"/>
<path d="M152.894 382.59C152.894 382.51 152.894 382.43 152.894 382.35H153.134L152.894 382.59Z" fill="#7B7B7B"/>
<path d="M181.203 424.35L180.723 418.59C180.723 418.59 180.943 418.19 181.263 418.06C182.803 417.44 184.413 416.98 185.883 416.2C186.163 416.36 186.153 416.54 186.233 416.8C186.483 417.69 187.133 421.05 187.163 421.89C187.173 422.25 187.063 422.23 186.803 422.38C185.433 423.17 182.793 423.85 181.213 424.35H181.203ZM185.523 419.79C184.873 419.65 181.693 419.79 181.923 420.87C182.143 421.88 186.263 420.46 185.523 419.79Z" fill="#7B7B7B"/>
<path d="M181.203 437.06C182.103 436.74 188.593 433.88 188.883 434.18C188.543 435.3 189.583 437.49 188.573 438.07C186.623 439.19 183.143 440.12 180.963 440.9L181.203 437.06ZM186.183 435.69C185.433 435.79 182.783 436.46 183.473 437.55C184.243 438.78 189.393 436.71 187.933 435.74C187.363 435.51 186.773 435.61 186.193 435.69H186.183Z" fill="#7B7B7B"/>
<path d="M181.443 431.3C182.263 431.02 187.853 428.63 188.163 428.9L188.623 432.35C186.353 433.62 183.693 434.31 181.203 435.14L181.443 431.3ZM187.203 431.55C186.893 431.09 183.673 431.54 183.413 432.42C183.073 434.26 187.923 432.62 187.203 431.55Z" fill="#7B7B7B"/>
<path d="M187.443 444.74C187.253 444.15 189.283 443.46 189.363 443.54L189.123 446.78C186.143 448.15 183.123 449.48 180.003 450.5L180.243 447.62C181.373 447.17 182.613 446.81 183.603 446.42C183.603 449.19 189.103 445.84 188.163 444.74C187.923 444.74 187.683 444.74 187.443 444.74Z" fill="#7B7B7B"/>
<path d="M180.003 412.59C180.693 412.35 184.733 410.62 185.043 410.91L185.783 414.6C184.073 415.42 182.273 416.03 180.493 416.67L180.013 412.59H180.003ZM184.553 414.49C185.013 412.99 182.453 413.95 181.853 414.31C181.513 414.51 181.313 414.66 181.453 415.1C181.753 416.09 183.983 414.54 184.563 414.49H184.553Z" fill="#7B7B7B"/>
<path d="M180.723 418.59L181.203 424.35C180.813 424.47 178.083 425.78 178.083 424.95V419.91C178.083 419.82 177.753 419.56 177.843 419.31C178.043 419.11 180.363 418.73 180.723 418.59Z" fill="#4C4C4E"/>
<path d="M181.203 426.27C181.973 426 187.193 423.65 187.443 423.87L187.903 427.69C185.623 428.27 183.473 429.22 181.213 429.87V426.27H181.203ZM186.723 425.79C185.723 425.06 181.463 426.29 181.733 427.55C181.963 428.63 183.993 427.73 184.693 427.47C185.523 427.16 186.893 426.9 186.723 425.79Z" fill="#7B7B7B"/>
<path d="M188.643 442.34L188.253 441.17C187.073 440.77 183.003 442.15 183.953 443.55C184.133 443.82 184.533 443.76 184.813 443.77C184.943 444.39 184.513 444.26 184.153 444.42C182.943 444.95 181.713 445.25 180.493 445.69L180.733 443.05C183.493 441.89 186.263 440.67 189.013 439.45C189.013 440.15 189.633 441.81 189.133 442.22C188.993 442.33 188.753 442.28 188.653 442.33L188.643 442.34Z" fill="#7B7B7B"/>
<path d="M179.043 407.55C180.523 406.99 182.003 406.43 183.483 405.89L184.303 409.22C184.163 409.29 183.923 409.19 183.843 409.22C183.793 407.86 180.303 408.72 180.483 409.58C180.743 409.97 181.033 409.93 181.443 409.94C181.623 410.59 180.153 410.7 179.523 410.9L179.043 407.54V407.55Z" fill="#7B7B7B"/>
<path d="M178.083 402.99C179.513 402.43 180.934 401.78 182.404 401.31C182.424 402.15 183.623 404.19 182.893 404.79C182.423 405.18 179.394 405.85 178.574 406.11L178.094 402.99H178.083ZM182.404 403.71C181.784 403.74 179.193 403.68 179.523 404.79C179.763 405.6 183.184 404.45 182.404 403.71Z" fill="#7B7B7B"/>
<path d="M181.443 431.3L181.203 435.14C180.313 435.44 179.353 436.11 178.323 436.1V432.02C179.293 431.81 180.523 431.61 181.443 431.3Z" fill="#4C4C4E"/>
<path d="M179.523 452.42C182.703 451.12 185.793 449.21 188.863 447.96C189.213 447.82 189.563 447.82 189.363 448.22C189.233 448.47 186.843 450.27 186.403 450.54C184.333 451.82 181.573 452.75 179.283 453.62L179.523 452.42Z" fill="#7B7B7B"/>
<path d="M180.004 412.59L180.484 416.67C180.084 416.82 178.014 417.8 177.844 417.63L177.394 413.34C177.534 413.12 179.584 412.74 180.004 412.59Z" fill="#4C4C4E"/>
<path d="M181.203 437.06L180.963 440.9C180.153 441.19 179.293 441.93 178.323 441.86V437.78C179.273 437.62 180.303 437.38 181.203 437.06Z" fill="#4C4C4E"/>
<path d="M171.373 379.95C170.453 381.99 173.323 380.82 174.253 380.67C174.503 380.93 175.213 382.1 174.973 382.35C173.543 382.61 172.093 382.69 170.653 382.83C170.563 381.33 169.043 380.37 168.253 379.23C169.343 379.43 170.343 379.71 171.373 379.95Z" fill="#7B7B7B"/>
<path d="M181.203 426.27V429.87C180.263 430.14 179.313 430.49 178.323 430.59V426.99C179.193 426.77 180.393 426.56 181.203 426.27Z" fill="#4C4C4E"/>
<path d="M179.043 407.55L179.523 410.91C178.733 411.16 177.933 411.44 177.123 411.63L176.673 408.3C176.763 408.17 178.653 407.7 179.043 407.55Z" fill="#4C4C4E"/>
<path d="M188.643 442.34C187.533 442.89 186.033 443.85 184.803 443.78C184.523 443.76 184.133 443.83 183.943 443.56C182.993 442.16 187.063 440.77 188.243 441.18L188.633 442.35L188.643 442.34Z" fill="#FEFEFE"/>
<path d="M171.613 383.79C172.923 383.55 174.243 383.31 175.553 383.05C175.843 383.07 175.643 383.45 175.693 383.55C175.143 383.46 172.413 384.12 172.573 384.86C172.853 386.15 175.483 384.99 176.173 384.51C176.253 384.69 177.033 385.85 176.893 385.95C175.453 386.14 174.023 386.29 172.573 386.43L171.613 383.79Z" fill="#7B7B7B"/>
<path d="M178.083 402.99L178.563 406.11C178.163 406.23 176.783 407.08 176.413 406.82L175.963 403.74C176.613 403.37 177.423 403.24 178.083 402.98V402.99Z" fill="#4C4C4E"/>
<path d="M187.444 444.74C187.684 444.74 187.924 444.74 188.164 444.74C189.104 445.84 183.594 449.18 183.604 446.42C184.774 445.96 185.734 444.76 187.444 444.74Z" fill="#FEFEFE"/>
<path d="M180.723 443.06L180.483 445.7C180.133 445.82 178.223 446.81 178.083 446.66C177.723 443.19 178.423 444.03 180.723 443.06Z" fill="#4C4C4E"/>
<path d="M180.244 395.55C179.824 395.62 177.644 395.4 177.604 395.67C177.414 397.06 179.464 396.38 180.244 396.27C180.194 396.39 180.394 396.63 180.074 396.75C179.084 397.11 177.654 397.21 176.644 397.47L176.164 395.31C177.374 394.95 178.614 394.62 179.854 394.37C180.384 394.53 180.184 395.19 180.244 395.55Z" fill="#7B7B7B"/>
<path d="M180.243 447.62L180.003 450.5C179.383 450.7 178.573 451.14 177.953 451.22C177.433 451.28 177.583 451.02 177.603 450.63C177.633 449.9 177.983 449.14 177.873 448.38C178.003 448.19 179.873 447.77 180.243 447.63V447.62Z" fill="#4C4C4E"/>
<path d="M177.843 388.59C176.783 388.39 174.123 388.06 174.483 389.79C174.403 389.8 174.223 390 174.003 390.03L173.283 387.87C175.073 387.51 177.523 386.04 177.843 388.59Z" fill="#7B7B7B"/>
<path d="M168.253 379.23C169.043 380.37 170.563 381.33 170.653 382.83C170.553 382.84 170.293 383.12 169.823 383.1C168.783 383.05 168.983 382.22 168.533 381.47C168.003 380.58 167.483 379.67 166.813 378.87C167.263 378.74 167.893 379.17 168.243 379.23H168.253Z" fill="#4C4C4E"/>
<path d="M176.643 397.47C176.143 397.6 174.953 398.35 174.393 398.17L173.533 396.14C173.503 396.01 175.843 395.4 176.163 395.31L176.643 397.47Z" fill="#4C4C4E"/>
<path d="M174.723 391.47L175.203 393.87C174.743 393.96 173.413 394.58 173.063 394.33C172.943 393.64 172.493 392.92 172.353 392.28C172.243 391.79 172.383 392.03 172.673 391.95C173.333 391.77 174.053 391.63 174.723 391.48V391.47Z" fill="#4C4C4E"/>
<path d="M171.613 383.79L172.573 386.43C172.063 386.48 171.173 386.94 170.443 386.64L169.703 384.03C170.323 383.95 171.013 383.9 171.623 383.79H171.613Z" fill="#4C4C4E"/>
<path d="M175.923 391.23C174.963 393.75 178.073 392.23 179.283 392.19C179.363 392.41 179.583 392.61 179.523 392.91C178.103 393.35 176.653 393.58 175.203 393.87L174.723 391.47C175.133 391.37 175.513 391.3 175.923 391.23Z" fill="#7B7B7B"/>
<path d="M173.293 387.87L174.013 390.03C173.223 390.14 172.453 390.4 171.633 390.24L171.133 388.11C171.803 387.87 172.693 387.99 173.293 387.87Z" fill="#4C4C4E"/>
<path d="M177.363 399.39L177.603 401.07C177.303 401.18 175.443 402.28 175.203 402.03L174.983 399.89C175.063 399.8 176.993 399.51 177.363 399.39Z" fill="#4C4C4E"/>
<path d="M177.363 399.39C178.653 398.98 179.983 398.13 181.443 398.19C181.493 398.41 181.393 398.73 181.443 398.91C180.833 398.91 177.803 399.23 179.283 400.35C178.483 400.78 178.613 400.7 177.603 401.07L177.363 399.39Z" fill="#7B7B7B"/>
<path d="M177.843 390.99C178.163 390.99 178.483 390.99 178.803 390.99C178.963 391.38 179.133 391.79 179.283 392.19C178.073 392.23 174.963 393.75 175.923 391.23C176.643 391.11 177.063 391 177.843 390.99Z" fill="#FEFEFE"/>
<path d="M175.683 383.55C175.913 383.95 175.973 384.1 176.163 384.51C175.473 384.99 172.853 386.15 172.563 384.86C172.403 384.12 175.123 383.45 175.683 383.55Z" fill="#FEFEFE"/>
<path d="M177.843 388.59C177.853 388.68 178.033 388.81 178.043 388.95C177.933 389.55 175.053 389.69 174.483 389.79C174.123 388.06 176.783 388.39 177.843 388.59Z" fill="#FEFEFE"/>
<path d="M181.443 409.95C181.033 409.95 180.743 409.98 180.483 409.59C180.303 408.73 183.783 407.87 183.843 409.23C183.123 409.56 182.253 409.97 181.443 409.95Z" fill="#FEFEFE"/>
<path d="M181.443 398.91C181.513 399.16 181.873 399.44 181.663 399.85C181.193 400.26 179.513 400.23 179.283 400.35C177.803 399.23 180.833 398.9 181.443 398.91Z" fill="#FEFEFE"/>
<path d="M174.244 380.67C173.314 380.82 170.444 381.99 171.364 379.95C172.384 380.18 173.374 379.75 174.244 380.67Z" fill="#FEFEFE"/>
<path d="M179.523 452.42L179.283 453.62C178.963 453.74 177.463 454.44 177.363 454.34C177.023 452.58 178.383 452.89 179.523 452.42Z" fill="#4C4C4E"/>
<path d="M180.243 395.55C180.303 395.92 180.533 395.56 180.243 396.27C179.463 396.38 177.413 397.06 177.603 395.67C177.643 395.4 179.823 395.62 180.243 395.55Z" fill="#FEFEFE"/>
<path d="M177.843 390.99V390.51L178.673 390.5C178.933 390.55 178.753 390.87 178.803 390.99C178.483 390.99 178.163 390.99 177.843 390.99Z" fill="#7B7B7B"/>
<path d="M139.703 407.55C144.763 406.52 149.843 405.57 154.933 404.66C155.433 404.61 155.243 404.69 155.293 405.02C155.373 405.55 155.403 407.9 155.053 408.15C150.013 409.58 144.893 410.51 139.693 411.14V407.54L139.703 407.55ZM152.653 406.11C151.713 405.49 147.223 406.97 148.113 408.25C148.533 408.86 153.083 407.64 152.653 406.11Z" fill="#7B7B7B"/>
<path d="M142.583 427.22C146.833 426.74 151.073 426.19 155.303 425.54C155.053 426.54 155.274 430.51 154.594 430.95C151.164 431.4 147.724 431.67 144.264 431.78L142.583 427.22ZM150.913 427.77C148.593 428.1 147.214 429.94 150.854 429.62C153.774 429.37 154.233 427.29 150.913 427.77Z" fill="#7B7B7B"/>
<path d="M141.143 422.19C145.983 421.41 150.773 420.47 155.533 419.31L155.293 423.87C151.493 424.39 147.713 425.15 143.893 425.55C143.223 425.62 142.523 425.49 141.853 425.55L141.133 422.19H141.143ZM154.313 421.25C153.913 420.68 151.853 421.44 151.293 421.66C150.413 422.01 149.003 422.49 149.293 423.62C150.273 424 155.343 422.72 154.313 421.24V421.25Z" fill="#7B7B7B"/>
<path d="M139.703 413.07C145.043 412.34 150.263 411.27 155.533 410.19L155.393 413.34C150.293 414.64 145.153 415.93 139.933 416.67L139.693 413.07H139.703ZM148.573 413.54C149.663 413.87 154.143 413.2 153.593 411.53C153.313 410.69 149.703 411.94 149.123 412.29C148.543 412.64 148.513 412.84 148.573 413.54Z" fill="#7B7B7B"/>
<path d="M152.174 400.59C152.034 399.83 152.544 400.18 152.994 400.11C153.674 400 154.344 399.79 155.054 399.87V402.75C150.004 403.6 144.924 404.5 139.934 405.63L140.414 402.03C143.464 401.57 147.004 400.83 150.014 400.59C150.164 401.3 149.654 401.01 149.254 401.13C148.714 401.29 148.194 401.52 147.634 401.56C147.614 401.86 147.554 402.27 147.724 402.52C148.204 403.22 153.804 402.69 153.134 400.59C152.814 400.59 152.494 400.59 152.174 400.59Z" fill="#7B7B7B"/>
<path d="M153.614 415.23C154.244 415.08 154.854 414.71 155.534 414.75L155.304 417.75C152.274 418.45 149.274 419.33 146.224 419.95C144.364 420.33 142.524 420.47 140.664 420.74L140.184 417.86C143.234 417.4 146.284 416.82 149.304 416.18C149.284 416.96 148.114 416.83 148.684 417.88C149.364 418.84 154.534 417.37 153.624 415.22L153.614 415.23Z" fill="#7B7B7B"/>
<path d="M152.653 395.79C152.973 395.74 154.653 395.14 154.813 395.31L155.053 397.95C150.503 398.71 145.943 399.43 141.373 400.11C141.303 398.99 142.113 398.06 142.333 396.99C144.413 396.74 146.493 396.54 148.573 396.27C148.723 396.97 147.603 396.77 147.853 397.59C148.223 398.81 153.753 397.85 152.653 395.79Z" fill="#7B7B7B"/>
<path d="M152.893 390.51C153.053 390.51 153.803 389.88 154.233 390.5C154.443 390.8 154.393 392.79 154.563 393.37C150.933 394.16 147.203 394.54 143.543 395.07L145.943 390.99C146.573 390.94 147.233 391.04 147.863 390.99C146.203 393.46 151.443 392.12 152.363 391.53C152.813 391.24 152.983 391.1 152.903 390.51H152.893Z" fill="#7B7B7B"/>
<path d="M145.453 433.22C148.483 432.99 151.563 433.03 154.573 432.5L153.953 436.12C151.793 436.68 149.573 436.78 147.383 437.05L145.463 433.21L145.453 433.22ZM153.593 433.97C153.203 433.42 149.993 434.3 149.443 434.69C146.863 436.52 155.073 436.08 153.593 433.97Z" fill="#7B7B7B"/>
<path d="M145.933 390.99L143.533 395.07C142.113 395.28 140.683 395.8 139.213 395.79C138.893 395.48 141.213 391.72 141.773 391.27C143.173 391.27 144.553 391.11 145.933 390.99Z" fill="#4C4C4E"/>
<path d="M140.423 402.03L139.943 405.63C138.973 405.85 137.713 406.49 136.683 406.57C136.293 406.6 136.063 406.77 136.123 406.25C136.183 405.73 136.703 402.73 136.893 402.57C138.043 402.22 139.253 402.21 140.433 402.03H140.423Z" fill="#4C4C4E"/>
<path d="M142.584 427.22L144.264 431.78C143.714 431.8 141.594 432.04 141.384 431.91L139.494 427.79C139.384 427.3 139.534 427.52 139.834 427.47C140.744 427.31 141.684 427.32 142.584 427.22Z" fill="#4C4C4E"/>
<path d="M148.573 438.5C148.633 439.37 149.573 439.5 149.773 439.7C149.813 439.74 149.743 439.87 149.773 439.94C150.203 440.77 150.493 441.65 151.213 442.34C151.163 442.34 151.023 442.54 150.833 442.56C149.983 442.67 149.093 442.52 148.253 442.79L145.213 438.74C146.263 438.66 147.543 438.64 148.573 438.5Z" fill="#4C4C4E"/>
<path d="M145.454 433.22L147.374 437.06C146.574 437.16 144.964 437.85 144.254 437.42C144.064 437.31 142.204 434.16 142.104 433.81C141.974 433.36 142.174 433.49 142.454 433.46C143.374 433.35 144.504 433.29 145.454 433.22Z" fill="#4C4C4E"/>
<path d="M139.703 407.55V411.15C138.433 411.3 137.163 411.66 135.863 411.63V408.27C137.113 407.92 138.433 407.81 139.703 407.55Z" fill="#4C4C4E"/>
<path d="M139.703 413.07L139.943 416.67C138.753 416.84 137.533 416.9 136.343 417.15L136.243 413.52C137.373 413.26 138.553 413.22 139.703 413.07Z" fill="#4C4C4E"/>
<path d="M142.344 396.99C142.124 398.06 141.314 398.99 141.384 400.11C140.174 400.29 138.894 400.76 137.664 400.83C137.154 400.86 137.264 400.69 137.354 400.28C137.434 399.92 138.214 397.62 138.324 397.53C138.624 397.27 141.594 397.08 142.344 396.99Z" fill="#4C4C4E"/>
<path d="M149.774 386.19L149.534 386.67C148.464 386.82 148.714 387.69 148.574 387.87C148.224 388.34 147.414 388.9 147.134 389.55C146.054 389.64 144.674 389.87 143.654 389.79C143.294 389.76 142.964 389.98 143.064 389.43C143.144 389.24 145.764 386.64 145.944 386.55C146.364 386.36 149.034 386.24 149.774 386.19Z" fill="#4C4C4E"/>
<path d="M141.143 422.19L141.863 425.55C141.863 425.55 141.603 425.77 141.283 425.8C140.833 425.84 138.933 426.06 138.733 425.93L137.543 422.79C138.723 422.51 139.943 422.39 141.143 422.19Z" fill="#4C4C4E"/>
<path d="M140.184 417.87L140.663 420.75C140.113 420.83 137.594 421.61 137.294 421.37L136.583 418.49C136.613 418.12 139.574 417.96 140.184 417.87Z" fill="#4C4C4E"/>
<path d="M149.773 386.19C151.043 386.1 152.343 386.12 153.613 385.95L153.843 388.82C151.613 389.11 149.373 389.37 147.133 389.55C147.413 388.9 148.223 388.34 148.573 387.87C149.133 388.65 152.953 388.55 153.133 387.74C153.163 387.4 152.773 387.04 152.483 386.96C152.283 386.9 149.733 386.64 149.533 386.67L149.773 386.19Z" fill="#7B7B7B"/>
<path d="M153.613 415.23C154.533 417.38 149.363 418.85 148.673 417.89C148.103 416.84 149.263 416.97 149.293 416.19C150.733 415.89 152.183 415.57 153.613 415.23Z" fill="#FEFEFE"/>
<path d="M152.173 400.59C152.493 400.59 152.813 400.59 153.133 400.59C153.803 402.69 148.203 403.22 147.723 402.52C147.553 402.27 147.603 401.86 147.633 401.56C148.203 401.52 148.723 401.29 149.253 401.13C149.663 401.01 150.163 401.3 150.013 400.59C150.693 400.54 151.483 400.58 152.173 400.59Z" fill="#FEFEFE"/>
<path d="M152.653 395.79C153.763 397.84 148.233 398.81 147.853 397.59C147.603 396.77 148.723 396.97 148.573 396.27C149.923 396.09 151.313 395.99 152.653 395.79Z" fill="#FEFEFE"/>
<path d="M152.893 390.51C152.973 391.09 152.803 391.24 152.353 391.53C151.443 392.12 146.193 393.46 147.853 390.99C149.603 390.84 151.043 390.58 152.893 390.51Z" fill="#FEFEFE"/>
<path d="M153.373 438.98C153.133 440.09 153.063 441.24 152.623 442.31C152.173 442.44 151.663 442.28 151.213 442.34C150.493 441.65 150.203 440.77 149.773 439.94C151.213 440.24 152.103 439.34 153.373 438.98Z" fill="#7B7B7B"/>
<path d="M153.373 438.02H153.613C153.533 438.29 153.433 438.71 153.373 438.98C152.103 439.34 151.223 440.24 149.773 439.94C149.743 439.87 149.813 439.74 149.773 439.7C149.943 438.51 151.653 438.67 152.413 438.02C152.733 438.02 153.053 438.02 153.373 438.02Z" fill="#FEFEFE"/>
<path d="M152.173 444.03L151.453 446.43L149.533 444.39C150.343 443.98 151.283 444 152.173 444.03Z" fill="#4C4C4E"/>
<path d="M152.413 438.02C151.653 438.67 149.953 438.51 149.773 439.7C149.573 439.5 148.633 439.37 148.573 438.5C150.033 438.29 150.883 437.98 152.413 438.02Z" fill="#7B7B7B"/>
<path d="M152.893 382.83C152.933 383.15 153.543 384.83 153.373 384.99C152.583 385.03 151.763 384.93 150.973 384.99L152.893 382.83Z" fill="#7B7B7B"/>
<path d="M153.374 438.02V437.54C154.304 437.46 153.664 437.84 153.614 438.02H153.374Z" fill="#7B7B7B"/>
<path d="M163.693 423.63C166.333 422.94 168.993 422.27 171.613 421.47L171.873 427.32C169.073 428.34 166.143 428.86 163.223 429.39L163.703 423.63H163.693ZM168.913 424.16C167.993 424.29 165.303 425.15 166.313 426.41C167.653 428.07 172.923 423.58 168.913 424.16Z" fill="#7B7B7B"/>
<path d="M161.293 442.58C164.653 441.81 167.993 440.88 171.373 440.18L171.153 444.36C167.653 445.67 163.963 446.36 160.343 447.15L161.303 442.59L161.293 442.58ZM170.613 441.9C170.183 441.2 166.643 442.19 166.083 442.7C165.863 442.91 165.773 443.08 165.873 443.38C166.233 444.77 169.703 443.47 170.603 443.02V441.9H170.613Z" fill="#7B7B7B"/>
<path d="M162.493 436.1C165.613 435.41 168.763 434.78 171.853 433.94L171.623 438.1C171.503 438.6 162.923 440.44 161.773 440.66C162.063 439.16 162.563 437.65 162.493 436.1ZM171.133 435.39C169.243 435.26 167.503 436.22 165.763 436.81L165.643 437.77C166.313 438.6 171.983 437.64 171.133 435.39Z" fill="#7B7B7B"/>
<path d="M163.934 417.39C164.294 417.29 164.844 416.94 165.374 416.79C167.354 416.23 169.374 415.74 171.364 415.23L171.614 419.63C171.514 420.03 164.654 421.73 163.684 421.95L163.924 417.39H163.934ZM169.374 416.46C168.704 416.92 165.614 417.85 166.444 419.08C167.034 419.96 171.454 417.29 169.374 416.46Z" fill="#7B7B7B"/>
<path d="M162.973 431.3C165.943 430.7 168.853 429.67 171.853 429.14V432.5C168.963 433.44 165.953 433.86 162.973 434.42C162.613 433.61 163.193 432.32 162.973 431.3ZM170.883 430.59C170.633 430.34 166.273 431.52 167.043 432.99C168.503 433.16 171.033 432.36 170.883 430.59Z" fill="#7B7B7B"/>
<path d="M170.414 446.66C170.414 446.66 170.594 446.32 170.894 446.42L170.494 449.07C168.494 449.16 165.914 450.58 164.024 450.66C162.594 450.71 160.654 449.58 159.144 449.54C159.274 449.15 160.234 449.08 160.624 448.99C162.664 448.49 164.784 448.14 166.814 447.63C167.184 449.51 170.924 448.37 170.414 446.67V446.66Z" fill="#7B7B7B"/>
<path d="M163.934 412.35C164.764 412.09 170.394 410.17 170.654 410.43L171.134 413.41C171.094 413.78 164.754 415.27 163.934 415.47V412.35ZM169.154 411.19C168.434 411.28 165.814 412.48 166.094 413.42C167.464 415.13 172.164 410.81 169.154 411.19Z" fill="#7B7B7B"/>
<path d="M157.453 380.91C158.443 380.57 162.413 379.82 163.093 380.43C163.363 380.67 164.573 383.61 164.413 383.79C162.703 383.91 160.803 384.4 159.133 384.51C158.713 383.27 158.263 381.95 157.453 380.91ZM161.723 381.44C161.203 381.5 159.563 382.02 159.403 382.5C158.703 384.63 163.063 382.85 162.733 381.75C162.433 381.3 162.173 381.39 161.723 381.44Z" fill="#7B7B7B"/>
<path d="M163.693 407.79C165.643 407.15 167.593 406.49 169.553 405.88C169.943 405.96 170.383 408.76 170.023 409.02C167.983 409.59 165.973 410.34 163.933 410.91L163.693 407.79ZM168.973 406.83C167.743 406.68 166.743 407.43 165.643 407.82C165.513 408.48 165.553 409.04 166.343 408.9C166.883 408.8 169.683 407.53 168.973 406.84V406.83Z" fill="#7B7B7B"/>
<path d="M163.693 423.63L163.213 429.39C162.423 429.53 161.513 430.09 160.573 429.87L160.803 424.51C160.873 424.21 163.193 423.76 163.693 423.63Z" fill="#4C4C4E"/>
<path d="M162.493 436.1C162.563 437.65 162.063 439.16 161.773 440.66C160.823 440.84 159.863 441.07 158.893 441.14C158.743 440.99 159.283 437.34 159.413 436.98C159.603 436.43 161.833 436.25 162.493 436.1Z" fill="#4C4C4E"/>
<path d="M161.293 442.58L160.333 447.14C159.883 447.24 157.753 448.15 157.453 447.86L158.583 443.06C159.433 442.77 160.453 442.78 161.283 442.58H161.293Z" fill="#4C4C4E"/>
<path d="M163.933 417.39L163.693 421.95C162.823 422.14 161.973 422.5 161.053 422.43V417.87C161.873 417.66 163.193 417.59 163.933 417.39Z" fill="#4C4C4E"/>
<path d="M164.173 389.07C164.123 389.95 162.873 389.79 162.953 390.86C163.093 392.6 165.773 390.32 166.093 389.55C166.333 390.1 166.843 390.7 166.813 391.47C164.803 391.73 162.833 392.22 160.813 392.43L160.573 389.55C161.773 389.37 162.963 389.19 164.173 389.07Z" fill="#7B7B7B"/>
<path d="M169.213 402.51C169.333 402.98 169.593 403.77 169.213 404.07C168.853 404.35 165.413 405.3 164.653 405.52C164.213 405.65 163.723 405.55 163.453 405.63L163.213 402.99C163.863 402.84 164.433 402.86 164.893 402.75C165.633 404.72 167.953 402.81 169.213 402.51Z" fill="#7B7B7B"/>
<path d="M166.093 397.71L165.163 398.83C165.003 400.99 167.413 399.12 168.253 398.43C168.363 398.86 168.693 399.27 168.483 399.86C166.543 400.13 164.653 400.69 162.733 401.07L162.253 398.43C163.513 398.15 164.823 397.94 166.093 397.71Z" fill="#7B7B7B"/>
<path d="M162.973 431.3C163.193 432.32 162.613 433.61 162.973 434.42C162.053 434.59 160.973 435.09 159.973 435.14L160.363 431.57C161.163 431.44 162.193 431.45 162.963 431.3H162.973Z" fill="#4C4C4E"/>
<path d="M161.533 385.23C160.633 387.74 163.883 386.65 165.133 385.95C165.303 386.45 166.093 387.15 165.213 387.59C163.503 387.72 161.803 387.94 160.093 388.11L159.613 385.47C160.253 385.39 160.893 385.31 161.533 385.23Z" fill="#7B7B7B"/>
<path d="M164.173 393.87C163.163 396.7 166.053 395.32 167.053 394.11C167.063 394.13 167.373 394.01 167.523 394.29C167.653 394.55 167.643 395.2 167.773 395.55C165.783 395.94 163.783 396.46 161.773 396.75L161.533 394.35C162.443 394.16 163.253 394.02 164.173 393.87Z" fill="#7B7B7B"/>
<path d="M163.693 407.79L163.933 410.91C163.493 411.04 160.953 411.76 160.813 411.63L160.833 408.53C160.933 408.42 163.273 407.92 163.683 407.79H163.693Z" fill="#4C4C4E"/>
<path d="M163.933 412.35V415.47C163.483 415.58 161.213 416.36 161.053 416.19L161.033 413.22C161.093 413 163.463 412.5 163.923 412.35H163.933Z" fill="#4C4C4E"/>
<path d="M163.213 402.99L163.453 405.63C163.073 405.74 161.023 406.78 160.813 406.59L160.593 403.49C161.443 403.27 162.353 403.19 163.203 402.99H163.213Z" fill="#4C4C4E"/>
<path d="M162.254 398.43L162.734 401.07C161.934 401.23 161.144 401.44 160.334 401.55L160.124 398.94C160.814 398.7 161.544 398.59 162.254 398.43Z" fill="#4C4C4E"/>
<path d="M161.533 385.23C162.613 385.1 163.673 384.91 164.743 384.73C165.083 384.8 165.043 385.69 165.133 385.95C163.893 386.65 160.633 387.74 161.533 385.23Z" fill="#FEFEFE"/>
<path d="M164.894 402.75C164.894 402.75 165.124 402.44 165.364 402.38C166.524 402.12 167.704 401.94 168.834 401.54C169.054 401.56 169.154 402.26 169.214 402.5C167.954 402.8 165.634 404.71 164.894 402.74V402.75Z" fill="#FEFEFE"/>
<path d="M164.173 389.07C164.823 389.01 165.443 388.86 166.093 388.83C166.143 389.04 166.033 389.41 166.093 389.55C165.773 390.32 163.093 392.61 162.953 390.86C162.863 389.78 164.123 389.94 164.173 389.07Z" fill="#FEFEFE"/>
<path d="M168.253 398.43C167.423 399.12 165.003 400.99 165.163 398.83L166.093 397.71C166.723 397.6 167.273 397.47 167.873 397.24C168.413 397.49 168.163 398.06 168.253 398.43Z" fill="#FEFEFE"/>
<path d="M161.534 394.35L161.774 396.75C161.404 396.8 160.004 397.06 159.874 396.97L159.644 394.62C160.224 394.36 160.994 394.47 161.534 394.35Z" fill="#4C4C4E"/>
<path d="M170.413 446.66C170.923 448.36 167.183 449.5 166.813 447.62C168.123 447.29 168.923 446.91 170.413 446.66Z" fill="#FEFEFE"/>
<path d="M160.573 389.55L160.813 392.43C160.353 392.48 159.513 392.86 159.243 392.44C159.293 391.75 158.563 389.82 159.293 389.59C159.703 389.46 160.183 389.61 160.573 389.55Z" fill="#4C4C4E"/>
<path d="M164.173 393.87C165.123 393.72 165.943 393.3 166.923 393.38C167.203 393.46 166.983 393.99 167.053 394.11C166.053 395.32 163.173 396.7 164.173 393.87Z" fill="#FEFEFE"/>
<path d="M157.453 380.91C158.263 381.95 158.713 383.27 159.133 384.51C158.813 384.53 157.843 384.63 157.663 384.37C157.583 383.36 156.843 382.18 156.743 381.26C156.673 380.62 157.123 381.02 157.453 380.91Z" fill="#4C4C4E"/>
<path d="M159.613 385.47L160.093 388.11C159.603 388.16 159.153 388.34 158.663 388.35L158.173 385.47C158.643 385.43 159.163 385.53 159.613 385.47Z" fill="#4C4C4E"/>
<path d="M170.403 450.75L170.413 451.7L167.533 451.46L170.403 450.75Z" fill="#7B7B7B"/>
<path d="M195.363 418.35L193.923 412.59C193.993 412.55 194.103 412.28 194.313 412.15C197.083 410.48 199.873 409.01 202.313 406.83C202.443 409.22 203.013 411.64 202.673 414.03C200.413 415.78 197.873 417.05 195.353 418.35H195.363ZM201.593 409.23C201.253 409.22 200.913 409.19 200.573 409.29C199.933 409.48 197.093 412.07 197.273 412.7C197.733 414.29 202.203 410.59 201.593 409.23Z" fill="#7B7B7B"/>
<path d="M192.243 405.87L191.283 402.75C191.343 402.72 191.453 402.42 191.673 402.31C194.123 401.04 196.583 399.85 198.843 398.24C199.453 398.75 200.713 400.87 200.283 401.55C199.603 402.65 193.693 405.26 192.243 405.87ZM197.763 400.11C197.243 399.58 193.953 401.88 194.403 402.99C195.503 403.63 198.393 400.76 197.763 400.11Z" fill="#7B7B7B"/>
<path d="M199.443 403.95C199.563 403.86 200.163 402.26 201.123 402.51C201.113 403.57 202.323 405.3 201.623 406.25C201.233 406.77 197.353 409.03 196.493 409.51C195.583 410.02 194.623 410.44 193.693 410.91L192.733 407.55L197.533 405.15C196.963 405.7 195.143 407.66 196.913 407.55C197.513 407.51 201.073 404.78 199.453 403.95H199.443Z" fill="#7B7B7B"/>
<path d="M191.044 401.31C190.124 400.71 190.234 399.31 189.604 398.43C189.724 398.37 190.014 397.95 190.474 397.74C191.034 397.48 191.614 397.25 192.244 397.23C191.744 397.8 190.984 398.75 192.344 398.67C192.934 398.63 196.234 396.87 194.644 396.03C194.664 396.02 194.594 395.67 194.804 395.55C195.194 395.34 196.214 394.78 196.554 394.94C196.984 395.15 198.494 397.16 198.134 397.72C197.754 398.31 192.114 400.84 191.044 401.32V401.31Z" fill="#7B7B7B"/>
<path d="M195.604 420.03C197.954 418.64 200.264 417.13 202.444 415.47C203.294 415.13 202.564 417.51 202.564 417.63C201.384 417.13 197.284 420.25 198.244 421.23L199.504 421.17L202.564 418.83C202.514 419.23 202.654 419.69 202.514 420.1C200.704 421.63 198.324 422.98 196.084 423.87L195.604 420.03Z" fill="#7B7B7B"/>
<path d="M201.843 423.63C200.953 422.78 198.143 423.87 198.223 425.19C198.323 426.93 201.203 424.7 201.843 424.35C201.683 425.03 201.593 426.37 201.113 426.86C200.693 427.3 197.573 428.61 196.803 428.91L196.323 425.31L202.203 421.47C202.673 422.16 201.933 423.1 201.843 423.63Z" fill="#7B7B7B"/>
<path d="M193.923 412.59L195.363 418.35C195.143 418.47 193.793 419.42 193.683 419.31C193.603 417.55 192.433 415.5 192.283 413.84C192.193 412.81 193.373 412.92 193.923 412.59Z" fill="#4C4C4E"/>
<path d="M192.003 390.27C192.763 390.53 193.743 391.28 193.683 392.19C191.673 392.78 189.703 393.53 187.683 394.11L186.963 391.95C187.413 391.78 187.983 391.79 188.163 391.71C188.233 393.08 189.973 391.88 190.543 391.57C190.943 391.35 192.023 390.83 192.003 390.27Z" fill="#7B7B7B"/>
<path d="M185.043 388.35C185.903 387.96 186.913 387.31 187.833 386.92C188.333 386.75 188.113 387.33 188.163 387.39C187.453 388.01 186.163 388.38 186.243 389.55C187.413 389.68 188.613 388.98 189.363 388.11C189.923 388.5 190.973 388.69 191.283 389.55C189.963 389.74 188.763 390.32 187.493 390.69C187.143 390.79 186.723 390.69 186.483 390.75L185.043 388.35Z" fill="#7B7B7B"/>
<path d="M193.924 393.15C194.274 393.06 194.644 392.74 195.084 392.95L195.844 394.1C193.884 394.84 192.024 395.85 190.094 396.63C189.694 396.79 189.014 396.68 188.894 396.74L188.414 395.54C189.114 395.23 189.844 394.89 190.574 394.58C190.384 395.47 191.584 394.96 191.904 394.83C192.434 394.62 193.844 393.79 193.934 393.14L193.924 393.15Z" fill="#7B7B7B"/>
<path d="M192.723 407.55L193.683 410.91C193.033 411.23 192.383 411.98 191.523 411.87L190.563 408.27C191.223 408.17 192.143 407.84 192.723 407.55Z" fill="#4C4C4E"/>
<path d="M202.563 417.63C202.543 418.02 202.603 418.45 202.563 418.83L199.503 421.17L198.243 421.23C197.283 420.25 201.383 417.13 202.563 417.63Z" fill="#FEFEFE"/>
<path d="M191.284 402.75L192.244 405.87C191.694 406.1 190.344 407.39 189.894 406.42C189.544 405.68 189.424 404.32 189.124 403.49C189.304 403.25 190.974 402.91 191.274 402.75H191.284Z" fill="#4C4C4E"/>
<path d="M189.604 398.43C190.234 399.31 190.114 400.71 191.044 401.31C190.624 401.5 189.034 402.54 188.654 402.27L187.914 399.07C188.014 398.65 189.324 398.57 189.604 398.43Z" fill="#4C4C4E"/>
<path d="M200.403 430.1C200.313 430.48 200.263 431 200.163 431.3C199.113 431.55 198.473 432.7 197.283 432.5C197.253 432.46 196.653 432.62 196.553 431.89C196.473 431.36 196.733 430.96 197.043 430.58C198.263 430.51 199.133 429.31 200.403 430.1Z" fill="#FEFEFE"/>
<path d="M199.443 403.95C201.063 404.78 197.503 407.51 196.903 407.55C195.133 407.66 196.953 405.7 197.523 405.15C198.253 404.44 199.023 404.26 199.443 403.95Z" fill="#FEFEFE"/>
<path d="M195.603 420.03L196.083 423.87C195.733 424.01 195.353 424.6 194.643 424.35L194.203 420.55C194.313 420.37 195.353 420.18 195.603 420.03Z" fill="#4C4C4E"/>
<path d="M201.843 423.63C201.803 423.85 201.893 424.15 201.843 424.35C201.203 424.7 198.333 426.93 198.223 425.19C198.143 423.88 200.953 422.79 201.843 423.63Z" fill="#FEFEFE"/>
<path d="M196.323 425.31L196.803 428.91C196.333 429.09 195.943 429.5 195.363 429.39L195.113 425.71C195.213 425.32 196.113 425.43 196.323 425.31Z" fill="#4C4C4E"/>
<path d="M194.643 396.03C196.233 396.86 192.933 398.63 192.343 398.67C190.983 398.75 191.743 397.8 192.243 397.23C193.163 396.19 193.993 396.45 194.643 396.03Z" fill="#FEFEFE"/>
<path d="M197.044 430.34V430.58C196.724 430.97 196.473 431.36 196.553 431.89C196.653 432.62 197.263 432.45 197.283 432.5C197.423 432.71 197.033 433.75 197.523 433.94C197.113 434.13 196.693 434.74 196.083 434.66L195.583 430.98C195.643 430.68 196.774 430.5 197.044 430.34Z" fill="#4C4C4E"/>
<path d="M185.043 388.35L186.483 390.75C186.323 390.79 184.993 391.61 184.803 391.47L183.823 388.73C183.883 388.4 184.803 388.45 185.033 388.35H185.043Z" fill="#4C4C4E"/>
<path d="M186.963 391.95L187.683 394.11C187.143 394.27 186.633 394.67 186.013 394.58C185.993 393.92 185.443 393.29 185.303 392.76C185.173 392.27 185.393 392.51 185.613 392.41C186.043 392.22 186.524 392.11 186.954 391.95H186.963Z" fill="#4C4C4E"/>
<path d="M192.004 390.27C192.034 390.83 190.954 391.35 190.544 391.57C189.974 391.88 188.234 393.08 188.164 391.71C188.204 391.69 188.374 391.31 188.704 391.18C189.464 390.89 190.604 390.31 191.294 390.13C191.884 389.98 191.754 390.19 192.004 390.27Z" fill="#FEFEFE"/>
<path d="M189.363 388.11C188.613 388.98 187.423 389.68 186.243 389.55C186.153 388.38 187.453 388.01 188.163 387.39C188.213 387.44 189.023 387.88 189.363 388.11Z" fill="#FEFEFE"/>
<path d="M200.163 431.3C199.973 431.87 200.033 432.52 199.573 432.99C199.113 433.46 198.073 433.67 197.523 433.94C197.033 433.75 197.423 432.71 197.283 432.5C198.473 432.7 199.103 431.55 200.163 431.3Z" fill="#7B7B7B"/>
<path d="M197.043 430.34C197.113 430.3 197.213 430.02 197.433 429.9C197.963 429.6 200.193 428.28 200.523 428.18C201.513 427.89 200.423 429.98 200.403 430.1C199.133 429.31 198.263 430.51 197.043 430.58V430.34Z" fill="#7B7B7B"/>
<path d="M184.563 387.15L183.843 385.71C185.133 385.47 185.863 385.25 186.953 386.31C186.963 386.71 184.953 387.04 184.563 387.15Z" fill="#7B7B7B"/>
<path d="M188.403 395.55L188.883 396.75C188.883 396.75 188.963 397.1 188.703 397.22C187.203 397.89 186.883 397.88 186.743 396.06C187.183 395.74 188.023 395.72 188.403 395.55Z" fill="#4C4C4E"/>
<path d="M196.324 441.62C196.224 439.58 196.024 438.55 197.994 437.54C197.724 438.88 197.184 440.57 196.324 441.62Z" fill="#4C4C4E"/>
<path d="M193.923 393.15C193.833 393.8 192.433 394.63 191.893 394.84C191.573 394.97 190.373 395.47 190.563 394.59C191.753 394.09 192.573 393.5 193.923 393.15Z" fill="#FEFEFE"/>
<path d="M184.083 384.51L182.083 384.96L180.973 383.18L184.083 384.51Z" fill="#4C4C4E"/>
<path d="M183.843 385.71L184.563 387.15C184.213 387.25 183.713 387.82 183.143 387.61L182.403 385.95C182.883 385.89 183.363 385.8 183.843 385.71Z" fill="#4C4C4E"/>
<path d="M197.523 435.62C197.763 435.49 198.353 434.76 198.843 434.66C199.313 434.51 198.373 436.81 198.293 436.99C198.033 437.55 197.993 437.06 197.523 437.05C197.633 436.75 197.443 436 197.523 435.61V435.62Z" fill="#7B7B7B"/>
<path d="M197.523 435.62C197.443 436.01 197.633 436.76 197.523 437.06C197.503 437.13 196.473 437.95 196.323 437.78C196.103 435.25 196.353 436.23 197.523 435.62Z" fill="#4C4C4E"/>
<path d="M155.533 470.66C154.613 472.65 151.263 473.89 149.163 473.79C143.313 473.51 140.443 467.55 142.933 462.51L151.283 470.25C152.313 470.67 153.763 469.07 153.603 467.92C153.443 466.77 148.683 461.33 147.613 459.86C148.703 458.92 150.843 459.42 152.063 459.86C156.643 461.5 157.403 466.64 155.533 470.67V470.66Z" fill="#FEFEFE"/>
<path d="M140.424 472.82C141.504 473.08 142.034 472.23 142.914 471.88L144.924 473.9L143.514 476.39C141.374 476.01 139.224 472.49 138.804 470.48C138.384 468.47 140.424 468.78 140.674 467.42C140.924 466.06 138.744 469.01 138.274 468.38C138.224 466.17 138.634 462.3 139.984 460.49C140.684 459.55 141.954 461.24 142.074 461.71C142.184 462.15 141.274 464.24 141.174 465.05C140.914 467.27 141.334 469.03 142.314 470.99C142.314 471.4 139.944 472.41 140.424 472.82Z" fill="#43A6D6"/>
<path d="M155.533 470.66C157.403 466.63 156.643 461.49 152.063 459.85C150.853 459.42 148.703 458.92 147.613 459.85C147.443 459.61 146.413 458.63 146.653 458.41C147.593 458.5 148.303 457.84 149.193 457.71C152.173 457.29 154.453 458.39 156.113 460.82C158.323 464.05 158.663 467.9 155.533 470.64V470.66Z" fill="#7B7B7B"/>
<path d="M151.463 468.98L141.973 457.7C142.093 455.82 143.013 456.02 144.143 457.22C145.993 459.18 150.193 464.69 151.653 466.99C151.863 467.32 152.453 467.99 152.383 468.35L151.463 468.98Z" fill="#E54231"/>
<path d="M155.774 458.18C156.754 458.33 157.044 457.32 157.574 456.75C158.224 457.11 161.474 461.12 161.054 461.54C160.174 461.05 158.354 461.57 157.694 461.18C157.474 461.05 156.874 459.9 156.494 459.5C155.744 458.69 154.834 457.69 153.874 457.19L154.574 454.82C157.114 455.32 155.944 456.36 155.774 458.18Z" fill="#43A6D6"/>
<path d="M159.374 473.31C159.784 473.87 156.073 476.45 155.773 476.19L154.833 473.45C155.473 473.16 156.654 471.45 157.214 471.73C157.814 472.04 158.364 473.37 159.374 473.31Z" fill="#43A6D6"/>
<path d="M161.533 468.99C161.083 470.4 160.823 472.08 159.613 473.07C159.143 471.24 156.733 470.49 158.793 468.55L161.533 468.99Z" fill="#43A6D6"/>
<path d="M150.013 454.11L149.763 456.26C147.863 455.69 145.903 458.77 144.993 456.39C145.473 455.72 149.703 453.78 150.013 454.12V454.11Z" fill="#43A6D6"/>
<path d="M147.853 474.74L147.363 477.61L144.253 477.14C144.583 476.12 145.633 475.49 145.453 474.26L147.853 474.74Z" fill="#43A6D6"/>
<path d="M150.973 474.99L151.453 477.62L148.093 477.86L148.843 475.01L150.973 474.99Z" fill="#43A6D6"/>
<path d="M153.833 474.28L154.793 476.52C154.673 477.05 152.713 477.5 152.173 477.39L152.283 474.74L153.833 474.29V474.28Z" fill="#43A6D6"/>
<path d="M153.613 454.35L153.133 456.51L150.973 456.26L151.213 454.1L153.613 454.35Z" fill="#43A6D6"/>
<path d="M162.013 467.54L159.163 467.04L158.533 462.75C159.493 463.28 160.633 462.94 161.533 462.5C161.903 464.18 162.143 465.81 162.013 467.54Z" fill="#43A6D6"/>
<path d="M179.313 463.24C179.493 463.11 181.303 464 181.413 464.34C182.273 466.9 176.573 467.03 179.313 463.24Z" fill="#E54231"/>
<path d="M185.523 419.79C186.263 420.45 182.143 421.88 181.923 420.87C181.693 419.79 184.873 419.65 185.523 419.79Z" fill="#FEFEFE"/>
<path d="M186.183 435.69C186.763 435.62 187.363 435.51 187.923 435.74C189.393 436.72 184.233 438.78 183.463 437.55C182.783 436.46 185.423 435.78 186.173 435.69H186.183Z" fill="#FEFEFE"/>
<path d="M187.204 431.55C187.924 432.62 183.064 434.26 183.414 432.42C183.674 431.54 186.894 431.09 187.204 431.55Z" fill="#FEFEFE"/>
<path d="M184.554 414.49C183.984 414.54 181.744 416.09 181.444 415.1C181.314 414.66 181.504 414.51 181.844 414.31C182.444 413.95 185.004 412.99 184.544 414.49H184.554Z" fill="#FEFEFE"/>
<path d="M186.723 425.79C186.893 426.9 185.513 427.16 184.693 427.47C184.003 427.73 181.963 428.63 181.733 427.55C181.463 426.29 185.723 425.06 186.723 425.79Z" fill="#FEFEFE"/>
<path d="M182.404 403.71C183.184 404.45 179.774 405.59 179.524 404.79C179.194 403.68 181.784 403.74 182.404 403.71Z" fill="#FEFEFE"/>
<path d="M152.653 406.11C153.083 407.64 148.533 408.86 148.113 408.25C147.233 406.97 151.713 405.49 152.653 406.11Z" fill="#FEFEFE"/>
<path d="M150.913 427.77C154.233 427.29 153.763 429.37 150.853 429.62C147.213 429.94 148.593 428.1 150.913 427.77Z" fill="#FEFEFE"/>
<path d="M154.314 421.25C155.344 422.73 150.274 424.01 149.294 423.63C149.004 422.49 150.414 422.02 151.294 421.67C151.864 421.44 153.924 420.69 154.314 421.26V421.25Z" fill="#FEFEFE"/>
<path d="M148.574 413.54C148.514 412.84 148.534 412.64 149.124 412.29C149.714 411.94 153.324 410.7 153.594 411.53C154.144 413.21 149.664 413.87 148.574 413.54Z" fill="#FEFEFE"/>
<path d="M153.593 433.97C155.073 436.08 146.863 436.53 149.443 434.69C149.993 434.3 153.203 433.41 153.593 433.97Z" fill="#FEFEFE"/>
<path d="M148.573 387.87C148.713 387.69 148.463 386.82 149.533 386.67C149.733 386.64 152.283 386.9 152.483 386.96C152.763 387.04 153.153 387.4 153.133 387.74C152.953 388.55 149.133 388.64 148.573 387.87Z" fill="#FEFEFE"/>
<path d="M168.913 424.16C172.923 423.58 167.653 428.07 166.313 426.41C165.303 425.16 167.993 424.3 168.913 424.16Z" fill="#FEFEFE"/>
<path d="M170.613 441.9V443.02C169.703 443.46 166.233 444.77 165.873 443.38C165.773 443.08 165.853 442.9 166.083 442.7C166.633 442.19 170.183 441.2 170.613 441.9Z" fill="#FEFEFE"/>
<path d="M171.134 435.39C171.984 437.64 166.304 438.59 165.644 437.77L165.764 436.81C167.504 436.22 169.244 435.26 171.134 435.39Z" fill="#FEFEFE"/>
<path d="M169.373 416.46C171.453 417.29 167.033 419.96 166.443 419.08C165.613 417.85 168.703 416.92 169.373 416.46Z" fill="#FEFEFE"/>
<path d="M170.883 430.59C171.043 432.36 168.503 433.16 167.043 432.99C166.273 431.52 170.633 430.34 170.883 430.59Z" fill="#FEFEFE"/>
<path d="M169.153 411.19C172.163 410.81 167.463 415.12 166.093 413.42C165.813 412.48 168.433 411.28 169.153 411.19Z" fill="#FEFEFE"/>
<path d="M161.723 381.44C162.173 381.39 162.433 381.31 162.733 381.75C163.063 382.85 158.703 384.63 159.403 382.5C159.563 382.02 161.203 381.49 161.723 381.44Z" fill="#FEFEFE"/>
<path d="M168.973 406.83C169.683 407.52 166.883 408.79 166.343 408.89C165.563 409.04 165.523 408.47 165.643 407.81C166.733 407.42 167.733 406.67 168.973 406.82V406.83Z" fill="#FEFEFE"/>
<path d="M201.593 409.23C202.203 410.59 197.743 414.29 197.273 412.7C197.093 412.07 199.923 409.48 200.573 409.29C200.903 409.19 201.253 409.22 201.593 409.23Z" fill="#FEFEFE"/>
<path d="M197.764 400.11C198.404 400.76 195.504 403.63 194.404 402.99C193.954 401.88 197.234 399.58 197.764 400.11Z" fill="#FEFEFE"/>
</svg>
