<svg width="55" height="81" viewBox="0 0 55 81" fill="none" xmlns="http://www.w3.org/2000/svg">
<path d="M54.0745 70.81C54.0345 72.17 53.9545 73.53 53.8445 74.9C53.7445 76.18 53.6245 77.47 53.1145 78.67C52.7745 79.48 50.0045 81.98 49.5045 80.49C50.8645 72.82 50.5345 65.53 48.8345 57.96C47.1345 50.39 43.9845 44.16 41.1145 37.34C40.2845 37.5 39.6445 38.07 38.7945 38.24C38.1445 38.37 37.4145 38.15 36.8245 38.42C36.5245 38.56 36.1045 39.21 35.7345 39.49C33.8445 40.91 31.9945 41.81 29.7645 42.6L29.5445 55.78L29.0645 56.49C27.0245 57.23 24.2445 60.75 22.4845 61.38C21.8945 61.59 20.4545 61.72 19.7545 61.76C15.0045 62.06 7.48454 62.13 2.77454 61.76C2.09454 61.71 1.41454 61.54 0.744537 61.4C0.314537 61.1 0.554537 58.95 0.514537 58.28C-0.0654625 49.58 0.0745377 40.46 0.0245377 31.73C-0.0254623 23.55 -0.00546341 15.34 0.144537 7.17999C2.34454 4.68999 4.73454 2.08 7.37454 0.0599976L27.8745 0L29.5945 0.540009C30.1045 0.890009 29.8645 5.85 29.8745 6.84C29.8845 7.83 29.8745 8.73 29.8745 9.69C29.8945 16.83 29.8745 23.98 29.8745 31.12C31.8745 31.03 33.9345 31.36 35.6845 32.35C36.0545 32.56 36.4245 33.17 36.7145 33.22C37.2445 33.33 38.8045 32.31 40.1445 32.91C40.7445 33.18 40.7645 33.98 41.1145 34.33C41.4245 34.65 42.3845 34.99 42.8945 35.42C46.4345 38.47 48.5845 42.97 50.1445 47.28C51.8945 52.1 53.0045 57.17 53.6745 62.25C54.0545 65.11 54.1445 67.95 54.0545 70.8L54.0745 70.81ZM9.12454 2.03V55.51L27.5145 55.27L27.7545 43.07C25.6245 42.93 25.4745 44.27 24.1545 45.32C19.0745 49.37 12.0645 46.25 11.5245 39.83C11.0545 34.24 14.7645 29.9 20.4845 30.37C21.7745 30.48 22.9845 31.25 23.8445 31.33C24.8445 31.42 26.5845 30.79 27.7645 31.09L28.2445 1.64999L9.02454 1.41C8.66454 1.5 9.14454 1.92001 9.14454 2.01001L9.12454 2.03ZM7.21454 4.78C7.21454 3.9 7.21454 3.01999 7.21454 2.14999C6.32454 2.86999 5.48454 3.71001 4.70454 4.54001C4.29454 4.97001 1.93454 7.47 1.84454 7.66C1.59454 8.22 1.68454 9.94 1.70454 10.66C2.11454 23.12 2.05454 35.74 2.20454 48.21C2.24454 51.84 2.28454 55.5 1.95454 59.11L7.21454 56.36C7.60454 55.95 7.42454 55.33 7.45454 54.8C8.16454 38.56 7.34454 21.15 7.21454 4.79001V4.78ZM20.8245 31.59C15.6345 31.13 12.2645 35.17 13.0045 40.26C13.7145 45.08 19.2145 47.06 22.9745 44.15C21.6645 44.03 20.2945 44.68 19.0945 43.8C18.8145 43.6 18.7545 43.18 18.4445 42.96C17.8645 42.54 16.8945 42.66 16.7645 41.75C16.5645 40.34 18.1445 40.38 18.2245 40.05L17.7345 37.26C17.6245 36.98 15.5745 36.85 15.5745 35.78C15.6345 34.87 17.0645 34.67 17.3645 34.22C17.6145 33.84 17.4745 33.07 18.0845 32.79L20.8345 31.6L20.8245 31.59ZM37.5445 36.85C40.6745 36.85 40.3045 33.63 37.3045 34.22L37.5445 36.85ZM48.2845 46.42C46.9345 43.07 45.1945 39.3 42.6745 36.61C42.4945 36.41 41.3445 35.14 41.1245 35.42C40.7745 37.02 41.4845 36.68 42.0845 37.45C43.9045 39.79 46.1945 44.58 47.3345 47.38C47.6345 48.11 47.9945 49.21 48.2945 50.01C48.9045 51.69 49.5245 53.78 49.9645 55.51C50.2445 56.64 50.7345 58.28 50.9245 59.34C51.4345 62.22 51.8245 66.58 51.8945 69.5C51.9645 72.59 51.5145 75.66 51.1645 78.72L52.1445 78.58C52.8645 72.98 52.8345 66.78 52.0845 61.17C51.9545 60.19 51.5445 59.19 51.4045 58.38C51.1645 56.99 51.0045 55.97 50.6845 54.55C50.1545 52.19 49.8045 50.65 49.0145 48.33C48.7545 47.57 48.5845 47.13 48.2945 46.42H48.2845ZM4.34454 60.06H21.6545C21.9045 60.06 25.0645 57.32 25.5945 56.95C19.8245 56.83 14.1045 57.29 8.32454 57.24L4.33454 60.06H4.34454Z" fill="#070606"/>
<path d="M9.12456 2.03018C9.12456 1.94018 8.65456 1.52018 9.00456 1.43018L28.2246 1.6702L27.7446 31.1102C26.5746 30.8102 24.8246 31.4402 23.8246 31.3502C22.9646 31.2702 21.7546 30.4902 20.4646 30.3902C14.7446 29.9102 11.0346 34.2602 11.5046 39.8502C12.0446 46.2602 19.0546 49.3802 24.1346 45.3402C25.4546 44.2902 25.6046 42.9402 27.7346 43.0902L27.4946 55.2902L9.10456 55.5302V2.05017L9.12456 2.03018ZM17.9046 5.33017C12.0046 5.90017 9.21456 12.5402 12.7446 17.3102C17.6446 23.9402 31.1946 19.0402 25.2446 8.85019C23.7946 6.37019 20.7546 5.06017 17.9046 5.33017Z" fill="#FDFDFD"/>
<path d="M7.21465 4.77979C7.34465 21.1398 8.15465 38.5498 7.45465 54.7898L3.87465 56.4598C3.81465 52.1898 3.94465 47.9198 3.87465 43.6498C3.87465 43.0198 3.62465 42.4398 3.61465 41.7598C3.47465 30.7998 3.79465 19.7698 3.51465 8.8598L7.20465 4.77979H7.21465Z" fill="#7C7C7C"/>
<path d="M7.21427 4.78012L3.52427 8.86014C3.79427 19.7801 3.48427 30.8001 3.62427 41.7601C3.62427 42.4401 3.87427 43.0301 3.88427 43.6501C3.94427 47.9201 3.81427 52.2001 3.88427 56.4601L7.46427 54.7901C7.44427 55.3201 7.62427 55.9401 7.22427 56.3501L1.96427 59.1001C2.29427 55.5001 2.25427 51.8301 2.21427 48.2001C2.06427 35.7301 2.12427 23.1101 1.71427 10.6501C1.69427 9.93012 1.59427 8.21012 1.85427 7.65012C1.94427 7.46012 4.30427 4.97012 4.71427 4.53012C5.49427 3.70012 6.33427 2.86014 7.22427 2.14014C7.22427 3.01014 7.22427 3.90011 7.22427 4.77011L7.21427 4.78012Z" fill="#FDFDFD"/>
<path d="M20.8242 31.5901L18.0742 32.7801C17.4642 33.0601 17.6042 33.8301 17.3542 34.2101C17.0542 34.6601 15.6242 34.8701 15.5642 35.7701C15.5642 36.8501 17.6142 36.9801 17.7242 37.2501L18.2142 40.0401C18.1342 40.3701 16.5542 40.3301 16.7542 41.7401C16.8842 42.6501 17.8542 42.5401 18.4342 42.9501C18.7442 43.1701 18.8042 43.5901 19.0842 43.7901C20.2842 44.6701 21.6542 44.0201 22.9642 44.1401C19.2142 47.0501 13.7042 45.0701 12.9942 40.2501C12.2542 35.1701 15.6242 31.1201 20.8142 31.5801L20.8242 31.5901Z" fill="#7C7C7C"/>
<path d="M4.34473 60.0599L8.33473 57.2399C14.1147 57.2999 19.8247 56.8299 25.6047 56.9499C25.0747 57.3099 21.9147 60.0599 21.6647 60.0599H4.35473H4.34473Z" fill="#7C7C7C"/>
<path d="M51.3941 58.3799C51.5341 59.1899 51.9441 60.1899 52.0741 61.1699C52.8241 66.7899 52.8541 72.9799 52.1341 78.5799L51.1541 78.7199C51.5041 75.6599 51.9441 72.5899 51.8841 69.4999C51.8241 66.5799 51.4241 62.2199 50.9141 59.3399L51.3941 58.3799Z" fill="#E56A1F"/>
<path d="M48.2846 46.4202L47.3246 47.3802C46.1846 44.5802 43.8946 39.7902 42.0746 37.4502C41.4746 36.6802 40.7746 37.0102 41.1146 35.4202C41.3446 35.1402 42.4846 36.4202 42.6646 36.6102C45.1846 39.3002 46.9246 43.0802 48.2746 46.4202H48.2846Z" fill="#E56A1F"/>
<path d="M50.6742 54.5599L49.9542 55.5198C49.5142 53.7798 48.8942 51.6998 48.2842 50.0198L49.0042 48.3398C49.7942 50.6598 50.1442 52.1999 50.6742 54.5599Z" fill="#E56A1F"/>
<path d="M37.5447 36.8502L37.3047 34.2201C40.3047 33.6301 40.6747 36.8502 37.5447 36.8502Z" fill="#E56A1F"/>
<path d="M51.3941 58.3798L50.9141 59.3398C50.7241 58.2798 50.2441 56.6398 49.9541 55.5098L50.6741 54.5498C50.9941 55.9698 51.1541 56.9898 51.3941 58.3798Z" fill="#FDFDFD"/>
<path d="M49.0042 48.3299L48.2842 50.0099C47.9942 49.2099 47.6242 48.1099 47.3242 47.3799L48.2842 46.4199C48.5742 47.1399 48.7442 47.5799 49.0042 48.3299Z" fill="#FDFDFD"/>
<path d="M17.9049 5.32979C20.7549 5.05979 23.7949 6.36981 25.2449 8.84981C31.1949 19.0398 17.6449 23.9298 12.7449 17.3098C9.21487 12.5398 12.0049 5.89979 17.9049 5.32979ZM17.9049 6.9998C15.6949 7.3198 13.2749 9.34982 12.9649 11.6198C11.7149 20.8098 27.6849 20.6298 24.9549 11.7698C24.7649 11.1598 23.3249 8.0698 22.9649 7.7798C21.9249 6.9498 19.1949 6.79979 17.9049 6.98979V6.9998Z" fill="#070606"/>
<path d="M17.9044 7.0002C19.1944 6.8102 21.9144 6.96021 22.9644 7.79021C23.3244 8.08021 24.7644 11.1602 24.9544 11.7802C27.6844 20.6402 11.7144 20.8202 12.9644 11.6302C13.2744 9.36017 15.6944 7.33021 17.9044 7.01021V7.0002ZM17.7844 11.6602C19.5444 13.5802 21.6844 10.2702 19.3844 9.21019C18.1144 8.62019 17.0444 10.8602 17.7844 11.6602ZM18.8444 14.1602C17.7044 14.4802 17.6444 16.3002 18.7244 16.8102C21.3144 18.0302 21.4944 13.4002 18.8444 14.1602Z" fill="#7C7C7C"/>
<path d="M17.7848 11.6601C17.0548 10.8601 18.1148 8.62007 19.3848 9.21007C21.6848 10.2701 19.5448 13.5801 17.7848 11.6601Z" fill="#070606"/>
<path d="M18.8441 14.16C21.4941 13.4 21.3241 18.03 18.7241 16.81C17.6441 16.3 17.7041 14.48 18.8441 14.16Z" fill="#070606"/>
</svg>
