<svg width="160" height="163" viewBox="0 0 160 163" fill="none" xmlns="http://www.w3.org/2000/svg">
<path d="M159.61 1.61567V7.13569C157.81 48.1857 159.58 90.0457 157 131.076L110.65 128.816C110.91 133.736 111.91 138.586 112.87 143.406L130.03 148.446C131.17 148.916 130.88 151.276 131.04 152.206C126.6 157.776 117.56 159.356 111.37 162.896H109.69L62.4 153.666C58.7 147.576 72.37 145.606 76.06 143.186L73.68 126.666C70.06 126.316 11.42 123.206 10.09 122.936C7.37 121.226 4.61999 118.906 5.51999 115.246C6.08999 98.3457 6.74 81.4057 6.97 64.4957C6.54 64.7057 5.72999 64.9757 5.39999 64.4957L0 45.8957C0 45.5757 0.189994 45.4857 0.399994 45.3157C1.62999 44.3757 7.2 42.6157 7.59 41.2357C7.92 35.9057 7.47999 30.5257 8.17999 25.2657C8.81999 20.6057 6.83001 13.4757 10.01 9.81568C15.43 6.28568 22.43 4.17568 28.94 4.74568C68.57 2.73568 108.29 1.98569 147.96 0.165691C150.94 0.695691 158.73 -1.26433 159.61 1.61567ZM95.53 8.57566C67.18 9.84566 38.84 10.3157 10.55 12.0357L9.85001 41.2157C10.72 41.1357 13.53 40.5457 13.69 39.6557C13.99 32.4657 13.36 24.0157 13.92 16.8457C14.14 14.2157 14.71 15.3557 16.21 15.2957C17.71 15.2357 19.49 14.8457 21.13 15.0557L21.85 12.0557C30.82 11.9957 39.88 11.5957 48.86 11.9357C50.33 12.0857 50.18 12.7757 50.17 14.0957C82.68 13.8757 116.56 10.7457 148.39 11.9957L146.61 119.286C116.86 118.986 84.94 116.016 54.5 115.376C40.94 114.686 26.68 114.196 13.29 113.386C13.13 113.256 12.55 112.366 12.5 112.136L13.21 62.1057L9.48999 63.5457L8.41 117.786C55.6 119.186 103.11 123.886 150.49 125.226C150.66 114.696 150.87 13.0857 151.93 5.94569C133.62 7.43569 113.79 7.72567 95.53 8.58567V8.57566ZM48.73 13.8557V13.3757C39.97 12.6157 31.06 13.7757 22.33 12.6557L20.65 30.6557C28.91 30.9457 36.87 32.2157 45.13 32.5757L48.73 13.8557ZM80.65 112.496C78 116.736 143.53 116.786 144.25 117.536L147.37 13.1357L96.01 14.8157C98.1 17.0457 102.91 20.5557 104.17 23.2157C100.58 21.0457 97.87 17.5357 94.64 14.8657L86.65 15.0557C100.95 29.4957 114.93 44.4257 127.69 60.2957L127.57 60.6457C113.91 45.1557 98.79 30.9757 85.34 15.2757C82.45 14.8357 79.33 15.5657 76.33 15.2957C76.81 15.8957 77.48 16.8457 78.25 16.9757L95.77 38.4557C88.62 34.1157 81.51 22.8157 75.45 15.5757C66.94 15.5457 58.44 15.9057 49.93 16.2557C49.39 20.9957 48.09 28.2957 46.64 32.5257C45.3 35.5257 40.42 33.4557 37.81 33.5257C16.85 30.1357 18.49 37.8257 20.65 16.9657L15.85 17.2057L15.61 39.2857C17.53 38.6657 20.85 36.9457 22.75 36.6857C23.03 36.6557 23.24 36.5857 23.41 36.8857L28.83 54.2957C26.4 57.6857 20.71 58.4657 17.05 60.6557C12.52 61.2357 16.5 73.2657 14.88 77.0857L14.52 111.556L46.82 113.216L37.22 104.576C40.66 105.156 46.17 111.056 48.62 113.456L58.34 113.696L48.26 103.856C48.57 103.536 48.52 103.626 48.9 103.796C52.27 105.596 57.5 110.976 60.19 113.886L68.9 114.056C61.5 107.166 54 99.1757 47.3 91.6157C56.52 96.7857 63.51 107.046 70.95 114.406L81.62 114.886C80.02 112.906 77.93 111.356 76.34 109.366C77.81 109.716 79.49 111.416 80.66 112.486L80.65 112.496ZM22.09 38.3357C15.49 41.6357 8.26999 44.3357 1.20999 46.4957L6.29001 62.1757C6.83001 63.2257 8.06 61.7657 8.41 61.6157C14.54 58.9157 21.49 57.7957 27.32 54.3657L22.81 37.8557C22.3 37.6757 22.24 38.2557 22.09 38.3357ZM147.13 129.056C102.62 122.306 55.28 123.576 9.85001 119.936L10.25 120.906C55.69 123.616 102.01 126.736 147.12 129.056H147.13ZM76.09 126.896C75.83 126.636 74.75 126.356 74.9 127.006L78.26 146.806C107.4 149.966 99.61 156.696 96.49 127.856L76.09 126.896ZM151.93 129.536C150.67 127.366 148.64 127.536 146.41 127.616C147.83 129.516 149.68 129.716 151.93 129.536ZM124.33 148.976C120.61 147.816 116.92 146.466 113.17 145.376C113.99 150.016 103.38 149.636 100.2 151.616C96.01 150.516 75.62 150.866 76.56 145.376C74.08 146.536 70.52 147.186 68.64 148.976C67.76 148.976 66.76 149.106 66.24 149.936C80.92 152.496 95.7 154.596 110.29 157.626L127.44 149.936C126.79 149.696 125 148.856 124.32 148.976H124.33ZM129.1 152.306L129.01 151.136L112.48 158.546L112.33 160.246L129.09 152.296L129.1 152.306ZM110.17 158.816L63.85 151.616V153.046L110.06 161.696L110.18 158.816H110.17Z" fill="#040404"/>
<path d="M97.9301 16.4954L145.21 14.8154L142.33 114.895L80.6501 112.495C79.4801 111.425 77.8001 109.725 76.3301 109.375C75.8501 108.775 75.7201 107.665 74.4101 107.935C73.7401 108.595 76.6901 111.555 77.0501 112.255C74.3401 112.615 71.5101 111.605 68.8901 112.255C62.3301 105.255 55.5701 96.3154 47.2901 91.6154C47.0801 91.3754 46.9401 90.9654 46.5701 90.8954C49.0701 96.8154 59.3701 107.405 64.5701 111.535C62.9201 112.355 60.1301 111.225 58.0901 111.535C57.3201 110.825 46.6801 100.245 48.3801 105.045C49.6801 107.145 52.2601 109.265 53.7701 111.295C51.3801 111.605 48.9001 110.585 46.5701 111.295C44.7201 109.565 39.1801 104.285 36.7301 104.575C36.9801 106.875 40.3801 108.795 41.5301 110.815L16.8101 109.855C16.8001 105.195 17.9801 63.9854 17.0501 60.6554C20.7101 58.4754 26.4101 57.6854 28.8301 54.2954L23.4101 36.8854C22.2101 36.1454 18.7601 38.2154 17.2901 38.5654C17.2401 32.1654 17.7401 25.1054 17.0501 18.6454L20.6501 18.1654C17.9501 37.4954 18.0001 30.2654 37.8101 33.5254C40.4301 33.4454 45.3001 35.5254 46.6401 32.5254C48.1501 28.7254 48.8801 21.7854 49.9301 17.4554C57.9101 18.1554 65.9702 17.1254 74.0002 17.2154C77.2502 20.6754 90.0001 39.6554 93.6101 37.1354C102.19 44.9754 77.2302 16.2454 78.2502 16.9754C79.7602 17.2154 85.2801 16.4554 85.9301 16.8554C93.5401 27.8654 104.24 39.4054 114.73 46.7354C119.32 51.0854 123.13 56.1654 127.57 60.6554L127.69 60.3055C115.42 45.0455 102.06 30.6854 88.3301 16.7454L95.1201 16.5554C97.6901 19.5154 100.29 23.7054 104.4 24.4254C104.49 21.9254 99.6601 18.3854 97.9201 16.5054L97.9301 16.4954Z" fill="#4D4D4F"/>
<path d="M95.5302 8.57553C113.77 7.71553 133.65 7.41555 151.93 5.93555C150.89 12.6355 150.65 115.186 150.49 125.216C124.3 124.876 97.8702 122.246 71.7702 120.896L66.9702 115.856C93.2202 116.406 121.04 119.246 146.6 119.296L148.38 12.0056C147.76 10.5256 145.34 11.4456 144.13 11.4756C128.85 11.8356 113.67 12.2256 98.4002 12.6656C97.9202 11.0056 96.0502 10.2355 95.5202 8.58554L95.5302 8.57553Z" fill="#7A7A7A"/>
<path d="M97.9298 16.4957C97.5298 16.1257 96.2798 15.6557 96.0098 14.8157L147.37 13.1357L144.25 117.536C143.35 116.726 78.2298 116.836 80.6498 112.496L142.33 114.896L145.21 14.8157L97.9298 16.4957Z" fill="#7A7A7A"/>
<path d="M48.7299 13.8555L45.1299 32.5754C37.0199 32.1954 29.2399 31.0355 21.1299 30.6555C24.6199 27.7155 22.9799 18.8054 23.5299 14.3354C31.9399 13.8754 40.4399 15.3755 48.7299 13.8555Z" fill="#EE4533"/>
<path d="M76.0898 126.896L96.4899 127.856C97.3099 134.436 98.6199 140.976 99.6099 147.536C92.9399 147.156 86.3698 145.516 79.6898 145.616C79.5498 139.236 78.2598 132.876 76.0898 126.896Z" fill="#4D4D4F"/>
<path d="M22.09 38.3358C22.23 38.2658 22.3 37.6758 22.81 37.8558L27.32 54.3658C21.49 57.7958 14.54 58.9158 8.40998 61.6158C7.70998 60.0158 3.98998 48.3957 4.43998 47.6957C7.57998 45.4457 21.46 42.8858 22.09 38.3358Z" fill="#ECF684"/>
<path d="M26.8902 118.496C20.7302 118.376 14.4602 117.496 8.41016 117.776L9.49014 63.5357L13.2101 62.0957L12.5002 112.126C13.6202 115.256 20.5802 112.996 23.5402 113.936L26.9001 118.496H26.8902Z" fill="#7A7A7A"/>
<path d="M64.8101 9.77588L67.4501 13.6159C61.6901 13.7859 55.9301 14.0059 50.1701 14.0959C50.1701 12.7659 50.3301 12.0859 48.8601 11.9359C39.8801 11.5859 30.8301 11.9859 21.8501 12.0559L21.1301 15.0559C19.4901 14.8459 17.7701 15.2359 16.2101 15.2959C14.6501 15.3559 14.1401 14.2159 13.9201 16.8459C13.3601 24.0059 13.9901 32.4659 13.6901 39.6559C13.5301 40.5459 10.7301 41.1359 9.8501 41.2159L10.5501 12.0359C28.5901 10.8059 46.7301 10.5059 64.8101 9.77588Z" fill="#7A7A7A"/>
<path d="M17.0497 60.6558C17.9697 63.8058 16.7998 105.416 16.8098 109.856L41.5298 110.816C40.3798 108.796 36.9898 106.876 36.7298 104.576C36.8898 104.576 37.0497 104.576 37.2097 104.576L46.8098 113.216L14.5098 111.556L14.8798 77.0858C16.4898 73.2858 12.5297 61.2058 17.0497 60.6558Z" fill="#7A7A7A"/>
<path d="M68.6499 148.976C70.5299 147.186 74.0899 146.535 76.5699 145.375C75.7299 150.905 95.9499 150.486 100.21 151.616C103.42 149.616 113.96 150.035 113.18 145.375C116.93 146.475 120.62 147.826 124.34 148.976C120.16 151.796 114.22 153.306 109.58 155.726C96.0699 153.916 82.2599 149.736 68.6599 148.976H68.6499Z" fill="#4D4D4F"/>
<path d="M147.13 129.056C102.01 126.736 55.6999 123.616 10.2599 120.906L9.85986 119.936C55.2799 123.576 102.63 122.306 147.14 129.056H147.13Z" fill="#7A7A7A"/>
<path d="M68.65 148.976C82.26 149.726 96.0499 153.916 109.57 155.726C114.2 153.316 120.15 151.806 124.33 148.976C125 148.856 126.81 149.695 127.45 149.935L110.3 157.625C95.71 154.595 80.93 152.495 66.25 149.935C66.77 149.105 67.77 148.966 68.65 148.976Z" fill="#7A7A7A"/>
<path d="M93.61 37.1355C89.97 39.6255 77.3 20.7355 74 17.2155C65.97 17.1255 57.91 18.1555 49.93 17.4555C50 17.1855 49.85 16.3355 49.93 16.2555C58.45 15.9055 66.9499 15.5455 75.4499 15.5755C81.1599 23.0255 86.87 30.5755 93.61 37.1355Z" fill="#7A7A7A"/>
<path d="M110.17 158.816L110.05 161.696L63.8601 153.046L63.8501 151.616L110.17 158.816Z" fill="#4D4D4F"/>
<path d="M76.0902 126.896C78.2602 132.876 79.5502 139.236 79.6902 145.616C86.3702 145.516 92.9402 147.156 99.6102 147.536C99.6602 147.876 100.15 149.926 99.7302 149.936L78.2702 146.796L74.9102 126.996C74.7602 126.346 75.8402 126.636 76.1002 126.886L76.0902 126.896Z" fill="#FDFDFD"/>
<path d="M22.09 38.3354C21.47 42.8754 7.56997 45.4554 4.43997 47.6954C3.98997 48.4054 7.71997 60.0255 8.40997 61.6155C8.06997 61.7655 6.83998 63.2155 6.28998 62.1755L1.20996 46.4955C8.26996 44.3355 15.49 41.6254 22.09 38.3354Z" fill="#FDFDFD"/>
<path d="M46.5702 115.136C47.4802 117.016 49.7602 118.056 50.6502 119.936C45.6802 119.236 40.5202 119.656 35.5302 118.976C34.6702 117.096 32.3102 116.056 31.4502 114.176C36.3102 114.866 41.7302 114.386 46.5702 115.136Z" fill="#7A7A7A"/>
<path d="M114.73 46.7355C104.24 39.3955 93.5501 27.8655 85.9301 16.8555C84.2401 16.1455 77.5801 18.5155 76.3301 15.2955C79.3301 15.5655 82.4501 14.8355 85.3401 15.2755C94.6101 26.2455 104.89 36.2855 114.73 46.7255V46.7355Z" fill="#7A7A7A"/>
<path d="M21.1299 30.6558C20.9699 30.6558 20.8099 30.6658 20.6499 30.6558L22.3299 12.6558C31.0599 13.7758 39.9699 12.6158 48.7299 13.3758V13.8558C40.4399 15.3758 31.9399 13.8658 23.5299 14.3358C22.9799 18.8058 24.6199 27.7058 21.1299 30.6558Z" fill="#FDFDFD"/>
<path d="M47.2899 91.6155C53.9899 99.1755 61.4898 107.166 68.8898 114.056L60.1799 113.885C59.2499 113.335 58.8198 112.256 58.0898 111.536C60.1298 111.236 62.9198 112.356 64.5698 111.536C59.3798 107.396 49.0698 96.8155 46.5698 90.8955C46.9398 90.9655 47.0799 91.3755 47.2899 91.6155Z" fill="#7A7A7A"/>
<path d="M95.5302 8.57568C96.0602 10.2257 97.9302 10.9957 98.4102 12.6557C94.9002 12.7557 91.3702 12.7957 87.8502 12.8957C86.9302 11.4957 85.1602 10.5957 84.4902 9.05569C88.0802 8.91569 91.8602 8.71568 95.5302 8.57568Z" fill="#FDFDFD"/>
<path d="M84.4899 9.05566C85.1599 10.5957 86.9299 11.4957 87.8499 12.8957C84.2099 13.0057 80.4699 13.2657 76.8099 13.3757C76.4099 11.8057 74.7799 10.7757 74.1699 9.29565C77.5999 9.16565 81.0599 9.18566 84.4899 9.05566Z" fill="#7A7A7A"/>
<path d="M17.2899 38.5756C16.8599 38.7456 16.2699 39.3956 15.6099 39.2956L15.8499 17.2156L20.6498 16.9756C20.6298 17.3756 20.6798 17.7856 20.6498 18.1756L17.0498 18.6556C17.7398 25.1256 17.2399 32.1656 17.2899 38.5756Z" fill="#7A7A7A"/>
<path d="M74.17 9.2959C74.78 10.7759 76.4101 11.8059 76.8101 13.3759C73.6901 13.4659 70.57 13.5259 67.45 13.6159L64.8101 9.77591C67.8701 9.65591 71.06 9.4159 74.17 9.2959Z" fill="#FDFDFD"/>
<path d="M54.4899 115.376C55.5099 117.286 58.1199 118.356 59.0499 120.416C56.2899 120.266 53.4398 120.096 50.6498 119.936C49.7598 118.056 47.4798 117.016 46.5698 115.136C49.1098 115.256 51.8599 115.246 54.4899 115.376Z" fill="#FDFDFD"/>
<path d="M31.4498 114.176C32.3098 116.056 34.6698 117.096 35.5298 118.976C32.6498 118.816 29.7698 118.656 26.8898 118.496L23.5298 113.936C26.1598 114.046 28.8198 114.056 31.4498 114.176Z" fill="#FDFDFD"/>
<path d="M66.97 115.856L71.77 120.896C69.23 120.756 66.64 120.796 64.09 120.656C63.02 118.746 60.94 117.516 59.77 115.616C62.16 115.726 64.58 115.746 66.97 115.856Z" fill="#FDFDFD"/>
<path d="M76.3301 109.376C77.9201 111.356 80.0102 112.916 81.6102 114.896L70.9401 114.416C70.1101 114.256 69.4401 112.886 68.8901 112.266C71.5101 111.606 74.3402 112.616 77.0502 112.266C76.6902 111.566 73.7502 108.606 74.4102 107.946C75.7202 107.676 75.8501 108.786 76.3301 109.386V109.376Z" fill="#7A7A7A"/>
<path d="M48.2499 103.855L58.3298 113.695L48.6099 113.455C48.1299 113.365 47.0498 111.765 46.5698 111.295C48.8998 110.585 51.3798 111.605 53.7698 111.295C52.4098 108.905 48.0499 106.565 48.2499 103.855Z" fill="#7A7A7A"/>
<path d="M104.17 23.2157C104.33 23.6257 104.56 23.8757 104.41 24.4157C100.29 23.6857 97.6901 19.5057 95.1301 16.5457L88.3401 16.7357C87.8301 16.2157 87.0202 15.7657 86.6602 15.0557L94.6501 14.8657C97.8801 17.5357 100.59 21.0557 104.18 23.2157H104.17Z" fill="#7A7A7A"/>
<path d="M59.7702 115.616C60.9402 117.516 63.0202 118.746 64.0902 120.656C62.4102 120.566 60.7202 120.506 59.0502 120.416C58.1202 118.356 55.5102 117.285 54.4902 115.375C56.2502 115.455 58.0102 115.536 59.7702 115.616Z" fill="#7A7A7A"/>
<path d="M129.1 152.306L112.33 160.256L112.48 158.556L129.01 151.136L129.1 152.306Z" fill="#7A7A7A"/>
<path d="M151.93 129.536C149.68 129.726 147.83 129.516 146.41 127.616C148.64 127.536 150.67 127.366 151.93 129.536Z" fill="#7A7A7A"/>
</svg>
