<svg width="160" height="163" viewBox="0 0 160 163" fill="none" xmlns="http://www.w3.org/2000/svg">
<path d="M159.4 1.47308C159.4 1.47308 157.75 128.253 156.79 130.743L110.51 128.483C109.99 129.003 112.35 141.383 112.72 143.043L129.85 148.073C130.25 148.253 130.49 148.603 130.58 149.023C130.66 149.393 130.88 151.493 130.86 151.833C130.78 153.273 128.15 154.453 126.96 155.123C121.96 157.903 116.4 160.073 111.22 162.513H109.54L62.32 153.303C61.53 152.183 61.5 150.633 62.07 149.433C62.45 148.633 65.48 147.373 66.48 146.893C69.57 145.423 72.8 144.153 75.96 142.833L73.58 126.333L16.91 122.973C15.18 122.873 11.53 123.253 10.09 122.613C9.9 122.533 7.11 120.363 6.84 120.113C5.21 118.543 5.44999 117.343 5.51999 115.183C5.90999 102.663 6.40999 90.1031 6.73999 77.5831C6.85999 73.1531 6.8 68.7031 6.97 64.2731C6.54 64.4831 5.72999 64.7431 5.39999 64.2731L0 45.6931L0.399994 45.1131C2.15999 44.2431 3.99001 43.4231 5.76001 42.6931C6.78001 42.2731 7.53999 42.5231 7.67999 41.2531C7.94999 38.7131 7.58999 35.6131 7.67999 32.9731C7.80999 28.6931 7.95 24.3331 8.16 20.0331C8.26 17.8631 8.3 12.9931 8.87 11.1631C9.13 10.3331 9.47 10.0431 10.16 9.57308C11.71 8.51308 19.05 5.18308 20.81 4.88308C23.46 4.44308 26.46 4.71309 29.14 4.58309C59 3.10309 89.08 2.2831 119.02 1.2431C128.57 0.913095 138.22 0.243094 147.76 0.023094C151.27 -0.056906 154.8 0.103094 158.31 0.023094C159.09 0.103094 158.92 1.0231 159.39 1.4631L159.4 1.47308ZM87.99 8.6531C85.12 8.7631 82.23 8.78309 79.36 8.89309C77.45 8.96309 75.53 9.06308 73.61 9.13308C69.86 9.27308 66.1 9.46309 62.35 9.61309C47.11 10.2031 31.93 10.6131 16.71 11.5431C14.66 11.6631 12.59 11.3631 10.57 11.8731L9.87 41.0031C10.74 40.9231 13.54 40.3331 13.7 39.4431C14.04 37.5831 13.63 34.1131 13.69 32.0031C13.82 27.1331 13.54 21.3731 13.93 16.6631C14.15 14.0331 14.72 15.1731 16.22 15.1131C17.72 15.0531 19.49 14.6631 21.13 14.8731L21.85 11.8731C26.49 11.6331 31.21 11.7831 35.88 11.7631C40.11 11.7431 44.56 11.3031 48.81 11.7631C50.28 11.9131 50.13 12.5931 50.12 13.9231C55.47 13.8831 60.83 13.6031 66.18 13.4431C69.93 13.3331 73.69 13.3131 77.44 13.2031C79.19 13.1531 80.95 13.0131 82.71 12.9631C85.98 12.8631 89.26 12.8131 92.54 12.7231C109.67 12.2331 126.8 11.6931 143.95 11.2931C145.04 11.2631 146.36 10.7531 147.49 11.0931C149.14 11.5831 148.15 17.3831 148.13 18.8231C147.63 50.0831 147.5 81.5231 146.45 112.763C146.39 114.473 146.74 117.263 146.45 118.763C146.08 120.673 141.75 119.223 140.35 119.123C117.93 117.463 95.32 117.093 72.88 116.013C69.85 115.863 66.8 115.683 63.77 115.533C61.86 115.443 59.94 115.383 58.02 115.293C55.66 115.183 53.22 114.923 50.83 114.813C42.93 114.443 35.01 114.203 27.11 113.853C25.07 113.763 22.92 113.453 20.88 113.373C19.54 113.323 13.95 113.633 13.34 113.133C13.18 113.003 12.55 112.053 12.5 111.813L13.21 61.8531L9.48999 63.2831L8.41998 117.443C9.49998 116.843 10.58 117.413 11.64 117.443C15.6 117.613 19.56 117.693 23.51 117.913C25.98 118.053 28.47 118.253 30.94 118.393C38.86 118.833 46.78 119.153 54.66 119.593C57.21 119.733 59.78 119.933 62.33 120.073C64.02 120.163 65.89 120.453 67.6 120.553C68.7 120.613 70.37 120.793 71.31 120.793H75.38C75.74 120.793 76.78 120.993 77.42 121.033C99.94 122.283 122.37 123.623 144.88 124.633C146.62 124.713 148.47 125.063 150.28 124.873L150.99 21.6931L151.72 5.76308L134.12 6.97308C118.73 7.41308 103.38 8.04309 87.98 8.64309L87.99 8.6531ZM21.61 30.4631C24.07 30.6931 26.27 30.5631 28.68 30.7031C34.14 31.0231 39.58 32.4631 45.1 32.3831C45.92 26.2931 47.78 20.2831 48.45 14.1731C48.47 13.9531 48.82 13.5831 48.69 13.2131C39.86 12.4831 30.9 13.5831 22.09 12.4931C22.3 18.5131 20.71 24.4931 20.76 30.4831C20.97 30.8631 21.39 30.4531 21.61 30.4731V30.4631ZM81.04 112.663C81.71 113.263 82.28 114.523 83.3 114.593L144.06 117.213L147.18 12.9731C143.31 13.1731 139.42 13.0831 135.55 13.2031C125.35 13.5131 115.1 14.0731 104.9 14.4231C101.9 14.5231 98.84 14.1131 95.9 14.7731C96.7 15.4831 96.93 16.2031 98.06 16.3331L103.33 22.3231C103 22.1831 102.54 22.2031 102.25 21.8431L94.53 14.7031L86.55 14.8931C86.91 15.6031 87.71 16.0431 88.23 16.5731C96.35 24.8231 104.87 33.5731 112.56 42.2131C117.25 47.4831 122.85 53.7731 127.05 59.3531C127.23 59.5831 127.76 60.1531 127.41 60.4231C126.43 59.5131 125.56 58.5231 124.65 57.5531C121.97 54.6831 119.54 51.5631 116.87 48.6831C106.41 37.4331 95.02 27.0231 85.25 15.1231C84.35 14.5231 83.31 15.1231 82.37 15.1431C80.33 15.1931 78.28 15.0831 76.25 15.1431C76.64 15.7231 77.19 16.2231 77.68 16.7131C77.94 16.9731 78.36 17.0131 78.4 17.0531C83.35 22.1131 87.94 29.2031 92.4 34.7931C93.14 35.7231 95.13 37.3631 95.55 38.1631C95.73 38.5131 95.43 38.5531 95.41 38.6231C87.8 31.7331 81.55 23.5631 75.36 15.4131C72.98 15.3831 70.58 15.3231 68.2 15.3631C67.63 15.3631 67.11 15.6131 66.54 15.6231C60.99 15.7531 55.43 15.6631 49.9 16.1231C49.76 16.5831 49.73 17.0731 49.63 17.5331C48.71 21.8031 48.1 28.5331 46.59 32.3431C46.22 33.2631 45.74 33.7131 44.73 33.8331C42.98 34.0431 39.67 33.5431 37.78 33.3431C32.92 32.8331 28.01 32.4431 23.16 31.9031C22.01 31.7731 19.21 31.7131 19.19 30.3631C19.73 26.4231 20.05 22.4531 20.4 18.4931C20.44 18.0631 20.85 17.4131 20.64 16.8131C20.31 16.6731 19.92 17.0531 19.8 17.0531H15.85L15.61 39.1031C15.72 39.2231 17.5 38.4531 17.83 38.3231C18.08 38.2231 18.21 37.9131 18.24 37.9031C18.38 37.8531 18.75 37.9431 19.01 37.8431C19.95 37.4931 21.87 36.6031 22.73 36.5031C23.01 36.4731 23.22 36.4031 23.39 36.7031L28.8 54.0831C28.76 55.0331 27.4 55.5631 26.63 56.0031C23.76 57.6131 20.3 58.7331 17.28 60.1931C16.93 60.3631 15.42 60.7831 15.35 61.0731L14.51 111.253L46.76 112.913L37.41 105.003C37.47 104.693 37.19 104.133 37.75 104.293C40.09 104.983 45.12 109.633 46.99 111.473C47.53 111.993 47.84 112.943 48.59 113.093L58.25 113.383L48.19 103.803C48.19 103.803 48.06 103.163 48.53 103.333C49.68 104.083 50.83 104.873 51.9 105.733C53.9 107.343 56.74 109.873 58.5 111.713C59.03 112.263 59.38 113.453 60.3 113.623C61.16 113.783 62.45 113.573 63.41 113.623C65.17 113.733 67.01 114.123 68.8 113.743L47.23 91.3331C48.52 91.2531 48.23 91.8931 49.15 92.6531C56.72 98.9831 62.53 104.763 69.04 112.183C69.56 112.773 69.95 113.923 70.84 114.093L81.5 114.573C79.82 112.663 77.93 110.953 76.23 109.063C77.92 109.633 79.65 111.423 81.02 112.653L81.04 112.663ZM23.05 39.5731C22.96 39.2431 23.02 37.4331 22.45 37.6631C22.14 37.7931 21.5 38.3431 20.97 38.5831C14.53 41.5031 8.05001 44.3431 1.23001 46.2931L6.31 61.9431C6.74 62.8431 7.68999 61.8331 8.17999 61.6231C13.83 59.2031 20.28 57.5031 25.84 54.9631C26.35 54.7331 26.8 54.3831 27.3 54.1531C27.56 53.7031 26.92 51.9531 26.75 51.3231C25.69 47.3631 24.11 43.5331 23.04 39.5831L23.05 39.5731ZM10.83 119.613C10.51 119.613 10.19 119.613 9.87 119.613L10.15 120.533C10.45 120.643 10.76 120.563 11.06 120.573C40.16 121.743 69.35 124.303 98.41 126.083C114.3 127.053 130.27 127.613 146.1 128.963C146.36 128.983 146.99 129.133 146.93 128.733C145.92 128.683 144.92 127.313 144.12 127.113C142.45 126.673 139.51 126.933 137.71 126.813C98.9 124.293 60.06 122.423 21.23 120.353C17.78 120.173 14.26 119.683 10.82 119.623L10.83 119.613ZM90.39 148.133C91.44 148.483 99.38 149.693 99.74 149.333L96.39 127.523C91.08 127.313 85.77 127.073 80.46 126.803C78.92 126.723 77.33 126.653 75.78 126.563C75.67 126.563 74.74 125.853 74.83 126.673L78.28 146.473L90.4 148.133H90.39ZM151.74 129.193C150.48 127.033 148.46 127.193 146.23 127.283C147.65 129.183 149.5 129.383 151.74 129.193ZM124.18 148.613L112.92 145.023C112.79 145.623 113.23 146.293 113.01 146.873C112.62 147.883 107.53 148.873 106.26 149.273C104.58 149.793 102.36 150.883 100.71 151.153C97.6 151.643 89.5 150.113 86.03 149.513C83.8 149.123 79.29 148.483 77.39 147.603C76.22 147.063 76.62 145.023 76.37 145.023C73.67 146.143 70.91 147.193 68.25 148.423C67.9 148.583 67.51 148.553 67.63 149.103C67.18 149.103 66.11 149.033 65.95 149.583C80.69 152.083 95.52 154.233 110.17 157.263L127.3 149.583L124.19 148.623L124.18 148.613ZM128.94 151.933L128.85 150.773L112.34 158.173L112.19 159.873L128.93 151.933H128.94ZM110.04 158.433L63.79 151.243V152.673L109.93 161.303L110.05 158.433H110.04Z" fill="#040403"/>
<path d="M98.0595 16.3232C99.3995 16.4832 100.57 16.1032 101.76 16.0732C114.08 15.8132 126.37 15.1632 138.66 14.8732C140.78 14.8232 142.91 14.9332 145.02 14.8832L142.15 114.813L81.0396 112.653C79.6696 111.423 77.9395 109.633 76.2495 109.063C76.1995 109.003 76.1596 108.613 75.9096 108.333C75.4896 107.863 74.5696 107.353 73.9796 107.143C73.0296 107.333 74.8196 109.363 75.1696 109.783C75.9496 110.703 77.0095 111.413 77.6895 112.413L69.0595 112.173C62.5495 104.753 56.7396 98.9733 49.1696 92.6433C48.2596 91.8833 48.5495 91.2432 47.2495 91.3232C46.9595 91.3432 46.3296 91.1632 46.5296 91.6832C46.8196 92.4132 49.9596 95.9532 50.7196 96.8432C55.1596 102.043 60.0596 106.843 64.7396 111.823L58.5096 111.703C56.7496 109.863 53.9096 107.333 51.9096 105.723C50.8396 104.863 49.6896 104.073 48.5396 103.323C48.0696 103.153 48.2296 103.773 48.1996 103.793C48.0296 103.923 47.3696 103.493 47.4796 104.153C47.7596 105.933 52.8596 109.753 53.9596 111.453H47.0096C45.1296 109.623 40.1096 104.973 37.7696 104.283C37.2096 104.113 37.4896 104.683 37.4296 104.993C37.3996 105.143 37.2095 105.273 37.2495 105.553C37.3895 106.693 41.2396 109.813 41.9796 110.983L17.0596 110.263C17.1296 109.823 17.2996 109.423 17.3096 108.963C17.5496 101.223 17.4396 93.4432 17.5296 85.6932C17.6096 78.6532 18.1396 71.4332 17.7896 64.3632C17.7196 63.0332 17.3796 61.5232 17.2996 60.1832C20.3196 58.7332 23.7796 57.6132 26.6496 55.9932C27.4296 55.5532 28.7895 55.0232 28.8195 54.0732L23.4096 36.6932C23.2396 36.4032 23.0296 36.4632 22.7496 36.4932C21.8796 36.5932 19.9596 37.4832 19.0296 37.8332C18.7696 37.9332 18.3996 37.8332 18.2596 37.8932C18.1196 31.4132 18.2196 24.8532 17.0596 18.4832H20.4096C20.0596 22.4432 19.7396 26.4132 19.1996 30.3532C19.2196 31.7132 22.0196 31.7732 23.1696 31.8932C28.0096 32.4332 32.9296 32.8232 37.7896 33.3332C39.6796 33.5332 42.9896 34.0332 44.7396 33.8232C45.7496 33.7032 46.2396 33.2532 46.5996 32.3332C48.1096 28.5232 48.7296 21.7932 49.6396 17.5232C57.6396 18.3232 65.6696 17.0932 73.6796 17.3232C79.9096 25.4032 86.9396 32.8732 95.0496 39.0932C95.6196 39.1932 95.3296 38.8932 95.4096 38.6132C95.4296 38.5432 95.7296 38.5032 95.5496 38.1532C95.1396 37.3532 93.1496 35.7232 92.3996 34.7832C87.9296 29.1932 83.3496 22.0932 78.3996 17.0432L84.6295 16.9232C90.5295 24.0832 96.6696 31.0832 102.96 37.8932C108.08 43.4332 114.43 50.7532 120.09 55.5032C120.56 55.9032 124.58 59.0432 124.89 58.7332L124.65 57.5332C125.55 58.5032 126.43 59.5032 127.41 60.4032C127.75 60.1232 127.22 59.5632 127.05 59.3332C122.84 53.7532 117.25 47.4632 112.56 42.1932C104.87 33.5532 96.3496 24.8032 88.2296 16.5532L94.5296 16.6032C97.8096 19.5032 101.05 23.4832 105.48 24.4632C105.64 24.3232 104.14 22.4932 104.03 22.4332C103.74 22.2532 103.45 22.3632 103.32 22.3132L98.0496 16.3232H98.0595Z" fill="#4D4D4F"/>
<path d="M87.9899 8.65295C103.39 8.05295 118.74 7.42294 134.13 6.98294L151.73 5.77295L151 21.7029L150.29 124.883C148.48 125.073 146.63 124.723 144.89 124.643C122.39 123.633 99.9499 122.293 77.4299 121.043C76.1199 119.243 73.9399 117.963 72.8799 116.013C95.3099 117.093 117.92 117.463 140.35 119.123C141.75 119.223 146.08 120.673 146.45 118.763C146.74 117.263 146.39 114.473 146.45 112.763C147.49 81.523 147.63 50.0829 148.13 18.8229C148.15 17.3829 149.15 11.583 147.49 11.093C146.36 10.753 145.04 11.2729 143.95 11.2929C126.8 11.6929 109.67 12.2229 92.5399 12.7229C91.3799 11.1329 88.8899 10.453 87.9899 8.65295Z" fill="#7A7A7A"/>
<path d="M98.06 16.3229C96.93 16.1929 96.7 15.4729 95.9 14.7629C98.84 14.1129 101.9 14.5129 104.9 14.4129C115.1 14.0629 125.35 13.5029 135.55 13.1929C139.42 13.0729 143.31 13.1629 147.18 12.9629L144.06 117.203L83.3 114.583C82.27 114.513 81.7 113.253 81.04 112.653L142.15 114.813L145.02 14.8829C142.91 14.9229 140.78 14.8229 138.66 14.8729C126.37 15.1629 114.08 15.8129 101.76 16.0729C100.56 16.1029 99.39 16.4829 98.06 16.3229Z" fill="#7A7A7A"/>
<path d="M75.7698 126.563C77.3198 126.653 78.9098 126.723 80.4498 126.803C85.7598 127.073 91.0698 127.313 96.3798 127.523L99.7298 149.333C99.3798 149.693 91.4298 148.483 90.3798 148.133C90.2898 148.103 90.0698 147.803 89.7398 147.703C86.4998 146.713 83.2298 145.873 79.8498 145.483C78.9698 139.143 78.8498 132.293 75.7598 126.563H75.7698Z" fill="#4D4D4F"/>
<path d="M48.4503 14.1731C47.7703 20.2831 45.9204 26.2931 45.1004 32.3831C39.5904 32.4731 34.1404 31.0331 28.6804 30.7031C26.2804 30.5631 24.0704 30.6931 21.6104 30.4631C22.9804 25.3331 23.7804 19.9631 23.7704 14.6431C24.6004 14.6731 25.4504 14.5931 26.2804 14.6431C31.7904 14.9631 38.7703 15.2831 44.2603 14.8931C45.6403 14.7931 47.0703 14.3331 48.4403 14.1631L48.4503 14.1731Z" fill="#EE4533"/>
<path d="M23.0499 39.573C24.1199 43.523 25.7099 47.363 26.7599 51.313C26.9299 51.943 27.5799 53.693 27.3099 54.143C26.7999 54.373 26.3599 54.723 25.8499 54.953C20.2899 57.493 13.8399 59.193 8.18993 61.613C7.54993 57.773 6.23993 53.303 4.55993 49.783C4.37993 49.413 3.03993 47.333 3.15993 47.233C6.14993 47.163 9.25992 46.253 12.0799 45.253C14.6599 44.343 18.5899 42.753 20.8899 41.363C21.7499 40.843 22.4699 40.423 23.0399 39.563L23.0499 39.573Z" fill="#ECF684"/>
<path d="M23.5304 117.933C19.5804 117.713 15.6104 117.633 11.6604 117.463C10.6004 117.423 9.51043 116.853 8.44043 117.463L9.51044 63.303L13.2304 61.873L12.5204 111.833C12.5604 112.063 13.2004 113.023 13.3604 113.153C13.9804 113.653 19.5704 113.343 20.9004 113.393C21.3304 115.123 22.9604 116.253 23.5404 117.943L23.5304 117.933Z" fill="#7A7A7A"/>
<path d="M62.3501 9.61328L66.1801 13.4433C60.8301 13.6033 55.4801 13.8833 50.1201 13.9233C50.1201 12.6033 50.2801 11.9233 48.8101 11.7633C44.5601 11.3133 40.1101 11.7633 35.8801 11.7633C31.2101 11.7833 26.4901 11.6333 21.8501 11.8733L21.1301 14.8733C19.4901 14.6633 17.7701 15.0533 16.2201 15.1133C14.6701 15.1733 14.1501 14.0333 13.9301 16.6633C13.5401 21.3633 13.8201 27.1333 13.6901 32.0033C13.6301 34.1133 14.0401 37.5833 13.7001 39.4433C13.5401 40.3333 10.7401 40.9233 9.87012 41.0033L10.5701 11.8733C12.5901 11.3633 14.6601 11.6633 16.7101 11.5433C31.9301 10.6233 47.1101 10.2033 62.3501 9.61328Z" fill="#7A7A7A"/>
<path d="M17.3003 60.1831C17.3803 61.5331 17.7203 63.0431 17.7903 64.3631C18.1403 71.4331 17.6103 78.6531 17.5303 85.6931C17.4403 93.4431 17.5503 101.223 17.3103 108.963C17.3003 109.423 17.1203 109.823 17.0603 110.263L41.9803 110.983C41.2303 109.813 37.3902 106.683 37.2502 105.553C37.2202 105.283 37.4003 105.143 37.4303 104.993L46.7803 112.903L14.5303 111.243L15.3703 61.0631C15.4403 60.7731 16.9503 60.3531 17.3003 60.1831Z" fill="#7A7A7A"/>
<path d="M67.6198 149.093C67.4998 148.543 67.8898 148.573 68.2398 148.413C70.8998 147.193 73.6598 146.143 76.3598 145.013C76.6098 145.013 76.2198 147.053 77.3798 147.593C79.2798 148.473 83.7898 149.113 86.0198 149.503C89.4898 150.103 97.5898 151.633 100.7 151.143C102.36 150.883 104.57 149.783 106.25 149.263C107.52 148.873 112.6 147.873 113 146.863C113.23 146.283 112.79 145.613 112.91 145.013L124.17 148.603C124.02 149.043 123.63 149.103 123.27 149.263C118.98 151.213 114.37 152.433 110.39 155.093C105.63 154.313 100.81 153.883 96.0498 153.113C86.6398 151.593 77.2198 149.263 67.6098 149.083L67.6198 149.093Z" fill="#4D4D4F"/>
<path d="M10.8301 119.613C14.2801 119.663 17.8001 120.163 21.2401 120.343C60.0701 122.413 98.9101 124.283 137.72 126.803C139.52 126.923 142.46 126.663 144.13 127.103C144.93 127.313 145.93 128.673 146.94 128.723C147 129.133 146.37 128.983 146.11 128.953C130.28 127.603 114.31 127.043 98.4201 126.073C69.3601 124.293 40.1701 121.733 11.0701 120.563L10.8301 119.603V119.613Z" fill="#7A7A7A"/>
<path d="M124.66 57.5433L124.9 58.7434C124.6 59.0534 120.58 55.9134 120.1 55.5134C114.43 50.7634 108.09 43.4434 102.97 37.9034C96.6798 31.0934 90.5398 24.0934 84.6398 16.9334L78.4098 17.0533C78.4098 17.0533 77.9398 16.9634 77.6898 16.7134C77.1998 16.2234 76.6498 15.7233 76.2598 15.1433C78.2998 15.0933 80.3398 15.2033 82.3798 15.1433C83.3198 15.1233 84.3498 14.5234 85.2598 15.1234C95.0298 27.0234 106.42 37.4334 116.88 48.6834C119.56 51.5634 121.99 54.6833 124.66 57.5533V57.5433Z" fill="#7A7A7A"/>
<path d="M50.8499 114.823C51.6299 116.753 53.4299 118.043 54.6799 119.613C46.7899 119.173 38.8699 118.853 30.9599 118.413C30.1799 116.623 27.8999 115.653 27.1299 113.863C35.0299 114.213 42.9499 114.453 50.8499 114.823Z" fill="#7A7A7A"/>
<path d="M124.18 148.613L127.29 149.573L110.16 157.253C95.5105 154.233 80.6904 152.073 65.9404 149.573C66.0904 149.023 67.1705 149.083 67.6205 149.093C77.2305 149.273 86.6504 151.603 96.0604 153.123C100.82 153.893 105.64 154.323 110.4 155.103C114.38 152.443 119 151.223 123.28 149.273C123.64 149.113 124.02 149.053 124.18 148.613Z" fill="#7A7A7A"/>
<path d="M95.4204 38.6132C95.3404 38.8832 95.6304 39.1932 95.0604 39.0932C86.9504 32.8732 79.9204 25.4032 73.6904 17.3232C65.6704 17.0932 57.6504 18.3232 49.6504 17.5232C49.7504 17.0632 49.7804 16.5732 49.9204 16.1132C55.4404 15.6532 61.0104 15.7532 66.5604 15.6132C67.1304 15.6032 67.6504 15.3632 68.2204 15.3532C70.6004 15.3132 73.0004 15.3732 75.3804 15.4032C81.5704 23.5532 87.8204 31.7232 95.4304 38.6132H95.4204Z" fill="#7A7A7A"/>
<path d="M110.04 158.433L109.92 161.313L63.8 152.673L63.79 151.243L110.04 158.433Z" fill="#4D4D4F"/>
<path d="M8.19025 61.6232C7.69025 61.8332 6.75025 62.8332 6.32025 61.9432L1.24023 46.2932C8.05023 44.3432 14.5403 41.5132 20.9803 38.5832C21.5003 38.3432 22.1402 37.7832 22.4602 37.6632C23.0302 37.4332 22.9702 39.2432 23.0602 39.5732C22.4802 40.4332 21.7702 40.8532 20.9102 41.3732C18.6002 42.7632 14.6803 44.3532 12.1003 45.2632C9.28025 46.2632 6.17024 47.1732 3.18024 47.2432C3.06024 47.3432 4.41023 49.4232 4.58023 49.7932C6.26023 53.3132 7.57024 57.7832 8.21024 61.6232H8.19025Z" fill="#FDFDFD"/>
<path d="M21.6099 30.4629C21.3899 30.4429 20.98 30.8529 20.76 30.4729C20.71 24.4829 22.2899 18.5129 22.0899 12.4829C30.8999 13.5729 39.8599 12.4729 48.6899 13.2029C48.8199 13.5729 48.4699 13.9329 48.4499 14.1629C47.0699 14.3329 45.6499 14.7929 44.2699 14.8929C38.7799 15.2929 31.8 14.9729 26.29 14.6429C25.45 14.5929 24.6099 14.6729 23.7799 14.6429C23.7899 19.9629 22.9899 25.3329 21.6199 30.4629H21.6099Z" fill="#FDFDFD"/>
<path d="M47.2504 91.3328L68.8204 113.743C67.0304 114.133 65.1905 113.743 63.4305 113.623C62.4705 113.563 61.1904 113.773 60.3204 113.623C59.4004 113.453 59.0504 112.263 58.5204 111.713L64.7504 111.833C60.0604 106.863 55.1705 102.053 50.7305 96.8528C49.9705 95.9628 46.8305 92.4229 46.5405 91.6929C46.3405 91.1729 46.9704 91.3528 47.2604 91.3328H47.2504Z" fill="#7A7A7A"/>
<path d="M18.2599 37.8929C18.2599 37.8929 18.0999 38.213 17.8499 38.313C17.5099 38.443 15.7299 39.213 15.6299 39.093L15.8699 17.0429H19.8199C19.9399 17.0429 20.3199 16.6629 20.6599 16.8029C20.8699 17.3929 20.4599 18.0529 20.4199 18.4829H17.0699C18.2299 24.8529 18.1199 31.4229 18.2699 37.8929H18.2599Z" fill="#7A7A7A"/>
<path d="M75.7696 126.563C78.8596 132.293 78.9696 139.143 79.8596 145.483C83.2396 145.873 86.5196 146.713 89.7496 147.703C90.0796 147.803 90.2996 148.103 90.3896 148.133L78.2696 146.473L74.8196 126.673C74.7296 125.853 75.6596 126.563 75.7696 126.563Z" fill="#FDFDFD"/>
<path d="M73.6096 9.1333C74.3896 10.7533 76.8296 11.3633 77.4396 13.2033C73.6896 13.3133 69.9296 13.3333 66.1796 13.4433L62.3496 9.61331C66.0996 9.46331 69.8596 9.2733 73.6096 9.1333Z" fill="#FDFDFD"/>
<path d="M72.89 116.023C73.96 117.973 76.13 119.253 77.44 121.053C76.81 121.013 75.76 120.813 75.4 120.813H71.33C70.39 120.813 68.7201 120.633 67.6201 120.573L63.79 115.543C66.82 115.683 69.87 115.873 72.9 116.023H72.89Z" fill="#FDFDFD"/>
<path d="M87.9904 8.65332C88.9004 10.4633 91.3803 11.1433 92.5403 12.7233C89.2703 12.8133 85.9903 12.8633 82.7103 12.9633C82.0103 11.3933 79.7904 10.7533 79.3604 8.89331C82.2304 8.78331 85.1204 8.76332 87.9904 8.65332Z" fill="#FDFDFD"/>
<path d="M58.0396 115.303C59.0096 117.223 61.3396 118.083 62.3496 120.093C59.7996 119.953 57.2296 119.753 54.6796 119.613C53.4296 118.033 51.6296 116.753 50.8496 114.823C53.2396 114.933 55.6796 115.193 58.0396 115.303Z" fill="#FDFDFD"/>
<path d="M103.33 22.3131C103.46 22.3631 103.75 22.2531 104.04 22.4331C104.15 22.5031 105.65 24.3331 105.49 24.4631C101.06 23.4831 97.8196 19.5131 94.5396 16.6031L88.2396 16.5531C87.7296 16.0331 86.9196 15.5831 86.5596 14.8731L94.5396 14.6831L102.26 21.8231C102.55 22.1831 103 22.1631 103.34 22.3031L103.33 22.3131Z" fill="#7A7A7A"/>
<path d="M48.2098 103.793L58.2698 113.373L48.6098 113.083C47.8598 112.933 47.5398 111.983 47.0098 111.463H53.9598C52.8598 109.753 47.7598 105.933 47.4798 104.153C47.3698 103.483 48.0298 103.923 48.1998 103.793H48.2098Z" fill="#7A7A7A"/>
<path d="M27.1199 113.863C27.8999 115.653 30.1799 116.623 30.9499 118.413C28.4799 118.273 25.9899 118.073 23.5199 117.933C22.9399 116.243 21.3099 115.113 20.8799 113.383C22.9199 113.463 25.0699 113.773 27.1099 113.863H27.1199Z" fill="#FDFDFD"/>
<path d="M76.2496 109.073C77.9496 110.963 79.8396 112.673 81.5196 114.583L70.8596 114.103C69.9596 113.933 69.5796 112.783 69.0596 112.193L77.6896 112.433C77.0096 111.423 75.9496 110.713 75.1696 109.803C74.8196 109.383 73.0296 107.353 73.9796 107.163C74.5696 107.363 75.4996 107.883 75.9096 108.353C76.1596 108.633 76.1996 109.023 76.2496 109.083V109.073Z" fill="#7A7A7A"/>
<path d="M63.79 115.543L67.6201 120.573C65.9101 120.473 64.04 120.193 62.35 120.093C61.34 118.083 59.01 117.223 58.04 115.303C59.96 115.393 61.88 115.453 63.79 115.543Z" fill="#7A7A7A"/>
<path d="M79.3604 8.89307C79.8004 10.7531 82.0203 11.3931 82.7103 12.9631C80.9503 13.0131 79.1903 13.1531 77.4403 13.2031C76.8303 11.3631 74.3904 10.7531 73.6104 9.13306C75.5304 9.06306 77.4504 8.96307 79.3604 8.89307Z" fill="#7A7A7A"/>
<path d="M128.94 151.933L112.2 159.873L112.34 158.173L128.85 150.773L128.94 151.933Z" fill="#7A7A7A"/>
<path d="M151.74 129.193C149.5 129.383 147.65 129.173 146.23 127.283C148.46 127.203 150.49 127.033 151.74 129.193Z" fill="#7A7A7A"/>
<path d="M7.71002 41.2529C7.58002 42.5129 6.81004 42.2729 5.79004 42.6929C5.88004 41.9129 7.00002 41.4329 7.71002 41.2529Z" fill="#7A7A7A"/>
<path d="M10.8299 119.613L11.0699 120.573C10.7699 120.563 10.4499 120.643 10.1599 120.533L9.87988 119.613C10.1999 119.613 10.5199 119.613 10.8399 119.613H10.8299Z" fill="#4D4D4F"/>
</svg>
