<svg width="120" height="165" viewBox="0 0 120 165" fill="none" xmlns="http://www.w3.org/2000/svg">
<path d="M43.2884 164.887C37.9784 164.457 29.9184 161.757 30.8484 154.947C31.7784 148.137 43.6884 143.937 49.5184 143.767C47.9084 142.157 47.0685 140.227 47.3585 137.887C47.4785 136.927 48.2184 136.567 48.0784 135.617C44.6984 136.737 37.5584 141.147 34.0884 139.187C32.7384 138.427 34.2484 137.567 31.4584 137.807C26.9884 138.187 16.0284 141.207 12.8484 136.937C10.4784 133.747 15.1884 130.587 17.5684 129.177C22.9484 126.007 27.3185 125.687 32.9285 123.927C34.7685 123.347 36.9684 122.027 38.9084 121.277C44.7684 119.017 56.1984 115.997 62.0984 118.327C63.5884 118.917 62.8384 118.977 64.6984 119.127C65.8384 119.217 66.7084 120.797 66.7584 121.827C66.8884 124.837 61.8485 126.947 59.4985 127.717L49.7584 134.397C59.6084 131.137 69.3785 127.687 79.6185 125.767L82.8284 127.197C83.5084 125.457 86.6584 124.867 88.3884 124.477C93.5684 123.317 100.338 122.957 105.098 125.657C107.708 127.137 110.248 130.177 107.758 132.957C109.958 132.917 112.408 133.217 114.468 134.047C116.148 134.727 118.388 135.997 119.028 137.767V138.727C117.828 141.357 116.058 142.857 113.278 143.647C108.338 145.037 96.0085 144.517 90.9885 143.167C90.1585 142.947 88.0084 141.867 87.5184 141.867C86.9784 141.867 84.5585 143.087 83.7485 143.357C74.8485 146.277 65.4785 147.877 56.3085 149.707L50.6085 144.737C48.1685 144.257 40.6684 147.237 38.3484 148.527C34.2584 150.817 29.7184 155.427 33.9584 159.967C36.3684 162.557 40.5084 163.257 43.8884 163.457C59.6984 164.377 74.8485 158.867 89.9885 155.357C92.2385 153.027 95.3285 151.557 97.9285 149.627C98.6685 149.077 99.5684 147.657 100.478 147.617C100.938 147.597 101.358 147.947 101.848 147.817C102.278 147.707 104.238 145.807 105.028 147.367C105.818 148.927 102.388 149.717 102.988 150.247L106.338 150.007C106.578 151.037 104.618 151.677 104.448 151.967C104.248 152.317 105.198 153.487 103.958 154.467C101.978 156.037 95.8584 155.197 93.3284 155.587C91.3584 155.897 88.1884 157.287 86.0084 157.857C77.0684 160.207 68.0484 162.427 58.9584 164.127L50.4885 164.877H49.2884C47.8284 164.477 45.7184 164.477 44.2584 164.877C43.9384 164.857 43.6185 164.907 43.2985 164.877L43.2884 164.887ZM41.8484 129.607C46.4984 129.097 51.1684 128.427 55.7084 127.287C58.1484 126.677 63.3685 125.347 64.8585 123.247C66.0485 121.567 64.6284 119.237 64.1384 119.767C64.3484 121.597 62.0984 122.277 60.6984 122.927C55.4984 125.327 49.8084 126.737 44.3484 128.397L41.8384 129.607H41.8484ZM48.3184 120.017C42.6084 121.097 35.9384 123.367 31.0784 126.637C29.9384 127.407 29.9985 127.647 29.3085 128.347C29.1185 128.537 28.3784 128.527 28.1884 129.017C28.9584 129.967 31.7185 130.477 32.7385 129.977C32.9785 129.867 34.6284 127.407 35.1584 126.877C37.1284 124.927 39.9684 123.627 42.3984 122.367L48.3085 120.007L48.3184 120.017ZM97.2184 125.287C94.4384 125.147 91.8385 125.287 89.0585 125.877C87.1185 126.287 85.2884 127.157 83.3184 127.447L86.7884 129.347C89.7784 127.967 92.7284 127.357 96.0184 127.207C96.4184 127.187 96.8184 127.207 97.2184 127.207C98.1284 127.207 99.2284 127.117 100.098 127.207C100.318 127.227 101.358 127.407 101.538 127.447C103.948 128.057 106.548 130.217 105.858 132.967C106.898 133.147 107.588 131.567 107.548 130.697C107.448 128.337 104.078 126.877 102.258 126.247C101.548 125.997 101.338 125.937 100.578 125.767C99.8184 125.597 99.1785 125.377 98.4184 125.287C98.0385 125.247 97.6084 125.307 97.2184 125.287ZM86.4285 133.687C86.7485 133.607 88.1784 133.617 88.3484 133.447L79.6085 126.737C69.6585 129.707 59.7885 132.877 49.9985 136.337C49.8785 136.707 50.2185 136.777 50.2385 136.817C51.1185 139.237 54.6584 141.387 56.4784 143.187C56.8084 143.357 58.7784 142.307 59.3484 142.097C59.9184 141.887 60.4884 141.577 61.0284 141.377C62.2684 140.927 63.6085 140.597 64.8585 140.177C65.4985 139.967 65.9085 139.587 66.2985 139.457C72.7785 137.327 79.7985 135.437 86.4285 133.697V133.687ZM56.4684 128.657C55.4484 128.837 53.7284 129.067 52.8184 129.437C52.0284 129.757 50.7184 130.927 49.7684 131.417C44.7884 133.947 39.5484 136.037 34.0884 137.267L33.9784 138.217C39.0984 139.307 44.2884 135.947 48.7284 133.727L56.4784 128.647L56.4684 128.657ZM26.7184 129.147C26.3384 128.877 19.9484 131.907 19.4384 132.727C17.8084 135.377 24.7884 134.967 25.9184 134.897C30.8484 134.567 35.9084 132.807 40.6484 131.527C40.6484 131.107 39.5984 131.257 39.3184 131.277C36.4384 131.467 33.6084 131.997 30.7284 131.497C29.2584 131.247 27.1184 130.767 26.7184 129.137V129.147ZM101.288 140.647H107.158C107.808 140.647 109.848 140.197 110.578 139.997C111.198 139.827 112.558 139.447 112.748 138.797C113.178 137.367 109.978 134.947 108.478 135.367C109.428 137.587 106.978 138.997 105.168 139.617L101.278 140.647H101.288ZM89.5485 140.897C89.2585 141.267 91.3285 141.827 91.5585 141.887C95.6085 142.967 111.098 143.157 114.558 141.097C114.918 140.887 116.178 139.647 116.358 139.307C117.438 137.257 115.018 136.927 113.518 136.577C116.108 140.497 110.708 141.497 107.878 141.847C103.798 142.357 99.5285 141.717 95.4985 141.057C93.2585 140.687 91.7585 139.677 89.5485 140.897Z" fill="#070707"/>
<path d="M0.148286 19.2174C0.408286 14.5174 1.34831 9.11738 2.60831 4.52738C2.83831 3.68738 3.69827 0.0174209 4.56827 0.00742088C4.84827 -0.0425791 5.05827 0.167394 5.12827 0.417394C5.45827 1.46739 3.87827 6.37737 3.56827 7.89737C1.88827 16.0374 1.31828 25.1974 2.32828 33.4674C2.59828 35.6974 3.22832 37.8674 3.49832 40.0974C8.38832 37.3874 12.6083 48.1374 10.0983 50.9074C7.5883 53.6774 4.07827 47.0474 3.37827 45.1374C2.57827 45.4874 3.18828 50.0074 3.32828 50.9474C4.27828 57.4174 8.42827 66.8874 14.4483 70.0574C19.8383 72.8974 24.5783 71.6374 27.0983 66.0174C27.7583 64.5374 29.4883 59.6574 29.3983 58.2274C29.3583 57.4974 27.8383 55.5774 27.4183 54.6774C26.2483 52.1974 24.8783 46.4074 27.3383 44.4274C30.2283 42.1074 31.9083 49.1274 32.0283 51.0174C32.1883 53.4974 31.5683 55.7274 31.6583 58.1074C33.6383 59.5974 34.7683 56.4874 35.2583 54.9874C37.8283 47.0974 37.6883 39.2574 37.5483 31.0974C37.4083 22.9374 37.2483 14.5874 37.0483 6.39737C36.9983 4.43737 37.1083 2.46742 37.0583 0.507421C37.5583 -0.0725791 38.1283 2.16742 38.1883 2.37742C39.4083 6.80742 39.2783 11.4574 39.4483 15.9974C39.8883 27.7874 40.8383 42.5274 37.4683 53.8374C36.5583 56.8874 35.1383 61.3974 31.0683 59.5474C29.8583 64.4774 28.5783 70.2774 23.3883 72.3774C20.3583 73.6074 18.4583 73.3074 15.4883 72.1374C6.32831 68.5174 0.738288 54.0674 1.58829 44.7874C1.66829 43.8874 2.26829 42.5374 2.27829 41.9074C2.27829 40.9174 1.17827 37.4874 0.948274 36.0674C0.688274 34.4874 0.258296 32.2174 0.158296 30.7474C-0.0817044 27.3874 -0.0217045 22.6174 0.158296 19.2274L0.148286 19.2174ZM9.01828 49.6974C9.32828 46.7374 8.19828 41.7074 4.70828 41.4074C4.51828 41.5474 4.31827 41.7274 4.25827 41.9574C4.03827 42.7874 5.72827 46.1874 6.25827 47.0674C6.52827 47.5174 8.39828 50.3374 9.01828 49.6974ZM29.8683 56.1774C30.4383 53.2174 30.7383 49.4774 29.4383 46.6574C28.4883 44.5874 27.5183 45.2574 27.2583 47.2074C26.9483 49.5274 27.3983 51.8674 28.3983 53.9474L29.8783 56.1874L29.8683 56.1774Z" fill="#070707"/>
<path d="M49.2785 164.887H44.2485C45.7085 164.487 47.8185 164.487 49.2785 164.887Z" fill="#9D9D9D"/>
<path d="M102.298 34.0473C102.338 34.1173 102.778 34.0473 102.908 34.7373C103.298 36.6973 100.548 44.2373 99.2383 45.8373C98.3383 46.9273 97.8183 46.9074 96.4983 46.5674C95.6583 49.8774 93.5783 52.9373 91.5583 55.6673C91.1083 56.2673 89.3382 58.0073 89.1882 58.3373C88.5982 59.6673 89.6383 60.2673 87.6783 60.9073C85.1283 61.7473 84.0583 63.1473 81.8483 64.6673C76.7583 68.1773 72.0783 70.7073 68.5883 76.1073C59.9983 89.4073 65.1283 103.847 80.7183 107.357C83.5083 107.987 85.5683 108.367 88.3483 107.277C86.4283 103.737 85.5783 99.9473 88.8483 96.8573C94.6883 91.3273 99.3282 99.3373 94.8182 104.997L91.4683 107.877C92.8483 109.327 95.2783 111.267 97.3683 111.347C98.3283 111.387 98.1883 110.327 98.6083 109.507C100.308 106.217 104.008 108.687 102.358 111.337C101.848 112.157 100.558 112.967 99.6483 113.307C99.5483 114.357 99.4283 119.287 97.8483 118.997C96.5683 118.757 97.5283 114.557 97.4283 113.537C94.1583 113.077 91.6483 111.277 89.5483 108.827C85.3383 110.797 80.4883 109.717 76.2983 108.177C60.3083 102.287 58.5782 84.2774 68.9382 72.1273C72.9282 67.4373 78.3482 64.6773 83.0682 60.9673C74.6382 60.9973 66.2082 60.9173 57.7682 60.9573C55.1282 60.9673 53.1083 61.1373 50.3483 60.9673C48.5083 60.8573 46.8583 61.6273 45.9683 59.5973C46.3483 53.9473 45.8983 48.2373 46.1483 42.5973C46.2083 41.3573 46.3283 38.3773 46.6583 37.3473C47.1883 35.6473 48.5482 37.1073 49.7582 36.6073C47.0082 25.1473 45.6783 13.1274 47.8383 1.44736L48.5782 1.58731C49.4282 7.35731 48.7983 13.2573 49.2783 19.0873C49.4483 21.1073 51.5482 36.0373 52.3782 36.6273L88.2883 36.6673C89.1983 37.0573 88.5382 38.1074 88.5682 39.0074C88.7382 44.1374 88.4482 49.5073 88.8282 54.6073C88.8582 54.9673 88.6382 55.2974 89.1882 55.1974C89.6482 55.0074 91.9182 51.8574 92.3782 51.1974C92.8882 50.4774 95.3783 46.8873 95.4983 46.3773C95.6183 45.8674 95.2683 45.3573 95.3083 44.7873C95.3783 43.6773 97.0082 39.8473 97.3882 38.2073C97.9082 35.9173 98.2983 33.3773 98.6183 31.0473C99.9583 21.3073 100.138 11.2574 99.6183 1.44736C101.418 1.85736 103.008 0.147351 104.138 2.31735C106.138 6.13735 104.848 20.8173 104.138 25.5273C103.938 26.8273 102.118 33.6473 102.308 34.0373L102.298 34.0473ZM50.2183 37.9573C49.7683 37.8873 47.7183 37.8273 47.5983 38.3273V60.0074C48.3083 60.0974 48.9482 59.7774 49.6382 59.7574C59.9282 59.3874 70.2683 59.9873 80.5583 59.5173C81.7583 59.4573 84.5082 59.7973 85.3782 59.2973C85.4982 59.2273 86.9883 57.7073 87.0383 57.5973L87.4083 38.1573L52.6583 37.9173C53.1183 38.6573 53.4483 40.7273 53.9783 41.2773C54.3283 41.6373 55.0482 41.6173 55.5082 41.8973C56.0682 42.2373 57.1783 43.4473 57.4583 43.5573C57.8183 43.7073 59.0883 43.2273 59.7183 43.1773C64.0583 42.8873 68.2683 45.4774 67.9983 50.2574C67.6183 56.9874 57.6283 58.5074 54.2883 53.1974C52.9783 51.1074 53.7982 49.9773 53.2682 48.2173C52.8582 46.8473 51.3082 45.7073 51.4382 43.7873C51.4782 43.2573 51.8682 42.8474 51.8182 42.4474C51.6782 41.3274 50.2083 39.3073 50.2283 37.9273L50.2183 37.9573ZM92.3683 97.0173C90.5983 97.3673 88.8183 99.7373 88.6483 101.487C88.5583 102.387 89.5883 105.897 90.4283 106.067C92.3983 105.227 94.4982 103.057 94.7682 100.877C94.9582 99.3474 94.4283 96.6173 92.3683 97.0273V97.0173Z" fill="#070707"/>
<path d="M41.1282 0.737305C40.7282 1.8973 41.5982 3.00731 41.8182 3.99731C43.7082 12.5973 43.8983 24.7473 44.2483 33.7173C45.1483 56.2473 43.7883 74.5473 35.3083 95.5873C34.5283 97.5173 33.8683 99.5673 32.4983 101.167C35.0683 102.147 34.1183 104.387 33.4883 106.417L35.1083 107.687C35.3583 108.587 32.4283 114.827 31.8283 116.077C31.3483 117.067 30.0583 120.067 29.4983 120.697C28.3783 121.947 27.0683 119.817 25.7983 119.747C25.2483 121.457 24.8883 126.137 22.2383 124.397C21.7883 122.257 23.5882 120.597 23.6282 118.567L21.2483 117.837C21.0483 119.117 19.9283 122.927 18.4483 123.067C15.4283 122.267 18.6583 118.987 19.0883 117.247C17.6283 116.647 17.1983 116.687 17.5183 114.947C17.7983 113.397 19.5083 109.647 20.2383 108.077C20.6883 107.117 21.8583 104.507 22.5583 103.917C23.6583 102.977 24.5583 103.757 25.7783 103.667C25.9583 99.9973 27.8683 99.5473 31.0583 100.567C35.2883 89.4373 39.6383 78.2173 41.3383 66.3373C43.8383 48.8773 43.1183 30.9073 41.8483 13.3373C41.5583 9.25728 41.0583 5.15731 40.4483 1.11731L41.1282 0.737305ZM28.1882 104.647C28.7182 104.877 31.4783 106.087 31.7783 105.837C31.7683 105.027 32.6083 103.937 32.1483 103.207C31.9283 102.847 29.6583 102.057 29.1483 102.007C28.7283 101.967 28.2883 101.987 27.8683 102.037L27.0083 104.027C27.0782 104.347 27.8682 104.507 28.1882 104.647Z" fill="#070707"/>
<path d="M58.8683 1.93758C58.8083 7.47758 57.5283 15.5375 63.2683 18.7775C64.6883 19.5775 65.8483 19.8776 67.4983 19.6976C66.4183 16.8376 67.4483 10.7175 70.1483 9.02754C72.1883 7.74755 74.0883 9.70755 74.3883 11.7175C74.9083 15.2475 73.1383 18.7275 70.1483 20.5275C71.8983 23.1875 75.1583 24.9875 77.5683 21.9675C79.7283 19.2575 80.9682 13.1476 80.9382 9.72756C80.9282 8.14756 79.2682 3.13754 79.9382 2.26754C80.7582 1.20754 81.7483 2.53757 82.0583 3.30757C84.2783 8.94757 83.2483 21.1275 77.9283 24.9675C75.3783 26.8075 71.9783 25.6276 69.9283 23.6276C69.0983 22.8176 68.6883 21.3376 67.3883 21.3476C65.9583 21.3676 65.3883 21.6575 63.7783 21.1475C56.8883 18.9675 55.9983 10.3276 57.5083 4.28755C57.5683 4.04755 58.3282 1.30758 58.8782 1.93758H58.8683ZM69.4183 18.9776C71.8083 17.8076 73.3083 14.5576 72.7183 11.9476C72.5183 11.0376 71.5483 10.0476 70.7383 11.0676C69.1883 13.0076 68.8083 16.6376 69.4083 18.9776H69.4183Z" fill="#070707"/>
<path d="M86.4283 133.687C79.7883 135.427 72.7683 137.317 66.2983 139.447L70.4383 131.107L78.7583 128.757C80.8683 131.057 84.0283 131.877 86.4383 133.687H86.4283Z" fill="#7A7A7A"/>
<path d="M50.2381 136.808C50.2381 136.808 49.8781 136.698 49.9981 136.328C59.7781 132.868 69.6581 129.698 79.6081 126.728L88.3481 133.438C88.1781 133.608 86.7481 133.598 86.4281 133.678C84.0181 131.868 80.8581 131.048 78.7481 128.748L70.4281 131.098L66.2881 139.438C65.9081 139.568 65.4881 139.948 64.8481 140.158C65.0281 137.508 66.7781 134.968 67.4781 132.588C67.5881 132.208 67.4481 132.218 67.1281 132.228C66.7381 132.248 63.7481 133.188 63.6381 133.348L61.0181 141.348C60.4781 141.548 59.9281 141.838 59.3381 142.068C59.6281 139.148 61.2181 136.598 62.2181 133.908L50.2381 136.788V136.808Z" fill="#FDFDFD"/>
<path d="M50.2385 136.807L62.2185 133.927C61.2185 136.617 59.6285 139.167 59.3385 142.087C58.7685 142.307 56.7985 143.347 56.4685 143.177C54.6485 141.377 51.1185 139.227 50.2285 136.807H50.2385Z" fill="#7A7A7A"/>
<path d="M41.8481 129.607L44.3582 128.397C49.8182 126.737 55.5081 125.327 60.7081 122.927C62.1081 122.277 64.3581 121.597 64.1481 119.767C64.6381 119.237 66.0582 121.567 64.8682 123.247C63.3782 125.337 58.1581 126.677 55.7181 127.287C51.1781 128.427 46.5082 129.097 41.8582 129.607H41.8481Z" fill="#7A7A7A"/>
<path d="M56.4683 128.657L48.7183 133.737C44.2883 135.957 39.0883 139.317 33.9683 138.227L34.0782 137.277C39.5382 136.047 44.7882 133.957 49.7582 131.427C50.7182 130.937 52.0283 129.768 52.8083 129.448C53.7183 129.078 55.4383 128.847 56.4583 128.667L56.4683 128.657Z" fill="#7A7A7A"/>
<path d="M48.3182 120.017L42.4083 122.377C39.9683 123.627 37.1283 124.937 35.1683 126.887C34.6383 127.407 32.9883 129.867 32.7483 129.987C31.7283 130.487 28.9682 129.977 28.1982 129.027C28.3982 128.537 29.1282 128.547 29.3182 128.357C30.0082 127.657 29.9483 127.417 31.0883 126.647C35.9483 123.377 42.6182 121.117 48.3282 120.027L48.3182 120.017Z" fill="#7A7A7A"/>
<path d="M89.5483 140.897C91.7583 139.677 93.2583 140.687 95.4983 141.057C99.5283 141.717 103.808 142.357 107.878 141.847C110.698 141.497 116.108 140.497 113.518 136.577C115.028 136.927 117.438 137.257 116.358 139.307C116.178 139.657 114.918 140.887 114.558 141.097C111.098 143.147 95.6083 142.957 91.5583 141.887C91.3283 141.827 89.2583 141.277 89.5483 140.897Z" fill="#7A7A7A"/>
<path d="M97.2184 125.287L96.0184 127.207C92.7284 127.357 89.7784 127.967 86.7884 129.347L83.3184 127.447C85.2884 127.157 87.1184 126.287 89.0584 125.877C91.8384 125.287 94.4384 125.137 97.2184 125.287Z" fill="#7A7A7A"/>
<path d="M61.0283 141.367L63.6483 133.367C63.7683 133.207 66.7483 132.267 67.1383 132.247C67.4683 132.227 67.6083 132.217 67.4883 132.607C66.7983 134.987 65.0383 137.527 64.8583 140.177C63.6083 140.597 62.2683 140.927 61.0283 141.377V141.367Z" fill="#7A7A7A"/>
<path d="M101.288 140.647L105.178 139.617C106.988 138.997 109.428 137.597 108.488 135.367C109.988 134.947 113.188 137.367 112.758 138.797C112.568 139.447 111.208 139.817 110.588 139.997C109.858 140.197 107.818 140.647 107.168 140.647H101.298H101.288Z" fill="#7A7A7A"/>
<path d="M102.248 126.248C104.068 126.878 107.438 128.328 107.538 130.698C107.578 131.568 106.888 133.148 105.848 132.968C106.548 130.218 103.938 128.058 101.528 127.448L102.248 126.248Z" fill="#7A7A7A"/>
<path d="M100.568 125.767L100.089 127.207C99.2185 127.117 98.1185 127.207 97.2085 127.207L98.4085 125.287C99.1685 125.377 99.8385 125.607 100.568 125.767Z" fill="#7A7A7A"/>
<path d="M102.248 126.247L101.528 127.447C101.348 127.407 100.308 127.227 100.088 127.207L100.568 125.767C101.328 125.937 101.538 125.997 102.248 126.247Z" fill="#FDFDFD"/>
<path d="M98.4186 125.288L97.2186 127.208C96.8186 127.208 96.4186 127.188 96.0186 127.208L97.2186 125.288C97.6086 125.308 98.0386 125.248 98.4186 125.288Z" fill="#FDFDFD"/>
<path d="M50.2181 37.9574C50.1981 39.3374 51.6582 41.3575 51.8082 42.4775C51.8582 42.8675 51.4682 43.2875 51.4282 43.8175C51.2882 45.7375 52.8481 46.8775 53.2581 48.2475C53.7881 50.0075 52.9681 51.1375 54.2781 53.2275C57.6181 58.5375 67.6082 57.0275 67.9882 50.2875C68.2582 45.5075 64.0481 42.9174 59.7081 43.2074C59.0781 43.2474 57.8081 43.7375 57.4481 43.5875C57.1681 43.4675 56.0582 42.2675 55.4982 41.9275C55.0282 41.6475 54.3081 41.6675 53.9681 41.3075C53.4381 40.7575 53.1081 38.6975 52.6481 37.9475L87.3981 38.1875L87.0281 57.6275C86.9781 57.7375 85.4882 59.2574 85.3682 59.3274C84.4982 59.8274 81.7582 59.4875 80.5482 59.5475C70.2582 60.0175 59.9181 59.4175 49.6281 59.7875C48.9481 59.8075 48.2981 60.1275 47.5981 60.0375V38.3575C47.7081 37.8575 49.7581 37.9175 50.2081 37.9875L50.2181 37.9574ZM77.5181 42.5475C72.0181 42.9375 70.0282 49.9574 73.3582 54.0174C75.9982 57.2374 81.6281 56.9975 84.0281 53.6475C85.2581 51.9375 85.5181 48.2075 84.6381 46.3175C83.4981 43.8475 80.1281 42.3575 77.5081 42.5475H77.5181Z" fill="#FDFDFD"/>
<path d="M92.3681 97.0175C94.4281 96.6075 94.9481 99.3376 94.7681 100.868C94.4981 103.048 92.3981 105.218 90.4281 106.058C89.5881 105.898 88.5581 102.388 88.6481 101.478C88.8181 99.7375 90.6081 97.3576 92.3681 97.0076V97.0175Z" fill="#FDFDFD"/>
<path d="M29.1485 102.007C29.6585 102.057 31.9285 102.837 32.1485 103.207C32.5985 103.947 31.7585 105.027 31.7785 105.837C31.4885 106.087 28.7185 104.877 28.1885 104.647L29.1485 102.007Z" fill="#7A7A7A"/>
<path d="M29.1483 102.007L28.1883 104.647C27.8683 104.507 27.0783 104.347 27.0083 104.027L27.8683 102.037C28.2883 101.987 28.7283 101.967 29.1483 102.007Z" fill="#FDFDFD"/>
<path d="M77.5183 42.5475C80.1383 42.3675 83.4983 43.8475 84.6483 46.3175C85.5283 48.2075 85.2684 51.9374 84.0384 53.6474C81.6384 56.9974 76.0084 57.2374 73.3684 54.0174C70.0384 49.9574 72.0284 42.9375 77.5284 42.5475H77.5183ZM77.2583 44.2375C70.7083 45.3275 72.7784 57.4174 80.9784 54.2074C83.0284 53.4074 83.9684 51.4575 83.9984 49.3175C84.0484 45.8875 80.3984 43.7175 77.2484 44.2375H77.2583Z" fill="#070707"/>
<path d="M77.2581 44.2374C80.4081 43.7074 84.0581 45.8774 84.0081 49.3174C83.9781 51.4574 83.0282 53.4074 80.9882 54.2074C72.7782 57.4174 70.7081 45.3374 77.2681 44.2374H77.2581ZM78.9682 46.8474C78.7382 46.4774 77.1081 46.1974 77.3181 47.6474C77.5681 49.4074 79.6882 47.9974 78.9682 46.8474ZM79.4182 52.0374C80.7782 50.6974 77.4382 48.6574 77.2982 51.0174C77.2182 52.3674 78.6682 52.7774 79.4182 52.0374Z" fill="#7A7A7A"/>
<path d="M79.4181 52.0373C78.6681 52.7773 77.2181 52.3673 77.2981 51.0173C77.4381 48.6573 80.7781 50.6973 79.4181 52.0373Z" fill="#070707"/>
<path d="M78.9685 46.8476C79.6885 47.9876 77.5784 49.4076 77.3184 47.6476C77.1084 46.1976 78.7385 46.4876 78.9685 46.8476Z" fill="#070707"/>
</svg>
