<svg width="94" height="62" viewBox="0 0 94 62" fill="none" xmlns="http://www.w3.org/2000/svg">
<path d="M33.2118 61.6423C29.4418 61.5723 25.4218 61.3323 21.6118 61.1523C20.1318 61.0823 16.5218 61.7523 16.0218 60.0323C15.8218 59.3523 15.9118 55.3522 15.7318 55.1822C13.7718 55.5022 13.7618 54.6922 12.9618 53.3022C7.67179 53.7622 2.09184 53.3522 0.761836 47.3022C-0.898164 39.7522 0.631789 29.1822 0.901789 21.3622C1.10179 15.5922 0.471819 8.05227 1.43182 2.53227C1.61182 1.48227 2.14179 0.212258 2.53179 2.02226C2.92179 3.83226 2.97181 6.59223 3.05181 8.43223C3.41181 17.0522 3.14181 25.6523 3.05181 34.2723C3.01181 37.9323 2.39184 44.9122 3.64184 48.2422C4.82184 51.3622 10.0818 51.1122 12.8418 51.1022C12.7318 49.0422 14.2318 48.6423 15.7318 47.8423C15.6618 44.8323 15.7918 41.8022 15.7318 38.7922C15.7318 38.3222 15.1318 36.2922 16.0818 36.2922H56.7818C58.0118 36.2922 58.5018 39.3522 58.5718 40.2422C58.7718 42.6922 58.7618 45.4222 58.8218 47.8822C58.9218 51.8622 58.7318 55.8623 58.8018 59.8423C58.4818 61.4723 54.6818 61.2823 53.4018 61.3923C53.0918 61.4223 52.8618 61.6423 52.8218 61.6423H49.9518C48.2418 61.2423 45.9218 61.2423 44.2018 61.6423H39.1718C38.7118 61.2223 37.6818 61.3923 37.0218 61.4023C36.6418 61.4023 36.0218 61.2623 35.8218 61.6423C34.9518 61.6323 34.0618 61.6623 33.1918 61.6423H33.2118ZM55.8318 38.4523H17.4118L17.6518 47.0522C17.7918 47.1922 21.0818 45.8122 21.3118 45.6322C21.6818 45.3422 22.1918 43.8323 22.7918 43.2223C27.0818 38.7923 35.4018 42.4322 35.8518 48.3622C36.3518 54.9222 29.2718 58.9022 23.8918 55.0522C23.4218 54.7222 22.7818 53.7822 22.4318 53.6222C21.8118 53.3422 18.8618 54.6622 17.9218 54.7422L17.6518 59.0122L56.6718 59.4922C56.6218 57.7022 56.7318 55.8922 56.6718 54.1022C56.5618 49.8822 56.7118 45.4022 56.4318 41.1922C56.3918 40.6722 56.1818 38.5623 55.8218 38.4523H55.8318Z" fill="#040404"/>
<path d="M49.9717 61.6423H44.2217C45.9317 61.2423 48.2517 61.2423 49.9717 61.6423Z" fill="#49494B"/>
<path d="M39.192 61.6419H37.042V61.4019C37.702 61.3819 38.732 61.2219 39.192 61.6419Z" fill="#7A7A7A"/>
<path d="M37.0418 61.4019V61.6418H35.8418C36.0418 61.2618 36.6518 61.4119 37.0418 61.4019Z" fill="#A5A5A5"/>
<path d="M92.3515 3.33211C92.3215 3.73211 92.3515 4.1221 92.2215 4.5121C90.8315 8.7921 88.6316 13.2121 86.9416 17.4121C85.8916 18.6921 83.6815 18.4321 82.1515 18.3821C59.7815 17.7621 37.1816 17.4221 14.8916 16.2221C13.1716 16.1321 9.75154 16.7121 8.85154 14.8421C7.72154 11.0121 6.86154 7.1121 5.85154 3.2621C5.58154 2.2321 4.49154 1.4321 5.79154 0.442097C6.87154 -0.377903 7.46156 0.192107 8.43156 0.202107C32.1016 0.502107 55.8316 0.902129 79.5216 1.41213C83.5316 1.50213 87.7515 1.13208 91.7115 1.67208C92.6615 1.80208 93.9816 1.81212 93.4316 3.09212L92.3515 3.3221V3.33211ZM15.2616 3.0721H8.80155L12.0616 14.5621L67.2115 15.7421L62.4416 13.9321C56.9116 14.2221 50.1515 10.7721 45.0415 10.4921C43.5115 10.4121 40.0315 11.7821 37.9015 11.9221C32.7315 12.2621 21.3115 11.6621 17.4115 7.97213C16.2015 6.82213 15.2116 4.75209 15.2616 3.06209V3.0721ZM18.1216 3.08211L16.7016 3.45211C17.4916 8.05211 21.8415 8.95212 25.7815 9.65212C29.8915 10.3921 34.0615 10.5821 38.2315 10.4821L27.4516 9.18209C24.2216 8.19209 18.6515 7.06211 18.1115 3.08211H18.1216ZM44.4615 7.62209C39.7515 7.88209 35.1116 6.88212 30.6316 5.53212C27.6616 4.63212 23.9116 2.50211 20.8916 3.08211C19.6816 3.31211 20.0115 4.02208 20.7815 4.61208C24.1315 7.18208 33.1316 8.14212 37.3916 8.34212C38.9116 8.41212 42.5315 8.57211 43.8615 8.33211C44.2715 8.26211 44.5315 8.07209 44.4615 7.62209ZM44.4615 6.42208L28.9015 3.0721L33.4516 4.62209C36.7116 5.35209 40.0416 6.39212 43.3916 6.65212C43.6516 6.67212 44.5015 6.84208 44.4615 6.42208ZM89.7016 3.55208L39.4316 3.43209C40.4216 3.68209 41.4115 3.96211 42.3615 4.33211C43.1815 4.64211 44.6915 5.52212 45.3515 5.65212C46.7115 5.93212 48.5816 5.59208 50.0516 5.73208C51.7516 5.89208 54.4916 7.12207 55.8316 7.10207C56.5816 7.10207 58.8415 6.2021 59.9715 6.0121C65.8015 5.0221 79.1215 4.90211 83.2315 9.89211C84.3615 11.2621 85.2116 13.9021 83.6416 15.1921C83.2316 15.5321 82.4515 15.5021 82.2815 15.9821L84.8016 16.0021L89.7016 3.55208ZM57.8716 7.85207C59.2716 7.82207 61.0416 8.73208 62.3316 8.80208C63.9116 8.88208 65.9816 8.2921 67.8116 8.3221C69.4016 8.3521 71.6616 8.61212 73.2716 8.84212C76.3816 9.29212 79.3615 10.1921 82.2815 11.3221C81.6915 10.1921 80.6016 9.61211 79.5016 9.08211C74.6316 6.74211 66.2416 6.61213 60.8916 7.16213L57.8716 7.84212V7.85207ZM82.7616 13.3621C77.3816 10.4921 71.0916 9.72211 65.0516 9.77211C65.1516 10.1921 65.6016 10.3121 65.9516 10.4221C68.5916 11.2521 72.2715 11.6421 75.1015 12.2821C77.1115 12.7321 79.8716 13.7821 81.7416 14.0321C82.3316 14.1121 82.7916 14.0721 82.7516 13.3621H82.7616ZM75.5816 15.5121L64.8816 11.7221L63.8515 12.7621C67.2015 14.2221 71.1316 15.3421 74.8116 15.6821C75.0716 15.7021 75.6216 15.9621 75.5716 15.5121H75.5816ZM80.8515 14.7921C78.6115 14.3821 76.4415 13.3921 74.1515 13.3621L78.6416 15.4721C78.9216 15.5821 79.1615 15.4521 79.4215 15.4121C79.6415 15.3821 80.7815 15.0821 80.8515 14.7921Z" fill="#040404"/>
<path d="M55.8319 38.4521C56.1819 38.5621 56.4019 40.6621 56.4419 41.1921C56.7219 45.4021 56.5719 49.8821 56.6819 54.1021C56.7319 55.8921 56.6219 57.7021 56.6819 59.4921L17.6619 59.0121L17.9319 54.7421C18.8719 54.6621 21.8119 53.3521 22.4419 53.6221C22.7919 53.7821 23.4419 54.7221 23.9019 55.0521C29.2919 58.9021 36.3619 54.9221 35.8619 48.3621C35.4119 42.4321 27.0919 38.7922 22.8019 43.2222C22.2119 43.8322 21.6919 45.3521 21.3219 45.6321C21.0919 45.8121 17.8019 47.1921 17.6619 47.0521L17.4219 38.4521H55.8419H55.8319ZM51.8819 55.1921C52.5219 54.9121 54.5119 54.0221 53.8019 53.0421C58.1419 46.9221 50.8219 39.9821 44.4519 43.1121C36.9119 46.8321 41.8419 59.6021 51.8819 55.1921Z" fill="#DEDEDE"/>
<path d="M15.2618 3.07227C15.2118 4.76227 16.1917 6.83224 17.4117 7.98224C21.3017 11.6722 32.7317 12.2623 37.9017 11.9323C40.0317 11.7923 43.5117 10.4223 45.0417 10.5023C50.1517 10.7723 56.9218 14.2323 62.4418 13.9423L67.2117 15.7523L12.0618 14.5723L8.80176 3.08228H15.2618V3.07227Z" fill="#7A7A7A"/>
<path d="M89.7017 3.55212L84.8016 16.0021L82.2816 15.9821C82.4516 15.5021 83.2317 15.5321 83.6417 15.1921C85.2117 13.9021 84.3616 11.2622 83.2316 9.89215C79.1216 4.90215 65.8016 5.02215 59.9716 6.01215C58.8516 6.20215 56.5917 7.09211 55.8317 7.10211C54.4917 7.12211 51.7516 5.89212 50.0516 5.73212C48.5716 5.59212 46.7116 5.93216 45.3516 5.65216C44.6916 5.52216 43.1916 4.64215 42.3616 4.33215C41.4016 3.97215 40.4116 3.69213 39.4316 3.43213L89.7017 3.55212Z" fill="#7A7A7A"/>
<path d="M44.4615 7.62197C44.5315 8.08197 44.2716 8.262 43.8616 8.332C42.5316 8.572 38.9116 8.41201 37.3916 8.34201C33.1316 8.14201 24.1315 7.18196 20.7815 4.61197C20.0115 4.02197 19.6816 3.312 20.8916 3.082C23.9116 2.502 27.6716 4.63201 30.6316 5.53201C35.1016 6.88201 39.7515 7.88198 44.4615 7.62197Z" fill="#49494B"/>
<path d="M82.7615 13.3622C82.8015 14.0722 82.3415 14.1122 81.7515 14.0322C79.8815 13.7822 77.1215 12.7322 75.1115 12.2822C72.2815 11.6522 68.6015 11.2522 65.9615 10.4222C65.6015 10.3122 65.1615 10.1922 65.0615 9.7722C71.1115 9.7122 77.3915 10.4922 82.7715 13.3622H82.7615Z" fill="#49494B"/>
<path d="M18.1219 3.08203C18.6519 7.06203 24.2219 8.19201 27.4619 9.18201L38.2419 10.482C34.0719 10.582 29.8919 10.392 25.7919 9.65204C21.8519 8.94204 17.5019 8.05203 16.7119 3.45203L18.132 3.08203H18.1219Z" fill="#49494B"/>
<path d="M75.5814 15.5121C75.6314 15.9621 75.0814 15.7021 74.8214 15.6821C71.1413 15.3421 67.2113 14.2221 63.8613 12.7621L64.8914 11.7222L75.5913 15.5121H75.5814Z" fill="#49494B"/>
<path d="M44.4614 6.42224C44.5014 6.85224 43.6514 6.67228 43.3914 6.65228C40.0414 6.39228 36.7114 5.35225 33.4514 4.62225L28.9014 3.07227L44.4614 6.42224Z" fill="#49494B"/>
<path d="M80.8514 14.7923C80.7814 15.0823 79.6414 15.3724 79.4214 15.4124C79.1614 15.4524 78.9114 15.5824 78.6414 15.4724L74.1514 13.3623C76.4414 13.4023 78.6114 14.3923 80.8514 14.7923Z" fill="#49494B"/>
<path d="M57.8721 7.85196L60.8921 7.17197C66.2421 6.61197 74.6321 6.75201 79.5021 9.09201C80.6121 9.62201 81.702 10.202 82.282 11.332C79.372 10.202 76.3821 9.30196 73.2721 8.85196C71.6621 8.62196 69.4021 8.352 67.8121 8.332C65.9721 8.302 63.9021 8.88198 62.3321 8.81198C61.0321 8.75198 59.2721 7.83197 57.8721 7.86197V7.85196Z" fill="#49494B"/>
<path d="M53.8019 53.042C53.3019 53.752 52.052 54.352 51.882 55.192C41.842 59.592 36.912 46.832 44.452 43.112C50.812 39.982 58.132 46.912 53.8019 53.042ZM46.562 44.022C42.762 44.512 41.642 49.692 43.992 52.442C46.342 55.192 50.932 54.772 52.562 51.452C54.642 47.222 50.822 43.472 46.562 44.032V44.022Z" fill="#040404"/>
<path d="M51.8818 55.192C52.0518 54.342 53.2918 53.752 53.8018 53.042C54.5118 54.022 52.5218 54.912 51.8818 55.192Z" fill="#7A7A7A"/>
<path d="M46.562 44.0221C50.822 43.4721 54.642 47.2221 52.562 51.4421C50.932 54.7621 46.382 55.232 43.992 52.432C41.602 49.632 42.762 44.5121 46.562 44.0121V44.0221ZM48.472 45.672C46.342 45.952 46.842 48.472 48.412 48.482C49.982 48.492 50.322 45.432 48.472 45.672ZM48.712 50.232C47.802 49.312 45.972 50.812 46.832 51.982C47.932 53.472 49.872 51.412 48.712 50.232Z" fill="#7A7A7A"/>
<path d="M48.472 45.6721C50.312 45.4321 50.012 48.4821 48.412 48.4821C46.812 48.4821 46.342 45.9521 48.472 45.6721Z" fill="#040404"/>
<path d="M48.7121 50.2319C49.8721 51.4119 47.9422 53.4719 46.8322 51.9819C45.9622 50.8119 47.8021 49.3119 48.7121 50.2319Z" fill="#040404"/>
</svg>
